G04 #@! TF.GenerationSoftware,KiCad,Pcbnew,5.1.10-88a1d61d58~90~ubuntu21.04.1*
G04 #@! TF.CreationDate,2021-09-17T14:10:37+02:00*
G04 #@! TF.ProjectId,unix60plate,756e6978-3630-4706-9c61-74652e6b6963,rev?*
G04 #@! TF.SameCoordinates,Original*
G04 #@! TF.FileFunction,Paste,Bot*
G04 #@! TF.FilePolarity,Positive*
%FSLAX46Y46*%
G04 Gerber Fmt 4.6, Leading zero omitted, Abs format (unit mm)*
G04 Created by KiCad (PCBNEW 5.1.10-88a1d61d58~90~ubuntu21.04.1) date 2021-09-17 14:10:37*
%MOMM*%
%LPD*%
G01*
G04 APERTURE LIST*
G04 #@! TA.AperFunction,Profile*
%ADD10C,0.200000*%
G04 #@! TD*
G04 #@! TA.AperFunction,Profile*
%ADD11C,0.050000*%
G04 #@! TD*
G04 APERTURE END LIST*
D10*
X57831000Y-65682200D02*
X353106000Y-65682200D01*
X53068500Y-175219700D02*
X53068500Y-70444700D01*
X353106000Y-179982200D02*
X57831000Y-179982200D01*
X357868500Y-70444700D02*
X357868500Y-175219700D01*
X307990692Y-116824140D02*
G75*
G02*
X308990692Y-115824140I1000000J0D01*
G01*
X108970523Y-148872839D02*
G75*
G02*
X107970522Y-147872838I0J1000001D01*
G01*
X245795597Y-128822828D02*
X245795597Y-116822821D01*
X68489251Y-129822828D02*
G75*
G02*
X67489251Y-128822828I0J1000000D01*
G01*
X164833054Y-109772817D02*
G75*
G02*
X163833053Y-110772818I-1000001J0D01*
G01*
X66108000Y-91722808D02*
G75*
G02*
X65107999Y-90722807I0J1000001D01*
G01*
X292421873Y-153922841D02*
G75*
G02*
X293421874Y-154922842I0J-1000001D01*
G01*
X293421874Y-166922848D02*
X293421874Y-154922842D01*
X270895610Y-129822828D02*
X282895617Y-129822828D01*
X293708123Y-78722801D02*
X293708123Y-90722807D01*
X199458072Y-91722808D02*
G75*
G02*
X198458071Y-90722807I0J1000001D01*
G01*
X251845600Y-129822828D02*
X263845607Y-129822828D01*
X198458071Y-78722801D02*
G75*
G02*
X199458072Y-77722800I1000001J0D01*
G01*
X211458078Y-77722800D02*
G75*
G02*
X212458079Y-78722801I0J-1000001D01*
G01*
X293420623Y-147872838D02*
G75*
G02*
X292420622Y-148872839I-1000001J0D01*
G01*
X160358051Y-78722801D02*
X160358051Y-90722807D01*
X212458079Y-166922848D02*
X212458079Y-154922842D01*
X145783043Y-109772817D02*
G75*
G02*
X144783042Y-110772818I-1000001J0D01*
G01*
X131783035Y-97772811D02*
X131783035Y-109772817D01*
X137545538Y-129822828D02*
G75*
G02*
X136545538Y-128822828I0J1000000D01*
G01*
X236270592Y-147872838D02*
G75*
G02*
X235270591Y-148872839I-1000001J0D01*
G01*
X161358051Y-91722807D02*
G75*
G02*
X160358051Y-90722807I0J1000000D01*
G01*
X254320602Y-134872831D02*
G75*
G02*
X255320602Y-135872831I0J-1000000D01*
G01*
X266101847Y-168922848D02*
G75*
G02*
X265101847Y-169922848I-1000000J0D01*
G01*
X260101844Y-169922848D02*
X265101847Y-169922848D01*
X260101844Y-169922848D02*
G75*
G02*
X259101844Y-168922848I0J1000000D01*
G01*
X255320602Y-147872838D02*
X255320602Y-135872831D01*
X342421942Y-130824140D02*
X342421942Y-121031190D01*
X307990692Y-116824140D02*
X307990692Y-128824140D01*
X311458942Y-130824140D02*
X311458942Y-130824140D01*
X342421942Y-98861140D02*
X342421942Y-105567089D01*
X342921942Y-106433115D02*
G75*
G02*
X343421942Y-107299140I-500000J-866025D01*
G01*
X341632155Y-97883484D02*
G75*
G02*
X342421942Y-98861140I-210213J-977656D01*
G01*
X308990692Y-129824140D02*
X310458942Y-129824140D01*
X342421942Y-130824140D02*
G75*
G02*
X341421942Y-131824140I-1000000J0D01*
G01*
X160070551Y-147872838D02*
G75*
G02*
X159070550Y-148872839I-1000001J0D01*
G01*
X123258031Y-91722808D02*
X135258037Y-91722808D01*
X166120554Y-148872839D02*
X178120560Y-148872839D01*
X123258031Y-91722808D02*
G75*
G02*
X122258030Y-90722807I0J1000001D01*
G01*
X137545538Y-129822828D02*
X149545545Y-129822828D01*
X150545545Y-128822828D02*
G75*
G02*
X149545545Y-129822828I-1000000J0D01*
G01*
X113733026Y-110772818D02*
X125733032Y-110772818D01*
X232795590Y-129822829D02*
G75*
G02*
X231795589Y-128822828I0J1000001D01*
G01*
X203220574Y-135872831D02*
X203220574Y-147872838D01*
X289945621Y-129822829D02*
G75*
G02*
X288945620Y-128822828I0J1000001D01*
G01*
X78108006Y-77722800D02*
X66108000Y-77722800D01*
X78108006Y-77722800D02*
G75*
G02*
X79108007Y-78722801I0J-1000001D01*
G01*
X279133115Y-109772817D02*
G75*
G02*
X278133114Y-110772818I-1000001J0D01*
G01*
X303233128Y-97772811D02*
X303233128Y-109772817D01*
X245795596Y-128822828D02*
G75*
G02*
X244795596Y-129822828I-1000000J0D01*
G01*
X112445525Y-128822828D02*
X112445525Y-116822821D01*
X169883055Y-97772811D02*
G75*
G02*
X170883056Y-96772810I1000001J0D01*
G01*
X182883063Y-96772811D02*
G75*
G02*
X183883063Y-97772811I0J-1000000D01*
G01*
X150833045Y-97772811D02*
G75*
G02*
X151833046Y-96772810I1000001J0D01*
G01*
X188933066Y-97772811D02*
G75*
G02*
X189933067Y-96772810I1000001J0D01*
G01*
X202933074Y-109772817D02*
X202933074Y-97772811D01*
X150808046Y-154922840D02*
X145811790Y-154922840D01*
X144811790Y-155922841D02*
X144811790Y-168922848D01*
X316234386Y-153922841D02*
G75*
G02*
X317234387Y-154922842I0J-1000001D01*
G01*
X145811790Y-169922848D02*
G75*
G02*
X144811790Y-168922848I0J1000000D01*
G01*
X93681763Y-154922842D02*
X93681763Y-166922848D01*
X93681763Y-154922842D02*
G75*
G02*
X94681764Y-153922841I1000001J0D01*
G01*
X303233127Y-154922842D02*
G75*
G02*
X304233128Y-153922841I1000001J0D01*
G01*
X328040691Y-110774140D02*
G75*
G02*
X327040691Y-109774140I0J1000000D01*
G01*
X199458072Y-91722808D02*
X211458078Y-91722808D01*
X67489251Y-116822821D02*
X67489251Y-128822828D01*
X118495528Y-129822828D02*
G75*
G02*
X117495528Y-128822828I0J1000000D01*
G01*
X198458071Y-78722801D02*
X198458071Y-90722807D01*
X316233135Y-96772810D02*
X304233128Y-96772810D01*
X317233136Y-109772817D02*
X317233136Y-97772811D01*
X278133114Y-96772810D02*
X266133108Y-96772810D01*
X117494276Y-154922842D02*
X117494276Y-166922848D01*
X98158017Y-90722807D02*
X98158017Y-78722801D01*
X122258030Y-78722801D02*
G75*
G02*
X123258031Y-77722800I1000001J0D01*
G01*
X135258037Y-77722800D02*
X123258031Y-77722800D01*
X135258037Y-77722800D02*
G75*
G02*
X136258038Y-78722801I0J-1000001D01*
G01*
X136258038Y-90722807D02*
X136258038Y-78722801D01*
X179408061Y-78722801D02*
G75*
G02*
X180408062Y-77722800I1000001J0D01*
G01*
X67489251Y-116822821D02*
G75*
G02*
X68489251Y-115822821I1000000J0D01*
G01*
X255320603Y-147872838D02*
G75*
G02*
X254320602Y-148872839I-1000001J0D01*
G01*
X208983077Y-110772818D02*
X220983084Y-110772818D01*
X106683022Y-153922841D02*
X94681764Y-153922841D01*
X146070544Y-135872831D02*
G75*
G02*
X147070544Y-134872831I1000000J0D01*
G01*
X159070550Y-134872831D02*
X147070544Y-134872831D01*
X159070550Y-134872830D02*
G75*
G02*
X160070551Y-135872831I0J-1000001D01*
G01*
X160070551Y-147872838D02*
X160070551Y-135872831D01*
X260370605Y-135872831D02*
G75*
G02*
X261370605Y-134872831I1000000J0D01*
G01*
X319463887Y-129822828D02*
X334339895Y-129822828D01*
X341632154Y-97883484D02*
G75*
G02*
X340941529Y-97339984I210213J977656D01*
G01*
X328421942Y-110774140D02*
X328040691Y-110774140D01*
X342421942Y-121031190D02*
G75*
G02*
X342921942Y-120165165I1000000J0D01*
G01*
X336339896Y-131822829D02*
X341422392Y-131822829D01*
X312458942Y-131824140D02*
X317463886Y-131822829D01*
X340040691Y-96774141D02*
G75*
G02*
X340941529Y-97339984I1J-999999D01*
G01*
X328040691Y-96774140D02*
X340040692Y-96774140D01*
X144811789Y-155922841D02*
G75*
G02*
X145811790Y-154922840I1000001J0D01*
G01*
X187645566Y-115822821D02*
G75*
G02*
X188645566Y-116822821I0J-1000000D01*
G01*
X188645566Y-128822828D02*
G75*
G02*
X187645566Y-129822828I-1000000J0D01*
G01*
X155595548Y-116822821D02*
X155595548Y-128822828D01*
X168595555Y-115822821D02*
X156595549Y-115822821D01*
X185170564Y-148872838D02*
G75*
G02*
X184170564Y-147872838I0J1000000D01*
G01*
X207983076Y-97772811D02*
G75*
G02*
X208983077Y-96772810I1000001J0D01*
G01*
X220983084Y-96772811D02*
G75*
G02*
X221983084Y-97772811I0J-1000000D01*
G01*
X297183125Y-96772811D02*
G75*
G02*
X298183125Y-97772811I0J-1000000D01*
G01*
X142308041Y-91722807D02*
G75*
G02*
X141308041Y-90722807I0J1000000D01*
G01*
X83870510Y-109772817D02*
G75*
G02*
X82870509Y-110772818I-1000001J0D01*
G01*
X304233128Y-110772817D02*
G75*
G02*
X303233128Y-109772817I0J1000000D01*
G01*
X280420616Y-167922849D02*
G75*
G02*
X279420615Y-166922848I0J1000001D01*
G01*
X170883056Y-110772817D02*
G75*
G02*
X169883056Y-109772817I0J1000000D01*
G01*
X198170572Y-147872838D02*
G75*
G02*
X197170571Y-148872839I-1000001J0D01*
G01*
X131495535Y-128822828D02*
X131495535Y-116822821D01*
X85158010Y-91722807D02*
G75*
G02*
X84158010Y-90722807I0J1000000D01*
G01*
X231795590Y-116822821D02*
G75*
G02*
X232795590Y-115822821I1000000J0D01*
G01*
X244795596Y-115822821D02*
X232795590Y-115822821D01*
X244795596Y-115822820D02*
G75*
G02*
X245795597Y-116822821I0J-1000001D01*
G01*
X250845600Y-116822821D02*
G75*
G02*
X251845600Y-115822821I1000000J0D01*
G01*
X263845607Y-115822821D02*
X251845600Y-115822821D01*
X263845607Y-115822821D02*
G75*
G02*
X264845607Y-116822821I0J-1000000D01*
G01*
X264845607Y-128822828D02*
X264845607Y-116822821D01*
X288945621Y-116822821D02*
G75*
G02*
X289945621Y-115822821I1000000J0D01*
G01*
X301945627Y-115822821D02*
X289945621Y-115822821D01*
X301945627Y-115822820D02*
G75*
G02*
X302945628Y-116822821I0J-1000001D01*
G01*
X302945628Y-128822828D02*
X302945628Y-116822821D01*
X83870509Y-109772817D02*
X83870509Y-97772811D01*
X256608103Y-91722808D02*
G75*
G02*
X255608102Y-90722807I0J1000001D01*
G01*
X136545538Y-116822821D02*
X136545538Y-128822828D01*
X288945620Y-116822821D02*
X288945620Y-128822828D01*
X76584142Y-148848739D02*
X91460142Y-148848739D01*
X101928392Y-134848739D02*
G75*
G02*
X102928392Y-135848739I0J-1000000D01*
G01*
X99460142Y-149848740D02*
X99460142Y-149848740D01*
X93460142Y-150848739D02*
X98460142Y-150848739D01*
X100460142Y-148848739D02*
X101928392Y-148848739D01*
X69584141Y-150848740D02*
G75*
G02*
X68584141Y-149848740I0J1000000D01*
G01*
X68040642Y-148738463D02*
G75*
G02*
X67497142Y-147848740I456500J889723D01*
G01*
X342921942Y-106433114D02*
G75*
G02*
X342421942Y-105567089I500000J866025D01*
G01*
X174358059Y-90722807D02*
G75*
G02*
X173358058Y-91722808I-1000001J0D01*
G01*
X94681764Y-167922849D02*
G75*
G02*
X93681763Y-166922848I0J1000001D01*
G01*
X183883063Y-109772817D02*
X183883063Y-97772811D01*
X213745580Y-129822829D02*
G75*
G02*
X212745579Y-128822828I0J1000001D01*
G01*
X202933074Y-109772817D02*
G75*
G02*
X201933073Y-110772818I-1000001J0D01*
G01*
X242320595Y-148872838D02*
G75*
G02*
X241320595Y-147872838I0J1000000D01*
G01*
X211458078Y-153922841D02*
G75*
G02*
X212458079Y-154922842I0J-1000001D01*
G01*
X117494276Y-154922842D02*
G75*
G02*
X118494277Y-153922841I1000001J0D01*
G01*
X198461814Y-154922842D02*
G75*
G02*
X199461815Y-153922841I1000001J0D01*
G01*
X316234386Y-153922841D02*
X304233128Y-153922841D01*
X255608102Y-78722801D02*
X255608102Y-90722807D01*
X304233128Y-110772818D02*
X316233135Y-110772818D01*
X241320595Y-135872831D02*
X241320595Y-147872838D01*
X265133107Y-97772811D02*
X265133107Y-109772817D01*
X118494277Y-167922849D02*
X130495535Y-167922849D01*
X93683014Y-97772811D02*
G75*
G02*
X94683015Y-96772810I1000001J0D01*
G01*
X280420616Y-148872839D02*
X292420622Y-148872839D01*
X189933067Y-110772818D02*
G75*
G02*
X188933066Y-109772817I0J1000001D01*
G01*
X70870502Y-110772817D02*
G75*
G02*
X69870502Y-109772817I0J1000000D01*
G01*
X241320595Y-135872831D02*
G75*
G02*
X242320595Y-134872831I1000000J0D01*
G01*
X66108000Y-91722808D02*
X78108006Y-91722808D01*
X261370605Y-148872838D02*
G75*
G02*
X260370605Y-147872838I0J1000000D01*
G01*
X217508082Y-78722801D02*
X217508082Y-90722807D01*
X154308048Y-77722800D02*
X142308041Y-77722800D01*
X317234387Y-166922848D02*
G75*
G02*
X316234386Y-167922849I-1000001J0D01*
G01*
X156595549Y-129822828D02*
X168595555Y-129822828D01*
X147070544Y-148872839D02*
G75*
G02*
X146070543Y-147872838I0J1000001D01*
G01*
X131495536Y-166922848D02*
G75*
G02*
X130495535Y-167922849I-1000001J0D01*
G01*
X264845607Y-128822828D02*
G75*
G02*
X263845607Y-129822828I-1000000J0D01*
G01*
X99445518Y-129822828D02*
X111445524Y-129822828D01*
X99445518Y-129822829D02*
G75*
G02*
X98445517Y-128822828I0J1000001D01*
G01*
X180408062Y-91722808D02*
G75*
G02*
X179408061Y-90722807I0J1000001D01*
G01*
X141308041Y-78722801D02*
X141308041Y-90722807D01*
X112733025Y-97772811D02*
X112733025Y-109772817D01*
X175645559Y-129822828D02*
G75*
G02*
X174645559Y-128822828I0J1000000D01*
G01*
X213745580Y-129822828D02*
X225745586Y-129822828D01*
X329421942Y-114824140D02*
X329421942Y-111774140D01*
X329421942Y-114824140D02*
G75*
G02*
X328421942Y-115824140I-1000000J0D01*
G01*
X318463886Y-130822829D02*
G75*
G02*
X317463886Y-131822829I-1000000J0D01*
G01*
X318463886Y-130822829D02*
G75*
G02*
X319463887Y-129822828I1000001J0D01*
G01*
X343421942Y-107299140D02*
X343421942Y-119299140D01*
X336339896Y-131822830D02*
G75*
G02*
X335339895Y-130822829I0J1000001D01*
G01*
X343421942Y-119299140D02*
G75*
G02*
X342921942Y-120165165I-1000000J0D01*
G01*
X334339895Y-129822829D02*
G75*
G02*
X335339895Y-130822829I0J-1000000D01*
G01*
X127020533Y-135872831D02*
G75*
G02*
X128020533Y-134872831I1000000J0D01*
G01*
X68489251Y-129822828D02*
X85251760Y-129822828D01*
X120970530Y-134872831D02*
X108970523Y-134872831D01*
X128020533Y-148872838D02*
G75*
G02*
X127020533Y-147872838I0J1000000D01*
G01*
X294708123Y-91722807D02*
G75*
G02*
X293708123Y-90722807I0J1000000D01*
G01*
X288658121Y-90722807D02*
G75*
G02*
X287658120Y-91722808I-1000001J0D01*
G01*
X146070543Y-135872831D02*
X146070543Y-147872838D01*
X94681764Y-167922849D02*
X106683022Y-167922849D01*
X260370605Y-135872831D02*
X260370605Y-147872838D01*
X199461815Y-167922848D02*
G75*
G02*
X198461815Y-166922848I0J1000000D01*
G01*
X86251760Y-128822828D02*
G75*
G02*
X85251760Y-129822828I-1000000J0D01*
G01*
X306159500Y-148874821D02*
G75*
G02*
X306701380Y-149872839I-648120J-998018D01*
G01*
X305609386Y-135872831D02*
G75*
G02*
X306609386Y-134872831I1000000J0D01*
G01*
X344809398Y-134872831D02*
X332809392Y-134872831D01*
X329871443Y-135872832D02*
G75*
G02*
X329005417Y-135372831I0J1000001D01*
G01*
X306158894Y-148875770D02*
G75*
G02*
X305609385Y-147872838I640492J1002932D01*
G01*
X337577397Y-149872839D02*
G75*
G02*
X336577396Y-150872840I-1000001J0D01*
G01*
X313701384Y-149872839D02*
G75*
G02*
X312701383Y-150872840I-1000001J0D01*
G01*
X314701384Y-148872839D02*
X329577392Y-148872839D01*
X317234387Y-166922848D02*
X317234387Y-154922842D01*
X130495535Y-153922841D02*
X118494277Y-153922841D01*
X198461815Y-154922842D02*
X198461815Y-166922848D01*
X106683022Y-153922842D02*
G75*
G02*
X107683022Y-154922842I0J-1000000D01*
G01*
X130495535Y-153922842D02*
G75*
G02*
X131495535Y-154922842I0J-1000000D01*
G01*
X211458078Y-153922841D02*
X199461815Y-153922841D01*
X251845600Y-129822828D02*
G75*
G02*
X250845600Y-128822828I0J1000000D01*
G01*
X259101844Y-155922841D02*
X259101844Y-168922848D01*
X269608110Y-90722807D02*
X269608110Y-78722801D01*
X211458078Y-77722800D02*
X199458072Y-77722800D01*
X269895610Y-116822821D02*
G75*
G02*
X270895610Y-115822821I1000000J0D01*
G01*
X212458079Y-90722807D02*
X212458079Y-78722801D01*
X84158009Y-78722801D02*
G75*
G02*
X85158010Y-77722800I1000001J0D01*
G01*
X97158017Y-77722800D02*
X85158010Y-77722800D01*
X97158017Y-77722801D02*
G75*
G02*
X98158017Y-78722801I0J-1000000D01*
G01*
X91460142Y-148848740D02*
G75*
G02*
X92460142Y-149848740I0J-1000000D01*
G01*
X68584141Y-149848740D02*
X68584141Y-149628186D01*
X75584142Y-149848740D02*
G75*
G02*
X76584142Y-148848740I1000000J0D01*
G01*
X68497142Y-134848740D02*
X101928392Y-134848740D01*
X93460142Y-150848740D02*
G75*
G02*
X92460142Y-149848740I0J1000000D01*
G01*
X102928392Y-147848740D02*
G75*
G02*
X101928392Y-148848740I-1000000J0D01*
G01*
X69584141Y-150848739D02*
X74584142Y-150848739D01*
X75584142Y-149848740D02*
G75*
G02*
X74584142Y-150848740I-1000000J0D01*
G01*
X345809399Y-147872838D02*
X345809399Y-135872831D01*
X307701380Y-150872839D02*
G75*
G02*
X306701380Y-149872839I0J1000000D01*
G01*
X331577393Y-150872840D02*
X336577396Y-150872840D01*
X338577398Y-148872838D02*
X344809398Y-148872839D01*
X331577393Y-150872839D02*
G75*
G02*
X330577393Y-149872839I0J1000000D01*
G01*
X331077341Y-135872832D02*
X329871443Y-135872831D01*
X344809398Y-134872830D02*
G75*
G02*
X345809399Y-135872831I0J-1000001D01*
G01*
X313701384Y-149872839D02*
G75*
G02*
X314701384Y-148872839I1000000J0D01*
G01*
X107683022Y-109772817D02*
X107683022Y-97772811D01*
X107683023Y-109772817D02*
G75*
G02*
X106683022Y-110772818I-1000001J0D01*
G01*
X94683015Y-110772818D02*
X106683022Y-110772818D01*
X169883056Y-97772811D02*
X169883056Y-109772817D01*
X182883063Y-96772810D02*
X170883056Y-96772810D01*
X150833046Y-97772811D02*
X150833046Y-109772817D01*
X163833053Y-96772811D02*
G75*
G02*
X164833053Y-97772811I0J-1000000D01*
G01*
X201933073Y-96772810D02*
G75*
G02*
X202933074Y-97772811I0J-1000001D01*
G01*
X131783035Y-97772811D02*
G75*
G02*
X132783036Y-96772810I1000001J0D01*
G01*
X122258030Y-78722801D02*
X122258030Y-90722807D01*
X67497142Y-135848739D02*
X67497142Y-147848740D01*
X92460142Y-149848740D02*
X92460142Y-149848740D01*
X68040642Y-148738463D02*
G75*
G02*
X68584142Y-149628186I-456500J-889723D01*
G01*
X102928392Y-135848739D02*
X102928392Y-147848740D01*
X75584142Y-149848740D02*
X75584142Y-149848740D01*
X67497142Y-135848739D02*
G75*
G02*
X68497142Y-134848739I1000000J0D01*
G01*
X99460142Y-149848740D02*
G75*
G02*
X98460142Y-150848740I-1000000J0D01*
G01*
X99460142Y-149848740D02*
G75*
G02*
X100460142Y-148848740I1000000J0D01*
G01*
X313845130Y-92502247D02*
X313845134Y-92722808D01*
X345808130Y-90722807D02*
X345808130Y-78722801D01*
X338721147Y-93722809D02*
X343721150Y-93722809D01*
X345264630Y-91612530D02*
G75*
G03*
X344721130Y-92502253I456500J-889723D01*
G01*
X313301630Y-91612524D02*
G75*
G02*
X312758130Y-90722801I456500J889723D01*
G01*
X344803145Y-77722800D02*
X313753139Y-77722800D01*
X344721151Y-92722808D02*
G75*
G02*
X343721150Y-93722809I-1000001J0D01*
G01*
X338577398Y-148872838D02*
G75*
G03*
X337577397Y-149872839I0J-1000001D01*
G01*
X298183125Y-109772817D02*
X298183125Y-97772811D01*
X246083097Y-97772811D02*
G75*
G02*
X247083098Y-96772810I1000001J0D01*
G01*
X259083104Y-96772810D02*
X247083098Y-96772810D01*
X259083104Y-96772810D02*
G75*
G02*
X260083105Y-97772811I0J-1000001D01*
G01*
X227033086Y-97772811D02*
G75*
G02*
X228033087Y-96772810I1000001J0D01*
G01*
X240033094Y-96772810D02*
X228033087Y-96772810D01*
X240033094Y-96772811D02*
G75*
G02*
X241033094Y-97772811I0J-1000000D01*
G01*
X241033094Y-109772817D02*
X241033094Y-97772811D01*
X164833053Y-109772817D02*
X164833053Y-97772811D01*
X183883064Y-109772817D02*
G75*
G02*
X182883063Y-110772818I-1000001J0D01*
G01*
X304233128Y-167922848D02*
G75*
G02*
X303233128Y-166922848I0J1000000D01*
G01*
X192408068Y-77722800D02*
X180408062Y-77722800D01*
X192408068Y-77722800D02*
G75*
G02*
X193408069Y-78722801I0J-1000001D01*
G01*
X193408069Y-90722807D02*
X193408069Y-78722801D01*
X154308048Y-77722801D02*
G75*
G02*
X155308048Y-78722801I0J-1000000D01*
G01*
X155308048Y-90722807D02*
X155308048Y-78722801D01*
X155308049Y-90722807D02*
G75*
G02*
X154308048Y-91722808I-1000001J0D01*
G01*
X142308041Y-91722808D02*
X154308048Y-91722808D01*
X160358050Y-78722801D02*
G75*
G02*
X161358051Y-77722800I1000001J0D01*
G01*
X173358058Y-77722800D02*
X161358051Y-77722800D01*
X173358058Y-77722801D02*
G75*
G02*
X174358058Y-78722801I0J-1000000D01*
G01*
X174358058Y-90722807D02*
X174358058Y-78722801D01*
X217508081Y-78722801D02*
G75*
G02*
X218508082Y-77722800I1000001J0D01*
G01*
X230508089Y-77722800D02*
X218508082Y-77722800D01*
X230508089Y-77722801D02*
G75*
G02*
X231508089Y-78722801I0J-1000000D01*
G01*
X231508089Y-90722807D02*
X231508089Y-78722801D01*
X116208027Y-77722801D02*
G75*
G02*
X117208027Y-78722801I0J-1000000D01*
G01*
X85251760Y-115822820D02*
G75*
G02*
X86251761Y-116822821I0J-1000001D01*
G01*
X260083105Y-109772817D02*
G75*
G02*
X259083104Y-110772818I-1000001J0D01*
G01*
X163833053Y-96772810D02*
X151833046Y-96772810D01*
X201933073Y-96772810D02*
X189933067Y-96772810D01*
X329577392Y-148872838D02*
G75*
G02*
X330577393Y-149872839I0J-1000001D01*
G01*
X328139391Y-134872831D02*
X306609386Y-134872831D01*
X305609385Y-135872831D02*
X305609385Y-147872838D01*
X328139391Y-134872830D02*
G75*
G02*
X329005417Y-135372831I0J-1000001D01*
G01*
X307701380Y-150872840D02*
X312701383Y-150872840D01*
X331943367Y-135372831D02*
G75*
G02*
X332809392Y-134872831I866025J-500000D01*
G01*
X345809399Y-147872838D02*
G75*
G02*
X344809398Y-148872839I-1000001J0D01*
G01*
X331077341Y-135872832D02*
G75*
G03*
X331943367Y-135372831I0J1000001D01*
G01*
X85158010Y-91722808D02*
X97158017Y-91722808D01*
X269895610Y-116822821D02*
X269895610Y-128822828D01*
X274658112Y-78722801D02*
G75*
G02*
X275658113Y-77722800I1000001J0D01*
G01*
X287658120Y-77722800D02*
X275658113Y-77722800D01*
X287658120Y-77722801D02*
G75*
G02*
X288658120Y-78722801I0J-1000000D01*
G01*
X288658120Y-90722807D02*
X288658120Y-78722801D01*
X151833046Y-110772818D02*
X163833053Y-110772818D01*
X293421874Y-166922848D02*
G75*
G02*
X292421873Y-167922849I-1000001J0D01*
G01*
X280420616Y-167922849D02*
X292421873Y-167922849D01*
X106683022Y-96772810D02*
X94683015Y-96772810D01*
X107683023Y-166922848D02*
G75*
G02*
X106683022Y-167922849I-1000001J0D01*
G01*
X85251760Y-115822821D02*
X68489251Y-115822821D01*
X86251761Y-128822828D02*
X86251761Y-116822821D01*
X317233136Y-109772817D02*
G75*
G02*
X316233135Y-110772818I-1000001J0D01*
G01*
X145811790Y-169922848D02*
X150808046Y-169922848D01*
X254320602Y-134872831D02*
X242320595Y-134872831D01*
X204220574Y-148872839D02*
X216220581Y-148872839D01*
X247083098Y-110772818D02*
X259083104Y-110772818D01*
X241033095Y-109772817D02*
G75*
G02*
X240033094Y-110772818I-1000001J0D01*
G01*
X207695576Y-128822828D02*
G75*
G02*
X206695576Y-129822828I-1000000J0D01*
G01*
X246083097Y-97772811D02*
X246083097Y-109772817D01*
X121970530Y-147872838D02*
X121970530Y-135872831D01*
X108970523Y-148872839D02*
X120970530Y-148872839D01*
X169595555Y-128822828D02*
G75*
G02*
X168595555Y-129822828I-1000000J0D01*
G01*
X94683015Y-110772817D02*
G75*
G02*
X93683015Y-109772817I0J1000000D01*
G01*
X289945621Y-129822828D02*
X301945627Y-129822828D01*
X228033087Y-110772817D02*
G75*
G02*
X227033087Y-109772817I0J1000000D01*
G01*
X169595556Y-128822828D02*
X169595556Y-116822821D01*
X313301630Y-91612524D02*
G75*
G02*
X313845130Y-92502247I-456500J-889723D01*
G01*
X321845138Y-91722808D02*
X336721146Y-91722808D01*
X320845138Y-92722808D02*
G75*
G02*
X319845137Y-93722809I-1000001J0D01*
G01*
X312758130Y-78722801D02*
G75*
G02*
X313758130Y-77722801I1000000J0D01*
G01*
X320845138Y-92722808D02*
G75*
G02*
X321845138Y-91722808I1000000J0D01*
G01*
X336721146Y-91722807D02*
G75*
G02*
X337721147Y-92722808I0J-1000001D01*
G01*
X314845134Y-93722809D02*
X319845137Y-93722809D01*
X345264630Y-91612530D02*
G75*
G03*
X345808130Y-90722807I-456500J889723D01*
G01*
X314845134Y-93722808D02*
G75*
G02*
X313845134Y-92722808I0J1000000D01*
G01*
X312758130Y-78722801D02*
X312758130Y-90722801D01*
X338721147Y-93722808D02*
G75*
G02*
X337721147Y-92722808I0J1000000D01*
G01*
X344808129Y-77722800D02*
G75*
G02*
X345808130Y-78722801I0J-1000001D01*
G01*
X344721130Y-92502253D02*
X344721151Y-92722808D01*
X293708122Y-78722801D02*
G75*
G02*
X294708123Y-77722800I1000001J0D01*
G01*
X178120560Y-134872831D02*
X166120554Y-134872831D01*
X179120561Y-147872838D02*
X179120561Y-135872831D01*
X235270591Y-134872830D02*
G75*
G02*
X236270592Y-135872831I0J-1000001D01*
G01*
X236270592Y-147872838D02*
X236270592Y-135872831D01*
X307708130Y-90722807D02*
X307708130Y-78722801D01*
X255608102Y-78722801D02*
G75*
G02*
X256608103Y-77722800I1000001J0D01*
G01*
X150808046Y-154922841D02*
G75*
G02*
X151808046Y-155922841I0J-1000000D01*
G01*
X268608109Y-77722800D02*
X256608103Y-77722800D01*
X268608109Y-77722800D02*
G75*
G02*
X269608110Y-78722801I0J-1000001D01*
G01*
X174645559Y-116822821D02*
X174645559Y-128822828D01*
X165120553Y-135872831D02*
X165120553Y-147872838D01*
X285183118Y-110772818D02*
X297183125Y-110772818D01*
X118494277Y-167922849D02*
G75*
G02*
X117494276Y-166922848I0J1000001D01*
G01*
X279420615Y-154922842D02*
X279420615Y-166922848D01*
X221983085Y-109772817D02*
G75*
G02*
X220983084Y-110772818I-1000001J0D01*
G01*
X285183118Y-110772817D02*
G75*
G02*
X284183118Y-109772817I0J1000000D01*
G01*
X79108007Y-90722807D02*
X79108007Y-78722801D01*
X284183117Y-97772811D02*
G75*
G02*
X285183118Y-96772810I1000001J0D01*
G01*
X141020541Y-147872838D02*
G75*
G02*
X140020540Y-148872839I-1000001J0D01*
G01*
X273370612Y-134872831D02*
X261370605Y-134872831D01*
X198170571Y-147872838D02*
X198170571Y-135872831D01*
X136258038Y-90722807D02*
G75*
G02*
X135258037Y-91722808I-1000001J0D01*
G01*
X193695569Y-116822821D02*
X193695569Y-128822828D01*
X237558092Y-91722807D02*
G75*
G02*
X236558092Y-90722807I0J1000000D01*
G01*
X151833046Y-110772817D02*
G75*
G02*
X150833046Y-109772817I0J1000000D01*
G01*
X116208027Y-77722800D02*
X104208020Y-77722800D01*
X151808046Y-168922848D02*
G75*
G02*
X150808046Y-169922848I-1000000J0D01*
G01*
X166120554Y-148872839D02*
G75*
G02*
X165120553Y-147872838I0J1000001D01*
G01*
X225745586Y-115822821D02*
X213745580Y-115822821D01*
X225745586Y-115822820D02*
G75*
G02*
X226745587Y-116822821I0J-1000001D01*
G01*
X117495528Y-116822821D02*
X117495528Y-128822828D01*
X117495528Y-116822821D02*
G75*
G02*
X118495528Y-115822821I1000000J0D01*
G01*
X130495535Y-115822821D02*
X118495528Y-115822821D01*
X307708131Y-90722807D02*
G75*
G02*
X306708130Y-91722808I-1000001J0D01*
G01*
X130495535Y-115822821D02*
G75*
G02*
X131495535Y-116822821I0J-1000000D01*
G01*
X136545538Y-116822821D02*
G75*
G02*
X137545538Y-115822821I1000000J0D01*
G01*
X149545545Y-115822821D02*
X137545538Y-115822821D01*
X149545545Y-115822821D02*
G75*
G02*
X150545545Y-116822821I0J-1000000D01*
G01*
X150545545Y-128822828D02*
X150545545Y-116822821D01*
X187645566Y-115822821D02*
X175645559Y-115822821D01*
X127020533Y-135872831D02*
X127020533Y-147872838D01*
X228033087Y-110772818D02*
X240033094Y-110772818D01*
X261370605Y-148872839D02*
X273370612Y-148872839D01*
X84158010Y-78722801D02*
X84158010Y-90722807D01*
X189933067Y-110772818D02*
X201933073Y-110772818D01*
X103208020Y-78722801D02*
X103208020Y-90722807D01*
X132783036Y-110772818D02*
X144783042Y-110772818D01*
X144783042Y-96772810D02*
X132783036Y-96772810D01*
X144783042Y-96772810D02*
G75*
G02*
X145783043Y-97772811I0J-1000001D01*
G01*
X145783043Y-109772817D02*
X145783043Y-97772811D01*
X112733025Y-97772811D02*
G75*
G02*
X113733026Y-96772810I1000001J0D01*
G01*
X125733032Y-96772810D02*
X113733026Y-96772810D01*
X125733032Y-96772810D02*
G75*
G02*
X126733033Y-97772811I0J-1000001D01*
G01*
X126733033Y-109772817D02*
X126733033Y-97772811D01*
X236558091Y-78722801D02*
G75*
G02*
X237558092Y-77722800I1000001J0D01*
G01*
X249558099Y-77722800D02*
X237558092Y-77722800D01*
X249558099Y-77722801D02*
G75*
G02*
X250558099Y-78722801I0J-1000000D01*
G01*
X250558099Y-90722807D02*
X250558099Y-78722801D01*
X298183126Y-109772817D02*
G75*
G02*
X297183125Y-110772818I-1000001J0D01*
G01*
X218508082Y-91722808D02*
X230508089Y-91722808D01*
X140020540Y-134872831D02*
X128020533Y-134872831D01*
X266133108Y-110772818D02*
X278133114Y-110772818D01*
X113733026Y-110772818D02*
G75*
G02*
X112733025Y-109772817I0J1000001D01*
G01*
X227033087Y-97772811D02*
X227033087Y-109772817D01*
X327040691Y-97774140D02*
G75*
G02*
X328040691Y-96774140I1000000J0D01*
G01*
X184170564Y-135872831D02*
X184170564Y-147872838D01*
X98158018Y-90722807D02*
G75*
G02*
X97158017Y-91722808I-1000001J0D01*
G01*
X226745586Y-128822828D02*
G75*
G02*
X225745586Y-129822828I-1000000J0D01*
G01*
X199461815Y-167922848D02*
X211458078Y-167922849D01*
X107970522Y-135872831D02*
X107970522Y-147872838D01*
X327040691Y-97774140D02*
X327040691Y-109774140D01*
X117208027Y-90722807D02*
X117208027Y-78722801D01*
X117208028Y-90722807D02*
G75*
G02*
X116208027Y-91722808I-1000001J0D01*
G01*
X104208020Y-91722808D02*
X116208027Y-91722808D01*
X179408061Y-78722801D02*
X179408061Y-90722807D01*
X132783036Y-110772818D02*
G75*
G02*
X131783035Y-109772817I0J1000001D01*
G01*
X131495535Y-128822828D02*
G75*
G02*
X130495535Y-129822828I-1000000J0D01*
G01*
X118495528Y-129822828D02*
X130495535Y-129822828D01*
X188933066Y-97772811D02*
X188933066Y-109772817D01*
X141308040Y-78722801D02*
G75*
G02*
X142308041Y-77722800I1000001J0D01*
G01*
X306708130Y-77722800D02*
X294708123Y-77722800D01*
X306708130Y-77722801D02*
G75*
G02*
X307708130Y-78722801I0J-1000000D01*
G01*
X222270585Y-135872831D02*
G75*
G02*
X223270585Y-134872831I1000000J0D01*
G01*
X216220581Y-134872831D02*
X204220574Y-134872831D01*
X217220581Y-147872838D02*
X217220581Y-135872831D01*
X292420622Y-134872831D02*
X280420616Y-134872831D01*
X107970523Y-135872831D02*
G75*
G02*
X108970523Y-134872831I1000000J0D01*
G01*
X147070544Y-148872839D02*
X159070550Y-148872839D01*
X65107999Y-78722801D02*
G75*
G02*
X66108000Y-77722800I1000001J0D01*
G01*
X188645566Y-128822828D02*
X188645566Y-116822821D01*
X175645559Y-129822828D02*
X187645566Y-129822828D01*
X155595549Y-116822821D02*
G75*
G02*
X156595549Y-115822821I1000000J0D01*
G01*
X168595555Y-115822820D02*
G75*
G02*
X169595556Y-116822821I0J-1000001D01*
G01*
X266101848Y-168922848D02*
X266101848Y-155922841D01*
X220983084Y-96772810D02*
X208983077Y-96772810D01*
X221983084Y-109772817D02*
X221983084Y-97772811D01*
X297183125Y-96772810D02*
X285183118Y-96772810D01*
X275658113Y-91722808D02*
X287658120Y-91722808D01*
X223270585Y-148872839D02*
X235270591Y-148872839D01*
X156595549Y-129822829D02*
G75*
G02*
X155595548Y-128822828I0J1000001D01*
G01*
X112445524Y-128822828D02*
G75*
G02*
X111445524Y-129822828I-1000000J0D01*
G01*
X310458942Y-129824140D02*
G75*
G02*
X311458942Y-130824140I0J-1000000D01*
G01*
X280420616Y-148872839D02*
G75*
G02*
X279420615Y-147872838I0J1000001D01*
G01*
X79108007Y-90722807D02*
G75*
G02*
X78108006Y-91722808I-1000001J0D01*
G01*
X107683022Y-166922848D02*
X107683022Y-154922842D01*
X279420615Y-154922842D02*
G75*
G02*
X280420616Y-153922841I1000001J0D01*
G01*
X237558092Y-91722808D02*
X249558099Y-91722808D01*
X260083105Y-109772817D02*
X260083105Y-97772811D01*
X70870502Y-110772818D02*
X82870509Y-110772818D01*
X194695569Y-129822828D02*
X206695576Y-129822828D01*
X250558100Y-90722807D02*
G75*
G02*
X249558099Y-91722808I-1000001J0D01*
G01*
X247083098Y-110772818D02*
G75*
G02*
X246083097Y-109772817I0J1000001D01*
G01*
X308990692Y-129824140D02*
G75*
G02*
X307990692Y-128824140I0J1000000D01*
G01*
X222270584Y-135872831D02*
X222270584Y-147872838D01*
X184170564Y-135872831D02*
G75*
G02*
X185170564Y-134872831I1000000J0D01*
G01*
X242320595Y-148872839D02*
X254320602Y-148872839D01*
X197170571Y-134872831D02*
X185170564Y-134872831D01*
X273370612Y-134872831D02*
G75*
G02*
X274370612Y-135872831I0J-1000000D01*
G01*
X131495535Y-166922848D02*
X131495535Y-154922842D01*
X165120554Y-135872831D02*
G75*
G02*
X166120554Y-134872831I1000000J0D01*
G01*
X178120560Y-134872830D02*
G75*
G02*
X179120561Y-135872831I0J-1000001D01*
G01*
X235270591Y-134872831D02*
X223270585Y-134872831D01*
X203220574Y-135872831D02*
G75*
G02*
X204220574Y-134872831I1000000J0D01*
G01*
X216220581Y-134872831D02*
G75*
G02*
X217220581Y-135872831I0J-1000000D01*
G01*
X279420616Y-135872831D02*
G75*
G02*
X280420616Y-134872831I1000000J0D01*
G01*
X236558092Y-78722801D02*
X236558092Y-90722807D01*
X265101847Y-154922840D02*
G75*
G02*
X266101848Y-155922841I0J-1000001D01*
G01*
X232795590Y-129822828D02*
X244795596Y-129822828D01*
X294708123Y-91722808D02*
X306708130Y-91722808D01*
X208983077Y-110772817D02*
G75*
G02*
X207983077Y-109772817I0J1000000D01*
G01*
X303233128Y-154922842D02*
X303233128Y-166922848D01*
X266133108Y-110772818D02*
G75*
G02*
X265133107Y-109772817I0J1000001D01*
G01*
X193408069Y-90722807D02*
G75*
G02*
X192408068Y-91722808I-1000001J0D01*
G01*
X274370613Y-147872838D02*
G75*
G02*
X273370612Y-148872839I-1000001J0D01*
G01*
X269608110Y-90722807D02*
G75*
G02*
X268608109Y-91722808I-1000001J0D01*
G01*
X231508090Y-90722807D02*
G75*
G02*
X230508089Y-91722808I-1000001J0D01*
G01*
X256608103Y-91722808D02*
X268608109Y-91722808D01*
X328421942Y-110774140D02*
G75*
G02*
X329421942Y-111774140I0J-1000000D01*
G01*
X308990692Y-115824140D02*
X328421942Y-115824140D01*
X292421873Y-153922841D02*
X280420616Y-153922841D01*
X217220582Y-147872838D02*
G75*
G02*
X216220581Y-148872839I-1000001J0D01*
G01*
X126733033Y-109772817D02*
G75*
G02*
X125733032Y-110772818I-1000001J0D01*
G01*
X65107999Y-78722801D02*
X65107999Y-90722807D01*
X279420615Y-135872831D02*
X279420615Y-147872838D01*
X274658113Y-78722801D02*
X274658113Y-90722807D01*
X283895617Y-128822828D02*
G75*
G02*
X282895617Y-129822828I-1000000J0D01*
G01*
X194695569Y-129822828D02*
G75*
G02*
X193695569Y-128822828I0J1000000D01*
G01*
X303233127Y-97772811D02*
G75*
G02*
X304233128Y-96772810I1000001J0D01*
G01*
X316233135Y-96772810D02*
G75*
G02*
X317233136Y-97772811I0J-1000001D01*
G01*
X265133107Y-97772811D02*
G75*
G02*
X266133108Y-96772810I1000001J0D01*
G01*
X278133114Y-96772810D02*
G75*
G02*
X279133115Y-97772811I0J-1000001D01*
G01*
X279133115Y-109772817D02*
X279133115Y-97772811D01*
X69870502Y-97772811D02*
X69870502Y-109772817D01*
X69870501Y-97772811D02*
G75*
G02*
X70870502Y-96772810I1000001J0D01*
G01*
X82870509Y-96772810D02*
X70870502Y-96772810D01*
X82870509Y-96772811D02*
G75*
G02*
X83870509Y-97772811I0J-1000000D01*
G01*
X106683022Y-96772811D02*
G75*
G02*
X107683022Y-97772811I0J-1000000D01*
G01*
X98445517Y-116822821D02*
X98445517Y-128822828D01*
X98445518Y-116822821D02*
G75*
G02*
X99445518Y-115822821I1000000J0D01*
G01*
X111445524Y-115822821D02*
X99445518Y-115822821D01*
X111445524Y-115822820D02*
G75*
G02*
X112445525Y-116822821I0J-1000001D01*
G01*
X197170571Y-134872831D02*
G75*
G02*
X198170571Y-135872831I0J-1000000D01*
G01*
X274370612Y-147872838D02*
X274370612Y-135872831D01*
X93683015Y-97772811D02*
X93683015Y-109772817D01*
X170883056Y-110772818D02*
X182883063Y-110772818D01*
X259101843Y-155922841D02*
G75*
G02*
X260101844Y-154922840I1000001J0D01*
G01*
X250845600Y-116822821D02*
X250845600Y-128822828D01*
X292420622Y-134872830D02*
G75*
G02*
X293420623Y-135872831I0J-1000001D01*
G01*
X293420623Y-147872838D02*
X293420623Y-135872831D01*
X140020540Y-134872831D02*
G75*
G02*
X141020540Y-135872831I0J-1000000D01*
G01*
X141020540Y-147872838D02*
X141020540Y-135872831D01*
X128020533Y-148872839D02*
X140020540Y-148872839D01*
X120970530Y-134872831D02*
G75*
G02*
X121970530Y-135872831I0J-1000000D01*
G01*
X121970531Y-147872838D02*
G75*
G02*
X120970530Y-148872839I-1000001J0D01*
G01*
X282895617Y-115822821D02*
X270895610Y-115822821D01*
X282895617Y-115822821D02*
G75*
G02*
X283895617Y-116822821I0J-1000000D01*
G01*
X283895617Y-128822828D02*
X283895617Y-116822821D01*
X231795589Y-116822821D02*
X231795589Y-128822828D01*
X212458079Y-166922848D02*
G75*
G02*
X211458078Y-167922849I-1000001J0D01*
G01*
X180408062Y-91722808D02*
X192408068Y-91722808D01*
X179120561Y-147872838D02*
G75*
G02*
X178120560Y-148872839I-1000001J0D01*
G01*
X304233128Y-167922849D02*
X316234386Y-167922849D01*
X193695569Y-116822821D02*
G75*
G02*
X194695569Y-115822821I1000000J0D01*
G01*
X206695576Y-115822821D02*
X194695569Y-115822821D01*
X206695576Y-115822821D02*
G75*
G02*
X207695576Y-116822821I0J-1000000D01*
G01*
X151808046Y-168922848D02*
X151808046Y-155922841D01*
X207695576Y-128822828D02*
X207695576Y-116822821D01*
X185170564Y-148872839D02*
X197170571Y-148872839D01*
X212745579Y-116822821D02*
X212745579Y-128822828D01*
X302945627Y-128822828D02*
G75*
G02*
X301945627Y-129822828I-1000000J0D01*
G01*
X212745580Y-116822821D02*
G75*
G02*
X213745580Y-115822821I1000000J0D01*
G01*
X218508082Y-91722807D02*
G75*
G02*
X217508082Y-90722807I0J1000000D01*
G01*
X212458079Y-90722807D02*
G75*
G02*
X211458078Y-91722808I-1000001J0D01*
G01*
X204220574Y-148872838D02*
G75*
G02*
X203220574Y-147872838I0J1000000D01*
G01*
X174645559Y-116822821D02*
G75*
G02*
X175645559Y-115822821I1000000J0D01*
G01*
X270895610Y-129822828D02*
G75*
G02*
X269895610Y-128822828I0J1000000D01*
G01*
X226745587Y-128822828D02*
X226745587Y-116822821D01*
X103208019Y-78722801D02*
G75*
G02*
X104208020Y-77722800I1000001J0D01*
G01*
X207983077Y-97772811D02*
X207983077Y-109772817D01*
X104208020Y-91722807D02*
G75*
G02*
X103208020Y-90722807I0J1000000D01*
G01*
X161358051Y-91722808D02*
X173358058Y-91722808D01*
X223270585Y-148872839D02*
G75*
G02*
X222270584Y-147872838I0J1000001D01*
G01*
X284183118Y-97772811D02*
X284183118Y-109772817D01*
X275658113Y-91722807D02*
G75*
G02*
X274658113Y-90722807I0J1000000D01*
G01*
X265101847Y-154922840D02*
X260101844Y-154922840D01*
X312458942Y-131824140D02*
G75*
G02*
X311458942Y-130824140I0J1000000D01*
G01*
D11*
X255632700Y-70444700D02*
G75*
G03*
X255632700Y-70444700I-950000J0D01*
G01*
X354056000Y-70444700D02*
G75*
G03*
X354056000Y-70444700I-950000J0D01*
G01*
X157209400Y-70444700D02*
G75*
G03*
X157209400Y-70444700I-950000J0D01*
G01*
D10*
X353106000Y-65682200D02*
G75*
G02*
X357868500Y-70444700I0J-4762500D01*
G01*
X357868500Y-175219700D02*
G75*
G02*
X353106000Y-179982200I-4762500J0D01*
G01*
X57831000Y-179982200D02*
G75*
G02*
X53068500Y-175219700I0J4762500D01*
G01*
X53068500Y-70444700D02*
G75*
G02*
X57831000Y-65682200I4762500J0D01*
G01*
D11*
X58781000Y-175219700D02*
G75*
G03*
X58781000Y-175219700I-950000J0D01*
G01*
X354056000Y-175219700D02*
G75*
G03*
X354056000Y-175219700I-950000J0D01*
G01*
X206421100Y-175219700D02*
G75*
G03*
X206421100Y-175219700I-950000J0D01*
G01*
X58781000Y-70444700D02*
G75*
G03*
X58781000Y-70444700I-950000J0D01*
G01*
M02*
