G04 #@! TF.GenerationSoftware,KiCad,Pcbnew,5.1.7*
G04 #@! TF.CreationDate,2020-11-06T09:12:15-05:00*
G04 #@! TF.ProjectId,unix60plate,756e6978-3630-4706-9c61-74652e6b6963,rev?*
G04 #@! TF.SameCoordinates,Original*
G04 #@! TF.FileFunction,Copper,L1,Top*
G04 #@! TF.FilePolarity,Positive*
%FSLAX46Y46*%
G04 Gerber Fmt 4.6, Leading zero omitted, Abs format (unit mm)*
G04 Created by KiCad (PCBNEW 5.1.7) date 2020-11-06 09:12:15*
%MOMM*%
%LPD*%
G01*
G04 APERTURE LIST*
G04 #@! TA.AperFunction,EtchedComponent*
%ADD10C,0.010000*%
G04 #@! TD*
G04 APERTURE END LIST*
D10*
G04 #@! TO.C,G\u002A\u002A\u002A*
G36*
X96837500Y-139700000D02*
G01*
X88635416Y-139700000D01*
X88635416Y-125147917D01*
X89693750Y-125147917D01*
X89693750Y-138641667D01*
X95779166Y-138641667D01*
X95779166Y-125147917D01*
X89693750Y-125147917D01*
X88635416Y-125147917D01*
X88635416Y-124089584D01*
X96837500Y-124089584D01*
X96837500Y-139700000D01*
G37*
X96837500Y-139700000D02*
X88635416Y-139700000D01*
X88635416Y-125147917D01*
X89693750Y-125147917D01*
X89693750Y-138641667D01*
X95779166Y-138641667D01*
X95779166Y-125147917D01*
X89693750Y-125147917D01*
X88635416Y-125147917D01*
X88635416Y-124089584D01*
X96837500Y-124089584D01*
X96837500Y-139700000D01*
G36*
X211137499Y-139700000D02*
G01*
X202935416Y-139700000D01*
X202935416Y-125147917D01*
X203993749Y-125147917D01*
X203993749Y-138641667D01*
X210079166Y-138641667D01*
X210079166Y-125147917D01*
X203993749Y-125147917D01*
X202935416Y-125147917D01*
X202935416Y-124089584D01*
X211137499Y-124089584D01*
X211137499Y-139700000D01*
G37*
X211137499Y-139700000D02*
X202935416Y-139700000D01*
X202935416Y-125147917D01*
X203993749Y-125147917D01*
X203993749Y-138641667D01*
X210079166Y-138641667D01*
X210079166Y-125147917D01*
X203993749Y-125147917D01*
X202935416Y-125147917D01*
X202935416Y-124089584D01*
X211137499Y-124089584D01*
X211137499Y-139700000D01*
G36*
X52652083Y-138377084D02*
G01*
X37298135Y-138377084D01*
X37429994Y-124089584D01*
X38364583Y-124089584D01*
X38364583Y-137318751D01*
X51593749Y-137318751D01*
X51593749Y-124089584D01*
X38364583Y-124089584D01*
X37429994Y-124089584D01*
X37438541Y-123163542D01*
X52652083Y-123023136D01*
X52652083Y-138377084D01*
G37*
X52652083Y-138377084D02*
X37298135Y-138377084D01*
X37429994Y-124089584D01*
X38364583Y-124089584D01*
X38364583Y-137318751D01*
X51593749Y-137318751D01*
X51593749Y-124089584D01*
X38364583Y-124089584D01*
X37429994Y-124089584D01*
X37438541Y-123163542D01*
X52652083Y-123023136D01*
X52652083Y-138377084D01*
G36*
X76464583Y-138377084D02*
G01*
X61110635Y-138377084D01*
X61242494Y-124089584D01*
X62177083Y-124089584D01*
X62177083Y-137318751D01*
X75406250Y-137318751D01*
X75406250Y-124089584D01*
X62177083Y-124089584D01*
X61242494Y-124089584D01*
X61251041Y-123163542D01*
X76464583Y-123023136D01*
X76464583Y-138377084D01*
G37*
X76464583Y-138377084D02*
X61110635Y-138377084D01*
X61242494Y-124089584D01*
X62177083Y-124089584D01*
X62177083Y-137318751D01*
X75406250Y-137318751D01*
X75406250Y-124089584D01*
X62177083Y-124089584D01*
X61242494Y-124089584D01*
X61251041Y-123163542D01*
X76464583Y-123023136D01*
X76464583Y-138377084D01*
G36*
X157427083Y-138377084D02*
G01*
X142073135Y-138377084D01*
X142204994Y-124089584D01*
X143139583Y-124089584D01*
X143139583Y-137318751D01*
X156368750Y-137318751D01*
X156368750Y-124089584D01*
X143139583Y-124089584D01*
X142204994Y-124089584D01*
X142213541Y-123163542D01*
X157427083Y-123023136D01*
X157427083Y-138377084D01*
G37*
X157427083Y-138377084D02*
X142073135Y-138377084D01*
X142204994Y-124089584D01*
X143139583Y-124089584D01*
X143139583Y-137318751D01*
X156368750Y-137318751D01*
X156368750Y-124089584D01*
X143139583Y-124089584D01*
X142204994Y-124089584D01*
X142213541Y-123163542D01*
X157427083Y-123023136D01*
X157427083Y-138377084D01*
G36*
X238389583Y-138377084D02*
G01*
X223043749Y-138377084D01*
X223043749Y-124354167D01*
X224102083Y-124354167D01*
X224102083Y-137318751D01*
X237331249Y-137318751D01*
X237331249Y-124354167D01*
X224102083Y-124354167D01*
X223043749Y-124354167D01*
X223043749Y-123295834D01*
X238389583Y-123295834D01*
X238389583Y-138377084D01*
G37*
X238389583Y-138377084D02*
X223043749Y-138377084D01*
X223043749Y-124354167D01*
X224102083Y-124354167D01*
X224102083Y-137318751D01*
X237331249Y-137318751D01*
X237331249Y-124354167D01*
X224102083Y-124354167D01*
X223043749Y-124354167D01*
X223043749Y-123295834D01*
X238389583Y-123295834D01*
X238389583Y-138377084D01*
G36*
X262202083Y-138377084D02*
G01*
X246848135Y-138377084D01*
X246979994Y-124089584D01*
X247914583Y-124089584D01*
X247914583Y-137318751D01*
X261143749Y-137318751D01*
X261143749Y-124089584D01*
X247914583Y-124089584D01*
X246979994Y-124089584D01*
X246988541Y-123163542D01*
X262202083Y-123023136D01*
X262202083Y-138377084D01*
G37*
X262202083Y-138377084D02*
X246848135Y-138377084D01*
X246979994Y-124089584D01*
X247914583Y-124089584D01*
X247914583Y-137318751D01*
X261143749Y-137318751D01*
X261143749Y-124089584D01*
X247914583Y-124089584D01*
X246979994Y-124089584D01*
X246988541Y-123163542D01*
X262202083Y-123023136D01*
X262202083Y-138377084D01*
G36*
X47889583Y-119327084D02*
G01*
X45274608Y-119327084D01*
X44071437Y-119335857D01*
X43295717Y-119375196D01*
X42845845Y-119464626D01*
X42620221Y-119623675D01*
X42521253Y-119856251D01*
X42399520Y-120120367D01*
X42129342Y-120278892D01*
X41597773Y-120358039D01*
X40691864Y-120384026D01*
X40241436Y-120385417D01*
X39179456Y-120374611D01*
X38540616Y-120324753D01*
X38219050Y-120209682D01*
X38108888Y-120003237D01*
X38100000Y-119856251D01*
X38086530Y-119718354D01*
X38012372Y-119606763D01*
X37826904Y-119518695D01*
X37479502Y-119451368D01*
X36919543Y-119401997D01*
X36096405Y-119367801D01*
X34959464Y-119345998D01*
X33458098Y-119333803D01*
X31541683Y-119328434D01*
X29159597Y-119327109D01*
X28473567Y-119327084D01*
X25964102Y-119327900D01*
X23932444Y-119332205D01*
X22327231Y-119342782D01*
X21097103Y-119362414D01*
X20190699Y-119393884D01*
X19556660Y-119439976D01*
X19143624Y-119503473D01*
X18900231Y-119587157D01*
X18775122Y-119693814D01*
X18716934Y-119826225D01*
X18708753Y-119856251D01*
X18587020Y-120120367D01*
X18316842Y-120278892D01*
X17785273Y-120358039D01*
X16879364Y-120384026D01*
X16428936Y-120385417D01*
X15366956Y-120374611D01*
X14728116Y-120324753D01*
X14406550Y-120209682D01*
X14296388Y-120003237D01*
X14287499Y-119856251D01*
X14229575Y-119560700D01*
X13975125Y-119401000D01*
X13403133Y-119336812D01*
X12699999Y-119327084D01*
X11112499Y-119327084D01*
X11112499Y-105389863D01*
X12170833Y-105389863D01*
X12170833Y-118268751D01*
X13758333Y-118268751D01*
X14644984Y-118288059D01*
X15124083Y-118372875D01*
X15316648Y-118563539D01*
X15345833Y-118797917D01*
X15423735Y-119128604D01*
X15747214Y-119284977D01*
X16450925Y-119326882D01*
X16536458Y-119327084D01*
X17280504Y-119292461D01*
X17632342Y-119148692D01*
X17726628Y-118835932D01*
X17727083Y-118797917D01*
X17739584Y-118666547D01*
X17809079Y-118558939D01*
X17983553Y-118472723D01*
X18310994Y-118405530D01*
X18839386Y-118354989D01*
X19616718Y-118318732D01*
X20690974Y-118294388D01*
X22110142Y-118279588D01*
X23922208Y-118271963D01*
X26175157Y-118269141D01*
X28442708Y-118268751D01*
X31102954Y-118269368D01*
X33282020Y-118272800D01*
X35027892Y-118281416D01*
X36388557Y-118297586D01*
X37412001Y-118323679D01*
X38146209Y-118362066D01*
X38639169Y-118415116D01*
X38938867Y-118485198D01*
X39093289Y-118574683D01*
X39150421Y-118685939D01*
X39158333Y-118797917D01*
X39236235Y-119128604D01*
X39559714Y-119284977D01*
X40263425Y-119326882D01*
X40348958Y-119327084D01*
X41093004Y-119292461D01*
X41444842Y-119148692D01*
X41539128Y-118835932D01*
X41539583Y-118797917D01*
X41575896Y-118557073D01*
X41748688Y-118402895D01*
X42153736Y-118316226D01*
X42886819Y-118277911D01*
X44043716Y-118268794D01*
X44185416Y-118268751D01*
X46831250Y-118268751D01*
X46831250Y-105039584D01*
X38672397Y-105039584D01*
X36237509Y-105045613D01*
X33431734Y-105062636D01*
X30413205Y-105089054D01*
X27340053Y-105123270D01*
X24370408Y-105163684D01*
X21662402Y-105208700D01*
X21342189Y-105214723D01*
X12170833Y-105389863D01*
X11112499Y-105389863D01*
X11112499Y-104245834D01*
X18190104Y-104245497D01*
X20092850Y-104240840D01*
X22414450Y-104227729D01*
X25044675Y-104207215D01*
X27873299Y-104180348D01*
X30790094Y-104148180D01*
X33684831Y-104111763D01*
X36447283Y-104072148D01*
X36578645Y-104070123D01*
X47889583Y-103895085D01*
X47889583Y-119327084D01*
G37*
X47889583Y-119327084D02*
X45274608Y-119327084D01*
X44071437Y-119335857D01*
X43295717Y-119375196D01*
X42845845Y-119464626D01*
X42620221Y-119623675D01*
X42521253Y-119856251D01*
X42399520Y-120120367D01*
X42129342Y-120278892D01*
X41597773Y-120358039D01*
X40691864Y-120384026D01*
X40241436Y-120385417D01*
X39179456Y-120374611D01*
X38540616Y-120324753D01*
X38219050Y-120209682D01*
X38108888Y-120003237D01*
X38100000Y-119856251D01*
X38086530Y-119718354D01*
X38012372Y-119606763D01*
X37826904Y-119518695D01*
X37479502Y-119451368D01*
X36919543Y-119401997D01*
X36096405Y-119367801D01*
X34959464Y-119345998D01*
X33458098Y-119333803D01*
X31541683Y-119328434D01*
X29159597Y-119327109D01*
X28473567Y-119327084D01*
X25964102Y-119327900D01*
X23932444Y-119332205D01*
X22327231Y-119342782D01*
X21097103Y-119362414D01*
X20190699Y-119393884D01*
X19556660Y-119439976D01*
X19143624Y-119503473D01*
X18900231Y-119587157D01*
X18775122Y-119693814D01*
X18716934Y-119826225D01*
X18708753Y-119856251D01*
X18587020Y-120120367D01*
X18316842Y-120278892D01*
X17785273Y-120358039D01*
X16879364Y-120384026D01*
X16428936Y-120385417D01*
X15366956Y-120374611D01*
X14728116Y-120324753D01*
X14406550Y-120209682D01*
X14296388Y-120003237D01*
X14287499Y-119856251D01*
X14229575Y-119560700D01*
X13975125Y-119401000D01*
X13403133Y-119336812D01*
X12699999Y-119327084D01*
X11112499Y-119327084D01*
X11112499Y-105389863D01*
X12170833Y-105389863D01*
X12170833Y-118268751D01*
X13758333Y-118268751D01*
X14644984Y-118288059D01*
X15124083Y-118372875D01*
X15316648Y-118563539D01*
X15345833Y-118797917D01*
X15423735Y-119128604D01*
X15747214Y-119284977D01*
X16450925Y-119326882D01*
X16536458Y-119327084D01*
X17280504Y-119292461D01*
X17632342Y-119148692D01*
X17726628Y-118835932D01*
X17727083Y-118797917D01*
X17739584Y-118666547D01*
X17809079Y-118558939D01*
X17983553Y-118472723D01*
X18310994Y-118405530D01*
X18839386Y-118354989D01*
X19616718Y-118318732D01*
X20690974Y-118294388D01*
X22110142Y-118279588D01*
X23922208Y-118271963D01*
X26175157Y-118269141D01*
X28442708Y-118268751D01*
X31102954Y-118269368D01*
X33282020Y-118272800D01*
X35027892Y-118281416D01*
X36388557Y-118297586D01*
X37412001Y-118323679D01*
X38146209Y-118362066D01*
X38639169Y-118415116D01*
X38938867Y-118485198D01*
X39093289Y-118574683D01*
X39150421Y-118685939D01*
X39158333Y-118797917D01*
X39236235Y-119128604D01*
X39559714Y-119284977D01*
X40263425Y-119326882D01*
X40348958Y-119327084D01*
X41093004Y-119292461D01*
X41444842Y-119148692D01*
X41539128Y-118835932D01*
X41539583Y-118797917D01*
X41575896Y-118557073D01*
X41748688Y-118402895D01*
X42153736Y-118316226D01*
X42886819Y-118277911D01*
X44043716Y-118268794D01*
X44185416Y-118268751D01*
X46831250Y-118268751D01*
X46831250Y-105039584D01*
X38672397Y-105039584D01*
X36237509Y-105045613D01*
X33431734Y-105062636D01*
X30413205Y-105089054D01*
X27340053Y-105123270D01*
X24370408Y-105163684D01*
X21662402Y-105208700D01*
X21342189Y-105214723D01*
X12170833Y-105389863D01*
X11112499Y-105389863D01*
X11112499Y-104245834D01*
X18190104Y-104245497D01*
X20092850Y-104240840D01*
X22414450Y-104227729D01*
X25044675Y-104207215D01*
X27873299Y-104180348D01*
X30790094Y-104148180D01*
X33684831Y-104111763D01*
X36447283Y-104072148D01*
X36578645Y-104070123D01*
X47889583Y-103895085D01*
X47889583Y-119327084D01*
G36*
X290777083Y-119327084D02*
G01*
X285780858Y-119327084D01*
X284038489Y-119329695D01*
X282753132Y-119342485D01*
X281852640Y-119372891D01*
X281264866Y-119428346D01*
X280917663Y-119516286D01*
X280738883Y-119644148D01*
X280656380Y-119819366D01*
X280646253Y-119856251D01*
X280525455Y-120119106D01*
X280257513Y-120277463D01*
X279730164Y-120357099D01*
X278831143Y-120383790D01*
X278341666Y-120385417D01*
X277262309Y-120372700D01*
X276599585Y-120317362D01*
X276241230Y-120193627D01*
X276074979Y-119975717D01*
X276037079Y-119856251D01*
X275985687Y-119717248D01*
X275877162Y-119604991D01*
X275659689Y-119516623D01*
X275281456Y-119449289D01*
X274690650Y-119400134D01*
X273835456Y-119366301D01*
X272664062Y-119344936D01*
X271124655Y-119333182D01*
X269165422Y-119328185D01*
X266734548Y-119327089D01*
X266435416Y-119327084D01*
X263949367Y-119327925D01*
X261940671Y-119332352D01*
X260357515Y-119343220D01*
X259148085Y-119363386D01*
X258260569Y-119395704D01*
X257643152Y-119443029D01*
X257244022Y-119508219D01*
X257011365Y-119594127D01*
X256893368Y-119703610D01*
X256838218Y-119839524D01*
X256833753Y-119856251D01*
X256712020Y-120120367D01*
X256441842Y-120278892D01*
X255910273Y-120358039D01*
X255004364Y-120384026D01*
X254553936Y-120385417D01*
X253491956Y-120374611D01*
X252853116Y-120324753D01*
X252531550Y-120209682D01*
X252421388Y-120003237D01*
X252412499Y-119856251D01*
X252354575Y-119560700D01*
X252100125Y-119401000D01*
X251528133Y-119336812D01*
X250824999Y-119327084D01*
X249237499Y-119327084D01*
X249237499Y-105390182D01*
X250295833Y-105390182D01*
X250295833Y-118268751D01*
X251775811Y-118268751D01*
X252645481Y-118296859D01*
X253123678Y-118410847D01*
X253346475Y-118655208D01*
X253394170Y-118797917D01*
X253590696Y-119140823D01*
X254040845Y-119296486D01*
X254692317Y-119327084D01*
X255424522Y-119290509D01*
X255765861Y-119139510D01*
X255852022Y-118812177D01*
X255852083Y-118797917D01*
X255864718Y-118665630D01*
X255934859Y-118557454D01*
X256110861Y-118470963D01*
X256441081Y-118403734D01*
X256973872Y-118353341D01*
X257757590Y-118317360D01*
X258840591Y-118293366D01*
X260271229Y-118278933D01*
X262097860Y-118271638D01*
X264368838Y-118269054D01*
X266404557Y-118268751D01*
X269043366Y-118269447D01*
X271202005Y-118273153D01*
X272929472Y-118282294D01*
X274274764Y-118299294D01*
X275286878Y-118326580D01*
X276014811Y-118366577D01*
X276507561Y-118421709D01*
X276814124Y-118494402D01*
X276983497Y-118587081D01*
X277064678Y-118702171D01*
X277095412Y-118797917D01*
X277300721Y-119148008D01*
X277771518Y-119301874D01*
X278341666Y-119327084D01*
X279088832Y-119272748D01*
X279464749Y-119067095D01*
X279587920Y-118797917D01*
X279660813Y-118613449D01*
X279817084Y-118477667D01*
X280128880Y-118383135D01*
X280668348Y-118322418D01*
X281507636Y-118288080D01*
X282718890Y-118272687D01*
X284374258Y-118268801D01*
X284722525Y-118268751D01*
X289718750Y-118268751D01*
X289718750Y-105039584D01*
X280524479Y-105039946D01*
X277977331Y-105045279D01*
X275046678Y-105060235D01*
X271878069Y-105083519D01*
X268617052Y-105113836D01*
X265409176Y-105149892D01*
X262399990Y-105190393D01*
X260813020Y-105215245D01*
X250295833Y-105390182D01*
X249237499Y-105390182D01*
X249237499Y-104245834D01*
X257108854Y-104245538D01*
X259078326Y-104241460D01*
X261475265Y-104229930D01*
X264198034Y-104211807D01*
X267144997Y-104187949D01*
X270214520Y-104159214D01*
X273304966Y-104126462D01*
X276314700Y-104090552D01*
X277878645Y-104070040D01*
X290777083Y-103894839D01*
X290777083Y-119327084D01*
G37*
X290777083Y-119327084D02*
X285780858Y-119327084D01*
X284038489Y-119329695D01*
X282753132Y-119342485D01*
X281852640Y-119372891D01*
X281264866Y-119428346D01*
X280917663Y-119516286D01*
X280738883Y-119644148D01*
X280656380Y-119819366D01*
X280646253Y-119856251D01*
X280525455Y-120119106D01*
X280257513Y-120277463D01*
X279730164Y-120357099D01*
X278831143Y-120383790D01*
X278341666Y-120385417D01*
X277262309Y-120372700D01*
X276599585Y-120317362D01*
X276241230Y-120193627D01*
X276074979Y-119975717D01*
X276037079Y-119856251D01*
X275985687Y-119717248D01*
X275877162Y-119604991D01*
X275659689Y-119516623D01*
X275281456Y-119449289D01*
X274690650Y-119400134D01*
X273835456Y-119366301D01*
X272664062Y-119344936D01*
X271124655Y-119333182D01*
X269165422Y-119328185D01*
X266734548Y-119327089D01*
X266435416Y-119327084D01*
X263949367Y-119327925D01*
X261940671Y-119332352D01*
X260357515Y-119343220D01*
X259148085Y-119363386D01*
X258260569Y-119395704D01*
X257643152Y-119443029D01*
X257244022Y-119508219D01*
X257011365Y-119594127D01*
X256893368Y-119703610D01*
X256838218Y-119839524D01*
X256833753Y-119856251D01*
X256712020Y-120120367D01*
X256441842Y-120278892D01*
X255910273Y-120358039D01*
X255004364Y-120384026D01*
X254553936Y-120385417D01*
X253491956Y-120374611D01*
X252853116Y-120324753D01*
X252531550Y-120209682D01*
X252421388Y-120003237D01*
X252412499Y-119856251D01*
X252354575Y-119560700D01*
X252100125Y-119401000D01*
X251528133Y-119336812D01*
X250824999Y-119327084D01*
X249237499Y-119327084D01*
X249237499Y-105390182D01*
X250295833Y-105390182D01*
X250295833Y-118268751D01*
X251775811Y-118268751D01*
X252645481Y-118296859D01*
X253123678Y-118410847D01*
X253346475Y-118655208D01*
X253394170Y-118797917D01*
X253590696Y-119140823D01*
X254040845Y-119296486D01*
X254692317Y-119327084D01*
X255424522Y-119290509D01*
X255765861Y-119139510D01*
X255852022Y-118812177D01*
X255852083Y-118797917D01*
X255864718Y-118665630D01*
X255934859Y-118557454D01*
X256110861Y-118470963D01*
X256441081Y-118403734D01*
X256973872Y-118353341D01*
X257757590Y-118317360D01*
X258840591Y-118293366D01*
X260271229Y-118278933D01*
X262097860Y-118271638D01*
X264368838Y-118269054D01*
X266404557Y-118268751D01*
X269043366Y-118269447D01*
X271202005Y-118273153D01*
X272929472Y-118282294D01*
X274274764Y-118299294D01*
X275286878Y-118326580D01*
X276014811Y-118366577D01*
X276507561Y-118421709D01*
X276814124Y-118494402D01*
X276983497Y-118587081D01*
X277064678Y-118702171D01*
X277095412Y-118797917D01*
X277300721Y-119148008D01*
X277771518Y-119301874D01*
X278341666Y-119327084D01*
X279088832Y-119272748D01*
X279464749Y-119067095D01*
X279587920Y-118797917D01*
X279660813Y-118613449D01*
X279817084Y-118477667D01*
X280128880Y-118383135D01*
X280668348Y-118322418D01*
X281507636Y-118288080D01*
X282718890Y-118272687D01*
X284374258Y-118268801D01*
X284722525Y-118268751D01*
X289718750Y-118268751D01*
X289718750Y-105039584D01*
X280524479Y-105039946D01*
X277977331Y-105045279D01*
X275046678Y-105060235D01*
X271878069Y-105083519D01*
X268617052Y-105113836D01*
X265409176Y-105149892D01*
X262399990Y-105190393D01*
X260813020Y-105215245D01*
X250295833Y-105390182D01*
X249237499Y-105390182D01*
X249237499Y-104245834D01*
X257108854Y-104245538D01*
X259078326Y-104241460D01*
X261475265Y-104229930D01*
X264198034Y-104211807D01*
X267144997Y-104187949D01*
X270214520Y-104159214D01*
X273304966Y-104126462D01*
X276314700Y-104090552D01*
X277878645Y-104070040D01*
X290777083Y-103894839D01*
X290777083Y-119327084D01*
G36*
X66939583Y-119327084D02*
G01*
X51585635Y-119327084D01*
X51717494Y-105039584D01*
X52652083Y-105039584D01*
X52652083Y-118268751D01*
X65881250Y-118268751D01*
X65881250Y-105039584D01*
X52652083Y-105039584D01*
X51717494Y-105039584D01*
X51726041Y-104113542D01*
X66939583Y-103973136D01*
X66939583Y-119327084D01*
G37*
X66939583Y-119327084D02*
X51585635Y-119327084D01*
X51717494Y-105039584D01*
X52652083Y-105039584D01*
X52652083Y-118268751D01*
X65881250Y-118268751D01*
X65881250Y-105039584D01*
X52652083Y-105039584D01*
X51717494Y-105039584D01*
X51726041Y-104113542D01*
X66939583Y-103973136D01*
X66939583Y-119327084D01*
G36*
X85989583Y-119327084D02*
G01*
X70635635Y-119327084D01*
X70767494Y-105039584D01*
X71702083Y-105039584D01*
X71702083Y-118268751D01*
X84931250Y-118268751D01*
X84931250Y-105039584D01*
X71702083Y-105039584D01*
X70767494Y-105039584D01*
X70776041Y-104113542D01*
X85989583Y-103973136D01*
X85989583Y-119327084D01*
G37*
X85989583Y-119327084D02*
X70635635Y-119327084D01*
X70767494Y-105039584D01*
X71702083Y-105039584D01*
X71702083Y-118268751D01*
X84931250Y-118268751D01*
X84931250Y-105039584D01*
X71702083Y-105039584D01*
X70767494Y-105039584D01*
X70776041Y-104113542D01*
X85989583Y-103973136D01*
X85989583Y-119327084D01*
G36*
X105039583Y-119327084D02*
G01*
X89685635Y-119327084D01*
X89817494Y-105039584D01*
X90752083Y-105039584D01*
X90752083Y-118268751D01*
X103981249Y-118268751D01*
X103981249Y-105039584D01*
X90752083Y-105039584D01*
X89817494Y-105039584D01*
X89826041Y-104113542D01*
X105039583Y-103973136D01*
X105039583Y-119327084D01*
G37*
X105039583Y-119327084D02*
X89685635Y-119327084D01*
X89817494Y-105039584D01*
X90752083Y-105039584D01*
X90752083Y-118268751D01*
X103981249Y-118268751D01*
X103981249Y-105039584D01*
X90752083Y-105039584D01*
X89817494Y-105039584D01*
X89826041Y-104113542D01*
X105039583Y-103973136D01*
X105039583Y-119327084D01*
G36*
X124089583Y-119327084D02*
G01*
X108743749Y-119327084D01*
X108743749Y-105304167D01*
X109802083Y-105304167D01*
X109802083Y-118268751D01*
X123031249Y-118268751D01*
X123031249Y-105304167D01*
X109802083Y-105304167D01*
X108743749Y-105304167D01*
X108743749Y-104245834D01*
X124089583Y-104245834D01*
X124089583Y-119327084D01*
G37*
X124089583Y-119327084D02*
X108743749Y-119327084D01*
X108743749Y-105304167D01*
X109802083Y-105304167D01*
X109802083Y-118268751D01*
X123031249Y-118268751D01*
X123031249Y-105304167D01*
X109802083Y-105304167D01*
X108743749Y-105304167D01*
X108743749Y-104245834D01*
X124089583Y-104245834D01*
X124089583Y-119327084D01*
G36*
X143139583Y-119327084D02*
G01*
X127793749Y-119327084D01*
X127793749Y-105304167D01*
X128852083Y-105304167D01*
X128852083Y-118268751D01*
X142081250Y-118268751D01*
X142081250Y-105304167D01*
X128852083Y-105304167D01*
X127793749Y-105304167D01*
X127793749Y-104245834D01*
X143139583Y-104245834D01*
X143139583Y-119327084D01*
G37*
X143139583Y-119327084D02*
X127793749Y-119327084D01*
X127793749Y-105304167D01*
X128852083Y-105304167D01*
X128852083Y-118268751D01*
X142081250Y-118268751D01*
X142081250Y-105304167D01*
X128852083Y-105304167D01*
X127793749Y-105304167D01*
X127793749Y-104245834D01*
X143139583Y-104245834D01*
X143139583Y-119327084D01*
G36*
X162189583Y-119327084D02*
G01*
X146835635Y-119327084D01*
X146967494Y-105039584D01*
X147902083Y-105039584D01*
X147902083Y-118268751D01*
X161131250Y-118268751D01*
X161131250Y-105039584D01*
X147902083Y-105039584D01*
X146967494Y-105039584D01*
X146976041Y-104113542D01*
X162189583Y-103973136D01*
X162189583Y-119327084D01*
G37*
X162189583Y-119327084D02*
X146835635Y-119327084D01*
X146967494Y-105039584D01*
X147902083Y-105039584D01*
X147902083Y-118268751D01*
X161131250Y-118268751D01*
X161131250Y-105039584D01*
X147902083Y-105039584D01*
X146967494Y-105039584D01*
X146976041Y-104113542D01*
X162189583Y-103973136D01*
X162189583Y-119327084D01*
G36*
X181239583Y-119327084D02*
G01*
X165893750Y-119327084D01*
X165893750Y-105304167D01*
X166952083Y-105304167D01*
X166952083Y-118268751D01*
X180181250Y-118268751D01*
X180181250Y-105304167D01*
X166952083Y-105304167D01*
X165893750Y-105304167D01*
X165893750Y-104245834D01*
X181239583Y-104245834D01*
X181239583Y-119327084D01*
G37*
X181239583Y-119327084D02*
X165893750Y-119327084D01*
X165893750Y-105304167D01*
X166952083Y-105304167D01*
X166952083Y-118268751D01*
X180181250Y-118268751D01*
X180181250Y-105304167D01*
X166952083Y-105304167D01*
X165893750Y-105304167D01*
X165893750Y-104245834D01*
X181239583Y-104245834D01*
X181239583Y-119327084D01*
G36*
X200289583Y-119327084D02*
G01*
X184943750Y-119327084D01*
X184943750Y-105304167D01*
X186002083Y-105304167D01*
X186002083Y-118268751D01*
X199231250Y-118268751D01*
X199231250Y-105304167D01*
X186002083Y-105304167D01*
X184943750Y-105304167D01*
X184943750Y-104245834D01*
X200289583Y-104245834D01*
X200289583Y-119327084D01*
G37*
X200289583Y-119327084D02*
X184943750Y-119327084D01*
X184943750Y-105304167D01*
X186002083Y-105304167D01*
X186002083Y-118268751D01*
X199231250Y-118268751D01*
X199231250Y-105304167D01*
X186002083Y-105304167D01*
X184943750Y-105304167D01*
X184943750Y-104245834D01*
X200289583Y-104245834D01*
X200289583Y-119327084D01*
G36*
X219339583Y-119327084D02*
G01*
X203985635Y-119327084D01*
X204117494Y-105039584D01*
X205052083Y-105039584D01*
X205052083Y-118268751D01*
X218281249Y-118268751D01*
X218281249Y-105039584D01*
X205052083Y-105039584D01*
X204117494Y-105039584D01*
X204126041Y-104113542D01*
X219339583Y-103973136D01*
X219339583Y-119327084D01*
G37*
X219339583Y-119327084D02*
X203985635Y-119327084D01*
X204117494Y-105039584D01*
X205052083Y-105039584D01*
X205052083Y-118268751D01*
X218281249Y-118268751D01*
X218281249Y-105039584D01*
X205052083Y-105039584D01*
X204117494Y-105039584D01*
X204126041Y-104113542D01*
X219339583Y-103973136D01*
X219339583Y-119327084D01*
G36*
X238389583Y-119327084D02*
G01*
X223035635Y-119327084D01*
X223167494Y-105039584D01*
X224102083Y-105039584D01*
X224102083Y-118268751D01*
X237331249Y-118268751D01*
X237331249Y-105039584D01*
X224102083Y-105039584D01*
X223167494Y-105039584D01*
X223176041Y-104113542D01*
X238389583Y-103973136D01*
X238389583Y-119327084D01*
G37*
X238389583Y-119327084D02*
X223035635Y-119327084D01*
X223167494Y-105039584D01*
X224102083Y-105039584D01*
X224102083Y-118268751D01*
X237331249Y-118268751D01*
X237331249Y-105039584D01*
X224102083Y-105039584D01*
X223167494Y-105039584D01*
X223176041Y-104113542D01*
X238389583Y-103973136D01*
X238389583Y-119327084D01*
G36*
X288395833Y-100277084D02*
G01*
X286971483Y-100277084D01*
X286119903Y-100307652D01*
X285657076Y-100430610D01*
X285444551Y-100692840D01*
X285408753Y-100806250D01*
X285287955Y-101069106D01*
X285020013Y-101227463D01*
X284492664Y-101307099D01*
X283593643Y-101333790D01*
X283104166Y-101335417D01*
X282024809Y-101322700D01*
X281362085Y-101267362D01*
X281003730Y-101143627D01*
X280837479Y-100925717D01*
X280799579Y-100806250D01*
X280748187Y-100667248D01*
X280639662Y-100554991D01*
X280422189Y-100466623D01*
X280043956Y-100399289D01*
X279453150Y-100350134D01*
X278597956Y-100316301D01*
X277426562Y-100294936D01*
X275887155Y-100283182D01*
X273927922Y-100278185D01*
X271497048Y-100277089D01*
X271197916Y-100277084D01*
X268711867Y-100277925D01*
X266703171Y-100282352D01*
X265120015Y-100293220D01*
X263910585Y-100313386D01*
X263023069Y-100345704D01*
X262405652Y-100393029D01*
X262006522Y-100458219D01*
X261773865Y-100544127D01*
X261655868Y-100653610D01*
X261600718Y-100789524D01*
X261596253Y-100806250D01*
X261474520Y-101070367D01*
X261204342Y-101228892D01*
X260672773Y-101308039D01*
X259766864Y-101334026D01*
X259316436Y-101335417D01*
X258254456Y-101324611D01*
X257615616Y-101274753D01*
X257294050Y-101159682D01*
X257183888Y-100953237D01*
X257174999Y-100806250D01*
X257140209Y-100570324D01*
X256973512Y-100417253D01*
X256581418Y-100329256D01*
X255870437Y-100288550D01*
X254747079Y-100277355D01*
X254392817Y-100277084D01*
X251610635Y-100277084D01*
X251742494Y-85989584D01*
X252677083Y-85989584D01*
X252677083Y-99218750D01*
X255347686Y-99218750D01*
X256565559Y-99227173D01*
X257354841Y-99265058D01*
X257816001Y-99351333D01*
X258049511Y-99504924D01*
X258155841Y-99744759D01*
X258156670Y-99747917D01*
X258353196Y-100090823D01*
X258803345Y-100246486D01*
X259454817Y-100277084D01*
X260187022Y-100240509D01*
X260528361Y-100089510D01*
X260614522Y-99762177D01*
X260614583Y-99747917D01*
X260627218Y-99615630D01*
X260697359Y-99507454D01*
X260873361Y-99420963D01*
X261203581Y-99353734D01*
X261736372Y-99303341D01*
X262520090Y-99267360D01*
X263603091Y-99243366D01*
X265033729Y-99228933D01*
X266860360Y-99221638D01*
X269131338Y-99219054D01*
X271167057Y-99218750D01*
X273805866Y-99219447D01*
X275964505Y-99223153D01*
X277691972Y-99232294D01*
X279037264Y-99249294D01*
X280049378Y-99276580D01*
X280777311Y-99316577D01*
X281270061Y-99371709D01*
X281576624Y-99444402D01*
X281745997Y-99537081D01*
X281827178Y-99652171D01*
X281857912Y-99747917D01*
X282063221Y-100098008D01*
X282534018Y-100251874D01*
X283104166Y-100277084D01*
X283851332Y-100222748D01*
X284227249Y-100017095D01*
X284350420Y-99747917D01*
X284514656Y-99434512D01*
X284887461Y-99274511D01*
X285607289Y-99221032D01*
X285913150Y-99218750D01*
X287337500Y-99218750D01*
X287337500Y-66939584D01*
X271727083Y-66939584D01*
X271727083Y-80168751D01*
X274108333Y-80168751D01*
X274108333Y-85989584D01*
X252677083Y-85989584D01*
X251742494Y-85989584D01*
X251751041Y-85063542D01*
X262400520Y-84994395D01*
X273050000Y-84925247D01*
X273050000Y-81227084D01*
X270660635Y-81227084D01*
X270801041Y-66013542D01*
X279598437Y-65943830D01*
X288395833Y-65874117D01*
X288395833Y-100277084D01*
G37*
X288395833Y-100277084D02*
X286971483Y-100277084D01*
X286119903Y-100307652D01*
X285657076Y-100430610D01*
X285444551Y-100692840D01*
X285408753Y-100806250D01*
X285287955Y-101069106D01*
X285020013Y-101227463D01*
X284492664Y-101307099D01*
X283593643Y-101333790D01*
X283104166Y-101335417D01*
X282024809Y-101322700D01*
X281362085Y-101267362D01*
X281003730Y-101143627D01*
X280837479Y-100925717D01*
X280799579Y-100806250D01*
X280748187Y-100667248D01*
X280639662Y-100554991D01*
X280422189Y-100466623D01*
X280043956Y-100399289D01*
X279453150Y-100350134D01*
X278597956Y-100316301D01*
X277426562Y-100294936D01*
X275887155Y-100283182D01*
X273927922Y-100278185D01*
X271497048Y-100277089D01*
X271197916Y-100277084D01*
X268711867Y-100277925D01*
X266703171Y-100282352D01*
X265120015Y-100293220D01*
X263910585Y-100313386D01*
X263023069Y-100345704D01*
X262405652Y-100393029D01*
X262006522Y-100458219D01*
X261773865Y-100544127D01*
X261655868Y-100653610D01*
X261600718Y-100789524D01*
X261596253Y-100806250D01*
X261474520Y-101070367D01*
X261204342Y-101228892D01*
X260672773Y-101308039D01*
X259766864Y-101334026D01*
X259316436Y-101335417D01*
X258254456Y-101324611D01*
X257615616Y-101274753D01*
X257294050Y-101159682D01*
X257183888Y-100953237D01*
X257174999Y-100806250D01*
X257140209Y-100570324D01*
X256973512Y-100417253D01*
X256581418Y-100329256D01*
X255870437Y-100288550D01*
X254747079Y-100277355D01*
X254392817Y-100277084D01*
X251610635Y-100277084D01*
X251742494Y-85989584D01*
X252677083Y-85989584D01*
X252677083Y-99218750D01*
X255347686Y-99218750D01*
X256565559Y-99227173D01*
X257354841Y-99265058D01*
X257816001Y-99351333D01*
X258049511Y-99504924D01*
X258155841Y-99744759D01*
X258156670Y-99747917D01*
X258353196Y-100090823D01*
X258803345Y-100246486D01*
X259454817Y-100277084D01*
X260187022Y-100240509D01*
X260528361Y-100089510D01*
X260614522Y-99762177D01*
X260614583Y-99747917D01*
X260627218Y-99615630D01*
X260697359Y-99507454D01*
X260873361Y-99420963D01*
X261203581Y-99353734D01*
X261736372Y-99303341D01*
X262520090Y-99267360D01*
X263603091Y-99243366D01*
X265033729Y-99228933D01*
X266860360Y-99221638D01*
X269131338Y-99219054D01*
X271167057Y-99218750D01*
X273805866Y-99219447D01*
X275964505Y-99223153D01*
X277691972Y-99232294D01*
X279037264Y-99249294D01*
X280049378Y-99276580D01*
X280777311Y-99316577D01*
X281270061Y-99371709D01*
X281576624Y-99444402D01*
X281745997Y-99537081D01*
X281827178Y-99652171D01*
X281857912Y-99747917D01*
X282063221Y-100098008D01*
X282534018Y-100251874D01*
X283104166Y-100277084D01*
X283851332Y-100222748D01*
X284227249Y-100017095D01*
X284350420Y-99747917D01*
X284514656Y-99434512D01*
X284887461Y-99274511D01*
X285607289Y-99221032D01*
X285913150Y-99218750D01*
X287337500Y-99218750D01*
X287337500Y-66939584D01*
X271727083Y-66939584D01*
X271727083Y-80168751D01*
X274108333Y-80168751D01*
X274108333Y-85989584D01*
X252677083Y-85989584D01*
X251742494Y-85989584D01*
X251751041Y-85063542D01*
X262400520Y-84994395D01*
X273050000Y-84925247D01*
X273050000Y-81227084D01*
X270660635Y-81227084D01*
X270801041Y-66013542D01*
X279598437Y-65943830D01*
X288395833Y-65874117D01*
X288395833Y-100277084D01*
G36*
X31220833Y-100277084D02*
G01*
X11112499Y-100277084D01*
X11112499Y-86254167D01*
X12170833Y-86254167D01*
X12170833Y-99218750D01*
X30162499Y-99218750D01*
X30162499Y-86254167D01*
X12170833Y-86254167D01*
X11112499Y-86254167D01*
X11112499Y-85195834D01*
X31220833Y-85195834D01*
X31220833Y-100277084D01*
G37*
X31220833Y-100277084D02*
X11112499Y-100277084D01*
X11112499Y-86254167D01*
X12170833Y-86254167D01*
X12170833Y-99218750D01*
X30162499Y-99218750D01*
X30162499Y-86254167D01*
X12170833Y-86254167D01*
X11112499Y-86254167D01*
X11112499Y-85195834D01*
X31220833Y-85195834D01*
X31220833Y-100277084D01*
G36*
X57414583Y-100277084D02*
G01*
X42060635Y-100277084D01*
X42070402Y-99218750D01*
X43117839Y-99218750D01*
X56356249Y-99218750D01*
X56356249Y-85980340D01*
X43259375Y-86121876D01*
X43117839Y-99218750D01*
X42070402Y-99218750D01*
X42201041Y-85063542D01*
X57414583Y-84923136D01*
X57414583Y-100277084D01*
G37*
X57414583Y-100277084D02*
X42060635Y-100277084D01*
X42070402Y-99218750D01*
X43117839Y-99218750D01*
X56356249Y-99218750D01*
X56356249Y-85980340D01*
X43259375Y-86121876D01*
X43117839Y-99218750D01*
X42070402Y-99218750D01*
X42201041Y-85063542D01*
X57414583Y-84923136D01*
X57414583Y-100277084D01*
G36*
X76464583Y-100277084D02*
G01*
X61110635Y-100277084D01*
X61120402Y-99218750D01*
X62167839Y-99218750D01*
X75406250Y-99218750D01*
X75406250Y-85980340D01*
X62309374Y-86121876D01*
X62238607Y-92670313D01*
X62167839Y-99218750D01*
X61120402Y-99218750D01*
X61251041Y-85063542D01*
X76464583Y-84923136D01*
X76464583Y-100277084D01*
G37*
X76464583Y-100277084D02*
X61110635Y-100277084D01*
X61120402Y-99218750D01*
X62167839Y-99218750D01*
X75406250Y-99218750D01*
X75406250Y-85980340D01*
X62309374Y-86121876D01*
X62238607Y-92670313D01*
X62167839Y-99218750D01*
X61120402Y-99218750D01*
X61251041Y-85063542D01*
X76464583Y-84923136D01*
X76464583Y-100277084D01*
G36*
X95514583Y-100277084D02*
G01*
X80160635Y-100277084D01*
X80292494Y-85989584D01*
X81227083Y-85989584D01*
X81227083Y-99218750D01*
X94456250Y-99218750D01*
X94456250Y-85989584D01*
X81227083Y-85989584D01*
X80292494Y-85989584D01*
X80301041Y-85063542D01*
X95514583Y-84923136D01*
X95514583Y-100277084D01*
G37*
X95514583Y-100277084D02*
X80160635Y-100277084D01*
X80292494Y-85989584D01*
X81227083Y-85989584D01*
X81227083Y-99218750D01*
X94456250Y-99218750D01*
X94456250Y-85989584D01*
X81227083Y-85989584D01*
X80292494Y-85989584D01*
X80301041Y-85063542D01*
X95514583Y-84923136D01*
X95514583Y-100277084D01*
G36*
X114564583Y-100277084D02*
G01*
X99218750Y-100277084D01*
X99218750Y-86254167D01*
X100277083Y-86254167D01*
X100277083Y-99218750D01*
X113506249Y-99218750D01*
X113506249Y-86254167D01*
X100277083Y-86254167D01*
X99218750Y-86254167D01*
X99218750Y-85195834D01*
X114564583Y-85195834D01*
X114564583Y-100277084D01*
G37*
X114564583Y-100277084D02*
X99218750Y-100277084D01*
X99218750Y-86254167D01*
X100277083Y-86254167D01*
X100277083Y-99218750D01*
X113506249Y-99218750D01*
X113506249Y-86254167D01*
X100277083Y-86254167D01*
X99218750Y-86254167D01*
X99218750Y-85195834D01*
X114564583Y-85195834D01*
X114564583Y-100277084D01*
G36*
X133614583Y-100277084D02*
G01*
X118260635Y-100277084D01*
X118392494Y-85989584D01*
X119327083Y-85989584D01*
X119327083Y-99218750D01*
X132556250Y-99218750D01*
X132556250Y-85989584D01*
X119327083Y-85989584D01*
X118392494Y-85989584D01*
X118401041Y-85063542D01*
X133614583Y-84923136D01*
X133614583Y-100277084D01*
G37*
X133614583Y-100277084D02*
X118260635Y-100277084D01*
X118392494Y-85989584D01*
X119327083Y-85989584D01*
X119327083Y-99218750D01*
X132556250Y-99218750D01*
X132556250Y-85989584D01*
X119327083Y-85989584D01*
X118392494Y-85989584D01*
X118401041Y-85063542D01*
X133614583Y-84923136D01*
X133614583Y-100277084D01*
G36*
X152664583Y-100277084D02*
G01*
X137310635Y-100277084D01*
X137442494Y-85989584D01*
X138377083Y-85989584D01*
X138377083Y-99218750D01*
X151606250Y-99218750D01*
X151606250Y-85989584D01*
X138377083Y-85989584D01*
X137442494Y-85989584D01*
X137451041Y-85063542D01*
X152664583Y-84923136D01*
X152664583Y-100277084D01*
G37*
X152664583Y-100277084D02*
X137310635Y-100277084D01*
X137442494Y-85989584D01*
X138377083Y-85989584D01*
X138377083Y-99218750D01*
X151606250Y-99218750D01*
X151606250Y-85989584D01*
X138377083Y-85989584D01*
X137442494Y-85989584D01*
X137451041Y-85063542D01*
X152664583Y-84923136D01*
X152664583Y-100277084D01*
G36*
X171714583Y-100277084D02*
G01*
X156360635Y-100277084D01*
X156492494Y-85989584D01*
X157427083Y-85989584D01*
X157427083Y-99218750D01*
X170656250Y-99218750D01*
X170656250Y-85989584D01*
X157427083Y-85989584D01*
X156492494Y-85989584D01*
X156501041Y-85063542D01*
X171714583Y-84923136D01*
X171714583Y-100277084D01*
G37*
X171714583Y-100277084D02*
X156360635Y-100277084D01*
X156492494Y-85989584D01*
X157427083Y-85989584D01*
X157427083Y-99218750D01*
X170656250Y-99218750D01*
X170656250Y-85989584D01*
X157427083Y-85989584D01*
X156492494Y-85989584D01*
X156501041Y-85063542D01*
X171714583Y-84923136D01*
X171714583Y-100277084D01*
G36*
X190764583Y-100277084D02*
G01*
X175418750Y-100277084D01*
X175418750Y-86254167D01*
X176477083Y-86254167D01*
X176477083Y-99218750D01*
X189706250Y-99218750D01*
X189706250Y-86254167D01*
X176477083Y-86254167D01*
X175418750Y-86254167D01*
X175418750Y-85195834D01*
X190764583Y-85195834D01*
X190764583Y-100277084D01*
G37*
X190764583Y-100277084D02*
X175418750Y-100277084D01*
X175418750Y-86254167D01*
X176477083Y-86254167D01*
X176477083Y-99218750D01*
X189706250Y-99218750D01*
X189706250Y-86254167D01*
X176477083Y-86254167D01*
X175418750Y-86254167D01*
X175418750Y-85195834D01*
X190764583Y-85195834D01*
X190764583Y-100277084D01*
G36*
X209814583Y-100277084D02*
G01*
X194460635Y-100277084D01*
X194592494Y-85989584D01*
X195527083Y-85989584D01*
X195527083Y-99218750D01*
X208756249Y-99218750D01*
X208756249Y-85989584D01*
X195527083Y-85989584D01*
X194592494Y-85989584D01*
X194601041Y-85063542D01*
X209814583Y-84923136D01*
X209814583Y-100277084D01*
G37*
X209814583Y-100277084D02*
X194460635Y-100277084D01*
X194592494Y-85989584D01*
X195527083Y-85989584D01*
X195527083Y-99218750D01*
X208756249Y-99218750D01*
X208756249Y-85989584D01*
X195527083Y-85989584D01*
X194592494Y-85989584D01*
X194601041Y-85063542D01*
X209814583Y-84923136D01*
X209814583Y-100277084D01*
G36*
X228864583Y-100277084D02*
G01*
X213510635Y-100277084D01*
X213642494Y-85989584D01*
X214577083Y-85989584D01*
X214577083Y-99218750D01*
X227806249Y-99218750D01*
X227806249Y-85989584D01*
X214577083Y-85989584D01*
X213642494Y-85989584D01*
X213651041Y-85063542D01*
X228864583Y-84923136D01*
X228864583Y-100277084D01*
G37*
X228864583Y-100277084D02*
X213510635Y-100277084D01*
X213642494Y-85989584D01*
X214577083Y-85989584D01*
X214577083Y-99218750D01*
X227806249Y-99218750D01*
X227806249Y-85989584D01*
X214577083Y-85989584D01*
X213642494Y-85989584D01*
X213651041Y-85063542D01*
X228864583Y-84923136D01*
X228864583Y-100277084D01*
G36*
X247914583Y-100277084D02*
G01*
X232560635Y-100277084D01*
X232692494Y-85989584D01*
X233627083Y-85989584D01*
X233627083Y-99218750D01*
X246856249Y-99218750D01*
X246856249Y-85989584D01*
X233627083Y-85989584D01*
X232692494Y-85989584D01*
X232701041Y-85063542D01*
X247914583Y-84923136D01*
X247914583Y-100277084D01*
G37*
X247914583Y-100277084D02*
X232560635Y-100277084D01*
X232692494Y-85989584D01*
X233627083Y-85989584D01*
X233627083Y-99218750D01*
X246856249Y-99218750D01*
X246856249Y-85989584D01*
X233627083Y-85989584D01*
X232692494Y-85989584D01*
X232701041Y-85063542D01*
X247914583Y-84923136D01*
X247914583Y-100277084D01*
G36*
X28839583Y-81227084D02*
G01*
X13485635Y-81227084D01*
X13495402Y-80168751D01*
X14542839Y-80168751D01*
X27781249Y-80168751D01*
X27781249Y-66930340D01*
X21232812Y-67001108D01*
X14684375Y-67071875D01*
X14542839Y-80168751D01*
X13495402Y-80168751D01*
X13626041Y-66013542D01*
X28839583Y-65873136D01*
X28839583Y-81227084D01*
G37*
X28839583Y-81227084D02*
X13485635Y-81227084D01*
X13495402Y-80168751D01*
X14542839Y-80168751D01*
X27781249Y-80168751D01*
X27781249Y-66930340D01*
X21232812Y-67001108D01*
X14684375Y-67071875D01*
X14542839Y-80168751D01*
X13495402Y-80168751D01*
X13626041Y-66013542D01*
X28839583Y-65873136D01*
X28839583Y-81227084D01*
G36*
X52652083Y-81227084D02*
G01*
X37306250Y-81227084D01*
X37306250Y-67204167D01*
X38364583Y-67204167D01*
X38364583Y-80168751D01*
X51593749Y-80168751D01*
X51593749Y-67204167D01*
X38364583Y-67204167D01*
X37306250Y-67204167D01*
X37306250Y-66145834D01*
X52652083Y-66145834D01*
X52652083Y-81227084D01*
G37*
X52652083Y-81227084D02*
X37306250Y-81227084D01*
X37306250Y-67204167D01*
X38364583Y-67204167D01*
X38364583Y-80168751D01*
X51593749Y-80168751D01*
X51593749Y-67204167D01*
X38364583Y-67204167D01*
X37306250Y-67204167D01*
X37306250Y-66145834D01*
X52652083Y-66145834D01*
X52652083Y-81227084D01*
G36*
X71702083Y-81227084D02*
G01*
X56348135Y-81227084D01*
X56357902Y-80168751D01*
X57405339Y-80168751D01*
X70643750Y-80168751D01*
X70643750Y-66930340D01*
X64095312Y-67001108D01*
X57546874Y-67071875D01*
X57476107Y-73620313D01*
X57405339Y-80168751D01*
X56357902Y-80168751D01*
X56488541Y-66013542D01*
X71702083Y-65873136D01*
X71702083Y-81227084D01*
G37*
X71702083Y-81227084D02*
X56348135Y-81227084D01*
X56357902Y-80168751D01*
X57405339Y-80168751D01*
X70643750Y-80168751D01*
X70643750Y-66930340D01*
X64095312Y-67001108D01*
X57546874Y-67071875D01*
X57476107Y-73620313D01*
X57405339Y-80168751D01*
X56357902Y-80168751D01*
X56488541Y-66013542D01*
X71702083Y-65873136D01*
X71702083Y-81227084D01*
G36*
X90752083Y-81227084D02*
G01*
X75398135Y-81227084D01*
X75407902Y-80168751D01*
X76455339Y-80168751D01*
X89693750Y-80168751D01*
X89693750Y-66930340D01*
X83145312Y-67001108D01*
X76596875Y-67071875D01*
X76455339Y-80168751D01*
X75407902Y-80168751D01*
X75538541Y-66013542D01*
X90752083Y-65873136D01*
X90752083Y-81227084D01*
G37*
X90752083Y-81227084D02*
X75398135Y-81227084D01*
X75407902Y-80168751D01*
X76455339Y-80168751D01*
X89693750Y-80168751D01*
X89693750Y-66930340D01*
X83145312Y-67001108D01*
X76596875Y-67071875D01*
X76455339Y-80168751D01*
X75407902Y-80168751D01*
X75538541Y-66013542D01*
X90752083Y-65873136D01*
X90752083Y-81227084D01*
G36*
X109802083Y-81227084D02*
G01*
X94448135Y-81227084D01*
X94457902Y-80168751D01*
X95505339Y-80168751D01*
X108743749Y-80168751D01*
X108743749Y-66930340D01*
X102195312Y-67001108D01*
X95646875Y-67071875D01*
X95505339Y-80168751D01*
X94457902Y-80168751D01*
X94588541Y-66013542D01*
X109802083Y-65873136D01*
X109802083Y-81227084D01*
G37*
X109802083Y-81227084D02*
X94448135Y-81227084D01*
X94457902Y-80168751D01*
X95505339Y-80168751D01*
X108743749Y-80168751D01*
X108743749Y-66930340D01*
X102195312Y-67001108D01*
X95646875Y-67071875D01*
X95505339Y-80168751D01*
X94457902Y-80168751D01*
X94588541Y-66013542D01*
X109802083Y-65873136D01*
X109802083Y-81227084D01*
G36*
X128852083Y-81227084D02*
G01*
X113498135Y-81227084D01*
X113507902Y-80168751D01*
X114555339Y-80168751D01*
X127793749Y-80168751D01*
X127793749Y-66930340D01*
X121245312Y-67001108D01*
X114696874Y-67071875D01*
X114626107Y-73620313D01*
X114555339Y-80168751D01*
X113507902Y-80168751D01*
X113638541Y-66013542D01*
X128852083Y-65873136D01*
X128852083Y-81227084D01*
G37*
X128852083Y-81227084D02*
X113498135Y-81227084D01*
X113507902Y-80168751D01*
X114555339Y-80168751D01*
X127793749Y-80168751D01*
X127793749Y-66930340D01*
X121245312Y-67001108D01*
X114696874Y-67071875D01*
X114626107Y-73620313D01*
X114555339Y-80168751D01*
X113507902Y-80168751D01*
X113638541Y-66013542D01*
X128852083Y-65873136D01*
X128852083Y-81227084D01*
G36*
X147902083Y-81227084D02*
G01*
X132548135Y-81227084D01*
X132557902Y-80168751D01*
X133605339Y-80168751D01*
X146843750Y-80168751D01*
X146843750Y-66930340D01*
X140295312Y-67001108D01*
X133746875Y-67071875D01*
X133605339Y-80168751D01*
X132557902Y-80168751D01*
X132688541Y-66013542D01*
X147902083Y-65873136D01*
X147902083Y-81227084D01*
G37*
X147902083Y-81227084D02*
X132548135Y-81227084D01*
X132557902Y-80168751D01*
X133605339Y-80168751D01*
X146843750Y-80168751D01*
X146843750Y-66930340D01*
X140295312Y-67001108D01*
X133746875Y-67071875D01*
X133605339Y-80168751D01*
X132557902Y-80168751D01*
X132688541Y-66013542D01*
X147902083Y-65873136D01*
X147902083Y-81227084D01*
G36*
X166952083Y-81227084D02*
G01*
X151606250Y-81227084D01*
X151606250Y-67204167D01*
X152664583Y-67204167D01*
X152664583Y-80168751D01*
X165893750Y-80168751D01*
X165893750Y-67204167D01*
X152664583Y-67204167D01*
X151606250Y-67204167D01*
X151606250Y-66145834D01*
X166952083Y-66145834D01*
X166952083Y-81227084D01*
G37*
X166952083Y-81227084D02*
X151606250Y-81227084D01*
X151606250Y-67204167D01*
X152664583Y-67204167D01*
X152664583Y-80168751D01*
X165893750Y-80168751D01*
X165893750Y-67204167D01*
X152664583Y-67204167D01*
X151606250Y-67204167D01*
X151606250Y-66145834D01*
X166952083Y-66145834D01*
X166952083Y-81227084D01*
G36*
X186002083Y-81227084D02*
G01*
X170648135Y-81227084D01*
X170779994Y-66939584D01*
X171714583Y-66939584D01*
X171714583Y-80168751D01*
X184943750Y-80168751D01*
X184943750Y-66939584D01*
X171714583Y-66939584D01*
X170779994Y-66939584D01*
X170788541Y-66013542D01*
X186002083Y-65873136D01*
X186002083Y-81227084D01*
G37*
X186002083Y-81227084D02*
X170648135Y-81227084D01*
X170779994Y-66939584D01*
X171714583Y-66939584D01*
X171714583Y-80168751D01*
X184943750Y-80168751D01*
X184943750Y-66939584D01*
X171714583Y-66939584D01*
X170779994Y-66939584D01*
X170788541Y-66013542D01*
X186002083Y-65873136D01*
X186002083Y-81227084D01*
G36*
X205052083Y-81227084D02*
G01*
X189698135Y-81227084D01*
X189829994Y-66939584D01*
X190764583Y-66939584D01*
X190764583Y-80168751D01*
X203993749Y-80168751D01*
X203993749Y-66939584D01*
X190764583Y-66939584D01*
X189829994Y-66939584D01*
X189838541Y-66013542D01*
X205052083Y-65873136D01*
X205052083Y-81227084D01*
G37*
X205052083Y-81227084D02*
X189698135Y-81227084D01*
X189829994Y-66939584D01*
X190764583Y-66939584D01*
X190764583Y-80168751D01*
X203993749Y-80168751D01*
X203993749Y-66939584D01*
X190764583Y-66939584D01*
X189829994Y-66939584D01*
X189838541Y-66013542D01*
X205052083Y-65873136D01*
X205052083Y-81227084D01*
G36*
X224102083Y-81227084D02*
G01*
X208748135Y-81227084D01*
X208879994Y-66939584D01*
X209814583Y-66939584D01*
X209814583Y-80168751D01*
X223043749Y-80168751D01*
X223043749Y-66939584D01*
X209814583Y-66939584D01*
X208879994Y-66939584D01*
X208888541Y-66013542D01*
X224102083Y-65873136D01*
X224102083Y-81227084D01*
G37*
X224102083Y-81227084D02*
X208748135Y-81227084D01*
X208879994Y-66939584D01*
X209814583Y-66939584D01*
X209814583Y-80168751D01*
X223043749Y-80168751D01*
X223043749Y-66939584D01*
X209814583Y-66939584D01*
X208879994Y-66939584D01*
X208888541Y-66013542D01*
X224102083Y-65873136D01*
X224102083Y-81227084D01*
G36*
X243152083Y-81227084D02*
G01*
X227798135Y-81227084D01*
X227929994Y-66939584D01*
X228864583Y-66939584D01*
X228864583Y-80168751D01*
X242093749Y-80168751D01*
X242093749Y-66939584D01*
X228864583Y-66939584D01*
X227929994Y-66939584D01*
X227938541Y-66013542D01*
X243152083Y-65873136D01*
X243152083Y-81227084D01*
G37*
X243152083Y-81227084D02*
X227798135Y-81227084D01*
X227929994Y-66939584D01*
X228864583Y-66939584D01*
X228864583Y-80168751D01*
X242093749Y-80168751D01*
X242093749Y-66939584D01*
X228864583Y-66939584D01*
X227929994Y-66939584D01*
X227938541Y-66013542D01*
X243152083Y-65873136D01*
X243152083Y-81227084D01*
G36*
X262202083Y-81227084D02*
G01*
X246856249Y-81227084D01*
X246856249Y-67204167D01*
X247914583Y-67204167D01*
X247914583Y-80168751D01*
X261143749Y-80168751D01*
X261143749Y-67204167D01*
X247914583Y-67204167D01*
X246856249Y-67204167D01*
X246856249Y-66145834D01*
X262202083Y-66145834D01*
X262202083Y-81227084D01*
G37*
X262202083Y-81227084D02*
X246856249Y-81227084D01*
X246856249Y-67204167D01*
X247914583Y-67204167D01*
X247914583Y-80168751D01*
X261143749Y-80168751D01*
X261143749Y-67204167D01*
X247914583Y-67204167D01*
X246856249Y-67204167D01*
X246856249Y-66145834D01*
X262202083Y-66145834D01*
X262202083Y-81227084D01*
G36*
X290777083Y-62177084D02*
G01*
X289454166Y-62177084D01*
X288660675Y-62204944D01*
X288264932Y-62323198D01*
X288136910Y-62583855D01*
X288131250Y-62706250D01*
X288093294Y-62952196D01*
X287913989Y-63107419D01*
X287495175Y-63192585D01*
X286738694Y-63228359D01*
X285617708Y-63235417D01*
X284449468Y-63227427D01*
X283712159Y-63189678D01*
X283307619Y-63101507D01*
X283137692Y-62942248D01*
X283104166Y-62706250D01*
X283090462Y-62566818D01*
X283015186Y-62454311D01*
X282827089Y-62365841D01*
X282474925Y-62298522D01*
X281907446Y-62249466D01*
X281073404Y-62215787D01*
X279921552Y-62194597D01*
X278400643Y-62183009D01*
X276459429Y-62178135D01*
X274046663Y-62177089D01*
X273711458Y-62177084D01*
X271236531Y-62177856D01*
X269239523Y-62182097D01*
X267669187Y-62192694D01*
X266474275Y-62212534D01*
X265603539Y-62244505D01*
X265005732Y-62291493D01*
X264629606Y-62356386D01*
X264423915Y-62442071D01*
X264337411Y-62551435D01*
X264318846Y-62687366D01*
X264318749Y-62706250D01*
X264280794Y-62952196D01*
X264101489Y-63107419D01*
X263682675Y-63192585D01*
X262926194Y-63228359D01*
X261805208Y-63235417D01*
X260636968Y-63227427D01*
X259899659Y-63189678D01*
X259495119Y-63101507D01*
X259325192Y-62942248D01*
X259291666Y-62706250D01*
X259228681Y-62400779D01*
X258956213Y-62241452D01*
X258348996Y-62182845D01*
X257832400Y-62177084D01*
X256373135Y-62177084D01*
X256504994Y-47889584D01*
X257439583Y-47889584D01*
X257439583Y-61118751D01*
X258894791Y-61118751D01*
X259735753Y-61141719D01*
X260173848Y-61241025D01*
X260334479Y-61462271D01*
X260349999Y-61647917D01*
X260413162Y-61953722D01*
X260686254Y-62113029D01*
X261294680Y-62171440D01*
X261805208Y-62177084D01*
X262646170Y-62154116D01*
X263084264Y-62054809D01*
X263244896Y-61833564D01*
X263260416Y-61647917D01*
X263273136Y-61515050D01*
X263343687Y-61406515D01*
X263520660Y-61319854D01*
X263852642Y-61252605D01*
X264388222Y-61202308D01*
X265175990Y-61166504D01*
X266264534Y-61142732D01*
X267702442Y-61128532D01*
X269538305Y-61121443D01*
X271820710Y-61119006D01*
X273711458Y-61118751D01*
X276335590Y-61119395D01*
X278479145Y-61122967D01*
X280190711Y-61131927D01*
X281518877Y-61148737D01*
X282512232Y-61175855D01*
X283219364Y-61215742D01*
X283688863Y-61270858D01*
X283969318Y-61343663D01*
X284109317Y-61436618D01*
X284157449Y-61552183D01*
X284162500Y-61647917D01*
X284225662Y-61953722D01*
X284498754Y-62113029D01*
X285107180Y-62171440D01*
X285617708Y-62177084D01*
X286458670Y-62154116D01*
X286896764Y-62054809D01*
X287057396Y-61833564D01*
X287072916Y-61647917D01*
X287142566Y-61330521D01*
X287438201Y-61172223D01*
X288089844Y-61121015D01*
X288395833Y-61118751D01*
X289718750Y-61118751D01*
X289718750Y-47889584D01*
X257439583Y-47889584D01*
X256504994Y-47889584D01*
X256513541Y-46963542D01*
X273645312Y-46895466D01*
X290777083Y-46827391D01*
X290777083Y-62177084D01*
G37*
X290777083Y-62177084D02*
X289454166Y-62177084D01*
X288660675Y-62204944D01*
X288264932Y-62323198D01*
X288136910Y-62583855D01*
X288131250Y-62706250D01*
X288093294Y-62952196D01*
X287913989Y-63107419D01*
X287495175Y-63192585D01*
X286738694Y-63228359D01*
X285617708Y-63235417D01*
X284449468Y-63227427D01*
X283712159Y-63189678D01*
X283307619Y-63101507D01*
X283137692Y-62942248D01*
X283104166Y-62706250D01*
X283090462Y-62566818D01*
X283015186Y-62454311D01*
X282827089Y-62365841D01*
X282474925Y-62298522D01*
X281907446Y-62249466D01*
X281073404Y-62215787D01*
X279921552Y-62194597D01*
X278400643Y-62183009D01*
X276459429Y-62178135D01*
X274046663Y-62177089D01*
X273711458Y-62177084D01*
X271236531Y-62177856D01*
X269239523Y-62182097D01*
X267669187Y-62192694D01*
X266474275Y-62212534D01*
X265603539Y-62244505D01*
X265005732Y-62291493D01*
X264629606Y-62356386D01*
X264423915Y-62442071D01*
X264337411Y-62551435D01*
X264318846Y-62687366D01*
X264318749Y-62706250D01*
X264280794Y-62952196D01*
X264101489Y-63107419D01*
X263682675Y-63192585D01*
X262926194Y-63228359D01*
X261805208Y-63235417D01*
X260636968Y-63227427D01*
X259899659Y-63189678D01*
X259495119Y-63101507D01*
X259325192Y-62942248D01*
X259291666Y-62706250D01*
X259228681Y-62400779D01*
X258956213Y-62241452D01*
X258348996Y-62182845D01*
X257832400Y-62177084D01*
X256373135Y-62177084D01*
X256504994Y-47889584D01*
X257439583Y-47889584D01*
X257439583Y-61118751D01*
X258894791Y-61118751D01*
X259735753Y-61141719D01*
X260173848Y-61241025D01*
X260334479Y-61462271D01*
X260349999Y-61647917D01*
X260413162Y-61953722D01*
X260686254Y-62113029D01*
X261294680Y-62171440D01*
X261805208Y-62177084D01*
X262646170Y-62154116D01*
X263084264Y-62054809D01*
X263244896Y-61833564D01*
X263260416Y-61647917D01*
X263273136Y-61515050D01*
X263343687Y-61406515D01*
X263520660Y-61319854D01*
X263852642Y-61252605D01*
X264388222Y-61202308D01*
X265175990Y-61166504D01*
X266264534Y-61142732D01*
X267702442Y-61128532D01*
X269538305Y-61121443D01*
X271820710Y-61119006D01*
X273711458Y-61118751D01*
X276335590Y-61119395D01*
X278479145Y-61122967D01*
X280190711Y-61131927D01*
X281518877Y-61148737D01*
X282512232Y-61175855D01*
X283219364Y-61215742D01*
X283688863Y-61270858D01*
X283969318Y-61343663D01*
X284109317Y-61436618D01*
X284157449Y-61552183D01*
X284162500Y-61647917D01*
X284225662Y-61953722D01*
X284498754Y-62113029D01*
X285107180Y-62171440D01*
X285617708Y-62177084D01*
X286458670Y-62154116D01*
X286896764Y-62054809D01*
X287057396Y-61833564D01*
X287072916Y-61647917D01*
X287142566Y-61330521D01*
X287438201Y-61172223D01*
X288089844Y-61121015D01*
X288395833Y-61118751D01*
X289718750Y-61118751D01*
X289718750Y-47889584D01*
X257439583Y-47889584D01*
X256504994Y-47889584D01*
X256513541Y-46963542D01*
X273645312Y-46895466D01*
X290777083Y-46827391D01*
X290777083Y-62177084D01*
G36*
X24077083Y-62177084D02*
G01*
X8723135Y-62177084D01*
X8732902Y-61118751D01*
X9780339Y-61118751D01*
X23018750Y-61118751D01*
X23018750Y-47880340D01*
X16470312Y-47951108D01*
X9921875Y-48021876D01*
X9851107Y-54570313D01*
X9780339Y-61118751D01*
X8732902Y-61118751D01*
X8863541Y-46963542D01*
X24077083Y-46823136D01*
X24077083Y-62177084D01*
G37*
X24077083Y-62177084D02*
X8723135Y-62177084D01*
X8732902Y-61118751D01*
X9780339Y-61118751D01*
X23018750Y-61118751D01*
X23018750Y-47880340D01*
X16470312Y-47951108D01*
X9921875Y-48021876D01*
X9851107Y-54570313D01*
X9780339Y-61118751D01*
X8732902Y-61118751D01*
X8863541Y-46963542D01*
X24077083Y-46823136D01*
X24077083Y-62177084D01*
G36*
X43127083Y-62177084D02*
G01*
X27773135Y-62177084D01*
X27782902Y-61118751D01*
X28830339Y-61118751D01*
X42068750Y-61118751D01*
X42068750Y-47880340D01*
X28971874Y-48021876D01*
X28901107Y-54570313D01*
X28830339Y-61118751D01*
X27782902Y-61118751D01*
X27913541Y-46963542D01*
X43127083Y-46823136D01*
X43127083Y-62177084D01*
G37*
X43127083Y-62177084D02*
X27773135Y-62177084D01*
X27782902Y-61118751D01*
X28830339Y-61118751D01*
X42068750Y-61118751D01*
X42068750Y-47880340D01*
X28971874Y-48021876D01*
X28901107Y-54570313D01*
X28830339Y-61118751D01*
X27782902Y-61118751D01*
X27913541Y-46963542D01*
X43127083Y-46823136D01*
X43127083Y-62177084D01*
G36*
X62177083Y-62177084D02*
G01*
X46831250Y-62177084D01*
X46831250Y-48154167D01*
X47889583Y-48154167D01*
X47889583Y-61118751D01*
X61118749Y-61118751D01*
X61118749Y-48154167D01*
X47889583Y-48154167D01*
X46831250Y-48154167D01*
X46831250Y-47095834D01*
X62177083Y-47095834D01*
X62177083Y-62177084D01*
G37*
X62177083Y-62177084D02*
X46831250Y-62177084D01*
X46831250Y-48154167D01*
X47889583Y-48154167D01*
X47889583Y-61118751D01*
X61118749Y-61118751D01*
X61118749Y-48154167D01*
X47889583Y-48154167D01*
X46831250Y-48154167D01*
X46831250Y-47095834D01*
X62177083Y-47095834D01*
X62177083Y-62177084D01*
G36*
X81227083Y-62177084D02*
G01*
X65881250Y-62177084D01*
X65881250Y-48154167D01*
X66939583Y-48154167D01*
X66939583Y-61118751D01*
X80168750Y-61118751D01*
X80168750Y-48154167D01*
X66939583Y-48154167D01*
X65881250Y-48154167D01*
X65881250Y-47095834D01*
X81227083Y-47095834D01*
X81227083Y-62177084D01*
G37*
X81227083Y-62177084D02*
X65881250Y-62177084D01*
X65881250Y-48154167D01*
X66939583Y-48154167D01*
X66939583Y-61118751D01*
X80168750Y-61118751D01*
X80168750Y-48154167D01*
X66939583Y-48154167D01*
X65881250Y-48154167D01*
X65881250Y-47095834D01*
X81227083Y-47095834D01*
X81227083Y-62177084D01*
G36*
X100277083Y-62177084D02*
G01*
X84923135Y-62177084D01*
X84932902Y-61118751D01*
X85980339Y-61118751D01*
X99218750Y-61118751D01*
X99218750Y-47880340D01*
X92670312Y-47951108D01*
X86121875Y-48021876D01*
X86051107Y-54570313D01*
X85980339Y-61118751D01*
X84932902Y-61118751D01*
X85063541Y-46963542D01*
X100277083Y-46823136D01*
X100277083Y-62177084D01*
G37*
X100277083Y-62177084D02*
X84923135Y-62177084D01*
X84932902Y-61118751D01*
X85980339Y-61118751D01*
X99218750Y-61118751D01*
X99218750Y-47880340D01*
X92670312Y-47951108D01*
X86121875Y-48021876D01*
X86051107Y-54570313D01*
X85980339Y-61118751D01*
X84932902Y-61118751D01*
X85063541Y-46963542D01*
X100277083Y-46823136D01*
X100277083Y-62177084D01*
G36*
X119327083Y-62177084D02*
G01*
X103973135Y-62177084D01*
X103982902Y-61118751D01*
X105030339Y-61118751D01*
X118268749Y-61118751D01*
X118268749Y-47880340D01*
X111720312Y-47951108D01*
X105171874Y-48021876D01*
X105101107Y-54570313D01*
X105030339Y-61118751D01*
X103982902Y-61118751D01*
X104113541Y-46963542D01*
X119327083Y-46823136D01*
X119327083Y-62177084D01*
G37*
X119327083Y-62177084D02*
X103973135Y-62177084D01*
X103982902Y-61118751D01*
X105030339Y-61118751D01*
X118268749Y-61118751D01*
X118268749Y-47880340D01*
X111720312Y-47951108D01*
X105171874Y-48021876D01*
X105101107Y-54570313D01*
X105030339Y-61118751D01*
X103982902Y-61118751D01*
X104113541Y-46963542D01*
X119327083Y-46823136D01*
X119327083Y-62177084D01*
G36*
X138377083Y-62177084D02*
G01*
X123031249Y-62177084D01*
X123031249Y-48154167D01*
X124089583Y-48154167D01*
X124089583Y-61118751D01*
X137318750Y-61118751D01*
X137318750Y-48154167D01*
X124089583Y-48154167D01*
X123031249Y-48154167D01*
X123031249Y-47095834D01*
X138377083Y-47095834D01*
X138377083Y-62177084D01*
G37*
X138377083Y-62177084D02*
X123031249Y-62177084D01*
X123031249Y-48154167D01*
X124089583Y-48154167D01*
X124089583Y-61118751D01*
X137318750Y-61118751D01*
X137318750Y-48154167D01*
X124089583Y-48154167D01*
X123031249Y-48154167D01*
X123031249Y-47095834D01*
X138377083Y-47095834D01*
X138377083Y-62177084D01*
G36*
X157427083Y-62177084D02*
G01*
X142073135Y-62177084D01*
X142082902Y-61118751D01*
X143130339Y-61118751D01*
X156368750Y-61118751D01*
X156368750Y-47880340D01*
X149820312Y-47951108D01*
X143271875Y-48021876D01*
X143201107Y-54570313D01*
X143130339Y-61118751D01*
X142082902Y-61118751D01*
X142213541Y-46963542D01*
X157427083Y-46823136D01*
X157427083Y-62177084D01*
G37*
X157427083Y-62177084D02*
X142073135Y-62177084D01*
X142082902Y-61118751D01*
X143130339Y-61118751D01*
X156368750Y-61118751D01*
X156368750Y-47880340D01*
X149820312Y-47951108D01*
X143271875Y-48021876D01*
X143201107Y-54570313D01*
X143130339Y-61118751D01*
X142082902Y-61118751D01*
X142213541Y-46963542D01*
X157427083Y-46823136D01*
X157427083Y-62177084D01*
G36*
X176477083Y-62177084D02*
G01*
X161123135Y-62177084D01*
X161132902Y-61118751D01*
X162180339Y-61118751D01*
X175418750Y-61118751D01*
X175418750Y-47880340D01*
X168870312Y-47951108D01*
X162321875Y-48021876D01*
X162251107Y-54570313D01*
X162180339Y-61118751D01*
X161132902Y-61118751D01*
X161263541Y-46963542D01*
X176477083Y-46823136D01*
X176477083Y-62177084D01*
G37*
X176477083Y-62177084D02*
X161123135Y-62177084D01*
X161132902Y-61118751D01*
X162180339Y-61118751D01*
X175418750Y-61118751D01*
X175418750Y-47880340D01*
X168870312Y-47951108D01*
X162321875Y-48021876D01*
X162251107Y-54570313D01*
X162180339Y-61118751D01*
X161132902Y-61118751D01*
X161263541Y-46963542D01*
X176477083Y-46823136D01*
X176477083Y-62177084D01*
G36*
X195527083Y-62177084D02*
G01*
X180181250Y-62177084D01*
X180181250Y-48154167D01*
X181239583Y-48154167D01*
X181239583Y-61118751D01*
X194468750Y-61118751D01*
X194468750Y-48154167D01*
X181239583Y-48154167D01*
X180181250Y-48154167D01*
X180181250Y-47095834D01*
X195527083Y-47095834D01*
X195527083Y-62177084D01*
G37*
X195527083Y-62177084D02*
X180181250Y-62177084D01*
X180181250Y-48154167D01*
X181239583Y-48154167D01*
X181239583Y-61118751D01*
X194468750Y-61118751D01*
X194468750Y-48154167D01*
X181239583Y-48154167D01*
X180181250Y-48154167D01*
X180181250Y-47095834D01*
X195527083Y-47095834D01*
X195527083Y-62177084D01*
G36*
X214577083Y-62177084D02*
G01*
X199223135Y-62177084D01*
X199232902Y-61118751D01*
X200280339Y-61118751D01*
X213518749Y-61118751D01*
X213518749Y-47880340D01*
X200421875Y-48021876D01*
X200351107Y-54570313D01*
X200280339Y-61118751D01*
X199232902Y-61118751D01*
X199363541Y-46963542D01*
X214577083Y-46823136D01*
X214577083Y-62177084D01*
G37*
X214577083Y-62177084D02*
X199223135Y-62177084D01*
X199232902Y-61118751D01*
X200280339Y-61118751D01*
X213518749Y-61118751D01*
X213518749Y-47880340D01*
X200421875Y-48021876D01*
X200351107Y-54570313D01*
X200280339Y-61118751D01*
X199232902Y-61118751D01*
X199363541Y-46963542D01*
X214577083Y-46823136D01*
X214577083Y-62177084D01*
G36*
X233627083Y-62177084D02*
G01*
X218273135Y-62177084D01*
X218404994Y-47889584D01*
X219339583Y-47889584D01*
X219339583Y-61118751D01*
X232568749Y-61118751D01*
X232568749Y-47889584D01*
X219339583Y-47889584D01*
X218404994Y-47889584D01*
X218413541Y-46963542D01*
X233627083Y-46823136D01*
X233627083Y-62177084D01*
G37*
X233627083Y-62177084D02*
X218273135Y-62177084D01*
X218404994Y-47889584D01*
X219339583Y-47889584D01*
X219339583Y-61118751D01*
X232568749Y-61118751D01*
X232568749Y-47889584D01*
X219339583Y-47889584D01*
X218404994Y-47889584D01*
X218413541Y-46963542D01*
X233627083Y-46823136D01*
X233627083Y-62177084D01*
G36*
X252677083Y-62177084D02*
G01*
X237331249Y-62177084D01*
X237331249Y-48154167D01*
X238389583Y-48154167D01*
X238389583Y-61118751D01*
X251618749Y-61118751D01*
X251618749Y-48154167D01*
X238389583Y-48154167D01*
X237331249Y-48154167D01*
X237331249Y-47095834D01*
X252677083Y-47095834D01*
X252677083Y-62177084D01*
G37*
X252677083Y-62177084D02*
X237331249Y-62177084D01*
X237331249Y-48154167D01*
X238389583Y-48154167D01*
X238389583Y-61118751D01*
X251618749Y-61118751D01*
X251618749Y-48154167D01*
X238389583Y-48154167D01*
X237331249Y-48154167D01*
X237331249Y-47095834D01*
X252677083Y-47095834D01*
X252677083Y-62177084D01*
G36*
X300322805Y-36320359D02*
G01*
X301093372Y-36971083D01*
X301770492Y-37747422D01*
X301817141Y-37814695D01*
X302418749Y-38707422D01*
X302418750Y-92868751D01*
X302418750Y-147030079D01*
X301817141Y-147922806D01*
X301166417Y-148693373D01*
X300390078Y-149370493D01*
X300322805Y-149417142D01*
X299430078Y-150018751D01*
X150018750Y-150018751D01*
X607421Y-150018750D01*
X-285306Y-149417142D01*
X-1055873Y-148766418D01*
X-1732993Y-147990079D01*
X-1779642Y-147922806D01*
X-2381250Y-147030079D01*
X-2381250Y-112429235D01*
X-1537722Y-112429235D01*
X-1535547Y-118109273D01*
X-1529991Y-123272689D01*
X-1521059Y-127918242D01*
X-1508756Y-132044690D01*
X-1493085Y-135650793D01*
X-1474052Y-138735311D01*
X-1451662Y-141297001D01*
X-1425918Y-143334624D01*
X-1396825Y-144846938D01*
X-1364389Y-145832704D01*
X-1328613Y-146290678D01*
X-1324819Y-146307519D01*
X-781000Y-147456110D01*
X103047Y-148386993D01*
X1162966Y-148939444D01*
X1481125Y-148955302D01*
X2317081Y-148970617D01*
X3659466Y-148985372D01*
X5496912Y-148999554D01*
X7818051Y-149013146D01*
X10611512Y-149026135D01*
X13865929Y-149038505D01*
X17569932Y-149050241D01*
X21712152Y-149061328D01*
X26281222Y-149071752D01*
X31265772Y-149081498D01*
X36654435Y-149090549D01*
X42435840Y-149098893D01*
X48598621Y-149106513D01*
X55131408Y-149113395D01*
X62022832Y-149119524D01*
X69261526Y-149124884D01*
X76836120Y-149129462D01*
X84735246Y-149133241D01*
X92947536Y-149136208D01*
X101461620Y-149138347D01*
X110266130Y-149139643D01*
X119349698Y-149140081D01*
X128700955Y-149139647D01*
X138308533Y-149138325D01*
X148161062Y-149136101D01*
X150415625Y-149135473D01*
X161011506Y-149132391D01*
X171091181Y-149129370D01*
X180667613Y-149126364D01*
X189753762Y-149123324D01*
X198362590Y-149120205D01*
X206507057Y-149116959D01*
X214200126Y-149113539D01*
X221454758Y-149109898D01*
X228283913Y-149105989D01*
X234700554Y-149101765D01*
X240717641Y-149097179D01*
X246348136Y-149092184D01*
X251605000Y-149086733D01*
X256501194Y-149080779D01*
X261049680Y-149074274D01*
X265263420Y-149067172D01*
X269155374Y-149059426D01*
X272738503Y-149050989D01*
X276025770Y-149041813D01*
X279030135Y-149031852D01*
X281764560Y-149021058D01*
X284242006Y-149009385D01*
X286475434Y-148996785D01*
X288477806Y-148983212D01*
X290262083Y-148968619D01*
X291841226Y-148952957D01*
X293228197Y-148936181D01*
X294435956Y-148918244D01*
X295477466Y-148899097D01*
X296365688Y-148878695D01*
X297113582Y-148856991D01*
X297734111Y-148833936D01*
X298240235Y-148809484D01*
X298644916Y-148783589D01*
X298961115Y-148756202D01*
X299201794Y-148727278D01*
X299379913Y-148696769D01*
X299508435Y-148664627D01*
X299600320Y-148630807D01*
X299668529Y-148595260D01*
X299670908Y-148593826D01*
X300401272Y-147997587D01*
X300993825Y-147270909D01*
X301052157Y-147162845D01*
X301105759Y-147024860D01*
X301154831Y-146835172D01*
X301199573Y-146571994D01*
X301240185Y-146213543D01*
X301276865Y-145738034D01*
X301309815Y-145123681D01*
X301339234Y-144348701D01*
X301365321Y-143391308D01*
X301388277Y-142229717D01*
X301408300Y-140842145D01*
X301425592Y-139206806D01*
X301440352Y-137301916D01*
X301452778Y-135105689D01*
X301463072Y-132596341D01*
X301471434Y-129752088D01*
X301478061Y-126551145D01*
X301483156Y-122971726D01*
X301486917Y-118992048D01*
X301489543Y-114590325D01*
X301491236Y-109744773D01*
X301492195Y-104433607D01*
X301492618Y-98635042D01*
X301492708Y-92868750D01*
X301492599Y-86603935D01*
X301492138Y-80846502D01*
X301491127Y-75574666D01*
X301489364Y-70766642D01*
X301486651Y-66400646D01*
X301482788Y-62454894D01*
X301477574Y-58907599D01*
X301470811Y-55736978D01*
X301462297Y-52921246D01*
X301451834Y-50438618D01*
X301439222Y-48267310D01*
X301424261Y-46385536D01*
X301406751Y-44771512D01*
X301386492Y-43403454D01*
X301363285Y-42259576D01*
X301336930Y-41318093D01*
X301307227Y-40557222D01*
X301273976Y-39955177D01*
X301236978Y-39490174D01*
X301196033Y-39140428D01*
X301150940Y-38884154D01*
X301101501Y-38699567D01*
X301047515Y-38564883D01*
X300993825Y-38466592D01*
X300397586Y-37736228D01*
X299670908Y-37143675D01*
X299603526Y-37108109D01*
X299513152Y-37074273D01*
X299386840Y-37042126D01*
X299211648Y-37011622D01*
X298974630Y-36982721D01*
X298662843Y-36955377D01*
X298263344Y-36929549D01*
X297763187Y-36905193D01*
X297149428Y-36882266D01*
X296409124Y-36860724D01*
X295529331Y-36840525D01*
X294497104Y-36821625D01*
X293299499Y-36803981D01*
X291923573Y-36787551D01*
X290356380Y-36772290D01*
X288584978Y-36758157D01*
X286596422Y-36745107D01*
X284377768Y-36733097D01*
X281916071Y-36722085D01*
X279198388Y-36712027D01*
X276211775Y-36702880D01*
X272943287Y-36694601D01*
X269379981Y-36687146D01*
X265508913Y-36680473D01*
X261317137Y-36674539D01*
X256791711Y-36669300D01*
X251919690Y-36664713D01*
X246688130Y-36660735D01*
X241084087Y-36657323D01*
X235094617Y-36654433D01*
X228706776Y-36652023D01*
X221907619Y-36650050D01*
X214684203Y-36648469D01*
X207023584Y-36647239D01*
X198912817Y-36646316D01*
X190338959Y-36645656D01*
X181289065Y-36645217D01*
X171750191Y-36644956D01*
X161709393Y-36644828D01*
X151153728Y-36644792D01*
X150018750Y-36644792D01*
X139408453Y-36644821D01*
X129314378Y-36644937D01*
X119723583Y-36645182D01*
X110623121Y-36645600D01*
X102000050Y-36646235D01*
X93841426Y-36647129D01*
X86134303Y-36648325D01*
X78865739Y-36649867D01*
X72022788Y-36651797D01*
X65592508Y-36654159D01*
X59561953Y-36656997D01*
X53918180Y-36660352D01*
X48648244Y-36664269D01*
X43739203Y-36668790D01*
X39178110Y-36673959D01*
X34952024Y-36679818D01*
X31047998Y-36686412D01*
X27453090Y-36693783D01*
X24154355Y-36701973D01*
X21138849Y-36711028D01*
X18393628Y-36720988D01*
X15905748Y-36731899D01*
X13662264Y-36743802D01*
X11650234Y-36756741D01*
X9856712Y-36770759D01*
X8268755Y-36785900D01*
X6873418Y-36802206D01*
X5657758Y-36819720D01*
X4608830Y-36838487D01*
X3713690Y-36858548D01*
X2959395Y-36879947D01*
X2332999Y-36902727D01*
X1821560Y-36926932D01*
X1412132Y-36952604D01*
X1091772Y-36979787D01*
X847536Y-37008523D01*
X666480Y-37038857D01*
X535659Y-37070830D01*
X442130Y-37104487D01*
X372948Y-37139870D01*
X366591Y-37143675D01*
X-363773Y-37739914D01*
X-956326Y-38466592D01*
X-1014975Y-38575571D01*
X-1068895Y-38715297D01*
X-1118317Y-38907672D01*
X-1163471Y-39174596D01*
X-1204588Y-39537974D01*
X-1241900Y-40019708D01*
X-1275637Y-40641699D01*
X-1306030Y-41425850D01*
X-1333310Y-42394064D01*
X-1357708Y-43568242D01*
X-1379455Y-44970288D01*
X-1398782Y-46622103D01*
X-1415919Y-48545590D01*
X-1431098Y-50762652D01*
X-1444550Y-53295190D01*
X-1456505Y-56165107D01*
X-1467195Y-59394305D01*
X-1476850Y-63004687D01*
X-1485701Y-67018154D01*
X-1493979Y-71456611D01*
X-1501916Y-76341958D01*
X-1509741Y-81696097D01*
X-1517687Y-87540933D01*
X-1523918Y-92301792D01*
X-1531912Y-99524253D01*
X-1536512Y-106233814D01*
X-1537722Y-112429235D01*
X-2381250Y-112429235D01*
X-2381250Y-38707422D01*
X-1779642Y-37814695D01*
X-1128918Y-37044128D01*
X-352579Y-36367008D01*
X-285306Y-36320359D01*
X607421Y-35718751D01*
X299430078Y-35718751D01*
X300322805Y-36320359D01*
G37*
X300322805Y-36320359D02*
X301093372Y-36971083D01*
X301770492Y-37747422D01*
X301817141Y-37814695D01*
X302418749Y-38707422D01*
X302418750Y-92868751D01*
X302418750Y-147030079D01*
X301817141Y-147922806D01*
X301166417Y-148693373D01*
X300390078Y-149370493D01*
X300322805Y-149417142D01*
X299430078Y-150018751D01*
X150018750Y-150018751D01*
X607421Y-150018750D01*
X-285306Y-149417142D01*
X-1055873Y-148766418D01*
X-1732993Y-147990079D01*
X-1779642Y-147922806D01*
X-2381250Y-147030079D01*
X-2381250Y-112429235D01*
X-1537722Y-112429235D01*
X-1535547Y-118109273D01*
X-1529991Y-123272689D01*
X-1521059Y-127918242D01*
X-1508756Y-132044690D01*
X-1493085Y-135650793D01*
X-1474052Y-138735311D01*
X-1451662Y-141297001D01*
X-1425918Y-143334624D01*
X-1396825Y-144846938D01*
X-1364389Y-145832704D01*
X-1328613Y-146290678D01*
X-1324819Y-146307519D01*
X-781000Y-147456110D01*
X103047Y-148386993D01*
X1162966Y-148939444D01*
X1481125Y-148955302D01*
X2317081Y-148970617D01*
X3659466Y-148985372D01*
X5496912Y-148999554D01*
X7818051Y-149013146D01*
X10611512Y-149026135D01*
X13865929Y-149038505D01*
X17569932Y-149050241D01*
X21712152Y-149061328D01*
X26281222Y-149071752D01*
X31265772Y-149081498D01*
X36654435Y-149090549D01*
X42435840Y-149098893D01*
X48598621Y-149106513D01*
X55131408Y-149113395D01*
X62022832Y-149119524D01*
X69261526Y-149124884D01*
X76836120Y-149129462D01*
X84735246Y-149133241D01*
X92947536Y-149136208D01*
X101461620Y-149138347D01*
X110266130Y-149139643D01*
X119349698Y-149140081D01*
X128700955Y-149139647D01*
X138308533Y-149138325D01*
X148161062Y-149136101D01*
X150415625Y-149135473D01*
X161011506Y-149132391D01*
X171091181Y-149129370D01*
X180667613Y-149126364D01*
X189753762Y-149123324D01*
X198362590Y-149120205D01*
X206507057Y-149116959D01*
X214200126Y-149113539D01*
X221454758Y-149109898D01*
X228283913Y-149105989D01*
X234700554Y-149101765D01*
X240717641Y-149097179D01*
X246348136Y-149092184D01*
X251605000Y-149086733D01*
X256501194Y-149080779D01*
X261049680Y-149074274D01*
X265263420Y-149067172D01*
X269155374Y-149059426D01*
X272738503Y-149050989D01*
X276025770Y-149041813D01*
X279030135Y-149031852D01*
X281764560Y-149021058D01*
X284242006Y-149009385D01*
X286475434Y-148996785D01*
X288477806Y-148983212D01*
X290262083Y-148968619D01*
X291841226Y-148952957D01*
X293228197Y-148936181D01*
X294435956Y-148918244D01*
X295477466Y-148899097D01*
X296365688Y-148878695D01*
X297113582Y-148856991D01*
X297734111Y-148833936D01*
X298240235Y-148809484D01*
X298644916Y-148783589D01*
X298961115Y-148756202D01*
X299201794Y-148727278D01*
X299379913Y-148696769D01*
X299508435Y-148664627D01*
X299600320Y-148630807D01*
X299668529Y-148595260D01*
X299670908Y-148593826D01*
X300401272Y-147997587D01*
X300993825Y-147270909D01*
X301052157Y-147162845D01*
X301105759Y-147024860D01*
X301154831Y-146835172D01*
X301199573Y-146571994D01*
X301240185Y-146213543D01*
X301276865Y-145738034D01*
X301309815Y-145123681D01*
X301339234Y-144348701D01*
X301365321Y-143391308D01*
X301388277Y-142229717D01*
X301408300Y-140842145D01*
X301425592Y-139206806D01*
X301440352Y-137301916D01*
X301452778Y-135105689D01*
X301463072Y-132596341D01*
X301471434Y-129752088D01*
X301478061Y-126551145D01*
X301483156Y-122971726D01*
X301486917Y-118992048D01*
X301489543Y-114590325D01*
X301491236Y-109744773D01*
X301492195Y-104433607D01*
X301492618Y-98635042D01*
X301492708Y-92868750D01*
X301492599Y-86603935D01*
X301492138Y-80846502D01*
X301491127Y-75574666D01*
X301489364Y-70766642D01*
X301486651Y-66400646D01*
X301482788Y-62454894D01*
X301477574Y-58907599D01*
X301470811Y-55736978D01*
X301462297Y-52921246D01*
X301451834Y-50438618D01*
X301439222Y-48267310D01*
X301424261Y-46385536D01*
X301406751Y-44771512D01*
X301386492Y-43403454D01*
X301363285Y-42259576D01*
X301336930Y-41318093D01*
X301307227Y-40557222D01*
X301273976Y-39955177D01*
X301236978Y-39490174D01*
X301196033Y-39140428D01*
X301150940Y-38884154D01*
X301101501Y-38699567D01*
X301047515Y-38564883D01*
X300993825Y-38466592D01*
X300397586Y-37736228D01*
X299670908Y-37143675D01*
X299603526Y-37108109D01*
X299513152Y-37074273D01*
X299386840Y-37042126D01*
X299211648Y-37011622D01*
X298974630Y-36982721D01*
X298662843Y-36955377D01*
X298263344Y-36929549D01*
X297763187Y-36905193D01*
X297149428Y-36882266D01*
X296409124Y-36860724D01*
X295529331Y-36840525D01*
X294497104Y-36821625D01*
X293299499Y-36803981D01*
X291923573Y-36787551D01*
X290356380Y-36772290D01*
X288584978Y-36758157D01*
X286596422Y-36745107D01*
X284377768Y-36733097D01*
X281916071Y-36722085D01*
X279198388Y-36712027D01*
X276211775Y-36702880D01*
X272943287Y-36694601D01*
X269379981Y-36687146D01*
X265508913Y-36680473D01*
X261317137Y-36674539D01*
X256791711Y-36669300D01*
X251919690Y-36664713D01*
X246688130Y-36660735D01*
X241084087Y-36657323D01*
X235094617Y-36654433D01*
X228706776Y-36652023D01*
X221907619Y-36650050D01*
X214684203Y-36648469D01*
X207023584Y-36647239D01*
X198912817Y-36646316D01*
X190338959Y-36645656D01*
X181289065Y-36645217D01*
X171750191Y-36644956D01*
X161709393Y-36644828D01*
X151153728Y-36644792D01*
X150018750Y-36644792D01*
X139408453Y-36644821D01*
X129314378Y-36644937D01*
X119723583Y-36645182D01*
X110623121Y-36645600D01*
X102000050Y-36646235D01*
X93841426Y-36647129D01*
X86134303Y-36648325D01*
X78865739Y-36649867D01*
X72022788Y-36651797D01*
X65592508Y-36654159D01*
X59561953Y-36656997D01*
X53918180Y-36660352D01*
X48648244Y-36664269D01*
X43739203Y-36668790D01*
X39178110Y-36673959D01*
X34952024Y-36679818D01*
X31047998Y-36686412D01*
X27453090Y-36693783D01*
X24154355Y-36701973D01*
X21138849Y-36711028D01*
X18393628Y-36720988D01*
X15905748Y-36731899D01*
X13662264Y-36743802D01*
X11650234Y-36756741D01*
X9856712Y-36770759D01*
X8268755Y-36785900D01*
X6873418Y-36802206D01*
X5657758Y-36819720D01*
X4608830Y-36838487D01*
X3713690Y-36858548D01*
X2959395Y-36879947D01*
X2332999Y-36902727D01*
X1821560Y-36926932D01*
X1412132Y-36952604D01*
X1091772Y-36979787D01*
X847536Y-37008523D01*
X666480Y-37038857D01*
X535659Y-37070830D01*
X442130Y-37104487D01*
X372948Y-37139870D01*
X366591Y-37143675D01*
X-363773Y-37739914D01*
X-956326Y-38466592D01*
X-1014975Y-38575571D01*
X-1068895Y-38715297D01*
X-1118317Y-38907672D01*
X-1163471Y-39174596D01*
X-1204588Y-39537974D01*
X-1241900Y-40019708D01*
X-1275637Y-40641699D01*
X-1306030Y-41425850D01*
X-1333310Y-42394064D01*
X-1357708Y-43568242D01*
X-1379455Y-44970288D01*
X-1398782Y-46622103D01*
X-1415919Y-48545590D01*
X-1431098Y-50762652D01*
X-1444550Y-53295190D01*
X-1456505Y-56165107D01*
X-1467195Y-59394305D01*
X-1476850Y-63004687D01*
X-1485701Y-67018154D01*
X-1493979Y-71456611D01*
X-1501916Y-76341958D01*
X-1509741Y-81696097D01*
X-1517687Y-87540933D01*
X-1523918Y-92301792D01*
X-1531912Y-99524253D01*
X-1536512Y-106233814D01*
X-1537722Y-112429235D01*
X-2381250Y-112429235D01*
X-2381250Y-38707422D01*
X-1779642Y-37814695D01*
X-1128918Y-37044128D01*
X-352579Y-36367008D01*
X-285306Y-36320359D01*
X607421Y-35718751D01*
X299430078Y-35718751D01*
X300322805Y-36320359D01*
G36*
X20377446Y-128415256D02*
G01*
X20543076Y-128592893D01*
X20584584Y-128814472D01*
X20536827Y-128967745D01*
X20406244Y-129222027D01*
X20211868Y-129543055D01*
X20023667Y-129824277D01*
X19802701Y-130144901D01*
X19622731Y-130413075D01*
X19503047Y-130599565D01*
X19462750Y-130674225D01*
X19508681Y-130757482D01*
X19633339Y-130948955D01*
X19817018Y-131219075D01*
X20013084Y-131500130D01*
X20303218Y-131935725D01*
X20482597Y-132270695D01*
X20557738Y-132526566D01*
X20535159Y-132724862D01*
X20430369Y-132878286D01*
X20205046Y-132997245D01*
X19947381Y-132976028D01*
X19718529Y-132824405D01*
X19585506Y-132660232D01*
X19401367Y-132406387D01*
X19205034Y-132116610D01*
X19197286Y-132104738D01*
X19028701Y-131849775D01*
X18899384Y-131661318D01*
X18833360Y-131574223D01*
X18830073Y-131572000D01*
X18776183Y-131636320D01*
X18651815Y-131806556D01*
X18481745Y-132048622D01*
X18445451Y-132101167D01*
X18133693Y-132532404D01*
X17882106Y-132823422D01*
X17673165Y-132984455D01*
X17489342Y-133025738D01*
X17313109Y-132957506D01*
X17176750Y-132842000D01*
X17050837Y-132666181D01*
X17008241Y-132524500D01*
X17055034Y-132400148D01*
X17181801Y-132171380D01*
X17369148Y-131870891D01*
X17595665Y-131534264D01*
X17817984Y-131202340D01*
X17992721Y-130916673D01*
X18102683Y-130707223D01*
X18130677Y-130603949D01*
X18130145Y-130602931D01*
X18063754Y-130500092D01*
X17923629Y-130289572D01*
X17731363Y-130003643D01*
X17542722Y-129724912D01*
X17327939Y-129399767D01*
X17154257Y-129120341D01*
X17041221Y-128919178D01*
X17007417Y-128833584D01*
X17081627Y-128614684D01*
X17264054Y-128436236D01*
X17494389Y-128355232D01*
X17514170Y-128354667D01*
X17657039Y-128365235D01*
X17779994Y-128412713D01*
X17908214Y-128520760D01*
X18066879Y-128713035D01*
X18281169Y-129013197D01*
X18401586Y-129188500D01*
X18810535Y-129787017D01*
X19310227Y-129070842D01*
X19541581Y-128745757D01*
X19707547Y-128536894D01*
X19835726Y-128418955D01*
X19953718Y-128366646D01*
X20089123Y-128354669D01*
X20091634Y-128354667D01*
X20377446Y-128415256D01*
G37*
X20377446Y-128415256D02*
X20543076Y-128592893D01*
X20584584Y-128814472D01*
X20536827Y-128967745D01*
X20406244Y-129222027D01*
X20211868Y-129543055D01*
X20023667Y-129824277D01*
X19802701Y-130144901D01*
X19622731Y-130413075D01*
X19503047Y-130599565D01*
X19462750Y-130674225D01*
X19508681Y-130757482D01*
X19633339Y-130948955D01*
X19817018Y-131219075D01*
X20013084Y-131500130D01*
X20303218Y-131935725D01*
X20482597Y-132270695D01*
X20557738Y-132526566D01*
X20535159Y-132724862D01*
X20430369Y-132878286D01*
X20205046Y-132997245D01*
X19947381Y-132976028D01*
X19718529Y-132824405D01*
X19585506Y-132660232D01*
X19401367Y-132406387D01*
X19205034Y-132116610D01*
X19197286Y-132104738D01*
X19028701Y-131849775D01*
X18899384Y-131661318D01*
X18833360Y-131574223D01*
X18830073Y-131572000D01*
X18776183Y-131636320D01*
X18651815Y-131806556D01*
X18481745Y-132048622D01*
X18445451Y-132101167D01*
X18133693Y-132532404D01*
X17882106Y-132823422D01*
X17673165Y-132984455D01*
X17489342Y-133025738D01*
X17313109Y-132957506D01*
X17176750Y-132842000D01*
X17050837Y-132666181D01*
X17008241Y-132524500D01*
X17055034Y-132400148D01*
X17181801Y-132171380D01*
X17369148Y-131870891D01*
X17595665Y-131534264D01*
X17817984Y-131202340D01*
X17992721Y-130916673D01*
X18102683Y-130707223D01*
X18130677Y-130603949D01*
X18130145Y-130602931D01*
X18063754Y-130500092D01*
X17923629Y-130289572D01*
X17731363Y-130003643D01*
X17542722Y-129724912D01*
X17327939Y-129399767D01*
X17154257Y-129120341D01*
X17041221Y-128919178D01*
X17007417Y-128833584D01*
X17081627Y-128614684D01*
X17264054Y-128436236D01*
X17494389Y-128355232D01*
X17514170Y-128354667D01*
X17657039Y-128365235D01*
X17779994Y-128412713D01*
X17908214Y-128520760D01*
X18066879Y-128713035D01*
X18281169Y-129013197D01*
X18401586Y-129188500D01*
X18810535Y-129787017D01*
X19310227Y-129070842D01*
X19541581Y-128745757D01*
X19707547Y-128536894D01*
X19835726Y-128418955D01*
X19953718Y-128366646D01*
X20089123Y-128354669D01*
X20091634Y-128354667D01*
X20377446Y-128415256D01*
G36*
X13647894Y-128370555D02*
G01*
X13768162Y-128432281D01*
X13853310Y-128560934D01*
X13909171Y-128777605D01*
X13941576Y-129103384D01*
X13956356Y-129559361D01*
X13959417Y-130064416D01*
X13960855Y-130586638D01*
X13967256Y-130967816D01*
X13981751Y-131236227D01*
X14007474Y-131420151D01*
X14047554Y-131547867D01*
X14105124Y-131647652D01*
X14139869Y-131693905D01*
X14421735Y-131948460D01*
X14740078Y-132038380D01*
X15029683Y-131991395D01*
X15213356Y-131920243D01*
X15349889Y-131828990D01*
X15446211Y-131693469D01*
X15509254Y-131489511D01*
X15545949Y-131192945D01*
X15563225Y-130779605D01*
X15568013Y-130225319D01*
X15568084Y-130113828D01*
X15569524Y-129587691D01*
X15575751Y-129204052D01*
X15589621Y-128936083D01*
X15613992Y-128756961D01*
X15651720Y-128639860D01*
X15705664Y-128557953D01*
X15737417Y-128524000D01*
X15974531Y-128380033D01*
X16222274Y-128376898D01*
X16429742Y-128513256D01*
X16452283Y-128542839D01*
X16504159Y-128649136D01*
X16541012Y-128813610D01*
X16565042Y-129062144D01*
X16578447Y-129420621D01*
X16583429Y-129914924D01*
X16583611Y-130088006D01*
X16577937Y-130713307D01*
X16557762Y-131197619D01*
X16517622Y-131569048D01*
X16452055Y-131855698D01*
X16355595Y-132085671D01*
X16222779Y-132287073D01*
X16135691Y-132391939D01*
X15736924Y-132727726D01*
X15263032Y-132936144D01*
X14754584Y-133006745D01*
X14252152Y-132929078D01*
X14166816Y-132899059D01*
X13688496Y-132635604D01*
X13330004Y-132265966D01*
X13204684Y-132052678D01*
X13140883Y-131906181D01*
X13094463Y-131750514D01*
X13062718Y-131556575D01*
X13042939Y-131295263D01*
X13032421Y-130937478D01*
X13028455Y-130454118D01*
X13028084Y-130154316D01*
X13031044Y-129556861D01*
X13043479Y-129107769D01*
X13070719Y-128786121D01*
X13118095Y-128570998D01*
X13190938Y-128441480D01*
X13294579Y-128376647D01*
X13434347Y-128355581D01*
X13486676Y-128354667D01*
X13647894Y-128370555D01*
G37*
X13647894Y-128370555D02*
X13768162Y-128432281D01*
X13853310Y-128560934D01*
X13909171Y-128777605D01*
X13941576Y-129103384D01*
X13956356Y-129559361D01*
X13959417Y-130064416D01*
X13960855Y-130586638D01*
X13967256Y-130967816D01*
X13981751Y-131236227D01*
X14007474Y-131420151D01*
X14047554Y-131547867D01*
X14105124Y-131647652D01*
X14139869Y-131693905D01*
X14421735Y-131948460D01*
X14740078Y-132038380D01*
X15029683Y-131991395D01*
X15213356Y-131920243D01*
X15349889Y-131828990D01*
X15446211Y-131693469D01*
X15509254Y-131489511D01*
X15545949Y-131192945D01*
X15563225Y-130779605D01*
X15568013Y-130225319D01*
X15568084Y-130113828D01*
X15569524Y-129587691D01*
X15575751Y-129204052D01*
X15589621Y-128936083D01*
X15613992Y-128756961D01*
X15651720Y-128639860D01*
X15705664Y-128557953D01*
X15737417Y-128524000D01*
X15974531Y-128380033D01*
X16222274Y-128376898D01*
X16429742Y-128513256D01*
X16452283Y-128542839D01*
X16504159Y-128649136D01*
X16541012Y-128813610D01*
X16565042Y-129062144D01*
X16578447Y-129420621D01*
X16583429Y-129914924D01*
X16583611Y-130088006D01*
X16577937Y-130713307D01*
X16557762Y-131197619D01*
X16517622Y-131569048D01*
X16452055Y-131855698D01*
X16355595Y-132085671D01*
X16222779Y-132287073D01*
X16135691Y-132391939D01*
X15736924Y-132727726D01*
X15263032Y-132936144D01*
X14754584Y-133006745D01*
X14252152Y-132929078D01*
X14166816Y-132899059D01*
X13688496Y-132635604D01*
X13330004Y-132265966D01*
X13204684Y-132052678D01*
X13140883Y-131906181D01*
X13094463Y-131750514D01*
X13062718Y-131556575D01*
X13042939Y-131295263D01*
X13032421Y-130937478D01*
X13028455Y-130454118D01*
X13028084Y-130154316D01*
X13031044Y-129556861D01*
X13043479Y-129107769D01*
X13070719Y-128786121D01*
X13118095Y-128570998D01*
X13190938Y-128441480D01*
X13294579Y-128376647D01*
X13434347Y-128355581D01*
X13486676Y-128354667D01*
X13647894Y-128370555D01*
G36*
X19245367Y-134774347D02*
G01*
X19680886Y-134961617D01*
X20074108Y-135233821D01*
X20344014Y-135527199D01*
X20547047Y-135952102D01*
X20639105Y-136444408D01*
X20610748Y-136936004D01*
X20564152Y-137115441D01*
X20328469Y-137572685D01*
X19968562Y-137943370D01*
X19517221Y-138204341D01*
X19007239Y-138332442D01*
X18827750Y-138341615D01*
X18492771Y-138308374D01*
X18160672Y-138225055D01*
X18065024Y-138187432D01*
X17679225Y-137936515D01*
X17344500Y-137580766D01*
X17114678Y-137179545D01*
X17090459Y-137112744D01*
X17017383Y-136661497D01*
X17017888Y-136655651D01*
X18020359Y-136655651D01*
X18105438Y-136948615D01*
X18309286Y-137194082D01*
X18531417Y-137320213D01*
X18717278Y-137387878D01*
X18846902Y-137399663D01*
X19010428Y-137356006D01*
X19105863Y-137322998D01*
X19400533Y-137142444D01*
X19579812Y-136871881D01*
X19635659Y-136552258D01*
X19560032Y-136224523D01*
X19373997Y-135957554D01*
X19185019Y-135793066D01*
X19012772Y-135732456D01*
X18770132Y-135745857D01*
X18760296Y-135747165D01*
X18424016Y-135860946D01*
X18185020Y-136074898D01*
X18048677Y-136352106D01*
X18020359Y-136655651D01*
X17017888Y-136655651D01*
X17059820Y-136170552D01*
X17207243Y-135712927D01*
X17321031Y-135513617D01*
X17615962Y-135203234D01*
X18010258Y-134942840D01*
X18442039Y-134765657D01*
X18827750Y-134704667D01*
X19245367Y-134774347D01*
G37*
X19245367Y-134774347D02*
X19680886Y-134961617D01*
X20074108Y-135233821D01*
X20344014Y-135527199D01*
X20547047Y-135952102D01*
X20639105Y-136444408D01*
X20610748Y-136936004D01*
X20564152Y-137115441D01*
X20328469Y-137572685D01*
X19968562Y-137943370D01*
X19517221Y-138204341D01*
X19007239Y-138332442D01*
X18827750Y-138341615D01*
X18492771Y-138308374D01*
X18160672Y-138225055D01*
X18065024Y-138187432D01*
X17679225Y-137936515D01*
X17344500Y-137580766D01*
X17114678Y-137179545D01*
X17090459Y-137112744D01*
X17017383Y-136661497D01*
X17017888Y-136655651D01*
X18020359Y-136655651D01*
X18105438Y-136948615D01*
X18309286Y-137194082D01*
X18531417Y-137320213D01*
X18717278Y-137387878D01*
X18846902Y-137399663D01*
X19010428Y-137356006D01*
X19105863Y-137322998D01*
X19400533Y-137142444D01*
X19579812Y-136871881D01*
X19635659Y-136552258D01*
X19560032Y-136224523D01*
X19373997Y-135957554D01*
X19185019Y-135793066D01*
X19012772Y-135732456D01*
X18770132Y-135745857D01*
X18760296Y-135747165D01*
X18424016Y-135860946D01*
X18185020Y-136074898D01*
X18048677Y-136352106D01*
X18020359Y-136655651D01*
X17017888Y-136655651D01*
X17059820Y-136170552D01*
X17207243Y-135712927D01*
X17321031Y-135513617D01*
X17615962Y-135203234D01*
X18010258Y-134942840D01*
X18442039Y-134765657D01*
X18827750Y-134704667D01*
X19245367Y-134774347D01*
G36*
X14911319Y-133544655D02*
G01*
X15065650Y-133606979D01*
X15187456Y-133757548D01*
X15229709Y-133993811D01*
X15189205Y-134250320D01*
X15105110Y-134413318D01*
X15004300Y-134565725D01*
X15012499Y-134657461D01*
X15151062Y-134728093D01*
X15300421Y-134775237D01*
X15801529Y-135003629D01*
X16200864Y-135342621D01*
X16485464Y-135765198D01*
X16642367Y-136244346D01*
X16658610Y-136753051D01*
X16521233Y-137264298D01*
X16508492Y-137292990D01*
X16231426Y-137710046D01*
X15842371Y-138033086D01*
X15378775Y-138247673D01*
X14878087Y-138339371D01*
X14377755Y-138293745D01*
X14128750Y-138210349D01*
X13661035Y-137921272D01*
X13312713Y-137521013D01*
X13097303Y-137030542D01*
X13028084Y-136502924D01*
X13028126Y-136501433D01*
X14038465Y-136501433D01*
X14095200Y-136829733D01*
X14142580Y-136932733D01*
X14336955Y-137183650D01*
X14604149Y-137305232D01*
X14833763Y-137326641D01*
X15112706Y-137287239D01*
X15346083Y-137138239D01*
X15405263Y-137081846D01*
X15613085Y-136774773D01*
X15657042Y-136449154D01*
X15537133Y-136129129D01*
X15405263Y-135968154D01*
X15118121Y-135776095D01*
X14816343Y-135725724D01*
X14528710Y-135795058D01*
X14283999Y-135962110D01*
X14110991Y-136204897D01*
X14038465Y-136501433D01*
X13028126Y-136501433D01*
X13033851Y-136298420D01*
X13059906Y-136117369D01*
X13119376Y-135926415D01*
X13225390Y-135692204D01*
X13391076Y-135381379D01*
X13629563Y-134960586D01*
X13647296Y-134929680D01*
X13878349Y-134532582D01*
X14090828Y-134177324D01*
X14265546Y-133895281D01*
X14383313Y-133717829D01*
X14408468Y-133685129D01*
X14633123Y-133540407D01*
X14911319Y-133544655D01*
G37*
X14911319Y-133544655D02*
X15065650Y-133606979D01*
X15187456Y-133757548D01*
X15229709Y-133993811D01*
X15189205Y-134250320D01*
X15105110Y-134413318D01*
X15004300Y-134565725D01*
X15012499Y-134657461D01*
X15151062Y-134728093D01*
X15300421Y-134775237D01*
X15801529Y-135003629D01*
X16200864Y-135342621D01*
X16485464Y-135765198D01*
X16642367Y-136244346D01*
X16658610Y-136753051D01*
X16521233Y-137264298D01*
X16508492Y-137292990D01*
X16231426Y-137710046D01*
X15842371Y-138033086D01*
X15378775Y-138247673D01*
X14878087Y-138339371D01*
X14377755Y-138293745D01*
X14128750Y-138210349D01*
X13661035Y-137921272D01*
X13312713Y-137521013D01*
X13097303Y-137030542D01*
X13028084Y-136502924D01*
X13028126Y-136501433D01*
X14038465Y-136501433D01*
X14095200Y-136829733D01*
X14142580Y-136932733D01*
X14336955Y-137183650D01*
X14604149Y-137305232D01*
X14833763Y-137326641D01*
X15112706Y-137287239D01*
X15346083Y-137138239D01*
X15405263Y-137081846D01*
X15613085Y-136774773D01*
X15657042Y-136449154D01*
X15537133Y-136129129D01*
X15405263Y-135968154D01*
X15118121Y-135776095D01*
X14816343Y-135725724D01*
X14528710Y-135795058D01*
X14283999Y-135962110D01*
X14110991Y-136204897D01*
X14038465Y-136501433D01*
X13028126Y-136501433D01*
X13033851Y-136298420D01*
X13059906Y-136117369D01*
X13119376Y-135926415D01*
X13225390Y-135692204D01*
X13391076Y-135381379D01*
X13629563Y-134960586D01*
X13647296Y-134929680D01*
X13878349Y-134532582D01*
X14090828Y-134177324D01*
X14265546Y-133895281D01*
X14383313Y-133717829D01*
X14408468Y-133685129D01*
X14633123Y-133540407D01*
X14911319Y-133544655D01*
G36*
X22341417Y-139022667D02*
G01*
X10996084Y-139022667D01*
X10996084Y-128016000D01*
X11334750Y-128016000D01*
X11334750Y-138684000D01*
X22002750Y-138684000D01*
X22002750Y-128016000D01*
X11334750Y-128016000D01*
X10996084Y-128016000D01*
X10996084Y-127677334D01*
X22341417Y-127677334D01*
X22341417Y-139022667D01*
G37*
X22341417Y-139022667D02*
X10996084Y-139022667D01*
X10996084Y-128016000D01*
X11334750Y-128016000D01*
X11334750Y-138684000D01*
X22002750Y-138684000D01*
X22002750Y-128016000D01*
X11334750Y-128016000D01*
X10996084Y-128016000D01*
X10996084Y-127677334D01*
X22341417Y-127677334D01*
X22341417Y-139022667D01*
G04 #@! TD*
M02*
