G04 #@! TF.GenerationSoftware,KiCad,Pcbnew,5.1.7*
G04 #@! TF.CreationDate,2020-11-06T09:12:15-05:00*
G04 #@! TF.ProjectId,unix60plate,756e6978-3630-4706-9c61-74652e6b6963,rev?*
G04 #@! TF.SameCoordinates,Original*
G04 #@! TF.FileFunction,Profile,NP*
%FSLAX46Y46*%
G04 Gerber Fmt 4.6, Leading zero omitted, Abs format (unit mm)*
G04 Created by KiCad (PCBNEW 5.1.7) date 2020-11-06 09:12:15*
%MOMM*%
%LPD*%
G01*
G04 APERTURE LIST*
G04 #@! TA.AperFunction,Profile*
%ADD10C,0.188976*%
G04 #@! TD*
G04 #@! TA.AperFunction,Profile*
%ADD11C,0.050000*%
G04 #@! TD*
G04 APERTURE END LIST*
D10*
X223835547Y-123824219D02*
X237648047Y-123824219D01*
X237648047Y-123824219D02*
X237648047Y-137634766D01*
X237648047Y-137634766D02*
X223835547Y-137634766D01*
X223835547Y-137634766D02*
X223835547Y-123824219D01*
X223835547Y-123824219D02*
X223835547Y-123824219D01*
D11*
X150971350Y-145256250D02*
G75*
G03*
X150971350Y-145256250I-950000J0D01*
G01*
X200182950Y-40481250D02*
G75*
G03*
X200182950Y-40481250I-950000J0D01*
G01*
X101759650Y-40481250D02*
G75*
G03*
X101759650Y-40481250I-950000J0D01*
G01*
X298606250Y-40481250D02*
G75*
G03*
X298606250Y-40481250I-950000J0D01*
G01*
X298606250Y-145256250D02*
G75*
G03*
X298606250Y-145256250I-950000J0D01*
G01*
X3331250Y-145256250D02*
G75*
G03*
X3331250Y-145256250I-950000J0D01*
G01*
X3331250Y-40481250D02*
G75*
G03*
X3331250Y-40481250I-950000J0D01*
G01*
D10*
X9525000Y-47625000D02*
X23335547Y-47625000D01*
X23335547Y-47625000D02*
X23335547Y-61435547D01*
X23335547Y-61435547D02*
X9525000Y-61435547D01*
X9525000Y-61435547D02*
X9525000Y-47625000D01*
X9525000Y-47625000D02*
X9525000Y-47625000D01*
X203569922Y-124765625D02*
X210343360Y-124765625D01*
X210343360Y-124765625D02*
X210343360Y-128429688D01*
X210343360Y-128429688D02*
X210343360Y-131230469D01*
X210343360Y-131230469D02*
X210343360Y-138921875D01*
X210343360Y-138921875D02*
X203569922Y-138921875D01*
X203569922Y-138921875D02*
X203569922Y-133029297D01*
X203569922Y-133029297D02*
X203569922Y-128429688D01*
X203569922Y-128429688D02*
X203569922Y-124765625D01*
X203569922Y-124765625D02*
X203569922Y-124765625D01*
X89216407Y-124765625D02*
X96042578Y-124765625D01*
X96042578Y-124765625D02*
X96042578Y-128429688D01*
X96042578Y-128429688D02*
X96042578Y-133029297D01*
X96042578Y-133029297D02*
X96042578Y-138921875D01*
X96042578Y-138921875D02*
X94280860Y-138921875D01*
X94280860Y-138921875D02*
X90980078Y-138921875D01*
X90980078Y-138921875D02*
X89216407Y-138921875D01*
X89216407Y-138921875D02*
X89216407Y-131230469D01*
X89216407Y-131230469D02*
X89216407Y-128429688D01*
X89216407Y-128429688D02*
X89216407Y-124765625D01*
X89216407Y-124765625D02*
X89216407Y-124765625D01*
X238124610Y-47625000D02*
X251935157Y-47625000D01*
X251935157Y-47625000D02*
X251935157Y-61435547D01*
X251935157Y-61435547D02*
X238124610Y-61435547D01*
X238124610Y-61435547D02*
X238124610Y-47625000D01*
X238124610Y-47625000D02*
X238124610Y-47625000D01*
X219073828Y-47625000D02*
X232886328Y-47625000D01*
X232886328Y-47625000D02*
X232886328Y-61435547D01*
X232886328Y-61435547D02*
X219073828Y-61435547D01*
X219073828Y-61435547D02*
X219073828Y-47625000D01*
X219073828Y-47625000D02*
X219073828Y-47625000D01*
X200025000Y-47625000D02*
X213835547Y-47625000D01*
X213835547Y-47625000D02*
X213835547Y-61435547D01*
X213835547Y-61435547D02*
X200025000Y-61435547D01*
X200025000Y-61435547D02*
X200025000Y-47625000D01*
X200025000Y-47625000D02*
X200025000Y-47625000D01*
X180974219Y-47625000D02*
X194784766Y-47625000D01*
X194784766Y-47625000D02*
X194784766Y-61435547D01*
X194784766Y-61435547D02*
X180974219Y-61435547D01*
X180974219Y-61435547D02*
X180974219Y-47625000D01*
X180974219Y-47625000D02*
X180974219Y-47625000D01*
X161923438Y-47625000D02*
X175735938Y-47625000D01*
X175735938Y-47625000D02*
X175735938Y-61435547D01*
X175735938Y-61435547D02*
X161923438Y-61435547D01*
X161923438Y-61435547D02*
X161923438Y-47625000D01*
X161923438Y-47625000D02*
X161923438Y-47625000D01*
X142874610Y-47625000D02*
X156685157Y-47625000D01*
X156685157Y-47625000D02*
X156685157Y-61435547D01*
X156685157Y-61435547D02*
X142874610Y-61435547D01*
X142874610Y-61435547D02*
X142874610Y-47625000D01*
X142874610Y-47625000D02*
X142874610Y-47625000D01*
X38099219Y-66673828D02*
X51909766Y-66673828D01*
X51909766Y-66673828D02*
X51909766Y-80486328D01*
X51909766Y-80486328D02*
X38099219Y-80486328D01*
X38099219Y-80486328D02*
X38099219Y-66673828D01*
X38099219Y-66673828D02*
X38099219Y-66673828D01*
X14286718Y-66673828D02*
X28097266Y-66673828D01*
X28097266Y-66673828D02*
X28097266Y-80486328D01*
X28097266Y-80486328D02*
X14286718Y-80486328D01*
X14286718Y-80486328D02*
X14286718Y-66673828D01*
X14286718Y-66673828D02*
X14286718Y-66673828D01*
X257173438Y-47625000D02*
X290034766Y-47625000D01*
X290034766Y-47625000D02*
X290034766Y-61435547D01*
X290034766Y-61435547D02*
X287294532Y-61435547D01*
X287294532Y-61435547D02*
X287294532Y-62558594D01*
X287294532Y-62558594D02*
X283778907Y-62558594D01*
X283778907Y-62558594D02*
X283778907Y-61435547D01*
X283778907Y-61435547D02*
X263482032Y-61435547D01*
X263482032Y-61435547D02*
X263482032Y-62558594D01*
X263482032Y-62558594D02*
X259966407Y-62558594D01*
X259966407Y-62558594D02*
X259966407Y-61435547D01*
X259966407Y-61435547D02*
X257173438Y-61435547D01*
X257173438Y-61435547D02*
X257173438Y-47625000D01*
X257173438Y-47625000D02*
X257173438Y-47625000D01*
X100011328Y-85724610D02*
X113821875Y-85724610D01*
X113821875Y-85724610D02*
X113821875Y-99535157D01*
X113821875Y-99535157D02*
X100011328Y-99535157D01*
X100011328Y-99535157D02*
X100011328Y-85724610D01*
X100011328Y-85724610D02*
X100011328Y-85724610D01*
X80960547Y-85724610D02*
X94773047Y-85724610D01*
X94773047Y-85724610D02*
X94773047Y-99535157D01*
X94773047Y-99535157D02*
X80960547Y-99535157D01*
X80960547Y-99535157D02*
X80960547Y-85724610D01*
X80960547Y-85724610D02*
X80960547Y-85724610D01*
X247650000Y-66673828D02*
X261458594Y-66673828D01*
X261458594Y-66673828D02*
X261458594Y-80486328D01*
X261458594Y-80486328D02*
X247650000Y-80486328D01*
X247650000Y-80486328D02*
X247650000Y-66673828D01*
X247650000Y-66673828D02*
X247650000Y-66673828D01*
X228599219Y-66673828D02*
X242409766Y-66673828D01*
X242409766Y-66673828D02*
X242409766Y-80486328D01*
X242409766Y-80486328D02*
X228599219Y-80486328D01*
X228599219Y-80486328D02*
X228599219Y-66673828D01*
X228599219Y-66673828D02*
X228599219Y-66673828D01*
X209548438Y-66673828D02*
X223360938Y-66673828D01*
X223360938Y-66673828D02*
X223360938Y-80486328D01*
X223360938Y-80486328D02*
X209548438Y-80486328D01*
X209548438Y-80486328D02*
X209548438Y-66673828D01*
X209548438Y-66673828D02*
X209548438Y-66673828D01*
X190499610Y-66673828D02*
X204310157Y-66673828D01*
X204310157Y-66673828D02*
X204310157Y-80486328D01*
X204310157Y-80486328D02*
X190499610Y-80486328D01*
X190499610Y-80486328D02*
X190499610Y-66673828D01*
X190499610Y-66673828D02*
X190499610Y-66673828D01*
X171448828Y-66673828D02*
X185261328Y-66673828D01*
X185261328Y-66673828D02*
X185261328Y-80486328D01*
X185261328Y-80486328D02*
X171448828Y-80486328D01*
X171448828Y-80486328D02*
X171448828Y-66673828D01*
X171448828Y-66673828D02*
X171448828Y-66673828D01*
X152400000Y-66673828D02*
X166210547Y-66673828D01*
X166210547Y-66673828D02*
X166210547Y-80486328D01*
X166210547Y-80486328D02*
X152400000Y-80486328D01*
X152400000Y-80486328D02*
X152400000Y-66673828D01*
X152400000Y-66673828D02*
X152400000Y-66673828D01*
X76198828Y-66673828D02*
X90011328Y-66673828D01*
X90011328Y-66673828D02*
X90011328Y-80486328D01*
X90011328Y-80486328D02*
X76198828Y-80486328D01*
X76198828Y-80486328D02*
X76198828Y-66673828D01*
X76198828Y-66673828D02*
X76198828Y-66673828D01*
X57150000Y-66673828D02*
X70960547Y-66673828D01*
X70960547Y-66673828D02*
X70960547Y-80486328D01*
X70960547Y-80486328D02*
X57150000Y-80486328D01*
X57150000Y-80486328D02*
X57150000Y-66673828D01*
X57150000Y-66673828D02*
X57150000Y-66673828D01*
X142874610Y-123824219D02*
X156685157Y-123824219D01*
X156685157Y-123824219D02*
X156685157Y-128429688D01*
X156685157Y-128429688D02*
X156685157Y-133029297D01*
X156685157Y-133029297D02*
X156685157Y-137634766D01*
X156685157Y-137634766D02*
X142874610Y-137634766D01*
X142874610Y-137634766D02*
X142874610Y-133029297D01*
X142874610Y-133029297D02*
X142874610Y-128429688D01*
X142874610Y-128429688D02*
X142874610Y-123824219D01*
X142874610Y-123824219D02*
X142874610Y-123824219D01*
X247650000Y-123824219D02*
X261458594Y-123824219D01*
X261458594Y-123824219D02*
X261458594Y-137634766D01*
X261458594Y-137634766D02*
X247650000Y-137634766D01*
X247650000Y-137634766D02*
X247650000Y-123824219D01*
X247650000Y-123824219D02*
X247650000Y-123824219D01*
X250030860Y-104773438D02*
X273460547Y-104773438D01*
X273460547Y-104773438D02*
X276130469Y-104773438D01*
X276130469Y-104773438D02*
X290034766Y-104773438D01*
X290034766Y-104773438D02*
X290034766Y-118585938D01*
X290034766Y-118585938D02*
X279915625Y-118585938D01*
X279915625Y-118585938D02*
X279915625Y-119554688D01*
X279915625Y-119554688D02*
X276806250Y-119554688D01*
X276806250Y-119554688D02*
X276806250Y-118585938D01*
X276806250Y-118585938D02*
X273460547Y-118585938D01*
X273460547Y-118585938D02*
X256116797Y-118585938D01*
X256116797Y-118585938D02*
X256116797Y-119554688D01*
X256116797Y-119554688D02*
X253005469Y-119554688D01*
X253005469Y-119554688D02*
X253005469Y-118585938D01*
X253005469Y-118585938D02*
X250030860Y-118585938D01*
X250030860Y-118585938D02*
X250030860Y-104773438D01*
X250030860Y-104773438D02*
X250030860Y-104773438D01*
X11905860Y-104773438D02*
X47148047Y-104773438D01*
X47148047Y-104773438D02*
X47148047Y-118585938D01*
X47148047Y-118585938D02*
X41790625Y-118585938D01*
X41790625Y-118585938D02*
X41790625Y-119554688D01*
X41790625Y-119554688D02*
X38681250Y-119554688D01*
X38681250Y-119554688D02*
X38681250Y-118585938D01*
X38681250Y-118585938D02*
X17991797Y-118585938D01*
X17991797Y-118585938D02*
X17991797Y-119554688D01*
X17991797Y-119554688D02*
X14880468Y-119554688D01*
X14880468Y-119554688D02*
X14880468Y-118585938D01*
X14880468Y-118585938D02*
X11905860Y-118585938D01*
X11905860Y-118585938D02*
X11905860Y-104773438D01*
X11905860Y-104773438D02*
X11905860Y-104773438D01*
X223835547Y-104773438D02*
X237648047Y-104773438D01*
X237648047Y-104773438D02*
X237648047Y-118585938D01*
X237648047Y-118585938D02*
X223835547Y-118585938D01*
X223835547Y-118585938D02*
X223835547Y-104773438D01*
X223835547Y-104773438D02*
X223835547Y-104773438D01*
X61911719Y-85724610D02*
X75722266Y-85724610D01*
X75722266Y-85724610D02*
X75722266Y-99535157D01*
X75722266Y-99535157D02*
X61911719Y-99535157D01*
X61911719Y-99535157D02*
X61911719Y-85724610D01*
X61911719Y-85724610D02*
X61911719Y-85724610D01*
X42860938Y-85724610D02*
X56671485Y-85724610D01*
X56671485Y-85724610D02*
X56671485Y-99535157D01*
X56671485Y-99535157D02*
X42860938Y-99535157D01*
X42860938Y-99535157D02*
X42860938Y-85724610D01*
X42860938Y-85724610D02*
X42860938Y-85724610D01*
X11905860Y-85724610D02*
X30478125Y-85724610D01*
X30478125Y-85724610D02*
X30478125Y-99535157D01*
X30478125Y-99535157D02*
X11905860Y-99535157D01*
X11905860Y-99535157D02*
X11905860Y-85724610D01*
X11905860Y-85724610D02*
X11905860Y-85724610D01*
X133349219Y-66673828D02*
X147159766Y-66673828D01*
X147159766Y-66673828D02*
X147159766Y-80486328D01*
X147159766Y-80486328D02*
X133349219Y-80486328D01*
X133349219Y-80486328D02*
X133349219Y-66673828D01*
X133349219Y-66673828D02*
X133349219Y-66673828D01*
X114298438Y-66673828D02*
X128110938Y-66673828D01*
X128110938Y-66673828D02*
X128110938Y-80486328D01*
X128110938Y-80486328D02*
X114298438Y-80486328D01*
X114298438Y-80486328D02*
X114298438Y-66673828D01*
X114298438Y-66673828D02*
X114298438Y-66673828D01*
X95249610Y-66673828D02*
X109060157Y-66673828D01*
X109060157Y-66673828D02*
X109060157Y-80486328D01*
X109060157Y-80486328D02*
X95249610Y-80486328D01*
X95249610Y-80486328D02*
X95249610Y-66673828D01*
X95249610Y-66673828D02*
X95249610Y-66673828D01*
X166687110Y-104773438D02*
X180497657Y-104773438D01*
X180497657Y-104773438D02*
X180497657Y-118585938D01*
X180497657Y-118585938D02*
X166687110Y-118585938D01*
X166687110Y-118585938D02*
X166687110Y-104773438D01*
X166687110Y-104773438D02*
X166687110Y-104773438D01*
X147636328Y-104773438D02*
X161446875Y-104773438D01*
X161446875Y-104773438D02*
X161446875Y-118585938D01*
X161446875Y-118585938D02*
X147636328Y-118585938D01*
X147636328Y-118585938D02*
X147636328Y-104773438D01*
X147636328Y-104773438D02*
X147636328Y-104773438D01*
X128585547Y-104773438D02*
X142398047Y-104773438D01*
X142398047Y-104773438D02*
X142398047Y-118585938D01*
X142398047Y-118585938D02*
X128585547Y-118585938D01*
X128585547Y-118585938D02*
X128585547Y-104773438D01*
X128585547Y-104773438D02*
X128585547Y-104773438D01*
X214312110Y-85724610D02*
X228122657Y-85724610D01*
X228122657Y-85724610D02*
X228122657Y-99535157D01*
X228122657Y-99535157D02*
X214312110Y-99535157D01*
X214312110Y-99535157D02*
X214312110Y-85724610D01*
X214312110Y-85724610D02*
X214312110Y-85724610D01*
X195261328Y-85724610D02*
X209071875Y-85724610D01*
X209071875Y-85724610D02*
X209071875Y-99535157D01*
X209071875Y-99535157D02*
X195261328Y-99535157D01*
X195261328Y-99535157D02*
X195261328Y-85724610D01*
X195261328Y-85724610D02*
X195261328Y-85724610D01*
X176210547Y-85724610D02*
X190023047Y-85724610D01*
X190023047Y-85724610D02*
X190023047Y-99535157D01*
X190023047Y-99535157D02*
X176210547Y-99535157D01*
X176210547Y-99535157D02*
X176210547Y-85724610D01*
X176210547Y-85724610D02*
X176210547Y-85724610D01*
X204786719Y-104773438D02*
X218597266Y-104773438D01*
X218597266Y-104773438D02*
X218597266Y-118585938D01*
X218597266Y-118585938D02*
X204786719Y-118585938D01*
X204786719Y-118585938D02*
X204786719Y-104773438D01*
X204786719Y-104773438D02*
X204786719Y-104773438D01*
X185735938Y-104773438D02*
X199546485Y-104773438D01*
X199546485Y-104773438D02*
X199546485Y-118585938D01*
X199546485Y-118585938D02*
X185735938Y-118585938D01*
X185735938Y-118585938D02*
X185735938Y-104773438D01*
X185735938Y-104773438D02*
X185735938Y-104773438D01*
X109536719Y-104773438D02*
X123347266Y-104773438D01*
X123347266Y-104773438D02*
X123347266Y-118585938D01*
X123347266Y-118585938D02*
X109536719Y-118585938D01*
X109536719Y-118585938D02*
X109536719Y-104773438D01*
X109536719Y-104773438D02*
X109536719Y-104773438D01*
X90485938Y-104773438D02*
X104296485Y-104773438D01*
X104296485Y-104773438D02*
X104296485Y-118585938D01*
X104296485Y-118585938D02*
X90485938Y-118585938D01*
X90485938Y-118585938D02*
X90485938Y-104773438D01*
X90485938Y-104773438D02*
X90485938Y-104773438D01*
X71437110Y-104773438D02*
X85247657Y-104773438D01*
X85247657Y-104773438D02*
X85247657Y-118585938D01*
X85247657Y-118585938D02*
X71437110Y-118585938D01*
X71437110Y-118585938D02*
X71437110Y-104773438D01*
X71437110Y-104773438D02*
X71437110Y-104773438D01*
X66673438Y-47625000D02*
X80485938Y-47625000D01*
X80485938Y-47625000D02*
X80485938Y-61435547D01*
X80485938Y-61435547D02*
X66673438Y-61435547D01*
X66673438Y-61435547D02*
X66673438Y-47625000D01*
X66673438Y-47625000D02*
X66673438Y-47625000D01*
X28573828Y-47625000D02*
X42386328Y-47625000D01*
X42386328Y-47625000D02*
X42386328Y-61435547D01*
X42386328Y-61435547D02*
X28573828Y-61435547D01*
X28573828Y-61435547D02*
X28573828Y-47625000D01*
X28573828Y-47625000D02*
X28573828Y-47625000D01*
X157161719Y-85724610D02*
X170972266Y-85724610D01*
X170972266Y-85724610D02*
X170972266Y-99535157D01*
X170972266Y-99535157D02*
X157161719Y-99535157D01*
X157161719Y-99535157D02*
X157161719Y-85724610D01*
X157161719Y-85724610D02*
X157161719Y-85724610D01*
X138110938Y-85724610D02*
X151921485Y-85724610D01*
X151921485Y-85724610D02*
X151921485Y-99535157D01*
X151921485Y-99535157D02*
X138110938Y-99535157D01*
X138110938Y-99535157D02*
X138110938Y-85724610D01*
X138110938Y-85724610D02*
X138110938Y-85724610D01*
X119062110Y-85724610D02*
X132872657Y-85724610D01*
X132872657Y-85724610D02*
X132872657Y-99535157D01*
X132872657Y-99535157D02*
X119062110Y-99535157D01*
X119062110Y-99535157D02*
X119062110Y-85724610D01*
X119062110Y-85724610D02*
X119062110Y-85724610D01*
X61911719Y-123824219D02*
X75722266Y-123824219D01*
X75722266Y-123824219D02*
X75722266Y-137634766D01*
X75722266Y-137634766D02*
X61911719Y-137634766D01*
X61911719Y-137634766D02*
X61911719Y-123824219D01*
X61911719Y-123824219D02*
X61911719Y-123824219D01*
X38099219Y-123824219D02*
X51909766Y-123824219D01*
X51909766Y-123824219D02*
X51909766Y-137634766D01*
X51909766Y-137634766D02*
X38099219Y-137634766D01*
X38099219Y-137634766D02*
X38099219Y-123824219D01*
X38099219Y-123824219D02*
X38099219Y-123824219D01*
X123823828Y-47625000D02*
X137636328Y-47625000D01*
X137636328Y-47625000D02*
X137636328Y-61435547D01*
X137636328Y-61435547D02*
X123823828Y-61435547D01*
X123823828Y-61435547D02*
X123823828Y-47625000D01*
X123823828Y-47625000D02*
X123823828Y-47625000D01*
X104773047Y-47625000D02*
X118583594Y-47625000D01*
X118583594Y-47625000D02*
X118583594Y-61435547D01*
X118583594Y-61435547D02*
X104773047Y-61435547D01*
X104773047Y-61435547D02*
X104773047Y-47625000D01*
X104773047Y-47625000D02*
X104773047Y-47625000D01*
X85724219Y-47625000D02*
X99534766Y-47625000D01*
X99534766Y-47625000D02*
X99534766Y-61435547D01*
X99534766Y-61435547D02*
X85724219Y-61435547D01*
X85724219Y-61435547D02*
X85724219Y-47625000D01*
X85724219Y-47625000D02*
X85724219Y-47625000D01*
X52386328Y-104773438D02*
X66196875Y-104773438D01*
X66196875Y-104773438D02*
X66196875Y-118585938D01*
X66196875Y-118585938D02*
X52386328Y-118585938D01*
X52386328Y-118585938D02*
X52386328Y-104773438D01*
X52386328Y-104773438D02*
X52386328Y-104773438D01*
X271460547Y-66673828D02*
X287653907Y-66673828D01*
X287653907Y-66673828D02*
X287653907Y-67830078D01*
X287653907Y-67830078D02*
X287653907Y-76105469D01*
X287653907Y-76105469D02*
X287653907Y-90105469D01*
X287653907Y-90105469D02*
X287653907Y-99535157D01*
X287653907Y-99535157D02*
X284679297Y-99535157D01*
X284679297Y-99535157D02*
X284679297Y-100505860D01*
X284679297Y-100505860D02*
X281567969Y-100505860D01*
X281567969Y-100505860D02*
X281567969Y-99535157D01*
X281567969Y-99535157D02*
X279747657Y-99535157D01*
X279747657Y-99535157D02*
X278222266Y-99535157D01*
X278222266Y-99535157D02*
X260876563Y-99535157D01*
X260876563Y-99535157D02*
X260876563Y-100505860D01*
X260876563Y-100505860D02*
X257767188Y-100505860D01*
X257767188Y-100505860D02*
X257767188Y-99535157D01*
X257767188Y-99535157D02*
X252411719Y-99535157D01*
X252411719Y-99535157D02*
X252411719Y-85724610D01*
X252411719Y-85724610D02*
X273843360Y-85724610D01*
X273843360Y-85724610D02*
X273843360Y-80486328D01*
X273843360Y-80486328D02*
X271460547Y-80486328D01*
X271460547Y-80486328D02*
X271460547Y-66673828D01*
X271460547Y-66673828D02*
X271460547Y-66673828D01*
X233360938Y-85724610D02*
X247171485Y-85724610D01*
X247171485Y-85724610D02*
X247171485Y-99535157D01*
X247171485Y-99535157D02*
X233360938Y-99535157D01*
X233360938Y-99535157D02*
X233360938Y-85724610D01*
X233360938Y-85724610D02*
X233360938Y-85724610D01*
X47624610Y-47625000D02*
X61435157Y-47625000D01*
X61435157Y-47625000D02*
X61435157Y-61435547D01*
X61435157Y-61435547D02*
X47624610Y-61435547D01*
X47624610Y-61435547D02*
X47624610Y-47625000D01*
X47624610Y-47625000D02*
X47624610Y-47625000D01*
D11*
X-2381250Y-40481250D02*
G75*
G02*
X2381250Y-35718750I4762500J0D01*
G01*
X2381250Y-150018750D02*
G75*
G02*
X-2381250Y-145256250I0J4762500D01*
G01*
X302418750Y-145256250D02*
G75*
G02*
X297656250Y-150018750I-4762500J0D01*
G01*
X297656250Y-35718750D02*
G75*
G02*
X302418750Y-40481250I0J-4762500D01*
G01*
X2381250Y-35718750D02*
X297656250Y-35718750D01*
X-2381250Y-145256250D02*
X-2381250Y-40481250D01*
X297656250Y-150018750D02*
X2381250Y-150018750D01*
X302418750Y-40481250D02*
X302418750Y-145256250D01*
M02*
