G04 #@! TF.GenerationSoftware,KiCad,Pcbnew,5.1.10-88a1d61d58~90~ubuntu21.04.1*
G04 #@! TF.CreationDate,2021-09-17T14:10:14+02:00*
G04 #@! TF.ProjectId,unix60case,756e6978-3630-4636-9173-652e6b696361,rev?*
G04 #@! TF.SameCoordinates,Original*
G04 #@! TF.FileFunction,Soldermask,Top*
G04 #@! TF.FilePolarity,Negative*
%FSLAX46Y46*%
G04 Gerber Fmt 4.6, Leading zero omitted, Abs format (unit mm)*
G04 Created by KiCad (PCBNEW 5.1.10-88a1d61d58~90~ubuntu21.04.1) date 2021-09-17 14:10:14*
%MOMM*%
%LPD*%
G01*
G04 APERTURE LIST*
%ADD10C,1.000000*%
G04 #@! TA.AperFunction,Profile*
%ADD11C,0.150000*%
G04 #@! TD*
G04 #@! TA.AperFunction,Profile*
%ADD12C,0.200000*%
G04 #@! TD*
G04 #@! TA.AperFunction,Profile*
%ADD13C,0.050000*%
G04 #@! TD*
%ADD14C,0.010000*%
G04 APERTURE END LIST*
D10*
X64928750Y-174569500D02*
G75*
G02*
X60666250Y-170307000I0J4262500D01*
G01*
X360203750Y-61269500D02*
G75*
G02*
X364466250Y-65532000I0J-4262500D01*
G01*
X364466250Y-170307000D02*
G75*
G02*
X360203750Y-174569500I-4262500J0D01*
G01*
X60666250Y-65532000D02*
G75*
G02*
X64928750Y-61269500I4262500J0D01*
G01*
X364466250Y-65532000D02*
X364466250Y-170307000D01*
X360203750Y-174569500D02*
X64928750Y-174569500D01*
X60666250Y-170307000D02*
X60666250Y-65532000D01*
D11*
X64928750Y-60769500D02*
X360203750Y-60769500D01*
D12*
X336314500Y-90066500D02*
G75*
G03*
X336314500Y-90066500I-2150000J0D01*
G01*
X92314500Y-90066500D02*
G75*
G03*
X92314500Y-90066500I-2150000J0D01*
G01*
D11*
X60166250Y-170307000D02*
X60166250Y-65532000D01*
X360203750Y-175069500D02*
X64928750Y-175069500D01*
D10*
X64928750Y-61269500D02*
X360203750Y-61269500D01*
D13*
X213518850Y-170307000D02*
G75*
G03*
X213518850Y-170307000I-950000J0D01*
G01*
X65878750Y-65532000D02*
G75*
G03*
X65878750Y-65532000I-950000J0D01*
G01*
X65878750Y-170307000D02*
G75*
G03*
X65878750Y-170307000I-950000J0D01*
G01*
D11*
X364966250Y-170307000D02*
G75*
G02*
X360203750Y-175069500I-4762500J0D01*
G01*
X64928750Y-175069500D02*
G75*
G02*
X60166250Y-170307000I0J4762500D01*
G01*
X60166250Y-65532000D02*
G75*
G02*
X64928750Y-60769500I4762500J0D01*
G01*
D13*
X361153750Y-170307000D02*
G75*
G03*
X361153750Y-170307000I-950000J0D01*
G01*
X361153750Y-65532000D02*
G75*
G03*
X361153750Y-65532000I-950000J0D01*
G01*
X164307150Y-65532000D02*
G75*
G03*
X164307150Y-65532000I-950000J0D01*
G01*
D11*
X360203750Y-60769500D02*
G75*
G02*
X364966250Y-65532000I0J-4762500D01*
G01*
X364966250Y-65532000D02*
X364966250Y-170307000D01*
D13*
X262730450Y-65532000D02*
G75*
G03*
X262730450Y-65532000I-950000J0D01*
G01*
D14*
G36*
X169559201Y-96108240D02*
G01*
X172436620Y-96666000D01*
X175134143Y-97679465D01*
X177601681Y-99120141D01*
X179789147Y-100959534D01*
X181646453Y-103169152D01*
X182951428Y-105363788D01*
X183315687Y-106104305D01*
X183622111Y-106770653D01*
X183876143Y-107415439D01*
X184083231Y-108091275D01*
X184248818Y-108850768D01*
X184378352Y-109746528D01*
X184477277Y-110831165D01*
X184551039Y-112157288D01*
X184605084Y-113777505D01*
X184644857Y-115744427D01*
X184675804Y-118110662D01*
X184703371Y-120928820D01*
X184716646Y-122417416D01*
X184735677Y-124998528D01*
X184746510Y-127459327D01*
X184749399Y-129740651D01*
X184744598Y-131783338D01*
X184732361Y-133528228D01*
X184712942Y-134916157D01*
X184686594Y-135887964D01*
X184656806Y-136360835D01*
X184238698Y-137956820D01*
X183446361Y-139214813D01*
X182319106Y-140094742D01*
X180896241Y-140556533D01*
X180496493Y-140602136D01*
X179014424Y-140485793D01*
X177627753Y-139958987D01*
X176495615Y-139090842D01*
X176201531Y-138736496D01*
X176079158Y-138553410D01*
X175975982Y-138337676D01*
X175889834Y-138043938D01*
X175818545Y-137626840D01*
X175759945Y-137041025D01*
X175711866Y-136241137D01*
X175672139Y-135181821D01*
X175638594Y-133817720D01*
X175609063Y-132103478D01*
X175581375Y-129993738D01*
X175553363Y-127443146D01*
X175524583Y-124581287D01*
X175494497Y-121574214D01*
X175467059Y-119049083D01*
X175439894Y-116958693D01*
X175410628Y-115255842D01*
X175376884Y-113893331D01*
X175336290Y-112823958D01*
X175286469Y-112000522D01*
X175225048Y-111375823D01*
X175149651Y-110902659D01*
X175057904Y-110533829D01*
X174947432Y-110222132D01*
X174815861Y-109920368D01*
X174783426Y-109849708D01*
X173807789Y-108223887D01*
X172506133Y-106947283D01*
X170894374Y-105981295D01*
X168988631Y-105353430D01*
X166984233Y-105226715D01*
X164964778Y-105605511D01*
X164789945Y-105662914D01*
X163711962Y-106209546D01*
X162564669Y-107079869D01*
X161491647Y-108135095D01*
X160636474Y-109236435D01*
X160184864Y-110114291D01*
X160094372Y-110468802D01*
X160017163Y-111008035D01*
X159951848Y-111774246D01*
X159897041Y-112809692D01*
X159851353Y-114156629D01*
X159813397Y-115857314D01*
X159781786Y-117954002D01*
X159755132Y-120488950D01*
X159732048Y-123504414D01*
X159728781Y-124004916D01*
X159709660Y-126578957D01*
X159686564Y-129004762D01*
X159660365Y-131228299D01*
X159631936Y-133195540D01*
X159602149Y-134852453D01*
X159571878Y-136145008D01*
X159541994Y-137019175D01*
X159513371Y-137420924D01*
X159511982Y-137427668D01*
X159166775Y-138154156D01*
X158517398Y-138980025D01*
X157717945Y-139740055D01*
X156922507Y-140269029D01*
X156817944Y-140316202D01*
X155523275Y-140624069D01*
X154139519Y-140579696D01*
X153167291Y-140298657D01*
X152165395Y-139643650D01*
X151265609Y-138700477D01*
X150671722Y-137682890D01*
X150670582Y-137679879D01*
X150590610Y-137197363D01*
X150523271Y-136249416D01*
X150468305Y-134899616D01*
X150425454Y-133211541D01*
X150394460Y-131248771D01*
X150375064Y-129074882D01*
X150367008Y-126753454D01*
X150370033Y-124348065D01*
X150383881Y-121922293D01*
X150408293Y-119539716D01*
X150443011Y-117263914D01*
X150487776Y-115158464D01*
X150542330Y-113286945D01*
X150606413Y-111712935D01*
X150679769Y-110500012D01*
X150762138Y-109711755D01*
X150784808Y-109585124D01*
X151473100Y-107283330D01*
X152541428Y-104962483D01*
X153891791Y-102805109D01*
X155364872Y-101054879D01*
X157613413Y-99106730D01*
X160009869Y-97652311D01*
X162609906Y-96666641D01*
X165469195Y-96124738D01*
X166551972Y-96034677D01*
X169559201Y-96108240D01*
G37*
X169559201Y-96108240D02*
X172436620Y-96666000D01*
X175134143Y-97679465D01*
X177601681Y-99120141D01*
X179789147Y-100959534D01*
X181646453Y-103169152D01*
X182951428Y-105363788D01*
X183315687Y-106104305D01*
X183622111Y-106770653D01*
X183876143Y-107415439D01*
X184083231Y-108091275D01*
X184248818Y-108850768D01*
X184378352Y-109746528D01*
X184477277Y-110831165D01*
X184551039Y-112157288D01*
X184605084Y-113777505D01*
X184644857Y-115744427D01*
X184675804Y-118110662D01*
X184703371Y-120928820D01*
X184716646Y-122417416D01*
X184735677Y-124998528D01*
X184746510Y-127459327D01*
X184749399Y-129740651D01*
X184744598Y-131783338D01*
X184732361Y-133528228D01*
X184712942Y-134916157D01*
X184686594Y-135887964D01*
X184656806Y-136360835D01*
X184238698Y-137956820D01*
X183446361Y-139214813D01*
X182319106Y-140094742D01*
X180896241Y-140556533D01*
X180496493Y-140602136D01*
X179014424Y-140485793D01*
X177627753Y-139958987D01*
X176495615Y-139090842D01*
X176201531Y-138736496D01*
X176079158Y-138553410D01*
X175975982Y-138337676D01*
X175889834Y-138043938D01*
X175818545Y-137626840D01*
X175759945Y-137041025D01*
X175711866Y-136241137D01*
X175672139Y-135181821D01*
X175638594Y-133817720D01*
X175609063Y-132103478D01*
X175581375Y-129993738D01*
X175553363Y-127443146D01*
X175524583Y-124581287D01*
X175494497Y-121574214D01*
X175467059Y-119049083D01*
X175439894Y-116958693D01*
X175410628Y-115255842D01*
X175376884Y-113893331D01*
X175336290Y-112823958D01*
X175286469Y-112000522D01*
X175225048Y-111375823D01*
X175149651Y-110902659D01*
X175057904Y-110533829D01*
X174947432Y-110222132D01*
X174815861Y-109920368D01*
X174783426Y-109849708D01*
X173807789Y-108223887D01*
X172506133Y-106947283D01*
X170894374Y-105981295D01*
X168988631Y-105353430D01*
X166984233Y-105226715D01*
X164964778Y-105605511D01*
X164789945Y-105662914D01*
X163711962Y-106209546D01*
X162564669Y-107079869D01*
X161491647Y-108135095D01*
X160636474Y-109236435D01*
X160184864Y-110114291D01*
X160094372Y-110468802D01*
X160017163Y-111008035D01*
X159951848Y-111774246D01*
X159897041Y-112809692D01*
X159851353Y-114156629D01*
X159813397Y-115857314D01*
X159781786Y-117954002D01*
X159755132Y-120488950D01*
X159732048Y-123504414D01*
X159728781Y-124004916D01*
X159709660Y-126578957D01*
X159686564Y-129004762D01*
X159660365Y-131228299D01*
X159631936Y-133195540D01*
X159602149Y-134852453D01*
X159571878Y-136145008D01*
X159541994Y-137019175D01*
X159513371Y-137420924D01*
X159511982Y-137427668D01*
X159166775Y-138154156D01*
X158517398Y-138980025D01*
X157717945Y-139740055D01*
X156922507Y-140269029D01*
X156817944Y-140316202D01*
X155523275Y-140624069D01*
X154139519Y-140579696D01*
X153167291Y-140298657D01*
X152165395Y-139643650D01*
X151265609Y-138700477D01*
X150671722Y-137682890D01*
X150670582Y-137679879D01*
X150590610Y-137197363D01*
X150523271Y-136249416D01*
X150468305Y-134899616D01*
X150425454Y-133211541D01*
X150394460Y-131248771D01*
X150375064Y-129074882D01*
X150367008Y-126753454D01*
X150370033Y-124348065D01*
X150383881Y-121922293D01*
X150408293Y-119539716D01*
X150443011Y-117263914D01*
X150487776Y-115158464D01*
X150542330Y-113286945D01*
X150606413Y-111712935D01*
X150679769Y-110500012D01*
X150762138Y-109711755D01*
X150784808Y-109585124D01*
X151473100Y-107283330D01*
X152541428Y-104962483D01*
X153891791Y-102805109D01*
X155364872Y-101054879D01*
X157613413Y-99106730D01*
X160009869Y-97652311D01*
X162609906Y-96666641D01*
X165469195Y-96124738D01*
X166551972Y-96034677D01*
X169559201Y-96108240D01*
G36*
X194733880Y-95766809D02*
G01*
X196030916Y-96200912D01*
X197163772Y-97001872D01*
X198040153Y-98139440D01*
X198553493Y-99515397D01*
X198618029Y-100054930D01*
X198671576Y-101034680D01*
X198714257Y-102466435D01*
X198746197Y-104361986D01*
X198767520Y-106733122D01*
X198778349Y-109591630D01*
X198778809Y-112949301D01*
X198769024Y-116817924D01*
X198759585Y-119110125D01*
X198675625Y-137366375D01*
X198057286Y-138360903D01*
X197086706Y-139464660D01*
X195824371Y-140235778D01*
X194403999Y-140628279D01*
X192959308Y-140596186D01*
X192193333Y-140377140D01*
X191320696Y-139851233D01*
X190435570Y-139037674D01*
X189743419Y-138131007D01*
X189656170Y-137974826D01*
X189583226Y-137763132D01*
X189520076Y-137403690D01*
X189466065Y-136861704D01*
X189420537Y-136102376D01*
X189382834Y-135090908D01*
X189352301Y-133792502D01*
X189328282Y-132172361D01*
X189310120Y-130195688D01*
X189297159Y-127827684D01*
X189288742Y-125033553D01*
X189284214Y-121778496D01*
X189282916Y-118184083D01*
X189282490Y-114480209D01*
X189282978Y-111267940D01*
X189287032Y-108509718D01*
X189297303Y-106167983D01*
X189316444Y-104205177D01*
X189347105Y-102583741D01*
X189391938Y-101266116D01*
X189453594Y-100214744D01*
X189534724Y-99392065D01*
X189637981Y-98760521D01*
X189766015Y-98282554D01*
X189921479Y-97920604D01*
X190107023Y-97637112D01*
X190325299Y-97394521D01*
X190578958Y-97155270D01*
X190780649Y-96968103D01*
X192016451Y-96120157D01*
X193364959Y-95729808D01*
X194733880Y-95766809D01*
G37*
X194733880Y-95766809D02*
X196030916Y-96200912D01*
X197163772Y-97001872D01*
X198040153Y-98139440D01*
X198553493Y-99515397D01*
X198618029Y-100054930D01*
X198671576Y-101034680D01*
X198714257Y-102466435D01*
X198746197Y-104361986D01*
X198767520Y-106733122D01*
X198778349Y-109591630D01*
X198778809Y-112949301D01*
X198769024Y-116817924D01*
X198759585Y-119110125D01*
X198675625Y-137366375D01*
X198057286Y-138360903D01*
X197086706Y-139464660D01*
X195824371Y-140235778D01*
X194403999Y-140628279D01*
X192959308Y-140596186D01*
X192193333Y-140377140D01*
X191320696Y-139851233D01*
X190435570Y-139037674D01*
X189743419Y-138131007D01*
X189656170Y-137974826D01*
X189583226Y-137763132D01*
X189520076Y-137403690D01*
X189466065Y-136861704D01*
X189420537Y-136102376D01*
X189382834Y-135090908D01*
X189352301Y-133792502D01*
X189328282Y-132172361D01*
X189310120Y-130195688D01*
X189297159Y-127827684D01*
X189288742Y-125033553D01*
X189284214Y-121778496D01*
X189282916Y-118184083D01*
X189282490Y-114480209D01*
X189282978Y-111267940D01*
X189287032Y-108509718D01*
X189297303Y-106167983D01*
X189316444Y-104205177D01*
X189347105Y-102583741D01*
X189391938Y-101266116D01*
X189453594Y-100214744D01*
X189534724Y-99392065D01*
X189637981Y-98760521D01*
X189766015Y-98282554D01*
X189921479Y-97920604D01*
X190107023Y-97637112D01*
X190325299Y-97394521D01*
X190578958Y-97155270D01*
X190780649Y-96968103D01*
X192016451Y-96120157D01*
X193364959Y-95729808D01*
X194733880Y-95766809D01*
G36*
X209474434Y-95809067D02*
G01*
X210777243Y-96318717D01*
X211467544Y-96836603D01*
X211780232Y-97201020D01*
X212348833Y-97937446D01*
X213127331Y-98983314D01*
X214069709Y-100276058D01*
X215129951Y-101753110D01*
X216262040Y-103351904D01*
X216319455Y-103433562D01*
X217427619Y-104999979D01*
X218442136Y-106414590D01*
X219322267Y-107622144D01*
X220027274Y-108567387D01*
X220516419Y-109195064D01*
X220748963Y-109449923D01*
X220757470Y-109452833D01*
X220955426Y-109243622D01*
X221412532Y-108652511D01*
X222089063Y-107734282D01*
X222945293Y-106543717D01*
X223941497Y-105135596D01*
X225037949Y-103564703D01*
X225265662Y-103235974D01*
X226798861Y-101045917D01*
X228065972Y-99293666D01*
X229077320Y-97965794D01*
X229843230Y-97048874D01*
X230374028Y-96529478D01*
X230480778Y-96454163D01*
X231764184Y-95923298D01*
X233207110Y-95737998D01*
X234565261Y-95928505D01*
X234610130Y-95942968D01*
X235738377Y-96563831D01*
X236712687Y-97555606D01*
X237447702Y-98777174D01*
X237858059Y-100087416D01*
X237863085Y-101320830D01*
X237655646Y-101812591D01*
X237149117Y-102707499D01*
X236358174Y-103982591D01*
X235297491Y-105614904D01*
X233981741Y-107581474D01*
X232425599Y-109859339D01*
X232168291Y-110232327D01*
X226645129Y-118228949D01*
X232002356Y-125945578D01*
X233263725Y-127777342D01*
X234438097Y-129511190D01*
X235488143Y-131089836D01*
X236376530Y-132455992D01*
X237065929Y-133552373D01*
X237519010Y-134321692D01*
X237689613Y-134673114D01*
X237879777Y-135562842D01*
X237809477Y-136474597D01*
X237713718Y-136898958D01*
X237096003Y-138406100D01*
X236121584Y-139569269D01*
X234852885Y-140337784D01*
X233352332Y-140660963D01*
X233071458Y-140667958D01*
X232351779Y-140642216D01*
X231717873Y-140539471D01*
X231124319Y-140316165D01*
X230525698Y-139928735D01*
X229876590Y-139333620D01*
X229131576Y-138487260D01*
X228245237Y-137346095D01*
X227172152Y-135866563D01*
X225866902Y-134005103D01*
X225355336Y-133267610D01*
X224240497Y-131666851D01*
X223216340Y-130213398D01*
X222323053Y-128962931D01*
X221600827Y-127971127D01*
X221089852Y-127293665D01*
X220830316Y-126986223D01*
X220812640Y-126974199D01*
X220604352Y-127161167D01*
X220135705Y-127728823D01*
X219447620Y-128622832D01*
X218581017Y-129788854D01*
X217576815Y-131172553D01*
X216475937Y-132719590D01*
X216331884Y-132924141D01*
X215195731Y-134528541D01*
X214129161Y-136014347D01*
X213178159Y-137319080D01*
X212388712Y-138380266D01*
X211806804Y-139135427D01*
X211478422Y-139522088D01*
X211468479Y-139531562D01*
X210340835Y-140253570D01*
X208987097Y-140630896D01*
X207589987Y-140637655D01*
X206349131Y-140256841D01*
X205255953Y-139553947D01*
X204499614Y-138695596D01*
X204068026Y-137895541D01*
X203626545Y-136392113D01*
X203708935Y-134927563D01*
X203948494Y-134195552D01*
X204187163Y-133766946D01*
X204692133Y-132963344D01*
X205424998Y-131842379D01*
X206347348Y-130461687D01*
X207420774Y-128878900D01*
X208606869Y-127151652D01*
X209519894Y-125835385D01*
X210738357Y-124072304D01*
X211848159Y-122439600D01*
X212815327Y-120989355D01*
X213605884Y-119773655D01*
X214185856Y-118844583D01*
X214521269Y-118254225D01*
X214590906Y-118061355D01*
X214416640Y-117776606D01*
X213975398Y-117108527D01*
X213302046Y-116108425D01*
X212431447Y-114827608D01*
X211398466Y-113317383D01*
X210237967Y-111629057D01*
X209085652Y-109959707D01*
X203702708Y-102176791D01*
X203702708Y-100569969D01*
X203756430Y-99506270D01*
X203964488Y-98707061D01*
X204397218Y-97914373D01*
X204447811Y-97837219D01*
X205447591Y-96752837D01*
X206695016Y-96042462D01*
X208075494Y-95722427D01*
X209474434Y-95809067D01*
G37*
X209474434Y-95809067D02*
X210777243Y-96318717D01*
X211467544Y-96836603D01*
X211780232Y-97201020D01*
X212348833Y-97937446D01*
X213127331Y-98983314D01*
X214069709Y-100276058D01*
X215129951Y-101753110D01*
X216262040Y-103351904D01*
X216319455Y-103433562D01*
X217427619Y-104999979D01*
X218442136Y-106414590D01*
X219322267Y-107622144D01*
X220027274Y-108567387D01*
X220516419Y-109195064D01*
X220748963Y-109449923D01*
X220757470Y-109452833D01*
X220955426Y-109243622D01*
X221412532Y-108652511D01*
X222089063Y-107734282D01*
X222945293Y-106543717D01*
X223941497Y-105135596D01*
X225037949Y-103564703D01*
X225265662Y-103235974D01*
X226798861Y-101045917D01*
X228065972Y-99293666D01*
X229077320Y-97965794D01*
X229843230Y-97048874D01*
X230374028Y-96529478D01*
X230480778Y-96454163D01*
X231764184Y-95923298D01*
X233207110Y-95737998D01*
X234565261Y-95928505D01*
X234610130Y-95942968D01*
X235738377Y-96563831D01*
X236712687Y-97555606D01*
X237447702Y-98777174D01*
X237858059Y-100087416D01*
X237863085Y-101320830D01*
X237655646Y-101812591D01*
X237149117Y-102707499D01*
X236358174Y-103982591D01*
X235297491Y-105614904D01*
X233981741Y-107581474D01*
X232425599Y-109859339D01*
X232168291Y-110232327D01*
X226645129Y-118228949D01*
X232002356Y-125945578D01*
X233263725Y-127777342D01*
X234438097Y-129511190D01*
X235488143Y-131089836D01*
X236376530Y-132455992D01*
X237065929Y-133552373D01*
X237519010Y-134321692D01*
X237689613Y-134673114D01*
X237879777Y-135562842D01*
X237809477Y-136474597D01*
X237713718Y-136898958D01*
X237096003Y-138406100D01*
X236121584Y-139569269D01*
X234852885Y-140337784D01*
X233352332Y-140660963D01*
X233071458Y-140667958D01*
X232351779Y-140642216D01*
X231717873Y-140539471D01*
X231124319Y-140316165D01*
X230525698Y-139928735D01*
X229876590Y-139333620D01*
X229131576Y-138487260D01*
X228245237Y-137346095D01*
X227172152Y-135866563D01*
X225866902Y-134005103D01*
X225355336Y-133267610D01*
X224240497Y-131666851D01*
X223216340Y-130213398D01*
X222323053Y-128962931D01*
X221600827Y-127971127D01*
X221089852Y-127293665D01*
X220830316Y-126986223D01*
X220812640Y-126974199D01*
X220604352Y-127161167D01*
X220135705Y-127728823D01*
X219447620Y-128622832D01*
X218581017Y-129788854D01*
X217576815Y-131172553D01*
X216475937Y-132719590D01*
X216331884Y-132924141D01*
X215195731Y-134528541D01*
X214129161Y-136014347D01*
X213178159Y-137319080D01*
X212388712Y-138380266D01*
X211806804Y-139135427D01*
X211478422Y-139522088D01*
X211468479Y-139531562D01*
X210340835Y-140253570D01*
X208987097Y-140630896D01*
X207589987Y-140637655D01*
X206349131Y-140256841D01*
X205255953Y-139553947D01*
X204499614Y-138695596D01*
X204068026Y-137895541D01*
X203626545Y-136392113D01*
X203708935Y-134927563D01*
X203948494Y-134195552D01*
X204187163Y-133766946D01*
X204692133Y-132963344D01*
X205424998Y-131842379D01*
X206347348Y-130461687D01*
X207420774Y-128878900D01*
X208606869Y-127151652D01*
X209519894Y-125835385D01*
X210738357Y-124072304D01*
X211848159Y-122439600D01*
X212815327Y-120989355D01*
X213605884Y-119773655D01*
X214185856Y-118844583D01*
X214521269Y-118254225D01*
X214590906Y-118061355D01*
X214416640Y-117776606D01*
X213975398Y-117108527D01*
X213302046Y-116108425D01*
X212431447Y-114827608D01*
X211398466Y-113317383D01*
X210237967Y-111629057D01*
X209085652Y-109959707D01*
X203702708Y-102176791D01*
X203702708Y-100569969D01*
X203756430Y-99506270D01*
X203964488Y-98707061D01*
X204397218Y-97914373D01*
X204447811Y-97837219D01*
X205447591Y-96752837D01*
X206695016Y-96042462D01*
X208075494Y-95722427D01*
X209474434Y-95809067D01*
G36*
X259495680Y-95227142D02*
G01*
X260752179Y-95755947D01*
X260948174Y-95891722D01*
X261949472Y-96841796D01*
X262529517Y-97945163D01*
X262769067Y-99328965D01*
X262795966Y-100022620D01*
X262745557Y-100600853D01*
X262575215Y-101192873D01*
X262242316Y-101927886D01*
X261704236Y-102935100D01*
X261397145Y-103487683D01*
X260812227Y-104552811D01*
X260337613Y-105450327D01*
X260025497Y-106079273D01*
X259926666Y-106331954D01*
X260155270Y-106485761D01*
X260654270Y-106545556D01*
X261873774Y-106698472D01*
X263383269Y-107112946D01*
X265047285Y-107735896D01*
X266730349Y-108514243D01*
X268296989Y-109394903D01*
X268850945Y-109757222D01*
X271015813Y-111557152D01*
X272843490Y-113725107D01*
X274295142Y-116192075D01*
X275331935Y-118889045D01*
X275915035Y-121747004D01*
X275981605Y-122429038D01*
X275936547Y-125168302D01*
X275407125Y-127884694D01*
X274435724Y-130504824D01*
X273064729Y-132955298D01*
X271336527Y-135162727D01*
X269293502Y-137053718D01*
X266978040Y-138554879D01*
X266541250Y-138775292D01*
X263629303Y-139907767D01*
X260664691Y-140513777D01*
X257645942Y-140593537D01*
X255730797Y-140376201D01*
X253575207Y-139807589D01*
X251352802Y-138848040D01*
X249222241Y-137585345D01*
X247342184Y-136107292D01*
X246506779Y-135272360D01*
X244658749Y-132897830D01*
X243307440Y-130370506D01*
X242433506Y-127643373D01*
X242017599Y-124669413D01*
X241998594Y-124316759D01*
X241992781Y-123497766D01*
X251101975Y-123497766D01*
X251139317Y-124592378D01*
X251316102Y-125497862D01*
X251694438Y-126472300D01*
X251943645Y-126995259D01*
X253044622Y-128680620D01*
X254456923Y-129979572D01*
X256106169Y-130865952D01*
X257917979Y-131313596D01*
X259817973Y-131296340D01*
X261731771Y-130788021D01*
X262175625Y-130594408D01*
X263800529Y-129561205D01*
X265118406Y-128181938D01*
X266075216Y-126550830D01*
X266616922Y-124762104D01*
X266689485Y-122909981D01*
X266672414Y-122753693D01*
X266182305Y-120742422D01*
X265254873Y-118984043D01*
X263933200Y-117534732D01*
X262260370Y-116450668D01*
X261630823Y-116179674D01*
X260269662Y-115863922D01*
X258681408Y-115806717D01*
X257072245Y-115992478D01*
X255648361Y-116405622D01*
X255103406Y-116672966D01*
X253445334Y-117928217D01*
X252207916Y-119483380D01*
X251418861Y-121291191D01*
X251105880Y-123304389D01*
X251101975Y-123497766D01*
X241992781Y-123497766D01*
X241982726Y-122081480D01*
X242182626Y-120160106D01*
X242632634Y-118369452D01*
X243367092Y-116526328D01*
X243520269Y-116199708D01*
X243999167Y-115249667D01*
X244672072Y-113989901D01*
X245504726Y-112478710D01*
X246462868Y-110774396D01*
X247512240Y-108935259D01*
X248618581Y-107019601D01*
X249747632Y-105085723D01*
X250865134Y-103191926D01*
X251936825Y-101396510D01*
X252928448Y-99757778D01*
X253805742Y-98334029D01*
X254534448Y-97183566D01*
X255080306Y-96364689D01*
X255409056Y-95935699D01*
X255449801Y-95898720D01*
X256668284Y-95298753D01*
X258075646Y-95074819D01*
X259495680Y-95227142D01*
G37*
X259495680Y-95227142D02*
X260752179Y-95755947D01*
X260948174Y-95891722D01*
X261949472Y-96841796D01*
X262529517Y-97945163D01*
X262769067Y-99328965D01*
X262795966Y-100022620D01*
X262745557Y-100600853D01*
X262575215Y-101192873D01*
X262242316Y-101927886D01*
X261704236Y-102935100D01*
X261397145Y-103487683D01*
X260812227Y-104552811D01*
X260337613Y-105450327D01*
X260025497Y-106079273D01*
X259926666Y-106331954D01*
X260155270Y-106485761D01*
X260654270Y-106545556D01*
X261873774Y-106698472D01*
X263383269Y-107112946D01*
X265047285Y-107735896D01*
X266730349Y-108514243D01*
X268296989Y-109394903D01*
X268850945Y-109757222D01*
X271015813Y-111557152D01*
X272843490Y-113725107D01*
X274295142Y-116192075D01*
X275331935Y-118889045D01*
X275915035Y-121747004D01*
X275981605Y-122429038D01*
X275936547Y-125168302D01*
X275407125Y-127884694D01*
X274435724Y-130504824D01*
X273064729Y-132955298D01*
X271336527Y-135162727D01*
X269293502Y-137053718D01*
X266978040Y-138554879D01*
X266541250Y-138775292D01*
X263629303Y-139907767D01*
X260664691Y-140513777D01*
X257645942Y-140593537D01*
X255730797Y-140376201D01*
X253575207Y-139807589D01*
X251352802Y-138848040D01*
X249222241Y-137585345D01*
X247342184Y-136107292D01*
X246506779Y-135272360D01*
X244658749Y-132897830D01*
X243307440Y-130370506D01*
X242433506Y-127643373D01*
X242017599Y-124669413D01*
X241998594Y-124316759D01*
X241992781Y-123497766D01*
X251101975Y-123497766D01*
X251139317Y-124592378D01*
X251316102Y-125497862D01*
X251694438Y-126472300D01*
X251943645Y-126995259D01*
X253044622Y-128680620D01*
X254456923Y-129979572D01*
X256106169Y-130865952D01*
X257917979Y-131313596D01*
X259817973Y-131296340D01*
X261731771Y-130788021D01*
X262175625Y-130594408D01*
X263800529Y-129561205D01*
X265118406Y-128181938D01*
X266075216Y-126550830D01*
X266616922Y-124762104D01*
X266689485Y-122909981D01*
X266672414Y-122753693D01*
X266182305Y-120742422D01*
X265254873Y-118984043D01*
X263933200Y-117534732D01*
X262260370Y-116450668D01*
X261630823Y-116179674D01*
X260269662Y-115863922D01*
X258681408Y-115806717D01*
X257072245Y-115992478D01*
X255648361Y-116405622D01*
X255103406Y-116672966D01*
X253445334Y-117928217D01*
X252207916Y-119483380D01*
X251418861Y-121291191D01*
X251105880Y-123304389D01*
X251101975Y-123497766D01*
X241992781Y-123497766D01*
X241982726Y-122081480D01*
X242182626Y-120160106D01*
X242632634Y-118369452D01*
X243367092Y-116526328D01*
X243520269Y-116199708D01*
X243999167Y-115249667D01*
X244672072Y-113989901D01*
X245504726Y-112478710D01*
X246462868Y-110774396D01*
X247512240Y-108935259D01*
X248618581Y-107019601D01*
X249747632Y-105085723D01*
X250865134Y-103191926D01*
X251936825Y-101396510D01*
X252928448Y-99757778D01*
X253805742Y-98334029D01*
X254534448Y-97183566D01*
X255080306Y-96364689D01*
X255409056Y-95935699D01*
X255449801Y-95898720D01*
X256668284Y-95298753D01*
X258075646Y-95074819D01*
X259495680Y-95227142D01*
G36*
X299519500Y-106888107D02*
G01*
X302247619Y-107704974D01*
X304834866Y-109002665D01*
X307233275Y-110773969D01*
X308084933Y-111569499D01*
X310089496Y-113902955D01*
X311602844Y-116423838D01*
X312620243Y-119121146D01*
X313136962Y-121983876D01*
X313206095Y-123475749D01*
X313138893Y-125490000D01*
X312888266Y-127228504D01*
X312405398Y-128903451D01*
X311641470Y-130727030D01*
X311440796Y-131148666D01*
X310207980Y-133217988D01*
X308597006Y-135197311D01*
X306731775Y-136961362D01*
X304736186Y-138384867D01*
X303760295Y-138914319D01*
X301004273Y-139963201D01*
X298090958Y-140545676D01*
X295127445Y-140648914D01*
X292328037Y-140283809D01*
X290046648Y-139578142D01*
X287772433Y-138493825D01*
X285649651Y-137118992D01*
X283822560Y-135541779D01*
X282937362Y-134546518D01*
X281243684Y-132002433D01*
X280050652Y-129287210D01*
X279356703Y-126396379D01*
X279171937Y-123929714D01*
X288359028Y-123929714D01*
X288664202Y-125756099D01*
X289376152Y-127469215D01*
X290458395Y-128992533D01*
X291874448Y-130249520D01*
X293587830Y-131163645D01*
X294454791Y-131445042D01*
X295667795Y-131585360D01*
X297103703Y-131485724D01*
X298530502Y-131176487D01*
X299549016Y-130778603D01*
X301217117Y-129652474D01*
X302519159Y-128212409D01*
X303427167Y-126538661D01*
X303913164Y-124711485D01*
X303949175Y-122811135D01*
X303507223Y-120917864D01*
X303221258Y-120244153D01*
X302165311Y-118589520D01*
X300822125Y-117320362D01*
X299266990Y-116436684D01*
X297575200Y-115938492D01*
X295822046Y-115825789D01*
X294082821Y-116098581D01*
X292432816Y-116756873D01*
X290947324Y-117800668D01*
X289701636Y-119229972D01*
X289114934Y-120243268D01*
X288497111Y-122066593D01*
X288359028Y-123929714D01*
X279171937Y-123929714D01*
X279157751Y-123740333D01*
X279222904Y-121727131D01*
X279469619Y-119987792D01*
X279946078Y-118309210D01*
X280700462Y-116478280D01*
X280892559Y-116067416D01*
X282091648Y-114039794D01*
X283684997Y-112082937D01*
X285541626Y-110331957D01*
X287530554Y-108921969D01*
X288157580Y-108573124D01*
X290969548Y-107394572D01*
X293832500Y-106725694D01*
X296698472Y-106559276D01*
X299519500Y-106888107D01*
G37*
X299519500Y-106888107D02*
X302247619Y-107704974D01*
X304834866Y-109002665D01*
X307233275Y-110773969D01*
X308084933Y-111569499D01*
X310089496Y-113902955D01*
X311602844Y-116423838D01*
X312620243Y-119121146D01*
X313136962Y-121983876D01*
X313206095Y-123475749D01*
X313138893Y-125490000D01*
X312888266Y-127228504D01*
X312405398Y-128903451D01*
X311641470Y-130727030D01*
X311440796Y-131148666D01*
X310207980Y-133217988D01*
X308597006Y-135197311D01*
X306731775Y-136961362D01*
X304736186Y-138384867D01*
X303760295Y-138914319D01*
X301004273Y-139963201D01*
X298090958Y-140545676D01*
X295127445Y-140648914D01*
X292328037Y-140283809D01*
X290046648Y-139578142D01*
X287772433Y-138493825D01*
X285649651Y-137118992D01*
X283822560Y-135541779D01*
X282937362Y-134546518D01*
X281243684Y-132002433D01*
X280050652Y-129287210D01*
X279356703Y-126396379D01*
X279171937Y-123929714D01*
X288359028Y-123929714D01*
X288664202Y-125756099D01*
X289376152Y-127469215D01*
X290458395Y-128992533D01*
X291874448Y-130249520D01*
X293587830Y-131163645D01*
X294454791Y-131445042D01*
X295667795Y-131585360D01*
X297103703Y-131485724D01*
X298530502Y-131176487D01*
X299549016Y-130778603D01*
X301217117Y-129652474D01*
X302519159Y-128212409D01*
X303427167Y-126538661D01*
X303913164Y-124711485D01*
X303949175Y-122811135D01*
X303507223Y-120917864D01*
X303221258Y-120244153D01*
X302165311Y-118589520D01*
X300822125Y-117320362D01*
X299266990Y-116436684D01*
X297575200Y-115938492D01*
X295822046Y-115825789D01*
X294082821Y-116098581D01*
X292432816Y-116756873D01*
X290947324Y-117800668D01*
X289701636Y-119229972D01*
X289114934Y-120243268D01*
X288497111Y-122066593D01*
X288359028Y-123929714D01*
X279171937Y-123929714D01*
X279157751Y-123740333D01*
X279222904Y-121727131D01*
X279469619Y-119987792D01*
X279946078Y-118309210D01*
X280700462Y-116478280D01*
X280892559Y-116067416D01*
X282091648Y-114039794D01*
X283684997Y-112082937D01*
X285541626Y-110331957D01*
X287530554Y-108921969D01*
X288157580Y-108573124D01*
X290969548Y-107394572D01*
X293832500Y-106725694D01*
X296698472Y-106559276D01*
X299519500Y-106888107D01*
G36*
X142709196Y-95890549D02*
G01*
X143986537Y-96451269D01*
X144904457Y-97258053D01*
X145183527Y-97606928D01*
X145418947Y-97966019D01*
X145614039Y-98380756D01*
X145772123Y-98896568D01*
X145896521Y-99558886D01*
X145990556Y-100413139D01*
X146057548Y-101504755D01*
X146100818Y-102879166D01*
X146123689Y-104581799D01*
X146129481Y-106658086D01*
X146121517Y-109153455D01*
X146103117Y-112113335D01*
X146093013Y-113514529D01*
X146069174Y-116549962D01*
X146044874Y-119103971D01*
X146018260Y-121224297D01*
X145987475Y-122958679D01*
X145950667Y-124354859D01*
X145905978Y-125460578D01*
X145851555Y-126323575D01*
X145785542Y-126991592D01*
X145706085Y-127512368D01*
X145611329Y-127933646D01*
X145520939Y-128238249D01*
X144368100Y-130991756D01*
X142810067Y-133485831D01*
X140897073Y-135660810D01*
X138679348Y-137457027D01*
X136878387Y-138503942D01*
X134024414Y-139628730D01*
X131054644Y-140260124D01*
X128039760Y-140389147D01*
X125050443Y-140006821D01*
X125048655Y-140006433D01*
X122422427Y-139173046D01*
X119943614Y-137873874D01*
X117683677Y-136166818D01*
X115714078Y-134109780D01*
X114106275Y-131760661D01*
X113551180Y-130690497D01*
X113202165Y-129947881D01*
X112907134Y-129286408D01*
X112661234Y-128655338D01*
X112459609Y-128003931D01*
X112297407Y-127281447D01*
X112169771Y-126437146D01*
X112071849Y-125420286D01*
X111998786Y-124180129D01*
X111945727Y-122665933D01*
X111907820Y-120826958D01*
X111880208Y-118612464D01*
X111858039Y-115971711D01*
X111836458Y-112853958D01*
X111835820Y-112760125D01*
X111814045Y-109623131D01*
X111798350Y-106970043D01*
X111793976Y-104755601D01*
X111806165Y-102934543D01*
X111840159Y-101461611D01*
X111901199Y-100291542D01*
X111994528Y-99379077D01*
X112125386Y-98678956D01*
X112299015Y-98145919D01*
X112520657Y-97734704D01*
X112795554Y-97400051D01*
X113128948Y-97096701D01*
X113526079Y-96779393D01*
X113702788Y-96639354D01*
X114358358Y-96172721D01*
X114971881Y-95927616D01*
X115765952Y-95836174D01*
X116368007Y-95826791D01*
X117904191Y-96007102D01*
X119150280Y-96585362D01*
X120211574Y-97617568D01*
X120515109Y-98032045D01*
X121152708Y-98962101D01*
X121285000Y-112475696D01*
X121315052Y-115496388D01*
X121342550Y-118034208D01*
X121369766Y-120135430D01*
X121398968Y-121846327D01*
X121432426Y-123213172D01*
X121472412Y-124282239D01*
X121521195Y-125099800D01*
X121581044Y-125712129D01*
X121654231Y-126165500D01*
X121743026Y-126506184D01*
X121849697Y-126780456D01*
X121976516Y-127034589D01*
X122001542Y-127081548D01*
X123115751Y-128642134D01*
X124542551Y-129839973D01*
X126195267Y-130659597D01*
X127987225Y-131085539D01*
X129831748Y-131102332D01*
X131642163Y-130694509D01*
X133331794Y-129846603D01*
X134115138Y-129243203D01*
X134943075Y-128382447D01*
X135715618Y-127365347D01*
X136048044Y-126815677D01*
X136763125Y-125460124D01*
X136895416Y-111966375D01*
X137027708Y-98472624D01*
X137662991Y-97581897D01*
X138675744Y-96579629D01*
X139934137Y-95960080D01*
X141318509Y-95728603D01*
X142709196Y-95890549D01*
G37*
X142709196Y-95890549D02*
X143986537Y-96451269D01*
X144904457Y-97258053D01*
X145183527Y-97606928D01*
X145418947Y-97966019D01*
X145614039Y-98380756D01*
X145772123Y-98896568D01*
X145896521Y-99558886D01*
X145990556Y-100413139D01*
X146057548Y-101504755D01*
X146100818Y-102879166D01*
X146123689Y-104581799D01*
X146129481Y-106658086D01*
X146121517Y-109153455D01*
X146103117Y-112113335D01*
X146093013Y-113514529D01*
X146069174Y-116549962D01*
X146044874Y-119103971D01*
X146018260Y-121224297D01*
X145987475Y-122958679D01*
X145950667Y-124354859D01*
X145905978Y-125460578D01*
X145851555Y-126323575D01*
X145785542Y-126991592D01*
X145706085Y-127512368D01*
X145611329Y-127933646D01*
X145520939Y-128238249D01*
X144368100Y-130991756D01*
X142810067Y-133485831D01*
X140897073Y-135660810D01*
X138679348Y-137457027D01*
X136878387Y-138503942D01*
X134024414Y-139628730D01*
X131054644Y-140260124D01*
X128039760Y-140389147D01*
X125050443Y-140006821D01*
X125048655Y-140006433D01*
X122422427Y-139173046D01*
X119943614Y-137873874D01*
X117683677Y-136166818D01*
X115714078Y-134109780D01*
X114106275Y-131760661D01*
X113551180Y-130690497D01*
X113202165Y-129947881D01*
X112907134Y-129286408D01*
X112661234Y-128655338D01*
X112459609Y-128003931D01*
X112297407Y-127281447D01*
X112169771Y-126437146D01*
X112071849Y-125420286D01*
X111998786Y-124180129D01*
X111945727Y-122665933D01*
X111907820Y-120826958D01*
X111880208Y-118612464D01*
X111858039Y-115971711D01*
X111836458Y-112853958D01*
X111835820Y-112760125D01*
X111814045Y-109623131D01*
X111798350Y-106970043D01*
X111793976Y-104755601D01*
X111806165Y-102934543D01*
X111840159Y-101461611D01*
X111901199Y-100291542D01*
X111994528Y-99379077D01*
X112125386Y-98678956D01*
X112299015Y-98145919D01*
X112520657Y-97734704D01*
X112795554Y-97400051D01*
X113128948Y-97096701D01*
X113526079Y-96779393D01*
X113702788Y-96639354D01*
X114358358Y-96172721D01*
X114971881Y-95927616D01*
X115765952Y-95836174D01*
X116368007Y-95826791D01*
X117904191Y-96007102D01*
X119150280Y-96585362D01*
X120211574Y-97617568D01*
X120515109Y-98032045D01*
X121152708Y-98962101D01*
X121285000Y-112475696D01*
X121315052Y-115496388D01*
X121342550Y-118034208D01*
X121369766Y-120135430D01*
X121398968Y-121846327D01*
X121432426Y-123213172D01*
X121472412Y-124282239D01*
X121521195Y-125099800D01*
X121581044Y-125712129D01*
X121654231Y-126165500D01*
X121743026Y-126506184D01*
X121849697Y-126780456D01*
X121976516Y-127034589D01*
X122001542Y-127081548D01*
X123115751Y-128642134D01*
X124542551Y-129839973D01*
X126195267Y-130659597D01*
X127987225Y-131085539D01*
X129831748Y-131102332D01*
X131642163Y-130694509D01*
X133331794Y-129846603D01*
X134115138Y-129243203D01*
X134943075Y-128382447D01*
X135715618Y-127365347D01*
X136048044Y-126815677D01*
X136763125Y-125460124D01*
X136895416Y-111966375D01*
X137027708Y-98472624D01*
X137662991Y-97581897D01*
X138675744Y-96579629D01*
X139934137Y-95960080D01*
X141318509Y-95728603D01*
X142709196Y-95890549D01*
M02*
