%FSLAX45Y45*%
G04 Gerber Fmt 4.5, Leading zero omitted, Abs format (unit mm)*
G04 Created by KiCad (PCBNEW 5.1.10-88a1d61d58~90~ubuntu21.04.1) date 2021-09-17 14:10:16*
%MOMM*%
%LPD*%
G01*
G04 APERTURE LIST*
%TA.AperFunction,Profile*%
%ADD10C,0.150000*%
%TD*%
%TA.AperFunction,Profile*%
%ADD11C,0.200000*%
%TD*%
%TA.AperFunction,Profile*%
%ADD12C,0.050000*%
%TD*%
%ADD13C,0.200000*%
%ADD14C,0.300000*%
G04 APERTURE END LIST*
D10*
X6492875Y-6076950D02*
X36020375Y-6076950D01*
D11*
X33631450Y-9006650D02*
G75*
G03*
X33631450Y-9006650I-215000J0D01*
G01*
X9231450Y-9006650D02*
G75*
G03*
X9231450Y-9006650I-215000J0D01*
G01*
D10*
X6016625Y-17030700D02*
X6016625Y-6553200D01*
X36020375Y-17506950D02*
X6492875Y-17506950D01*
D12*
X21351885Y-17030700D02*
G75*
G03*
X21351885Y-17030700I-95000J0D01*
G01*
X6587875Y-6553200D02*
G75*
G03*
X6587875Y-6553200I-95000J0D01*
G01*
X6587875Y-17030700D02*
G75*
G03*
X6587875Y-17030700I-95000J0D01*
G01*
D10*
X36496625Y-17030700D02*
G75*
G02*
X36020375Y-17506950I-476250J0D01*
G01*
X6492875Y-17506950D02*
G75*
G02*
X6016625Y-17030700I0J476250D01*
G01*
X6016625Y-6553200D02*
G75*
G02*
X6492875Y-6076950I476250J0D01*
G01*
D12*
X36115375Y-17030700D02*
G75*
G03*
X36115375Y-17030700I-95000J0D01*
G01*
X36115375Y-6553200D02*
G75*
G03*
X36115375Y-6553200I-95000J0D01*
G01*
X16430715Y-6553200D02*
G75*
G03*
X16430715Y-6553200I-95000J0D01*
G01*
D10*
X36020375Y-6076950D02*
G75*
G02*
X36496625Y-6553200I0J-476250D01*
G01*
X36496625Y-6553200D02*
X36496625Y-17030700D01*
D12*
X26273045Y-6553200D02*
G75*
G03*
X26273045Y-6553200I-95000J0D01*
G01*
D13*
D14*
X6295553Y-17980164D02*
X6295553Y-17680164D01*
X6366982Y-17680164D01*
X6409839Y-17694450D01*
X6438411Y-17723022D01*
X6452696Y-17751593D01*
X6466982Y-17808736D01*
X6466982Y-17851593D01*
X6452696Y-17908736D01*
X6438411Y-17937307D01*
X6409839Y-17965879D01*
X6366982Y-17980164D01*
X6295553Y-17980164D01*
X6595553Y-17980164D02*
X6595553Y-17780164D01*
X6595553Y-17837307D02*
X6609839Y-17808736D01*
X6624125Y-17794450D01*
X6652696Y-17780164D01*
X6681268Y-17780164D01*
X6781268Y-17980164D02*
X6781268Y-17780164D01*
X6781268Y-17680164D02*
X6766982Y-17694450D01*
X6781268Y-17708736D01*
X6795553Y-17694450D01*
X6781268Y-17680164D01*
X6781268Y-17708736D01*
X6966982Y-17980164D02*
X6938411Y-17965879D01*
X6924125Y-17937307D01*
X6924125Y-17680164D01*
X7124125Y-17980164D02*
X7095553Y-17965879D01*
X7081268Y-17937307D01*
X7081268Y-17680164D01*
X7466982Y-17980164D02*
X7466982Y-17680164D01*
X7566982Y-17894450D01*
X7666982Y-17680164D01*
X7666982Y-17980164D01*
X7938411Y-17980164D02*
X7938411Y-17823022D01*
X7924125Y-17794450D01*
X7895553Y-17780164D01*
X7838411Y-17780164D01*
X7809839Y-17794450D01*
X7938411Y-17965879D02*
X7909839Y-17980164D01*
X7838411Y-17980164D01*
X7809839Y-17965879D01*
X7795553Y-17937307D01*
X7795553Y-17908736D01*
X7809839Y-17880164D01*
X7838411Y-17865879D01*
X7909839Y-17865879D01*
X7938411Y-17851593D01*
X8081268Y-17780164D02*
X8081268Y-18080164D01*
X8081268Y-17794450D02*
X8109839Y-17780164D01*
X8166982Y-17780164D01*
X8195553Y-17794450D01*
X8209839Y-17808736D01*
X8224125Y-17837307D01*
X8224125Y-17923022D01*
X8209839Y-17951593D01*
X8195553Y-17965879D01*
X8166982Y-17980164D01*
X8109839Y-17980164D01*
X8081268Y-17965879D01*
X8352696Y-17951593D02*
X8366982Y-17965879D01*
X8352696Y-17980164D01*
X8338411Y-17965879D01*
X8352696Y-17951593D01*
X8352696Y-17980164D01*
X8352696Y-17794450D02*
X8366982Y-17808736D01*
X8352696Y-17823022D01*
X8338411Y-17808736D01*
X8352696Y-17794450D01*
X8352696Y-17823022D01*
M02*
