G04 #@! TF.GenerationSoftware,KiCad,Pcbnew,5.1.10-88a1d61d58~90~ubuntu21.04.1*
G04 #@! TF.CreationDate,2021-09-17T14:10:14+02:00*
G04 #@! TF.ProjectId,unix60case,756e6978-3630-4636-9173-652e6b696361,rev?*
G04 #@! TF.SameCoordinates,Original*
G04 #@! TF.FileFunction,Soldermask,Bot*
G04 #@! TF.FilePolarity,Negative*
%FSLAX46Y46*%
G04 Gerber Fmt 4.6, Leading zero omitted, Abs format (unit mm)*
G04 Created by KiCad (PCBNEW 5.1.10-88a1d61d58~90~ubuntu21.04.1) date 2021-09-17 14:10:14*
%MOMM*%
%LPD*%
G01*
G04 APERTURE LIST*
%ADD10C,1.000000*%
G04 #@! TA.AperFunction,Profile*
%ADD11C,0.150000*%
G04 #@! TD*
G04 #@! TA.AperFunction,Profile*
%ADD12C,0.200000*%
G04 #@! TD*
G04 #@! TA.AperFunction,Profile*
%ADD13C,0.050000*%
G04 #@! TD*
G04 APERTURE END LIST*
D10*
X60666250Y-65532000D02*
G75*
G02*
X64928750Y-61269500I4262500J0D01*
G01*
X64928750Y-174569500D02*
G75*
G02*
X60666250Y-170307000I0J4262500D01*
G01*
X364466250Y-170307000D02*
G75*
G02*
X360203750Y-174569500I-4262500J0D01*
G01*
X360203750Y-61269500D02*
G75*
G02*
X364466250Y-65532000I0J-4262500D01*
G01*
X64928750Y-61269500D02*
X360203750Y-61269500D01*
X360203750Y-174569500D02*
X64928750Y-174569500D01*
X364466250Y-65532000D02*
X364466250Y-170307000D01*
X60666250Y-170307000D02*
X60666250Y-65532000D01*
X64928750Y-174569500D02*
G75*
G02*
X60666250Y-170307000I0J4262500D01*
G01*
X360203750Y-61269500D02*
G75*
G02*
X364466250Y-65532000I0J-4262500D01*
G01*
X364466250Y-65532000D02*
X364466250Y-170307000D01*
X364466250Y-170307000D02*
G75*
G02*
X360203750Y-174569500I-4262500J0D01*
G01*
X360203750Y-174569500D02*
X64928750Y-174569500D01*
X64928750Y-61269500D02*
X360203750Y-61269500D01*
X60666250Y-170307000D02*
X60666250Y-65532000D01*
X60666250Y-65532000D02*
G75*
G02*
X64928750Y-61269500I4262500J0D01*
G01*
D11*
X64928750Y-60769500D02*
X360203750Y-60769500D01*
D12*
X336314500Y-90066500D02*
G75*
G03*
X336314500Y-90066500I-2150000J0D01*
G01*
X92314500Y-90066500D02*
G75*
G03*
X92314500Y-90066500I-2150000J0D01*
G01*
D11*
X60166250Y-170307000D02*
X60166250Y-65532000D01*
X360203750Y-175069500D02*
X64928750Y-175069500D01*
D13*
X213518850Y-170307000D02*
G75*
G03*
X213518850Y-170307000I-950000J0D01*
G01*
X65878750Y-65532000D02*
G75*
G03*
X65878750Y-65532000I-950000J0D01*
G01*
X65878750Y-170307000D02*
G75*
G03*
X65878750Y-170307000I-950000J0D01*
G01*
D11*
X364966250Y-170307000D02*
G75*
G02*
X360203750Y-175069500I-4762500J0D01*
G01*
X64928750Y-175069500D02*
G75*
G02*
X60166250Y-170307000I0J4762500D01*
G01*
X60166250Y-65532000D02*
G75*
G02*
X64928750Y-60769500I4762500J0D01*
G01*
D13*
X361153750Y-170307000D02*
G75*
G03*
X361153750Y-170307000I-950000J0D01*
G01*
X361153750Y-65532000D02*
G75*
G03*
X361153750Y-65532000I-950000J0D01*
G01*
X164307150Y-65532000D02*
G75*
G03*
X164307150Y-65532000I-950000J0D01*
G01*
D11*
X360203750Y-60769500D02*
G75*
G02*
X364966250Y-65532000I0J-4762500D01*
G01*
X364966250Y-65532000D02*
X364966250Y-170307000D01*
D13*
X262730450Y-65532000D02*
G75*
G03*
X262730450Y-65532000I-950000J0D01*
G01*
M02*
