G04 #@! TF.GenerationSoftware,KiCad,Pcbnew,5.1.7*
G04 #@! TF.CreationDate,2020-11-06T08:58:08-05:00*
G04 #@! TF.ProjectId,unix60case,756e6978-3630-4636-9173-652e6b696361,rev?*
G04 #@! TF.SameCoordinates,Original*
G04 #@! TF.FileFunction,Copper,L1,Top*
G04 #@! TF.FilePolarity,Positive*
%FSLAX46Y46*%
G04 Gerber Fmt 4.6, Leading zero omitted, Abs format (unit mm)*
G04 Created by KiCad (PCBNEW 5.1.7) date 2020-11-06 08:58:08*
%MOMM*%
%LPD*%
G01*
G04 APERTURE LIST*
G04 #@! TA.AperFunction,EtchedComponent*
%ADD10C,0.010000*%
G04 #@! TD*
G04 APERTURE END LIST*
D10*
G04 #@! TO.C,G\u002A\u002A\u002A*
G36*
X290797805Y-33939109D02*
G01*
X291568372Y-34589833D01*
X292245492Y-35366172D01*
X292292141Y-35433445D01*
X292893749Y-36326172D01*
X292893750Y-90487501D01*
X292893750Y-144648829D01*
X292292141Y-145541556D01*
X291641417Y-146312123D01*
X290865078Y-146989243D01*
X290797805Y-147035892D01*
X289905078Y-147637501D01*
X140493750Y-147637501D01*
X-8917579Y-147637500D01*
X-9810306Y-147035892D01*
X-10580873Y-146385168D01*
X-11257993Y-145608829D01*
X-11304642Y-145541556D01*
X-11906250Y-144648829D01*
X-11906250Y-110047985D01*
X-11062722Y-110047985D01*
X-11060547Y-115728023D01*
X-11054991Y-120891439D01*
X-11046059Y-125536992D01*
X-11033756Y-129663440D01*
X-11018085Y-133269543D01*
X-10999052Y-136354061D01*
X-10976662Y-138915751D01*
X-10950918Y-140953374D01*
X-10921825Y-142465688D01*
X-10889389Y-143451454D01*
X-10853613Y-143909428D01*
X-10849819Y-143926269D01*
X-10306000Y-145074860D01*
X-9421953Y-146005743D01*
X-8362034Y-146558194D01*
X-8043875Y-146574052D01*
X-7207919Y-146589367D01*
X-5865534Y-146604122D01*
X-4028088Y-146618304D01*
X-1706949Y-146631896D01*
X1086512Y-146644885D01*
X4340929Y-146657255D01*
X8044932Y-146668991D01*
X12187152Y-146680078D01*
X16756222Y-146690502D01*
X21740772Y-146700248D01*
X27129435Y-146709299D01*
X32910840Y-146717643D01*
X39073621Y-146725263D01*
X45606408Y-146732145D01*
X52497832Y-146738274D01*
X59736526Y-146743634D01*
X67311120Y-146748212D01*
X75210246Y-146751991D01*
X83422536Y-146754958D01*
X91936620Y-146757097D01*
X100741130Y-146758393D01*
X109824698Y-146758831D01*
X119175955Y-146758397D01*
X128783533Y-146757075D01*
X138636062Y-146754851D01*
X140890625Y-146754223D01*
X151486506Y-146751141D01*
X161566181Y-146748120D01*
X171142613Y-146745114D01*
X180228762Y-146742074D01*
X188837590Y-146738955D01*
X196982057Y-146735709D01*
X204675126Y-146732289D01*
X211929758Y-146728648D01*
X218758913Y-146724739D01*
X225175554Y-146720515D01*
X231192641Y-146715929D01*
X236823136Y-146710934D01*
X242080000Y-146705483D01*
X246976194Y-146699529D01*
X251524680Y-146693024D01*
X255738420Y-146685922D01*
X259630374Y-146678176D01*
X263213503Y-146669739D01*
X266500770Y-146660563D01*
X269505135Y-146650602D01*
X272239560Y-146639808D01*
X274717006Y-146628135D01*
X276950434Y-146615535D01*
X278952806Y-146601962D01*
X280737083Y-146587369D01*
X282316226Y-146571707D01*
X283703197Y-146554931D01*
X284910956Y-146536994D01*
X285952466Y-146517847D01*
X286840688Y-146497445D01*
X287588582Y-146475741D01*
X288209111Y-146452686D01*
X288715235Y-146428234D01*
X289119916Y-146402339D01*
X289436115Y-146374952D01*
X289676794Y-146346028D01*
X289854913Y-146315519D01*
X289983435Y-146283377D01*
X290075320Y-146249557D01*
X290143529Y-146214010D01*
X290145908Y-146212576D01*
X290876272Y-145616337D01*
X291468825Y-144889659D01*
X291527157Y-144781595D01*
X291580759Y-144643610D01*
X291629831Y-144453922D01*
X291674573Y-144190744D01*
X291715185Y-143832293D01*
X291751865Y-143356784D01*
X291784815Y-142742431D01*
X291814234Y-141967451D01*
X291840321Y-141010058D01*
X291863277Y-139848467D01*
X291883300Y-138460895D01*
X291900592Y-136825556D01*
X291915352Y-134920666D01*
X291927778Y-132724439D01*
X291938072Y-130215091D01*
X291946434Y-127370838D01*
X291953061Y-124169895D01*
X291958156Y-120590476D01*
X291961917Y-116610798D01*
X291964543Y-112209075D01*
X291966236Y-107363523D01*
X291967195Y-102052357D01*
X291967618Y-96253792D01*
X291967708Y-90487500D01*
X291967599Y-84222685D01*
X291967138Y-78465252D01*
X291966127Y-73193416D01*
X291964364Y-68385392D01*
X291961651Y-64019396D01*
X291957788Y-60073644D01*
X291952574Y-56526349D01*
X291945811Y-53355728D01*
X291937297Y-50539996D01*
X291926834Y-48057368D01*
X291914222Y-45886060D01*
X291899261Y-44004286D01*
X291881751Y-42390262D01*
X291861492Y-41022204D01*
X291838285Y-39878326D01*
X291811930Y-38936843D01*
X291782227Y-38175972D01*
X291748976Y-37573927D01*
X291711978Y-37108924D01*
X291671033Y-36759178D01*
X291625940Y-36502904D01*
X291576501Y-36318317D01*
X291522515Y-36183633D01*
X291468825Y-36085342D01*
X290872586Y-35354978D01*
X290145908Y-34762425D01*
X290078526Y-34726859D01*
X289988152Y-34693023D01*
X289861840Y-34660876D01*
X289686648Y-34630372D01*
X289449630Y-34601471D01*
X289137843Y-34574127D01*
X288738344Y-34548299D01*
X288238187Y-34523943D01*
X287624428Y-34501016D01*
X286884124Y-34479474D01*
X286004331Y-34459275D01*
X284972104Y-34440375D01*
X283774499Y-34422731D01*
X282398573Y-34406301D01*
X280831380Y-34391040D01*
X279059978Y-34376907D01*
X277071422Y-34363857D01*
X274852768Y-34351847D01*
X272391071Y-34340835D01*
X269673388Y-34330777D01*
X266686775Y-34321630D01*
X263418287Y-34313351D01*
X259854981Y-34305896D01*
X255983913Y-34299223D01*
X251792137Y-34293289D01*
X247266711Y-34288050D01*
X242394690Y-34283463D01*
X237163130Y-34279485D01*
X231559087Y-34276073D01*
X225569617Y-34273183D01*
X219181776Y-34270773D01*
X212382619Y-34268800D01*
X205159203Y-34267219D01*
X197498584Y-34265989D01*
X189387817Y-34265066D01*
X180813959Y-34264406D01*
X171764065Y-34263967D01*
X162225191Y-34263706D01*
X152184393Y-34263578D01*
X141628728Y-34263542D01*
X140493750Y-34263542D01*
X129883453Y-34263571D01*
X119789378Y-34263687D01*
X110198583Y-34263932D01*
X101098121Y-34264350D01*
X92475050Y-34264985D01*
X84316426Y-34265879D01*
X76609303Y-34267075D01*
X69340739Y-34268617D01*
X62497788Y-34270547D01*
X56067508Y-34272909D01*
X50036953Y-34275747D01*
X44393180Y-34279102D01*
X39123244Y-34283019D01*
X34214203Y-34287540D01*
X29653110Y-34292709D01*
X25427024Y-34298568D01*
X21522998Y-34305162D01*
X17928090Y-34312533D01*
X14629355Y-34320723D01*
X11613849Y-34329778D01*
X8868628Y-34339738D01*
X6380748Y-34350649D01*
X4137264Y-34362552D01*
X2125234Y-34375491D01*
X331712Y-34389509D01*
X-1256245Y-34404650D01*
X-2651582Y-34420956D01*
X-3867242Y-34438470D01*
X-4916170Y-34457237D01*
X-5811310Y-34477298D01*
X-6565605Y-34498697D01*
X-7192001Y-34521477D01*
X-7703440Y-34545682D01*
X-8112868Y-34571354D01*
X-8433228Y-34598537D01*
X-8677464Y-34627273D01*
X-8858520Y-34657607D01*
X-8989341Y-34689580D01*
X-9082870Y-34723237D01*
X-9152052Y-34758620D01*
X-9158409Y-34762425D01*
X-9888773Y-35358664D01*
X-10481326Y-36085342D01*
X-10539975Y-36194321D01*
X-10593895Y-36334047D01*
X-10643317Y-36526422D01*
X-10688471Y-36793346D01*
X-10729588Y-37156724D01*
X-10766900Y-37638458D01*
X-10800637Y-38260449D01*
X-10831030Y-39044600D01*
X-10858310Y-40012814D01*
X-10882708Y-41186992D01*
X-10904455Y-42589038D01*
X-10923782Y-44240853D01*
X-10940919Y-46164340D01*
X-10956098Y-48381402D01*
X-10969550Y-50913940D01*
X-10981505Y-53783857D01*
X-10992195Y-57013055D01*
X-11001850Y-60623437D01*
X-11010701Y-64636904D01*
X-11018979Y-69075361D01*
X-11026916Y-73960708D01*
X-11034741Y-79314847D01*
X-11042687Y-85159683D01*
X-11048918Y-89920542D01*
X-11056912Y-97143003D01*
X-11061512Y-103852564D01*
X-11062722Y-110047985D01*
X-11906250Y-110047985D01*
X-11906250Y-36326172D01*
X-11304642Y-35433445D01*
X-10653918Y-34662878D01*
X-9877579Y-33985758D01*
X-9810306Y-33939109D01*
X-8917579Y-33337501D01*
X289905078Y-33337501D01*
X290797805Y-33939109D01*
G37*
X290797805Y-33939109D02*
X291568372Y-34589833D01*
X292245492Y-35366172D01*
X292292141Y-35433445D01*
X292893749Y-36326172D01*
X292893750Y-90487501D01*
X292893750Y-144648829D01*
X292292141Y-145541556D01*
X291641417Y-146312123D01*
X290865078Y-146989243D01*
X290797805Y-147035892D01*
X289905078Y-147637501D01*
X140493750Y-147637501D01*
X-8917579Y-147637500D01*
X-9810306Y-147035892D01*
X-10580873Y-146385168D01*
X-11257993Y-145608829D01*
X-11304642Y-145541556D01*
X-11906250Y-144648829D01*
X-11906250Y-110047985D01*
X-11062722Y-110047985D01*
X-11060547Y-115728023D01*
X-11054991Y-120891439D01*
X-11046059Y-125536992D01*
X-11033756Y-129663440D01*
X-11018085Y-133269543D01*
X-10999052Y-136354061D01*
X-10976662Y-138915751D01*
X-10950918Y-140953374D01*
X-10921825Y-142465688D01*
X-10889389Y-143451454D01*
X-10853613Y-143909428D01*
X-10849819Y-143926269D01*
X-10306000Y-145074860D01*
X-9421953Y-146005743D01*
X-8362034Y-146558194D01*
X-8043875Y-146574052D01*
X-7207919Y-146589367D01*
X-5865534Y-146604122D01*
X-4028088Y-146618304D01*
X-1706949Y-146631896D01*
X1086512Y-146644885D01*
X4340929Y-146657255D01*
X8044932Y-146668991D01*
X12187152Y-146680078D01*
X16756222Y-146690502D01*
X21740772Y-146700248D01*
X27129435Y-146709299D01*
X32910840Y-146717643D01*
X39073621Y-146725263D01*
X45606408Y-146732145D01*
X52497832Y-146738274D01*
X59736526Y-146743634D01*
X67311120Y-146748212D01*
X75210246Y-146751991D01*
X83422536Y-146754958D01*
X91936620Y-146757097D01*
X100741130Y-146758393D01*
X109824698Y-146758831D01*
X119175955Y-146758397D01*
X128783533Y-146757075D01*
X138636062Y-146754851D01*
X140890625Y-146754223D01*
X151486506Y-146751141D01*
X161566181Y-146748120D01*
X171142613Y-146745114D01*
X180228762Y-146742074D01*
X188837590Y-146738955D01*
X196982057Y-146735709D01*
X204675126Y-146732289D01*
X211929758Y-146728648D01*
X218758913Y-146724739D01*
X225175554Y-146720515D01*
X231192641Y-146715929D01*
X236823136Y-146710934D01*
X242080000Y-146705483D01*
X246976194Y-146699529D01*
X251524680Y-146693024D01*
X255738420Y-146685922D01*
X259630374Y-146678176D01*
X263213503Y-146669739D01*
X266500770Y-146660563D01*
X269505135Y-146650602D01*
X272239560Y-146639808D01*
X274717006Y-146628135D01*
X276950434Y-146615535D01*
X278952806Y-146601962D01*
X280737083Y-146587369D01*
X282316226Y-146571707D01*
X283703197Y-146554931D01*
X284910956Y-146536994D01*
X285952466Y-146517847D01*
X286840688Y-146497445D01*
X287588582Y-146475741D01*
X288209111Y-146452686D01*
X288715235Y-146428234D01*
X289119916Y-146402339D01*
X289436115Y-146374952D01*
X289676794Y-146346028D01*
X289854913Y-146315519D01*
X289983435Y-146283377D01*
X290075320Y-146249557D01*
X290143529Y-146214010D01*
X290145908Y-146212576D01*
X290876272Y-145616337D01*
X291468825Y-144889659D01*
X291527157Y-144781595D01*
X291580759Y-144643610D01*
X291629831Y-144453922D01*
X291674573Y-144190744D01*
X291715185Y-143832293D01*
X291751865Y-143356784D01*
X291784815Y-142742431D01*
X291814234Y-141967451D01*
X291840321Y-141010058D01*
X291863277Y-139848467D01*
X291883300Y-138460895D01*
X291900592Y-136825556D01*
X291915352Y-134920666D01*
X291927778Y-132724439D01*
X291938072Y-130215091D01*
X291946434Y-127370838D01*
X291953061Y-124169895D01*
X291958156Y-120590476D01*
X291961917Y-116610798D01*
X291964543Y-112209075D01*
X291966236Y-107363523D01*
X291967195Y-102052357D01*
X291967618Y-96253792D01*
X291967708Y-90487500D01*
X291967599Y-84222685D01*
X291967138Y-78465252D01*
X291966127Y-73193416D01*
X291964364Y-68385392D01*
X291961651Y-64019396D01*
X291957788Y-60073644D01*
X291952574Y-56526349D01*
X291945811Y-53355728D01*
X291937297Y-50539996D01*
X291926834Y-48057368D01*
X291914222Y-45886060D01*
X291899261Y-44004286D01*
X291881751Y-42390262D01*
X291861492Y-41022204D01*
X291838285Y-39878326D01*
X291811930Y-38936843D01*
X291782227Y-38175972D01*
X291748976Y-37573927D01*
X291711978Y-37108924D01*
X291671033Y-36759178D01*
X291625940Y-36502904D01*
X291576501Y-36318317D01*
X291522515Y-36183633D01*
X291468825Y-36085342D01*
X290872586Y-35354978D01*
X290145908Y-34762425D01*
X290078526Y-34726859D01*
X289988152Y-34693023D01*
X289861840Y-34660876D01*
X289686648Y-34630372D01*
X289449630Y-34601471D01*
X289137843Y-34574127D01*
X288738344Y-34548299D01*
X288238187Y-34523943D01*
X287624428Y-34501016D01*
X286884124Y-34479474D01*
X286004331Y-34459275D01*
X284972104Y-34440375D01*
X283774499Y-34422731D01*
X282398573Y-34406301D01*
X280831380Y-34391040D01*
X279059978Y-34376907D01*
X277071422Y-34363857D01*
X274852768Y-34351847D01*
X272391071Y-34340835D01*
X269673388Y-34330777D01*
X266686775Y-34321630D01*
X263418287Y-34313351D01*
X259854981Y-34305896D01*
X255983913Y-34299223D01*
X251792137Y-34293289D01*
X247266711Y-34288050D01*
X242394690Y-34283463D01*
X237163130Y-34279485D01*
X231559087Y-34276073D01*
X225569617Y-34273183D01*
X219181776Y-34270773D01*
X212382619Y-34268800D01*
X205159203Y-34267219D01*
X197498584Y-34265989D01*
X189387817Y-34265066D01*
X180813959Y-34264406D01*
X171764065Y-34263967D01*
X162225191Y-34263706D01*
X152184393Y-34263578D01*
X141628728Y-34263542D01*
X140493750Y-34263542D01*
X129883453Y-34263571D01*
X119789378Y-34263687D01*
X110198583Y-34263932D01*
X101098121Y-34264350D01*
X92475050Y-34264985D01*
X84316426Y-34265879D01*
X76609303Y-34267075D01*
X69340739Y-34268617D01*
X62497788Y-34270547D01*
X56067508Y-34272909D01*
X50036953Y-34275747D01*
X44393180Y-34279102D01*
X39123244Y-34283019D01*
X34214203Y-34287540D01*
X29653110Y-34292709D01*
X25427024Y-34298568D01*
X21522998Y-34305162D01*
X17928090Y-34312533D01*
X14629355Y-34320723D01*
X11613849Y-34329778D01*
X8868628Y-34339738D01*
X6380748Y-34350649D01*
X4137264Y-34362552D01*
X2125234Y-34375491D01*
X331712Y-34389509D01*
X-1256245Y-34404650D01*
X-2651582Y-34420956D01*
X-3867242Y-34438470D01*
X-4916170Y-34457237D01*
X-5811310Y-34477298D01*
X-6565605Y-34498697D01*
X-7192001Y-34521477D01*
X-7703440Y-34545682D01*
X-8112868Y-34571354D01*
X-8433228Y-34598537D01*
X-8677464Y-34627273D01*
X-8858520Y-34657607D01*
X-8989341Y-34689580D01*
X-9082870Y-34723237D01*
X-9152052Y-34758620D01*
X-9158409Y-34762425D01*
X-9888773Y-35358664D01*
X-10481326Y-36085342D01*
X-10539975Y-36194321D01*
X-10593895Y-36334047D01*
X-10643317Y-36526422D01*
X-10688471Y-36793346D01*
X-10729588Y-37156724D01*
X-10766900Y-37638458D01*
X-10800637Y-38260449D01*
X-10831030Y-39044600D01*
X-10858310Y-40012814D01*
X-10882708Y-41186992D01*
X-10904455Y-42589038D01*
X-10923782Y-44240853D01*
X-10940919Y-46164340D01*
X-10956098Y-48381402D01*
X-10969550Y-50913940D01*
X-10981505Y-53783857D01*
X-10992195Y-57013055D01*
X-11001850Y-60623437D01*
X-11010701Y-64636904D01*
X-11018979Y-69075361D01*
X-11026916Y-73960708D01*
X-11034741Y-79314847D01*
X-11042687Y-85159683D01*
X-11048918Y-89920542D01*
X-11056912Y-97143003D01*
X-11061512Y-103852564D01*
X-11062722Y-110047985D01*
X-11906250Y-110047985D01*
X-11906250Y-36326172D01*
X-11304642Y-35433445D01*
X-10653918Y-34662878D01*
X-9877579Y-33985758D01*
X-9810306Y-33939109D01*
X-8917579Y-33337501D01*
X289905078Y-33337501D01*
X290797805Y-33939109D01*
G36*
X97486701Y-68676240D02*
G01*
X100364120Y-69234000D01*
X103061643Y-70247465D01*
X105529181Y-71688141D01*
X107716647Y-73527534D01*
X109573953Y-75737152D01*
X110878928Y-77931788D01*
X111243187Y-78672305D01*
X111549611Y-79338653D01*
X111803643Y-79983439D01*
X112010731Y-80659275D01*
X112176318Y-81418768D01*
X112305852Y-82314528D01*
X112404777Y-83399165D01*
X112478539Y-84725288D01*
X112532584Y-86345505D01*
X112572357Y-88312427D01*
X112603304Y-90678662D01*
X112630871Y-93496820D01*
X112644146Y-94985416D01*
X112663177Y-97566528D01*
X112674010Y-100027327D01*
X112676899Y-102308651D01*
X112672098Y-104351338D01*
X112659861Y-106096228D01*
X112640442Y-107484157D01*
X112614094Y-108455964D01*
X112584306Y-108928835D01*
X112166198Y-110524820D01*
X111373861Y-111782813D01*
X110246606Y-112662742D01*
X108823741Y-113124533D01*
X108423993Y-113170136D01*
X106941924Y-113053793D01*
X105555253Y-112526987D01*
X104423115Y-111658842D01*
X104129031Y-111304496D01*
X104006658Y-111121410D01*
X103903482Y-110905676D01*
X103817334Y-110611938D01*
X103746045Y-110194840D01*
X103687445Y-109609025D01*
X103639366Y-108809137D01*
X103599639Y-107749821D01*
X103566094Y-106385720D01*
X103536563Y-104671478D01*
X103508875Y-102561738D01*
X103480863Y-100011146D01*
X103452083Y-97149287D01*
X103421997Y-94142214D01*
X103394559Y-91617083D01*
X103367394Y-89526693D01*
X103338128Y-87823842D01*
X103304384Y-86461331D01*
X103263790Y-85391958D01*
X103213969Y-84568522D01*
X103152548Y-83943823D01*
X103077151Y-83470659D01*
X102985404Y-83101829D01*
X102874932Y-82790132D01*
X102743361Y-82488368D01*
X102710926Y-82417708D01*
X101735289Y-80791887D01*
X100433633Y-79515283D01*
X98821874Y-78549295D01*
X96916131Y-77921430D01*
X94911733Y-77794715D01*
X92892278Y-78173511D01*
X92717445Y-78230914D01*
X91639462Y-78777546D01*
X90492169Y-79647869D01*
X89419147Y-80703095D01*
X88563974Y-81804435D01*
X88112364Y-82682291D01*
X88021872Y-83036802D01*
X87944663Y-83576035D01*
X87879348Y-84342246D01*
X87824541Y-85377692D01*
X87778853Y-86724629D01*
X87740897Y-88425314D01*
X87709286Y-90522002D01*
X87682632Y-93056950D01*
X87659548Y-96072414D01*
X87656281Y-96572916D01*
X87637160Y-99146957D01*
X87614064Y-101572762D01*
X87587865Y-103796299D01*
X87559436Y-105763540D01*
X87529649Y-107420453D01*
X87499378Y-108713008D01*
X87469494Y-109587175D01*
X87440871Y-109988924D01*
X87439482Y-109995668D01*
X87094275Y-110722156D01*
X86444898Y-111548025D01*
X85645445Y-112308055D01*
X84850007Y-112837029D01*
X84745444Y-112884202D01*
X83450775Y-113192069D01*
X82067019Y-113147696D01*
X81094791Y-112866657D01*
X80092895Y-112211650D01*
X79193109Y-111268477D01*
X78599222Y-110250890D01*
X78598082Y-110247879D01*
X78518110Y-109765363D01*
X78450771Y-108817416D01*
X78395805Y-107467616D01*
X78352954Y-105779541D01*
X78321960Y-103816771D01*
X78302564Y-101642882D01*
X78294508Y-99321454D01*
X78297533Y-96916065D01*
X78311381Y-94490293D01*
X78335793Y-92107716D01*
X78370511Y-89831914D01*
X78415276Y-87726464D01*
X78469830Y-85854945D01*
X78533913Y-84280935D01*
X78607269Y-83068012D01*
X78689638Y-82279755D01*
X78712308Y-82153124D01*
X79400600Y-79851330D01*
X80468928Y-77530483D01*
X81819291Y-75373109D01*
X83292372Y-73622879D01*
X85540913Y-71674730D01*
X87937369Y-70220311D01*
X90537406Y-69234641D01*
X93396695Y-68692738D01*
X94479472Y-68602677D01*
X97486701Y-68676240D01*
G37*
X97486701Y-68676240D02*
X100364120Y-69234000D01*
X103061643Y-70247465D01*
X105529181Y-71688141D01*
X107716647Y-73527534D01*
X109573953Y-75737152D01*
X110878928Y-77931788D01*
X111243187Y-78672305D01*
X111549611Y-79338653D01*
X111803643Y-79983439D01*
X112010731Y-80659275D01*
X112176318Y-81418768D01*
X112305852Y-82314528D01*
X112404777Y-83399165D01*
X112478539Y-84725288D01*
X112532584Y-86345505D01*
X112572357Y-88312427D01*
X112603304Y-90678662D01*
X112630871Y-93496820D01*
X112644146Y-94985416D01*
X112663177Y-97566528D01*
X112674010Y-100027327D01*
X112676899Y-102308651D01*
X112672098Y-104351338D01*
X112659861Y-106096228D01*
X112640442Y-107484157D01*
X112614094Y-108455964D01*
X112584306Y-108928835D01*
X112166198Y-110524820D01*
X111373861Y-111782813D01*
X110246606Y-112662742D01*
X108823741Y-113124533D01*
X108423993Y-113170136D01*
X106941924Y-113053793D01*
X105555253Y-112526987D01*
X104423115Y-111658842D01*
X104129031Y-111304496D01*
X104006658Y-111121410D01*
X103903482Y-110905676D01*
X103817334Y-110611938D01*
X103746045Y-110194840D01*
X103687445Y-109609025D01*
X103639366Y-108809137D01*
X103599639Y-107749821D01*
X103566094Y-106385720D01*
X103536563Y-104671478D01*
X103508875Y-102561738D01*
X103480863Y-100011146D01*
X103452083Y-97149287D01*
X103421997Y-94142214D01*
X103394559Y-91617083D01*
X103367394Y-89526693D01*
X103338128Y-87823842D01*
X103304384Y-86461331D01*
X103263790Y-85391958D01*
X103213969Y-84568522D01*
X103152548Y-83943823D01*
X103077151Y-83470659D01*
X102985404Y-83101829D01*
X102874932Y-82790132D01*
X102743361Y-82488368D01*
X102710926Y-82417708D01*
X101735289Y-80791887D01*
X100433633Y-79515283D01*
X98821874Y-78549295D01*
X96916131Y-77921430D01*
X94911733Y-77794715D01*
X92892278Y-78173511D01*
X92717445Y-78230914D01*
X91639462Y-78777546D01*
X90492169Y-79647869D01*
X89419147Y-80703095D01*
X88563974Y-81804435D01*
X88112364Y-82682291D01*
X88021872Y-83036802D01*
X87944663Y-83576035D01*
X87879348Y-84342246D01*
X87824541Y-85377692D01*
X87778853Y-86724629D01*
X87740897Y-88425314D01*
X87709286Y-90522002D01*
X87682632Y-93056950D01*
X87659548Y-96072414D01*
X87656281Y-96572916D01*
X87637160Y-99146957D01*
X87614064Y-101572762D01*
X87587865Y-103796299D01*
X87559436Y-105763540D01*
X87529649Y-107420453D01*
X87499378Y-108713008D01*
X87469494Y-109587175D01*
X87440871Y-109988924D01*
X87439482Y-109995668D01*
X87094275Y-110722156D01*
X86444898Y-111548025D01*
X85645445Y-112308055D01*
X84850007Y-112837029D01*
X84745444Y-112884202D01*
X83450775Y-113192069D01*
X82067019Y-113147696D01*
X81094791Y-112866657D01*
X80092895Y-112211650D01*
X79193109Y-111268477D01*
X78599222Y-110250890D01*
X78598082Y-110247879D01*
X78518110Y-109765363D01*
X78450771Y-108817416D01*
X78395805Y-107467616D01*
X78352954Y-105779541D01*
X78321960Y-103816771D01*
X78302564Y-101642882D01*
X78294508Y-99321454D01*
X78297533Y-96916065D01*
X78311381Y-94490293D01*
X78335793Y-92107716D01*
X78370511Y-89831914D01*
X78415276Y-87726464D01*
X78469830Y-85854945D01*
X78533913Y-84280935D01*
X78607269Y-83068012D01*
X78689638Y-82279755D01*
X78712308Y-82153124D01*
X79400600Y-79851330D01*
X80468928Y-77530483D01*
X81819291Y-75373109D01*
X83292372Y-73622879D01*
X85540913Y-71674730D01*
X87937369Y-70220311D01*
X90537406Y-69234641D01*
X93396695Y-68692738D01*
X94479472Y-68602677D01*
X97486701Y-68676240D01*
G36*
X122661380Y-68334809D02*
G01*
X123958416Y-68768912D01*
X125091272Y-69569872D01*
X125967653Y-70707440D01*
X126480993Y-72083397D01*
X126545529Y-72622930D01*
X126599076Y-73602680D01*
X126641757Y-75034435D01*
X126673697Y-76929986D01*
X126695020Y-79301122D01*
X126705849Y-82159630D01*
X126706309Y-85517301D01*
X126696524Y-89385924D01*
X126687085Y-91678125D01*
X126603125Y-109934375D01*
X125984786Y-110928903D01*
X125014206Y-112032660D01*
X123751871Y-112803778D01*
X122331499Y-113196279D01*
X120886808Y-113164186D01*
X120120833Y-112945140D01*
X119248196Y-112419233D01*
X118363070Y-111605674D01*
X117670919Y-110699007D01*
X117583670Y-110542826D01*
X117510726Y-110331132D01*
X117447576Y-109971690D01*
X117393565Y-109429704D01*
X117348037Y-108670376D01*
X117310334Y-107658908D01*
X117279801Y-106360502D01*
X117255782Y-104740361D01*
X117237620Y-102763688D01*
X117224659Y-100395684D01*
X117216242Y-97601553D01*
X117211714Y-94346496D01*
X117210416Y-90752083D01*
X117209990Y-87048209D01*
X117210478Y-83835940D01*
X117214532Y-81077718D01*
X117224803Y-78735983D01*
X117243944Y-76773177D01*
X117274605Y-75151741D01*
X117319438Y-73834116D01*
X117381094Y-72782744D01*
X117462224Y-71960065D01*
X117565481Y-71328521D01*
X117693515Y-70850554D01*
X117848979Y-70488604D01*
X118034523Y-70205112D01*
X118252799Y-69962521D01*
X118506458Y-69723270D01*
X118708149Y-69536103D01*
X119943951Y-68688157D01*
X121292459Y-68297808D01*
X122661380Y-68334809D01*
G37*
X122661380Y-68334809D02*
X123958416Y-68768912D01*
X125091272Y-69569872D01*
X125967653Y-70707440D01*
X126480993Y-72083397D01*
X126545529Y-72622930D01*
X126599076Y-73602680D01*
X126641757Y-75034435D01*
X126673697Y-76929986D01*
X126695020Y-79301122D01*
X126705849Y-82159630D01*
X126706309Y-85517301D01*
X126696524Y-89385924D01*
X126687085Y-91678125D01*
X126603125Y-109934375D01*
X125984786Y-110928903D01*
X125014206Y-112032660D01*
X123751871Y-112803778D01*
X122331499Y-113196279D01*
X120886808Y-113164186D01*
X120120833Y-112945140D01*
X119248196Y-112419233D01*
X118363070Y-111605674D01*
X117670919Y-110699007D01*
X117583670Y-110542826D01*
X117510726Y-110331132D01*
X117447576Y-109971690D01*
X117393565Y-109429704D01*
X117348037Y-108670376D01*
X117310334Y-107658908D01*
X117279801Y-106360502D01*
X117255782Y-104740361D01*
X117237620Y-102763688D01*
X117224659Y-100395684D01*
X117216242Y-97601553D01*
X117211714Y-94346496D01*
X117210416Y-90752083D01*
X117209990Y-87048209D01*
X117210478Y-83835940D01*
X117214532Y-81077718D01*
X117224803Y-78735983D01*
X117243944Y-76773177D01*
X117274605Y-75151741D01*
X117319438Y-73834116D01*
X117381094Y-72782744D01*
X117462224Y-71960065D01*
X117565481Y-71328521D01*
X117693515Y-70850554D01*
X117848979Y-70488604D01*
X118034523Y-70205112D01*
X118252799Y-69962521D01*
X118506458Y-69723270D01*
X118708149Y-69536103D01*
X119943951Y-68688157D01*
X121292459Y-68297808D01*
X122661380Y-68334809D01*
G36*
X137401934Y-68377067D02*
G01*
X138704743Y-68886717D01*
X139395044Y-69404603D01*
X139707732Y-69769020D01*
X140276333Y-70505446D01*
X141054831Y-71551314D01*
X141997209Y-72844058D01*
X143057451Y-74321110D01*
X144189540Y-75919904D01*
X144246955Y-76001562D01*
X145355119Y-77567979D01*
X146369636Y-78982590D01*
X147249767Y-80190144D01*
X147954774Y-81135387D01*
X148443919Y-81763064D01*
X148676463Y-82017923D01*
X148684970Y-82020833D01*
X148882926Y-81811622D01*
X149340032Y-81220511D01*
X150016563Y-80302282D01*
X150872793Y-79111717D01*
X151868997Y-77703596D01*
X152965449Y-76132703D01*
X153193162Y-75803974D01*
X154726361Y-73613917D01*
X155993472Y-71861666D01*
X157004820Y-70533794D01*
X157770730Y-69616874D01*
X158301528Y-69097478D01*
X158408278Y-69022163D01*
X159691684Y-68491298D01*
X161134610Y-68305998D01*
X162492761Y-68496505D01*
X162537630Y-68510968D01*
X163665877Y-69131831D01*
X164640187Y-70123606D01*
X165375202Y-71345174D01*
X165785559Y-72655416D01*
X165790585Y-73888830D01*
X165583146Y-74380591D01*
X165076617Y-75275499D01*
X164285674Y-76550591D01*
X163224991Y-78182904D01*
X161909241Y-80149474D01*
X160353099Y-82427339D01*
X160095791Y-82800327D01*
X154572629Y-90796949D01*
X159929856Y-98513578D01*
X161191225Y-100345342D01*
X162365597Y-102079190D01*
X163415643Y-103657836D01*
X164304030Y-105023992D01*
X164993429Y-106120373D01*
X165446510Y-106889692D01*
X165617113Y-107241114D01*
X165807277Y-108130842D01*
X165736977Y-109042597D01*
X165641218Y-109466958D01*
X165023503Y-110974100D01*
X164049084Y-112137269D01*
X162780385Y-112905784D01*
X161279832Y-113228963D01*
X160998958Y-113235958D01*
X160279279Y-113210216D01*
X159645373Y-113107471D01*
X159051819Y-112884165D01*
X158453198Y-112496735D01*
X157804090Y-111901620D01*
X157059076Y-111055260D01*
X156172737Y-109914095D01*
X155099652Y-108434563D01*
X153794402Y-106573103D01*
X153282836Y-105835610D01*
X152167997Y-104234851D01*
X151143840Y-102781398D01*
X150250553Y-101530931D01*
X149528327Y-100539127D01*
X149017352Y-99861665D01*
X148757816Y-99554223D01*
X148740140Y-99542199D01*
X148531852Y-99729167D01*
X148063205Y-100296823D01*
X147375120Y-101190832D01*
X146508517Y-102356854D01*
X145504315Y-103740553D01*
X144403437Y-105287590D01*
X144259384Y-105492141D01*
X143123231Y-107096541D01*
X142056661Y-108582347D01*
X141105659Y-109887080D01*
X140316212Y-110948266D01*
X139734304Y-111703427D01*
X139405922Y-112090088D01*
X139395979Y-112099562D01*
X138268335Y-112821570D01*
X136914597Y-113198896D01*
X135517487Y-113205655D01*
X134276631Y-112824841D01*
X133183453Y-112121947D01*
X132427114Y-111263596D01*
X131995526Y-110463541D01*
X131554045Y-108960113D01*
X131636435Y-107495563D01*
X131875994Y-106763552D01*
X132114663Y-106334946D01*
X132619633Y-105531344D01*
X133352498Y-104410379D01*
X134274848Y-103029687D01*
X135348274Y-101446900D01*
X136534369Y-99719652D01*
X137447394Y-98403385D01*
X138665857Y-96640304D01*
X139775659Y-95007600D01*
X140742827Y-93557355D01*
X141533384Y-92341655D01*
X142113356Y-91412583D01*
X142448769Y-90822225D01*
X142518406Y-90629355D01*
X142344140Y-90344606D01*
X141902898Y-89676527D01*
X141229546Y-88676425D01*
X140358947Y-87395608D01*
X139325966Y-85885383D01*
X138165467Y-84197057D01*
X137013152Y-82527707D01*
X131630208Y-74744791D01*
X131630208Y-73137969D01*
X131683930Y-72074270D01*
X131891988Y-71275061D01*
X132324718Y-70482373D01*
X132375311Y-70405219D01*
X133375091Y-69320837D01*
X134622516Y-68610462D01*
X136002994Y-68290427D01*
X137401934Y-68377067D01*
G37*
X137401934Y-68377067D02*
X138704743Y-68886717D01*
X139395044Y-69404603D01*
X139707732Y-69769020D01*
X140276333Y-70505446D01*
X141054831Y-71551314D01*
X141997209Y-72844058D01*
X143057451Y-74321110D01*
X144189540Y-75919904D01*
X144246955Y-76001562D01*
X145355119Y-77567979D01*
X146369636Y-78982590D01*
X147249767Y-80190144D01*
X147954774Y-81135387D01*
X148443919Y-81763064D01*
X148676463Y-82017923D01*
X148684970Y-82020833D01*
X148882926Y-81811622D01*
X149340032Y-81220511D01*
X150016563Y-80302282D01*
X150872793Y-79111717D01*
X151868997Y-77703596D01*
X152965449Y-76132703D01*
X153193162Y-75803974D01*
X154726361Y-73613917D01*
X155993472Y-71861666D01*
X157004820Y-70533794D01*
X157770730Y-69616874D01*
X158301528Y-69097478D01*
X158408278Y-69022163D01*
X159691684Y-68491298D01*
X161134610Y-68305998D01*
X162492761Y-68496505D01*
X162537630Y-68510968D01*
X163665877Y-69131831D01*
X164640187Y-70123606D01*
X165375202Y-71345174D01*
X165785559Y-72655416D01*
X165790585Y-73888830D01*
X165583146Y-74380591D01*
X165076617Y-75275499D01*
X164285674Y-76550591D01*
X163224991Y-78182904D01*
X161909241Y-80149474D01*
X160353099Y-82427339D01*
X160095791Y-82800327D01*
X154572629Y-90796949D01*
X159929856Y-98513578D01*
X161191225Y-100345342D01*
X162365597Y-102079190D01*
X163415643Y-103657836D01*
X164304030Y-105023992D01*
X164993429Y-106120373D01*
X165446510Y-106889692D01*
X165617113Y-107241114D01*
X165807277Y-108130842D01*
X165736977Y-109042597D01*
X165641218Y-109466958D01*
X165023503Y-110974100D01*
X164049084Y-112137269D01*
X162780385Y-112905784D01*
X161279832Y-113228963D01*
X160998958Y-113235958D01*
X160279279Y-113210216D01*
X159645373Y-113107471D01*
X159051819Y-112884165D01*
X158453198Y-112496735D01*
X157804090Y-111901620D01*
X157059076Y-111055260D01*
X156172737Y-109914095D01*
X155099652Y-108434563D01*
X153794402Y-106573103D01*
X153282836Y-105835610D01*
X152167997Y-104234851D01*
X151143840Y-102781398D01*
X150250553Y-101530931D01*
X149528327Y-100539127D01*
X149017352Y-99861665D01*
X148757816Y-99554223D01*
X148740140Y-99542199D01*
X148531852Y-99729167D01*
X148063205Y-100296823D01*
X147375120Y-101190832D01*
X146508517Y-102356854D01*
X145504315Y-103740553D01*
X144403437Y-105287590D01*
X144259384Y-105492141D01*
X143123231Y-107096541D01*
X142056661Y-108582347D01*
X141105659Y-109887080D01*
X140316212Y-110948266D01*
X139734304Y-111703427D01*
X139405922Y-112090088D01*
X139395979Y-112099562D01*
X138268335Y-112821570D01*
X136914597Y-113198896D01*
X135517487Y-113205655D01*
X134276631Y-112824841D01*
X133183453Y-112121947D01*
X132427114Y-111263596D01*
X131995526Y-110463541D01*
X131554045Y-108960113D01*
X131636435Y-107495563D01*
X131875994Y-106763552D01*
X132114663Y-106334946D01*
X132619633Y-105531344D01*
X133352498Y-104410379D01*
X134274848Y-103029687D01*
X135348274Y-101446900D01*
X136534369Y-99719652D01*
X137447394Y-98403385D01*
X138665857Y-96640304D01*
X139775659Y-95007600D01*
X140742827Y-93557355D01*
X141533384Y-92341655D01*
X142113356Y-91412583D01*
X142448769Y-90822225D01*
X142518406Y-90629355D01*
X142344140Y-90344606D01*
X141902898Y-89676527D01*
X141229546Y-88676425D01*
X140358947Y-87395608D01*
X139325966Y-85885383D01*
X138165467Y-84197057D01*
X137013152Y-82527707D01*
X131630208Y-74744791D01*
X131630208Y-73137969D01*
X131683930Y-72074270D01*
X131891988Y-71275061D01*
X132324718Y-70482373D01*
X132375311Y-70405219D01*
X133375091Y-69320837D01*
X134622516Y-68610462D01*
X136002994Y-68290427D01*
X137401934Y-68377067D01*
G36*
X187423180Y-67795142D02*
G01*
X188679679Y-68323947D01*
X188875674Y-68459722D01*
X189876972Y-69409796D01*
X190457017Y-70513163D01*
X190696567Y-71896965D01*
X190723466Y-72590620D01*
X190673057Y-73168853D01*
X190502715Y-73760873D01*
X190169816Y-74495886D01*
X189631736Y-75503100D01*
X189324645Y-76055683D01*
X188739727Y-77120811D01*
X188265113Y-78018327D01*
X187952997Y-78647273D01*
X187854166Y-78899954D01*
X188082770Y-79053761D01*
X188581770Y-79113556D01*
X189801274Y-79266472D01*
X191310769Y-79680946D01*
X192974785Y-80303896D01*
X194657849Y-81082243D01*
X196224489Y-81962903D01*
X196778445Y-82325222D01*
X198943313Y-84125152D01*
X200770990Y-86293107D01*
X202222642Y-88760075D01*
X203259435Y-91457045D01*
X203842535Y-94315004D01*
X203909105Y-94997038D01*
X203864047Y-97736302D01*
X203334625Y-100452694D01*
X202363224Y-103072824D01*
X200992229Y-105523298D01*
X199264027Y-107730727D01*
X197221002Y-109621718D01*
X194905540Y-111122879D01*
X194468750Y-111343292D01*
X191556803Y-112475767D01*
X188592191Y-113081777D01*
X185573442Y-113161537D01*
X183658297Y-112944201D01*
X181502707Y-112375589D01*
X179280302Y-111416040D01*
X177149741Y-110153345D01*
X175269684Y-108675292D01*
X174434279Y-107840360D01*
X172586249Y-105465830D01*
X171234940Y-102938506D01*
X170361006Y-100211373D01*
X169945099Y-97237413D01*
X169926094Y-96884759D01*
X169920281Y-96065766D01*
X179029475Y-96065766D01*
X179066817Y-97160378D01*
X179243602Y-98065862D01*
X179621938Y-99040300D01*
X179871145Y-99563259D01*
X180972122Y-101248620D01*
X182384423Y-102547572D01*
X184033669Y-103433952D01*
X185845479Y-103881596D01*
X187745473Y-103864340D01*
X189659271Y-103356021D01*
X190103125Y-103162408D01*
X191728029Y-102129205D01*
X193045906Y-100749938D01*
X194002716Y-99118830D01*
X194544422Y-97330104D01*
X194616985Y-95477981D01*
X194599914Y-95321693D01*
X194109805Y-93310422D01*
X193182373Y-91552043D01*
X191860700Y-90102732D01*
X190187870Y-89018668D01*
X189558323Y-88747674D01*
X188197162Y-88431922D01*
X186608908Y-88374717D01*
X184999745Y-88560478D01*
X183575861Y-88973622D01*
X183030906Y-89240966D01*
X181372834Y-90496217D01*
X180135416Y-92051380D01*
X179346361Y-93859191D01*
X179033380Y-95872389D01*
X179029475Y-96065766D01*
X169920281Y-96065766D01*
X169910226Y-94649480D01*
X170110126Y-92728106D01*
X170560134Y-90937452D01*
X171294592Y-89094328D01*
X171447769Y-88767708D01*
X171926667Y-87817667D01*
X172599572Y-86557901D01*
X173432226Y-85046710D01*
X174390368Y-83342396D01*
X175439740Y-81503259D01*
X176546081Y-79587601D01*
X177675132Y-77653723D01*
X178792634Y-75759926D01*
X179864325Y-73964510D01*
X180855948Y-72325778D01*
X181733242Y-70902029D01*
X182461948Y-69751566D01*
X183007806Y-68932689D01*
X183336556Y-68503699D01*
X183377301Y-68466720D01*
X184595784Y-67866753D01*
X186003146Y-67642819D01*
X187423180Y-67795142D01*
G37*
X187423180Y-67795142D02*
X188679679Y-68323947D01*
X188875674Y-68459722D01*
X189876972Y-69409796D01*
X190457017Y-70513163D01*
X190696567Y-71896965D01*
X190723466Y-72590620D01*
X190673057Y-73168853D01*
X190502715Y-73760873D01*
X190169816Y-74495886D01*
X189631736Y-75503100D01*
X189324645Y-76055683D01*
X188739727Y-77120811D01*
X188265113Y-78018327D01*
X187952997Y-78647273D01*
X187854166Y-78899954D01*
X188082770Y-79053761D01*
X188581770Y-79113556D01*
X189801274Y-79266472D01*
X191310769Y-79680946D01*
X192974785Y-80303896D01*
X194657849Y-81082243D01*
X196224489Y-81962903D01*
X196778445Y-82325222D01*
X198943313Y-84125152D01*
X200770990Y-86293107D01*
X202222642Y-88760075D01*
X203259435Y-91457045D01*
X203842535Y-94315004D01*
X203909105Y-94997038D01*
X203864047Y-97736302D01*
X203334625Y-100452694D01*
X202363224Y-103072824D01*
X200992229Y-105523298D01*
X199264027Y-107730727D01*
X197221002Y-109621718D01*
X194905540Y-111122879D01*
X194468750Y-111343292D01*
X191556803Y-112475767D01*
X188592191Y-113081777D01*
X185573442Y-113161537D01*
X183658297Y-112944201D01*
X181502707Y-112375589D01*
X179280302Y-111416040D01*
X177149741Y-110153345D01*
X175269684Y-108675292D01*
X174434279Y-107840360D01*
X172586249Y-105465830D01*
X171234940Y-102938506D01*
X170361006Y-100211373D01*
X169945099Y-97237413D01*
X169926094Y-96884759D01*
X169920281Y-96065766D01*
X179029475Y-96065766D01*
X179066817Y-97160378D01*
X179243602Y-98065862D01*
X179621938Y-99040300D01*
X179871145Y-99563259D01*
X180972122Y-101248620D01*
X182384423Y-102547572D01*
X184033669Y-103433952D01*
X185845479Y-103881596D01*
X187745473Y-103864340D01*
X189659271Y-103356021D01*
X190103125Y-103162408D01*
X191728029Y-102129205D01*
X193045906Y-100749938D01*
X194002716Y-99118830D01*
X194544422Y-97330104D01*
X194616985Y-95477981D01*
X194599914Y-95321693D01*
X194109805Y-93310422D01*
X193182373Y-91552043D01*
X191860700Y-90102732D01*
X190187870Y-89018668D01*
X189558323Y-88747674D01*
X188197162Y-88431922D01*
X186608908Y-88374717D01*
X184999745Y-88560478D01*
X183575861Y-88973622D01*
X183030906Y-89240966D01*
X181372834Y-90496217D01*
X180135416Y-92051380D01*
X179346361Y-93859191D01*
X179033380Y-95872389D01*
X179029475Y-96065766D01*
X169920281Y-96065766D01*
X169910226Y-94649480D01*
X170110126Y-92728106D01*
X170560134Y-90937452D01*
X171294592Y-89094328D01*
X171447769Y-88767708D01*
X171926667Y-87817667D01*
X172599572Y-86557901D01*
X173432226Y-85046710D01*
X174390368Y-83342396D01*
X175439740Y-81503259D01*
X176546081Y-79587601D01*
X177675132Y-77653723D01*
X178792634Y-75759926D01*
X179864325Y-73964510D01*
X180855948Y-72325778D01*
X181733242Y-70902029D01*
X182461948Y-69751566D01*
X183007806Y-68932689D01*
X183336556Y-68503699D01*
X183377301Y-68466720D01*
X184595784Y-67866753D01*
X186003146Y-67642819D01*
X187423180Y-67795142D01*
G36*
X227447000Y-79456107D02*
G01*
X230175119Y-80272974D01*
X232762366Y-81570665D01*
X235160775Y-83341969D01*
X236012433Y-84137499D01*
X238016996Y-86470955D01*
X239530344Y-88991838D01*
X240547743Y-91689146D01*
X241064462Y-94551876D01*
X241133595Y-96043749D01*
X241066393Y-98058000D01*
X240815766Y-99796504D01*
X240332898Y-101471451D01*
X239568970Y-103295030D01*
X239368296Y-103716666D01*
X238135480Y-105785988D01*
X236524506Y-107765311D01*
X234659275Y-109529362D01*
X232663686Y-110952867D01*
X231687795Y-111482319D01*
X228931773Y-112531201D01*
X226018458Y-113113676D01*
X223054945Y-113216914D01*
X220255537Y-112851809D01*
X217974148Y-112146142D01*
X215699933Y-111061825D01*
X213577151Y-109686992D01*
X211750060Y-108109779D01*
X210864862Y-107114518D01*
X209171184Y-104570433D01*
X207978152Y-101855210D01*
X207284203Y-98964379D01*
X207099437Y-96497714D01*
X216286528Y-96497714D01*
X216591702Y-98324099D01*
X217303652Y-100037215D01*
X218385895Y-101560533D01*
X219801948Y-102817520D01*
X221515330Y-103731645D01*
X222382291Y-104013042D01*
X223595295Y-104153360D01*
X225031203Y-104053724D01*
X226458002Y-103744487D01*
X227476516Y-103346603D01*
X229144617Y-102220474D01*
X230446659Y-100780409D01*
X231354667Y-99106661D01*
X231840664Y-97279485D01*
X231876675Y-95379135D01*
X231434723Y-93485864D01*
X231148758Y-92812153D01*
X230092811Y-91157520D01*
X228749625Y-89888362D01*
X227194490Y-89004684D01*
X225502700Y-88506492D01*
X223749546Y-88393789D01*
X222010321Y-88666581D01*
X220360316Y-89324873D01*
X218874824Y-90368668D01*
X217629136Y-91797972D01*
X217042434Y-92811268D01*
X216424611Y-94634593D01*
X216286528Y-96497714D01*
X207099437Y-96497714D01*
X207085251Y-96308333D01*
X207150404Y-94295131D01*
X207397119Y-92555792D01*
X207873578Y-90877210D01*
X208627962Y-89046280D01*
X208820059Y-88635416D01*
X210019148Y-86607794D01*
X211612497Y-84650937D01*
X213469126Y-82899957D01*
X215458054Y-81489969D01*
X216085080Y-81141124D01*
X218897048Y-79962572D01*
X221760000Y-79293694D01*
X224625972Y-79127276D01*
X227447000Y-79456107D01*
G37*
X227447000Y-79456107D02*
X230175119Y-80272974D01*
X232762366Y-81570665D01*
X235160775Y-83341969D01*
X236012433Y-84137499D01*
X238016996Y-86470955D01*
X239530344Y-88991838D01*
X240547743Y-91689146D01*
X241064462Y-94551876D01*
X241133595Y-96043749D01*
X241066393Y-98058000D01*
X240815766Y-99796504D01*
X240332898Y-101471451D01*
X239568970Y-103295030D01*
X239368296Y-103716666D01*
X238135480Y-105785988D01*
X236524506Y-107765311D01*
X234659275Y-109529362D01*
X232663686Y-110952867D01*
X231687795Y-111482319D01*
X228931773Y-112531201D01*
X226018458Y-113113676D01*
X223054945Y-113216914D01*
X220255537Y-112851809D01*
X217974148Y-112146142D01*
X215699933Y-111061825D01*
X213577151Y-109686992D01*
X211750060Y-108109779D01*
X210864862Y-107114518D01*
X209171184Y-104570433D01*
X207978152Y-101855210D01*
X207284203Y-98964379D01*
X207099437Y-96497714D01*
X216286528Y-96497714D01*
X216591702Y-98324099D01*
X217303652Y-100037215D01*
X218385895Y-101560533D01*
X219801948Y-102817520D01*
X221515330Y-103731645D01*
X222382291Y-104013042D01*
X223595295Y-104153360D01*
X225031203Y-104053724D01*
X226458002Y-103744487D01*
X227476516Y-103346603D01*
X229144617Y-102220474D01*
X230446659Y-100780409D01*
X231354667Y-99106661D01*
X231840664Y-97279485D01*
X231876675Y-95379135D01*
X231434723Y-93485864D01*
X231148758Y-92812153D01*
X230092811Y-91157520D01*
X228749625Y-89888362D01*
X227194490Y-89004684D01*
X225502700Y-88506492D01*
X223749546Y-88393789D01*
X222010321Y-88666581D01*
X220360316Y-89324873D01*
X218874824Y-90368668D01*
X217629136Y-91797972D01*
X217042434Y-92811268D01*
X216424611Y-94634593D01*
X216286528Y-96497714D01*
X207099437Y-96497714D01*
X207085251Y-96308333D01*
X207150404Y-94295131D01*
X207397119Y-92555792D01*
X207873578Y-90877210D01*
X208627962Y-89046280D01*
X208820059Y-88635416D01*
X210019148Y-86607794D01*
X211612497Y-84650937D01*
X213469126Y-82899957D01*
X215458054Y-81489969D01*
X216085080Y-81141124D01*
X218897048Y-79962572D01*
X221760000Y-79293694D01*
X224625972Y-79127276D01*
X227447000Y-79456107D01*
G36*
X70636696Y-68458549D02*
G01*
X71914037Y-69019269D01*
X72831957Y-69826053D01*
X73111027Y-70174928D01*
X73346447Y-70534019D01*
X73541539Y-70948756D01*
X73699623Y-71464568D01*
X73824021Y-72126886D01*
X73918056Y-72981139D01*
X73985048Y-74072755D01*
X74028318Y-75447166D01*
X74051189Y-77149799D01*
X74056981Y-79226086D01*
X74049017Y-81721455D01*
X74030617Y-84681335D01*
X74020513Y-86082529D01*
X73996674Y-89117962D01*
X73972374Y-91671971D01*
X73945760Y-93792297D01*
X73914975Y-95526679D01*
X73878167Y-96922859D01*
X73833478Y-98028578D01*
X73779055Y-98891575D01*
X73713042Y-99559592D01*
X73633585Y-100080368D01*
X73538829Y-100501646D01*
X73448439Y-100806249D01*
X72295600Y-103559756D01*
X70737567Y-106053831D01*
X68824573Y-108228810D01*
X66606848Y-110025027D01*
X64805887Y-111071942D01*
X61951914Y-112196730D01*
X58982144Y-112828124D01*
X55967260Y-112957147D01*
X52977943Y-112574821D01*
X52976155Y-112574433D01*
X50349927Y-111741046D01*
X47871114Y-110441874D01*
X45611177Y-108734818D01*
X43641578Y-106677780D01*
X42033775Y-104328661D01*
X41478680Y-103258497D01*
X41129665Y-102515881D01*
X40834634Y-101854408D01*
X40588734Y-101223338D01*
X40387109Y-100571931D01*
X40224907Y-99849447D01*
X40097271Y-99005146D01*
X39999349Y-97988286D01*
X39926286Y-96748129D01*
X39873227Y-95233933D01*
X39835320Y-93394958D01*
X39807708Y-91180464D01*
X39785539Y-88539711D01*
X39763958Y-85421958D01*
X39763320Y-85328125D01*
X39741545Y-82191131D01*
X39725850Y-79538043D01*
X39721476Y-77323601D01*
X39733665Y-75502543D01*
X39767659Y-74029611D01*
X39828699Y-72859542D01*
X39922028Y-71947077D01*
X40052886Y-71246956D01*
X40226515Y-70713919D01*
X40448157Y-70302704D01*
X40723054Y-69968051D01*
X41056448Y-69664701D01*
X41453579Y-69347393D01*
X41630288Y-69207354D01*
X42285858Y-68740721D01*
X42899381Y-68495616D01*
X43693452Y-68404174D01*
X44295507Y-68394791D01*
X45831691Y-68575102D01*
X47077780Y-69153362D01*
X48139074Y-70185568D01*
X48442609Y-70600045D01*
X49080208Y-71530101D01*
X49212500Y-85043696D01*
X49242552Y-88064388D01*
X49270050Y-90602208D01*
X49297266Y-92703430D01*
X49326468Y-94414327D01*
X49359926Y-95781172D01*
X49399912Y-96850239D01*
X49448695Y-97667800D01*
X49508544Y-98280129D01*
X49581731Y-98733500D01*
X49670526Y-99074184D01*
X49777197Y-99348456D01*
X49904016Y-99602589D01*
X49929042Y-99649548D01*
X51043251Y-101210134D01*
X52470051Y-102407973D01*
X54122767Y-103227597D01*
X55914725Y-103653539D01*
X57759248Y-103670332D01*
X59569663Y-103262509D01*
X61259294Y-102414603D01*
X62042638Y-101811203D01*
X62870575Y-100950447D01*
X63643118Y-99933347D01*
X63975544Y-99383677D01*
X64690625Y-98028124D01*
X64822916Y-84534375D01*
X64955208Y-71040624D01*
X65590491Y-70149897D01*
X66603244Y-69147629D01*
X67861637Y-68528080D01*
X69246009Y-68296603D01*
X70636696Y-68458549D01*
G37*
X70636696Y-68458549D02*
X71914037Y-69019269D01*
X72831957Y-69826053D01*
X73111027Y-70174928D01*
X73346447Y-70534019D01*
X73541539Y-70948756D01*
X73699623Y-71464568D01*
X73824021Y-72126886D01*
X73918056Y-72981139D01*
X73985048Y-74072755D01*
X74028318Y-75447166D01*
X74051189Y-77149799D01*
X74056981Y-79226086D01*
X74049017Y-81721455D01*
X74030617Y-84681335D01*
X74020513Y-86082529D01*
X73996674Y-89117962D01*
X73972374Y-91671971D01*
X73945760Y-93792297D01*
X73914975Y-95526679D01*
X73878167Y-96922859D01*
X73833478Y-98028578D01*
X73779055Y-98891575D01*
X73713042Y-99559592D01*
X73633585Y-100080368D01*
X73538829Y-100501646D01*
X73448439Y-100806249D01*
X72295600Y-103559756D01*
X70737567Y-106053831D01*
X68824573Y-108228810D01*
X66606848Y-110025027D01*
X64805887Y-111071942D01*
X61951914Y-112196730D01*
X58982144Y-112828124D01*
X55967260Y-112957147D01*
X52977943Y-112574821D01*
X52976155Y-112574433D01*
X50349927Y-111741046D01*
X47871114Y-110441874D01*
X45611177Y-108734818D01*
X43641578Y-106677780D01*
X42033775Y-104328661D01*
X41478680Y-103258497D01*
X41129665Y-102515881D01*
X40834634Y-101854408D01*
X40588734Y-101223338D01*
X40387109Y-100571931D01*
X40224907Y-99849447D01*
X40097271Y-99005146D01*
X39999349Y-97988286D01*
X39926286Y-96748129D01*
X39873227Y-95233933D01*
X39835320Y-93394958D01*
X39807708Y-91180464D01*
X39785539Y-88539711D01*
X39763958Y-85421958D01*
X39763320Y-85328125D01*
X39741545Y-82191131D01*
X39725850Y-79538043D01*
X39721476Y-77323601D01*
X39733665Y-75502543D01*
X39767659Y-74029611D01*
X39828699Y-72859542D01*
X39922028Y-71947077D01*
X40052886Y-71246956D01*
X40226515Y-70713919D01*
X40448157Y-70302704D01*
X40723054Y-69968051D01*
X41056448Y-69664701D01*
X41453579Y-69347393D01*
X41630288Y-69207354D01*
X42285858Y-68740721D01*
X42899381Y-68495616D01*
X43693452Y-68404174D01*
X44295507Y-68394791D01*
X45831691Y-68575102D01*
X47077780Y-69153362D01*
X48139074Y-70185568D01*
X48442609Y-70600045D01*
X49080208Y-71530101D01*
X49212500Y-85043696D01*
X49242552Y-88064388D01*
X49270050Y-90602208D01*
X49297266Y-92703430D01*
X49326468Y-94414327D01*
X49359926Y-95781172D01*
X49399912Y-96850239D01*
X49448695Y-97667800D01*
X49508544Y-98280129D01*
X49581731Y-98733500D01*
X49670526Y-99074184D01*
X49777197Y-99348456D01*
X49904016Y-99602589D01*
X49929042Y-99649548D01*
X51043251Y-101210134D01*
X52470051Y-102407973D01*
X54122767Y-103227597D01*
X55914725Y-103653539D01*
X57759248Y-103670332D01*
X59569663Y-103262509D01*
X61259294Y-102414603D01*
X62042638Y-101811203D01*
X62870575Y-100950447D01*
X63643118Y-99933347D01*
X63975544Y-99383677D01*
X64690625Y-98028124D01*
X64822916Y-84534375D01*
X64955208Y-71040624D01*
X65590491Y-70149897D01*
X66603244Y-69147629D01*
X67861637Y-68528080D01*
X69246009Y-68296603D01*
X70636696Y-68458549D01*
G04 #@! TD*
M02*
