G04 #@! TF.GenerationSoftware,KiCad,Pcbnew,5.1.8*
G04 #@! TF.CreationDate,2020-11-23T09:17:22-05:00*
G04 #@! TF.ProjectId,unix60pcb,756e6978-3630-4706-9362-2e6b69636164,rev?*
G04 #@! TF.SameCoordinates,Original*
G04 #@! TF.FileFunction,Copper,L2,Bot*
G04 #@! TF.FilePolarity,Positive*
%FSLAX46Y46*%
G04 Gerber Fmt 4.6, Leading zero omitted, Abs format (unit mm)*
G04 Created by KiCad (PCBNEW 5.1.8) date 2020-11-23 09:17:22*
%MOMM*%
%LPD*%
G01*
G04 APERTURE LIST*
G04 #@! TA.AperFunction,EtchedComponent*
%ADD10C,0.010000*%
G04 #@! TD*
G04 #@! TA.AperFunction,SMDPad,CuDef*
%ADD11R,2.500000X0.500000*%
G04 #@! TD*
G04 #@! TA.AperFunction,ComponentPad*
%ADD12C,1.600000*%
G04 #@! TD*
G04 #@! TA.AperFunction,ComponentPad*
%ADD13R,1.600000X1.600000*%
G04 #@! TD*
G04 #@! TA.AperFunction,SMDPad,CuDef*
%ADD14R,1.200000X1.200000*%
G04 #@! TD*
G04 #@! TA.AperFunction,ComponentPad*
%ADD15R,1.700000X1.700000*%
G04 #@! TD*
G04 #@! TA.AperFunction,ComponentPad*
%ADD16O,1.700000X1.700000*%
G04 #@! TD*
G04 #@! TA.AperFunction,SMDPad,CuDef*
%ADD17R,0.500000X2.500000*%
G04 #@! TD*
G04 #@! TA.AperFunction,ComponentPad*
%ADD18C,2.250000*%
G04 #@! TD*
G04 #@! TA.AperFunction,SMDPad,CuDef*
%ADD19R,1.700000X1.000000*%
G04 #@! TD*
G04 #@! TA.AperFunction,ViaPad*
%ADD20C,0.800000*%
G04 #@! TD*
G04 #@! TA.AperFunction,Conductor*
%ADD21C,0.250000*%
G04 #@! TD*
G04 APERTURE END LIST*
D10*
G04 #@! TO.C,G\u002A\u002A\u002A*
G36*
X198367484Y-96341800D02*
G01*
X198329803Y-96484013D01*
X198386967Y-96604933D01*
X198539076Y-96694823D01*
X198649107Y-96621787D01*
X198669910Y-96576971D01*
X198673661Y-96397215D01*
X198560382Y-96287169D01*
X198494479Y-96276584D01*
X198367484Y-96341800D01*
G37*
X198367484Y-96341800D02*
X198329803Y-96484013D01*
X198386967Y-96604933D01*
X198539076Y-96694823D01*
X198649107Y-96621787D01*
X198669910Y-96576971D01*
X198673661Y-96397215D01*
X198560382Y-96287169D01*
X198494479Y-96276584D01*
X198367484Y-96341800D01*
G36*
X173270796Y-96801677D02*
G01*
X173011330Y-96826412D01*
X172880597Y-96873522D01*
X172838050Y-96961169D01*
X172836417Y-96996250D01*
X172867457Y-97107792D01*
X172988849Y-97166291D01*
X173196250Y-97191618D01*
X173436061Y-97230783D01*
X173544614Y-97289558D01*
X173512640Y-97345491D01*
X173330874Y-97376131D01*
X173272873Y-97377250D01*
X172994237Y-97437887D01*
X172801457Y-97593248D01*
X172715099Y-97803513D01*
X172755729Y-98028858D01*
X172864251Y-98168461D01*
X173038663Y-98255149D01*
X173290178Y-98303218D01*
X173561580Y-98311762D01*
X173795657Y-98279873D01*
X173935195Y-98206643D01*
X173947244Y-98185638D01*
X173959573Y-98022087D01*
X173836082Y-97922790D01*
X173564489Y-97879493D01*
X173487587Y-97876745D01*
X173090417Y-97868240D01*
X173422454Y-97790382D01*
X173735167Y-97691217D01*
X173909386Y-97559174D01*
X173975871Y-97366522D01*
X173979417Y-97288264D01*
X173926490Y-97021952D01*
X173759017Y-96862031D01*
X173463962Y-96799549D01*
X173270796Y-96801677D01*
G37*
X173270796Y-96801677D02*
X173011330Y-96826412D01*
X172880597Y-96873522D01*
X172838050Y-96961169D01*
X172836417Y-96996250D01*
X172867457Y-97107792D01*
X172988849Y-97166291D01*
X173196250Y-97191618D01*
X173436061Y-97230783D01*
X173544614Y-97289558D01*
X173512640Y-97345491D01*
X173330874Y-97376131D01*
X173272873Y-97377250D01*
X172994237Y-97437887D01*
X172801457Y-97593248D01*
X172715099Y-97803513D01*
X172755729Y-98028858D01*
X172864251Y-98168461D01*
X173038663Y-98255149D01*
X173290178Y-98303218D01*
X173561580Y-98311762D01*
X173795657Y-98279873D01*
X173935195Y-98206643D01*
X173947244Y-98185638D01*
X173959573Y-98022087D01*
X173836082Y-97922790D01*
X173564489Y-97879493D01*
X173487587Y-97876745D01*
X173090417Y-97868240D01*
X173422454Y-97790382D01*
X173735167Y-97691217D01*
X173909386Y-97559174D01*
X173975871Y-97366522D01*
X173979417Y-97288264D01*
X173926490Y-97021952D01*
X173759017Y-96862031D01*
X173463962Y-96799549D01*
X173270796Y-96801677D01*
G36*
X174256786Y-96332187D02*
G01*
X174226169Y-96370079D01*
X174178086Y-96540132D01*
X174154900Y-96820036D01*
X174155946Y-97152250D01*
X174180557Y-97479233D01*
X174228069Y-97743444D01*
X174242596Y-97790522D01*
X174414917Y-98059327D01*
X174682110Y-98235196D01*
X174993106Y-98300547D01*
X175296839Y-98237798D01*
X175388243Y-98184956D01*
X175618647Y-97937798D01*
X175714591Y-97644754D01*
X175711105Y-97604864D01*
X175301012Y-97604864D01*
X175218436Y-97779189D01*
X175035735Y-97866336D01*
X174790675Y-97833858D01*
X174687654Y-97714569D01*
X174656750Y-97546584D01*
X174719524Y-97336839D01*
X174871155Y-97220610D01*
X175056611Y-97213621D01*
X175220859Y-97331596D01*
X175249417Y-97377250D01*
X175301012Y-97604864D01*
X175711105Y-97604864D01*
X175688346Y-97344456D01*
X175552185Y-97075536D01*
X175318378Y-96876628D01*
X174999198Y-96786365D01*
X174943424Y-96784584D01*
X174742254Y-96756012D01*
X174644129Y-96643331D01*
X174621073Y-96569291D01*
X174526144Y-96380633D01*
X174389013Y-96293678D01*
X174256786Y-96332187D01*
G37*
X174256786Y-96332187D02*
X174226169Y-96370079D01*
X174178086Y-96540132D01*
X174154900Y-96820036D01*
X174155946Y-97152250D01*
X174180557Y-97479233D01*
X174228069Y-97743444D01*
X174242596Y-97790522D01*
X174414917Y-98059327D01*
X174682110Y-98235196D01*
X174993106Y-98300547D01*
X175296839Y-98237798D01*
X175388243Y-98184956D01*
X175618647Y-97937798D01*
X175714591Y-97644754D01*
X175711105Y-97604864D01*
X175301012Y-97604864D01*
X175218436Y-97779189D01*
X175035735Y-97866336D01*
X174790675Y-97833858D01*
X174687654Y-97714569D01*
X174656750Y-97546584D01*
X174719524Y-97336839D01*
X174871155Y-97220610D01*
X175056611Y-97213621D01*
X175220859Y-97331596D01*
X175249417Y-97377250D01*
X175301012Y-97604864D01*
X175711105Y-97604864D01*
X175688346Y-97344456D01*
X175552185Y-97075536D01*
X175318378Y-96876628D01*
X174999198Y-96786365D01*
X174943424Y-96784584D01*
X174742254Y-96756012D01*
X174644129Y-96643331D01*
X174621073Y-96569291D01*
X174526144Y-96380633D01*
X174389013Y-96293678D01*
X174256786Y-96332187D01*
G36*
X175882696Y-96798783D02*
G01*
X175804473Y-96861610D01*
X175789354Y-97018781D01*
X175883498Y-97160042D01*
X176010109Y-97207917D01*
X176186712Y-97261460D01*
X176299132Y-97435339D01*
X176358479Y-97749427D01*
X176365835Y-97844305D01*
X176403676Y-98128334D01*
X176476531Y-98267817D01*
X176523546Y-98289582D01*
X176674117Y-98278769D01*
X176714046Y-98255066D01*
X176747210Y-98143243D01*
X176768760Y-97919639D01*
X176773417Y-97737626D01*
X176759215Y-97445209D01*
X176699794Y-97249042D01*
X176569937Y-97077228D01*
X176525930Y-97032071D01*
X176305331Y-96870212D01*
X176073648Y-96788369D01*
X175882696Y-96798783D01*
G37*
X175882696Y-96798783D02*
X175804473Y-96861610D01*
X175789354Y-97018781D01*
X175883498Y-97160042D01*
X176010109Y-97207917D01*
X176186712Y-97261460D01*
X176299132Y-97435339D01*
X176358479Y-97749427D01*
X176365835Y-97844305D01*
X176403676Y-98128334D01*
X176476531Y-98267817D01*
X176523546Y-98289582D01*
X176674117Y-98278769D01*
X176714046Y-98255066D01*
X176747210Y-98143243D01*
X176768760Y-97919639D01*
X176773417Y-97737626D01*
X176759215Y-97445209D01*
X176699794Y-97249042D01*
X176569937Y-97077228D01*
X176525930Y-97032071D01*
X176305331Y-96870212D01*
X176073648Y-96788369D01*
X175882696Y-96798783D01*
G36*
X177320462Y-96920512D02*
G01*
X177185946Y-97036362D01*
X177041993Y-97197904D01*
X176970746Y-97352191D01*
X176952224Y-97564616D01*
X176959626Y-97777077D01*
X176985084Y-98266014D01*
X177477925Y-98287803D01*
X177770119Y-98291481D01*
X177958818Y-98256991D01*
X178108862Y-98164537D01*
X178218759Y-98061601D01*
X178424855Y-97765065D01*
X178439427Y-97647296D01*
X178017318Y-97647296D01*
X177955375Y-97762317D01*
X177768961Y-97874121D01*
X177560178Y-97846628D01*
X177454126Y-97762317D01*
X177379051Y-97558967D01*
X177450234Y-97355770D01*
X177556584Y-97259758D01*
X177746301Y-97216708D01*
X177910365Y-97297237D01*
X178012721Y-97455911D01*
X178017318Y-97647296D01*
X178439427Y-97647296D01*
X178462330Y-97462198D01*
X178331178Y-97161890D01*
X178219263Y-97032071D01*
X177923345Y-96826153D01*
X177621225Y-96788977D01*
X177320462Y-96920512D01*
G37*
X177320462Y-96920512D02*
X177185946Y-97036362D01*
X177041993Y-97197904D01*
X176970746Y-97352191D01*
X176952224Y-97564616D01*
X176959626Y-97777077D01*
X176985084Y-98266014D01*
X177477925Y-98287803D01*
X177770119Y-98291481D01*
X177958818Y-98256991D01*
X178108862Y-98164537D01*
X178218759Y-98061601D01*
X178424855Y-97765065D01*
X178439427Y-97647296D01*
X178017318Y-97647296D01*
X177955375Y-97762317D01*
X177768961Y-97874121D01*
X177560178Y-97846628D01*
X177454126Y-97762317D01*
X177379051Y-97558967D01*
X177450234Y-97355770D01*
X177556584Y-97259758D01*
X177746301Y-97216708D01*
X177910365Y-97297237D01*
X178012721Y-97455911D01*
X178017318Y-97647296D01*
X178439427Y-97647296D01*
X178462330Y-97462198D01*
X178331178Y-97161890D01*
X178219263Y-97032071D01*
X177923345Y-96826153D01*
X177621225Y-96788977D01*
X177320462Y-96920512D01*
G36*
X179098864Y-96858784D02*
G01*
X178838508Y-97053105D01*
X178673802Y-97325127D01*
X178638777Y-97532943D01*
X178710721Y-97879047D01*
X178895567Y-98132101D01*
X179156935Y-98277020D01*
X179458445Y-98298721D01*
X179763717Y-98182120D01*
X179912597Y-98061096D01*
X180113107Y-97779064D01*
X180139733Y-97647296D01*
X179710652Y-97647296D01*
X179648708Y-97762317D01*
X179462294Y-97874121D01*
X179253512Y-97846628D01*
X179147459Y-97762317D01*
X179072384Y-97558967D01*
X179143568Y-97355770D01*
X179249917Y-97259758D01*
X179439635Y-97216708D01*
X179603698Y-97297237D01*
X179706055Y-97455911D01*
X179710652Y-97647296D01*
X180139733Y-97647296D01*
X180160084Y-97546584D01*
X180085530Y-97263095D01*
X179894302Y-97009168D01*
X179635049Y-96834298D01*
X179411093Y-96784584D01*
X179098864Y-96858784D01*
G37*
X179098864Y-96858784D02*
X178838508Y-97053105D01*
X178673802Y-97325127D01*
X178638777Y-97532943D01*
X178710721Y-97879047D01*
X178895567Y-98132101D01*
X179156935Y-98277020D01*
X179458445Y-98298721D01*
X179763717Y-98182120D01*
X179912597Y-98061096D01*
X180113107Y-97779064D01*
X180139733Y-97647296D01*
X179710652Y-97647296D01*
X179648708Y-97762317D01*
X179462294Y-97874121D01*
X179253512Y-97846628D01*
X179147459Y-97762317D01*
X179072384Y-97558967D01*
X179143568Y-97355770D01*
X179249917Y-97259758D01*
X179439635Y-97216708D01*
X179603698Y-97297237D01*
X179706055Y-97455911D01*
X179710652Y-97647296D01*
X180139733Y-97647296D01*
X180160084Y-97546584D01*
X180085530Y-97263095D01*
X179894302Y-97009168D01*
X179635049Y-96834298D01*
X179411093Y-96784584D01*
X179098864Y-96858784D01*
G36*
X180611402Y-96349434D02*
G01*
X180455223Y-96486433D01*
X180375114Y-96730327D01*
X180348226Y-97106655D01*
X180347236Y-97295619D01*
X180362761Y-97725312D01*
X180420588Y-98014014D01*
X180544267Y-98189022D01*
X180757349Y-98277636D01*
X181083383Y-98307157D01*
X181221074Y-98308584D01*
X181572079Y-98293068D01*
X181767925Y-98245094D01*
X181816873Y-98197026D01*
X181832498Y-98069561D01*
X181840691Y-97814096D01*
X181840690Y-97673584D01*
X181430084Y-97673584D01*
X181414189Y-97817554D01*
X181333780Y-97873408D01*
X181139774Y-97871387D01*
X181112584Y-97869194D01*
X180896528Y-97831880D01*
X180806404Y-97751009D01*
X180795084Y-97673584D01*
X180831520Y-97555338D01*
X180969168Y-97495880D01*
X181112584Y-97477973D01*
X181320474Y-97471875D01*
X181409918Y-97520667D01*
X181430001Y-97654588D01*
X181430084Y-97673584D01*
X181840690Y-97673584D01*
X181840687Y-97471836D01*
X181835383Y-97202193D01*
X181827389Y-96911584D01*
X181430084Y-96911584D01*
X181414189Y-97055554D01*
X181333780Y-97111408D01*
X181139774Y-97109387D01*
X181112584Y-97107194D01*
X180896528Y-97069880D01*
X180806404Y-96989009D01*
X180795084Y-96911584D01*
X180831520Y-96793338D01*
X180969168Y-96733880D01*
X181112584Y-96715973D01*
X181320474Y-96709875D01*
X181409918Y-96758667D01*
X181430001Y-96892588D01*
X181430084Y-96911584D01*
X181827389Y-96911584D01*
X181811084Y-96318917D01*
X181243366Y-96293968D01*
X180866501Y-96293792D01*
X180611402Y-96349434D01*
G37*
X180611402Y-96349434D02*
X180455223Y-96486433D01*
X180375114Y-96730327D01*
X180348226Y-97106655D01*
X180347236Y-97295619D01*
X180362761Y-97725312D01*
X180420588Y-98014014D01*
X180544267Y-98189022D01*
X180757349Y-98277636D01*
X181083383Y-98307157D01*
X181221074Y-98308584D01*
X181572079Y-98293068D01*
X181767925Y-98245094D01*
X181816873Y-98197026D01*
X181832498Y-98069561D01*
X181840691Y-97814096D01*
X181840690Y-97673584D01*
X181430084Y-97673584D01*
X181414189Y-97817554D01*
X181333780Y-97873408D01*
X181139774Y-97871387D01*
X181112584Y-97869194D01*
X180896528Y-97831880D01*
X180806404Y-97751009D01*
X180795084Y-97673584D01*
X180831520Y-97555338D01*
X180969168Y-97495880D01*
X181112584Y-97477973D01*
X181320474Y-97471875D01*
X181409918Y-97520667D01*
X181430001Y-97654588D01*
X181430084Y-97673584D01*
X181840690Y-97673584D01*
X181840687Y-97471836D01*
X181835383Y-97202193D01*
X181827389Y-96911584D01*
X181430084Y-96911584D01*
X181414189Y-97055554D01*
X181333780Y-97111408D01*
X181139774Y-97109387D01*
X181112584Y-97107194D01*
X180896528Y-97069880D01*
X180806404Y-96989009D01*
X180795084Y-96911584D01*
X180831520Y-96793338D01*
X180969168Y-96733880D01*
X181112584Y-96715973D01*
X181320474Y-96709875D01*
X181409918Y-96758667D01*
X181430001Y-96892588D01*
X181430084Y-96911584D01*
X181827389Y-96911584D01*
X181811084Y-96318917D01*
X181243366Y-96293968D01*
X180866501Y-96293792D01*
X180611402Y-96349434D01*
G36*
X184155462Y-96289070D02*
G01*
X183953709Y-96338146D01*
X183799632Y-96441232D01*
X183758012Y-96480959D01*
X183543857Y-96774435D01*
X183495230Y-97073522D01*
X183609097Y-97399995D01*
X183625932Y-97429301D01*
X183735256Y-97630395D01*
X183758010Y-97751674D01*
X183699704Y-97855432D01*
X183666932Y-97892784D01*
X183578960Y-98065842D01*
X183597540Y-98224155D01*
X183711930Y-98306533D01*
X183739920Y-98308584D01*
X183866218Y-98251551D01*
X184041995Y-98109290D01*
X184097084Y-98054584D01*
X184272396Y-97895043D01*
X184413029Y-97806774D01*
X184441008Y-97800584D01*
X184526197Y-97873918D01*
X184591595Y-98050699D01*
X184592384Y-98054584D01*
X184681480Y-98238198D01*
X184820961Y-98314659D01*
X184958492Y-98269246D01*
X185019359Y-98174659D01*
X185044999Y-98019937D01*
X185061545Y-97747068D01*
X185068995Y-97406996D01*
X185067351Y-97050662D01*
X185066948Y-97038584D01*
X184562750Y-97038584D01*
X184528942Y-97281109D01*
X184413991Y-97383528D01*
X184197612Y-97358543D01*
X184104009Y-97325858D01*
X184000987Y-97206569D01*
X183970084Y-97038584D01*
X184025005Y-96827484D01*
X184200578Y-96720149D01*
X184400342Y-96699917D01*
X184507118Y-96730901D01*
X184554169Y-96852686D01*
X184562750Y-97038584D01*
X185066948Y-97038584D01*
X185056612Y-96729010D01*
X185036778Y-96492981D01*
X185019359Y-96410508D01*
X184941388Y-96329996D01*
X184763236Y-96288138D01*
X184465177Y-96276584D01*
X184155462Y-96289070D01*
G37*
X184155462Y-96289070D02*
X183953709Y-96338146D01*
X183799632Y-96441232D01*
X183758012Y-96480959D01*
X183543857Y-96774435D01*
X183495230Y-97073522D01*
X183609097Y-97399995D01*
X183625932Y-97429301D01*
X183735256Y-97630395D01*
X183758010Y-97751674D01*
X183699704Y-97855432D01*
X183666932Y-97892784D01*
X183578960Y-98065842D01*
X183597540Y-98224155D01*
X183711930Y-98306533D01*
X183739920Y-98308584D01*
X183866218Y-98251551D01*
X184041995Y-98109290D01*
X184097084Y-98054584D01*
X184272396Y-97895043D01*
X184413029Y-97806774D01*
X184441008Y-97800584D01*
X184526197Y-97873918D01*
X184591595Y-98050699D01*
X184592384Y-98054584D01*
X184681480Y-98238198D01*
X184820961Y-98314659D01*
X184958492Y-98269246D01*
X185019359Y-98174659D01*
X185044999Y-98019937D01*
X185061545Y-97747068D01*
X185068995Y-97406996D01*
X185067351Y-97050662D01*
X185066948Y-97038584D01*
X184562750Y-97038584D01*
X184528942Y-97281109D01*
X184413991Y-97383528D01*
X184197612Y-97358543D01*
X184104009Y-97325858D01*
X184000987Y-97206569D01*
X183970084Y-97038584D01*
X184025005Y-96827484D01*
X184200578Y-96720149D01*
X184400342Y-96699917D01*
X184507118Y-96730901D01*
X184554169Y-96852686D01*
X184562750Y-97038584D01*
X185066948Y-97038584D01*
X185056612Y-96729010D01*
X185036778Y-96492981D01*
X185019359Y-96410508D01*
X184941388Y-96329996D01*
X184763236Y-96288138D01*
X184465177Y-96276584D01*
X184155462Y-96289070D01*
G36*
X185508083Y-96322916D02*
G01*
X185317587Y-96341153D01*
X185226172Y-96382985D01*
X185198746Y-96457769D01*
X185197750Y-96488250D01*
X185221941Y-96589858D01*
X185321333Y-96646628D01*
X185536156Y-96676202D01*
X185642250Y-96683175D01*
X185900819Y-96703712D01*
X186032721Y-96744183D01*
X186080500Y-96830926D01*
X186086750Y-96958341D01*
X186072362Y-97119956D01*
X185996496Y-97190694D01*
X185810099Y-97207696D01*
X185757142Y-97207917D01*
X185531175Y-97233029D01*
X185398937Y-97296604D01*
X185388614Y-97313750D01*
X185379177Y-97498614D01*
X185517547Y-97603674D01*
X185750028Y-97631250D01*
X185962842Y-97642134D01*
X186060293Y-97707039D01*
X186096258Y-97874348D01*
X186102806Y-97948046D01*
X186159485Y-98161963D01*
X186264305Y-98291318D01*
X186381122Y-98311062D01*
X186471139Y-98203284D01*
X186487775Y-98073049D01*
X186496762Y-97815178D01*
X186497233Y-97471233D01*
X186492050Y-97202193D01*
X186467750Y-96318917D01*
X185832750Y-96318917D01*
X185508083Y-96322916D01*
G37*
X185508083Y-96322916D02*
X185317587Y-96341153D01*
X185226172Y-96382985D01*
X185198746Y-96457769D01*
X185197750Y-96488250D01*
X185221941Y-96589858D01*
X185321333Y-96646628D01*
X185536156Y-96676202D01*
X185642250Y-96683175D01*
X185900819Y-96703712D01*
X186032721Y-96744183D01*
X186080500Y-96830926D01*
X186086750Y-96958341D01*
X186072362Y-97119956D01*
X185996496Y-97190694D01*
X185810099Y-97207696D01*
X185757142Y-97207917D01*
X185531175Y-97233029D01*
X185398937Y-97296604D01*
X185388614Y-97313750D01*
X185379177Y-97498614D01*
X185517547Y-97603674D01*
X185750028Y-97631250D01*
X185962842Y-97642134D01*
X186060293Y-97707039D01*
X186096258Y-97874348D01*
X186102806Y-97948046D01*
X186159485Y-98161963D01*
X186264305Y-98291318D01*
X186381122Y-98311062D01*
X186471139Y-98203284D01*
X186487775Y-98073049D01*
X186496762Y-97815178D01*
X186497233Y-97471233D01*
X186492050Y-97202193D01*
X186467750Y-96318917D01*
X185832750Y-96318917D01*
X185508083Y-96322916D01*
G36*
X190383858Y-96348312D02*
G01*
X190268660Y-96487555D01*
X190235417Y-96657516D01*
X190211520Y-96774925D01*
X190107889Y-96812271D01*
X189941547Y-96800940D01*
X189646358Y-96843853D01*
X189383651Y-97014151D01*
X189198321Y-97270343D01*
X189134750Y-97546584D01*
X189211010Y-97836129D01*
X189407354Y-98091254D01*
X189675135Y-98263310D01*
X189896750Y-98308584D01*
X190188648Y-98233026D01*
X190411263Y-98061096D01*
X190532435Y-97929152D01*
X190605871Y-97800433D01*
X190639370Y-97647296D01*
X190209318Y-97647296D01*
X190147375Y-97762317D01*
X189960961Y-97874121D01*
X189752178Y-97846628D01*
X189646126Y-97762317D01*
X189571051Y-97558967D01*
X189642234Y-97355770D01*
X189748584Y-97259758D01*
X189938301Y-97216708D01*
X190102365Y-97297237D01*
X190204721Y-97455911D01*
X190209318Y-97647296D01*
X190639370Y-97647296D01*
X190643461Y-97628599D01*
X190657094Y-97367309D01*
X190658750Y-97096488D01*
X190650468Y-96714131D01*
X190623087Y-96475589D01*
X190572805Y-96356040D01*
X190542068Y-96334591D01*
X190383858Y-96348312D01*
G37*
X190383858Y-96348312D02*
X190268660Y-96487555D01*
X190235417Y-96657516D01*
X190211520Y-96774925D01*
X190107889Y-96812271D01*
X189941547Y-96800940D01*
X189646358Y-96843853D01*
X189383651Y-97014151D01*
X189198321Y-97270343D01*
X189134750Y-97546584D01*
X189211010Y-97836129D01*
X189407354Y-98091254D01*
X189675135Y-98263310D01*
X189896750Y-98308584D01*
X190188648Y-98233026D01*
X190411263Y-98061096D01*
X190532435Y-97929152D01*
X190605871Y-97800433D01*
X190639370Y-97647296D01*
X190209318Y-97647296D01*
X190147375Y-97762317D01*
X189960961Y-97874121D01*
X189752178Y-97846628D01*
X189646126Y-97762317D01*
X189571051Y-97558967D01*
X189642234Y-97355770D01*
X189748584Y-97259758D01*
X189938301Y-97216708D01*
X190102365Y-97297237D01*
X190204721Y-97455911D01*
X190209318Y-97647296D01*
X190639370Y-97647296D01*
X190643461Y-97628599D01*
X190657094Y-97367309D01*
X190658750Y-97096488D01*
X190650468Y-96714131D01*
X190623087Y-96475589D01*
X190572805Y-96356040D01*
X190542068Y-96334591D01*
X190383858Y-96348312D01*
G36*
X191719928Y-96333226D02*
G01*
X191667599Y-96397798D01*
X191636305Y-96545098D01*
X191617587Y-96807592D01*
X191607908Y-97062920D01*
X191598761Y-97422293D01*
X191606841Y-97657053D01*
X191642287Y-97811770D01*
X191715241Y-97931017D01*
X191834228Y-98057754D01*
X192131590Y-98265565D01*
X192434134Y-98304699D01*
X192733972Y-98175130D01*
X192866597Y-98061096D01*
X193072649Y-97765686D01*
X193087261Y-97647296D01*
X192664652Y-97647296D01*
X192602708Y-97762317D01*
X192416294Y-97874121D01*
X192207512Y-97846628D01*
X192101459Y-97762317D01*
X192026384Y-97558967D01*
X192097568Y-97355770D01*
X192203917Y-97259758D01*
X192393635Y-97216708D01*
X192557698Y-97297237D01*
X192660055Y-97455911D01*
X192664652Y-97647296D01*
X193087261Y-97647296D01*
X193109831Y-97464434D01*
X192978194Y-97163296D01*
X192857621Y-97023095D01*
X192653075Y-96852723D01*
X192461361Y-96794102D01*
X192311349Y-96800466D01*
X192114569Y-96809649D01*
X192028147Y-96747475D01*
X191996312Y-96576608D01*
X191945955Y-96384715D01*
X191828405Y-96319989D01*
X191801750Y-96318917D01*
X191719928Y-96333226D01*
G37*
X191719928Y-96333226D02*
X191667599Y-96397798D01*
X191636305Y-96545098D01*
X191617587Y-96807592D01*
X191607908Y-97062920D01*
X191598761Y-97422293D01*
X191606841Y-97657053D01*
X191642287Y-97811770D01*
X191715241Y-97931017D01*
X191834228Y-98057754D01*
X192131590Y-98265565D01*
X192434134Y-98304699D01*
X192733972Y-98175130D01*
X192866597Y-98061096D01*
X193072649Y-97765686D01*
X193087261Y-97647296D01*
X192664652Y-97647296D01*
X192602708Y-97762317D01*
X192416294Y-97874121D01*
X192207512Y-97846628D01*
X192101459Y-97762317D01*
X192026384Y-97558967D01*
X192097568Y-97355770D01*
X192203917Y-97259758D01*
X192393635Y-97216708D01*
X192557698Y-97297237D01*
X192660055Y-97455911D01*
X192664652Y-97647296D01*
X193087261Y-97647296D01*
X193109831Y-97464434D01*
X192978194Y-97163296D01*
X192857621Y-97023095D01*
X192653075Y-96852723D01*
X192461361Y-96794102D01*
X192311349Y-96800466D01*
X192114569Y-96809649D01*
X192028147Y-96747475D01*
X191996312Y-96576608D01*
X191945955Y-96384715D01*
X191828405Y-96319989D01*
X191801750Y-96318917D01*
X191719928Y-96333226D01*
G36*
X193709497Y-96847209D02*
G01*
X193469597Y-97005832D01*
X193288005Y-97216570D01*
X193211675Y-97435539D01*
X193213956Y-97482532D01*
X193249377Y-97591650D01*
X193344123Y-97657201D01*
X193539265Y-97697356D01*
X193749084Y-97719324D01*
X194011292Y-97753195D01*
X194138402Y-97793007D01*
X194126846Y-97827335D01*
X193941275Y-97867698D01*
X193791650Y-97866262D01*
X193615740Y-97893653D01*
X193553724Y-98002105D01*
X193579358Y-98179647D01*
X193718098Y-98282649D01*
X193929774Y-98308538D01*
X194174213Y-98254744D01*
X194411244Y-98118695D01*
X194475263Y-98061096D01*
X194675773Y-97779064D01*
X194722750Y-97546584D01*
X194655853Y-97292584D01*
X194172417Y-97292584D01*
X194138995Y-97352248D01*
X193973267Y-97377172D01*
X193960750Y-97377250D01*
X193788647Y-97354705D01*
X193746838Y-97296613D01*
X193749084Y-97292584D01*
X193868855Y-97220718D01*
X193960750Y-97207917D01*
X194120745Y-97247958D01*
X194172417Y-97292584D01*
X194655853Y-97292584D01*
X194646491Y-97257038D01*
X194450147Y-97001913D01*
X194182366Y-96829857D01*
X193960750Y-96784583D01*
X193709497Y-96847209D01*
G37*
X193709497Y-96847209D02*
X193469597Y-97005832D01*
X193288005Y-97216570D01*
X193211675Y-97435539D01*
X193213956Y-97482532D01*
X193249377Y-97591650D01*
X193344123Y-97657201D01*
X193539265Y-97697356D01*
X193749084Y-97719324D01*
X194011292Y-97753195D01*
X194138402Y-97793007D01*
X194126846Y-97827335D01*
X193941275Y-97867698D01*
X193791650Y-97866262D01*
X193615740Y-97893653D01*
X193553724Y-98002105D01*
X193579358Y-98179647D01*
X193718098Y-98282649D01*
X193929774Y-98308538D01*
X194174213Y-98254744D01*
X194411244Y-98118695D01*
X194475263Y-98061096D01*
X194675773Y-97779064D01*
X194722750Y-97546584D01*
X194655853Y-97292584D01*
X194172417Y-97292584D01*
X194138995Y-97352248D01*
X193973267Y-97377172D01*
X193960750Y-97377250D01*
X193788647Y-97354705D01*
X193746838Y-97296613D01*
X193749084Y-97292584D01*
X193868855Y-97220718D01*
X193960750Y-97207917D01*
X194120745Y-97247958D01*
X194172417Y-97292584D01*
X194655853Y-97292584D01*
X194646491Y-97257038D01*
X194450147Y-97001913D01*
X194182366Y-96829857D01*
X193960750Y-96784583D01*
X193709497Y-96847209D01*
G36*
X195390493Y-96858348D02*
G01*
X195135280Y-97036362D01*
X194991342Y-97197880D01*
X194920091Y-97352141D01*
X194901555Y-97564520D01*
X194908959Y-97777195D01*
X194930997Y-98055657D01*
X194970306Y-98203675D01*
X195042372Y-98260134D01*
X195103750Y-98266250D01*
X195205557Y-98240793D01*
X195266335Y-98138218D01*
X195304287Y-97919221D01*
X195315417Y-97809194D01*
X195390697Y-97450880D01*
X195518036Y-97241948D01*
X195670000Y-97182426D01*
X195819154Y-97272346D01*
X195938062Y-97511736D01*
X195992750Y-97808460D01*
X196039339Y-98108934D01*
X196113277Y-98261618D01*
X196166212Y-98289610D01*
X196316788Y-98278770D01*
X196356712Y-98255066D01*
X196398448Y-98125983D01*
X196413866Y-97890678D01*
X196405584Y-97609776D01*
X196376217Y-97343898D01*
X196328381Y-97153667D01*
X196307558Y-97115913D01*
X196034620Y-96880514D01*
X195715975Y-96793780D01*
X195390493Y-96858348D01*
G37*
X195390493Y-96858348D02*
X195135280Y-97036362D01*
X194991342Y-97197880D01*
X194920091Y-97352141D01*
X194901555Y-97564520D01*
X194908959Y-97777195D01*
X194930997Y-98055657D01*
X194970306Y-98203675D01*
X195042372Y-98260134D01*
X195103750Y-98266250D01*
X195205557Y-98240793D01*
X195266335Y-98138218D01*
X195304287Y-97919221D01*
X195315417Y-97809194D01*
X195390697Y-97450880D01*
X195518036Y-97241948D01*
X195670000Y-97182426D01*
X195819154Y-97272346D01*
X195938062Y-97511736D01*
X195992750Y-97808460D01*
X196039339Y-98108934D01*
X196113277Y-98261618D01*
X196166212Y-98289610D01*
X196316788Y-98278770D01*
X196356712Y-98255066D01*
X196398448Y-98125983D01*
X196413866Y-97890678D01*
X196405584Y-97609776D01*
X196376217Y-97343898D01*
X196328381Y-97153667D01*
X196307558Y-97115913D01*
X196034620Y-96880514D01*
X195715975Y-96793780D01*
X195390493Y-96858348D01*
G36*
X198413040Y-96825341D02*
G01*
X198356169Y-96878079D01*
X198316054Y-97026800D01*
X198290570Y-97284600D01*
X198280915Y-97591760D01*
X198288288Y-97888558D01*
X198313888Y-98115275D01*
X198330142Y-98174659D01*
X198445130Y-98294509D01*
X198599725Y-98286421D01*
X198645639Y-98252139D01*
X198672279Y-98146152D01*
X198692145Y-97915965D01*
X198701711Y-97606680D01*
X198702084Y-97529815D01*
X198695126Y-97178742D01*
X198670035Y-96963089D01*
X198620487Y-96849352D01*
X198566539Y-96811922D01*
X198413040Y-96825341D01*
G37*
X198413040Y-96825341D02*
X198356169Y-96878079D01*
X198316054Y-97026800D01*
X198290570Y-97284600D01*
X198280915Y-97591760D01*
X198288288Y-97888558D01*
X198313888Y-98115275D01*
X198330142Y-98174659D01*
X198445130Y-98294509D01*
X198599725Y-98286421D01*
X198645639Y-98252139D01*
X198672279Y-98146152D01*
X198692145Y-97915965D01*
X198701711Y-97606680D01*
X198702084Y-97529815D01*
X198695126Y-97178742D01*
X198670035Y-96963089D01*
X198620487Y-96849352D01*
X198566539Y-96811922D01*
X198413040Y-96825341D01*
G36*
X199154160Y-96813241D02*
G01*
X199022375Y-96885658D01*
X199014092Y-96901266D01*
X199024166Y-97059593D01*
X199179273Y-97166090D01*
X199459623Y-97207761D01*
X199481017Y-97207917D01*
X199686748Y-97227616D01*
X199796914Y-97276537D01*
X199802750Y-97292584D01*
X199728625Y-97349806D01*
X199547651Y-97376912D01*
X199522599Y-97377250D01*
X199277856Y-97410725D01*
X199088683Y-97489686D01*
X198965598Y-97671401D01*
X198943155Y-97910259D01*
X199021355Y-98127223D01*
X199088683Y-98196147D01*
X199254960Y-98259644D01*
X199505630Y-98296693D01*
X199781429Y-98305997D01*
X200023098Y-98286255D01*
X200171374Y-98236168D01*
X200186043Y-98220208D01*
X200193368Y-98082709D01*
X200065218Y-97965114D01*
X199835416Y-97890682D01*
X199686550Y-97876745D01*
X199337084Y-97868240D01*
X199675750Y-97790238D01*
X199981962Y-97664170D01*
X200173262Y-97472219D01*
X200235303Y-97245782D01*
X200153739Y-97016254D01*
X200071250Y-96924706D01*
X199899008Y-96839231D01*
X199650238Y-96791308D01*
X199382702Y-96782218D01*
X199154160Y-96813241D01*
G37*
X199154160Y-96813241D02*
X199022375Y-96885658D01*
X199014092Y-96901266D01*
X199024166Y-97059593D01*
X199179273Y-97166090D01*
X199459623Y-97207761D01*
X199481017Y-97207917D01*
X199686748Y-97227616D01*
X199796914Y-97276537D01*
X199802750Y-97292584D01*
X199728625Y-97349806D01*
X199547651Y-97376912D01*
X199522599Y-97377250D01*
X199277856Y-97410725D01*
X199088683Y-97489686D01*
X198965598Y-97671401D01*
X198943155Y-97910259D01*
X199021355Y-98127223D01*
X199088683Y-98196147D01*
X199254960Y-98259644D01*
X199505630Y-98296693D01*
X199781429Y-98305997D01*
X200023098Y-98286255D01*
X200171374Y-98236168D01*
X200186043Y-98220208D01*
X200193368Y-98082709D01*
X200065218Y-97965114D01*
X199835416Y-97890682D01*
X199686550Y-97876745D01*
X199337084Y-97868240D01*
X199675750Y-97790238D01*
X199981962Y-97664170D01*
X200173262Y-97472219D01*
X200235303Y-97245782D01*
X200153739Y-97016254D01*
X200071250Y-96924706D01*
X199899008Y-96839231D01*
X199650238Y-96791308D01*
X199382702Y-96782218D01*
X199154160Y-96813241D01*
G36*
X200752838Y-96930299D02*
G01*
X200651384Y-97007588D01*
X200463565Y-97209578D01*
X200408929Y-97405502D01*
X200412054Y-97452088D01*
X200439948Y-97576393D01*
X200514939Y-97648428D01*
X200678745Y-97688816D01*
X200945750Y-97715917D01*
X201222360Y-97750216D01*
X201351780Y-97793056D01*
X201343105Y-97829721D01*
X201178843Y-97866953D01*
X201035293Y-97851706D01*
X200816744Y-97866335D01*
X200725801Y-97937564D01*
X200662080Y-98057509D01*
X200734023Y-98159672D01*
X200774629Y-98190745D01*
X201060055Y-98304058D01*
X201366792Y-98263582D01*
X201658152Y-98074619D01*
X201671930Y-98061096D01*
X201877721Y-97764707D01*
X201914899Y-97461780D01*
X201840869Y-97292584D01*
X201369084Y-97292584D01*
X201335662Y-97352248D01*
X201169934Y-97377172D01*
X201157417Y-97377250D01*
X200985314Y-97354705D01*
X200943504Y-97296613D01*
X200945750Y-97292584D01*
X201065522Y-97220718D01*
X201157417Y-97207917D01*
X201317412Y-97247958D01*
X201369084Y-97292584D01*
X201840869Y-97292584D01*
X201783466Y-97161390D01*
X201671930Y-97032071D01*
X201377567Y-96829466D01*
X201070234Y-96795519D01*
X200752838Y-96930299D01*
G37*
X200752838Y-96930299D02*
X200651384Y-97007588D01*
X200463565Y-97209578D01*
X200408929Y-97405502D01*
X200412054Y-97452088D01*
X200439948Y-97576393D01*
X200514939Y-97648428D01*
X200678745Y-97688816D01*
X200945750Y-97715917D01*
X201222360Y-97750216D01*
X201351780Y-97793056D01*
X201343105Y-97829721D01*
X201178843Y-97866953D01*
X201035293Y-97851706D01*
X200816744Y-97866335D01*
X200725801Y-97937564D01*
X200662080Y-98057509D01*
X200734023Y-98159672D01*
X200774629Y-98190745D01*
X201060055Y-98304058D01*
X201366792Y-98263582D01*
X201658152Y-98074619D01*
X201671930Y-98061096D01*
X201877721Y-97764707D01*
X201914899Y-97461780D01*
X201840869Y-97292584D01*
X201369084Y-97292584D01*
X201335662Y-97352248D01*
X201169934Y-97377172D01*
X201157417Y-97377250D01*
X200985314Y-97354705D01*
X200943504Y-97296613D01*
X200945750Y-97292584D01*
X201065522Y-97220718D01*
X201157417Y-97207917D01*
X201317412Y-97247958D01*
X201369084Y-97292584D01*
X201840869Y-97292584D01*
X201783466Y-97161390D01*
X201671930Y-97032071D01*
X201377567Y-96829466D01*
X201070234Y-96795519D01*
X200752838Y-96930299D01*
G36*
X202712141Y-96291276D02*
G01*
X202503687Y-96348006D01*
X202333066Y-96465754D01*
X202312780Y-96484207D01*
X202193612Y-96612028D01*
X202126073Y-96752289D01*
X202095881Y-96956516D01*
X202088758Y-97276236D01*
X202088750Y-97292584D01*
X202095232Y-97618147D01*
X202124195Y-97826103D01*
X202189920Y-97967976D01*
X202306687Y-98095293D01*
X202312780Y-98100960D01*
X202484842Y-98227802D01*
X202687990Y-98290547D01*
X202987843Y-98308503D01*
X203018336Y-98308584D01*
X203290502Y-98299363D01*
X203489201Y-98275562D01*
X203556306Y-98252139D01*
X203581443Y-98146110D01*
X203599083Y-97915320D01*
X203609103Y-97604182D01*
X203611149Y-97292584D01*
X203189417Y-97292584D01*
X203186954Y-97602067D01*
X203169710Y-97779168D01*
X203122904Y-97860840D01*
X203031757Y-97884032D01*
X202952351Y-97885250D01*
X202740801Y-97850941D01*
X202613684Y-97783650D01*
X202552145Y-97642011D01*
X202516044Y-97404035D01*
X202512084Y-97292583D01*
X202543176Y-96970414D01*
X202648808Y-96783101D01*
X202847510Y-96705700D01*
X202952351Y-96699917D01*
X203076144Y-96706075D01*
X203146984Y-96749186D01*
X203179653Y-96866199D01*
X203188930Y-97094067D01*
X203189417Y-97292584D01*
X203611149Y-97292584D01*
X203611382Y-97257109D01*
X203605799Y-96918513D01*
X203592230Y-96632806D01*
X203570555Y-96444400D01*
X203561359Y-96410508D01*
X203481032Y-96328633D01*
X203297606Y-96286894D01*
X203023389Y-96276584D01*
X202712141Y-96291276D01*
G37*
X202712141Y-96291276D02*
X202503687Y-96348006D01*
X202333066Y-96465754D01*
X202312780Y-96484207D01*
X202193612Y-96612028D01*
X202126073Y-96752289D01*
X202095881Y-96956516D01*
X202088758Y-97276236D01*
X202088750Y-97292584D01*
X202095232Y-97618147D01*
X202124195Y-97826103D01*
X202189920Y-97967976D01*
X202306687Y-98095293D01*
X202312780Y-98100960D01*
X202484842Y-98227802D01*
X202687990Y-98290547D01*
X202987843Y-98308503D01*
X203018336Y-98308584D01*
X203290502Y-98299363D01*
X203489201Y-98275562D01*
X203556306Y-98252139D01*
X203581443Y-98146110D01*
X203599083Y-97915320D01*
X203609103Y-97604182D01*
X203611149Y-97292584D01*
X203189417Y-97292584D01*
X203186954Y-97602067D01*
X203169710Y-97779168D01*
X203122904Y-97860840D01*
X203031757Y-97884032D01*
X202952351Y-97885250D01*
X202740801Y-97850941D01*
X202613684Y-97783650D01*
X202552145Y-97642011D01*
X202516044Y-97404035D01*
X202512084Y-97292583D01*
X202543176Y-96970414D01*
X202648808Y-96783101D01*
X202847510Y-96705700D01*
X202952351Y-96699917D01*
X203076144Y-96706075D01*
X203146984Y-96749186D01*
X203179653Y-96866199D01*
X203188930Y-97094067D01*
X203189417Y-97292584D01*
X203611149Y-97292584D01*
X203611382Y-97257109D01*
X203605799Y-96918513D01*
X203592230Y-96632806D01*
X203570555Y-96444400D01*
X203561359Y-96410508D01*
X203481032Y-96328633D01*
X203297606Y-96286894D01*
X203023389Y-96276584D01*
X202712141Y-96291276D01*
G36*
X182661715Y-96924783D02*
G01*
X182685672Y-97178438D01*
X182741713Y-97375132D01*
X182813452Y-97625725D01*
X182843888Y-97806403D01*
X182835582Y-97862640D01*
X182732971Y-97864141D01*
X182570020Y-97798944D01*
X182402409Y-97731892D01*
X182275832Y-97773453D01*
X182173269Y-97866435D01*
X182052068Y-98021563D01*
X182053223Y-98163826D01*
X182087174Y-98242147D01*
X182174378Y-98463306D01*
X182209858Y-98603945D01*
X182293655Y-98750685D01*
X182439105Y-98808848D01*
X182556046Y-98763066D01*
X182602959Y-98639325D01*
X182615417Y-98506139D01*
X182636212Y-98378813D01*
X182729817Y-98322002D01*
X182943065Y-98308600D01*
X182956741Y-98308584D01*
X183212427Y-98279351D01*
X183339876Y-98198496D01*
X183343104Y-98191215D01*
X183344545Y-98042453D01*
X183295646Y-97795884D01*
X183212477Y-97501159D01*
X183111104Y-97207930D01*
X183007598Y-96965850D01*
X182918026Y-96824571D01*
X182895811Y-96809085D01*
X182732443Y-96799160D01*
X182661715Y-96924783D01*
G37*
X182661715Y-96924783D02*
X182685672Y-97178438D01*
X182741713Y-97375132D01*
X182813452Y-97625725D01*
X182843888Y-97806403D01*
X182835582Y-97862640D01*
X182732971Y-97864141D01*
X182570020Y-97798944D01*
X182402409Y-97731892D01*
X182275832Y-97773453D01*
X182173269Y-97866435D01*
X182052068Y-98021563D01*
X182053223Y-98163826D01*
X182087174Y-98242147D01*
X182174378Y-98463306D01*
X182209858Y-98603945D01*
X182293655Y-98750685D01*
X182439105Y-98808848D01*
X182556046Y-98763066D01*
X182602959Y-98639325D01*
X182615417Y-98506139D01*
X182636212Y-98378813D01*
X182729817Y-98322002D01*
X182943065Y-98308600D01*
X182956741Y-98308584D01*
X183212427Y-98279351D01*
X183339876Y-98198496D01*
X183343104Y-98191215D01*
X183344545Y-98042453D01*
X183295646Y-97795884D01*
X183212477Y-97501159D01*
X183111104Y-97207930D01*
X183007598Y-96965850D01*
X182918026Y-96824571D01*
X182895811Y-96809085D01*
X182732443Y-96799160D01*
X182661715Y-96924783D01*
G36*
X187580292Y-96837253D02*
G01*
X187531992Y-96887373D01*
X187503192Y-97005939D01*
X187488901Y-97221618D01*
X187484128Y-97563073D01*
X187483750Y-97799424D01*
X187486887Y-98225282D01*
X187498880Y-98510044D01*
X187523607Y-98681871D01*
X187564944Y-98768927D01*
X187621264Y-98798414D01*
X187764330Y-98754455D01*
X187811764Y-98686815D01*
X187859835Y-98477119D01*
X187864750Y-98403327D01*
X187899338Y-98307135D01*
X188031394Y-98281924D01*
X188158621Y-98292227D01*
X188381183Y-98289677D01*
X188565705Y-98198711D01*
X188713246Y-98065780D01*
X188862082Y-97900351D01*
X188936112Y-97746328D01*
X188956060Y-97537669D01*
X188948542Y-97315972D01*
X188926504Y-97037510D01*
X188887195Y-96889492D01*
X188815129Y-96833033D01*
X188753750Y-96826917D01*
X188651944Y-96852374D01*
X188591166Y-96954949D01*
X188553214Y-97173946D01*
X188542084Y-97283973D01*
X188466790Y-97642438D01*
X188339449Y-97851380D01*
X188187491Y-97910800D01*
X188038348Y-97820698D01*
X187919451Y-97581073D01*
X187864750Y-97283973D01*
X187830457Y-97015547D01*
X187779635Y-96877141D01*
X187694082Y-96829451D01*
X187653084Y-96826917D01*
X187580292Y-96837253D01*
G37*
X187580292Y-96837253D02*
X187531992Y-96887373D01*
X187503192Y-97005939D01*
X187488901Y-97221618D01*
X187484128Y-97563073D01*
X187483750Y-97799424D01*
X187486887Y-98225282D01*
X187498880Y-98510044D01*
X187523607Y-98681871D01*
X187564944Y-98768927D01*
X187621264Y-98798414D01*
X187764330Y-98754455D01*
X187811764Y-98686815D01*
X187859835Y-98477119D01*
X187864750Y-98403327D01*
X187899338Y-98307135D01*
X188031394Y-98281924D01*
X188158621Y-98292227D01*
X188381183Y-98289677D01*
X188565705Y-98198711D01*
X188713246Y-98065780D01*
X188862082Y-97900351D01*
X188936112Y-97746328D01*
X188956060Y-97537669D01*
X188948542Y-97315972D01*
X188926504Y-97037510D01*
X188887195Y-96889492D01*
X188815129Y-96833033D01*
X188753750Y-96826917D01*
X188651944Y-96852374D01*
X188591166Y-96954949D01*
X188553214Y-97173946D01*
X188542084Y-97283973D01*
X188466790Y-97642438D01*
X188339449Y-97851380D01*
X188187491Y-97910800D01*
X188038348Y-97820698D01*
X187919451Y-97581073D01*
X187864750Y-97283973D01*
X187830457Y-97015547D01*
X187779635Y-96877141D01*
X187694082Y-96829451D01*
X187653084Y-96826917D01*
X187580292Y-96837253D01*
G36*
X196977868Y-96904229D02*
G01*
X196874320Y-96981166D01*
X196756838Y-97097810D01*
X196685978Y-97229093D01*
X196647969Y-97422189D01*
X196629043Y-97724275D01*
X196625302Y-97834392D01*
X196620770Y-98182039D01*
X196639535Y-98408111D01*
X196690454Y-98559748D01*
X196782384Y-98684093D01*
X196785621Y-98687626D01*
X196972255Y-98819579D01*
X197222246Y-98911226D01*
X197482712Y-98954224D01*
X197700769Y-98940225D01*
X197823536Y-98860885D01*
X197827441Y-98852033D01*
X197820263Y-98681152D01*
X197650295Y-98556035D01*
X197379842Y-98486149D01*
X197140424Y-98424449D01*
X197040812Y-98355201D01*
X197085658Y-98302100D01*
X197279611Y-98288844D01*
X197342042Y-98293560D01*
X197682886Y-98254529D01*
X197937376Y-98080348D01*
X198082198Y-97793032D01*
X198096416Y-97664663D01*
X197677788Y-97664663D01*
X197613804Y-97807745D01*
X197580250Y-97829177D01*
X197319838Y-97873522D01*
X197133271Y-97774944D01*
X197093417Y-97715917D01*
X197049512Y-97503790D01*
X197124060Y-97328539D01*
X197274933Y-97225029D01*
X197460001Y-97228126D01*
X197584484Y-97309517D01*
X197668231Y-97472083D01*
X197677788Y-97664663D01*
X198096416Y-97664663D01*
X198106724Y-97571599D01*
X198035179Y-97225081D01*
X197850811Y-96967978D01*
X197589329Y-96817395D01*
X197286445Y-96790443D01*
X196977868Y-96904229D01*
G37*
X196977868Y-96904229D02*
X196874320Y-96981166D01*
X196756838Y-97097810D01*
X196685978Y-97229093D01*
X196647969Y-97422189D01*
X196629043Y-97724275D01*
X196625302Y-97834392D01*
X196620770Y-98182039D01*
X196639535Y-98408111D01*
X196690454Y-98559748D01*
X196782384Y-98684093D01*
X196785621Y-98687626D01*
X196972255Y-98819579D01*
X197222246Y-98911226D01*
X197482712Y-98954224D01*
X197700769Y-98940225D01*
X197823536Y-98860885D01*
X197827441Y-98852033D01*
X197820263Y-98681152D01*
X197650295Y-98556035D01*
X197379842Y-98486149D01*
X197140424Y-98424449D01*
X197040812Y-98355201D01*
X197085658Y-98302100D01*
X197279611Y-98288844D01*
X197342042Y-98293560D01*
X197682886Y-98254529D01*
X197937376Y-98080348D01*
X198082198Y-97793032D01*
X198096416Y-97664663D01*
X197677788Y-97664663D01*
X197613804Y-97807745D01*
X197580250Y-97829177D01*
X197319838Y-97873522D01*
X197133271Y-97774944D01*
X197093417Y-97715917D01*
X197049512Y-97503790D01*
X197124060Y-97328539D01*
X197274933Y-97225029D01*
X197460001Y-97228126D01*
X197584484Y-97309517D01*
X197668231Y-97472083D01*
X197677788Y-97664663D01*
X198096416Y-97664663D01*
X198106724Y-97571599D01*
X198035179Y-97225081D01*
X197850811Y-96967978D01*
X197589329Y-96817395D01*
X197286445Y-96790443D01*
X196977868Y-96904229D01*
G04 #@! TD*
D11*
G04 #@! TO.P,D15,2*
G04 #@! TO.N,Net-(D15-Pad2)*
X281306250Y-11906200D03*
G04 #@! TO.P,D15,1*
G04 #@! TO.N,Net-(D10-Pad1)*
X275906250Y-11906200D03*
D12*
G04 #@! TO.P,D15,2*
G04 #@! TO.N,Net-(D15-Pad2)*
X282506250Y-11906200D03*
D13*
G04 #@! TO.P,D15,1*
G04 #@! TO.N,Net-(D10-Pad1)*
X274706250Y-11906200D03*
D14*
X277031250Y-11906200D03*
G04 #@! TO.P,D15,2*
G04 #@! TO.N,Net-(D15-Pad2)*
X280181250Y-11906200D03*
G04 #@! TD*
D15*
G04 #@! TO.P,J1,1*
G04 #@! TO.N,Net-(J1-Pad1)*
X170142000Y-6946900D03*
D16*
G04 #@! TO.P,J1,2*
G04 #@! TO.N,Net-(J1-Pad2)*
X172682000Y-6946900D03*
G04 #@! TO.P,J1,3*
G04 #@! TO.N,Net-(J1-Pad3)*
X175222000Y-6946900D03*
G04 #@! TO.P,J1,4*
G04 #@! TO.N,Net-(J1-Pad4)*
X177762000Y-6946900D03*
G04 #@! TD*
D14*
G04 #@! TO.P,D1,2*
G04 #@! TO.N,Net-(D1-Pad2)*
X23006200Y-11906200D03*
G04 #@! TO.P,D1,1*
G04 #@! TO.N,Net-(D1-Pad1)*
X19856200Y-11906200D03*
D13*
X17531200Y-11906200D03*
D12*
G04 #@! TO.P,D1,2*
G04 #@! TO.N,Net-(D1-Pad2)*
X25331200Y-11906200D03*
D11*
G04 #@! TO.P,D1,1*
G04 #@! TO.N,Net-(D1-Pad1)*
X18731200Y-11906200D03*
G04 #@! TO.P,D1,2*
G04 #@! TO.N,Net-(D1-Pad2)*
X24131200Y-11906200D03*
G04 #@! TD*
D14*
G04 #@! TO.P,D2,2*
G04 #@! TO.N,Net-(D2-Pad2)*
X42056200Y-11906200D03*
G04 #@! TO.P,D2,1*
G04 #@! TO.N,Net-(D1-Pad1)*
X38906200Y-11906200D03*
D13*
X36581200Y-11906200D03*
D12*
G04 #@! TO.P,D2,2*
G04 #@! TO.N,Net-(D2-Pad2)*
X44381200Y-11906200D03*
D11*
G04 #@! TO.P,D2,1*
G04 #@! TO.N,Net-(D1-Pad1)*
X37781200Y-11906200D03*
G04 #@! TO.P,D2,2*
G04 #@! TO.N,Net-(D2-Pad2)*
X43181200Y-11906200D03*
G04 #@! TD*
D14*
G04 #@! TO.P,D3,2*
G04 #@! TO.N,Net-(D3-Pad2)*
X61106200Y-11906200D03*
G04 #@! TO.P,D3,1*
G04 #@! TO.N,Net-(D1-Pad1)*
X57956200Y-11906200D03*
D13*
X55631200Y-11906200D03*
D12*
G04 #@! TO.P,D3,2*
G04 #@! TO.N,Net-(D3-Pad2)*
X63431200Y-11906200D03*
D11*
G04 #@! TO.P,D3,1*
G04 #@! TO.N,Net-(D1-Pad1)*
X56831200Y-11906200D03*
G04 #@! TO.P,D3,2*
G04 #@! TO.N,Net-(D3-Pad2)*
X62231200Y-11906200D03*
G04 #@! TD*
D14*
G04 #@! TO.P,D4,2*
G04 #@! TO.N,Net-(D4-Pad2)*
X80156200Y-11906200D03*
G04 #@! TO.P,D4,1*
G04 #@! TO.N,Net-(D1-Pad1)*
X77006200Y-11906200D03*
D13*
X74681200Y-11906200D03*
D12*
G04 #@! TO.P,D4,2*
G04 #@! TO.N,Net-(D4-Pad2)*
X82481200Y-11906200D03*
D11*
G04 #@! TO.P,D4,1*
G04 #@! TO.N,Net-(D1-Pad1)*
X75881200Y-11906200D03*
G04 #@! TO.P,D4,2*
G04 #@! TO.N,Net-(D4-Pad2)*
X81281200Y-11906200D03*
G04 #@! TD*
D14*
G04 #@! TO.P,D5,2*
G04 #@! TO.N,Net-(D5-Pad2)*
X99206200Y-11906200D03*
G04 #@! TO.P,D5,1*
G04 #@! TO.N,Net-(D1-Pad1)*
X96056200Y-11906200D03*
D13*
X93731200Y-11906200D03*
D12*
G04 #@! TO.P,D5,2*
G04 #@! TO.N,Net-(D5-Pad2)*
X101531200Y-11906200D03*
D11*
G04 #@! TO.P,D5,1*
G04 #@! TO.N,Net-(D1-Pad1)*
X94931200Y-11906200D03*
G04 #@! TO.P,D5,2*
G04 #@! TO.N,Net-(D5-Pad2)*
X100331200Y-11906200D03*
G04 #@! TD*
G04 #@! TO.P,D6,2*
G04 #@! TO.N,Net-(D6-Pad2)*
X119381000Y-11906200D03*
G04 #@! TO.P,D6,1*
G04 #@! TO.N,Net-(D1-Pad1)*
X113981000Y-11906200D03*
D12*
G04 #@! TO.P,D6,2*
G04 #@! TO.N,Net-(D6-Pad2)*
X120581000Y-11906200D03*
D13*
G04 #@! TO.P,D6,1*
G04 #@! TO.N,Net-(D1-Pad1)*
X112781000Y-11906200D03*
D14*
X115106000Y-11906200D03*
G04 #@! TO.P,D6,2*
G04 #@! TO.N,Net-(D6-Pad2)*
X118256000Y-11906200D03*
G04 #@! TD*
D11*
G04 #@! TO.P,D7,2*
G04 #@! TO.N,Net-(D7-Pad2)*
X138431000Y-11906200D03*
G04 #@! TO.P,D7,1*
G04 #@! TO.N,Net-(D1-Pad1)*
X133031000Y-11906200D03*
D12*
G04 #@! TO.P,D7,2*
G04 #@! TO.N,Net-(D7-Pad2)*
X139631000Y-11906200D03*
D13*
G04 #@! TO.P,D7,1*
G04 #@! TO.N,Net-(D1-Pad1)*
X131831000Y-11906200D03*
D14*
X134156000Y-11906200D03*
G04 #@! TO.P,D7,2*
G04 #@! TO.N,Net-(D7-Pad2)*
X137306000Y-11906200D03*
G04 #@! TD*
D11*
G04 #@! TO.P,D8,2*
G04 #@! TO.N,Net-(D8-Pad2)*
X157481000Y-11906200D03*
G04 #@! TO.P,D8,1*
G04 #@! TO.N,Net-(D1-Pad1)*
X152081000Y-11906200D03*
D12*
G04 #@! TO.P,D8,2*
G04 #@! TO.N,Net-(D8-Pad2)*
X158681000Y-11906200D03*
D13*
G04 #@! TO.P,D8,1*
G04 #@! TO.N,Net-(D1-Pad1)*
X150881000Y-11906200D03*
D14*
X153206000Y-11906200D03*
G04 #@! TO.P,D8,2*
G04 #@! TO.N,Net-(D8-Pad2)*
X156356000Y-11906200D03*
G04 #@! TD*
G04 #@! TO.P,D9,2*
G04 #@! TO.N,Net-(D9-Pad2)*
X175406000Y-11906200D03*
G04 #@! TO.P,D9,1*
G04 #@! TO.N,Net-(D1-Pad1)*
X172256000Y-11906200D03*
D13*
X169931000Y-11906200D03*
D12*
G04 #@! TO.P,D9,2*
G04 #@! TO.N,Net-(D9-Pad2)*
X177731000Y-11906200D03*
D11*
G04 #@! TO.P,D9,1*
G04 #@! TO.N,Net-(D1-Pad1)*
X171131000Y-11906200D03*
G04 #@! TO.P,D9,2*
G04 #@! TO.N,Net-(D9-Pad2)*
X176531000Y-11906200D03*
G04 #@! TD*
D14*
G04 #@! TO.P,D10,2*
G04 #@! TO.N,Net-(D10-Pad2)*
X194456000Y-11906200D03*
G04 #@! TO.P,D10,1*
G04 #@! TO.N,Net-(D10-Pad1)*
X191306000Y-11906200D03*
D13*
X188981000Y-11906200D03*
D12*
G04 #@! TO.P,D10,2*
G04 #@! TO.N,Net-(D10-Pad2)*
X196781000Y-11906200D03*
D11*
G04 #@! TO.P,D10,1*
G04 #@! TO.N,Net-(D10-Pad1)*
X190181000Y-11906200D03*
G04 #@! TO.P,D10,2*
G04 #@! TO.N,Net-(D10-Pad2)*
X195581000Y-11906200D03*
G04 #@! TD*
D14*
G04 #@! TO.P,D11,2*
G04 #@! TO.N,Net-(D11-Pad2)*
X213506000Y-11906200D03*
G04 #@! TO.P,D11,1*
G04 #@! TO.N,Net-(D10-Pad1)*
X210356000Y-11906200D03*
D13*
X208031000Y-11906200D03*
D12*
G04 #@! TO.P,D11,2*
G04 #@! TO.N,Net-(D11-Pad2)*
X215831000Y-11906200D03*
D11*
G04 #@! TO.P,D11,1*
G04 #@! TO.N,Net-(D10-Pad1)*
X209231000Y-11906200D03*
G04 #@! TO.P,D11,2*
G04 #@! TO.N,Net-(D11-Pad2)*
X214631000Y-11906200D03*
G04 #@! TD*
D14*
G04 #@! TO.P,D12,2*
G04 #@! TO.N,Net-(D12-Pad2)*
X232556000Y-11906200D03*
G04 #@! TO.P,D12,1*
G04 #@! TO.N,Net-(D10-Pad1)*
X229406000Y-11906200D03*
D13*
X227081000Y-11906200D03*
D12*
G04 #@! TO.P,D12,2*
G04 #@! TO.N,Net-(D12-Pad2)*
X234881000Y-11906200D03*
D11*
G04 #@! TO.P,D12,1*
G04 #@! TO.N,Net-(D10-Pad1)*
X228281000Y-11906200D03*
G04 #@! TO.P,D12,2*
G04 #@! TO.N,Net-(D12-Pad2)*
X233681000Y-11906200D03*
G04 #@! TD*
D14*
G04 #@! TO.P,D13,2*
G04 #@! TO.N,Net-(D13-Pad2)*
X251606000Y-11906200D03*
G04 #@! TO.P,D13,1*
G04 #@! TO.N,Net-(D10-Pad1)*
X248456000Y-11906200D03*
D13*
X246131000Y-11906200D03*
D12*
G04 #@! TO.P,D13,2*
G04 #@! TO.N,Net-(D13-Pad2)*
X253931000Y-11906200D03*
D11*
G04 #@! TO.P,D13,1*
G04 #@! TO.N,Net-(D10-Pad1)*
X247331000Y-11906200D03*
G04 #@! TO.P,D13,2*
G04 #@! TO.N,Net-(D13-Pad2)*
X252731000Y-11906200D03*
G04 #@! TD*
D14*
G04 #@! TO.P,D14,2*
G04 #@! TO.N,Net-(D14-Pad2)*
X268275000Y-9525000D03*
G04 #@! TO.P,D14,1*
G04 #@! TO.N,Net-(D10-Pad1)*
X265125000Y-9525000D03*
D13*
X262800000Y-9525000D03*
D12*
G04 #@! TO.P,D14,2*
G04 #@! TO.N,Net-(D14-Pad2)*
X270600000Y-9525000D03*
D11*
G04 #@! TO.P,D14,1*
G04 #@! TO.N,Net-(D10-Pad1)*
X264000000Y-9525000D03*
G04 #@! TO.P,D14,2*
G04 #@! TO.N,Net-(D14-Pad2)*
X269400000Y-9525000D03*
G04 #@! TD*
G04 #@! TO.P,D16,2*
G04 #@! TO.N,Net-(D16-Pad2)*
X293212500Y-9525000D03*
G04 #@! TO.P,D16,1*
G04 #@! TO.N,Net-(D10-Pad1)*
X287812500Y-9525000D03*
D12*
G04 #@! TO.P,D16,2*
G04 #@! TO.N,Net-(D16-Pad2)*
X294412500Y-9525000D03*
D13*
G04 #@! TO.P,D16,1*
G04 #@! TO.N,Net-(D10-Pad1)*
X286612500Y-9525000D03*
D14*
X288937500Y-9525000D03*
G04 #@! TO.P,D16,2*
G04 #@! TO.N,Net-(D16-Pad2)*
X292087500Y-9525000D03*
G04 #@! TD*
D11*
G04 #@! TO.P,D17,2*
G04 #@! TO.N,Net-(D17-Pad2)*
X28893800Y-30956200D03*
G04 #@! TO.P,D17,1*
G04 #@! TO.N,Net-(D10-Pad1)*
X23493800Y-30956200D03*
D12*
G04 #@! TO.P,D17,2*
G04 #@! TO.N,Net-(D17-Pad2)*
X30093800Y-30956200D03*
D13*
G04 #@! TO.P,D17,1*
G04 #@! TO.N,Net-(D10-Pad1)*
X22293800Y-30956200D03*
D14*
X24618800Y-30956200D03*
G04 #@! TO.P,D17,2*
G04 #@! TO.N,Net-(D17-Pad2)*
X27768800Y-30956200D03*
G04 #@! TD*
D11*
G04 #@! TO.P,D18,2*
G04 #@! TO.N,Net-(D18-Pad2)*
X52706200Y-30956200D03*
G04 #@! TO.P,D18,1*
G04 #@! TO.N,Net-(D10-Pad1)*
X47306200Y-30956200D03*
D12*
G04 #@! TO.P,D18,2*
G04 #@! TO.N,Net-(D18-Pad2)*
X53906200Y-30956200D03*
D13*
G04 #@! TO.P,D18,1*
G04 #@! TO.N,Net-(D10-Pad1)*
X46106200Y-30956200D03*
D14*
X48431200Y-30956200D03*
G04 #@! TO.P,D18,2*
G04 #@! TO.N,Net-(D18-Pad2)*
X51581200Y-30956200D03*
G04 #@! TD*
D11*
G04 #@! TO.P,D19,2*
G04 #@! TO.N,Net-(D19-Pad2)*
X71756200Y-30956200D03*
G04 #@! TO.P,D19,1*
G04 #@! TO.N,Net-(D19-Pad1)*
X66356200Y-30956200D03*
D12*
G04 #@! TO.P,D19,2*
G04 #@! TO.N,Net-(D19-Pad2)*
X72956200Y-30956200D03*
D13*
G04 #@! TO.P,D19,1*
G04 #@! TO.N,Net-(D19-Pad1)*
X65156200Y-30956200D03*
D14*
X67481200Y-30956200D03*
G04 #@! TO.P,D19,2*
G04 #@! TO.N,Net-(D19-Pad2)*
X70631200Y-30956200D03*
G04 #@! TD*
D11*
G04 #@! TO.P,D20,2*
G04 #@! TO.N,Net-(D20-Pad2)*
X90806200Y-30956200D03*
G04 #@! TO.P,D20,1*
G04 #@! TO.N,Net-(D19-Pad1)*
X85406200Y-30956200D03*
D12*
G04 #@! TO.P,D20,2*
G04 #@! TO.N,Net-(D20-Pad2)*
X92006200Y-30956200D03*
D13*
G04 #@! TO.P,D20,1*
G04 #@! TO.N,Net-(D19-Pad1)*
X84206200Y-30956200D03*
D14*
X86531200Y-30956200D03*
G04 #@! TO.P,D20,2*
G04 #@! TO.N,Net-(D20-Pad2)*
X89681200Y-30956200D03*
G04 #@! TD*
D11*
G04 #@! TO.P,D21,2*
G04 #@! TO.N,Net-(D21-Pad2)*
X109856000Y-30956200D03*
G04 #@! TO.P,D21,1*
G04 #@! TO.N,Net-(D19-Pad1)*
X104456000Y-30956200D03*
D12*
G04 #@! TO.P,D21,2*
G04 #@! TO.N,Net-(D21-Pad2)*
X111056000Y-30956200D03*
D13*
G04 #@! TO.P,D21,1*
G04 #@! TO.N,Net-(D19-Pad1)*
X103256000Y-30956200D03*
D14*
X105581000Y-30956200D03*
G04 #@! TO.P,D21,2*
G04 #@! TO.N,Net-(D21-Pad2)*
X108731000Y-30956200D03*
G04 #@! TD*
D11*
G04 #@! TO.P,D22,2*
G04 #@! TO.N,Net-(D22-Pad2)*
X128906000Y-30956200D03*
G04 #@! TO.P,D22,1*
G04 #@! TO.N,Net-(D19-Pad1)*
X123506000Y-30956200D03*
D12*
G04 #@! TO.P,D22,2*
G04 #@! TO.N,Net-(D22-Pad2)*
X130106000Y-30956200D03*
D13*
G04 #@! TO.P,D22,1*
G04 #@! TO.N,Net-(D19-Pad1)*
X122306000Y-30956200D03*
D14*
X124631000Y-30956200D03*
G04 #@! TO.P,D22,2*
G04 #@! TO.N,Net-(D22-Pad2)*
X127781000Y-30956200D03*
G04 #@! TD*
G04 #@! TO.P,D23,2*
G04 #@! TO.N,Net-(D23-Pad2)*
X142069000Y-30956200D03*
G04 #@! TO.P,D23,1*
G04 #@! TO.N,Net-(D19-Pad1)*
X138919000Y-30956200D03*
D13*
X136594000Y-30956200D03*
D12*
G04 #@! TO.P,D23,2*
G04 #@! TO.N,Net-(D23-Pad2)*
X144394000Y-30956200D03*
D11*
G04 #@! TO.P,D23,1*
G04 #@! TO.N,Net-(D19-Pad1)*
X137794000Y-30956200D03*
G04 #@! TO.P,D23,2*
G04 #@! TO.N,Net-(D23-Pad2)*
X143194000Y-30956200D03*
G04 #@! TD*
D14*
G04 #@! TO.P,D24,2*
G04 #@! TO.N,Net-(D24-Pad2)*
X170644000Y-30956200D03*
G04 #@! TO.P,D24,1*
G04 #@! TO.N,Net-(D19-Pad1)*
X167494000Y-30956200D03*
D13*
X165169000Y-30956200D03*
D12*
G04 #@! TO.P,D24,2*
G04 #@! TO.N,Net-(D24-Pad2)*
X172969000Y-30956200D03*
D11*
G04 #@! TO.P,D24,1*
G04 #@! TO.N,Net-(D19-Pad1)*
X166369000Y-30956200D03*
G04 #@! TO.P,D24,2*
G04 #@! TO.N,Net-(D24-Pad2)*
X171769000Y-30956200D03*
G04 #@! TD*
D14*
G04 #@! TO.P,D25,2*
G04 #@! TO.N,Net-(D25-Pad2)*
X184931000Y-30956200D03*
G04 #@! TO.P,D25,1*
G04 #@! TO.N,Net-(D19-Pad1)*
X181781000Y-30956200D03*
D13*
X179456000Y-30956200D03*
D12*
G04 #@! TO.P,D25,2*
G04 #@! TO.N,Net-(D25-Pad2)*
X187256000Y-30956200D03*
D11*
G04 #@! TO.P,D25,1*
G04 #@! TO.N,Net-(D19-Pad1)*
X180656000Y-30956200D03*
G04 #@! TO.P,D25,2*
G04 #@! TO.N,Net-(D25-Pad2)*
X186056000Y-30956200D03*
G04 #@! TD*
D14*
G04 #@! TO.P,D26,2*
G04 #@! TO.N,Net-(D26-Pad2)*
X203981000Y-30956200D03*
G04 #@! TO.P,D26,1*
G04 #@! TO.N,Net-(D19-Pad1)*
X200831000Y-30956200D03*
D13*
X198506000Y-30956200D03*
D12*
G04 #@! TO.P,D26,2*
G04 #@! TO.N,Net-(D26-Pad2)*
X206306000Y-30956200D03*
D11*
G04 #@! TO.P,D26,1*
G04 #@! TO.N,Net-(D19-Pad1)*
X199706000Y-30956200D03*
G04 #@! TO.P,D26,2*
G04 #@! TO.N,Net-(D26-Pad2)*
X205106000Y-30956200D03*
G04 #@! TD*
D14*
G04 #@! TO.P,D27,2*
G04 #@! TO.N,Net-(D27-Pad2)*
X223031000Y-30956200D03*
G04 #@! TO.P,D27,1*
G04 #@! TO.N,Net-(D19-Pad1)*
X219881000Y-30956200D03*
D13*
X217556000Y-30956200D03*
D12*
G04 #@! TO.P,D27,2*
G04 #@! TO.N,Net-(D27-Pad2)*
X225356000Y-30956200D03*
D11*
G04 #@! TO.P,D27,1*
G04 #@! TO.N,Net-(D19-Pad1)*
X218756000Y-30956200D03*
G04 #@! TO.P,D27,2*
G04 #@! TO.N,Net-(D27-Pad2)*
X224156000Y-30956200D03*
G04 #@! TD*
D14*
G04 #@! TO.P,D28,2*
G04 #@! TO.N,Net-(D28-Pad2)*
X242081000Y-30956200D03*
G04 #@! TO.P,D28,1*
G04 #@! TO.N,Net-(D28-Pad1)*
X238931000Y-30956200D03*
D13*
X236606000Y-30956200D03*
D12*
G04 #@! TO.P,D28,2*
G04 #@! TO.N,Net-(D28-Pad2)*
X244406000Y-30956200D03*
D11*
G04 #@! TO.P,D28,1*
G04 #@! TO.N,Net-(D28-Pad1)*
X237806000Y-30956200D03*
G04 #@! TO.P,D28,2*
G04 #@! TO.N,Net-(D28-Pad2)*
X243206000Y-30956200D03*
G04 #@! TD*
D14*
G04 #@! TO.P,D29,2*
G04 #@! TO.N,Net-(D29-Pad2)*
X261131000Y-30956200D03*
G04 #@! TO.P,D29,1*
G04 #@! TO.N,Net-(D28-Pad1)*
X257981000Y-30956200D03*
D13*
X255656000Y-30956200D03*
D12*
G04 #@! TO.P,D29,2*
G04 #@! TO.N,Net-(D29-Pad2)*
X263456000Y-30956200D03*
D11*
G04 #@! TO.P,D29,1*
G04 #@! TO.N,Net-(D28-Pad1)*
X256856000Y-30956200D03*
G04 #@! TO.P,D29,2*
G04 #@! TO.N,Net-(D29-Pad2)*
X262256000Y-30956200D03*
G04 #@! TD*
G04 #@! TO.P,D30,2*
G04 #@! TO.N,Net-(D30-Pad2)*
X286069000Y-30956200D03*
G04 #@! TO.P,D30,1*
G04 #@! TO.N,Net-(D28-Pad1)*
X280669000Y-30956200D03*
D12*
G04 #@! TO.P,D30,2*
G04 #@! TO.N,Net-(D30-Pad2)*
X287269000Y-30956200D03*
D13*
G04 #@! TO.P,D30,1*
G04 #@! TO.N,Net-(D28-Pad1)*
X279469000Y-30956200D03*
D14*
X281794000Y-30956200D03*
G04 #@! TO.P,D30,2*
G04 #@! TO.N,Net-(D30-Pad2)*
X284944000Y-30956200D03*
G04 #@! TD*
D11*
G04 #@! TO.P,D31,2*
G04 #@! TO.N,Net-(D31-Pad2)*
X31275000Y-50006200D03*
G04 #@! TO.P,D31,1*
G04 #@! TO.N,Net-(D28-Pad1)*
X25875000Y-50006200D03*
D12*
G04 #@! TO.P,D31,2*
G04 #@! TO.N,Net-(D31-Pad2)*
X32475000Y-50006200D03*
D13*
G04 #@! TO.P,D31,1*
G04 #@! TO.N,Net-(D28-Pad1)*
X24675000Y-50006200D03*
D14*
X27000000Y-50006200D03*
G04 #@! TO.P,D31,2*
G04 #@! TO.N,Net-(D31-Pad2)*
X30150000Y-50006200D03*
G04 #@! TD*
G04 #@! TO.P,D32,2*
G04 #@! TO.N,Net-(D32-Pad2)*
X56343800Y-50006200D03*
G04 #@! TO.P,D32,1*
G04 #@! TO.N,Net-(D28-Pad1)*
X53193800Y-50006200D03*
D13*
X50868800Y-50006200D03*
D12*
G04 #@! TO.P,D32,2*
G04 #@! TO.N,Net-(D32-Pad2)*
X58668800Y-50006200D03*
D11*
G04 #@! TO.P,D32,1*
G04 #@! TO.N,Net-(D28-Pad1)*
X52068800Y-50006200D03*
G04 #@! TO.P,D32,2*
G04 #@! TO.N,Net-(D32-Pad2)*
X57468800Y-50006200D03*
G04 #@! TD*
D14*
G04 #@! TO.P,D33,2*
G04 #@! TO.N,Net-(D33-Pad2)*
X75393800Y-50006200D03*
G04 #@! TO.P,D33,1*
G04 #@! TO.N,Net-(D28-Pad1)*
X72243800Y-50006200D03*
D13*
X69918800Y-50006200D03*
D12*
G04 #@! TO.P,D33,2*
G04 #@! TO.N,Net-(D33-Pad2)*
X77718800Y-50006200D03*
D11*
G04 #@! TO.P,D33,1*
G04 #@! TO.N,Net-(D28-Pad1)*
X71118800Y-50006200D03*
G04 #@! TO.P,D33,2*
G04 #@! TO.N,Net-(D33-Pad2)*
X76518800Y-50006200D03*
G04 #@! TD*
G04 #@! TO.P,D34,2*
G04 #@! TO.N,Net-(D34-Pad2)*
X95568800Y-50006200D03*
G04 #@! TO.P,D34,1*
G04 #@! TO.N,Net-(D28-Pad1)*
X90168800Y-50006200D03*
D12*
G04 #@! TO.P,D34,2*
G04 #@! TO.N,Net-(D34-Pad2)*
X96768800Y-50006200D03*
D13*
G04 #@! TO.P,D34,1*
G04 #@! TO.N,Net-(D28-Pad1)*
X88968800Y-50006200D03*
D14*
X91293800Y-50006200D03*
G04 #@! TO.P,D34,2*
G04 #@! TO.N,Net-(D34-Pad2)*
X94443800Y-50006200D03*
G04 #@! TD*
D11*
G04 #@! TO.P,D35,2*
G04 #@! TO.N,Net-(D35-Pad2)*
X114619000Y-50006200D03*
G04 #@! TO.P,D35,1*
G04 #@! TO.N,Net-(D28-Pad1)*
X109219000Y-50006200D03*
D12*
G04 #@! TO.P,D35,2*
G04 #@! TO.N,Net-(D35-Pad2)*
X115819000Y-50006200D03*
D13*
G04 #@! TO.P,D35,1*
G04 #@! TO.N,Net-(D28-Pad1)*
X108019000Y-50006200D03*
D14*
X110344000Y-50006200D03*
G04 #@! TO.P,D35,2*
G04 #@! TO.N,Net-(D35-Pad2)*
X113494000Y-50006200D03*
G04 #@! TD*
G04 #@! TO.P,D36,2*
G04 #@! TO.N,Net-(D36-Pad2)*
X132544000Y-50006200D03*
G04 #@! TO.P,D36,1*
G04 #@! TO.N,Net-(D28-Pad1)*
X129394000Y-50006200D03*
D13*
X127069000Y-50006200D03*
D12*
G04 #@! TO.P,D36,2*
G04 #@! TO.N,Net-(D36-Pad2)*
X134869000Y-50006200D03*
D11*
G04 #@! TO.P,D36,1*
G04 #@! TO.N,Net-(D28-Pad1)*
X128269000Y-50006200D03*
G04 #@! TO.P,D36,2*
G04 #@! TO.N,Net-(D36-Pad2)*
X133669000Y-50006200D03*
G04 #@! TD*
G04 #@! TO.P,D37,2*
G04 #@! TO.N,Net-(D37-Pad2)*
X152719000Y-50006200D03*
G04 #@! TO.P,D37,1*
G04 #@! TO.N,Net-(D37-Pad1)*
X147319000Y-50006200D03*
D12*
G04 #@! TO.P,D37,2*
G04 #@! TO.N,Net-(D37-Pad2)*
X153919000Y-50006200D03*
D13*
G04 #@! TO.P,D37,1*
G04 #@! TO.N,Net-(D37-Pad1)*
X146119000Y-50006200D03*
D14*
X148444000Y-50006200D03*
G04 #@! TO.P,D37,2*
G04 #@! TO.N,Net-(D37-Pad2)*
X151594000Y-50006200D03*
G04 #@! TD*
D11*
G04 #@! TO.P,D38,2*
G04 #@! TO.N,Net-(D38-Pad2)*
X171769000Y-50006200D03*
G04 #@! TO.P,D38,1*
G04 #@! TO.N,Net-(D37-Pad1)*
X166369000Y-50006200D03*
D12*
G04 #@! TO.P,D38,2*
G04 #@! TO.N,Net-(D38-Pad2)*
X172969000Y-50006200D03*
D13*
G04 #@! TO.P,D38,1*
G04 #@! TO.N,Net-(D37-Pad1)*
X165169000Y-50006200D03*
D14*
X167494000Y-50006200D03*
G04 #@! TO.P,D38,2*
G04 #@! TO.N,Net-(D38-Pad2)*
X170644000Y-50006200D03*
G04 #@! TD*
D11*
G04 #@! TO.P,D39,2*
G04 #@! TO.N,Net-(D39-Pad2)*
X190819000Y-50006200D03*
G04 #@! TO.P,D39,1*
G04 #@! TO.N,Net-(D37-Pad1)*
X185419000Y-50006200D03*
D12*
G04 #@! TO.P,D39,2*
G04 #@! TO.N,Net-(D39-Pad2)*
X192019000Y-50006200D03*
D13*
G04 #@! TO.P,D39,1*
G04 #@! TO.N,Net-(D37-Pad1)*
X184219000Y-50006200D03*
D14*
X186544000Y-50006200D03*
G04 #@! TO.P,D39,2*
G04 #@! TO.N,Net-(D39-Pad2)*
X189694000Y-50006200D03*
G04 #@! TD*
D11*
G04 #@! TO.P,D40,2*
G04 #@! TO.N,Net-(D40-Pad2)*
X209869000Y-50006200D03*
G04 #@! TO.P,D40,1*
G04 #@! TO.N,Net-(D37-Pad1)*
X204469000Y-50006200D03*
D12*
G04 #@! TO.P,D40,2*
G04 #@! TO.N,Net-(D40-Pad2)*
X211069000Y-50006200D03*
D13*
G04 #@! TO.P,D40,1*
G04 #@! TO.N,Net-(D37-Pad1)*
X203269000Y-50006200D03*
D14*
X205594000Y-50006200D03*
G04 #@! TO.P,D40,2*
G04 #@! TO.N,Net-(D40-Pad2)*
X208744000Y-50006200D03*
G04 #@! TD*
D11*
G04 #@! TO.P,D41,2*
G04 #@! TO.N,Net-(D41-Pad2)*
X228919000Y-50006200D03*
G04 #@! TO.P,D41,1*
G04 #@! TO.N,Net-(D37-Pad1)*
X223519000Y-50006200D03*
D12*
G04 #@! TO.P,D41,2*
G04 #@! TO.N,Net-(D41-Pad2)*
X230119000Y-50006200D03*
D13*
G04 #@! TO.P,D41,1*
G04 #@! TO.N,Net-(D37-Pad1)*
X222319000Y-50006200D03*
D14*
X224644000Y-50006200D03*
G04 #@! TO.P,D41,2*
G04 #@! TO.N,Net-(D41-Pad2)*
X227794000Y-50006200D03*
G04 #@! TD*
G04 #@! TO.P,D42,2*
G04 #@! TO.N,Net-(D42-Pad2)*
X246844000Y-50006200D03*
G04 #@! TO.P,D42,1*
G04 #@! TO.N,Net-(D37-Pad1)*
X243694000Y-50006200D03*
D13*
X241369000Y-50006200D03*
D12*
G04 #@! TO.P,D42,2*
G04 #@! TO.N,Net-(D42-Pad2)*
X249169000Y-50006200D03*
D11*
G04 #@! TO.P,D42,1*
G04 #@! TO.N,Net-(D37-Pad1)*
X242569000Y-50006200D03*
G04 #@! TO.P,D42,2*
G04 #@! TO.N,Net-(D42-Pad2)*
X247969000Y-50006200D03*
G04 #@! TD*
D14*
G04 #@! TO.P,D43,2*
G04 #@! TO.N,Net-(D43-Pad2)*
X265894000Y-50006200D03*
G04 #@! TO.P,D43,1*
G04 #@! TO.N,Net-(D37-Pad1)*
X262744000Y-50006200D03*
D13*
X260419000Y-50006200D03*
D12*
G04 #@! TO.P,D43,2*
G04 #@! TO.N,Net-(D43-Pad2)*
X268219000Y-50006200D03*
D11*
G04 #@! TO.P,D43,1*
G04 #@! TO.N,Net-(D37-Pad1)*
X261619000Y-50006200D03*
G04 #@! TO.P,D43,2*
G04 #@! TO.N,Net-(D43-Pad2)*
X267019000Y-50006200D03*
G04 #@! TD*
D14*
G04 #@! TO.P,D44,2*
G04 #@! TO.N,Net-(D44-Pad2)*
X277800000Y-50006200D03*
G04 #@! TO.P,D44,1*
G04 #@! TO.N,Net-(D37-Pad1)*
X274650000Y-50006200D03*
D13*
X272325000Y-50006200D03*
D12*
G04 #@! TO.P,D44,2*
G04 #@! TO.N,Net-(D44-Pad2)*
X280125000Y-50006200D03*
D11*
G04 #@! TO.P,D44,1*
G04 #@! TO.N,Net-(D37-Pad1)*
X273525000Y-50006200D03*
G04 #@! TO.P,D44,2*
G04 #@! TO.N,Net-(D44-Pad2)*
X278925000Y-50006200D03*
G04 #@! TD*
D14*
G04 #@! TO.P,D45,2*
G04 #@! TO.N,Net-(D45-Pad2)*
X34912500Y-69056200D03*
G04 #@! TO.P,D45,1*
G04 #@! TO.N,Net-(D37-Pad1)*
X31762500Y-69056200D03*
D13*
X29437500Y-69056200D03*
D12*
G04 #@! TO.P,D45,2*
G04 #@! TO.N,Net-(D45-Pad2)*
X37237500Y-69056200D03*
D11*
G04 #@! TO.P,D45,1*
G04 #@! TO.N,Net-(D37-Pad1)*
X30637500Y-69056200D03*
G04 #@! TO.P,D45,2*
G04 #@! TO.N,Net-(D45-Pad2)*
X36037500Y-69056200D03*
G04 #@! TD*
D14*
G04 #@! TO.P,D46,2*
G04 #@! TO.N,Net-(D46-Pad2)*
X46818800Y-69056200D03*
G04 #@! TO.P,D46,1*
G04 #@! TO.N,Net-(D46-Pad1)*
X43668800Y-69056200D03*
D13*
X41343800Y-69056200D03*
D12*
G04 #@! TO.P,D46,2*
G04 #@! TO.N,Net-(D46-Pad2)*
X49143800Y-69056200D03*
D11*
G04 #@! TO.P,D46,1*
G04 #@! TO.N,Net-(D46-Pad1)*
X42543800Y-69056200D03*
G04 #@! TO.P,D46,2*
G04 #@! TO.N,Net-(D46-Pad2)*
X47943800Y-69056200D03*
G04 #@! TD*
D14*
G04 #@! TO.P,D47,2*
G04 #@! TO.N,Net-(D47-Pad2)*
X65868800Y-69056200D03*
G04 #@! TO.P,D47,1*
G04 #@! TO.N,Net-(D46-Pad1)*
X62718800Y-69056200D03*
D13*
X60393800Y-69056200D03*
D12*
G04 #@! TO.P,D47,2*
G04 #@! TO.N,Net-(D47-Pad2)*
X68193800Y-69056200D03*
D11*
G04 #@! TO.P,D47,1*
G04 #@! TO.N,Net-(D46-Pad1)*
X61593800Y-69056200D03*
G04 #@! TO.P,D47,2*
G04 #@! TO.N,Net-(D47-Pad2)*
X66993800Y-69056200D03*
G04 #@! TD*
G04 #@! TO.P,D48,2*
G04 #@! TO.N,Net-(D48-Pad2)*
X86043800Y-69056200D03*
G04 #@! TO.P,D48,1*
G04 #@! TO.N,Net-(D46-Pad1)*
X80643800Y-69056200D03*
D12*
G04 #@! TO.P,D48,2*
G04 #@! TO.N,Net-(D48-Pad2)*
X87243800Y-69056200D03*
D13*
G04 #@! TO.P,D48,1*
G04 #@! TO.N,Net-(D46-Pad1)*
X79443800Y-69056200D03*
D14*
X81768800Y-69056200D03*
G04 #@! TO.P,D48,2*
G04 #@! TO.N,Net-(D48-Pad2)*
X84918800Y-69056200D03*
G04 #@! TD*
D11*
G04 #@! TO.P,D49,2*
G04 #@! TO.N,Net-(D49-Pad2)*
X105094000Y-69056200D03*
G04 #@! TO.P,D49,1*
G04 #@! TO.N,Net-(D46-Pad1)*
X99694000Y-69056200D03*
D12*
G04 #@! TO.P,D49,2*
G04 #@! TO.N,Net-(D49-Pad2)*
X106294000Y-69056200D03*
D13*
G04 #@! TO.P,D49,1*
G04 #@! TO.N,Net-(D46-Pad1)*
X98494000Y-69056200D03*
D14*
X100819000Y-69056200D03*
G04 #@! TO.P,D49,2*
G04 #@! TO.N,Net-(D49-Pad2)*
X103969000Y-69056200D03*
G04 #@! TD*
D11*
G04 #@! TO.P,D50,2*
G04 #@! TO.N,Net-(D50-Pad2)*
X124144000Y-69056200D03*
G04 #@! TO.P,D50,1*
G04 #@! TO.N,Net-(D46-Pad1)*
X118744000Y-69056200D03*
D12*
G04 #@! TO.P,D50,2*
G04 #@! TO.N,Net-(D50-Pad2)*
X125344000Y-69056200D03*
D13*
G04 #@! TO.P,D50,1*
G04 #@! TO.N,Net-(D46-Pad1)*
X117544000Y-69056200D03*
D14*
X119869000Y-69056200D03*
G04 #@! TO.P,D50,2*
G04 #@! TO.N,Net-(D50-Pad2)*
X123019000Y-69056200D03*
G04 #@! TD*
D11*
G04 #@! TO.P,D51,2*
G04 #@! TO.N,Net-(D51-Pad2)*
X143194000Y-69056200D03*
G04 #@! TO.P,D51,1*
G04 #@! TO.N,Net-(D46-Pad1)*
X137794000Y-69056200D03*
D12*
G04 #@! TO.P,D51,2*
G04 #@! TO.N,Net-(D51-Pad2)*
X144394000Y-69056200D03*
D13*
G04 #@! TO.P,D51,1*
G04 #@! TO.N,Net-(D46-Pad1)*
X136594000Y-69056200D03*
D14*
X138919000Y-69056200D03*
G04 #@! TO.P,D51,2*
G04 #@! TO.N,Net-(D51-Pad2)*
X142069000Y-69056200D03*
G04 #@! TD*
D11*
G04 #@! TO.P,D52,2*
G04 #@! TO.N,Net-(D52-Pad2)*
X162244000Y-69056200D03*
G04 #@! TO.P,D52,1*
G04 #@! TO.N,Net-(D46-Pad1)*
X156844000Y-69056200D03*
D12*
G04 #@! TO.P,D52,2*
G04 #@! TO.N,Net-(D52-Pad2)*
X163444000Y-69056200D03*
D13*
G04 #@! TO.P,D52,1*
G04 #@! TO.N,Net-(D46-Pad1)*
X155644000Y-69056200D03*
D14*
X157969000Y-69056200D03*
G04 #@! TO.P,D52,2*
G04 #@! TO.N,Net-(D52-Pad2)*
X161119000Y-69056200D03*
G04 #@! TD*
D11*
G04 #@! TO.P,D53,2*
G04 #@! TO.N,Net-(D53-Pad2)*
X181294000Y-69056200D03*
G04 #@! TO.P,D53,1*
G04 #@! TO.N,Net-(D46-Pad1)*
X175894000Y-69056200D03*
D12*
G04 #@! TO.P,D53,2*
G04 #@! TO.N,Net-(D53-Pad2)*
X182494000Y-69056200D03*
D13*
G04 #@! TO.P,D53,1*
G04 #@! TO.N,Net-(D46-Pad1)*
X174694000Y-69056200D03*
D14*
X177019000Y-69056200D03*
G04 #@! TO.P,D53,2*
G04 #@! TO.N,Net-(D53-Pad2)*
X180169000Y-69056200D03*
G04 #@! TD*
D11*
G04 #@! TO.P,D54,2*
G04 #@! TO.N,Net-(D54-Pad2)*
X200344000Y-69056200D03*
G04 #@! TO.P,D54,1*
G04 #@! TO.N,Net-(D46-Pad1)*
X194944000Y-69056200D03*
D12*
G04 #@! TO.P,D54,2*
G04 #@! TO.N,Net-(D54-Pad2)*
X201544000Y-69056200D03*
D13*
G04 #@! TO.P,D54,1*
G04 #@! TO.N,Net-(D46-Pad1)*
X193744000Y-69056200D03*
D14*
X196069000Y-69056200D03*
G04 #@! TO.P,D54,2*
G04 #@! TO.N,Net-(D54-Pad2)*
X199219000Y-69056200D03*
G04 #@! TD*
D11*
G04 #@! TO.P,D55,2*
G04 #@! TO.N,Net-(D55-Pad2)*
X219394000Y-69056200D03*
G04 #@! TO.P,D55,1*
G04 #@! TO.N,Net-(D55-Pad1)*
X213994000Y-69056200D03*
D12*
G04 #@! TO.P,D55,2*
G04 #@! TO.N,Net-(D55-Pad2)*
X220594000Y-69056200D03*
D13*
G04 #@! TO.P,D55,1*
G04 #@! TO.N,Net-(D55-Pad1)*
X212794000Y-69056200D03*
D14*
X215119000Y-69056200D03*
G04 #@! TO.P,D55,2*
G04 #@! TO.N,Net-(D55-Pad2)*
X218269000Y-69056200D03*
G04 #@! TD*
G04 #@! TO.P,D56,2*
G04 #@! TO.N,Net-(D56-Pad2)*
X237319000Y-69056200D03*
G04 #@! TO.P,D56,1*
G04 #@! TO.N,Net-(D55-Pad1)*
X234169000Y-69056200D03*
D13*
X231844000Y-69056200D03*
D12*
G04 #@! TO.P,D56,2*
G04 #@! TO.N,Net-(D56-Pad2)*
X239644000Y-69056200D03*
D11*
G04 #@! TO.P,D56,1*
G04 #@! TO.N,Net-(D55-Pad1)*
X233044000Y-69056200D03*
G04 #@! TO.P,D56,2*
G04 #@! TO.N,Net-(D56-Pad2)*
X238444000Y-69056200D03*
G04 #@! TD*
D14*
G04 #@! TO.P,D57,2*
G04 #@! TO.N,Net-(D57-Pad2)*
X273037000Y-69056200D03*
G04 #@! TO.P,D57,1*
G04 #@! TO.N,Net-(D55-Pad1)*
X269887000Y-69056200D03*
D13*
X267562000Y-69056200D03*
D12*
G04 #@! TO.P,D57,2*
G04 #@! TO.N,Net-(D57-Pad2)*
X275362000Y-69056200D03*
D11*
G04 #@! TO.P,D57,1*
G04 #@! TO.N,Net-(D55-Pad1)*
X268762000Y-69056200D03*
G04 #@! TO.P,D57,2*
G04 #@! TO.N,Net-(D57-Pad2)*
X274162000Y-69056200D03*
G04 #@! TD*
D14*
G04 #@! TO.P,D58,2*
G04 #@! TO.N,Net-(D58-Pad2)*
X295275000Y-77006200D03*
G04 #@! TO.P,D58,1*
G04 #@! TO.N,Net-(D55-Pad1)*
X295275000Y-80156200D03*
D13*
X295275000Y-82481200D03*
D12*
G04 #@! TO.P,D58,2*
G04 #@! TO.N,Net-(D58-Pad2)*
X295275000Y-74681200D03*
D17*
G04 #@! TO.P,D58,1*
G04 #@! TO.N,Net-(D55-Pad1)*
X295275000Y-81281200D03*
G04 #@! TO.P,D58,2*
G04 #@! TO.N,Net-(D58-Pad2)*
X295275000Y-75881200D03*
G04 #@! TD*
D14*
G04 #@! TO.P,D59,2*
G04 #@! TO.N,Net-(D59-Pad2)*
X53962500Y-88106200D03*
G04 #@! TO.P,D59,1*
G04 #@! TO.N,Net-(D55-Pad1)*
X50812500Y-88106200D03*
D13*
X48487500Y-88106200D03*
D12*
G04 #@! TO.P,D59,2*
G04 #@! TO.N,Net-(D59-Pad2)*
X56287500Y-88106200D03*
D11*
G04 #@! TO.P,D59,1*
G04 #@! TO.N,Net-(D55-Pad1)*
X49687500Y-88106200D03*
G04 #@! TO.P,D59,2*
G04 #@! TO.N,Net-(D59-Pad2)*
X55087500Y-88106200D03*
G04 #@! TD*
G04 #@! TO.P,D60,2*
G04 #@! TO.N,Net-(D60-Pad2)*
X76518800Y-88106200D03*
G04 #@! TO.P,D60,1*
G04 #@! TO.N,Net-(D55-Pad1)*
X71118800Y-88106200D03*
D12*
G04 #@! TO.P,D60,2*
G04 #@! TO.N,Net-(D60-Pad2)*
X77718800Y-88106200D03*
D13*
G04 #@! TO.P,D60,1*
G04 #@! TO.N,Net-(D55-Pad1)*
X69918800Y-88106200D03*
D14*
X72243800Y-88106200D03*
G04 #@! TO.P,D60,2*
G04 #@! TO.N,Net-(D60-Pad2)*
X75393800Y-88106200D03*
G04 #@! TD*
D11*
G04 #@! TO.P,D61,2*
G04 #@! TO.N,Net-(D61-Pad2)*
X157481000Y-88106200D03*
G04 #@! TO.P,D61,1*
G04 #@! TO.N,Net-(D55-Pad1)*
X152081000Y-88106200D03*
D12*
G04 #@! TO.P,D61,2*
G04 #@! TO.N,Net-(D61-Pad2)*
X158681000Y-88106200D03*
D13*
G04 #@! TO.P,D61,1*
G04 #@! TO.N,Net-(D55-Pad1)*
X150881000Y-88106200D03*
D14*
X153206000Y-88106200D03*
G04 #@! TO.P,D61,2*
G04 #@! TO.N,Net-(D61-Pad2)*
X156356000Y-88106200D03*
G04 #@! TD*
D11*
G04 #@! TO.P,D62,2*
G04 #@! TO.N,Net-(D62-Pad2)*
X238444000Y-88106200D03*
G04 #@! TO.P,D62,1*
G04 #@! TO.N,Net-(D55-Pad1)*
X233044000Y-88106200D03*
D12*
G04 #@! TO.P,D62,2*
G04 #@! TO.N,Net-(D62-Pad2)*
X239644000Y-88106200D03*
D13*
G04 #@! TO.P,D62,1*
G04 #@! TO.N,Net-(D55-Pad1)*
X231844000Y-88106200D03*
D14*
X234169000Y-88106200D03*
G04 #@! TO.P,D62,2*
G04 #@! TO.N,Net-(D62-Pad2)*
X237319000Y-88106200D03*
G04 #@! TD*
D11*
G04 #@! TO.P,D63,2*
G04 #@! TO.N,Net-(D63-Pad2)*
X255112000Y-88106200D03*
G04 #@! TO.P,D63,1*
G04 #@! TO.N,Net-(D55-Pad1)*
X249712000Y-88106200D03*
D12*
G04 #@! TO.P,D63,2*
G04 #@! TO.N,Net-(D63-Pad2)*
X256312000Y-88106200D03*
D13*
G04 #@! TO.P,D63,1*
G04 #@! TO.N,Net-(D55-Pad1)*
X248512000Y-88106200D03*
D14*
X250837000Y-88106200D03*
G04 #@! TO.P,D63,2*
G04 #@! TO.N,Net-(D63-Pad2)*
X253987000Y-88106200D03*
G04 #@! TD*
D18*
G04 #@! TO.P,K1,2*
G04 #@! TO.N,Net-(D1-Pad2)*
X23971200Y-16351200D03*
G04 #@! TO.P,K1,1*
G04 #@! TO.N,Net-(K1-Pad1)*
X17621200Y-18891200D03*
G04 #@! TD*
G04 #@! TO.P,K2,1*
G04 #@! TO.N,Net-(K11-Pad1)*
X36671200Y-18891200D03*
G04 #@! TO.P,K2,2*
G04 #@! TO.N,Net-(D2-Pad2)*
X43021200Y-16351200D03*
G04 #@! TD*
G04 #@! TO.P,K3,2*
G04 #@! TO.N,Net-(D3-Pad2)*
X62071200Y-16351200D03*
G04 #@! TO.P,K3,1*
G04 #@! TO.N,Net-(K12-Pad1)*
X55721200Y-18891200D03*
G04 #@! TD*
G04 #@! TO.P,K4,2*
G04 #@! TO.N,Net-(D4-Pad2)*
X81121200Y-16351200D03*
G04 #@! TO.P,K4,1*
G04 #@! TO.N,Net-(K13-Pad1)*
X74771200Y-18891200D03*
G04 #@! TD*
G04 #@! TO.P,K5,1*
G04 #@! TO.N,Net-(K14-Pad1)*
X93821200Y-18891200D03*
G04 #@! TO.P,K5,2*
G04 #@! TO.N,Net-(D5-Pad2)*
X100171200Y-16351200D03*
G04 #@! TD*
G04 #@! TO.P,K6,2*
G04 #@! TO.N,Net-(D6-Pad2)*
X119221000Y-16351200D03*
G04 #@! TO.P,K6,1*
G04 #@! TO.N,Net-(K15-Pad1)*
X112871000Y-18891200D03*
G04 #@! TD*
G04 #@! TO.P,K7,2*
G04 #@! TO.N,Net-(D7-Pad2)*
X138271000Y-16351200D03*
G04 #@! TO.P,K7,1*
G04 #@! TO.N,Net-(K16-Pad1)*
X131921000Y-18891200D03*
G04 #@! TD*
G04 #@! TO.P,K8,2*
G04 #@! TO.N,Net-(D8-Pad2)*
X157321000Y-16351200D03*
G04 #@! TO.P,K8,1*
G04 #@! TO.N,Net-(K17-Pad1)*
X150971000Y-18891200D03*
G04 #@! TD*
G04 #@! TO.P,K9,1*
G04 #@! TO.N,Net-(K18-Pad1)*
X170021000Y-18891200D03*
G04 #@! TO.P,K9,2*
G04 #@! TO.N,Net-(D9-Pad2)*
X176371000Y-16351200D03*
G04 #@! TD*
G04 #@! TO.P,K10,1*
G04 #@! TO.N,Net-(K1-Pad1)*
X189071000Y-18891200D03*
G04 #@! TO.P,K10,2*
G04 #@! TO.N,Net-(D10-Pad2)*
X195421000Y-16351200D03*
G04 #@! TD*
G04 #@! TO.P,K11,1*
G04 #@! TO.N,Net-(K11-Pad1)*
X208121000Y-18891200D03*
G04 #@! TO.P,K11,2*
G04 #@! TO.N,Net-(D11-Pad2)*
X214471000Y-16351200D03*
G04 #@! TD*
G04 #@! TO.P,K12,1*
G04 #@! TO.N,Net-(K12-Pad1)*
X227171000Y-18891200D03*
G04 #@! TO.P,K12,2*
G04 #@! TO.N,Net-(D12-Pad2)*
X233521000Y-16351200D03*
G04 #@! TD*
G04 #@! TO.P,K13,1*
G04 #@! TO.N,Net-(K13-Pad1)*
X246221000Y-18891200D03*
G04 #@! TO.P,K13,2*
G04 #@! TO.N,Net-(D13-Pad2)*
X252571000Y-16351200D03*
G04 #@! TD*
G04 #@! TO.P,K14,1*
G04 #@! TO.N,Net-(K14-Pad1)*
X265271000Y-18891200D03*
G04 #@! TO.P,K14,2*
G04 #@! TO.N,Net-(D14-Pad2)*
X271621000Y-16351200D03*
G04 #@! TD*
G04 #@! TO.P,K15,1*
G04 #@! TO.N,Net-(K15-Pad1)*
X274796000Y-18891200D03*
G04 #@! TO.P,K15,2*
G04 #@! TO.N,Net-(D15-Pad2)*
X281146000Y-16351200D03*
G04 #@! TD*
G04 #@! TO.P,K16,1*
G04 #@! TO.N,Net-(K16-Pad1)*
X284321000Y-18891200D03*
G04 #@! TO.P,K16,2*
G04 #@! TO.N,Net-(D16-Pad2)*
X290671000Y-16351200D03*
G04 #@! TD*
G04 #@! TO.P,K17,2*
G04 #@! TO.N,Net-(D17-Pad2)*
X28733800Y-35401200D03*
G04 #@! TO.P,K17,1*
G04 #@! TO.N,Net-(K17-Pad1)*
X22383800Y-37941200D03*
G04 #@! TD*
G04 #@! TO.P,K18,2*
G04 #@! TO.N,Net-(D18-Pad2)*
X52546200Y-35401200D03*
G04 #@! TO.P,K18,1*
G04 #@! TO.N,Net-(K18-Pad1)*
X46196200Y-37941200D03*
G04 #@! TD*
G04 #@! TO.P,K19,2*
G04 #@! TO.N,Net-(D19-Pad2)*
X71596200Y-35401200D03*
G04 #@! TO.P,K19,1*
G04 #@! TO.N,Net-(K1-Pad1)*
X65246200Y-37941200D03*
G04 #@! TD*
G04 #@! TO.P,K20,1*
G04 #@! TO.N,Net-(K11-Pad1)*
X84296200Y-37941200D03*
G04 #@! TO.P,K20,2*
G04 #@! TO.N,Net-(D20-Pad2)*
X90646200Y-35401200D03*
G04 #@! TD*
G04 #@! TO.P,K21,2*
G04 #@! TO.N,Net-(D21-Pad2)*
X109696000Y-35401200D03*
G04 #@! TO.P,K21,1*
G04 #@! TO.N,Net-(K12-Pad1)*
X103346000Y-37941200D03*
G04 #@! TD*
G04 #@! TO.P,K22,2*
G04 #@! TO.N,Net-(D22-Pad2)*
X128746000Y-35401200D03*
G04 #@! TO.P,K22,1*
G04 #@! TO.N,Net-(K13-Pad1)*
X122396000Y-37941200D03*
G04 #@! TD*
G04 #@! TO.P,K23,2*
G04 #@! TO.N,Net-(D23-Pad2)*
X147796000Y-35401200D03*
G04 #@! TO.P,K23,1*
G04 #@! TO.N,Net-(K14-Pad1)*
X141446000Y-37941200D03*
G04 #@! TD*
G04 #@! TO.P,K24,1*
G04 #@! TO.N,Net-(K15-Pad1)*
X160496000Y-37941200D03*
G04 #@! TO.P,K24,2*
G04 #@! TO.N,Net-(D24-Pad2)*
X166846000Y-35401200D03*
G04 #@! TD*
G04 #@! TO.P,K25,2*
G04 #@! TO.N,Net-(D25-Pad2)*
X185896000Y-35401200D03*
G04 #@! TO.P,K25,1*
G04 #@! TO.N,Net-(K16-Pad1)*
X179546000Y-37941200D03*
G04 #@! TD*
G04 #@! TO.P,K26,2*
G04 #@! TO.N,Net-(D26-Pad2)*
X204946000Y-35401200D03*
G04 #@! TO.P,K26,1*
G04 #@! TO.N,Net-(K17-Pad1)*
X198596000Y-37941200D03*
G04 #@! TD*
G04 #@! TO.P,K27,2*
G04 #@! TO.N,Net-(D27-Pad2)*
X223996000Y-35401200D03*
G04 #@! TO.P,K27,1*
G04 #@! TO.N,Net-(K18-Pad1)*
X217646000Y-37941200D03*
G04 #@! TD*
G04 #@! TO.P,K28,2*
G04 #@! TO.N,Net-(D28-Pad2)*
X243046000Y-35401200D03*
G04 #@! TO.P,K28,1*
G04 #@! TO.N,Net-(K1-Pad1)*
X236696000Y-37941200D03*
G04 #@! TD*
G04 #@! TO.P,K29,2*
G04 #@! TO.N,Net-(D29-Pad2)*
X262096000Y-35401200D03*
G04 #@! TO.P,K29,1*
G04 #@! TO.N,Net-(K11-Pad1)*
X255746000Y-37941200D03*
G04 #@! TD*
G04 #@! TO.P,K30,1*
G04 #@! TO.N,Net-(K12-Pad1)*
X279559000Y-37941200D03*
G04 #@! TO.P,K30,2*
G04 #@! TO.N,Net-(D30-Pad2)*
X285909000Y-35401200D03*
G04 #@! TD*
G04 #@! TO.P,K31,2*
G04 #@! TO.N,Net-(D31-Pad2)*
X31115000Y-54451200D03*
G04 #@! TO.P,K31,1*
G04 #@! TO.N,Net-(K13-Pad1)*
X24765000Y-56991200D03*
G04 #@! TD*
G04 #@! TO.P,K32,2*
G04 #@! TO.N,Net-(D32-Pad2)*
X57308800Y-54451200D03*
G04 #@! TO.P,K32,1*
G04 #@! TO.N,Net-(K14-Pad1)*
X50958800Y-56991200D03*
G04 #@! TD*
G04 #@! TO.P,K33,1*
G04 #@! TO.N,Net-(K15-Pad1)*
X70008800Y-56991200D03*
G04 #@! TO.P,K33,2*
G04 #@! TO.N,Net-(D33-Pad2)*
X76358800Y-54451200D03*
G04 #@! TD*
G04 #@! TO.P,K34,2*
G04 #@! TO.N,Net-(D34-Pad2)*
X95408800Y-54451200D03*
G04 #@! TO.P,K34,1*
G04 #@! TO.N,Net-(K16-Pad1)*
X89058800Y-56991200D03*
G04 #@! TD*
G04 #@! TO.P,K35,1*
G04 #@! TO.N,Net-(K17-Pad1)*
X108109000Y-56991200D03*
G04 #@! TO.P,K35,2*
G04 #@! TO.N,Net-(D35-Pad2)*
X114459000Y-54451200D03*
G04 #@! TD*
G04 #@! TO.P,K36,1*
G04 #@! TO.N,Net-(K18-Pad1)*
X127159000Y-56991200D03*
G04 #@! TO.P,K36,2*
G04 #@! TO.N,Net-(D36-Pad2)*
X133509000Y-54451200D03*
G04 #@! TD*
G04 #@! TO.P,K37,1*
G04 #@! TO.N,Net-(K1-Pad1)*
X146209000Y-56991200D03*
G04 #@! TO.P,K37,2*
G04 #@! TO.N,Net-(D37-Pad2)*
X152559000Y-54451200D03*
G04 #@! TD*
G04 #@! TO.P,K38,1*
G04 #@! TO.N,Net-(K11-Pad1)*
X165259000Y-56991200D03*
G04 #@! TO.P,K38,2*
G04 #@! TO.N,Net-(D38-Pad2)*
X171609000Y-54451200D03*
G04 #@! TD*
G04 #@! TO.P,K39,2*
G04 #@! TO.N,Net-(D39-Pad2)*
X190659000Y-54451200D03*
G04 #@! TO.P,K39,1*
G04 #@! TO.N,Net-(K12-Pad1)*
X184309000Y-56991200D03*
G04 #@! TD*
G04 #@! TO.P,K40,1*
G04 #@! TO.N,Net-(K13-Pad1)*
X203359000Y-56991200D03*
G04 #@! TO.P,K40,2*
G04 #@! TO.N,Net-(D40-Pad2)*
X209709000Y-54451200D03*
G04 #@! TD*
G04 #@! TO.P,K41,1*
G04 #@! TO.N,Net-(K14-Pad1)*
X222409000Y-56991200D03*
G04 #@! TO.P,K41,2*
G04 #@! TO.N,Net-(D41-Pad2)*
X228759000Y-54451200D03*
G04 #@! TD*
G04 #@! TO.P,K42,1*
G04 #@! TO.N,Net-(K15-Pad1)*
X241459000Y-56991200D03*
G04 #@! TO.P,K42,2*
G04 #@! TO.N,Net-(D42-Pad2)*
X247809000Y-54451200D03*
G04 #@! TD*
G04 #@! TO.P,K43,1*
G04 #@! TO.N,Net-(K16-Pad1)*
X260509000Y-56991200D03*
G04 #@! TO.P,K43,2*
G04 #@! TO.N,Net-(D43-Pad2)*
X266859000Y-54451200D03*
G04 #@! TD*
G04 #@! TO.P,K44,2*
G04 #@! TO.N,Net-(D44-Pad2)*
X278765000Y-54451200D03*
G04 #@! TO.P,K44,1*
G04 #@! TO.N,Net-(K17-Pad1)*
X272415000Y-56991200D03*
G04 #@! TD*
G04 #@! TO.P,K45,1*
G04 #@! TO.N,Net-(K18-Pad1)*
X29527500Y-76041200D03*
G04 #@! TO.P,K45,2*
G04 #@! TO.N,Net-(D45-Pad2)*
X35877500Y-73501200D03*
G04 #@! TD*
G04 #@! TO.P,K46,1*
G04 #@! TO.N,Net-(K1-Pad1)*
X41433800Y-76041200D03*
G04 #@! TO.P,K46,2*
G04 #@! TO.N,Net-(D46-Pad2)*
X47783800Y-73501200D03*
G04 #@! TD*
G04 #@! TO.P,K47,1*
G04 #@! TO.N,Net-(K11-Pad1)*
X60483800Y-76041200D03*
G04 #@! TO.P,K47,2*
G04 #@! TO.N,Net-(D47-Pad2)*
X66833800Y-73501200D03*
G04 #@! TD*
G04 #@! TO.P,K48,1*
G04 #@! TO.N,Net-(K12-Pad1)*
X79533800Y-76041200D03*
G04 #@! TO.P,K48,2*
G04 #@! TO.N,Net-(D48-Pad2)*
X85883800Y-73501200D03*
G04 #@! TD*
G04 #@! TO.P,K49,2*
G04 #@! TO.N,Net-(D49-Pad2)*
X104934000Y-73501200D03*
G04 #@! TO.P,K49,1*
G04 #@! TO.N,Net-(K13-Pad1)*
X98584000Y-76041200D03*
G04 #@! TD*
G04 #@! TO.P,K50,1*
G04 #@! TO.N,Net-(K14-Pad1)*
X117634000Y-76041200D03*
G04 #@! TO.P,K50,2*
G04 #@! TO.N,Net-(D50-Pad2)*
X123984000Y-73501200D03*
G04 #@! TD*
G04 #@! TO.P,K51,2*
G04 #@! TO.N,Net-(D51-Pad2)*
X143034000Y-73501200D03*
G04 #@! TO.P,K51,1*
G04 #@! TO.N,Net-(K15-Pad1)*
X136684000Y-76041200D03*
G04 #@! TD*
G04 #@! TO.P,K52,2*
G04 #@! TO.N,Net-(D52-Pad2)*
X162084000Y-73501200D03*
G04 #@! TO.P,K52,1*
G04 #@! TO.N,Net-(K16-Pad1)*
X155734000Y-76041200D03*
G04 #@! TD*
G04 #@! TO.P,K53,2*
G04 #@! TO.N,Net-(D53-Pad2)*
X181134000Y-73501200D03*
G04 #@! TO.P,K53,1*
G04 #@! TO.N,Net-(K17-Pad1)*
X174784000Y-76041200D03*
G04 #@! TD*
G04 #@! TO.P,K54,2*
G04 #@! TO.N,Net-(D54-Pad2)*
X200184000Y-73501200D03*
G04 #@! TO.P,K54,1*
G04 #@! TO.N,Net-(K18-Pad1)*
X193834000Y-76041200D03*
G04 #@! TD*
G04 #@! TO.P,K55,2*
G04 #@! TO.N,Net-(D55-Pad2)*
X219234000Y-73501200D03*
G04 #@! TO.P,K55,1*
G04 #@! TO.N,Net-(K1-Pad1)*
X212884000Y-76041200D03*
G04 #@! TD*
G04 #@! TO.P,K56,2*
G04 #@! TO.N,Net-(D56-Pad2)*
X238284000Y-73501200D03*
G04 #@! TO.P,K56,1*
G04 #@! TO.N,Net-(K11-Pad1)*
X231934000Y-76041200D03*
G04 #@! TD*
G04 #@! TO.P,K57,1*
G04 #@! TO.N,Net-(K12-Pad1)*
X267652000Y-76041200D03*
G04 #@! TO.P,K57,2*
G04 #@! TO.N,Net-(D57-Pad2)*
X274002000Y-73501200D03*
G04 #@! TD*
G04 #@! TO.P,K58,1*
G04 #@! TO.N,Net-(K13-Pad1)*
X284321000Y-76041200D03*
G04 #@! TO.P,K58,2*
G04 #@! TO.N,Net-(D58-Pad2)*
X290671000Y-73501200D03*
G04 #@! TD*
G04 #@! TO.P,K59,1*
G04 #@! TO.N,Net-(K14-Pad1)*
X46196200Y-95091200D03*
G04 #@! TO.P,K59,2*
G04 #@! TO.N,Net-(D59-Pad2)*
X52546200Y-92551200D03*
G04 #@! TD*
G04 #@! TO.P,K60,2*
G04 #@! TO.N,Net-(D60-Pad2)*
X76358800Y-92551200D03*
G04 #@! TO.P,K60,1*
G04 #@! TO.N,Net-(K15-Pad1)*
X70008800Y-95091200D03*
G04 #@! TD*
G04 #@! TO.P,K61,1*
G04 #@! TO.N,Net-(K16-Pad1)*
X150971000Y-95091200D03*
G04 #@! TO.P,K61,2*
G04 #@! TO.N,Net-(D61-Pad2)*
X157321000Y-92551200D03*
G04 #@! TD*
G04 #@! TO.P,K62,1*
G04 #@! TO.N,Net-(K17-Pad1)*
X231934000Y-95091200D03*
G04 #@! TO.P,K62,2*
G04 #@! TO.N,Net-(D62-Pad2)*
X238284000Y-92551200D03*
G04 #@! TD*
G04 #@! TO.P,K63,1*
G04 #@! TO.N,Net-(K18-Pad1)*
X255746000Y-95091200D03*
G04 #@! TO.P,K63,2*
G04 #@! TO.N,Net-(D63-Pad2)*
X262096000Y-92551200D03*
G04 #@! TD*
G04 #@! TO.P,K31-2,2*
G04 #@! TO.N,Net-(D28-Pad1)*
X26352500Y-54451200D03*
G04 #@! TO.P,K31-2,1*
G04 #@! TO.N,Net-(K13-Pad1)*
X20002500Y-56991200D03*
G04 #@! TD*
G04 #@! TO.P,K44-2,2*
G04 #@! TO.N,Net-(D37-Pad1)*
X290830000Y-52546200D03*
G04 #@! TO.P,K44-2,1*
G04 #@! TO.N,Net-(K17-Pad1)*
X288290000Y-46196200D03*
G04 #@! TD*
G04 #@! TO.P,K45-2,1*
G04 #@! TO.N,Net-(K18-Pad1)*
X20002500Y-76041200D03*
G04 #@! TO.P,K45-2,2*
G04 #@! TO.N,Net-(D37-Pad1)*
X26352500Y-73501200D03*
G04 #@! TD*
G04 #@! TO.P,K57-2,1*
G04 #@! TO.N,Net-(K12-Pad1)*
X258128000Y-76041200D03*
G04 #@! TO.P,K57-2,2*
G04 #@! TO.N,Net-(D55-Pad1)*
X264478000Y-73501200D03*
G04 #@! TD*
D19*
G04 #@! TO.P,SW1,1*
G04 #@! TO.N,Net-(J1-Pad2)*
X138881000Y-4900000D03*
X132581000Y-4900000D03*
G04 #@! TO.P,SW1,2*
G04 #@! TO.N,Net-(SW1-Pad2)*
X138881000Y-8700000D03*
X132581000Y-8700000D03*
G04 #@! TD*
D13*
G04 #@! TO.P,U1,1*
G04 #@! TO.N,Net-(D1-Pad1)*
X162401000Y-4730000D03*
D12*
G04 #@! TO.P,U1,2*
G04 #@! TO.N,Net-(D10-Pad1)*
X162401000Y-7270000D03*
G04 #@! TO.P,U1,3*
G04 #@! TO.N,Net-(U1-Pad3)*
X162401000Y-9810000D03*
G04 #@! TO.P,U1,4*
G04 #@! TO.N,Net-(U1-Pad4)*
X162401000Y-12350000D03*
G04 #@! TO.P,U1,5*
G04 #@! TO.N,Net-(D19-Pad1)*
X162401000Y-14890000D03*
G04 #@! TO.P,U1,6*
G04 #@! TO.N,Net-(D28-Pad1)*
X162401000Y-17430000D03*
G04 #@! TO.P,U1,7*
G04 #@! TO.N,Net-(D37-Pad1)*
X162401000Y-19970000D03*
G04 #@! TO.P,U1,8*
G04 #@! TO.N,Net-(D46-Pad1)*
X162401000Y-22510000D03*
G04 #@! TO.P,U1,9*
G04 #@! TO.N,Net-(D55-Pad1)*
X162401000Y-25050000D03*
G04 #@! TO.P,U1,10*
G04 #@! TO.N,Net-(K1-Pad1)*
X162401000Y-27590000D03*
G04 #@! TO.P,U1,11*
G04 #@! TO.N,Net-(K11-Pad1)*
X162401000Y-30130000D03*
G04 #@! TO.P,U1,12*
G04 #@! TO.N,Net-(K12-Pad1)*
X162401000Y-32670000D03*
G04 #@! TO.P,U1,13*
G04 #@! TO.N,Net-(J1-Pad4)*
X147161000Y-32670000D03*
G04 #@! TO.P,U1,14*
G04 #@! TO.N,Net-(J1-Pad3)*
X147161000Y-30130000D03*
G04 #@! TO.P,U1,15*
G04 #@! TO.N,Net-(K18-Pad1)*
X147161000Y-27590000D03*
G04 #@! TO.P,U1,16*
G04 #@! TO.N,Net-(K17-Pad1)*
X147161000Y-25050000D03*
G04 #@! TO.P,U1,17*
G04 #@! TO.N,Net-(K16-Pad1)*
X147161000Y-22510000D03*
G04 #@! TO.P,U1,18*
G04 #@! TO.N,Net-(K15-Pad1)*
X147161000Y-19970000D03*
G04 #@! TO.P,U1,19*
G04 #@! TO.N,Net-(K14-Pad1)*
X147161000Y-17430000D03*
G04 #@! TO.P,U1,20*
G04 #@! TO.N,Net-(K13-Pad1)*
X147161000Y-14890000D03*
G04 #@! TO.P,U1,21*
G04 #@! TO.N,Net-(J1-Pad1)*
X147161000Y-12350000D03*
G04 #@! TO.P,U1,22*
G04 #@! TO.N,Net-(SW1-Pad2)*
X147161000Y-9810000D03*
G04 #@! TO.P,U1,23*
G04 #@! TO.N,Net-(J1-Pad2)*
X147161000Y-7270000D03*
G04 #@! TO.P,U1,24*
G04 #@! TO.N,Net-(U1-Pad24)*
X147161000Y-4730000D03*
G04 #@! TD*
D20*
G04 #@! TO.N,Net-(D19-Pad1)*
X164767000Y-27070600D03*
G04 #@! TO.N,Net-(D28-Pad1)*
X152560000Y-34691000D03*
X142603000Y-35900900D03*
G04 #@! TO.N,Net-(K1-Pad1)*
X50033600Y-24649200D03*
G04 #@! TO.N,Net-(K11-Pad1)*
X40196400Y-32818800D03*
G04 #@! TO.N,Net-(K12-Pad1)*
X281525000Y-50006300D03*
X271462000Y-66675000D03*
X71551400Y-39264800D03*
X175190000Y-29566000D03*
G04 #@! TO.N,Net-(K13-Pad1)*
X220396000Y-55971800D03*
G04 #@! TO.N,Net-(K14-Pad1)*
X232230000Y-48134100D03*
G04 #@! TO.N,Net-(K15-Pad1)*
X151806000Y-37941200D03*
X244670000Y-47387300D03*
G04 #@! TO.N,Net-(K16-Pad1)*
X151364000Y-35815700D03*
X184539000Y-52388700D03*
G04 #@! TO.N,Net-(K17-Pad1)*
X113307000Y-47663400D03*
X150254000Y-36839600D03*
G04 #@! TO.N,Net-(K18-Pad1)*
X41593200Y-52613800D03*
X203558000Y-37941200D03*
X233601000Y-94124500D03*
G04 #@! TO.N,Net-(J1-Pad3)*
X144881100Y-26670800D03*
X142084900Y-20575100D03*
G04 #@! TO.N,Net-(J1-Pad4)*
X190918800Y-26478500D03*
G04 #@! TD*
D21*
G04 #@! TO.N,Net-(D1-Pad1)*
X162401000Y-4730000D02*
X163526000Y-4730000D01*
X163526000Y-4730000D02*
X169577000Y-10780900D01*
X169577000Y-10780900D02*
X169931000Y-10780900D01*
X169931000Y-10780900D02*
X169931000Y-11906200D01*
X150881000Y-11906200D02*
X152081000Y-11906200D01*
X153206000Y-11906200D02*
X152081000Y-11906200D01*
X153206000Y-11906200D02*
X154131000Y-11906200D01*
X154131000Y-11906200D02*
X161276000Y-4761800D01*
X161276000Y-4761800D02*
X161276000Y-4730000D01*
X161276000Y-4730000D02*
X162401000Y-4730000D01*
X134156000Y-11906200D02*
X133031000Y-11906200D01*
X131831000Y-11906200D02*
X133031000Y-11906200D01*
X115106000Y-11906200D02*
X113981000Y-11906200D01*
X113981000Y-11906200D02*
X112781000Y-11906200D01*
X112781000Y-11906200D02*
X111656000Y-11906200D01*
X111656000Y-11906200D02*
X110520000Y-10770700D01*
X110520000Y-10770700D02*
X98117000Y-10770700D01*
X98117000Y-10770700D02*
X96981500Y-11906200D01*
X96981500Y-11906200D02*
X96056200Y-11906200D01*
X172256000Y-11906200D02*
X171131000Y-11906200D01*
X171131000Y-11906200D02*
X169931000Y-11906200D01*
X96056200Y-11906200D02*
X94931200Y-11906200D01*
X94931200Y-11906200D02*
X93731200Y-11906200D01*
X77006200Y-11906200D02*
X75881200Y-11906200D01*
X75881200Y-11906200D02*
X74681200Y-11906200D01*
X57956200Y-11906200D02*
X56831200Y-11906200D01*
X56831200Y-11906200D02*
X55631200Y-11906200D01*
X38906200Y-11906200D02*
X37781200Y-11906200D01*
X37781200Y-11906200D02*
X36581200Y-11906200D01*
X19856200Y-11906200D02*
X18731200Y-11906200D01*
X18731200Y-11906200D02*
X17531200Y-11906200D01*
G04 #@! TO.N,Net-(D1-Pad2)*
X23971200Y-16351200D02*
X22555900Y-14935900D01*
X22555900Y-14935900D02*
X22555900Y-11906200D01*
X22555900Y-11906200D02*
X23006200Y-11906200D01*
X24131200Y-11906200D02*
X23006200Y-11906200D01*
X24131200Y-11906200D02*
X25331200Y-11906200D01*
G04 #@! TO.N,Net-(D2-Pad2)*
X43021200Y-16351200D02*
X41605900Y-14935900D01*
X41605900Y-14935900D02*
X41605900Y-11906200D01*
X41605900Y-11906200D02*
X42056200Y-11906200D01*
X43181200Y-11906200D02*
X42056200Y-11906200D01*
X43181200Y-11906200D02*
X44381200Y-11906200D01*
G04 #@! TO.N,Net-(D3-Pad2)*
X62071200Y-16351200D02*
X60655900Y-14935900D01*
X60655900Y-14935900D02*
X60655900Y-11906200D01*
X60655900Y-11906200D02*
X61106200Y-11906200D01*
X62231200Y-11906200D02*
X61106200Y-11906200D01*
X62231200Y-11906200D02*
X63431200Y-11906200D01*
G04 #@! TO.N,Net-(D4-Pad2)*
X81121200Y-16351200D02*
X79705900Y-14935900D01*
X79705900Y-14935900D02*
X79705900Y-11906200D01*
X79705900Y-11906200D02*
X80156200Y-11906200D01*
X81281200Y-11906200D02*
X80156200Y-11906200D01*
X81281200Y-11906200D02*
X82481200Y-11906200D01*
G04 #@! TO.N,Net-(D5-Pad2)*
X101531200Y-11906200D02*
X101531000Y-11906200D01*
X100171200Y-16351200D02*
X100171000Y-16351200D01*
X100171000Y-16351200D02*
X98755900Y-14935900D01*
X98755900Y-14935900D02*
X98755900Y-11906200D01*
X98755900Y-11906200D02*
X99206200Y-11906200D01*
X100331200Y-11906200D02*
X99206200Y-11906200D01*
X101531000Y-11906200D02*
X100331200Y-11906200D01*
G04 #@! TO.N,Net-(D6-Pad2)*
X119221000Y-16351200D02*
X117806000Y-14935900D01*
X117806000Y-14935900D02*
X117806000Y-11906200D01*
X117806000Y-11906200D02*
X118256000Y-11906200D01*
X119381000Y-11906200D02*
X118256000Y-11906200D01*
X119381000Y-11906200D02*
X120581000Y-11906200D01*
G04 #@! TO.N,Net-(D7-Pad2)*
X138271000Y-16351200D02*
X136856000Y-14935900D01*
X136856000Y-14935900D02*
X136856000Y-11906200D01*
X136856000Y-11906200D02*
X137306000Y-11906200D01*
X138431000Y-11906200D02*
X137306000Y-11906200D01*
X138431000Y-11906200D02*
X139631000Y-11906200D01*
G04 #@! TO.N,Net-(D8-Pad2)*
X156356000Y-11906200D02*
X157481000Y-11906200D01*
X158681000Y-11906200D02*
X157481000Y-11906200D01*
G04 #@! TO.N,Net-(D9-Pad2)*
X176371000Y-16351200D02*
X174956000Y-14935900D01*
X174956000Y-14935900D02*
X174956000Y-11906200D01*
X174956000Y-11906200D02*
X175406000Y-11906200D01*
X176531000Y-11906200D02*
X175406000Y-11906200D01*
X176531000Y-11906200D02*
X177731000Y-11906200D01*
G04 #@! TO.N,Net-(D10-Pad1)*
X48431200Y-30956200D02*
X47306200Y-30956200D01*
X46106200Y-30956200D02*
X47306200Y-30956200D01*
X24618800Y-30956200D02*
X23493800Y-30956200D01*
X22293800Y-30956200D02*
X23493800Y-30956200D01*
X248456000Y-11906200D02*
X247331000Y-11906200D01*
X247331000Y-11906200D02*
X246131000Y-11906200D01*
X229406000Y-11906200D02*
X228281000Y-11906200D01*
X228281000Y-11906200D02*
X227081000Y-11906200D01*
X210356000Y-11906200D02*
X209231000Y-11906200D01*
X209231000Y-11906200D02*
X208031000Y-11906200D01*
X191306000Y-11906200D02*
X190181000Y-11906200D01*
X190181000Y-11906200D02*
X188981000Y-11906200D01*
G04 #@! TO.N,Net-(D10-Pad2)*
X195421000Y-16351200D02*
X194006000Y-14935900D01*
X194006000Y-14935900D02*
X194006000Y-11906200D01*
X194006000Y-11906200D02*
X194456000Y-11906200D01*
X195581000Y-11906200D02*
X194456000Y-11906200D01*
X195581000Y-11906200D02*
X196781000Y-11906200D01*
G04 #@! TO.N,Net-(D11-Pad2)*
X214471000Y-16351200D02*
X213056000Y-14935900D01*
X213056000Y-14935900D02*
X213056000Y-11906200D01*
X213056000Y-11906200D02*
X213506000Y-11906200D01*
X214631000Y-11906200D02*
X213506000Y-11906200D01*
X214631000Y-11906200D02*
X215831000Y-11906200D01*
G04 #@! TO.N,Net-(D12-Pad2)*
X233521000Y-16351200D02*
X232106000Y-14935900D01*
X232106000Y-14935900D02*
X232106000Y-11906200D01*
X232106000Y-11906200D02*
X232556000Y-11906200D01*
X233681000Y-11906200D02*
X232556000Y-11906200D01*
X233681000Y-11906200D02*
X234881000Y-11906200D01*
G04 #@! TO.N,Net-(D13-Pad2)*
X252571000Y-16351200D02*
X251156000Y-14935900D01*
X251156000Y-14935900D02*
X251156000Y-11906200D01*
X251156000Y-11906200D02*
X251606000Y-11906200D01*
X252731000Y-11906200D02*
X251606000Y-11906200D01*
X252731000Y-11906200D02*
X253931000Y-11906200D01*
G04 #@! TO.N,Net-(D14-Pad2)*
X271621000Y-10546000D02*
X270600000Y-9525000D01*
X271621000Y-16351200D02*
X271621000Y-10546000D01*
G04 #@! TO.N,Net-(D15-Pad2)*
X281146000Y-13266450D02*
X282506250Y-11906200D01*
X281146000Y-16351200D02*
X281146000Y-13266450D01*
G04 #@! TO.N,Net-(D16-Pad2)*
X294412500Y-13282472D02*
X294412500Y-9525000D01*
X291343772Y-16351200D02*
X294412500Y-13282472D01*
X290671000Y-16351200D02*
X291343772Y-16351200D01*
G04 #@! TO.N,Net-(D17-Pad2)*
X28733800Y-35401200D02*
X27318500Y-33985900D01*
X27318500Y-33985900D02*
X27318500Y-30956200D01*
X27318500Y-30956200D02*
X27768800Y-30956200D01*
X28893800Y-30956200D02*
X27768800Y-30956200D01*
X28893800Y-30956200D02*
X30093800Y-30956200D01*
G04 #@! TO.N,Net-(D18-Pad2)*
X52546200Y-35401200D02*
X51130900Y-33985900D01*
X51130900Y-33985900D02*
X51130900Y-30956200D01*
X51130900Y-30956200D02*
X51581200Y-30956200D01*
X52706200Y-30956200D02*
X51581200Y-30956200D01*
X52706200Y-30956200D02*
X53906200Y-30956200D01*
G04 #@! TO.N,Net-(D19-Pad2)*
X71596200Y-35401200D02*
X70180900Y-33985900D01*
X70180900Y-33985900D02*
X70180900Y-30956200D01*
X70180900Y-30956200D02*
X70631200Y-30956200D01*
X71756200Y-30956200D02*
X70631200Y-30956200D01*
X71756200Y-30956200D02*
X72956200Y-30956200D01*
G04 #@! TO.N,Net-(D19-Pad1)*
X124631000Y-30956200D02*
X123506000Y-30956200D01*
X122306000Y-30956200D02*
X123506000Y-30956200D01*
X105581000Y-30956200D02*
X104456000Y-30956200D01*
X103256000Y-30956200D02*
X104456000Y-30956200D01*
X86531200Y-30956200D02*
X85406200Y-30956200D01*
X84206200Y-30956200D02*
X85406200Y-30956200D01*
X67481200Y-30956200D02*
X66356200Y-30956200D01*
X65156200Y-30956200D02*
X66356200Y-30956200D01*
X219881000Y-30956200D02*
X218756000Y-30956200D01*
X218756000Y-30956200D02*
X217556000Y-30956200D01*
X200831000Y-30956200D02*
X199706000Y-30956200D01*
X199706000Y-30956200D02*
X198506000Y-30956200D01*
X181781000Y-30956200D02*
X180656000Y-30956200D01*
X180656000Y-30956200D02*
X179456000Y-30956200D01*
X167494000Y-30956200D02*
X166369000Y-30956200D01*
X166369000Y-30956200D02*
X165169000Y-30956200D01*
X138919000Y-30956200D02*
X137794000Y-30956200D01*
X137794000Y-30956200D02*
X136594000Y-30956200D01*
X162401000Y-14890000D02*
X164767000Y-17255700D01*
X164767000Y-17255700D02*
X164767000Y-27070600D01*
X165169000Y-30956200D02*
X165169000Y-27472900D01*
X165169000Y-27472900D02*
X164767000Y-27070600D01*
G04 #@! TO.N,Net-(D20-Pad2)*
X90646200Y-35401200D02*
X89230900Y-33985900D01*
X89230900Y-33985900D02*
X89230900Y-30956200D01*
X89230900Y-30956200D02*
X89681200Y-30956200D01*
X90806200Y-30956200D02*
X89681200Y-30956200D01*
X90806200Y-30956200D02*
X92006200Y-30956200D01*
G04 #@! TO.N,Net-(D21-Pad2)*
X109696000Y-35401200D02*
X108281000Y-33985900D01*
X108281000Y-33985900D02*
X108281000Y-30956200D01*
X108281000Y-30956200D02*
X108731000Y-30956200D01*
X109856000Y-30956200D02*
X108731000Y-30956200D01*
X109856000Y-30956200D02*
X111056000Y-30956200D01*
G04 #@! TO.N,Net-(D22-Pad2)*
X128746000Y-35401200D02*
X127331000Y-33985900D01*
X127331000Y-33985900D02*
X127331000Y-30956200D01*
X127331000Y-30956200D02*
X127781000Y-30956200D01*
X128906000Y-30956200D02*
X127781000Y-30956200D01*
X128906000Y-30956200D02*
X130106000Y-30956200D01*
G04 #@! TO.N,Net-(D23-Pad2)*
X147796000Y-35401200D02*
X144394000Y-31999200D01*
X144394000Y-31999200D02*
X144394000Y-30956200D01*
X142069000Y-30956200D02*
X143194000Y-30956200D01*
X143194000Y-30956200D02*
X144394000Y-30956200D01*
G04 #@! TO.N,Net-(D24-Pad2)*
X166846000Y-35401200D02*
X170366000Y-31881500D01*
X170366000Y-31881500D02*
X170644000Y-31881500D01*
X170644000Y-31881500D02*
X170644000Y-30956200D01*
X170644000Y-30956200D02*
X171769000Y-30956200D01*
X171769000Y-30956200D02*
X172969000Y-30956200D01*
G04 #@! TO.N,Net-(D25-Pad2)*
X185896000Y-35401200D02*
X184481000Y-33985900D01*
X184481000Y-33985900D02*
X184481000Y-30956200D01*
X184481000Y-30956200D02*
X184931000Y-30956200D01*
X186056000Y-30956200D02*
X184931000Y-30956200D01*
X186056000Y-30956200D02*
X187256000Y-30956200D01*
G04 #@! TO.N,Net-(D26-Pad2)*
X204946000Y-35401200D02*
X203531000Y-33985900D01*
X203531000Y-33985900D02*
X203531000Y-30956200D01*
X203531000Y-30956200D02*
X203981000Y-30956200D01*
X205106000Y-30956200D02*
X203981000Y-30956200D01*
X205106000Y-30956200D02*
X206306000Y-30956200D01*
G04 #@! TO.N,Net-(D27-Pad2)*
X223996000Y-35401200D02*
X222581000Y-33985900D01*
X222581000Y-33985900D02*
X222581000Y-30956200D01*
X222581000Y-30956200D02*
X223031000Y-30956200D01*
X224156000Y-30956200D02*
X223031000Y-30956200D01*
X224156000Y-30956200D02*
X225356000Y-30956200D01*
G04 #@! TO.N,Net-(D28-Pad1)*
X26352500Y-54451200D02*
X27450300Y-53353400D01*
X27450300Y-53353400D02*
X27450300Y-50006200D01*
X27450300Y-50006200D02*
X27000000Y-50006200D01*
X110344000Y-50006200D02*
X109219000Y-50006200D01*
X108019000Y-50006200D02*
X109219000Y-50006200D01*
X91293800Y-50006200D02*
X90168800Y-50006200D01*
X88968800Y-50006200D02*
X90168800Y-50006200D01*
X25875000Y-50006200D02*
X27000000Y-50006200D01*
X25875000Y-50006200D02*
X24675000Y-50006200D01*
X281794000Y-30956200D02*
X280669000Y-30956200D01*
X279469000Y-30956200D02*
X280669000Y-30956200D01*
X128269000Y-50006200D02*
X127069000Y-50006200D01*
X72243800Y-50006200D02*
X71118800Y-50006200D01*
X71118800Y-50006200D02*
X69918800Y-50006200D01*
X53193800Y-50006200D02*
X52068800Y-50006200D01*
X52068800Y-50006200D02*
X50868800Y-50006200D01*
X129394000Y-50006200D02*
X128269000Y-50006200D01*
X162401000Y-17430000D02*
X162165000Y-17430000D01*
X162165000Y-17430000D02*
X152560000Y-27034100D01*
X152560000Y-27034100D02*
X152560000Y-34691000D01*
X257981000Y-30956200D02*
X256856000Y-30956200D01*
X256856000Y-30956200D02*
X255656000Y-30956200D01*
X238931000Y-30956200D02*
X237806000Y-30956200D01*
X237806000Y-30956200D02*
X236606000Y-30956200D01*
X129394000Y-50006200D02*
X129394000Y-49080900D01*
X129394000Y-49080900D02*
X139223000Y-39252000D01*
X139223000Y-39252000D02*
X140706000Y-39252000D01*
X140706000Y-39252000D02*
X140875000Y-39421100D01*
X140875000Y-39421100D02*
X142065000Y-39421100D01*
X142065000Y-39421100D02*
X142910000Y-38575300D01*
X142910000Y-38575300D02*
X142910000Y-36207900D01*
X142910000Y-36207900D02*
X142603000Y-35900900D01*
G04 #@! TO.N,Net-(D28-Pad2)*
X243046000Y-35401200D02*
X241631000Y-33985900D01*
X241631000Y-33985900D02*
X241631000Y-30956200D01*
X241631000Y-30956200D02*
X242081000Y-30956200D01*
X243206000Y-30956200D02*
X242081000Y-30956200D01*
X243206000Y-30956200D02*
X244406000Y-30956200D01*
G04 #@! TO.N,Net-(D29-Pad2)*
X262096000Y-35401200D02*
X260681000Y-33985900D01*
X260681000Y-33985900D02*
X260681000Y-30956200D01*
X260681000Y-30956200D02*
X261131000Y-30956200D01*
X262256000Y-30956200D02*
X261131000Y-30956200D01*
X262256000Y-30956200D02*
X263456000Y-30956200D01*
G04 #@! TO.N,Net-(D30-Pad2)*
X285909000Y-35401200D02*
X284494000Y-33985900D01*
X284494000Y-33985900D02*
X284494000Y-30956200D01*
X284494000Y-30956200D02*
X284944000Y-30956200D01*
X286069000Y-30956200D02*
X284944000Y-30956200D01*
X286069000Y-30956200D02*
X287269000Y-30956200D01*
G04 #@! TO.N,Net-(D31-Pad2)*
X31115000Y-54451200D02*
X29699700Y-53035900D01*
X29699700Y-53035900D02*
X29699700Y-50006200D01*
X29699700Y-50006200D02*
X30150000Y-50006200D01*
X31275000Y-50006200D02*
X30150000Y-50006200D01*
X31275000Y-50006200D02*
X32475000Y-50006200D01*
G04 #@! TO.N,Net-(D32-Pad2)*
X57308800Y-50006200D02*
X57308800Y-54451200D01*
X56343800Y-50006200D02*
X57308800Y-50006200D01*
X57468800Y-50006200D02*
X58668800Y-50006200D01*
X57308800Y-50006200D02*
X57468800Y-50006200D01*
G04 #@! TO.N,Net-(D33-Pad2)*
X76358800Y-54451200D02*
X74943500Y-53035900D01*
X74943500Y-53035900D02*
X74943500Y-50006200D01*
X74943500Y-50006200D02*
X75393800Y-50006200D01*
X76518800Y-50006200D02*
X75393800Y-50006200D01*
X76518800Y-50006200D02*
X77718800Y-50006200D01*
G04 #@! TO.N,Net-(D34-Pad2)*
X95408800Y-54451200D02*
X93993500Y-53035900D01*
X93993500Y-53035900D02*
X93993500Y-50006200D01*
X93993500Y-50006200D02*
X94443800Y-50006200D01*
X95568800Y-50006200D02*
X94443800Y-50006200D01*
X95568800Y-50006200D02*
X96768800Y-50006200D01*
G04 #@! TO.N,Net-(D35-Pad2)*
X114459000Y-54451200D02*
X113044000Y-53035900D01*
X113044000Y-53035900D02*
X113044000Y-50006200D01*
X113044000Y-50006200D02*
X113494000Y-50006200D01*
X114619000Y-50006200D02*
X113494000Y-50006200D01*
X114619000Y-50006200D02*
X115819000Y-50006200D01*
G04 #@! TO.N,Net-(D36-Pad2)*
X133509000Y-54451200D02*
X132094000Y-53035900D01*
X132094000Y-53035900D02*
X132094000Y-50006200D01*
X132094000Y-50006200D02*
X132544000Y-50006200D01*
X133669000Y-50006200D02*
X132544000Y-50006200D01*
X133669000Y-50006200D02*
X134869000Y-50006200D01*
G04 #@! TO.N,Net-(D37-Pad2)*
X152559000Y-54451200D02*
X151144000Y-53035900D01*
X151144000Y-53035900D02*
X151144000Y-50006200D01*
X151144000Y-50006200D02*
X151594000Y-50006200D01*
X152719000Y-50006200D02*
X151594000Y-50006200D01*
X152719000Y-50006200D02*
X153919000Y-50006200D01*
G04 #@! TO.N,Net-(D37-Pad1)*
X261619000Y-50006200D02*
X260419000Y-50006200D01*
X262744000Y-50006200D02*
X261619000Y-50006200D01*
X26352500Y-73501200D02*
X29437500Y-70416200D01*
X29437500Y-70416200D02*
X29437500Y-69056200D01*
X224644000Y-50006200D02*
X223519000Y-50006200D01*
X222319000Y-50006200D02*
X223519000Y-50006200D01*
X205594000Y-50006200D02*
X204469000Y-50006200D01*
X203269000Y-50006200D02*
X204469000Y-50006200D01*
X186544000Y-50006200D02*
X185419000Y-50006200D01*
X184219000Y-50006200D02*
X185419000Y-50006200D01*
X167494000Y-50006200D02*
X166369000Y-50006200D01*
X165169000Y-50006200D02*
X166369000Y-50006200D01*
X147319000Y-50006200D02*
X148444000Y-50006200D01*
X148444000Y-50006200D02*
X148894000Y-50006200D01*
X148894000Y-50006200D02*
X148894000Y-44504200D01*
X148894000Y-44504200D02*
X153314000Y-40084300D01*
X153314000Y-40084300D02*
X153314000Y-29999400D01*
X153314000Y-29999400D02*
X162401000Y-20912600D01*
X162401000Y-20912600D02*
X162401000Y-19970000D01*
X146119000Y-50006200D02*
X147319000Y-50006200D01*
X31762500Y-69056200D02*
X30637500Y-69056200D01*
X30637500Y-69056200D02*
X29437500Y-69056200D01*
X273525000Y-50006200D02*
X272325000Y-50006200D01*
X243694000Y-50006200D02*
X242569000Y-50006200D01*
X242569000Y-50006200D02*
X241369000Y-50006200D01*
X274650000Y-50006200D02*
X273525000Y-50006200D01*
X274650000Y-50006200D02*
X275575000Y-50006200D01*
X275575000Y-50006200D02*
X275575000Y-49890500D01*
X275575000Y-49890500D02*
X281780000Y-43685400D01*
X281780000Y-43685400D02*
X287899000Y-43685400D01*
X287899000Y-43685400D02*
X290830000Y-46616400D01*
X290830000Y-46616400D02*
X290830000Y-52546200D01*
G04 #@! TO.N,Net-(D38-Pad2)*
X171609000Y-54451200D02*
X170194000Y-53035900D01*
X170194000Y-53035900D02*
X170194000Y-50006200D01*
X170194000Y-50006200D02*
X170644000Y-50006200D01*
X171769000Y-50006200D02*
X170644000Y-50006200D01*
X171769000Y-50006200D02*
X172969000Y-50006200D01*
G04 #@! TO.N,Net-(D39-Pad2)*
X190659000Y-54451200D02*
X189244000Y-53035900D01*
X189244000Y-53035900D02*
X189244000Y-50006200D01*
X189244000Y-50006200D02*
X189694000Y-50006200D01*
X190819000Y-50006200D02*
X189694000Y-50006200D01*
X190819000Y-50006200D02*
X192019000Y-50006200D01*
G04 #@! TO.N,Net-(D40-Pad2)*
X209709000Y-54451200D02*
X208294000Y-53035900D01*
X208294000Y-53035900D02*
X208294000Y-50006200D01*
X208294000Y-50006200D02*
X208744000Y-50006200D01*
X209869000Y-50006200D02*
X208744000Y-50006200D01*
X209869000Y-50006200D02*
X211069000Y-50006200D01*
G04 #@! TO.N,Net-(D41-Pad2)*
X228759000Y-54451200D02*
X227344000Y-53035900D01*
X227344000Y-53035900D02*
X227344000Y-50006200D01*
X227344000Y-50006200D02*
X227794000Y-50006200D01*
X228919000Y-50006200D02*
X227794000Y-50006200D01*
X228919000Y-50006200D02*
X230119000Y-50006200D01*
G04 #@! TO.N,Net-(D42-Pad2)*
X247809000Y-54451200D02*
X246394000Y-53035900D01*
X246394000Y-53035900D02*
X246394000Y-50006200D01*
X246394000Y-50006200D02*
X246844000Y-50006200D01*
X247969000Y-50006200D02*
X246844000Y-50006200D01*
X247969000Y-50006200D02*
X249169000Y-50006200D01*
G04 #@! TO.N,Net-(D43-Pad2)*
X266859000Y-54451200D02*
X266859000Y-51996800D01*
X266859000Y-51996800D02*
X265444000Y-50581500D01*
X265444000Y-50581500D02*
X265444000Y-50006200D01*
X265444000Y-50006200D02*
X265894000Y-50006200D01*
X267019000Y-50006200D02*
X265894000Y-50006200D01*
X267019000Y-50006200D02*
X268219000Y-50006200D01*
G04 #@! TO.N,Net-(D44-Pad2)*
X278765000Y-54451200D02*
X277350000Y-53035900D01*
X277350000Y-53035900D02*
X277350000Y-50006200D01*
X277350000Y-50006200D02*
X277800000Y-50006200D01*
X278925000Y-50006200D02*
X277800000Y-50006200D01*
X278925000Y-50006200D02*
X280125000Y-50006200D01*
G04 #@! TO.N,Net-(D45-Pad2)*
X35877500Y-73501200D02*
X34462200Y-72085900D01*
X34462200Y-72085900D02*
X34462200Y-69056200D01*
X34462200Y-69056200D02*
X34912500Y-69056200D01*
X36037500Y-69056200D02*
X34912500Y-69056200D01*
X36037500Y-69056200D02*
X37237500Y-69056200D01*
G04 #@! TO.N,Net-(D46-Pad1)*
X168538000Y-56680100D02*
X168538000Y-45423900D01*
X168538000Y-45423900D02*
X166769000Y-43655100D01*
X166769000Y-43655100D02*
X166769000Y-39561600D01*
X166769000Y-39561600D02*
X161254000Y-34047100D01*
X161254000Y-34047100D02*
X161254000Y-32153700D01*
X161254000Y-32153700D02*
X162153000Y-31255400D01*
X162153000Y-31255400D02*
X162893000Y-31255400D01*
X162893000Y-31255400D02*
X164024000Y-30124400D01*
X164024000Y-30124400D02*
X164024000Y-24133100D01*
X164024000Y-24133100D02*
X162401000Y-22510000D01*
X174694000Y-69056200D02*
X174319000Y-69056200D01*
X174319000Y-69056200D02*
X174319000Y-61398500D01*
X174319000Y-61398500D02*
X169600000Y-56680100D01*
X169600000Y-56680100D02*
X168538000Y-56680100D01*
X196069000Y-69056200D02*
X194944000Y-69056200D01*
X193744000Y-69056200D02*
X194944000Y-69056200D01*
X177019000Y-69056200D02*
X175894000Y-69056200D01*
X175894000Y-69056200D02*
X174694000Y-69056200D01*
X168538000Y-56680100D02*
X158419000Y-66798500D01*
X158419000Y-66798500D02*
X158419000Y-69056200D01*
X158419000Y-69056200D02*
X157969000Y-69056200D01*
X156844000Y-69056200D02*
X157969000Y-69056200D01*
X155644000Y-69056200D02*
X156844000Y-69056200D01*
X138919000Y-69056200D02*
X137794000Y-69056200D01*
X136594000Y-69056200D02*
X137794000Y-69056200D01*
X119869000Y-69056200D02*
X118744000Y-69056200D01*
X117544000Y-69056200D02*
X118744000Y-69056200D01*
X100819000Y-69056200D02*
X99694000Y-69056200D01*
X98494000Y-69056200D02*
X99694000Y-69056200D01*
X81768800Y-69056200D02*
X80643800Y-69056200D01*
X79443800Y-69056200D02*
X80643800Y-69056200D01*
X62718800Y-69056200D02*
X61593800Y-69056200D01*
X61593800Y-69056200D02*
X60393800Y-69056200D01*
X42543800Y-69056200D02*
X41343800Y-69056200D01*
X43668800Y-69056200D02*
X42543800Y-69056200D01*
G04 #@! TO.N,Net-(D46-Pad2)*
X47783800Y-73501200D02*
X47783800Y-71046800D01*
X47783800Y-71046800D02*
X46368500Y-69631500D01*
X46368500Y-69631500D02*
X46368500Y-69056200D01*
X46368500Y-69056200D02*
X46818800Y-69056200D01*
X47943800Y-69056200D02*
X46818800Y-69056200D01*
X47943800Y-69056200D02*
X49143800Y-69056200D01*
G04 #@! TO.N,Net-(D47-Pad2)*
X66833800Y-73501200D02*
X65418500Y-72085900D01*
X65418500Y-72085900D02*
X65418500Y-69056200D01*
X65418500Y-69056200D02*
X65868800Y-69056200D01*
X66993800Y-69056200D02*
X65868800Y-69056200D01*
X66993800Y-69056200D02*
X68193800Y-69056200D01*
G04 #@! TO.N,Net-(D48-Pad2)*
X85883800Y-73501200D02*
X84468500Y-72085900D01*
X84468500Y-72085900D02*
X84468500Y-69056200D01*
X84468500Y-69056200D02*
X84918800Y-69056200D01*
X86043800Y-69056200D02*
X84918800Y-69056200D01*
X86043800Y-69056200D02*
X87243800Y-69056200D01*
G04 #@! TO.N,Net-(D49-Pad2)*
X104934000Y-73501200D02*
X103519000Y-72085900D01*
X103519000Y-72085900D02*
X103519000Y-69056200D01*
X103519000Y-69056200D02*
X103969000Y-69056200D01*
X105094000Y-69056200D02*
X103969000Y-69056200D01*
X105094000Y-69056200D02*
X106294000Y-69056200D01*
G04 #@! TO.N,Net-(D50-Pad2)*
X123984000Y-73501200D02*
X122569000Y-72085900D01*
X122569000Y-72085900D02*
X122569000Y-69056200D01*
X122569000Y-69056200D02*
X123019000Y-69056200D01*
X124144000Y-69056200D02*
X123019000Y-69056200D01*
X124144000Y-69056200D02*
X125344000Y-69056200D01*
G04 #@! TO.N,Net-(D51-Pad2)*
X143034000Y-73501200D02*
X141619000Y-72085900D01*
X141619000Y-72085900D02*
X141619000Y-69056200D01*
X141619000Y-69056200D02*
X142069000Y-69056200D01*
X143194000Y-69056200D02*
X142069000Y-69056200D01*
X143194000Y-69056200D02*
X144394000Y-69056200D01*
G04 #@! TO.N,Net-(D52-Pad2)*
X162084000Y-73501200D02*
X160669000Y-72085900D01*
X160669000Y-72085900D02*
X160669000Y-69056200D01*
X160669000Y-69056200D02*
X161119000Y-69056200D01*
X162244000Y-69056200D02*
X161119000Y-69056200D01*
X162244000Y-69056200D02*
X163444000Y-69056200D01*
G04 #@! TO.N,Net-(D53-Pad2)*
X181134000Y-73501200D02*
X179719000Y-72085900D01*
X179719000Y-72085900D02*
X179719000Y-69056200D01*
X179719000Y-69056200D02*
X180169000Y-69056200D01*
X181294000Y-69056200D02*
X180169000Y-69056200D01*
X181294000Y-69056200D02*
X182494000Y-69056200D01*
G04 #@! TO.N,Net-(D54-Pad2)*
X200184000Y-73501200D02*
X198769000Y-72085900D01*
X198769000Y-72085900D02*
X198769000Y-69056200D01*
X198769000Y-69056200D02*
X199219000Y-69056200D01*
X200344000Y-69056200D02*
X199219000Y-69056200D01*
X200344000Y-69056200D02*
X201544000Y-69056200D01*
G04 #@! TO.N,Net-(D55-Pad2)*
X219234000Y-73501200D02*
X217819000Y-72085900D01*
X217819000Y-72085900D02*
X217819000Y-69056200D01*
X217819000Y-69056200D02*
X218269000Y-69056200D01*
X219394000Y-69056200D02*
X218269000Y-69056200D01*
X219394000Y-69056200D02*
X220594000Y-69056200D01*
G04 #@! TO.N,Net-(D55-Pad1)*
X162401000Y-25050000D02*
X163532000Y-26181200D01*
X163532000Y-26181200D02*
X163532000Y-28080400D01*
X163532000Y-28080400D02*
X162897000Y-28715400D01*
X162897000Y-28715400D02*
X162150000Y-28715400D01*
X162150000Y-28715400D02*
X159046000Y-31819700D01*
X159046000Y-31819700D02*
X159046000Y-38696800D01*
X159046000Y-38696800D02*
X155849000Y-41893600D01*
X155849000Y-41893600D02*
X155849000Y-53951400D01*
X155849000Y-53951400D02*
X153264000Y-56536600D01*
X153264000Y-56536600D02*
X153264000Y-84598300D01*
X153264000Y-84598300D02*
X150881000Y-86980900D01*
X150881000Y-86980900D02*
X150881000Y-87543500D01*
X250837000Y-88106200D02*
X249712000Y-88106200D01*
X248512000Y-88106200D02*
X249712000Y-88106200D01*
X234169000Y-88106200D02*
X233044000Y-88106200D01*
X233044000Y-88106200D02*
X231844000Y-88106200D01*
X231844000Y-88106200D02*
X231844000Y-86980900D01*
X231844000Y-86980900D02*
X229423000Y-84559500D01*
X229423000Y-84559500D02*
X229423000Y-72602900D01*
X229423000Y-72602900D02*
X231844000Y-70181500D01*
X231844000Y-70181500D02*
X231844000Y-69056200D01*
X153206000Y-88106200D02*
X152081000Y-88106200D01*
X150881000Y-88106200D02*
X150881000Y-87543500D01*
X150881000Y-87543500D02*
X151518000Y-87543500D01*
X151518000Y-87543500D02*
X152081000Y-88106200D01*
X72243800Y-88106200D02*
X71118800Y-88106200D01*
X69918800Y-88106200D02*
X71118800Y-88106200D01*
X215119000Y-69056200D02*
X213994000Y-69056200D01*
X212794000Y-69056200D02*
X213994000Y-69056200D01*
X50812500Y-88106200D02*
X49687500Y-88106200D01*
X49687500Y-88106200D02*
X48487500Y-88106200D01*
X295275000Y-82481200D02*
X295275000Y-81281200D01*
X295275000Y-81281200D02*
X295275000Y-80156200D01*
X295275000Y-80156200D02*
X295275000Y-78947500D01*
X295275000Y-78947500D02*
X291362000Y-75034900D01*
X291362000Y-75034900D02*
X290052000Y-75034900D01*
X290052000Y-75034900D02*
X282899000Y-67882500D01*
X282899000Y-67882500D02*
X271986000Y-67882500D01*
X271986000Y-67882500D02*
X270812000Y-69056200D01*
X270812000Y-69056200D02*
X269887000Y-69056200D01*
X269887000Y-69056200D02*
X268762000Y-69056200D01*
X268762000Y-69056200D02*
X267562000Y-69056200D01*
X267562000Y-69056200D02*
X267562000Y-70417200D01*
X267562000Y-70417200D02*
X264478000Y-73501200D01*
X264478000Y-73501200D02*
X263286000Y-73501200D01*
X263286000Y-73501200D02*
X259296000Y-77491600D01*
X259296000Y-77491600D02*
X257497000Y-77491600D01*
X257497000Y-77491600D02*
X257339000Y-77333600D01*
X257339000Y-77333600D02*
X256369000Y-77333600D01*
X256369000Y-77333600D02*
X250837000Y-82865600D01*
X250837000Y-82865600D02*
X250837000Y-88106200D01*
X234169000Y-69056200D02*
X233044000Y-69056200D01*
X233044000Y-69056200D02*
X231844000Y-69056200D01*
G04 #@! TO.N,Net-(D56-Pad2)*
X238284000Y-73501200D02*
X236869000Y-72085900D01*
X236869000Y-72085900D02*
X236869000Y-69056200D01*
X236869000Y-69056200D02*
X237319000Y-69056200D01*
X238444000Y-69056200D02*
X237319000Y-69056200D01*
X238444000Y-69056200D02*
X239644000Y-69056200D01*
G04 #@! TO.N,Net-(D57-Pad2)*
X274002000Y-73501200D02*
X272587000Y-72085900D01*
X272587000Y-72085900D02*
X272587000Y-69056200D01*
X272587000Y-69056200D02*
X273037000Y-69056200D01*
X274162000Y-69056200D02*
X273037000Y-69056200D01*
X274162000Y-69056200D02*
X275362000Y-69056200D01*
G04 #@! TO.N,Net-(D58-Pad2)*
X295275000Y-74681200D02*
X295275000Y-75881200D01*
X295275000Y-75881200D02*
X295275000Y-77006200D01*
G04 #@! TO.N,Net-(D59-Pad2)*
X52546200Y-92551200D02*
X53962500Y-91134900D01*
X53962500Y-91134900D02*
X53962500Y-88106200D01*
X53962500Y-88106200D02*
X55087500Y-88106200D01*
X55087500Y-88106200D02*
X56287500Y-88106200D01*
G04 #@! TO.N,Net-(D60-Pad2)*
X76358800Y-92551200D02*
X74943500Y-91135900D01*
X74943500Y-91135900D02*
X74943500Y-88106200D01*
X74943500Y-88106200D02*
X75393800Y-88106200D01*
X76518800Y-88106200D02*
X75393800Y-88106200D01*
X76518800Y-88106200D02*
X77718800Y-88106200D01*
G04 #@! TO.N,Net-(D61-Pad2)*
X157321000Y-92551200D02*
X155906000Y-91135900D01*
X155906000Y-91135900D02*
X155906000Y-88106200D01*
X155906000Y-88106200D02*
X156356000Y-88106200D01*
X157481000Y-88106200D02*
X156356000Y-88106200D01*
X157481000Y-88106200D02*
X158681000Y-88106200D01*
G04 #@! TO.N,Net-(D62-Pad2)*
X238284000Y-92551200D02*
X236869000Y-91135900D01*
X236869000Y-91135900D02*
X236869000Y-88106200D01*
X236869000Y-88106200D02*
X237319000Y-88106200D01*
X238444000Y-88106200D02*
X237319000Y-88106200D01*
X238444000Y-88106200D02*
X239644000Y-88106200D01*
G04 #@! TO.N,Net-(D63-Pad2)*
X255112000Y-88106200D02*
X256312000Y-88106200D01*
X253987000Y-88106200D02*
X255112000Y-88106200D01*
X262096000Y-92551200D02*
X260757000Y-92551200D01*
X260757000Y-92551200D02*
X256887000Y-88681100D01*
X256887000Y-88681100D02*
X256312000Y-88106200D01*
X256887000Y-88681100D02*
X256687000Y-88481500D01*
X256687000Y-88481500D02*
X256687000Y-88106200D01*
X256687000Y-88106200D02*
X256312000Y-88106200D01*
G04 #@! TO.N,Net-(K1-Pad1)*
X59892700Y-37941200D02*
X65246200Y-37941200D01*
X41433800Y-76041200D02*
X40214800Y-74822200D01*
X40214800Y-74822200D02*
X40214800Y-57619100D01*
X40214800Y-57619100D02*
X59892700Y-37941200D01*
X205620000Y-18891200D02*
X189071000Y-18891200D01*
X236696000Y-37941200D02*
X216909000Y-18153900D01*
X216909000Y-18153900D02*
X209777000Y-18153900D01*
X209777000Y-18153900D02*
X209048000Y-17425000D01*
X209048000Y-17425000D02*
X207086000Y-17425000D01*
X207086000Y-17425000D02*
X205620000Y-18891200D01*
X146209000Y-56991200D02*
X150669000Y-52531600D01*
X150669000Y-52531600D02*
X150669000Y-43366800D01*
X150669000Y-43366800D02*
X158026000Y-36009800D01*
X158026000Y-36009800D02*
X158026000Y-31965400D01*
X158026000Y-31965400D02*
X162401000Y-27590000D01*
X205620000Y-18891200D02*
X205620000Y-27214900D01*
X205620000Y-27214900D02*
X212226000Y-33820900D01*
X212226000Y-33820900D02*
X212226000Y-57754200D01*
X212226000Y-57754200D02*
X210995000Y-58985600D01*
X210995000Y-58985600D02*
X210995000Y-74151900D01*
X210995000Y-74151900D02*
X212884000Y-76041200D01*
X59892700Y-37941200D02*
X59892700Y-34508300D01*
X59892700Y-34508300D02*
X50033600Y-24649200D01*
G04 #@! TO.N,Net-(K11-Pad1)*
X235094000Y-66425800D02*
X229792000Y-66425800D01*
X229792000Y-66425800D02*
X219096000Y-55729700D01*
X219096000Y-55729700D02*
X219096000Y-37296100D01*
X219096000Y-37296100D02*
X208121000Y-26320700D01*
X208121000Y-26320700D02*
X208121000Y-18891200D01*
X231934000Y-76041200D02*
X235094000Y-72880800D01*
X235094000Y-72880800D02*
X235094000Y-66425800D01*
X162401000Y-30130000D02*
X160804000Y-31726900D01*
X160804000Y-31726900D02*
X160804000Y-35723300D01*
X160804000Y-35723300D02*
X161949000Y-36868200D01*
X161949000Y-36868200D02*
X161949000Y-53681200D01*
X161949000Y-53681200D02*
X165259000Y-56991200D01*
X60483800Y-76041200D02*
X64293800Y-72231200D01*
X64293800Y-72231200D02*
X64293800Y-60612500D01*
X64293800Y-60612500D02*
X73369200Y-51537100D01*
X73369200Y-51537100D02*
X73369200Y-48376500D01*
X73369200Y-48376500D02*
X83804500Y-37941200D01*
X83804500Y-37941200D02*
X84296200Y-37941200D01*
X235094000Y-66425800D02*
X245719000Y-55800800D01*
X245719000Y-55800800D02*
X245719000Y-47530000D01*
X245719000Y-47530000D02*
X255308000Y-37941200D01*
X255308000Y-37941200D02*
X255746000Y-37941200D01*
X40196400Y-32818800D02*
X36671200Y-29293600D01*
X36671200Y-29293600D02*
X36671200Y-18891200D01*
G04 #@! TO.N,Net-(K12-Pad1)*
X271462000Y-66675000D02*
X271462000Y-60999700D01*
X271462000Y-60999700D02*
X276561000Y-55901200D01*
X276561000Y-55901200D02*
X279461000Y-55901200D01*
X279461000Y-55901200D02*
X281525000Y-53837200D01*
X281525000Y-53837200D02*
X281525000Y-50006300D01*
X71551400Y-39264800D02*
X71404700Y-39264800D01*
X71404700Y-39264800D02*
X55721200Y-23581300D01*
X55721200Y-23581300D02*
X55721200Y-18891200D01*
X79533800Y-76041200D02*
X83343800Y-72231200D01*
X83343800Y-72231200D02*
X83343800Y-65776200D01*
X83343800Y-65776200D02*
X93319800Y-55800200D01*
X93319800Y-55800200D02*
X93319800Y-47504800D01*
X93319800Y-47504800D02*
X102883000Y-37941200D01*
X102883000Y-37941200D02*
X103346000Y-37941200D01*
X162401000Y-32670000D02*
X162401000Y-33045900D01*
X162401000Y-33045900D02*
X167440000Y-38085300D01*
X184309000Y-56991200D02*
X184198000Y-56991200D01*
X184198000Y-56991200D02*
X167747000Y-40540100D01*
X167747000Y-40540100D02*
X167747000Y-38768300D01*
X167747000Y-38768300D02*
X167440000Y-38461300D01*
X167440000Y-38461300D02*
X167440000Y-38085300D01*
X167440000Y-38085300D02*
X175190000Y-30336000D01*
X175190000Y-30336000D02*
X175190000Y-29566000D01*
G04 #@! TO.N,Net-(K13-Pad1)*
X246221000Y-18891200D02*
X245758000Y-18891200D01*
X245758000Y-18891200D02*
X240506000Y-24143500D01*
X240506000Y-24143500D02*
X240506000Y-37129000D01*
X240506000Y-37129000D02*
X234708000Y-42927300D01*
X234708000Y-42927300D02*
X233159000Y-42927300D01*
X233159000Y-42927300D02*
X225786000Y-50300200D01*
X225786000Y-50300200D02*
X225786000Y-50581700D01*
X225786000Y-50581700D02*
X220396000Y-55971800D01*
X122396000Y-37941200D02*
X121933000Y-37941200D01*
X121933000Y-37941200D02*
X111694000Y-48180600D01*
X111694000Y-48180600D02*
X111694000Y-50843000D01*
X111694000Y-50843000D02*
X111507000Y-50843000D01*
X111507000Y-50843000D02*
X111244000Y-51106700D01*
X111244000Y-51106700D02*
X111244000Y-51666600D01*
X111244000Y-51666600D02*
X111282000Y-51705100D01*
X111282000Y-51705100D02*
X102394000Y-60593300D01*
X102394000Y-60593300D02*
X102394000Y-72231300D01*
X102394000Y-72231300D02*
X98584000Y-76041200D01*
X203359000Y-56991200D02*
X203157000Y-56991200D01*
X203157000Y-56991200D02*
X175915000Y-29749100D01*
X175915000Y-29749100D02*
X175915000Y-26836400D01*
X175915000Y-26836400D02*
X165047000Y-15968600D01*
X165047000Y-15968600D02*
X165047000Y-15895100D01*
X165047000Y-15895100D02*
X162859000Y-13706500D01*
X162859000Y-13706500D02*
X148344000Y-13706500D01*
X148344000Y-13706500D02*
X147161000Y-14890000D01*
X147161000Y-14890000D02*
X143825000Y-18226100D01*
X143825000Y-18226100D02*
X143825000Y-20158800D01*
X143825000Y-20158800D02*
X140233000Y-23750500D01*
X140233000Y-23750500D02*
X133274000Y-23750500D01*
X133274000Y-23750500D02*
X126206000Y-30818300D01*
X126206000Y-30818300D02*
X126206000Y-34131200D01*
X126206000Y-34131200D02*
X122396000Y-37941200D01*
X74771200Y-18891200D02*
X62118600Y-18891200D01*
X62118600Y-18891200D02*
X60621800Y-17394400D01*
X60621800Y-17394400D02*
X55125000Y-17394400D01*
X55125000Y-17394400D02*
X49308300Y-23211100D01*
X49308300Y-23211100D02*
X49308300Y-24732700D01*
X49308300Y-24732700D02*
X28575000Y-45466000D01*
X28575000Y-45466000D02*
X28575000Y-54310400D01*
X28575000Y-54310400D02*
X25894200Y-56991200D01*
X25894200Y-56991200D02*
X24765000Y-56991200D01*
G04 #@! TO.N,Net-(K14-Pad1)*
X222409000Y-56991200D02*
X228331000Y-56991200D01*
X228331000Y-56991200D02*
X232230000Y-53092400D01*
X232230000Y-53092400D02*
X232230000Y-48134100D01*
X51753900Y-57786300D02*
X53141000Y-56399200D01*
X53141000Y-56399200D02*
X57478600Y-56399200D01*
X57478600Y-56399200D02*
X72276800Y-41601000D01*
X72276800Y-41601000D02*
X72276800Y-39972900D01*
X72276800Y-39972900D02*
X93358500Y-18891200D01*
X93358500Y-18891200D02*
X93821200Y-18891200D01*
X46196200Y-95091200D02*
X51753900Y-89533500D01*
X51753900Y-89533500D02*
X51753900Y-57786300D01*
X51753900Y-57786300D02*
X50958800Y-56991200D01*
X147161000Y-17430000D02*
X144910000Y-19681000D01*
X144910000Y-19681000D02*
X144910000Y-25583900D01*
X144910000Y-25583900D02*
X140681000Y-29813000D01*
X140681000Y-29813000D02*
X140681000Y-37941200D01*
X117634000Y-76041200D02*
X116419000Y-74825800D01*
X116419000Y-74825800D02*
X116419000Y-64391100D01*
X116419000Y-64391100D02*
X125323000Y-55486900D01*
X125323000Y-55486900D02*
X125323000Y-49623700D01*
X125323000Y-49623700D02*
X137005000Y-37941200D01*
X137005000Y-37941200D02*
X140681000Y-37941200D01*
X140681000Y-37941200D02*
X141446000Y-37941200D01*
X236285074Y-48134100D02*
X232230000Y-48134100D01*
X242824901Y-41594273D02*
X236285074Y-48134100D01*
X242824901Y-39746309D02*
X242824901Y-41594273D01*
X263680010Y-18891200D02*
X242824901Y-39746309D01*
X265271000Y-18891200D02*
X263680010Y-18891200D01*
G04 #@! TO.N,Net-(K15-Pad1)*
X244670000Y-47387300D02*
X244670000Y-46923500D01*
X244670000Y-46923500D02*
X259556000Y-32037600D01*
X259556000Y-32037600D02*
X259556000Y-30824600D01*
X259556000Y-30824600D02*
X266383000Y-23997800D01*
X266383000Y-23997800D02*
X269804000Y-23997800D01*
X269804000Y-23997800D02*
X272095000Y-21707200D01*
X272095000Y-21707200D02*
X272095000Y-21081800D01*
X272095000Y-21081800D02*
X274285000Y-18891200D01*
X274285000Y-18891200D02*
X274796000Y-18891200D01*
X241459000Y-56991200D02*
X244670000Y-53780100D01*
X244670000Y-53780100D02*
X244670000Y-47387300D01*
X70008800Y-95091200D02*
X68127500Y-93209900D01*
X68127500Y-93209900D02*
X68127500Y-77537500D01*
X68127500Y-77537500D02*
X70008800Y-75656200D01*
X70008800Y-75656200D02*
X70008800Y-56991200D01*
X70008800Y-56991200D02*
X75931300Y-56991200D01*
X75931300Y-56991200D02*
X90425500Y-42497000D01*
X90425500Y-42497000D02*
X90425500Y-40874100D01*
X90425500Y-40874100D02*
X112408000Y-18891200D01*
X112408000Y-18891200D02*
X112871000Y-18891200D01*
X147161000Y-19970000D02*
X147161000Y-20775700D01*
X147161000Y-20775700D02*
X151623000Y-25237500D01*
X151623000Y-25237500D02*
X151623000Y-35048800D01*
X151623000Y-35048800D02*
X152089000Y-35515200D01*
X152089000Y-35515200D02*
X152089000Y-37657500D01*
X152089000Y-37657500D02*
X151806000Y-37941200D01*
X151806000Y-37941200D02*
X151806000Y-40773100D01*
X151806000Y-40773100D02*
X140494000Y-52084700D01*
X140494000Y-52084700D02*
X140494000Y-72231200D01*
X140494000Y-72231200D02*
X136684000Y-76041200D01*
G04 #@! TO.N,Net-(K16-Pad1)*
X260509000Y-56991200D02*
X266377000Y-56991200D01*
X266377000Y-56991200D02*
X270385000Y-52983200D01*
X270385000Y-52983200D02*
X270385000Y-36867100D01*
X270385000Y-36867100D02*
X281620000Y-25632300D01*
X281620000Y-25632300D02*
X281620000Y-21081800D01*
X281620000Y-21081800D02*
X283810000Y-18891200D01*
X283810000Y-18891200D02*
X284321000Y-18891200D01*
X150971000Y-95091200D02*
X154131000Y-91930800D01*
X154131000Y-91930800D02*
X154131000Y-80713800D01*
X154131000Y-80713800D02*
X155734000Y-79111200D01*
X155734000Y-79111200D02*
X155734000Y-76041200D01*
X151364000Y-35815700D02*
X150617000Y-35068700D01*
X150617000Y-35068700D02*
X150617000Y-25966000D01*
X150617000Y-25966000D02*
X147161000Y-22510000D01*
X131921000Y-18891200D02*
X126721000Y-18891200D01*
X126721000Y-18891200D02*
X117431000Y-28181500D01*
X117431000Y-28181500D02*
X109841000Y-28181500D01*
X109841000Y-28181500D02*
X107355000Y-30667900D01*
X107355000Y-30667900D02*
X107355000Y-30895400D01*
X107355000Y-30895400D02*
X92319200Y-45930800D01*
X92319200Y-45930800D02*
X92319200Y-53730800D01*
X92319200Y-53730800D02*
X89058800Y-56991200D01*
X155734000Y-76041200D02*
X171788000Y-76041200D01*
X171788000Y-76041200D02*
X177944000Y-69885300D01*
X177944000Y-69885300D02*
X177944000Y-66425800D01*
X177944000Y-66425800D02*
X185779000Y-58591000D01*
X185779000Y-58591000D02*
X185779000Y-53629300D01*
X185779000Y-53629300D02*
X184539000Y-52388700D01*
X184539000Y-52388700D02*
X179546000Y-47396100D01*
X179546000Y-47396100D02*
X179546000Y-37941200D01*
G04 #@! TO.N,Net-(K17-Pad1)*
X231934000Y-94866000D02*
X231934000Y-95091200D01*
X272415000Y-56991200D02*
X270241000Y-56991200D01*
X270241000Y-56991200D02*
X252611000Y-74621300D01*
X252611000Y-74621300D02*
X252611000Y-80315900D01*
X252611000Y-80315900D02*
X238061000Y-94866000D01*
X238061000Y-94866000D02*
X231934000Y-94866000D01*
X148286000Y-18008800D02*
X148286000Y-16963800D01*
X148286000Y-16963800D02*
X147627000Y-16304700D01*
X147627000Y-16304700D02*
X146695000Y-16304700D01*
X146695000Y-16304700D02*
X144275000Y-18724400D01*
X144275000Y-18724400D02*
X144275000Y-20864000D01*
X144275000Y-20864000D02*
X130766000Y-34373300D01*
X130766000Y-34373300D02*
X130766000Y-35457500D01*
X130766000Y-35457500D02*
X129161000Y-37062600D01*
X129161000Y-37062600D02*
X126321000Y-37062600D01*
X126321000Y-37062600D02*
X115599000Y-47784500D01*
X115599000Y-47784500D02*
X113428000Y-47784500D01*
X147161000Y-25050000D02*
X146008000Y-23896500D01*
X146008000Y-23896500D02*
X146008000Y-19475500D01*
X146008000Y-19475500D02*
X146928000Y-18555300D01*
X146928000Y-18555300D02*
X147740000Y-18555300D01*
X147740000Y-18555300D02*
X148286000Y-18008800D01*
X113428000Y-47784500D02*
X113307000Y-47663400D01*
X288290000Y-46196200D02*
X279942000Y-46196200D01*
X279942000Y-46196200D02*
X276225000Y-49913600D01*
X276225000Y-49913600D02*
X276225000Y-53181200D01*
X276225000Y-53181200D02*
X272415000Y-56991200D01*
X108109000Y-56991200D02*
X112569000Y-52531600D01*
X112569000Y-52531600D02*
X112569000Y-48643600D01*
X112569000Y-48643600D02*
X113428000Y-47784500D01*
X148286000Y-18008800D02*
X150089000Y-18008800D01*
X150089000Y-18008800D02*
X150971000Y-18891200D01*
X174784000Y-76041200D02*
X183794000Y-76041200D01*
X183794000Y-76041200D02*
X186049000Y-73785900D01*
X186049000Y-73785900D02*
X201534000Y-58301300D01*
X201534000Y-58301300D02*
X202557000Y-58301300D01*
X202557000Y-58301300D02*
X202754000Y-58498900D01*
X202754000Y-58498900D02*
X203928000Y-58498900D01*
X203928000Y-58498900D02*
X204828000Y-57598500D01*
X204828000Y-57598500D02*
X204828000Y-53626100D01*
X204828000Y-53626100D02*
X198596000Y-47394000D01*
X198596000Y-47394000D02*
X198596000Y-37941200D01*
X231934000Y-94866000D02*
X207130000Y-94866000D01*
X207130000Y-94866000D02*
X186049000Y-73785900D01*
X150254000Y-36839600D02*
X149386000Y-35971200D01*
X149386000Y-35971200D02*
X149386000Y-27274800D01*
X149386000Y-27274800D02*
X147161000Y-25050000D01*
G04 #@! TO.N,Net-(K18-Pad1)*
X219048000Y-79570900D02*
X219048000Y-77654800D01*
X219048000Y-77654800D02*
X217296000Y-75902800D01*
X217296000Y-75902800D02*
X217296000Y-41652900D01*
X217296000Y-41652900D02*
X217646000Y-41302500D01*
X217646000Y-41302500D02*
X217646000Y-37941200D01*
X233601000Y-94124500D02*
X219048000Y-79570900D01*
X41593200Y-52613800D02*
X41593200Y-42051900D01*
X41593200Y-42051900D02*
X45703900Y-37941200D01*
X45703900Y-37941200D02*
X46196200Y-37941200D01*
X29527500Y-76041200D02*
X33337500Y-72231200D01*
X33337500Y-72231200D02*
X33337500Y-63708600D01*
X33337500Y-63708600D02*
X41593200Y-55452900D01*
X41593200Y-55452900D02*
X41593200Y-52613800D01*
X170021000Y-18891200D02*
X182285000Y-18891200D01*
X182285000Y-18891200D02*
X201335000Y-37941200D01*
X201335000Y-37941200D02*
X203558000Y-37941200D01*
X127159000Y-56991200D02*
X130319000Y-53830800D01*
X130319000Y-53830800D02*
X130319000Y-50563600D01*
X130319000Y-50563600D02*
X137818000Y-43065200D01*
X137818000Y-43065200D02*
X139320000Y-43065200D01*
X139320000Y-43065200D02*
X143361000Y-39024300D01*
X143361000Y-39024300D02*
X143361000Y-34545300D01*
X143361000Y-34545300D02*
X141131000Y-32315800D01*
X141131000Y-32315800D02*
X141131000Y-30224900D01*
X141131000Y-30224900D02*
X143766000Y-27590000D01*
X143766000Y-27590000D02*
X147161000Y-27590000D01*
X193834000Y-76041200D02*
X206731000Y-76041200D01*
X206731000Y-76041200D02*
X211607000Y-80917500D01*
X211607000Y-80917500D02*
X217701000Y-80917500D01*
X217701000Y-80917500D02*
X219048000Y-79570900D01*
G04 #@! TO.N,Net-(SW1-Pad2)*
X138881000Y-8700000D02*
X132581000Y-8700000D01*
X147161000Y-9810000D02*
X141166000Y-9810000D01*
X141166000Y-9810000D02*
X140056000Y-8700000D01*
X140056000Y-8700000D02*
X138881000Y-8700000D01*
G04 #@! TO.N,Net-(J1-Pad1)*
X170142000Y-6946900D02*
X168966700Y-6946900D01*
X147161000Y-12350000D02*
X155906400Y-3604600D01*
X155906400Y-3604600D02*
X165624400Y-3604600D01*
X165624400Y-3604600D02*
X168966700Y-6946900D01*
G04 #@! TO.N,Net-(J1-Pad2)*
X171506700Y-6946900D02*
X171506700Y-6134100D01*
X171506700Y-6134100D02*
X168526900Y-3154300D01*
X168526900Y-3154300D02*
X151276700Y-3154300D01*
X151276700Y-3154300D02*
X147161000Y-7270000D01*
X172682000Y-6946900D02*
X171506700Y-6946900D01*
X147161000Y-7270000D02*
X142426000Y-7270000D01*
X142426000Y-7270000D02*
X140056000Y-4900000D01*
X140056000Y-4900000D02*
X138881000Y-4900000D01*
X138881000Y-4900000D02*
X132581000Y-4900000D01*
G04 #@! TO.N,Net-(J1-Pad3)*
X175222000Y-6946900D02*
X175222000Y-8122200D01*
X175222000Y-8122200D02*
X174046700Y-9297500D01*
X174046700Y-9297500D02*
X174046700Y-11790600D01*
X174046700Y-11790600D02*
X172750300Y-13087000D01*
X172750300Y-13087000D02*
X164938200Y-13087000D01*
X164938200Y-13087000D02*
X163075800Y-11224600D01*
X163075800Y-11224600D02*
X161162800Y-11224600D01*
X161162800Y-11224600D02*
X159355800Y-13031600D01*
X159355800Y-13031600D02*
X148382000Y-13031600D01*
X148382000Y-13031600D02*
X147793600Y-13620000D01*
X147793600Y-13620000D02*
X146772000Y-13620000D01*
X146772000Y-13620000D02*
X142084900Y-18307100D01*
X142084900Y-18307100D02*
X142084900Y-20575100D01*
X147161000Y-30130000D02*
X148333400Y-28957600D01*
X148333400Y-28957600D02*
X148333400Y-27165900D01*
X148333400Y-27165900D02*
X147606800Y-26439300D01*
X147606800Y-26439300D02*
X145112600Y-26439300D01*
X145112600Y-26439300D02*
X144881100Y-26670800D01*
G04 #@! TO.N,Net-(J1-Pad4)*
X177762000Y-6946900D02*
X177762000Y-8122200D01*
X190918800Y-26478500D02*
X178937300Y-14497000D01*
X178937300Y-14497000D02*
X178937300Y-9297500D01*
X178937300Y-9297500D02*
X177762000Y-8122200D01*
G04 #@! TD*
M02*
