M48
; DRILL file {KiCad 5.1.10-88a1d61d58~90~ubuntu21.04.1} date Fri Sep 17 14:26:22 2021
; FORMAT={-:-/ absolute / inch / decimal}
; #@! TF.CreationDate,2021-09-17T14:26:22+02:00
; #@! TF.GenerationSoftware,Kicad,Pcbnew,5.1.10-88a1d61d58~90~ubuntu21.04.1
FMAT,2
INCH
T1C0.0157
T2C0.0276
T3C0.0394
T4C0.0433
T5C0.0579
T6C0.0689
T7C0.1200
T8C0.1570
%
G90
G05
T1
X3.7075Y-4.4981
X3.7625Y-5.2774
X4.0948Y-4.1764
X4.942Y-4.7519
X6.5859Y-5.0825
X7.7189Y-4.016
X7.7393Y-4.6194
X7.829Y-4.256
X8.0405Y-4.6564
X8.0842Y-4.6161
X8.1016Y-4.6997
X8.1313Y-4.5718
X8.6119Y-4.2718
X9.0222Y-4.37
X9.3903Y-5.2685
X9.6415Y-4.2485
X10.1391Y-4.6997
X10.802Y-5.4096
X11.2679Y-5.101
X11.3219Y-6.9117
X11.7577Y-5.0716
X12.8125Y-5.831
X13.2087Y-5.1748
T2
X2.8152Y-3.6747
X3.0027Y-4.4247
X3.0965Y-5.1747
X3.1223Y-3.6747
X3.284Y-5.9247
X3.3098Y-4.4247
X3.4035Y-5.1747
X3.5652Y-3.6747
X3.591Y-5.9247
X3.7527Y-5.9247
X3.8723Y-3.6747
X3.9402Y-4.4247
X4.034Y-6.6747
X4.0598Y-5.9247
X4.1277Y-5.1747
X4.2473Y-4.4247
X4.3152Y-3.6747
X4.341Y-6.6747
X4.4348Y-5.1747
X4.5027Y-5.9247
X4.6223Y-3.6747
X4.6902Y-4.4247
X4.8098Y-5.9247
X4.8777Y-5.1747
X4.8777Y-6.6747
X4.9973Y-4.4247
X5.0652Y-3.6747
X5.1848Y-5.1747
X5.1848Y-6.6747
X5.2527Y-5.9247
X5.3723Y-3.6747
X5.4402Y-4.4247
X5.5598Y-5.9247
X5.6277Y-5.1747
X5.7473Y-4.4247
X5.8152Y-3.6747
X5.9348Y-5.1747
X6.0027Y-5.9247
X6.1223Y-3.6747
X6.1902Y-4.4247
X6.3098Y-5.9247
X6.3777Y-5.1747
X6.4973Y-4.4247
X6.5652Y-3.6747
X6.6848Y-5.1747
X6.7527Y-5.9247
X6.8723Y-3.6747
X6.9402Y-4.4247
X7.0598Y-5.9247
X7.1277Y-5.1747
X7.2473Y-4.4247
X7.3152Y-3.6747
X7.4348Y-5.1747
X7.5027Y-4.4247
X7.5027Y-5.9247
X7.6223Y-3.6747
X7.8098Y-4.4247
X7.8098Y-5.9247
X7.8777Y-5.1747
X8.0652Y-3.6747
X8.0652Y-6.6747
X8.1848Y-5.1747
X8.2527Y-5.9247
X8.3723Y-3.6747
X8.3723Y-6.6747
X8.5598Y-5.9247
X8.6277Y-4.4247
X8.6277Y-5.1747
X8.8152Y-3.6747
X8.9348Y-4.4247
X8.9348Y-5.1747
X9.0027Y-5.9247
X9.1223Y-3.6747
X9.1902Y-4.4247
X9.3098Y-5.9247
X9.3777Y-5.1747
X9.4973Y-4.4247
X9.5652Y-3.6747
X9.6848Y-5.1747
X9.7527Y-5.9247
X9.8723Y-3.6747
X9.9402Y-4.4247
X10.0598Y-5.9247
X10.1277Y-5.1747
X10.2473Y-4.4247
X10.3152Y-3.6747
X10.4348Y-5.1747
X10.5027Y-5.9247
X10.6223Y-3.6747
X10.6902Y-4.4247
X10.8098Y-5.9247
X10.8777Y-5.1747
X10.9973Y-4.4247
X11.0652Y-3.6747
X11.1848Y-5.1747
X11.2527Y-5.9247
X11.2527Y-6.6747
X11.3723Y-3.6747
X11.4402Y-4.4247
X11.5598Y-5.9247
X11.5598Y-6.6747
X11.6277Y-5.1747
X11.7473Y-4.4247
X11.8152Y-3.6747
X11.9089Y-6.6747
X11.9348Y-5.1747
X12.1223Y-3.6747
X12.1902Y-4.4247
X12.216Y-6.6747
X12.3777Y-5.1747
X12.4715Y-3.581
X12.4973Y-4.4247
X12.6589Y-5.9247
X12.6848Y-5.1747
X12.7785Y-3.581
X12.8465Y-5.1747
X12.9402Y-3.6747
X12.966Y-5.9247
X13.1277Y-4.4247
X13.1535Y-5.1747
X13.2473Y-3.6747
X13.409Y-3.581
X13.4348Y-4.4247
X13.716Y-3.581
X13.75Y-6.1462
X13.75Y-6.4533
T3
X8.8235Y-3.4795
X8.9235Y-3.4795
X9.0235Y-3.4795
X9.1235Y-3.4795
T4
X7.9187Y-3.3922
X7.9187Y-3.4922
X7.9187Y-3.5922
X7.9187Y-3.6922
X7.9187Y-3.7922
X7.9187Y-3.8922
X7.9187Y-3.9922
X7.9187Y-4.0922
X7.9187Y-4.1922
X7.9187Y-4.2922
X7.9187Y-4.3922
X7.9187Y-4.4922
X8.5187Y-3.3922
X8.5187Y-3.4922
X8.5187Y-3.5922
X8.5187Y-3.6922
X8.5187Y-3.7922
X8.5187Y-3.8922
X8.5187Y-3.9922
X8.5187Y-4.0922
X8.5187Y-4.1922
X8.5187Y-4.2922
X8.5187Y-4.3922
X8.5187Y-4.4922
T5
X2.8187Y-3.9497
X2.9125Y-5.4497
X2.9125Y-6.1997
X3.0063Y-4.6997
X3.0687Y-3.8497
X3.1Y-5.4497
X3.1625Y-5.3497
X3.1625Y-6.0997
X3.2563Y-4.5997
X3.2875Y-6.1997
X3.35Y-5.3497
X3.5375Y-6.0997
X3.5687Y-3.9497
X3.7563Y-6.1997
X3.8187Y-3.8497
X3.9437Y-4.6997
X3.9437Y-6.9497
X4.0063Y-6.0997
X4.1313Y-5.4497
X4.1937Y-4.5997
X4.1937Y-6.8497
X4.3187Y-3.9497
X4.3813Y-5.3497
X4.5063Y-6.1997
X4.5687Y-3.8497
X4.6937Y-4.6997
X4.7563Y-6.0997
X4.8813Y-5.4497
X4.8813Y-6.9497
X4.9437Y-4.5997
X5.0687Y-3.9497
X5.1313Y-5.3497
X5.1313Y-6.8497
X5.2563Y-6.1997
X5.3187Y-3.8497
X5.4437Y-4.6997
X5.5063Y-6.0997
X5.6313Y-5.4497
X5.6937Y-4.5997
X5.8187Y-3.9497
X5.8813Y-5.3497
X6.0063Y-6.1997
X6.0687Y-3.8497
X6.1937Y-4.6997
X6.2563Y-6.0997
X6.3813Y-5.4497
X6.4437Y-4.5997
X6.5687Y-3.9497
X6.6313Y-5.3497
X6.7563Y-6.1997
X6.8187Y-3.8497
X6.9437Y-4.6997
X7.0063Y-6.0997
X7.1313Y-5.4497
X7.1937Y-4.5997
X7.3187Y-3.9497
X7.3813Y-5.3497
X7.5063Y-6.1997
X7.5687Y-3.8497
X7.6937Y-4.6997
X7.7563Y-6.0997
X7.8813Y-5.4497
X7.9437Y-4.5997
X8.0687Y-3.9497
X8.0687Y-6.9497
X8.1313Y-5.3497
X8.2563Y-6.1997
X8.3187Y-3.8497
X8.3187Y-6.8497
X8.4437Y-4.6997
X8.5063Y-6.0997
X8.6313Y-5.4497
X8.6937Y-4.5997
X8.8187Y-3.9497
X8.8813Y-5.3497
X9.0063Y-6.1997
X9.0687Y-3.8497
X9.1937Y-4.6997
X9.2563Y-6.0997
X9.3813Y-5.4497
X9.4437Y-4.5997
X9.5687Y-3.9497
X9.6313Y-5.3497
X9.7563Y-6.1997
X9.8187Y-3.8497
X9.9437Y-4.6997
X10.0063Y-6.0997
X10.1313Y-5.4497
X10.1937Y-4.5997
X10.3187Y-3.9497
X10.3813Y-5.3497
X10.5063Y-6.1997
X10.5687Y-3.8497
X10.6937Y-4.6997
X10.7563Y-6.0997
X10.8813Y-5.4497
X10.9437Y-4.5997
X11.0687Y-3.9497
X11.1313Y-5.3497
X11.2563Y-6.1997
X11.2563Y-6.9497
X11.3187Y-3.8497
X11.4437Y-4.6997
X11.5063Y-6.0997
X11.5063Y-6.8497
X11.6313Y-5.4497
X11.6937Y-4.5997
X11.8187Y-3.9497
X11.8813Y-5.3497
X12.0687Y-3.8497
X12.1937Y-4.6997
X12.1937Y-6.9497
X12.2875Y-6.1997
X12.3813Y-5.4497
X12.4437Y-4.5997
X12.4437Y-6.8497
X12.5375Y-6.0997
X12.5687Y-3.9497
X12.6313Y-5.3497
X12.6625Y-6.1997
X12.8187Y-3.8497
X12.85Y-5.4497
X12.9125Y-6.0997
X12.9437Y-3.9497
X13.1Y-5.3497
X13.1313Y-4.6997
X13.1937Y-3.8497
X13.3187Y-3.9497
X13.3187Y-6.1997
X13.3813Y-4.5997
X13.475Y-5.0247
X13.5687Y-3.8497
X13.5687Y-6.0997
X13.575Y-5.2747
T6
X2.7687Y-4.0497
X2.8625Y-5.5497
X2.8625Y-6.2997
X2.9563Y-4.7997
X3.05Y-5.5497
X3.1687Y-4.0497
X3.2375Y-6.2997
X3.2625Y-5.5497
X3.2625Y-6.2997
X3.3563Y-4.7997
X3.45Y-5.5497
X3.5187Y-4.0497
X3.6375Y-6.2997
X3.7063Y-6.2997
X3.8937Y-4.7997
X3.8937Y-7.0497
X3.9187Y-4.0497
X4.0813Y-5.5497
X4.1063Y-6.2997
X4.2687Y-4.0497
X4.2937Y-4.7997
X4.2937Y-7.0497
X4.4563Y-6.2997
X4.4813Y-5.5497
X4.6437Y-4.7997
X4.6687Y-4.0497
X4.8313Y-5.5497
X4.8313Y-7.0497
X4.8563Y-6.2997
X5.0187Y-4.0497
X5.0437Y-4.7997
X5.2063Y-6.2997
X5.2313Y-5.5497
X5.2313Y-7.0497
X5.3937Y-4.7997
X5.4187Y-4.0497
X5.5813Y-5.5497
X5.6063Y-6.2997
X5.7687Y-4.0497
X5.7937Y-4.7997
X5.9563Y-6.2997
X5.9813Y-5.5497
X6.1437Y-4.7997
X6.1687Y-4.0497
X6.3313Y-5.5497
X6.3563Y-6.2997
X6.5187Y-4.0497
X6.5437Y-4.7997
X6.7063Y-6.2997
X6.7313Y-5.5497
X6.8937Y-4.7997
X6.9187Y-4.0497
X7.0813Y-5.5497
X7.1063Y-6.2997
X7.2687Y-4.0497
X7.2937Y-4.7997
X7.4563Y-6.2997
X7.4813Y-5.5497
X7.6437Y-4.7997
X7.6687Y-4.0497
X7.8313Y-5.5497
X7.8563Y-6.2997
X8.0187Y-4.0497
X8.0187Y-7.0497
X8.0437Y-4.7997
X8.2063Y-6.2997
X8.2313Y-5.5497
X8.3937Y-4.7997
X8.4187Y-4.0497
X8.4187Y-7.0497
X8.5813Y-5.5497
X8.6063Y-6.2997
X8.7687Y-4.0497
X8.7937Y-4.7997
X8.9563Y-6.2997
X8.9813Y-5.5497
X9.1437Y-4.7997
X9.1687Y-4.0497
X9.3313Y-5.5497
X9.3563Y-6.2997
X9.5187Y-4.0497
X9.5437Y-4.7997
X9.7063Y-6.2997
X9.7313Y-5.5497
X9.8937Y-4.7997
X9.9187Y-4.0497
X10.0813Y-5.5497
X10.1063Y-6.2997
X10.2687Y-4.0497
X10.2937Y-4.7997
X10.4563Y-6.2997
X10.4813Y-5.5497
X10.6437Y-4.7997
X10.6687Y-4.0497
X10.8313Y-5.5497
X10.8563Y-6.2997
X11.0187Y-4.0497
X11.0437Y-4.7997
X11.2063Y-6.2997
X11.2063Y-7.0497
X11.2313Y-5.5497
X11.3937Y-4.7997
X11.4187Y-4.0497
X11.5813Y-5.5497
X11.6063Y-6.2997
X11.6063Y-7.0497
X11.7687Y-4.0497
X11.7937Y-4.7997
X11.9813Y-5.5497
X12.1437Y-4.7997
X12.1437Y-7.0497
X12.1687Y-4.0497
X12.2375Y-6.2997
X12.3313Y-5.5497
X12.5187Y-4.0497
X12.5437Y-4.7997
X12.5437Y-7.0497
X12.6125Y-6.2997
X12.6375Y-6.2997
X12.7313Y-5.5497
X12.8Y-5.5497
X12.8937Y-4.0497
X12.9187Y-4.0497
X13.0125Y-6.2997
X13.0813Y-4.7997
X13.2Y-5.5497
X13.2687Y-4.0497
X13.2687Y-6.2997
X13.2937Y-4.0497
X13.375Y-4.9747
X13.375Y-5.3747
X13.4813Y-4.7997
X13.6687Y-4.0497
X13.6687Y-6.2997
T7
X2.9688Y-6.0247
X3.9062Y-6.0247
X5.9687Y-6.7747
X10.4687Y-6.7747
X12.3437Y-6.0247
X12.5312Y-5.2747
X12.625Y-3.7747
X13.2812Y-6.0247
X13.4688Y-5.2747
X13.5625Y-3.7747
X13.65Y-4.7047
X13.65Y-5.6447
T8
X2.9687Y-4.0497
X2.9688Y-6.6247
X3.0625Y-5.5497
X3.0625Y-6.2997
X3.1563Y-4.7997
X3.25Y-5.5497
X3.4375Y-6.2997
X3.7187Y-4.0497
X3.9062Y-6.6247
X3.9063Y-6.2997
X4.0937Y-4.7997
X4.0937Y-7.0497
X4.2813Y-5.5497
X4.4687Y-4.0497
X4.6563Y-6.2997
X4.8437Y-4.7997
X5.0313Y-5.5497
X5.0313Y-7.0497
X5.2187Y-4.0497
X5.4063Y-6.2997
X5.5937Y-4.7997
X5.7813Y-5.5497
X5.9687Y-7.3747
X5.9687Y-4.0497
X6.1563Y-6.2997
X6.3437Y-4.7997
X6.5313Y-5.5497
X6.7187Y-4.0497
X6.9063Y-6.2997
X7.0937Y-4.7997
X7.2813Y-5.5497
X7.4687Y-4.0497
X7.6563Y-6.2997
X7.8437Y-4.7997
X8.0313Y-5.5497
X8.2187Y-4.0497
X8.2187Y-7.0497
X8.4063Y-6.2997
X8.5937Y-4.7997
X8.7813Y-5.5497
X8.9687Y-4.0497
X9.1563Y-6.2997
X9.3437Y-4.7997
X9.5313Y-5.5497
X9.7187Y-4.0497
X9.9063Y-6.2997
X10.0937Y-4.7997
X10.2813Y-5.5497
X10.4687Y-4.0497
X10.4687Y-7.3747
X10.6563Y-6.2997
X10.8437Y-4.7997
X11.0313Y-5.5497
X11.2187Y-4.0497
X11.4063Y-6.2997
X11.4063Y-7.0497
X11.5937Y-4.7997
X11.7813Y-5.5497
X11.9687Y-4.0497
X12.3437Y-6.6247
X12.3437Y-4.7997
X12.3437Y-7.0497
X12.4375Y-6.2997
X12.5312Y-5.8747
X12.5313Y-5.5497
X12.625Y-4.3747
X12.7187Y-4.0497
X12.8125Y-6.2997
X13.0Y-5.5497
X13.05Y-4.7047
X13.05Y-5.6447
X13.0937Y-4.0497
X13.2812Y-6.6247
X13.2813Y-4.7997
X13.375Y-5.1747
X13.4687Y-4.0497
X13.4687Y-6.2997
X13.4688Y-5.8747
X13.5625Y-4.3747
T0
M30
