G04 #@! TF.GenerationSoftware,KiCad,Pcbnew,5.1.8*
G04 #@! TF.CreationDate,2020-11-23T09:17:22-05:00*
G04 #@! TF.ProjectId,unix60pcb,756e6978-3630-4706-9362-2e6b69636164,rev?*
G04 #@! TF.SameCoordinates,Original*
G04 #@! TF.FileFunction,Copper,L1,Top*
G04 #@! TF.FilePolarity,Positive*
%FSLAX46Y46*%
G04 Gerber Fmt 4.6, Leading zero omitted, Abs format (unit mm)*
G04 Created by KiCad (PCBNEW 5.1.8) date 2020-11-23 09:17:22*
%MOMM*%
%LPD*%
G01*
G04 APERTURE LIST*
G04 #@! TA.AperFunction,EtchedComponent*
%ADD10C,0.010000*%
G04 #@! TD*
G04 #@! TA.AperFunction,ComponentPad*
%ADD11C,1.600000*%
G04 #@! TD*
G04 #@! TA.AperFunction,ComponentPad*
%ADD12R,1.600000X1.600000*%
G04 #@! TD*
G04 #@! TA.AperFunction,SMDPad,CuDef*
%ADD13R,2.500000X0.500000*%
G04 #@! TD*
G04 #@! TA.AperFunction,SMDPad,CuDef*
%ADD14R,1.200000X1.200000*%
G04 #@! TD*
G04 #@! TA.AperFunction,ComponentPad*
%ADD15R,1.700000X1.700000*%
G04 #@! TD*
G04 #@! TA.AperFunction,ComponentPad*
%ADD16O,1.700000X1.700000*%
G04 #@! TD*
G04 #@! TA.AperFunction,SMDPad,CuDef*
%ADD17R,0.500000X2.500000*%
G04 #@! TD*
G04 #@! TA.AperFunction,ComponentPad*
%ADD18C,2.250000*%
G04 #@! TD*
G04 #@! TA.AperFunction,ViaPad*
%ADD19C,0.800000*%
G04 #@! TD*
G04 #@! TA.AperFunction,Conductor*
%ADD20C,0.250000*%
G04 #@! TD*
G04 APERTURE END LIST*
D10*
G04 #@! TO.C,G\u002A\u002A\u002A*
G36*
X177870016Y-96341800D02*
G01*
X177907697Y-96484013D01*
X177850533Y-96604933D01*
X177698424Y-96694823D01*
X177588393Y-96621787D01*
X177567590Y-96576971D01*
X177563839Y-96397215D01*
X177677118Y-96287169D01*
X177743021Y-96276584D01*
X177870016Y-96341800D01*
G37*
X177870016Y-96341800D02*
X177907697Y-96484013D01*
X177850533Y-96604933D01*
X177698424Y-96694823D01*
X177588393Y-96621787D01*
X177567590Y-96576971D01*
X177563839Y-96397215D01*
X177677118Y-96287169D01*
X177743021Y-96276584D01*
X177870016Y-96341800D01*
G36*
X202966704Y-96801677D02*
G01*
X203226170Y-96826412D01*
X203356903Y-96873522D01*
X203399450Y-96961169D01*
X203401083Y-96996250D01*
X203370043Y-97107792D01*
X203248651Y-97166291D01*
X203041250Y-97191618D01*
X202801439Y-97230783D01*
X202692886Y-97289558D01*
X202724860Y-97345491D01*
X202906626Y-97376131D01*
X202964627Y-97377250D01*
X203243263Y-97437887D01*
X203436043Y-97593248D01*
X203522401Y-97803513D01*
X203481771Y-98028858D01*
X203373249Y-98168461D01*
X203198837Y-98255149D01*
X202947322Y-98303218D01*
X202675920Y-98311762D01*
X202441843Y-98279873D01*
X202302305Y-98206643D01*
X202290256Y-98185638D01*
X202277927Y-98022087D01*
X202401418Y-97922790D01*
X202673011Y-97879493D01*
X202749913Y-97876745D01*
X203147083Y-97868240D01*
X202815046Y-97790382D01*
X202502333Y-97691217D01*
X202328114Y-97559174D01*
X202261629Y-97366522D01*
X202258083Y-97288264D01*
X202311010Y-97021952D01*
X202478483Y-96862031D01*
X202773538Y-96799549D01*
X202966704Y-96801677D01*
G37*
X202966704Y-96801677D02*
X203226170Y-96826412D01*
X203356903Y-96873522D01*
X203399450Y-96961169D01*
X203401083Y-96996250D01*
X203370043Y-97107792D01*
X203248651Y-97166291D01*
X203041250Y-97191618D01*
X202801439Y-97230783D01*
X202692886Y-97289558D01*
X202724860Y-97345491D01*
X202906626Y-97376131D01*
X202964627Y-97377250D01*
X203243263Y-97437887D01*
X203436043Y-97593248D01*
X203522401Y-97803513D01*
X203481771Y-98028858D01*
X203373249Y-98168461D01*
X203198837Y-98255149D01*
X202947322Y-98303218D01*
X202675920Y-98311762D01*
X202441843Y-98279873D01*
X202302305Y-98206643D01*
X202290256Y-98185638D01*
X202277927Y-98022087D01*
X202401418Y-97922790D01*
X202673011Y-97879493D01*
X202749913Y-97876745D01*
X203147083Y-97868240D01*
X202815046Y-97790382D01*
X202502333Y-97691217D01*
X202328114Y-97559174D01*
X202261629Y-97366522D01*
X202258083Y-97288264D01*
X202311010Y-97021952D01*
X202478483Y-96862031D01*
X202773538Y-96799549D01*
X202966704Y-96801677D01*
G36*
X201980714Y-96332187D02*
G01*
X202011331Y-96370079D01*
X202059414Y-96540132D01*
X202082600Y-96820036D01*
X202081554Y-97152250D01*
X202056943Y-97479233D01*
X202009431Y-97743444D01*
X201994904Y-97790522D01*
X201822583Y-98059327D01*
X201555390Y-98235196D01*
X201244394Y-98300547D01*
X200940661Y-98237798D01*
X200849257Y-98184956D01*
X200618853Y-97937798D01*
X200522909Y-97644754D01*
X200526395Y-97604864D01*
X200936488Y-97604864D01*
X201019064Y-97779189D01*
X201201765Y-97866336D01*
X201446825Y-97833858D01*
X201549846Y-97714569D01*
X201580750Y-97546584D01*
X201517976Y-97336839D01*
X201366345Y-97220610D01*
X201180889Y-97213621D01*
X201016641Y-97331596D01*
X200988083Y-97377250D01*
X200936488Y-97604864D01*
X200526395Y-97604864D01*
X200549154Y-97344456D01*
X200685315Y-97075536D01*
X200919122Y-96876628D01*
X201238302Y-96786365D01*
X201294076Y-96784584D01*
X201495246Y-96756012D01*
X201593371Y-96643331D01*
X201616427Y-96569291D01*
X201711356Y-96380633D01*
X201848487Y-96293678D01*
X201980714Y-96332187D01*
G37*
X201980714Y-96332187D02*
X202011331Y-96370079D01*
X202059414Y-96540132D01*
X202082600Y-96820036D01*
X202081554Y-97152250D01*
X202056943Y-97479233D01*
X202009431Y-97743444D01*
X201994904Y-97790522D01*
X201822583Y-98059327D01*
X201555390Y-98235196D01*
X201244394Y-98300547D01*
X200940661Y-98237798D01*
X200849257Y-98184956D01*
X200618853Y-97937798D01*
X200522909Y-97644754D01*
X200526395Y-97604864D01*
X200936488Y-97604864D01*
X201019064Y-97779189D01*
X201201765Y-97866336D01*
X201446825Y-97833858D01*
X201549846Y-97714569D01*
X201580750Y-97546584D01*
X201517976Y-97336839D01*
X201366345Y-97220610D01*
X201180889Y-97213621D01*
X201016641Y-97331596D01*
X200988083Y-97377250D01*
X200936488Y-97604864D01*
X200526395Y-97604864D01*
X200549154Y-97344456D01*
X200685315Y-97075536D01*
X200919122Y-96876628D01*
X201238302Y-96786365D01*
X201294076Y-96784584D01*
X201495246Y-96756012D01*
X201593371Y-96643331D01*
X201616427Y-96569291D01*
X201711356Y-96380633D01*
X201848487Y-96293678D01*
X201980714Y-96332187D01*
G36*
X200354804Y-96798783D02*
G01*
X200433027Y-96861610D01*
X200448146Y-97018781D01*
X200354002Y-97160042D01*
X200227391Y-97207917D01*
X200050788Y-97261460D01*
X199938368Y-97435339D01*
X199879021Y-97749427D01*
X199871665Y-97844305D01*
X199833824Y-98128334D01*
X199760969Y-98267817D01*
X199713954Y-98289582D01*
X199563383Y-98278769D01*
X199523454Y-98255066D01*
X199490290Y-98143243D01*
X199468740Y-97919639D01*
X199464083Y-97737626D01*
X199478285Y-97445209D01*
X199537706Y-97249042D01*
X199667563Y-97077228D01*
X199711570Y-97032071D01*
X199932169Y-96870212D01*
X200163852Y-96788369D01*
X200354804Y-96798783D01*
G37*
X200354804Y-96798783D02*
X200433027Y-96861610D01*
X200448146Y-97018781D01*
X200354002Y-97160042D01*
X200227391Y-97207917D01*
X200050788Y-97261460D01*
X199938368Y-97435339D01*
X199879021Y-97749427D01*
X199871665Y-97844305D01*
X199833824Y-98128334D01*
X199760969Y-98267817D01*
X199713954Y-98289582D01*
X199563383Y-98278769D01*
X199523454Y-98255066D01*
X199490290Y-98143243D01*
X199468740Y-97919639D01*
X199464083Y-97737626D01*
X199478285Y-97445209D01*
X199537706Y-97249042D01*
X199667563Y-97077228D01*
X199711570Y-97032071D01*
X199932169Y-96870212D01*
X200163852Y-96788369D01*
X200354804Y-96798783D01*
G36*
X198917038Y-96920512D02*
G01*
X199051554Y-97036362D01*
X199195507Y-97197904D01*
X199266754Y-97352191D01*
X199285276Y-97564616D01*
X199277874Y-97777077D01*
X199252416Y-98266014D01*
X198759575Y-98287803D01*
X198467381Y-98291481D01*
X198278682Y-98256991D01*
X198128638Y-98164537D01*
X198018741Y-98061601D01*
X197812645Y-97765065D01*
X197798073Y-97647296D01*
X198220182Y-97647296D01*
X198282125Y-97762317D01*
X198468539Y-97874121D01*
X198677322Y-97846628D01*
X198783374Y-97762317D01*
X198858449Y-97558967D01*
X198787266Y-97355770D01*
X198680916Y-97259758D01*
X198491199Y-97216708D01*
X198327135Y-97297237D01*
X198224779Y-97455911D01*
X198220182Y-97647296D01*
X197798073Y-97647296D01*
X197775170Y-97462198D01*
X197906322Y-97161890D01*
X198018237Y-97032071D01*
X198314155Y-96826153D01*
X198616275Y-96788977D01*
X198917038Y-96920512D01*
G37*
X198917038Y-96920512D02*
X199051554Y-97036362D01*
X199195507Y-97197904D01*
X199266754Y-97352191D01*
X199285276Y-97564616D01*
X199277874Y-97777077D01*
X199252416Y-98266014D01*
X198759575Y-98287803D01*
X198467381Y-98291481D01*
X198278682Y-98256991D01*
X198128638Y-98164537D01*
X198018741Y-98061601D01*
X197812645Y-97765065D01*
X197798073Y-97647296D01*
X198220182Y-97647296D01*
X198282125Y-97762317D01*
X198468539Y-97874121D01*
X198677322Y-97846628D01*
X198783374Y-97762317D01*
X198858449Y-97558967D01*
X198787266Y-97355770D01*
X198680916Y-97259758D01*
X198491199Y-97216708D01*
X198327135Y-97297237D01*
X198224779Y-97455911D01*
X198220182Y-97647296D01*
X197798073Y-97647296D01*
X197775170Y-97462198D01*
X197906322Y-97161890D01*
X198018237Y-97032071D01*
X198314155Y-96826153D01*
X198616275Y-96788977D01*
X198917038Y-96920512D01*
G36*
X197138636Y-96858784D02*
G01*
X197398992Y-97053105D01*
X197563698Y-97325127D01*
X197598723Y-97532943D01*
X197526779Y-97879047D01*
X197341933Y-98132101D01*
X197080565Y-98277020D01*
X196779055Y-98298721D01*
X196473783Y-98182120D01*
X196324903Y-98061096D01*
X196124393Y-97779064D01*
X196097767Y-97647296D01*
X196526848Y-97647296D01*
X196588792Y-97762317D01*
X196775206Y-97874121D01*
X196983988Y-97846628D01*
X197090041Y-97762317D01*
X197165116Y-97558967D01*
X197093932Y-97355770D01*
X196987583Y-97259758D01*
X196797865Y-97216708D01*
X196633802Y-97297237D01*
X196531445Y-97455911D01*
X196526848Y-97647296D01*
X196097767Y-97647296D01*
X196077416Y-97546584D01*
X196151970Y-97263095D01*
X196343198Y-97009168D01*
X196602451Y-96834298D01*
X196826407Y-96784584D01*
X197138636Y-96858784D01*
G37*
X197138636Y-96858784D02*
X197398992Y-97053105D01*
X197563698Y-97325127D01*
X197598723Y-97532943D01*
X197526779Y-97879047D01*
X197341933Y-98132101D01*
X197080565Y-98277020D01*
X196779055Y-98298721D01*
X196473783Y-98182120D01*
X196324903Y-98061096D01*
X196124393Y-97779064D01*
X196097767Y-97647296D01*
X196526848Y-97647296D01*
X196588792Y-97762317D01*
X196775206Y-97874121D01*
X196983988Y-97846628D01*
X197090041Y-97762317D01*
X197165116Y-97558967D01*
X197093932Y-97355770D01*
X196987583Y-97259758D01*
X196797865Y-97216708D01*
X196633802Y-97297237D01*
X196531445Y-97455911D01*
X196526848Y-97647296D01*
X196097767Y-97647296D01*
X196077416Y-97546584D01*
X196151970Y-97263095D01*
X196343198Y-97009168D01*
X196602451Y-96834298D01*
X196826407Y-96784584D01*
X197138636Y-96858784D01*
G36*
X195626098Y-96349434D02*
G01*
X195782277Y-96486433D01*
X195862386Y-96730327D01*
X195889274Y-97106655D01*
X195890264Y-97295619D01*
X195874739Y-97725312D01*
X195816912Y-98014014D01*
X195693233Y-98189022D01*
X195480151Y-98277636D01*
X195154117Y-98307157D01*
X195016426Y-98308584D01*
X194665421Y-98293068D01*
X194469575Y-98245094D01*
X194420627Y-98197026D01*
X194405002Y-98069561D01*
X194396809Y-97814096D01*
X194396810Y-97673584D01*
X194807416Y-97673584D01*
X194823311Y-97817554D01*
X194903720Y-97873408D01*
X195097726Y-97871387D01*
X195124916Y-97869194D01*
X195340972Y-97831880D01*
X195431096Y-97751009D01*
X195442416Y-97673584D01*
X195405980Y-97555338D01*
X195268332Y-97495880D01*
X195124916Y-97477973D01*
X194917026Y-97471875D01*
X194827582Y-97520667D01*
X194807499Y-97654588D01*
X194807416Y-97673584D01*
X194396810Y-97673584D01*
X194396813Y-97471836D01*
X194402117Y-97202193D01*
X194410111Y-96911584D01*
X194807416Y-96911584D01*
X194823311Y-97055554D01*
X194903720Y-97111408D01*
X195097726Y-97109387D01*
X195124916Y-97107194D01*
X195340972Y-97069880D01*
X195431096Y-96989009D01*
X195442416Y-96911584D01*
X195405980Y-96793338D01*
X195268332Y-96733880D01*
X195124916Y-96715973D01*
X194917026Y-96709875D01*
X194827582Y-96758667D01*
X194807499Y-96892588D01*
X194807416Y-96911584D01*
X194410111Y-96911584D01*
X194426416Y-96318917D01*
X194994134Y-96293968D01*
X195370999Y-96293792D01*
X195626098Y-96349434D01*
G37*
X195626098Y-96349434D02*
X195782277Y-96486433D01*
X195862386Y-96730327D01*
X195889274Y-97106655D01*
X195890264Y-97295619D01*
X195874739Y-97725312D01*
X195816912Y-98014014D01*
X195693233Y-98189022D01*
X195480151Y-98277636D01*
X195154117Y-98307157D01*
X195016426Y-98308584D01*
X194665421Y-98293068D01*
X194469575Y-98245094D01*
X194420627Y-98197026D01*
X194405002Y-98069561D01*
X194396809Y-97814096D01*
X194396810Y-97673584D01*
X194807416Y-97673584D01*
X194823311Y-97817554D01*
X194903720Y-97873408D01*
X195097726Y-97871387D01*
X195124916Y-97869194D01*
X195340972Y-97831880D01*
X195431096Y-97751009D01*
X195442416Y-97673584D01*
X195405980Y-97555338D01*
X195268332Y-97495880D01*
X195124916Y-97477973D01*
X194917026Y-97471875D01*
X194827582Y-97520667D01*
X194807499Y-97654588D01*
X194807416Y-97673584D01*
X194396810Y-97673584D01*
X194396813Y-97471836D01*
X194402117Y-97202193D01*
X194410111Y-96911584D01*
X194807416Y-96911584D01*
X194823311Y-97055554D01*
X194903720Y-97111408D01*
X195097726Y-97109387D01*
X195124916Y-97107194D01*
X195340972Y-97069880D01*
X195431096Y-96989009D01*
X195442416Y-96911584D01*
X195405980Y-96793338D01*
X195268332Y-96733880D01*
X195124916Y-96715973D01*
X194917026Y-96709875D01*
X194827582Y-96758667D01*
X194807499Y-96892588D01*
X194807416Y-96911584D01*
X194410111Y-96911584D01*
X194426416Y-96318917D01*
X194994134Y-96293968D01*
X195370999Y-96293792D01*
X195626098Y-96349434D01*
G36*
X192082038Y-96289070D02*
G01*
X192283791Y-96338146D01*
X192437868Y-96441232D01*
X192479488Y-96480959D01*
X192693643Y-96774435D01*
X192742270Y-97073522D01*
X192628403Y-97399995D01*
X192611568Y-97429301D01*
X192502244Y-97630395D01*
X192479490Y-97751674D01*
X192537796Y-97855432D01*
X192570568Y-97892784D01*
X192658540Y-98065842D01*
X192639960Y-98224155D01*
X192525570Y-98306533D01*
X192497580Y-98308584D01*
X192371282Y-98251551D01*
X192195505Y-98109290D01*
X192140416Y-98054584D01*
X191965104Y-97895043D01*
X191824471Y-97806774D01*
X191796492Y-97800584D01*
X191711303Y-97873918D01*
X191645905Y-98050699D01*
X191645116Y-98054584D01*
X191556020Y-98238198D01*
X191416539Y-98314659D01*
X191279008Y-98269246D01*
X191218141Y-98174659D01*
X191192501Y-98019937D01*
X191175955Y-97747068D01*
X191168505Y-97406996D01*
X191170149Y-97050662D01*
X191170552Y-97038584D01*
X191674750Y-97038584D01*
X191708558Y-97281109D01*
X191823509Y-97383528D01*
X192039888Y-97358543D01*
X192133491Y-97325858D01*
X192236513Y-97206569D01*
X192267416Y-97038584D01*
X192212495Y-96827484D01*
X192036922Y-96720149D01*
X191837158Y-96699917D01*
X191730382Y-96730901D01*
X191683331Y-96852686D01*
X191674750Y-97038584D01*
X191170552Y-97038584D01*
X191180888Y-96729010D01*
X191200722Y-96492981D01*
X191218141Y-96410508D01*
X191296112Y-96329996D01*
X191474264Y-96288138D01*
X191772323Y-96276584D01*
X192082038Y-96289070D01*
G37*
X192082038Y-96289070D02*
X192283791Y-96338146D01*
X192437868Y-96441232D01*
X192479488Y-96480959D01*
X192693643Y-96774435D01*
X192742270Y-97073522D01*
X192628403Y-97399995D01*
X192611568Y-97429301D01*
X192502244Y-97630395D01*
X192479490Y-97751674D01*
X192537796Y-97855432D01*
X192570568Y-97892784D01*
X192658540Y-98065842D01*
X192639960Y-98224155D01*
X192525570Y-98306533D01*
X192497580Y-98308584D01*
X192371282Y-98251551D01*
X192195505Y-98109290D01*
X192140416Y-98054584D01*
X191965104Y-97895043D01*
X191824471Y-97806774D01*
X191796492Y-97800584D01*
X191711303Y-97873918D01*
X191645905Y-98050699D01*
X191645116Y-98054584D01*
X191556020Y-98238198D01*
X191416539Y-98314659D01*
X191279008Y-98269246D01*
X191218141Y-98174659D01*
X191192501Y-98019937D01*
X191175955Y-97747068D01*
X191168505Y-97406996D01*
X191170149Y-97050662D01*
X191170552Y-97038584D01*
X191674750Y-97038584D01*
X191708558Y-97281109D01*
X191823509Y-97383528D01*
X192039888Y-97358543D01*
X192133491Y-97325858D01*
X192236513Y-97206569D01*
X192267416Y-97038584D01*
X192212495Y-96827484D01*
X192036922Y-96720149D01*
X191837158Y-96699917D01*
X191730382Y-96730901D01*
X191683331Y-96852686D01*
X191674750Y-97038584D01*
X191170552Y-97038584D01*
X191180888Y-96729010D01*
X191200722Y-96492981D01*
X191218141Y-96410508D01*
X191296112Y-96329996D01*
X191474264Y-96288138D01*
X191772323Y-96276584D01*
X192082038Y-96289070D01*
G36*
X190729417Y-96322916D02*
G01*
X190919913Y-96341153D01*
X191011328Y-96382985D01*
X191038754Y-96457769D01*
X191039750Y-96488250D01*
X191015559Y-96589858D01*
X190916167Y-96646628D01*
X190701344Y-96676202D01*
X190595250Y-96683175D01*
X190336681Y-96703712D01*
X190204779Y-96744183D01*
X190157000Y-96830926D01*
X190150750Y-96958341D01*
X190165138Y-97119956D01*
X190241004Y-97190694D01*
X190427401Y-97207696D01*
X190480358Y-97207917D01*
X190706325Y-97233029D01*
X190838563Y-97296604D01*
X190848886Y-97313750D01*
X190858323Y-97498614D01*
X190719953Y-97603674D01*
X190487472Y-97631250D01*
X190274658Y-97642134D01*
X190177207Y-97707039D01*
X190141242Y-97874348D01*
X190134694Y-97948046D01*
X190078015Y-98161963D01*
X189973195Y-98291318D01*
X189856378Y-98311062D01*
X189766361Y-98203284D01*
X189749725Y-98073049D01*
X189740738Y-97815178D01*
X189740267Y-97471233D01*
X189745450Y-97202193D01*
X189769750Y-96318917D01*
X190404750Y-96318917D01*
X190729417Y-96322916D01*
G37*
X190729417Y-96322916D02*
X190919913Y-96341153D01*
X191011328Y-96382985D01*
X191038754Y-96457769D01*
X191039750Y-96488250D01*
X191015559Y-96589858D01*
X190916167Y-96646628D01*
X190701344Y-96676202D01*
X190595250Y-96683175D01*
X190336681Y-96703712D01*
X190204779Y-96744183D01*
X190157000Y-96830926D01*
X190150750Y-96958341D01*
X190165138Y-97119956D01*
X190241004Y-97190694D01*
X190427401Y-97207696D01*
X190480358Y-97207917D01*
X190706325Y-97233029D01*
X190838563Y-97296604D01*
X190848886Y-97313750D01*
X190858323Y-97498614D01*
X190719953Y-97603674D01*
X190487472Y-97631250D01*
X190274658Y-97642134D01*
X190177207Y-97707039D01*
X190141242Y-97874348D01*
X190134694Y-97948046D01*
X190078015Y-98161963D01*
X189973195Y-98291318D01*
X189856378Y-98311062D01*
X189766361Y-98203284D01*
X189749725Y-98073049D01*
X189740738Y-97815178D01*
X189740267Y-97471233D01*
X189745450Y-97202193D01*
X189769750Y-96318917D01*
X190404750Y-96318917D01*
X190729417Y-96322916D01*
G36*
X185853642Y-96348312D02*
G01*
X185968840Y-96487555D01*
X186002083Y-96657516D01*
X186025980Y-96774925D01*
X186129611Y-96812271D01*
X186295953Y-96800940D01*
X186591142Y-96843853D01*
X186853849Y-97014151D01*
X187039179Y-97270343D01*
X187102750Y-97546584D01*
X187026490Y-97836129D01*
X186830146Y-98091254D01*
X186562365Y-98263310D01*
X186340750Y-98308584D01*
X186048852Y-98233026D01*
X185826237Y-98061096D01*
X185705065Y-97929152D01*
X185631629Y-97800433D01*
X185598130Y-97647296D01*
X186028182Y-97647296D01*
X186090125Y-97762317D01*
X186276539Y-97874121D01*
X186485322Y-97846628D01*
X186591374Y-97762317D01*
X186666449Y-97558967D01*
X186595266Y-97355770D01*
X186488916Y-97259758D01*
X186299199Y-97216708D01*
X186135135Y-97297237D01*
X186032779Y-97455911D01*
X186028182Y-97647296D01*
X185598130Y-97647296D01*
X185594039Y-97628599D01*
X185580406Y-97367309D01*
X185578750Y-97096488D01*
X185587032Y-96714131D01*
X185614413Y-96475589D01*
X185664695Y-96356040D01*
X185695432Y-96334591D01*
X185853642Y-96348312D01*
G37*
X185853642Y-96348312D02*
X185968840Y-96487555D01*
X186002083Y-96657516D01*
X186025980Y-96774925D01*
X186129611Y-96812271D01*
X186295953Y-96800940D01*
X186591142Y-96843853D01*
X186853849Y-97014151D01*
X187039179Y-97270343D01*
X187102750Y-97546584D01*
X187026490Y-97836129D01*
X186830146Y-98091254D01*
X186562365Y-98263310D01*
X186340750Y-98308584D01*
X186048852Y-98233026D01*
X185826237Y-98061096D01*
X185705065Y-97929152D01*
X185631629Y-97800433D01*
X185598130Y-97647296D01*
X186028182Y-97647296D01*
X186090125Y-97762317D01*
X186276539Y-97874121D01*
X186485322Y-97846628D01*
X186591374Y-97762317D01*
X186666449Y-97558967D01*
X186595266Y-97355770D01*
X186488916Y-97259758D01*
X186299199Y-97216708D01*
X186135135Y-97297237D01*
X186032779Y-97455911D01*
X186028182Y-97647296D01*
X185598130Y-97647296D01*
X185594039Y-97628599D01*
X185580406Y-97367309D01*
X185578750Y-97096488D01*
X185587032Y-96714131D01*
X185614413Y-96475589D01*
X185664695Y-96356040D01*
X185695432Y-96334591D01*
X185853642Y-96348312D01*
G36*
X184517572Y-96333226D02*
G01*
X184569901Y-96397798D01*
X184601195Y-96545098D01*
X184619913Y-96807592D01*
X184629592Y-97062920D01*
X184638739Y-97422293D01*
X184630659Y-97657053D01*
X184595213Y-97811770D01*
X184522259Y-97931017D01*
X184403272Y-98057754D01*
X184105910Y-98265565D01*
X183803366Y-98304699D01*
X183503528Y-98175130D01*
X183370903Y-98061096D01*
X183164851Y-97765686D01*
X183150239Y-97647296D01*
X183572848Y-97647296D01*
X183634792Y-97762317D01*
X183821206Y-97874121D01*
X184029988Y-97846628D01*
X184136041Y-97762317D01*
X184211116Y-97558967D01*
X184139932Y-97355770D01*
X184033583Y-97259758D01*
X183843865Y-97216708D01*
X183679802Y-97297237D01*
X183577445Y-97455911D01*
X183572848Y-97647296D01*
X183150239Y-97647296D01*
X183127669Y-97464434D01*
X183259306Y-97163296D01*
X183379879Y-97023095D01*
X183584425Y-96852723D01*
X183776139Y-96794102D01*
X183926151Y-96800466D01*
X184122931Y-96809649D01*
X184209353Y-96747475D01*
X184241188Y-96576608D01*
X184291545Y-96384715D01*
X184409095Y-96319989D01*
X184435750Y-96318917D01*
X184517572Y-96333226D01*
G37*
X184517572Y-96333226D02*
X184569901Y-96397798D01*
X184601195Y-96545098D01*
X184619913Y-96807592D01*
X184629592Y-97062920D01*
X184638739Y-97422293D01*
X184630659Y-97657053D01*
X184595213Y-97811770D01*
X184522259Y-97931017D01*
X184403272Y-98057754D01*
X184105910Y-98265565D01*
X183803366Y-98304699D01*
X183503528Y-98175130D01*
X183370903Y-98061096D01*
X183164851Y-97765686D01*
X183150239Y-97647296D01*
X183572848Y-97647296D01*
X183634792Y-97762317D01*
X183821206Y-97874121D01*
X184029988Y-97846628D01*
X184136041Y-97762317D01*
X184211116Y-97558967D01*
X184139932Y-97355770D01*
X184033583Y-97259758D01*
X183843865Y-97216708D01*
X183679802Y-97297237D01*
X183577445Y-97455911D01*
X183572848Y-97647296D01*
X183150239Y-97647296D01*
X183127669Y-97464434D01*
X183259306Y-97163296D01*
X183379879Y-97023095D01*
X183584425Y-96852723D01*
X183776139Y-96794102D01*
X183926151Y-96800466D01*
X184122931Y-96809649D01*
X184209353Y-96747475D01*
X184241188Y-96576608D01*
X184291545Y-96384715D01*
X184409095Y-96319989D01*
X184435750Y-96318917D01*
X184517572Y-96333226D01*
G36*
X182528003Y-96847209D02*
G01*
X182767903Y-97005832D01*
X182949495Y-97216570D01*
X183025825Y-97435539D01*
X183023544Y-97482532D01*
X182988123Y-97591650D01*
X182893377Y-97657201D01*
X182698235Y-97697356D01*
X182488416Y-97719324D01*
X182226208Y-97753195D01*
X182099098Y-97793007D01*
X182110654Y-97827335D01*
X182296225Y-97867698D01*
X182445850Y-97866262D01*
X182621760Y-97893653D01*
X182683776Y-98002105D01*
X182658142Y-98179647D01*
X182519402Y-98282649D01*
X182307726Y-98308538D01*
X182063287Y-98254744D01*
X181826256Y-98118695D01*
X181762237Y-98061096D01*
X181561727Y-97779064D01*
X181514750Y-97546584D01*
X181581647Y-97292584D01*
X182065083Y-97292584D01*
X182098505Y-97352248D01*
X182264233Y-97377172D01*
X182276750Y-97377250D01*
X182448853Y-97354705D01*
X182490662Y-97296613D01*
X182488416Y-97292584D01*
X182368645Y-97220718D01*
X182276750Y-97207917D01*
X182116755Y-97247958D01*
X182065083Y-97292584D01*
X181581647Y-97292584D01*
X181591009Y-97257038D01*
X181787353Y-97001913D01*
X182055134Y-96829857D01*
X182276750Y-96784583D01*
X182528003Y-96847209D01*
G37*
X182528003Y-96847209D02*
X182767903Y-97005832D01*
X182949495Y-97216570D01*
X183025825Y-97435539D01*
X183023544Y-97482532D01*
X182988123Y-97591650D01*
X182893377Y-97657201D01*
X182698235Y-97697356D01*
X182488416Y-97719324D01*
X182226208Y-97753195D01*
X182099098Y-97793007D01*
X182110654Y-97827335D01*
X182296225Y-97867698D01*
X182445850Y-97866262D01*
X182621760Y-97893653D01*
X182683776Y-98002105D01*
X182658142Y-98179647D01*
X182519402Y-98282649D01*
X182307726Y-98308538D01*
X182063287Y-98254744D01*
X181826256Y-98118695D01*
X181762237Y-98061096D01*
X181561727Y-97779064D01*
X181514750Y-97546584D01*
X181581647Y-97292584D01*
X182065083Y-97292584D01*
X182098505Y-97352248D01*
X182264233Y-97377172D01*
X182276750Y-97377250D01*
X182448853Y-97354705D01*
X182490662Y-97296613D01*
X182488416Y-97292584D01*
X182368645Y-97220718D01*
X182276750Y-97207917D01*
X182116755Y-97247958D01*
X182065083Y-97292584D01*
X181581647Y-97292584D01*
X181591009Y-97257038D01*
X181787353Y-97001913D01*
X182055134Y-96829857D01*
X182276750Y-96784583D01*
X182528003Y-96847209D01*
G36*
X180847007Y-96858348D02*
G01*
X181102220Y-97036362D01*
X181246158Y-97197880D01*
X181317409Y-97352141D01*
X181335945Y-97564520D01*
X181328541Y-97777195D01*
X181306503Y-98055657D01*
X181267194Y-98203675D01*
X181195128Y-98260134D01*
X181133750Y-98266250D01*
X181031943Y-98240793D01*
X180971165Y-98138218D01*
X180933213Y-97919221D01*
X180922083Y-97809194D01*
X180846803Y-97450880D01*
X180719464Y-97241948D01*
X180567500Y-97182426D01*
X180418346Y-97272346D01*
X180299438Y-97511736D01*
X180244750Y-97808460D01*
X180198161Y-98108934D01*
X180124223Y-98261618D01*
X180071288Y-98289610D01*
X179920712Y-98278770D01*
X179880788Y-98255066D01*
X179839052Y-98125983D01*
X179823634Y-97890678D01*
X179831916Y-97609776D01*
X179861283Y-97343898D01*
X179909119Y-97153667D01*
X179929942Y-97115913D01*
X180202880Y-96880514D01*
X180521525Y-96793780D01*
X180847007Y-96858348D01*
G37*
X180847007Y-96858348D02*
X181102220Y-97036362D01*
X181246158Y-97197880D01*
X181317409Y-97352141D01*
X181335945Y-97564520D01*
X181328541Y-97777195D01*
X181306503Y-98055657D01*
X181267194Y-98203675D01*
X181195128Y-98260134D01*
X181133750Y-98266250D01*
X181031943Y-98240793D01*
X180971165Y-98138218D01*
X180933213Y-97919221D01*
X180922083Y-97809194D01*
X180846803Y-97450880D01*
X180719464Y-97241948D01*
X180567500Y-97182426D01*
X180418346Y-97272346D01*
X180299438Y-97511736D01*
X180244750Y-97808460D01*
X180198161Y-98108934D01*
X180124223Y-98261618D01*
X180071288Y-98289610D01*
X179920712Y-98278770D01*
X179880788Y-98255066D01*
X179839052Y-98125983D01*
X179823634Y-97890678D01*
X179831916Y-97609776D01*
X179861283Y-97343898D01*
X179909119Y-97153667D01*
X179929942Y-97115913D01*
X180202880Y-96880514D01*
X180521525Y-96793780D01*
X180847007Y-96858348D01*
G36*
X177824460Y-96825341D02*
G01*
X177881331Y-96878079D01*
X177921446Y-97026800D01*
X177946930Y-97284600D01*
X177956585Y-97591760D01*
X177949212Y-97888558D01*
X177923612Y-98115275D01*
X177907358Y-98174659D01*
X177792370Y-98294509D01*
X177637775Y-98286421D01*
X177591861Y-98252139D01*
X177565221Y-98146152D01*
X177545355Y-97915965D01*
X177535789Y-97606680D01*
X177535416Y-97529815D01*
X177542374Y-97178742D01*
X177567465Y-96963089D01*
X177617013Y-96849352D01*
X177670961Y-96811922D01*
X177824460Y-96825341D01*
G37*
X177824460Y-96825341D02*
X177881331Y-96878079D01*
X177921446Y-97026800D01*
X177946930Y-97284600D01*
X177956585Y-97591760D01*
X177949212Y-97888558D01*
X177923612Y-98115275D01*
X177907358Y-98174659D01*
X177792370Y-98294509D01*
X177637775Y-98286421D01*
X177591861Y-98252139D01*
X177565221Y-98146152D01*
X177545355Y-97915965D01*
X177535789Y-97606680D01*
X177535416Y-97529815D01*
X177542374Y-97178742D01*
X177567465Y-96963089D01*
X177617013Y-96849352D01*
X177670961Y-96811922D01*
X177824460Y-96825341D01*
G36*
X177083340Y-96813241D02*
G01*
X177215125Y-96885658D01*
X177223408Y-96901266D01*
X177213334Y-97059593D01*
X177058227Y-97166090D01*
X176777877Y-97207761D01*
X176756483Y-97207917D01*
X176550752Y-97227616D01*
X176440586Y-97276537D01*
X176434750Y-97292584D01*
X176508875Y-97349806D01*
X176689849Y-97376912D01*
X176714901Y-97377250D01*
X176959644Y-97410725D01*
X177148817Y-97489686D01*
X177271902Y-97671401D01*
X177294345Y-97910259D01*
X177216145Y-98127223D01*
X177148817Y-98196147D01*
X176982540Y-98259644D01*
X176731870Y-98296693D01*
X176456071Y-98305997D01*
X176214402Y-98286255D01*
X176066126Y-98236168D01*
X176051457Y-98220208D01*
X176044132Y-98082709D01*
X176172282Y-97965114D01*
X176402084Y-97890682D01*
X176550950Y-97876745D01*
X176900416Y-97868240D01*
X176561750Y-97790238D01*
X176255538Y-97664170D01*
X176064238Y-97472219D01*
X176002197Y-97245782D01*
X176083761Y-97016254D01*
X176166250Y-96924706D01*
X176338492Y-96839231D01*
X176587262Y-96791308D01*
X176854798Y-96782218D01*
X177083340Y-96813241D01*
G37*
X177083340Y-96813241D02*
X177215125Y-96885658D01*
X177223408Y-96901266D01*
X177213334Y-97059593D01*
X177058227Y-97166090D01*
X176777877Y-97207761D01*
X176756483Y-97207917D01*
X176550752Y-97227616D01*
X176440586Y-97276537D01*
X176434750Y-97292584D01*
X176508875Y-97349806D01*
X176689849Y-97376912D01*
X176714901Y-97377250D01*
X176959644Y-97410725D01*
X177148817Y-97489686D01*
X177271902Y-97671401D01*
X177294345Y-97910259D01*
X177216145Y-98127223D01*
X177148817Y-98196147D01*
X176982540Y-98259644D01*
X176731870Y-98296693D01*
X176456071Y-98305997D01*
X176214402Y-98286255D01*
X176066126Y-98236168D01*
X176051457Y-98220208D01*
X176044132Y-98082709D01*
X176172282Y-97965114D01*
X176402084Y-97890682D01*
X176550950Y-97876745D01*
X176900416Y-97868240D01*
X176561750Y-97790238D01*
X176255538Y-97664170D01*
X176064238Y-97472219D01*
X176002197Y-97245782D01*
X176083761Y-97016254D01*
X176166250Y-96924706D01*
X176338492Y-96839231D01*
X176587262Y-96791308D01*
X176854798Y-96782218D01*
X177083340Y-96813241D01*
G36*
X175484662Y-96930299D02*
G01*
X175586116Y-97007588D01*
X175773935Y-97209578D01*
X175828571Y-97405502D01*
X175825446Y-97452088D01*
X175797552Y-97576393D01*
X175722561Y-97648428D01*
X175558755Y-97688816D01*
X175291750Y-97715917D01*
X175015140Y-97750216D01*
X174885720Y-97793056D01*
X174894395Y-97829721D01*
X175058657Y-97866953D01*
X175202207Y-97851706D01*
X175420756Y-97866335D01*
X175511699Y-97937564D01*
X175575420Y-98057509D01*
X175503477Y-98159672D01*
X175462871Y-98190745D01*
X175177445Y-98304058D01*
X174870708Y-98263582D01*
X174579348Y-98074619D01*
X174565570Y-98061096D01*
X174359779Y-97764707D01*
X174322601Y-97461780D01*
X174396631Y-97292584D01*
X174868416Y-97292584D01*
X174901838Y-97352248D01*
X175067566Y-97377172D01*
X175080083Y-97377250D01*
X175252186Y-97354705D01*
X175293996Y-97296613D01*
X175291750Y-97292584D01*
X175171978Y-97220718D01*
X175080083Y-97207917D01*
X174920088Y-97247958D01*
X174868416Y-97292584D01*
X174396631Y-97292584D01*
X174454034Y-97161390D01*
X174565570Y-97032071D01*
X174859933Y-96829466D01*
X175167266Y-96795519D01*
X175484662Y-96930299D01*
G37*
X175484662Y-96930299D02*
X175586116Y-97007588D01*
X175773935Y-97209578D01*
X175828571Y-97405502D01*
X175825446Y-97452088D01*
X175797552Y-97576393D01*
X175722561Y-97648428D01*
X175558755Y-97688816D01*
X175291750Y-97715917D01*
X175015140Y-97750216D01*
X174885720Y-97793056D01*
X174894395Y-97829721D01*
X175058657Y-97866953D01*
X175202207Y-97851706D01*
X175420756Y-97866335D01*
X175511699Y-97937564D01*
X175575420Y-98057509D01*
X175503477Y-98159672D01*
X175462871Y-98190745D01*
X175177445Y-98304058D01*
X174870708Y-98263582D01*
X174579348Y-98074619D01*
X174565570Y-98061096D01*
X174359779Y-97764707D01*
X174322601Y-97461780D01*
X174396631Y-97292584D01*
X174868416Y-97292584D01*
X174901838Y-97352248D01*
X175067566Y-97377172D01*
X175080083Y-97377250D01*
X175252186Y-97354705D01*
X175293996Y-97296613D01*
X175291750Y-97292584D01*
X175171978Y-97220718D01*
X175080083Y-97207917D01*
X174920088Y-97247958D01*
X174868416Y-97292584D01*
X174396631Y-97292584D01*
X174454034Y-97161390D01*
X174565570Y-97032071D01*
X174859933Y-96829466D01*
X175167266Y-96795519D01*
X175484662Y-96930299D01*
G36*
X173525359Y-96291276D02*
G01*
X173733813Y-96348006D01*
X173904434Y-96465754D01*
X173924720Y-96484207D01*
X174043888Y-96612028D01*
X174111427Y-96752289D01*
X174141619Y-96956516D01*
X174148742Y-97276236D01*
X174148750Y-97292584D01*
X174142268Y-97618147D01*
X174113305Y-97826103D01*
X174047580Y-97967976D01*
X173930813Y-98095293D01*
X173924720Y-98100960D01*
X173752658Y-98227802D01*
X173549510Y-98290547D01*
X173249657Y-98308503D01*
X173219164Y-98308584D01*
X172946998Y-98299363D01*
X172748299Y-98275562D01*
X172681194Y-98252139D01*
X172656057Y-98146110D01*
X172638417Y-97915320D01*
X172628397Y-97604182D01*
X172626351Y-97292584D01*
X173048083Y-97292584D01*
X173050546Y-97602067D01*
X173067790Y-97779168D01*
X173114596Y-97860840D01*
X173205743Y-97884032D01*
X173285149Y-97885250D01*
X173496699Y-97850941D01*
X173623816Y-97783650D01*
X173685355Y-97642011D01*
X173721456Y-97404035D01*
X173725416Y-97292583D01*
X173694324Y-96970414D01*
X173588692Y-96783101D01*
X173389990Y-96705700D01*
X173285149Y-96699917D01*
X173161356Y-96706075D01*
X173090516Y-96749186D01*
X173057847Y-96866199D01*
X173048570Y-97094067D01*
X173048083Y-97292584D01*
X172626351Y-97292584D01*
X172626118Y-97257109D01*
X172631701Y-96918513D01*
X172645270Y-96632806D01*
X172666945Y-96444400D01*
X172676141Y-96410508D01*
X172756468Y-96328633D01*
X172939894Y-96286894D01*
X173214111Y-96276584D01*
X173525359Y-96291276D01*
G37*
X173525359Y-96291276D02*
X173733813Y-96348006D01*
X173904434Y-96465754D01*
X173924720Y-96484207D01*
X174043888Y-96612028D01*
X174111427Y-96752289D01*
X174141619Y-96956516D01*
X174148742Y-97276236D01*
X174148750Y-97292584D01*
X174142268Y-97618147D01*
X174113305Y-97826103D01*
X174047580Y-97967976D01*
X173930813Y-98095293D01*
X173924720Y-98100960D01*
X173752658Y-98227802D01*
X173549510Y-98290547D01*
X173249657Y-98308503D01*
X173219164Y-98308584D01*
X172946998Y-98299363D01*
X172748299Y-98275562D01*
X172681194Y-98252139D01*
X172656057Y-98146110D01*
X172638417Y-97915320D01*
X172628397Y-97604182D01*
X172626351Y-97292584D01*
X173048083Y-97292584D01*
X173050546Y-97602067D01*
X173067790Y-97779168D01*
X173114596Y-97860840D01*
X173205743Y-97884032D01*
X173285149Y-97885250D01*
X173496699Y-97850941D01*
X173623816Y-97783650D01*
X173685355Y-97642011D01*
X173721456Y-97404035D01*
X173725416Y-97292583D01*
X173694324Y-96970414D01*
X173588692Y-96783101D01*
X173389990Y-96705700D01*
X173285149Y-96699917D01*
X173161356Y-96706075D01*
X173090516Y-96749186D01*
X173057847Y-96866199D01*
X173048570Y-97094067D01*
X173048083Y-97292584D01*
X172626351Y-97292584D01*
X172626118Y-97257109D01*
X172631701Y-96918513D01*
X172645270Y-96632806D01*
X172666945Y-96444400D01*
X172676141Y-96410508D01*
X172756468Y-96328633D01*
X172939894Y-96286894D01*
X173214111Y-96276584D01*
X173525359Y-96291276D01*
G36*
X193575785Y-96924783D02*
G01*
X193551828Y-97178438D01*
X193495787Y-97375132D01*
X193424048Y-97625725D01*
X193393612Y-97806403D01*
X193401918Y-97862640D01*
X193504529Y-97864141D01*
X193667480Y-97798944D01*
X193835091Y-97731892D01*
X193961668Y-97773453D01*
X194064231Y-97866435D01*
X194185432Y-98021563D01*
X194184277Y-98163826D01*
X194150326Y-98242147D01*
X194063122Y-98463306D01*
X194027642Y-98603945D01*
X193943845Y-98750685D01*
X193798395Y-98808848D01*
X193681454Y-98763066D01*
X193634541Y-98639325D01*
X193622083Y-98506139D01*
X193601288Y-98378813D01*
X193507683Y-98322002D01*
X193294435Y-98308600D01*
X193280759Y-98308584D01*
X193025073Y-98279351D01*
X192897624Y-98198496D01*
X192894396Y-98191215D01*
X192892955Y-98042453D01*
X192941854Y-97795884D01*
X193025023Y-97501159D01*
X193126396Y-97207930D01*
X193229902Y-96965850D01*
X193319474Y-96824571D01*
X193341689Y-96809085D01*
X193505057Y-96799160D01*
X193575785Y-96924783D01*
G37*
X193575785Y-96924783D02*
X193551828Y-97178438D01*
X193495787Y-97375132D01*
X193424048Y-97625725D01*
X193393612Y-97806403D01*
X193401918Y-97862640D01*
X193504529Y-97864141D01*
X193667480Y-97798944D01*
X193835091Y-97731892D01*
X193961668Y-97773453D01*
X194064231Y-97866435D01*
X194185432Y-98021563D01*
X194184277Y-98163826D01*
X194150326Y-98242147D01*
X194063122Y-98463306D01*
X194027642Y-98603945D01*
X193943845Y-98750685D01*
X193798395Y-98808848D01*
X193681454Y-98763066D01*
X193634541Y-98639325D01*
X193622083Y-98506139D01*
X193601288Y-98378813D01*
X193507683Y-98322002D01*
X193294435Y-98308600D01*
X193280759Y-98308584D01*
X193025073Y-98279351D01*
X192897624Y-98198496D01*
X192894396Y-98191215D01*
X192892955Y-98042453D01*
X192941854Y-97795884D01*
X193025023Y-97501159D01*
X193126396Y-97207930D01*
X193229902Y-96965850D01*
X193319474Y-96824571D01*
X193341689Y-96809085D01*
X193505057Y-96799160D01*
X193575785Y-96924783D01*
G36*
X188657208Y-96837253D02*
G01*
X188705508Y-96887373D01*
X188734308Y-97005939D01*
X188748599Y-97221618D01*
X188753372Y-97563073D01*
X188753750Y-97799424D01*
X188750613Y-98225282D01*
X188738620Y-98510044D01*
X188713893Y-98681871D01*
X188672556Y-98768927D01*
X188616236Y-98798414D01*
X188473170Y-98754455D01*
X188425736Y-98686815D01*
X188377665Y-98477119D01*
X188372750Y-98403327D01*
X188338162Y-98307135D01*
X188206106Y-98281924D01*
X188078879Y-98292227D01*
X187856317Y-98289677D01*
X187671795Y-98198711D01*
X187524254Y-98065780D01*
X187375418Y-97900351D01*
X187301388Y-97746328D01*
X187281440Y-97537669D01*
X187288958Y-97315972D01*
X187310996Y-97037510D01*
X187350305Y-96889492D01*
X187422371Y-96833033D01*
X187483750Y-96826917D01*
X187585556Y-96852374D01*
X187646334Y-96954949D01*
X187684286Y-97173946D01*
X187695416Y-97283973D01*
X187770710Y-97642438D01*
X187898051Y-97851380D01*
X188050009Y-97910800D01*
X188199152Y-97820698D01*
X188318049Y-97581073D01*
X188372750Y-97283973D01*
X188407043Y-97015547D01*
X188457865Y-96877141D01*
X188543418Y-96829451D01*
X188584416Y-96826917D01*
X188657208Y-96837253D01*
G37*
X188657208Y-96837253D02*
X188705508Y-96887373D01*
X188734308Y-97005939D01*
X188748599Y-97221618D01*
X188753372Y-97563073D01*
X188753750Y-97799424D01*
X188750613Y-98225282D01*
X188738620Y-98510044D01*
X188713893Y-98681871D01*
X188672556Y-98768927D01*
X188616236Y-98798414D01*
X188473170Y-98754455D01*
X188425736Y-98686815D01*
X188377665Y-98477119D01*
X188372750Y-98403327D01*
X188338162Y-98307135D01*
X188206106Y-98281924D01*
X188078879Y-98292227D01*
X187856317Y-98289677D01*
X187671795Y-98198711D01*
X187524254Y-98065780D01*
X187375418Y-97900351D01*
X187301388Y-97746328D01*
X187281440Y-97537669D01*
X187288958Y-97315972D01*
X187310996Y-97037510D01*
X187350305Y-96889492D01*
X187422371Y-96833033D01*
X187483750Y-96826917D01*
X187585556Y-96852374D01*
X187646334Y-96954949D01*
X187684286Y-97173946D01*
X187695416Y-97283973D01*
X187770710Y-97642438D01*
X187898051Y-97851380D01*
X188050009Y-97910800D01*
X188199152Y-97820698D01*
X188318049Y-97581073D01*
X188372750Y-97283973D01*
X188407043Y-97015547D01*
X188457865Y-96877141D01*
X188543418Y-96829451D01*
X188584416Y-96826917D01*
X188657208Y-96837253D01*
G36*
X179259632Y-96904229D02*
G01*
X179363180Y-96981166D01*
X179480662Y-97097810D01*
X179551522Y-97229093D01*
X179589531Y-97422189D01*
X179608457Y-97724275D01*
X179612198Y-97834392D01*
X179616730Y-98182039D01*
X179597965Y-98408111D01*
X179547046Y-98559748D01*
X179455116Y-98684093D01*
X179451879Y-98687626D01*
X179265245Y-98819579D01*
X179015254Y-98911226D01*
X178754788Y-98954224D01*
X178536731Y-98940225D01*
X178413964Y-98860885D01*
X178410059Y-98852033D01*
X178417237Y-98681152D01*
X178587205Y-98556035D01*
X178857658Y-98486149D01*
X179097076Y-98424449D01*
X179196688Y-98355201D01*
X179151842Y-98302100D01*
X178957889Y-98288844D01*
X178895458Y-98293560D01*
X178554614Y-98254529D01*
X178300124Y-98080348D01*
X178155302Y-97793032D01*
X178141084Y-97664663D01*
X178559712Y-97664663D01*
X178623696Y-97807745D01*
X178657250Y-97829177D01*
X178917662Y-97873522D01*
X179104229Y-97774944D01*
X179144083Y-97715917D01*
X179187988Y-97503790D01*
X179113440Y-97328539D01*
X178962567Y-97225029D01*
X178777499Y-97228126D01*
X178653016Y-97309517D01*
X178569269Y-97472083D01*
X178559712Y-97664663D01*
X178141084Y-97664663D01*
X178130776Y-97571599D01*
X178202321Y-97225081D01*
X178386689Y-96967978D01*
X178648171Y-96817395D01*
X178951055Y-96790443D01*
X179259632Y-96904229D01*
G37*
X179259632Y-96904229D02*
X179363180Y-96981166D01*
X179480662Y-97097810D01*
X179551522Y-97229093D01*
X179589531Y-97422189D01*
X179608457Y-97724275D01*
X179612198Y-97834392D01*
X179616730Y-98182039D01*
X179597965Y-98408111D01*
X179547046Y-98559748D01*
X179455116Y-98684093D01*
X179451879Y-98687626D01*
X179265245Y-98819579D01*
X179015254Y-98911226D01*
X178754788Y-98954224D01*
X178536731Y-98940225D01*
X178413964Y-98860885D01*
X178410059Y-98852033D01*
X178417237Y-98681152D01*
X178587205Y-98556035D01*
X178857658Y-98486149D01*
X179097076Y-98424449D01*
X179196688Y-98355201D01*
X179151842Y-98302100D01*
X178957889Y-98288844D01*
X178895458Y-98293560D01*
X178554614Y-98254529D01*
X178300124Y-98080348D01*
X178155302Y-97793032D01*
X178141084Y-97664663D01*
X178559712Y-97664663D01*
X178623696Y-97807745D01*
X178657250Y-97829177D01*
X178917662Y-97873522D01*
X179104229Y-97774944D01*
X179144083Y-97715917D01*
X179187988Y-97503790D01*
X179113440Y-97328539D01*
X178962567Y-97225029D01*
X178777499Y-97228126D01*
X178653016Y-97309517D01*
X178569269Y-97472083D01*
X178559712Y-97664663D01*
X178141084Y-97664663D01*
X178130776Y-97571599D01*
X178202321Y-97225081D01*
X178386689Y-96967978D01*
X178648171Y-96817395D01*
X178951055Y-96790443D01*
X179259632Y-96904229D01*
G04 #@! TD*
D11*
G04 #@! TO.P,D15,2*
G04 #@! TO.N,Net-(D15-Pad2)*
X282506250Y-11906200D03*
D12*
G04 #@! TO.P,D15,1*
G04 #@! TO.N,Net-(D10-Pad1)*
X274706250Y-11906200D03*
D13*
G04 #@! TO.P,D15,2*
G04 #@! TO.N,Net-(D15-Pad2)*
X281306250Y-11906200D03*
D14*
X280181250Y-11906200D03*
G04 #@! TO.P,D15,1*
G04 #@! TO.N,Net-(D10-Pad1)*
X277031250Y-11906200D03*
D13*
X275906250Y-11906200D03*
G04 #@! TD*
D15*
G04 #@! TO.P,J1,1*
G04 #@! TO.N,Net-(J1-Pad1)*
X170142000Y-6946900D03*
D16*
G04 #@! TO.P,J1,2*
G04 #@! TO.N,Net-(J1-Pad2)*
X172682000Y-6946900D03*
G04 #@! TO.P,J1,3*
G04 #@! TO.N,Net-(J1-Pad3)*
X175222000Y-6946900D03*
G04 #@! TO.P,J1,4*
G04 #@! TO.N,Net-(J1-Pad4)*
X177762000Y-6946900D03*
G04 #@! TD*
D13*
G04 #@! TO.P,D1,1*
G04 #@! TO.N,Net-(D1-Pad1)*
X18731200Y-11906200D03*
D14*
X19856200Y-11906200D03*
G04 #@! TO.P,D1,2*
G04 #@! TO.N,Net-(D1-Pad2)*
X23006200Y-11906200D03*
D13*
X24131200Y-11906200D03*
D12*
G04 #@! TO.P,D1,1*
G04 #@! TO.N,Net-(D1-Pad1)*
X17531200Y-11906200D03*
D11*
G04 #@! TO.P,D1,2*
G04 #@! TO.N,Net-(D1-Pad2)*
X25331200Y-11906200D03*
G04 #@! TD*
D13*
G04 #@! TO.P,D2,1*
G04 #@! TO.N,Net-(D1-Pad1)*
X37781200Y-11906200D03*
D14*
X38906200Y-11906200D03*
G04 #@! TO.P,D2,2*
G04 #@! TO.N,Net-(D2-Pad2)*
X42056200Y-11906200D03*
D13*
X43181200Y-11906200D03*
D12*
G04 #@! TO.P,D2,1*
G04 #@! TO.N,Net-(D1-Pad1)*
X36581200Y-11906200D03*
D11*
G04 #@! TO.P,D2,2*
G04 #@! TO.N,Net-(D2-Pad2)*
X44381200Y-11906200D03*
G04 #@! TD*
D13*
G04 #@! TO.P,D3,1*
G04 #@! TO.N,Net-(D1-Pad1)*
X56831200Y-11906200D03*
D14*
X57956200Y-11906200D03*
G04 #@! TO.P,D3,2*
G04 #@! TO.N,Net-(D3-Pad2)*
X61106200Y-11906200D03*
D13*
X62231200Y-11906200D03*
D12*
G04 #@! TO.P,D3,1*
G04 #@! TO.N,Net-(D1-Pad1)*
X55631200Y-11906200D03*
D11*
G04 #@! TO.P,D3,2*
G04 #@! TO.N,Net-(D3-Pad2)*
X63431200Y-11906200D03*
G04 #@! TD*
D13*
G04 #@! TO.P,D4,1*
G04 #@! TO.N,Net-(D1-Pad1)*
X75881200Y-11906200D03*
D14*
X77006200Y-11906200D03*
G04 #@! TO.P,D4,2*
G04 #@! TO.N,Net-(D4-Pad2)*
X80156200Y-11906200D03*
D13*
X81281200Y-11906200D03*
D12*
G04 #@! TO.P,D4,1*
G04 #@! TO.N,Net-(D1-Pad1)*
X74681200Y-11906200D03*
D11*
G04 #@! TO.P,D4,2*
G04 #@! TO.N,Net-(D4-Pad2)*
X82481200Y-11906200D03*
G04 #@! TD*
D13*
G04 #@! TO.P,D5,1*
G04 #@! TO.N,Net-(D1-Pad1)*
X94931200Y-11906200D03*
D14*
X96056200Y-11906200D03*
G04 #@! TO.P,D5,2*
G04 #@! TO.N,Net-(D5-Pad2)*
X99206200Y-11906200D03*
D13*
X100331200Y-11906200D03*
D12*
G04 #@! TO.P,D5,1*
G04 #@! TO.N,Net-(D1-Pad1)*
X93731200Y-11906200D03*
D11*
G04 #@! TO.P,D5,2*
G04 #@! TO.N,Net-(D5-Pad2)*
X101531200Y-11906200D03*
G04 #@! TD*
G04 #@! TO.P,D6,2*
G04 #@! TO.N,Net-(D6-Pad2)*
X120581000Y-11906200D03*
D12*
G04 #@! TO.P,D6,1*
G04 #@! TO.N,Net-(D1-Pad1)*
X112781000Y-11906200D03*
D13*
G04 #@! TO.P,D6,2*
G04 #@! TO.N,Net-(D6-Pad2)*
X119381000Y-11906200D03*
D14*
X118256000Y-11906200D03*
G04 #@! TO.P,D6,1*
G04 #@! TO.N,Net-(D1-Pad1)*
X115106000Y-11906200D03*
D13*
X113981000Y-11906200D03*
G04 #@! TD*
D11*
G04 #@! TO.P,D7,2*
G04 #@! TO.N,Net-(D7-Pad2)*
X139631000Y-11906200D03*
D12*
G04 #@! TO.P,D7,1*
G04 #@! TO.N,Net-(D1-Pad1)*
X131831000Y-11906200D03*
D13*
G04 #@! TO.P,D7,2*
G04 #@! TO.N,Net-(D7-Pad2)*
X138431000Y-11906200D03*
D14*
X137306000Y-11906200D03*
G04 #@! TO.P,D7,1*
G04 #@! TO.N,Net-(D1-Pad1)*
X134156000Y-11906200D03*
D13*
X133031000Y-11906200D03*
G04 #@! TD*
D11*
G04 #@! TO.P,D8,2*
G04 #@! TO.N,Net-(D8-Pad2)*
X158681000Y-11906200D03*
D12*
G04 #@! TO.P,D8,1*
G04 #@! TO.N,Net-(D1-Pad1)*
X150881000Y-11906200D03*
D13*
G04 #@! TO.P,D8,2*
G04 #@! TO.N,Net-(D8-Pad2)*
X157481000Y-11906200D03*
D14*
X156356000Y-11906200D03*
G04 #@! TO.P,D8,1*
G04 #@! TO.N,Net-(D1-Pad1)*
X153206000Y-11906200D03*
D13*
X152081000Y-11906200D03*
G04 #@! TD*
G04 #@! TO.P,D9,1*
G04 #@! TO.N,Net-(D1-Pad1)*
X171131000Y-11906200D03*
D14*
X172256000Y-11906200D03*
G04 #@! TO.P,D9,2*
G04 #@! TO.N,Net-(D9-Pad2)*
X175406000Y-11906200D03*
D13*
X176531000Y-11906200D03*
D12*
G04 #@! TO.P,D9,1*
G04 #@! TO.N,Net-(D1-Pad1)*
X169931000Y-11906200D03*
D11*
G04 #@! TO.P,D9,2*
G04 #@! TO.N,Net-(D9-Pad2)*
X177731000Y-11906200D03*
G04 #@! TD*
D13*
G04 #@! TO.P,D10,1*
G04 #@! TO.N,Net-(D10-Pad1)*
X190181000Y-11906200D03*
D14*
X191306000Y-11906200D03*
G04 #@! TO.P,D10,2*
G04 #@! TO.N,Net-(D10-Pad2)*
X194456000Y-11906200D03*
D13*
X195581000Y-11906200D03*
D12*
G04 #@! TO.P,D10,1*
G04 #@! TO.N,Net-(D10-Pad1)*
X188981000Y-11906200D03*
D11*
G04 #@! TO.P,D10,2*
G04 #@! TO.N,Net-(D10-Pad2)*
X196781000Y-11906200D03*
G04 #@! TD*
D13*
G04 #@! TO.P,D11,1*
G04 #@! TO.N,Net-(D10-Pad1)*
X209231000Y-11906200D03*
D14*
X210356000Y-11906200D03*
G04 #@! TO.P,D11,2*
G04 #@! TO.N,Net-(D11-Pad2)*
X213506000Y-11906200D03*
D13*
X214631000Y-11906200D03*
D12*
G04 #@! TO.P,D11,1*
G04 #@! TO.N,Net-(D10-Pad1)*
X208031000Y-11906200D03*
D11*
G04 #@! TO.P,D11,2*
G04 #@! TO.N,Net-(D11-Pad2)*
X215831000Y-11906200D03*
G04 #@! TD*
D13*
G04 #@! TO.P,D12,1*
G04 #@! TO.N,Net-(D10-Pad1)*
X228281000Y-11906200D03*
D14*
X229406000Y-11906200D03*
G04 #@! TO.P,D12,2*
G04 #@! TO.N,Net-(D12-Pad2)*
X232556000Y-11906200D03*
D13*
X233681000Y-11906200D03*
D12*
G04 #@! TO.P,D12,1*
G04 #@! TO.N,Net-(D10-Pad1)*
X227081000Y-11906200D03*
D11*
G04 #@! TO.P,D12,2*
G04 #@! TO.N,Net-(D12-Pad2)*
X234881000Y-11906200D03*
G04 #@! TD*
D13*
G04 #@! TO.P,D13,1*
G04 #@! TO.N,Net-(D10-Pad1)*
X247331000Y-11906200D03*
D14*
X248456000Y-11906200D03*
G04 #@! TO.P,D13,2*
G04 #@! TO.N,Net-(D13-Pad2)*
X251606000Y-11906200D03*
D13*
X252731000Y-11906200D03*
D12*
G04 #@! TO.P,D13,1*
G04 #@! TO.N,Net-(D10-Pad1)*
X246131000Y-11906200D03*
D11*
G04 #@! TO.P,D13,2*
G04 #@! TO.N,Net-(D13-Pad2)*
X253931000Y-11906200D03*
G04 #@! TD*
D13*
G04 #@! TO.P,D14,1*
G04 #@! TO.N,Net-(D10-Pad1)*
X264000000Y-9525000D03*
D14*
X265125000Y-9525000D03*
G04 #@! TO.P,D14,2*
G04 #@! TO.N,Net-(D14-Pad2)*
X268275000Y-9525000D03*
D13*
X269400000Y-9525000D03*
D12*
G04 #@! TO.P,D14,1*
G04 #@! TO.N,Net-(D10-Pad1)*
X262800000Y-9525000D03*
D11*
G04 #@! TO.P,D14,2*
G04 #@! TO.N,Net-(D14-Pad2)*
X270600000Y-9525000D03*
G04 #@! TD*
G04 #@! TO.P,D16,2*
G04 #@! TO.N,Net-(D16-Pad2)*
X294412500Y-9525000D03*
D12*
G04 #@! TO.P,D16,1*
G04 #@! TO.N,Net-(D10-Pad1)*
X286612500Y-9525000D03*
D13*
G04 #@! TO.P,D16,2*
G04 #@! TO.N,Net-(D16-Pad2)*
X293212500Y-9525000D03*
D14*
X292087500Y-9525000D03*
G04 #@! TO.P,D16,1*
G04 #@! TO.N,Net-(D10-Pad1)*
X288937500Y-9525000D03*
D13*
X287812500Y-9525000D03*
G04 #@! TD*
D11*
G04 #@! TO.P,D17,2*
G04 #@! TO.N,Net-(D17-Pad2)*
X30093800Y-30956200D03*
D12*
G04 #@! TO.P,D17,1*
G04 #@! TO.N,Net-(D10-Pad1)*
X22293800Y-30956200D03*
D13*
G04 #@! TO.P,D17,2*
G04 #@! TO.N,Net-(D17-Pad2)*
X28893800Y-30956200D03*
D14*
X27768800Y-30956200D03*
G04 #@! TO.P,D17,1*
G04 #@! TO.N,Net-(D10-Pad1)*
X24618800Y-30956200D03*
D13*
X23493800Y-30956200D03*
G04 #@! TD*
D11*
G04 #@! TO.P,D18,2*
G04 #@! TO.N,Net-(D18-Pad2)*
X53906200Y-30956200D03*
D12*
G04 #@! TO.P,D18,1*
G04 #@! TO.N,Net-(D10-Pad1)*
X46106200Y-30956200D03*
D13*
G04 #@! TO.P,D18,2*
G04 #@! TO.N,Net-(D18-Pad2)*
X52706200Y-30956200D03*
D14*
X51581200Y-30956200D03*
G04 #@! TO.P,D18,1*
G04 #@! TO.N,Net-(D10-Pad1)*
X48431200Y-30956200D03*
D13*
X47306200Y-30956200D03*
G04 #@! TD*
D11*
G04 #@! TO.P,D19,2*
G04 #@! TO.N,Net-(D19-Pad2)*
X72956200Y-30956200D03*
D12*
G04 #@! TO.P,D19,1*
G04 #@! TO.N,Net-(D19-Pad1)*
X65156200Y-30956200D03*
D13*
G04 #@! TO.P,D19,2*
G04 #@! TO.N,Net-(D19-Pad2)*
X71756200Y-30956200D03*
D14*
X70631200Y-30956200D03*
G04 #@! TO.P,D19,1*
G04 #@! TO.N,Net-(D19-Pad1)*
X67481200Y-30956200D03*
D13*
X66356200Y-30956200D03*
G04 #@! TD*
D11*
G04 #@! TO.P,D20,2*
G04 #@! TO.N,Net-(D20-Pad2)*
X92006200Y-30956200D03*
D12*
G04 #@! TO.P,D20,1*
G04 #@! TO.N,Net-(D19-Pad1)*
X84206200Y-30956200D03*
D13*
G04 #@! TO.P,D20,2*
G04 #@! TO.N,Net-(D20-Pad2)*
X90806200Y-30956200D03*
D14*
X89681200Y-30956200D03*
G04 #@! TO.P,D20,1*
G04 #@! TO.N,Net-(D19-Pad1)*
X86531200Y-30956200D03*
D13*
X85406200Y-30956200D03*
G04 #@! TD*
D11*
G04 #@! TO.P,D21,2*
G04 #@! TO.N,Net-(D21-Pad2)*
X111056000Y-30956200D03*
D12*
G04 #@! TO.P,D21,1*
G04 #@! TO.N,Net-(D19-Pad1)*
X103256000Y-30956200D03*
D13*
G04 #@! TO.P,D21,2*
G04 #@! TO.N,Net-(D21-Pad2)*
X109856000Y-30956200D03*
D14*
X108731000Y-30956200D03*
G04 #@! TO.P,D21,1*
G04 #@! TO.N,Net-(D19-Pad1)*
X105581000Y-30956200D03*
D13*
X104456000Y-30956200D03*
G04 #@! TD*
D11*
G04 #@! TO.P,D22,2*
G04 #@! TO.N,Net-(D22-Pad2)*
X130106000Y-30956200D03*
D12*
G04 #@! TO.P,D22,1*
G04 #@! TO.N,Net-(D19-Pad1)*
X122306000Y-30956200D03*
D13*
G04 #@! TO.P,D22,2*
G04 #@! TO.N,Net-(D22-Pad2)*
X128906000Y-30956200D03*
D14*
X127781000Y-30956200D03*
G04 #@! TO.P,D22,1*
G04 #@! TO.N,Net-(D19-Pad1)*
X124631000Y-30956200D03*
D13*
X123506000Y-30956200D03*
G04 #@! TD*
G04 #@! TO.P,D23,1*
G04 #@! TO.N,Net-(D19-Pad1)*
X137794000Y-30956200D03*
D14*
X138919000Y-30956200D03*
G04 #@! TO.P,D23,2*
G04 #@! TO.N,Net-(D23-Pad2)*
X142069000Y-30956200D03*
D13*
X143194000Y-30956200D03*
D12*
G04 #@! TO.P,D23,1*
G04 #@! TO.N,Net-(D19-Pad1)*
X136594000Y-30956200D03*
D11*
G04 #@! TO.P,D23,2*
G04 #@! TO.N,Net-(D23-Pad2)*
X144394000Y-30956200D03*
G04 #@! TD*
D13*
G04 #@! TO.P,D24,1*
G04 #@! TO.N,Net-(D19-Pad1)*
X166369000Y-30956200D03*
D14*
X167494000Y-30956200D03*
G04 #@! TO.P,D24,2*
G04 #@! TO.N,Net-(D24-Pad2)*
X170644000Y-30956200D03*
D13*
X171769000Y-30956200D03*
D12*
G04 #@! TO.P,D24,1*
G04 #@! TO.N,Net-(D19-Pad1)*
X165169000Y-30956200D03*
D11*
G04 #@! TO.P,D24,2*
G04 #@! TO.N,Net-(D24-Pad2)*
X172969000Y-30956200D03*
G04 #@! TD*
D13*
G04 #@! TO.P,D25,1*
G04 #@! TO.N,Net-(D19-Pad1)*
X180656000Y-30956200D03*
D14*
X181781000Y-30956200D03*
G04 #@! TO.P,D25,2*
G04 #@! TO.N,Net-(D25-Pad2)*
X184931000Y-30956200D03*
D13*
X186056000Y-30956200D03*
D12*
G04 #@! TO.P,D25,1*
G04 #@! TO.N,Net-(D19-Pad1)*
X179456000Y-30956200D03*
D11*
G04 #@! TO.P,D25,2*
G04 #@! TO.N,Net-(D25-Pad2)*
X187256000Y-30956200D03*
G04 #@! TD*
D13*
G04 #@! TO.P,D26,1*
G04 #@! TO.N,Net-(D19-Pad1)*
X199706000Y-30956200D03*
D14*
X200831000Y-30956200D03*
G04 #@! TO.P,D26,2*
G04 #@! TO.N,Net-(D26-Pad2)*
X203981000Y-30956200D03*
D13*
X205106000Y-30956200D03*
D12*
G04 #@! TO.P,D26,1*
G04 #@! TO.N,Net-(D19-Pad1)*
X198506000Y-30956200D03*
D11*
G04 #@! TO.P,D26,2*
G04 #@! TO.N,Net-(D26-Pad2)*
X206306000Y-30956200D03*
G04 #@! TD*
D13*
G04 #@! TO.P,D27,1*
G04 #@! TO.N,Net-(D19-Pad1)*
X218756000Y-30956200D03*
D14*
X219881000Y-30956200D03*
G04 #@! TO.P,D27,2*
G04 #@! TO.N,Net-(D27-Pad2)*
X223031000Y-30956200D03*
D13*
X224156000Y-30956200D03*
D12*
G04 #@! TO.P,D27,1*
G04 #@! TO.N,Net-(D19-Pad1)*
X217556000Y-30956200D03*
D11*
G04 #@! TO.P,D27,2*
G04 #@! TO.N,Net-(D27-Pad2)*
X225356000Y-30956200D03*
G04 #@! TD*
D13*
G04 #@! TO.P,D28,1*
G04 #@! TO.N,Net-(D28-Pad1)*
X237806000Y-30956200D03*
D14*
X238931000Y-30956200D03*
G04 #@! TO.P,D28,2*
G04 #@! TO.N,Net-(D28-Pad2)*
X242081000Y-30956200D03*
D13*
X243206000Y-30956200D03*
D12*
G04 #@! TO.P,D28,1*
G04 #@! TO.N,Net-(D28-Pad1)*
X236606000Y-30956200D03*
D11*
G04 #@! TO.P,D28,2*
G04 #@! TO.N,Net-(D28-Pad2)*
X244406000Y-30956200D03*
G04 #@! TD*
D13*
G04 #@! TO.P,D29,1*
G04 #@! TO.N,Net-(D28-Pad1)*
X256856000Y-30956200D03*
D14*
X257981000Y-30956200D03*
G04 #@! TO.P,D29,2*
G04 #@! TO.N,Net-(D29-Pad2)*
X261131000Y-30956200D03*
D13*
X262256000Y-30956200D03*
D12*
G04 #@! TO.P,D29,1*
G04 #@! TO.N,Net-(D28-Pad1)*
X255656000Y-30956200D03*
D11*
G04 #@! TO.P,D29,2*
G04 #@! TO.N,Net-(D29-Pad2)*
X263456000Y-30956200D03*
G04 #@! TD*
G04 #@! TO.P,D30,2*
G04 #@! TO.N,Net-(D30-Pad2)*
X287269000Y-30956200D03*
D12*
G04 #@! TO.P,D30,1*
G04 #@! TO.N,Net-(D28-Pad1)*
X279469000Y-30956200D03*
D13*
G04 #@! TO.P,D30,2*
G04 #@! TO.N,Net-(D30-Pad2)*
X286069000Y-30956200D03*
D14*
X284944000Y-30956200D03*
G04 #@! TO.P,D30,1*
G04 #@! TO.N,Net-(D28-Pad1)*
X281794000Y-30956200D03*
D13*
X280669000Y-30956200D03*
G04 #@! TD*
D11*
G04 #@! TO.P,D31,2*
G04 #@! TO.N,Net-(D31-Pad2)*
X32475000Y-50006200D03*
D12*
G04 #@! TO.P,D31,1*
G04 #@! TO.N,Net-(D28-Pad1)*
X24675000Y-50006200D03*
D13*
G04 #@! TO.P,D31,2*
G04 #@! TO.N,Net-(D31-Pad2)*
X31275000Y-50006200D03*
D14*
X30150000Y-50006200D03*
G04 #@! TO.P,D31,1*
G04 #@! TO.N,Net-(D28-Pad1)*
X27000000Y-50006200D03*
D13*
X25875000Y-50006200D03*
G04 #@! TD*
G04 #@! TO.P,D32,1*
G04 #@! TO.N,Net-(D28-Pad1)*
X52068800Y-50006200D03*
D14*
X53193800Y-50006200D03*
G04 #@! TO.P,D32,2*
G04 #@! TO.N,Net-(D32-Pad2)*
X56343800Y-50006200D03*
D13*
X57468800Y-50006200D03*
D12*
G04 #@! TO.P,D32,1*
G04 #@! TO.N,Net-(D28-Pad1)*
X50868800Y-50006200D03*
D11*
G04 #@! TO.P,D32,2*
G04 #@! TO.N,Net-(D32-Pad2)*
X58668800Y-50006200D03*
G04 #@! TD*
D13*
G04 #@! TO.P,D33,1*
G04 #@! TO.N,Net-(D28-Pad1)*
X71118800Y-50006200D03*
D14*
X72243800Y-50006200D03*
G04 #@! TO.P,D33,2*
G04 #@! TO.N,Net-(D33-Pad2)*
X75393800Y-50006200D03*
D13*
X76518800Y-50006200D03*
D12*
G04 #@! TO.P,D33,1*
G04 #@! TO.N,Net-(D28-Pad1)*
X69918800Y-50006200D03*
D11*
G04 #@! TO.P,D33,2*
G04 #@! TO.N,Net-(D33-Pad2)*
X77718800Y-50006200D03*
G04 #@! TD*
G04 #@! TO.P,D34,2*
G04 #@! TO.N,Net-(D34-Pad2)*
X96768800Y-50006200D03*
D12*
G04 #@! TO.P,D34,1*
G04 #@! TO.N,Net-(D28-Pad1)*
X88968800Y-50006200D03*
D13*
G04 #@! TO.P,D34,2*
G04 #@! TO.N,Net-(D34-Pad2)*
X95568800Y-50006200D03*
D14*
X94443800Y-50006200D03*
G04 #@! TO.P,D34,1*
G04 #@! TO.N,Net-(D28-Pad1)*
X91293800Y-50006200D03*
D13*
X90168800Y-50006200D03*
G04 #@! TD*
D11*
G04 #@! TO.P,D35,2*
G04 #@! TO.N,Net-(D35-Pad2)*
X115819000Y-50006200D03*
D12*
G04 #@! TO.P,D35,1*
G04 #@! TO.N,Net-(D28-Pad1)*
X108019000Y-50006200D03*
D13*
G04 #@! TO.P,D35,2*
G04 #@! TO.N,Net-(D35-Pad2)*
X114619000Y-50006200D03*
D14*
X113494000Y-50006200D03*
G04 #@! TO.P,D35,1*
G04 #@! TO.N,Net-(D28-Pad1)*
X110344000Y-50006200D03*
D13*
X109219000Y-50006200D03*
G04 #@! TD*
G04 #@! TO.P,D36,1*
G04 #@! TO.N,Net-(D28-Pad1)*
X128269000Y-50006200D03*
D14*
X129394000Y-50006200D03*
G04 #@! TO.P,D36,2*
G04 #@! TO.N,Net-(D36-Pad2)*
X132544000Y-50006200D03*
D13*
X133669000Y-50006200D03*
D12*
G04 #@! TO.P,D36,1*
G04 #@! TO.N,Net-(D28-Pad1)*
X127069000Y-50006200D03*
D11*
G04 #@! TO.P,D36,2*
G04 #@! TO.N,Net-(D36-Pad2)*
X134869000Y-50006200D03*
G04 #@! TD*
G04 #@! TO.P,D37,2*
G04 #@! TO.N,Net-(D37-Pad2)*
X153919000Y-50006200D03*
D12*
G04 #@! TO.P,D37,1*
G04 #@! TO.N,Net-(D37-Pad1)*
X146119000Y-50006200D03*
D13*
G04 #@! TO.P,D37,2*
G04 #@! TO.N,Net-(D37-Pad2)*
X152719000Y-50006200D03*
D14*
X151594000Y-50006200D03*
G04 #@! TO.P,D37,1*
G04 #@! TO.N,Net-(D37-Pad1)*
X148444000Y-50006200D03*
D13*
X147319000Y-50006200D03*
G04 #@! TD*
D11*
G04 #@! TO.P,D38,2*
G04 #@! TO.N,Net-(D38-Pad2)*
X172969000Y-50006200D03*
D12*
G04 #@! TO.P,D38,1*
G04 #@! TO.N,Net-(D37-Pad1)*
X165169000Y-50006200D03*
D13*
G04 #@! TO.P,D38,2*
G04 #@! TO.N,Net-(D38-Pad2)*
X171769000Y-50006200D03*
D14*
X170644000Y-50006200D03*
G04 #@! TO.P,D38,1*
G04 #@! TO.N,Net-(D37-Pad1)*
X167494000Y-50006200D03*
D13*
X166369000Y-50006200D03*
G04 #@! TD*
D11*
G04 #@! TO.P,D39,2*
G04 #@! TO.N,Net-(D39-Pad2)*
X192019000Y-50006200D03*
D12*
G04 #@! TO.P,D39,1*
G04 #@! TO.N,Net-(D37-Pad1)*
X184219000Y-50006200D03*
D13*
G04 #@! TO.P,D39,2*
G04 #@! TO.N,Net-(D39-Pad2)*
X190819000Y-50006200D03*
D14*
X189694000Y-50006200D03*
G04 #@! TO.P,D39,1*
G04 #@! TO.N,Net-(D37-Pad1)*
X186544000Y-50006200D03*
D13*
X185419000Y-50006200D03*
G04 #@! TD*
D11*
G04 #@! TO.P,D40,2*
G04 #@! TO.N,Net-(D40-Pad2)*
X211069000Y-50006200D03*
D12*
G04 #@! TO.P,D40,1*
G04 #@! TO.N,Net-(D37-Pad1)*
X203269000Y-50006200D03*
D13*
G04 #@! TO.P,D40,2*
G04 #@! TO.N,Net-(D40-Pad2)*
X209869000Y-50006200D03*
D14*
X208744000Y-50006200D03*
G04 #@! TO.P,D40,1*
G04 #@! TO.N,Net-(D37-Pad1)*
X205594000Y-50006200D03*
D13*
X204469000Y-50006200D03*
G04 #@! TD*
D11*
G04 #@! TO.P,D41,2*
G04 #@! TO.N,Net-(D41-Pad2)*
X230119000Y-50006200D03*
D12*
G04 #@! TO.P,D41,1*
G04 #@! TO.N,Net-(D37-Pad1)*
X222319000Y-50006200D03*
D13*
G04 #@! TO.P,D41,2*
G04 #@! TO.N,Net-(D41-Pad2)*
X228919000Y-50006200D03*
D14*
X227794000Y-50006200D03*
G04 #@! TO.P,D41,1*
G04 #@! TO.N,Net-(D37-Pad1)*
X224644000Y-50006200D03*
D13*
X223519000Y-50006200D03*
G04 #@! TD*
G04 #@! TO.P,D42,1*
G04 #@! TO.N,Net-(D37-Pad1)*
X242569000Y-50006200D03*
D14*
X243694000Y-50006200D03*
G04 #@! TO.P,D42,2*
G04 #@! TO.N,Net-(D42-Pad2)*
X246844000Y-50006200D03*
D13*
X247969000Y-50006200D03*
D12*
G04 #@! TO.P,D42,1*
G04 #@! TO.N,Net-(D37-Pad1)*
X241369000Y-50006200D03*
D11*
G04 #@! TO.P,D42,2*
G04 #@! TO.N,Net-(D42-Pad2)*
X249169000Y-50006200D03*
G04 #@! TD*
D13*
G04 #@! TO.P,D43,1*
G04 #@! TO.N,Net-(D37-Pad1)*
X261619000Y-50006200D03*
D14*
X262744000Y-50006200D03*
G04 #@! TO.P,D43,2*
G04 #@! TO.N,Net-(D43-Pad2)*
X265894000Y-50006200D03*
D13*
X267019000Y-50006200D03*
D12*
G04 #@! TO.P,D43,1*
G04 #@! TO.N,Net-(D37-Pad1)*
X260419000Y-50006200D03*
D11*
G04 #@! TO.P,D43,2*
G04 #@! TO.N,Net-(D43-Pad2)*
X268219000Y-50006200D03*
G04 #@! TD*
D13*
G04 #@! TO.P,D44,1*
G04 #@! TO.N,Net-(D37-Pad1)*
X273525000Y-50006200D03*
D14*
X274650000Y-50006200D03*
G04 #@! TO.P,D44,2*
G04 #@! TO.N,Net-(D44-Pad2)*
X277800000Y-50006200D03*
D13*
X278925000Y-50006200D03*
D12*
G04 #@! TO.P,D44,1*
G04 #@! TO.N,Net-(D37-Pad1)*
X272325000Y-50006200D03*
D11*
G04 #@! TO.P,D44,2*
G04 #@! TO.N,Net-(D44-Pad2)*
X280125000Y-50006200D03*
G04 #@! TD*
D13*
G04 #@! TO.P,D45,1*
G04 #@! TO.N,Net-(D37-Pad1)*
X30637500Y-69056200D03*
D14*
X31762500Y-69056200D03*
G04 #@! TO.P,D45,2*
G04 #@! TO.N,Net-(D45-Pad2)*
X34912500Y-69056200D03*
D13*
X36037500Y-69056200D03*
D12*
G04 #@! TO.P,D45,1*
G04 #@! TO.N,Net-(D37-Pad1)*
X29437500Y-69056200D03*
D11*
G04 #@! TO.P,D45,2*
G04 #@! TO.N,Net-(D45-Pad2)*
X37237500Y-69056200D03*
G04 #@! TD*
D13*
G04 #@! TO.P,D46,1*
G04 #@! TO.N,Net-(D46-Pad1)*
X42543800Y-69056200D03*
D14*
X43668800Y-69056200D03*
G04 #@! TO.P,D46,2*
G04 #@! TO.N,Net-(D46-Pad2)*
X46818800Y-69056200D03*
D13*
X47943800Y-69056200D03*
D12*
G04 #@! TO.P,D46,1*
G04 #@! TO.N,Net-(D46-Pad1)*
X41343800Y-69056200D03*
D11*
G04 #@! TO.P,D46,2*
G04 #@! TO.N,Net-(D46-Pad2)*
X49143800Y-69056200D03*
G04 #@! TD*
D13*
G04 #@! TO.P,D47,1*
G04 #@! TO.N,Net-(D46-Pad1)*
X61593800Y-69056200D03*
D14*
X62718800Y-69056200D03*
G04 #@! TO.P,D47,2*
G04 #@! TO.N,Net-(D47-Pad2)*
X65868800Y-69056200D03*
D13*
X66993800Y-69056200D03*
D12*
G04 #@! TO.P,D47,1*
G04 #@! TO.N,Net-(D46-Pad1)*
X60393800Y-69056200D03*
D11*
G04 #@! TO.P,D47,2*
G04 #@! TO.N,Net-(D47-Pad2)*
X68193800Y-69056200D03*
G04 #@! TD*
G04 #@! TO.P,D48,2*
G04 #@! TO.N,Net-(D48-Pad2)*
X87243800Y-69056200D03*
D12*
G04 #@! TO.P,D48,1*
G04 #@! TO.N,Net-(D46-Pad1)*
X79443800Y-69056200D03*
D13*
G04 #@! TO.P,D48,2*
G04 #@! TO.N,Net-(D48-Pad2)*
X86043800Y-69056200D03*
D14*
X84918800Y-69056200D03*
G04 #@! TO.P,D48,1*
G04 #@! TO.N,Net-(D46-Pad1)*
X81768800Y-69056200D03*
D13*
X80643800Y-69056200D03*
G04 #@! TD*
D11*
G04 #@! TO.P,D49,2*
G04 #@! TO.N,Net-(D49-Pad2)*
X106294000Y-69056200D03*
D12*
G04 #@! TO.P,D49,1*
G04 #@! TO.N,Net-(D46-Pad1)*
X98494000Y-69056200D03*
D13*
G04 #@! TO.P,D49,2*
G04 #@! TO.N,Net-(D49-Pad2)*
X105094000Y-69056200D03*
D14*
X103969000Y-69056200D03*
G04 #@! TO.P,D49,1*
G04 #@! TO.N,Net-(D46-Pad1)*
X100819000Y-69056200D03*
D13*
X99694000Y-69056200D03*
G04 #@! TD*
D11*
G04 #@! TO.P,D50,2*
G04 #@! TO.N,Net-(D50-Pad2)*
X125344000Y-69056200D03*
D12*
G04 #@! TO.P,D50,1*
G04 #@! TO.N,Net-(D46-Pad1)*
X117544000Y-69056200D03*
D13*
G04 #@! TO.P,D50,2*
G04 #@! TO.N,Net-(D50-Pad2)*
X124144000Y-69056200D03*
D14*
X123019000Y-69056200D03*
G04 #@! TO.P,D50,1*
G04 #@! TO.N,Net-(D46-Pad1)*
X119869000Y-69056200D03*
D13*
X118744000Y-69056200D03*
G04 #@! TD*
D11*
G04 #@! TO.P,D51,2*
G04 #@! TO.N,Net-(D51-Pad2)*
X144394000Y-69056200D03*
D12*
G04 #@! TO.P,D51,1*
G04 #@! TO.N,Net-(D46-Pad1)*
X136594000Y-69056200D03*
D13*
G04 #@! TO.P,D51,2*
G04 #@! TO.N,Net-(D51-Pad2)*
X143194000Y-69056200D03*
D14*
X142069000Y-69056200D03*
G04 #@! TO.P,D51,1*
G04 #@! TO.N,Net-(D46-Pad1)*
X138919000Y-69056200D03*
D13*
X137794000Y-69056200D03*
G04 #@! TD*
D11*
G04 #@! TO.P,D52,2*
G04 #@! TO.N,Net-(D52-Pad2)*
X163444000Y-69056200D03*
D12*
G04 #@! TO.P,D52,1*
G04 #@! TO.N,Net-(D46-Pad1)*
X155644000Y-69056200D03*
D13*
G04 #@! TO.P,D52,2*
G04 #@! TO.N,Net-(D52-Pad2)*
X162244000Y-69056200D03*
D14*
X161119000Y-69056200D03*
G04 #@! TO.P,D52,1*
G04 #@! TO.N,Net-(D46-Pad1)*
X157969000Y-69056200D03*
D13*
X156844000Y-69056200D03*
G04 #@! TD*
D11*
G04 #@! TO.P,D53,2*
G04 #@! TO.N,Net-(D53-Pad2)*
X182494000Y-69056200D03*
D12*
G04 #@! TO.P,D53,1*
G04 #@! TO.N,Net-(D46-Pad1)*
X174694000Y-69056200D03*
D13*
G04 #@! TO.P,D53,2*
G04 #@! TO.N,Net-(D53-Pad2)*
X181294000Y-69056200D03*
D14*
X180169000Y-69056200D03*
G04 #@! TO.P,D53,1*
G04 #@! TO.N,Net-(D46-Pad1)*
X177019000Y-69056200D03*
D13*
X175894000Y-69056200D03*
G04 #@! TD*
D11*
G04 #@! TO.P,D54,2*
G04 #@! TO.N,Net-(D54-Pad2)*
X201544000Y-69056200D03*
D12*
G04 #@! TO.P,D54,1*
G04 #@! TO.N,Net-(D46-Pad1)*
X193744000Y-69056200D03*
D13*
G04 #@! TO.P,D54,2*
G04 #@! TO.N,Net-(D54-Pad2)*
X200344000Y-69056200D03*
D14*
X199219000Y-69056200D03*
G04 #@! TO.P,D54,1*
G04 #@! TO.N,Net-(D46-Pad1)*
X196069000Y-69056200D03*
D13*
X194944000Y-69056200D03*
G04 #@! TD*
D11*
G04 #@! TO.P,D55,2*
G04 #@! TO.N,Net-(D55-Pad2)*
X220594000Y-69056200D03*
D12*
G04 #@! TO.P,D55,1*
G04 #@! TO.N,Net-(D55-Pad1)*
X212794000Y-69056200D03*
D13*
G04 #@! TO.P,D55,2*
G04 #@! TO.N,Net-(D55-Pad2)*
X219394000Y-69056200D03*
D14*
X218269000Y-69056200D03*
G04 #@! TO.P,D55,1*
G04 #@! TO.N,Net-(D55-Pad1)*
X215119000Y-69056200D03*
D13*
X213994000Y-69056200D03*
G04 #@! TD*
G04 #@! TO.P,D56,1*
G04 #@! TO.N,Net-(D55-Pad1)*
X233044000Y-69056200D03*
D14*
X234169000Y-69056200D03*
G04 #@! TO.P,D56,2*
G04 #@! TO.N,Net-(D56-Pad2)*
X237319000Y-69056200D03*
D13*
X238444000Y-69056200D03*
D12*
G04 #@! TO.P,D56,1*
G04 #@! TO.N,Net-(D55-Pad1)*
X231844000Y-69056200D03*
D11*
G04 #@! TO.P,D56,2*
G04 #@! TO.N,Net-(D56-Pad2)*
X239644000Y-69056200D03*
G04 #@! TD*
D13*
G04 #@! TO.P,D57,1*
G04 #@! TO.N,Net-(D55-Pad1)*
X268762000Y-69056200D03*
D14*
X269887000Y-69056200D03*
G04 #@! TO.P,D57,2*
G04 #@! TO.N,Net-(D57-Pad2)*
X273037000Y-69056200D03*
D13*
X274162000Y-69056200D03*
D12*
G04 #@! TO.P,D57,1*
G04 #@! TO.N,Net-(D55-Pad1)*
X267562000Y-69056200D03*
D11*
G04 #@! TO.P,D57,2*
G04 #@! TO.N,Net-(D57-Pad2)*
X275362000Y-69056200D03*
G04 #@! TD*
D17*
G04 #@! TO.P,D58,1*
G04 #@! TO.N,Net-(D55-Pad1)*
X295275000Y-81281200D03*
D14*
X295275000Y-80156200D03*
G04 #@! TO.P,D58,2*
G04 #@! TO.N,Net-(D58-Pad2)*
X295275000Y-77006200D03*
D17*
X295275000Y-75881200D03*
D12*
G04 #@! TO.P,D58,1*
G04 #@! TO.N,Net-(D55-Pad1)*
X295275000Y-82481200D03*
D11*
G04 #@! TO.P,D58,2*
G04 #@! TO.N,Net-(D58-Pad2)*
X295275000Y-74681200D03*
G04 #@! TD*
D13*
G04 #@! TO.P,D59,1*
G04 #@! TO.N,Net-(D55-Pad1)*
X49687500Y-88106200D03*
D14*
X50812500Y-88106200D03*
G04 #@! TO.P,D59,2*
G04 #@! TO.N,Net-(D59-Pad2)*
X53962500Y-88106200D03*
D13*
X55087500Y-88106200D03*
D12*
G04 #@! TO.P,D59,1*
G04 #@! TO.N,Net-(D55-Pad1)*
X48487500Y-88106200D03*
D11*
G04 #@! TO.P,D59,2*
G04 #@! TO.N,Net-(D59-Pad2)*
X56287500Y-88106200D03*
G04 #@! TD*
G04 #@! TO.P,D60,2*
G04 #@! TO.N,Net-(D60-Pad2)*
X77718800Y-88106200D03*
D12*
G04 #@! TO.P,D60,1*
G04 #@! TO.N,Net-(D55-Pad1)*
X69918800Y-88106200D03*
D13*
G04 #@! TO.P,D60,2*
G04 #@! TO.N,Net-(D60-Pad2)*
X76518800Y-88106200D03*
D14*
X75393800Y-88106200D03*
G04 #@! TO.P,D60,1*
G04 #@! TO.N,Net-(D55-Pad1)*
X72243800Y-88106200D03*
D13*
X71118800Y-88106200D03*
G04 #@! TD*
D11*
G04 #@! TO.P,D61,2*
G04 #@! TO.N,Net-(D61-Pad2)*
X158681000Y-88106200D03*
D12*
G04 #@! TO.P,D61,1*
G04 #@! TO.N,Net-(D55-Pad1)*
X150881000Y-88106200D03*
D13*
G04 #@! TO.P,D61,2*
G04 #@! TO.N,Net-(D61-Pad2)*
X157481000Y-88106200D03*
D14*
X156356000Y-88106200D03*
G04 #@! TO.P,D61,1*
G04 #@! TO.N,Net-(D55-Pad1)*
X153206000Y-88106200D03*
D13*
X152081000Y-88106200D03*
G04 #@! TD*
D11*
G04 #@! TO.P,D62,2*
G04 #@! TO.N,Net-(D62-Pad2)*
X239644000Y-88106200D03*
D12*
G04 #@! TO.P,D62,1*
G04 #@! TO.N,Net-(D55-Pad1)*
X231844000Y-88106200D03*
D13*
G04 #@! TO.P,D62,2*
G04 #@! TO.N,Net-(D62-Pad2)*
X238444000Y-88106200D03*
D14*
X237319000Y-88106200D03*
G04 #@! TO.P,D62,1*
G04 #@! TO.N,Net-(D55-Pad1)*
X234169000Y-88106200D03*
D13*
X233044000Y-88106200D03*
G04 #@! TD*
D11*
G04 #@! TO.P,D63,2*
G04 #@! TO.N,Net-(D63-Pad2)*
X256312000Y-88106200D03*
D12*
G04 #@! TO.P,D63,1*
G04 #@! TO.N,Net-(D55-Pad1)*
X248512000Y-88106200D03*
D13*
G04 #@! TO.P,D63,2*
G04 #@! TO.N,Net-(D63-Pad2)*
X255112000Y-88106200D03*
D14*
X253987000Y-88106200D03*
G04 #@! TO.P,D63,1*
G04 #@! TO.N,Net-(D55-Pad1)*
X250837000Y-88106200D03*
D13*
X249712000Y-88106200D03*
G04 #@! TD*
D18*
G04 #@! TO.P,K1,2*
G04 #@! TO.N,Net-(D1-Pad2)*
X23971200Y-16351200D03*
G04 #@! TO.P,K1,1*
G04 #@! TO.N,Net-(K1-Pad1)*
X17621200Y-18891200D03*
G04 #@! TD*
G04 #@! TO.P,K2,1*
G04 #@! TO.N,Net-(K11-Pad1)*
X36671200Y-18891200D03*
G04 #@! TO.P,K2,2*
G04 #@! TO.N,Net-(D2-Pad2)*
X43021200Y-16351200D03*
G04 #@! TD*
G04 #@! TO.P,K3,2*
G04 #@! TO.N,Net-(D3-Pad2)*
X62071200Y-16351200D03*
G04 #@! TO.P,K3,1*
G04 #@! TO.N,Net-(K12-Pad1)*
X55721200Y-18891200D03*
G04 #@! TD*
G04 #@! TO.P,K4,2*
G04 #@! TO.N,Net-(D4-Pad2)*
X81121200Y-16351200D03*
G04 #@! TO.P,K4,1*
G04 #@! TO.N,Net-(K13-Pad1)*
X74771200Y-18891200D03*
G04 #@! TD*
G04 #@! TO.P,K5,1*
G04 #@! TO.N,Net-(K14-Pad1)*
X93821200Y-18891200D03*
G04 #@! TO.P,K5,2*
G04 #@! TO.N,Net-(D5-Pad2)*
X100171200Y-16351200D03*
G04 #@! TD*
G04 #@! TO.P,K6,2*
G04 #@! TO.N,Net-(D6-Pad2)*
X119221000Y-16351200D03*
G04 #@! TO.P,K6,1*
G04 #@! TO.N,Net-(K15-Pad1)*
X112871000Y-18891200D03*
G04 #@! TD*
G04 #@! TO.P,K7,2*
G04 #@! TO.N,Net-(D7-Pad2)*
X138271000Y-16351200D03*
G04 #@! TO.P,K7,1*
G04 #@! TO.N,Net-(K16-Pad1)*
X131921000Y-18891200D03*
G04 #@! TD*
G04 #@! TO.P,K8,2*
G04 #@! TO.N,Net-(D8-Pad2)*
X157321000Y-16351200D03*
G04 #@! TO.P,K8,1*
G04 #@! TO.N,Net-(K17-Pad1)*
X150971000Y-18891200D03*
G04 #@! TD*
G04 #@! TO.P,K9,1*
G04 #@! TO.N,Net-(K18-Pad1)*
X170021000Y-18891200D03*
G04 #@! TO.P,K9,2*
G04 #@! TO.N,Net-(D9-Pad2)*
X176371000Y-16351200D03*
G04 #@! TD*
G04 #@! TO.P,K10,1*
G04 #@! TO.N,Net-(K1-Pad1)*
X189071000Y-18891200D03*
G04 #@! TO.P,K10,2*
G04 #@! TO.N,Net-(D10-Pad2)*
X195421000Y-16351200D03*
G04 #@! TD*
G04 #@! TO.P,K11,1*
G04 #@! TO.N,Net-(K11-Pad1)*
X208121000Y-18891200D03*
G04 #@! TO.P,K11,2*
G04 #@! TO.N,Net-(D11-Pad2)*
X214471000Y-16351200D03*
G04 #@! TD*
G04 #@! TO.P,K12,1*
G04 #@! TO.N,Net-(K12-Pad1)*
X227171000Y-18891200D03*
G04 #@! TO.P,K12,2*
G04 #@! TO.N,Net-(D12-Pad2)*
X233521000Y-16351200D03*
G04 #@! TD*
G04 #@! TO.P,K13,1*
G04 #@! TO.N,Net-(K13-Pad1)*
X246221000Y-18891200D03*
G04 #@! TO.P,K13,2*
G04 #@! TO.N,Net-(D13-Pad2)*
X252571000Y-16351200D03*
G04 #@! TD*
G04 #@! TO.P,K14,1*
G04 #@! TO.N,Net-(K14-Pad1)*
X265271000Y-18891200D03*
G04 #@! TO.P,K14,2*
G04 #@! TO.N,Net-(D14-Pad2)*
X271621000Y-16351200D03*
G04 #@! TD*
G04 #@! TO.P,K15,1*
G04 #@! TO.N,Net-(K15-Pad1)*
X274796000Y-18891200D03*
G04 #@! TO.P,K15,2*
G04 #@! TO.N,Net-(D15-Pad2)*
X281146000Y-16351200D03*
G04 #@! TD*
G04 #@! TO.P,K16,1*
G04 #@! TO.N,Net-(K16-Pad1)*
X284321000Y-18891200D03*
G04 #@! TO.P,K16,2*
G04 #@! TO.N,Net-(D16-Pad2)*
X290671000Y-16351200D03*
G04 #@! TD*
G04 #@! TO.P,K17,2*
G04 #@! TO.N,Net-(D17-Pad2)*
X28733800Y-35401200D03*
G04 #@! TO.P,K17,1*
G04 #@! TO.N,Net-(K17-Pad1)*
X22383800Y-37941200D03*
G04 #@! TD*
G04 #@! TO.P,K18,2*
G04 #@! TO.N,Net-(D18-Pad2)*
X52546200Y-35401200D03*
G04 #@! TO.P,K18,1*
G04 #@! TO.N,Net-(K18-Pad1)*
X46196200Y-37941200D03*
G04 #@! TD*
G04 #@! TO.P,K19,2*
G04 #@! TO.N,Net-(D19-Pad2)*
X71596200Y-35401200D03*
G04 #@! TO.P,K19,1*
G04 #@! TO.N,Net-(K1-Pad1)*
X65246200Y-37941200D03*
G04 #@! TD*
G04 #@! TO.P,K20,1*
G04 #@! TO.N,Net-(K11-Pad1)*
X84296200Y-37941200D03*
G04 #@! TO.P,K20,2*
G04 #@! TO.N,Net-(D20-Pad2)*
X90646200Y-35401200D03*
G04 #@! TD*
G04 #@! TO.P,K21,2*
G04 #@! TO.N,Net-(D21-Pad2)*
X109696000Y-35401200D03*
G04 #@! TO.P,K21,1*
G04 #@! TO.N,Net-(K12-Pad1)*
X103346000Y-37941200D03*
G04 #@! TD*
G04 #@! TO.P,K22,2*
G04 #@! TO.N,Net-(D22-Pad2)*
X128746000Y-35401200D03*
G04 #@! TO.P,K22,1*
G04 #@! TO.N,Net-(K13-Pad1)*
X122396000Y-37941200D03*
G04 #@! TD*
G04 #@! TO.P,K23,2*
G04 #@! TO.N,Net-(D23-Pad2)*
X147796000Y-35401200D03*
G04 #@! TO.P,K23,1*
G04 #@! TO.N,Net-(K14-Pad1)*
X141446000Y-37941200D03*
G04 #@! TD*
G04 #@! TO.P,K24,1*
G04 #@! TO.N,Net-(K15-Pad1)*
X160496000Y-37941200D03*
G04 #@! TO.P,K24,2*
G04 #@! TO.N,Net-(D24-Pad2)*
X166846000Y-35401200D03*
G04 #@! TD*
G04 #@! TO.P,K25,2*
G04 #@! TO.N,Net-(D25-Pad2)*
X185896000Y-35401200D03*
G04 #@! TO.P,K25,1*
G04 #@! TO.N,Net-(K16-Pad1)*
X179546000Y-37941200D03*
G04 #@! TD*
G04 #@! TO.P,K26,2*
G04 #@! TO.N,Net-(D26-Pad2)*
X204946000Y-35401200D03*
G04 #@! TO.P,K26,1*
G04 #@! TO.N,Net-(K17-Pad1)*
X198596000Y-37941200D03*
G04 #@! TD*
G04 #@! TO.P,K27,2*
G04 #@! TO.N,Net-(D27-Pad2)*
X223996000Y-35401200D03*
G04 #@! TO.P,K27,1*
G04 #@! TO.N,Net-(K18-Pad1)*
X217646000Y-37941200D03*
G04 #@! TD*
G04 #@! TO.P,K28,2*
G04 #@! TO.N,Net-(D28-Pad2)*
X243046000Y-35401200D03*
G04 #@! TO.P,K28,1*
G04 #@! TO.N,Net-(K1-Pad1)*
X236696000Y-37941200D03*
G04 #@! TD*
G04 #@! TO.P,K29,2*
G04 #@! TO.N,Net-(D29-Pad2)*
X262096000Y-35401200D03*
G04 #@! TO.P,K29,1*
G04 #@! TO.N,Net-(K11-Pad1)*
X255746000Y-37941200D03*
G04 #@! TD*
G04 #@! TO.P,K30,1*
G04 #@! TO.N,Net-(K12-Pad1)*
X279559000Y-37941200D03*
G04 #@! TO.P,K30,2*
G04 #@! TO.N,Net-(D30-Pad2)*
X285909000Y-35401200D03*
G04 #@! TD*
G04 #@! TO.P,K31,2*
G04 #@! TO.N,Net-(D31-Pad2)*
X31115000Y-54451200D03*
G04 #@! TO.P,K31,1*
G04 #@! TO.N,Net-(K13-Pad1)*
X24765000Y-56991200D03*
G04 #@! TD*
G04 #@! TO.P,K32,2*
G04 #@! TO.N,Net-(D32-Pad2)*
X57308800Y-54451200D03*
G04 #@! TO.P,K32,1*
G04 #@! TO.N,Net-(K14-Pad1)*
X50958800Y-56991200D03*
G04 #@! TD*
G04 #@! TO.P,K33,1*
G04 #@! TO.N,Net-(K15-Pad1)*
X70008800Y-56991200D03*
G04 #@! TO.P,K33,2*
G04 #@! TO.N,Net-(D33-Pad2)*
X76358800Y-54451200D03*
G04 #@! TD*
G04 #@! TO.P,K34,2*
G04 #@! TO.N,Net-(D34-Pad2)*
X95408800Y-54451200D03*
G04 #@! TO.P,K34,1*
G04 #@! TO.N,Net-(K16-Pad1)*
X89058800Y-56991200D03*
G04 #@! TD*
G04 #@! TO.P,K35,1*
G04 #@! TO.N,Net-(K17-Pad1)*
X108109000Y-56991200D03*
G04 #@! TO.P,K35,2*
G04 #@! TO.N,Net-(D35-Pad2)*
X114459000Y-54451200D03*
G04 #@! TD*
G04 #@! TO.P,K36,1*
G04 #@! TO.N,Net-(K18-Pad1)*
X127159000Y-56991200D03*
G04 #@! TO.P,K36,2*
G04 #@! TO.N,Net-(D36-Pad2)*
X133509000Y-54451200D03*
G04 #@! TD*
G04 #@! TO.P,K37,1*
G04 #@! TO.N,Net-(K1-Pad1)*
X146209000Y-56991200D03*
G04 #@! TO.P,K37,2*
G04 #@! TO.N,Net-(D37-Pad2)*
X152559000Y-54451200D03*
G04 #@! TD*
G04 #@! TO.P,K38,1*
G04 #@! TO.N,Net-(K11-Pad1)*
X165259000Y-56991200D03*
G04 #@! TO.P,K38,2*
G04 #@! TO.N,Net-(D38-Pad2)*
X171609000Y-54451200D03*
G04 #@! TD*
G04 #@! TO.P,K39,2*
G04 #@! TO.N,Net-(D39-Pad2)*
X190659000Y-54451200D03*
G04 #@! TO.P,K39,1*
G04 #@! TO.N,Net-(K12-Pad1)*
X184309000Y-56991200D03*
G04 #@! TD*
G04 #@! TO.P,K40,1*
G04 #@! TO.N,Net-(K13-Pad1)*
X203359000Y-56991200D03*
G04 #@! TO.P,K40,2*
G04 #@! TO.N,Net-(D40-Pad2)*
X209709000Y-54451200D03*
G04 #@! TD*
G04 #@! TO.P,K41,1*
G04 #@! TO.N,Net-(K14-Pad1)*
X222409000Y-56991200D03*
G04 #@! TO.P,K41,2*
G04 #@! TO.N,Net-(D41-Pad2)*
X228759000Y-54451200D03*
G04 #@! TD*
G04 #@! TO.P,K42,1*
G04 #@! TO.N,Net-(K15-Pad1)*
X241459000Y-56991200D03*
G04 #@! TO.P,K42,2*
G04 #@! TO.N,Net-(D42-Pad2)*
X247809000Y-54451200D03*
G04 #@! TD*
G04 #@! TO.P,K43,1*
G04 #@! TO.N,Net-(K16-Pad1)*
X260509000Y-56991200D03*
G04 #@! TO.P,K43,2*
G04 #@! TO.N,Net-(D43-Pad2)*
X266859000Y-54451200D03*
G04 #@! TD*
G04 #@! TO.P,K44,2*
G04 #@! TO.N,Net-(D44-Pad2)*
X278765000Y-54451200D03*
G04 #@! TO.P,K44,1*
G04 #@! TO.N,Net-(K17-Pad1)*
X272415000Y-56991200D03*
G04 #@! TD*
G04 #@! TO.P,K45,1*
G04 #@! TO.N,Net-(K18-Pad1)*
X29527500Y-76041200D03*
G04 #@! TO.P,K45,2*
G04 #@! TO.N,Net-(D45-Pad2)*
X35877500Y-73501200D03*
G04 #@! TD*
G04 #@! TO.P,K46,1*
G04 #@! TO.N,Net-(K1-Pad1)*
X41433800Y-76041200D03*
G04 #@! TO.P,K46,2*
G04 #@! TO.N,Net-(D46-Pad2)*
X47783800Y-73501200D03*
G04 #@! TD*
G04 #@! TO.P,K47,1*
G04 #@! TO.N,Net-(K11-Pad1)*
X60483800Y-76041200D03*
G04 #@! TO.P,K47,2*
G04 #@! TO.N,Net-(D47-Pad2)*
X66833800Y-73501200D03*
G04 #@! TD*
G04 #@! TO.P,K48,1*
G04 #@! TO.N,Net-(K12-Pad1)*
X79533800Y-76041200D03*
G04 #@! TO.P,K48,2*
G04 #@! TO.N,Net-(D48-Pad2)*
X85883800Y-73501200D03*
G04 #@! TD*
G04 #@! TO.P,K49,2*
G04 #@! TO.N,Net-(D49-Pad2)*
X104934000Y-73501200D03*
G04 #@! TO.P,K49,1*
G04 #@! TO.N,Net-(K13-Pad1)*
X98584000Y-76041200D03*
G04 #@! TD*
G04 #@! TO.P,K50,1*
G04 #@! TO.N,Net-(K14-Pad1)*
X117634000Y-76041200D03*
G04 #@! TO.P,K50,2*
G04 #@! TO.N,Net-(D50-Pad2)*
X123984000Y-73501200D03*
G04 #@! TD*
G04 #@! TO.P,K51,2*
G04 #@! TO.N,Net-(D51-Pad2)*
X143034000Y-73501200D03*
G04 #@! TO.P,K51,1*
G04 #@! TO.N,Net-(K15-Pad1)*
X136684000Y-76041200D03*
G04 #@! TD*
G04 #@! TO.P,K52,2*
G04 #@! TO.N,Net-(D52-Pad2)*
X162084000Y-73501200D03*
G04 #@! TO.P,K52,1*
G04 #@! TO.N,Net-(K16-Pad1)*
X155734000Y-76041200D03*
G04 #@! TD*
G04 #@! TO.P,K53,2*
G04 #@! TO.N,Net-(D53-Pad2)*
X181134000Y-73501200D03*
G04 #@! TO.P,K53,1*
G04 #@! TO.N,Net-(K17-Pad1)*
X174784000Y-76041200D03*
G04 #@! TD*
G04 #@! TO.P,K54,2*
G04 #@! TO.N,Net-(D54-Pad2)*
X200184000Y-73501200D03*
G04 #@! TO.P,K54,1*
G04 #@! TO.N,Net-(K18-Pad1)*
X193834000Y-76041200D03*
G04 #@! TD*
G04 #@! TO.P,K55,2*
G04 #@! TO.N,Net-(D55-Pad2)*
X219234000Y-73501200D03*
G04 #@! TO.P,K55,1*
G04 #@! TO.N,Net-(K1-Pad1)*
X212884000Y-76041200D03*
G04 #@! TD*
G04 #@! TO.P,K56,2*
G04 #@! TO.N,Net-(D56-Pad2)*
X238284000Y-73501200D03*
G04 #@! TO.P,K56,1*
G04 #@! TO.N,Net-(K11-Pad1)*
X231934000Y-76041200D03*
G04 #@! TD*
G04 #@! TO.P,K57,1*
G04 #@! TO.N,Net-(K12-Pad1)*
X267652000Y-76041200D03*
G04 #@! TO.P,K57,2*
G04 #@! TO.N,Net-(D57-Pad2)*
X274002000Y-73501200D03*
G04 #@! TD*
G04 #@! TO.P,K58,1*
G04 #@! TO.N,Net-(K13-Pad1)*
X284321000Y-76041200D03*
G04 #@! TO.P,K58,2*
G04 #@! TO.N,Net-(D58-Pad2)*
X290671000Y-73501200D03*
G04 #@! TD*
G04 #@! TO.P,K59,1*
G04 #@! TO.N,Net-(K14-Pad1)*
X46196200Y-95091200D03*
G04 #@! TO.P,K59,2*
G04 #@! TO.N,Net-(D59-Pad2)*
X52546200Y-92551200D03*
G04 #@! TD*
G04 #@! TO.P,K60,2*
G04 #@! TO.N,Net-(D60-Pad2)*
X76358800Y-92551200D03*
G04 #@! TO.P,K60,1*
G04 #@! TO.N,Net-(K15-Pad1)*
X70008800Y-95091200D03*
G04 #@! TD*
G04 #@! TO.P,K61,1*
G04 #@! TO.N,Net-(K16-Pad1)*
X150971000Y-95091200D03*
G04 #@! TO.P,K61,2*
G04 #@! TO.N,Net-(D61-Pad2)*
X157321000Y-92551200D03*
G04 #@! TD*
G04 #@! TO.P,K62,1*
G04 #@! TO.N,Net-(K17-Pad1)*
X231934000Y-95091200D03*
G04 #@! TO.P,K62,2*
G04 #@! TO.N,Net-(D62-Pad2)*
X238284000Y-92551200D03*
G04 #@! TD*
G04 #@! TO.P,K63,1*
G04 #@! TO.N,Net-(K18-Pad1)*
X255746000Y-95091200D03*
G04 #@! TO.P,K63,2*
G04 #@! TO.N,Net-(D63-Pad2)*
X262096000Y-92551200D03*
G04 #@! TD*
G04 #@! TO.P,K31-2,2*
G04 #@! TO.N,Net-(D28-Pad1)*
X26352500Y-54451200D03*
G04 #@! TO.P,K31-2,1*
G04 #@! TO.N,Net-(K13-Pad1)*
X20002500Y-56991200D03*
G04 #@! TD*
G04 #@! TO.P,K44-2,2*
G04 #@! TO.N,Net-(D37-Pad1)*
X290830000Y-52546200D03*
G04 #@! TO.P,K44-2,1*
G04 #@! TO.N,Net-(K17-Pad1)*
X288290000Y-46196200D03*
G04 #@! TD*
G04 #@! TO.P,K45-2,1*
G04 #@! TO.N,Net-(K18-Pad1)*
X20002500Y-76041200D03*
G04 #@! TO.P,K45-2,2*
G04 #@! TO.N,Net-(D37-Pad1)*
X26352500Y-73501200D03*
G04 #@! TD*
G04 #@! TO.P,K57-2,1*
G04 #@! TO.N,Net-(K12-Pad1)*
X258128000Y-76041200D03*
G04 #@! TO.P,K57-2,2*
G04 #@! TO.N,Net-(D55-Pad1)*
X264478000Y-73501200D03*
G04 #@! TD*
D12*
G04 #@! TO.P,U1,1*
G04 #@! TO.N,Net-(D1-Pad1)*
X162401000Y-4730000D03*
D11*
G04 #@! TO.P,U1,2*
G04 #@! TO.N,Net-(D10-Pad1)*
X162401000Y-7270000D03*
G04 #@! TO.P,U1,3*
G04 #@! TO.N,Net-(U1-Pad3)*
X162401000Y-9810000D03*
G04 #@! TO.P,U1,4*
G04 #@! TO.N,Net-(U1-Pad4)*
X162401000Y-12350000D03*
G04 #@! TO.P,U1,5*
G04 #@! TO.N,Net-(D19-Pad1)*
X162401000Y-14890000D03*
G04 #@! TO.P,U1,6*
G04 #@! TO.N,Net-(D28-Pad1)*
X162401000Y-17430000D03*
G04 #@! TO.P,U1,7*
G04 #@! TO.N,Net-(D37-Pad1)*
X162401000Y-19970000D03*
G04 #@! TO.P,U1,8*
G04 #@! TO.N,Net-(D46-Pad1)*
X162401000Y-22510000D03*
G04 #@! TO.P,U1,9*
G04 #@! TO.N,Net-(D55-Pad1)*
X162401000Y-25050000D03*
G04 #@! TO.P,U1,10*
G04 #@! TO.N,Net-(K1-Pad1)*
X162401000Y-27590000D03*
G04 #@! TO.P,U1,11*
G04 #@! TO.N,Net-(K11-Pad1)*
X162401000Y-30130000D03*
G04 #@! TO.P,U1,12*
G04 #@! TO.N,Net-(K12-Pad1)*
X162401000Y-32670000D03*
G04 #@! TO.P,U1,13*
G04 #@! TO.N,Net-(J1-Pad4)*
X147161000Y-32670000D03*
G04 #@! TO.P,U1,14*
G04 #@! TO.N,Net-(J1-Pad3)*
X147161000Y-30130000D03*
G04 #@! TO.P,U1,15*
G04 #@! TO.N,Net-(K18-Pad1)*
X147161000Y-27590000D03*
G04 #@! TO.P,U1,16*
G04 #@! TO.N,Net-(K17-Pad1)*
X147161000Y-25050000D03*
G04 #@! TO.P,U1,17*
G04 #@! TO.N,Net-(K16-Pad1)*
X147161000Y-22510000D03*
G04 #@! TO.P,U1,18*
G04 #@! TO.N,Net-(K15-Pad1)*
X147161000Y-19970000D03*
G04 #@! TO.P,U1,19*
G04 #@! TO.N,Net-(K14-Pad1)*
X147161000Y-17430000D03*
G04 #@! TO.P,U1,20*
G04 #@! TO.N,Net-(K13-Pad1)*
X147161000Y-14890000D03*
G04 #@! TO.P,U1,21*
G04 #@! TO.N,Net-(J1-Pad1)*
X147161000Y-12350000D03*
G04 #@! TO.P,U1,22*
G04 #@! TO.N,Net-(SW1-Pad2)*
X147161000Y-9810000D03*
G04 #@! TO.P,U1,23*
G04 #@! TO.N,Net-(J1-Pad2)*
X147161000Y-7270000D03*
G04 #@! TO.P,U1,24*
G04 #@! TO.N,Net-(U1-Pad24)*
X147161000Y-4730000D03*
G04 #@! TD*
D19*
G04 #@! TO.N,Net-(D19-Pad1)*
X164767000Y-27070600D03*
G04 #@! TO.N,Net-(D28-Pad1)*
X152560000Y-34691000D03*
X142603000Y-35900900D03*
G04 #@! TO.N,Net-(K1-Pad1)*
X50033600Y-24649200D03*
G04 #@! TO.N,Net-(K11-Pad1)*
X40196400Y-32818800D03*
G04 #@! TO.N,Net-(K12-Pad1)*
X281525000Y-50006300D03*
X271462000Y-66675000D03*
X71551400Y-39264800D03*
X175190000Y-29566000D03*
G04 #@! TO.N,Net-(K13-Pad1)*
X220396000Y-55971800D03*
G04 #@! TO.N,Net-(K14-Pad1)*
X232230000Y-48134100D03*
G04 #@! TO.N,Net-(K15-Pad1)*
X151806000Y-37941200D03*
X244670000Y-47387300D03*
G04 #@! TO.N,Net-(K16-Pad1)*
X151364000Y-35815700D03*
X184539000Y-52388700D03*
G04 #@! TO.N,Net-(K17-Pad1)*
X113307000Y-47663400D03*
X150254000Y-36839600D03*
G04 #@! TO.N,Net-(K18-Pad1)*
X41593200Y-52613800D03*
X203558000Y-37941200D03*
X233601000Y-94124500D03*
G04 #@! TO.N,Net-(J1-Pad3)*
X144881100Y-26670800D03*
X142084900Y-20575100D03*
G04 #@! TO.N,Net-(J1-Pad4)*
X190918800Y-26478500D03*
G04 #@! TD*
D20*
G04 #@! TO.N,Net-(D1-Pad1)*
X153206000Y-11906200D02*
X152081000Y-11906200D01*
X134156000Y-11906200D02*
X133031000Y-11906200D01*
X133031000Y-11906200D02*
X131831000Y-11906200D01*
X131831000Y-11906200D02*
X130706000Y-11906200D01*
X130706000Y-11906200D02*
X129565000Y-10765800D01*
X129565000Y-10765800D02*
X117172000Y-10765800D01*
X117172000Y-10765800D02*
X116031000Y-11906200D01*
X116031000Y-11906200D02*
X115106000Y-11906200D01*
X115106000Y-11906200D02*
X113981000Y-11906200D01*
X113981000Y-11906200D02*
X112781000Y-11906200D01*
X169931000Y-11906200D02*
X171131000Y-11906200D01*
X172256000Y-11906200D02*
X171131000Y-11906200D01*
X152081000Y-11906200D02*
X150881000Y-11906200D01*
X150881000Y-11906200D02*
X149756000Y-11906200D01*
X149756000Y-11906200D02*
X148930000Y-11080000D01*
X148930000Y-11080000D02*
X141054000Y-11080000D01*
X141054000Y-11080000D02*
X140712000Y-10738000D01*
X140712000Y-10738000D02*
X136250000Y-10738000D01*
X136250000Y-10738000D02*
X135081000Y-11906200D01*
X135081000Y-11906200D02*
X134156000Y-11906200D01*
X96056200Y-11906200D02*
X94931200Y-11906200D01*
X94931200Y-11906200D02*
X93731200Y-11906200D01*
X93731200Y-11906200D02*
X92605900Y-11906200D01*
X92605900Y-11906200D02*
X91448600Y-13063500D01*
X91448600Y-13063500D02*
X79088800Y-13063500D01*
X79088800Y-13063500D02*
X77931500Y-11906200D01*
X77931500Y-11906200D02*
X77006200Y-11906200D01*
X77006200Y-11906200D02*
X75881200Y-11906200D01*
X74681200Y-11906200D02*
X75881200Y-11906200D01*
X74681200Y-11906200D02*
X73555900Y-11906200D01*
X73555900Y-11906200D02*
X72407300Y-13054800D01*
X72407300Y-13054800D02*
X60030100Y-13054800D01*
X60030100Y-13054800D02*
X58881500Y-11906200D01*
X58881500Y-11906200D02*
X57956200Y-11906200D01*
X57956200Y-11906200D02*
X56831200Y-11906200D01*
X56831200Y-11906200D02*
X55631200Y-11906200D01*
X55631200Y-11906200D02*
X54505900Y-11906200D01*
X54505900Y-11906200D02*
X53357300Y-13054800D01*
X53357300Y-13054800D02*
X40980100Y-13054800D01*
X40980100Y-13054800D02*
X39831500Y-11906200D01*
X39831500Y-11906200D02*
X38906200Y-11906200D01*
X38906200Y-11906200D02*
X37781200Y-11906200D01*
X37781200Y-11906200D02*
X36581200Y-11906200D01*
X36581200Y-11906200D02*
X35455900Y-11906200D01*
X35455900Y-11906200D02*
X34307300Y-13054800D01*
X34307300Y-13054800D02*
X21930100Y-13054800D01*
X21930100Y-13054800D02*
X20781500Y-11906200D01*
X20781500Y-11906200D02*
X19856200Y-11906200D01*
X17531200Y-11906200D02*
X18731200Y-11906200D01*
X19856200Y-11906200D02*
X18731200Y-11906200D01*
G04 #@! TO.N,Net-(D1-Pad2)*
X25331200Y-11906200D02*
X24131200Y-11906200D01*
X24131200Y-11906200D02*
X23006200Y-11906200D01*
G04 #@! TO.N,Net-(D2-Pad2)*
X44381200Y-11906200D02*
X43181200Y-11906200D01*
X43181200Y-11906200D02*
X42056200Y-11906200D01*
G04 #@! TO.N,Net-(D3-Pad2)*
X63431200Y-11906200D02*
X62231200Y-11906200D01*
X62231200Y-11906200D02*
X61106200Y-11906200D01*
G04 #@! TO.N,Net-(D4-Pad2)*
X82481200Y-11906200D02*
X81281200Y-11906200D01*
X81281200Y-11906200D02*
X80156200Y-11906200D01*
G04 #@! TO.N,Net-(D5-Pad2)*
X101531000Y-11906200D02*
X101531200Y-11906200D01*
X101531000Y-11906200D02*
X100331200Y-11906200D01*
X100331200Y-11906200D02*
X99206200Y-11906200D01*
G04 #@! TO.N,Net-(D6-Pad2)*
X118256000Y-11906200D02*
X119381000Y-11906200D01*
X119381000Y-11906200D02*
X120581000Y-11906200D01*
G04 #@! TO.N,Net-(D7-Pad2)*
X137306000Y-11906200D02*
X138431000Y-11906200D01*
X138431000Y-11906200D02*
X139631000Y-11906200D01*
G04 #@! TO.N,Net-(D8-Pad2)*
X156356000Y-11906200D02*
X157481000Y-11906200D01*
X157321000Y-16351200D02*
X155906000Y-14935900D01*
X155906000Y-14935900D02*
X155906000Y-11906200D01*
X155906000Y-11906200D02*
X156356000Y-11906200D01*
X157481000Y-11906200D02*
X158681000Y-11906200D01*
G04 #@! TO.N,Net-(D9-Pad2)*
X177731000Y-11906200D02*
X176531000Y-11906200D01*
X176531000Y-11906200D02*
X175406000Y-11906200D01*
G04 #@! TO.N,Net-(D10-Pad1)*
X45298400Y-30956200D02*
X46106200Y-30956200D01*
X24618800Y-30956200D02*
X25544100Y-30956200D01*
X25544100Y-30956200D02*
X26681400Y-32093500D01*
X26681400Y-32093500D02*
X43843600Y-32093500D01*
X43843600Y-32093500D02*
X44980900Y-30956200D01*
X44980900Y-30956200D02*
X45298400Y-30956200D01*
X188981000Y-11906200D02*
X186600000Y-9525000D01*
X186600000Y-9525000D02*
X164656000Y-9525000D01*
X164656000Y-9525000D02*
X162401000Y-7270000D01*
X24618800Y-30956200D02*
X23493800Y-30956200D01*
X23493800Y-30956200D02*
X22293800Y-30956200D01*
X48431200Y-30956200D02*
X47306200Y-30956200D01*
X47306200Y-30956200D02*
X46106200Y-30956200D01*
X45298400Y-30956200D02*
X52076000Y-24178600D01*
X52076000Y-24178600D02*
X67038700Y-24178600D01*
X67038700Y-24178600D02*
X76777700Y-14439600D01*
X76777700Y-14439600D02*
X106065000Y-14439600D01*
X106065000Y-14439600D02*
X111965000Y-8540000D01*
X111965000Y-8540000D02*
X161131000Y-8540000D01*
X161131000Y-8540000D02*
X162401000Y-7270000D01*
X277031000Y-11906200D02*
X275906000Y-11906200D01*
X275906000Y-11906200D02*
X274706000Y-11906200D01*
X248456000Y-11906200D02*
X247331000Y-11906200D01*
X247331000Y-11906200D02*
X246131000Y-11906200D01*
X246131000Y-11906200D02*
X245006000Y-11906200D01*
X245006000Y-11906200D02*
X243851000Y-10751100D01*
X243851000Y-10751100D02*
X231486000Y-10751100D01*
X231486000Y-10751100D02*
X230331000Y-11906200D01*
X230331000Y-11906200D02*
X229406000Y-11906200D01*
X229406000Y-11906200D02*
X228281000Y-11906200D01*
X228281000Y-11906200D02*
X227081000Y-11906200D01*
X227081000Y-11906200D02*
X225956000Y-11906200D01*
X225956000Y-11906200D02*
X224801000Y-10751100D01*
X224801000Y-10751100D02*
X212436000Y-10751100D01*
X212436000Y-10751100D02*
X211281000Y-11906200D01*
X211281000Y-11906200D02*
X210356000Y-11906200D01*
X210356000Y-11906200D02*
X209231000Y-11906200D01*
X209231000Y-11906200D02*
X208031000Y-11906200D01*
X208031000Y-11906200D02*
X206906000Y-11906200D01*
X206906000Y-11906200D02*
X205751000Y-10751100D01*
X205751000Y-10751100D02*
X193386000Y-10751100D01*
X193386000Y-10751100D02*
X192231000Y-11906200D01*
X192231000Y-11906200D02*
X191306000Y-11906200D01*
X188418000Y-11906200D02*
X188981000Y-11906200D01*
X188981000Y-11906200D02*
X190181000Y-11906200D01*
X191306000Y-11906200D02*
X190181000Y-11906200D01*
X267881200Y-11906200D02*
X274706250Y-11906200D01*
X265500000Y-9525000D02*
X267881200Y-11906200D01*
X264000000Y-9525000D02*
X265500000Y-9525000D01*
X277087450Y-9525000D02*
X274706250Y-11906200D01*
X286612500Y-9525000D02*
X277087450Y-9525000D01*
X247462200Y-9525000D02*
X262800000Y-9525000D01*
X246131000Y-10856200D02*
X247462200Y-9525000D01*
X246131000Y-11906200D02*
X246131000Y-10856200D01*
G04 #@! TO.N,Net-(D10-Pad2)*
X196781000Y-11906200D02*
X195581000Y-11906200D01*
X195581000Y-11906200D02*
X194456000Y-11906200D01*
G04 #@! TO.N,Net-(D11-Pad2)*
X215831000Y-11906200D02*
X214631000Y-11906200D01*
X214631000Y-11906200D02*
X213506000Y-11906200D01*
G04 #@! TO.N,Net-(D12-Pad2)*
X234881000Y-11906200D02*
X233681000Y-11906200D01*
X233681000Y-11906200D02*
X232556000Y-11906200D01*
G04 #@! TO.N,Net-(D13-Pad2)*
X253931000Y-11906200D02*
X252731000Y-11906200D01*
X252731000Y-11906200D02*
X251606000Y-11906200D01*
G04 #@! TO.N,Net-(D15-Pad2)*
X280181000Y-11906200D02*
X281306000Y-11906200D01*
X281306000Y-11906200D02*
X282506000Y-11906200D01*
G04 #@! TO.N,Net-(D17-Pad2)*
X27768800Y-30956200D02*
X28893800Y-30956200D01*
X28893800Y-30956200D02*
X30093800Y-30956200D01*
G04 #@! TO.N,Net-(D18-Pad2)*
X51581200Y-30956200D02*
X52706200Y-30956200D01*
X52706200Y-30956200D02*
X53906200Y-30956200D01*
G04 #@! TO.N,Net-(D19-Pad2)*
X70631200Y-30956200D02*
X71756200Y-30956200D01*
X71756200Y-30956200D02*
X72956200Y-30956200D01*
G04 #@! TO.N,Net-(D19-Pad1)*
X123506000Y-30956200D02*
X122306000Y-30956200D01*
X123506000Y-30956200D02*
X124631000Y-30956200D01*
X124631000Y-30956200D02*
X125556000Y-30956200D01*
X125556000Y-30956200D02*
X126682000Y-29830900D01*
X126682000Y-29830900D02*
X134343000Y-29830900D01*
X134343000Y-29830900D02*
X135469000Y-30956200D01*
X135469000Y-30956200D02*
X136594000Y-30956200D01*
X104456000Y-30956200D02*
X103256000Y-30956200D01*
X104456000Y-30956200D02*
X105581000Y-30956200D01*
X105581000Y-30956200D02*
X106506000Y-30956200D01*
X106506000Y-30956200D02*
X107632000Y-29830900D01*
X107632000Y-29830900D02*
X120055000Y-29830900D01*
X120055000Y-29830900D02*
X121181000Y-30956200D01*
X121181000Y-30956200D02*
X122306000Y-30956200D01*
X85406200Y-30956200D02*
X84206200Y-30956200D01*
X84206200Y-30956200D02*
X83080900Y-30956200D01*
X83080900Y-30956200D02*
X81932300Y-29807600D01*
X81932300Y-29807600D02*
X69555100Y-29807600D01*
X69555100Y-29807600D02*
X68406500Y-30956200D01*
X68406500Y-30956200D02*
X67481200Y-30956200D01*
X67481200Y-30956200D02*
X66356200Y-30956200D01*
X66356200Y-30956200D02*
X65156200Y-30956200D01*
X85406200Y-30956200D02*
X86531200Y-30956200D01*
X86531200Y-30956200D02*
X87456500Y-30956200D01*
X87456500Y-30956200D02*
X88581800Y-29830900D01*
X88581800Y-29830900D02*
X101005000Y-29830900D01*
X101005000Y-29830900D02*
X102131000Y-30956200D01*
X102131000Y-30956200D02*
X103256000Y-30956200D01*
X219881000Y-30956200D02*
X218756000Y-30956200D01*
X217556000Y-30956200D02*
X218756000Y-30956200D01*
X217556000Y-30956200D02*
X216431000Y-30956200D01*
X216431000Y-30956200D02*
X215246000Y-32140600D01*
X215246000Y-32140600D02*
X202941000Y-32140600D01*
X202941000Y-32140600D02*
X201756000Y-30956200D01*
X201756000Y-30956200D02*
X200831000Y-30956200D01*
X200831000Y-30956200D02*
X199706000Y-30956200D01*
X199706000Y-30956200D02*
X198506000Y-30956200D01*
X198506000Y-30956200D02*
X197381000Y-30956200D01*
X197381000Y-30956200D02*
X196197000Y-32140200D01*
X196197000Y-32140200D02*
X183890000Y-32140200D01*
X183890000Y-32140200D02*
X182706000Y-30956200D01*
X182706000Y-30956200D02*
X181781000Y-30956200D01*
X181781000Y-30956200D02*
X180656000Y-30956200D01*
X180656000Y-30956200D02*
X179456000Y-30956200D01*
X179456000Y-30956200D02*
X178331000Y-30956200D01*
X178331000Y-30956200D02*
X177147000Y-32140200D01*
X177147000Y-32140200D02*
X169603000Y-32140200D01*
X169603000Y-32140200D02*
X168419000Y-30956200D01*
X168419000Y-30956200D02*
X167494000Y-30956200D01*
X167494000Y-30956200D02*
X166369000Y-30956200D01*
X165169000Y-30956200D02*
X166369000Y-30956200D01*
X136594000Y-30956200D02*
X137794000Y-30956200D01*
X138919000Y-30956200D02*
X137794000Y-30956200D01*
X138919000Y-30956200D02*
X139844000Y-30956200D01*
X139844000Y-30956200D02*
X142024000Y-28776900D01*
X142024000Y-28776900D02*
X163060000Y-28776900D01*
X163060000Y-28776900D02*
X164767000Y-27070600D01*
G04 #@! TO.N,Net-(D20-Pad2)*
X89681200Y-30956200D02*
X90806200Y-30956200D01*
X90806200Y-30956200D02*
X92006200Y-30956200D01*
G04 #@! TO.N,Net-(D21-Pad2)*
X108731000Y-30956200D02*
X109856000Y-30956200D01*
X109856000Y-30956200D02*
X111056000Y-30956200D01*
G04 #@! TO.N,Net-(D22-Pad2)*
X127781000Y-30956200D02*
X128906000Y-30956200D01*
X128906000Y-30956200D02*
X130106000Y-30956200D01*
G04 #@! TO.N,Net-(D23-Pad2)*
X144394000Y-30956200D02*
X143194000Y-30956200D01*
X143194000Y-30956200D02*
X142069000Y-30956200D01*
G04 #@! TO.N,Net-(D24-Pad2)*
X172969000Y-30956200D02*
X171769000Y-30956200D01*
X171769000Y-30956200D02*
X170644000Y-30956200D01*
G04 #@! TO.N,Net-(D25-Pad2)*
X187256000Y-30956200D02*
X186056000Y-30956200D01*
X186056000Y-30956200D02*
X184931000Y-30956200D01*
G04 #@! TO.N,Net-(D26-Pad2)*
X206306000Y-30956200D02*
X205106000Y-30956200D01*
X205106000Y-30956200D02*
X203981000Y-30956200D01*
G04 #@! TO.N,Net-(D27-Pad2)*
X225356000Y-30956200D02*
X224156000Y-30956200D01*
X224156000Y-30956200D02*
X223031000Y-30956200D01*
G04 #@! TO.N,Net-(D28-Pad1)*
X110344000Y-50006200D02*
X109219000Y-50006200D01*
X91293800Y-50006200D02*
X92219100Y-50006200D01*
X92219100Y-50006200D02*
X93407200Y-48818100D01*
X93407200Y-48818100D02*
X105706000Y-48818100D01*
X105706000Y-48818100D02*
X106894000Y-50006200D01*
X106894000Y-50006200D02*
X108019000Y-50006200D01*
X109219000Y-50006200D02*
X108019000Y-50006200D01*
X91293800Y-50006200D02*
X90168800Y-50006200D01*
X90168800Y-50006200D02*
X88968800Y-50006200D01*
X88968800Y-50006200D02*
X87843500Y-50006200D01*
X87843500Y-50006200D02*
X86716900Y-48879600D01*
X86716900Y-48879600D02*
X74295700Y-48879600D01*
X74295700Y-48879600D02*
X73169100Y-50006200D01*
X73169100Y-50006200D02*
X72243800Y-50006200D01*
X25875000Y-50006200D02*
X24675000Y-50006200D01*
X27000000Y-50006200D02*
X25875000Y-50006200D01*
X27000000Y-50006200D02*
X27925300Y-50006200D01*
X27925300Y-50006200D02*
X29050600Y-51131500D01*
X29050600Y-51131500D02*
X48618200Y-51131500D01*
X48618200Y-51131500D02*
X49743500Y-50006200D01*
X49743500Y-50006200D02*
X50868800Y-50006200D01*
X281794000Y-30956200D02*
X280669000Y-30956200D01*
X280669000Y-30956200D02*
X279469000Y-30956200D01*
X279469000Y-30956200D02*
X278344000Y-30956200D01*
X278344000Y-30956200D02*
X277195000Y-32104800D01*
X277195000Y-32104800D02*
X260055000Y-32104800D01*
X260055000Y-32104800D02*
X258906000Y-30956200D01*
X258906000Y-30956200D02*
X257981000Y-30956200D01*
X129394000Y-50006200D02*
X128269000Y-50006200D01*
X110344000Y-50006200D02*
X111269000Y-50006200D01*
X111269000Y-50006200D02*
X112396000Y-48879600D01*
X112396000Y-48879600D02*
X124817000Y-48879600D01*
X124817000Y-48879600D02*
X125944000Y-50006200D01*
X125944000Y-50006200D02*
X127069000Y-50006200D01*
X127069000Y-50006200D02*
X128269000Y-50006200D01*
X72243800Y-50006200D02*
X71118800Y-50006200D01*
X53193800Y-50006200D02*
X54119100Y-50006200D01*
X54119100Y-50006200D02*
X55267700Y-51154800D01*
X55267700Y-51154800D02*
X67644900Y-51154800D01*
X67644900Y-51154800D02*
X68793500Y-50006200D01*
X68793500Y-50006200D02*
X69918800Y-50006200D01*
X69918800Y-50006200D02*
X71118800Y-50006200D01*
X50868800Y-50006200D02*
X52068800Y-50006200D01*
X52068800Y-50006200D02*
X53193800Y-50006200D01*
X257981000Y-30956200D02*
X256856000Y-30956200D01*
X256856000Y-30956200D02*
X255656000Y-30956200D01*
X255656000Y-30956200D02*
X254531000Y-30956200D01*
X254531000Y-30956200D02*
X253347000Y-32140300D01*
X253347000Y-32140300D02*
X241040000Y-32140300D01*
X241040000Y-32140300D02*
X239856000Y-30956200D01*
X239856000Y-30956200D02*
X238931000Y-30956200D01*
X236606000Y-30956200D02*
X235481000Y-30956200D01*
X235481000Y-30956200D02*
X232486000Y-33950800D01*
X232486000Y-33950800D02*
X163526000Y-33950800D01*
X163526000Y-33950800D02*
X162786000Y-34691000D01*
X162786000Y-34691000D02*
X152560000Y-34691000D01*
X236606000Y-30956200D02*
X237806000Y-30956200D01*
X238931000Y-30956200D02*
X237806000Y-30956200D01*
X152560000Y-34691000D02*
X151377000Y-34691000D01*
X151377000Y-34691000D02*
X149214000Y-36854000D01*
X149214000Y-36854000D02*
X143556000Y-36854000D01*
X143556000Y-36854000D02*
X142603000Y-35900900D01*
G04 #@! TO.N,Net-(D28-Pad2)*
X244406000Y-30956200D02*
X243206000Y-30956200D01*
X243206000Y-30956200D02*
X242081000Y-30956200D01*
G04 #@! TO.N,Net-(D29-Pad2)*
X263456000Y-30956200D02*
X262256000Y-30956200D01*
X262256000Y-30956200D02*
X261131000Y-30956200D01*
G04 #@! TO.N,Net-(D30-Pad2)*
X284944000Y-30956200D02*
X286069000Y-30956200D01*
X286069000Y-30956200D02*
X287269000Y-30956200D01*
G04 #@! TO.N,Net-(D31-Pad2)*
X30150000Y-50006200D02*
X31275000Y-50006200D01*
X31275000Y-50006200D02*
X32475000Y-50006200D01*
G04 #@! TO.N,Net-(D32-Pad2)*
X58668800Y-50006200D02*
X57468800Y-50006200D01*
X57468800Y-50006200D02*
X56343800Y-50006200D01*
G04 #@! TO.N,Net-(D33-Pad2)*
X77718800Y-50006200D02*
X76518800Y-50006200D01*
X76518800Y-50006200D02*
X75393800Y-50006200D01*
G04 #@! TO.N,Net-(D34-Pad2)*
X94443800Y-50006200D02*
X95568800Y-50006200D01*
X95568800Y-50006200D02*
X96768800Y-50006200D01*
G04 #@! TO.N,Net-(D35-Pad2)*
X113494000Y-50006200D02*
X114619000Y-50006200D01*
X114619000Y-50006200D02*
X115819000Y-50006200D01*
G04 #@! TO.N,Net-(D36-Pad2)*
X134869000Y-50006200D02*
X133669000Y-50006200D01*
X133669000Y-50006200D02*
X132544000Y-50006200D01*
G04 #@! TO.N,Net-(D37-Pad2)*
X151594000Y-50006200D02*
X152719000Y-50006200D01*
X152719000Y-50006200D02*
X153919000Y-50006200D01*
G04 #@! TO.N,Net-(D37-Pad1)*
X223519000Y-50006200D02*
X222319000Y-50006200D01*
X223519000Y-50006200D02*
X224644000Y-50006200D01*
X224644000Y-50006200D02*
X225569000Y-50006200D01*
X225569000Y-50006200D02*
X226695000Y-48880900D01*
X226695000Y-48880900D02*
X239118000Y-48880900D01*
X239118000Y-48880900D02*
X240244000Y-50006200D01*
X240244000Y-50006200D02*
X241369000Y-50006200D01*
X204469000Y-50006200D02*
X203269000Y-50006200D01*
X204469000Y-50006200D02*
X205594000Y-50006200D01*
X205594000Y-50006200D02*
X206519000Y-50006200D01*
X206519000Y-50006200D02*
X207645000Y-48880900D01*
X207645000Y-48880900D02*
X220068000Y-48880900D01*
X220068000Y-48880900D02*
X221194000Y-50006200D01*
X221194000Y-50006200D02*
X222319000Y-50006200D01*
X185419000Y-50006200D02*
X184219000Y-50006200D01*
X184219000Y-50006200D02*
X183094000Y-50006200D01*
X183094000Y-50006200D02*
X181945000Y-51154800D01*
X181945000Y-51154800D02*
X169568000Y-51154800D01*
X169568000Y-51154800D02*
X168419000Y-50006200D01*
X168419000Y-50006200D02*
X167494000Y-50006200D01*
X167494000Y-50006200D02*
X166369000Y-50006200D01*
X166369000Y-50006200D02*
X165169000Y-50006200D01*
X165169000Y-50006200D02*
X164044000Y-50006200D01*
X164044000Y-50006200D02*
X162895000Y-51154800D01*
X162895000Y-51154800D02*
X150518000Y-51154800D01*
X148444000Y-50006200D02*
X149369000Y-50006200D01*
X149369000Y-50006200D02*
X150518000Y-51154800D01*
X148444000Y-50006200D02*
X147319000Y-50006200D01*
X147319000Y-50006200D02*
X146119000Y-50006200D01*
X185419000Y-50006200D02*
X186544000Y-50006200D01*
X186544000Y-50006200D02*
X187469000Y-50006200D01*
X187469000Y-50006200D02*
X188595000Y-48880900D01*
X188595000Y-48880900D02*
X201018000Y-48880900D01*
X201018000Y-48880900D02*
X202144000Y-50006200D01*
X202144000Y-50006200D02*
X203269000Y-50006200D01*
X29437500Y-69056200D02*
X30637500Y-69056200D01*
X31762500Y-69056200D02*
X30637500Y-69056200D01*
X31762500Y-69056200D02*
X32687800Y-69056200D01*
X32687800Y-69056200D02*
X38045100Y-63698900D01*
X38045100Y-63698900D02*
X137034000Y-63698900D01*
X137034000Y-63698900D02*
X142402000Y-58330800D01*
X142402000Y-58330800D02*
X145467000Y-58330800D01*
X145467000Y-58330800D02*
X145607000Y-58470800D01*
X145607000Y-58470800D02*
X146818000Y-58470800D01*
X146818000Y-58470800D02*
X150518000Y-54771100D01*
X150518000Y-54771100D02*
X150518000Y-51154800D01*
X274650000Y-50006200D02*
X273525000Y-50006200D01*
X272325000Y-50006200D02*
X273525000Y-50006200D01*
X272325000Y-50006200D02*
X271200000Y-50006200D01*
X271200000Y-50006200D02*
X270018000Y-48824400D01*
X270018000Y-48824400D02*
X264851000Y-48824400D01*
X264851000Y-48824400D02*
X263669000Y-50006200D01*
X263669000Y-50006200D02*
X262744000Y-50006200D01*
X262744000Y-50006200D02*
X261619000Y-50006200D01*
X260419000Y-50006200D02*
X261619000Y-50006200D01*
X260419000Y-50006200D02*
X259294000Y-50006200D01*
X259294000Y-50006200D02*
X258168000Y-48880900D01*
X258168000Y-48880900D02*
X245745000Y-48880900D01*
X245745000Y-48880900D02*
X244619000Y-50006200D01*
X244619000Y-50006200D02*
X243694000Y-50006200D01*
X241369000Y-50006200D02*
X242569000Y-50006200D01*
X243694000Y-50006200D02*
X242569000Y-50006200D01*
G04 #@! TO.N,Net-(D38-Pad2)*
X170644000Y-50006200D02*
X171769000Y-50006200D01*
X171769000Y-50006200D02*
X172969000Y-50006200D01*
G04 #@! TO.N,Net-(D39-Pad2)*
X189694000Y-50006200D02*
X190819000Y-50006200D01*
X190819000Y-50006200D02*
X192019000Y-50006200D01*
G04 #@! TO.N,Net-(D40-Pad2)*
X208744000Y-50006200D02*
X209869000Y-50006200D01*
X209869000Y-50006200D02*
X211069000Y-50006200D01*
G04 #@! TO.N,Net-(D41-Pad2)*
X227794000Y-50006200D02*
X228919000Y-50006200D01*
X228919000Y-50006200D02*
X230119000Y-50006200D01*
G04 #@! TO.N,Net-(D42-Pad2)*
X249169000Y-50006200D02*
X247969000Y-50006200D01*
X247969000Y-50006200D02*
X246844000Y-50006200D01*
G04 #@! TO.N,Net-(D43-Pad2)*
X268219000Y-50006200D02*
X267019000Y-50006200D01*
X267019000Y-50006200D02*
X265894000Y-50006200D01*
G04 #@! TO.N,Net-(D44-Pad2)*
X280125000Y-50006200D02*
X278925000Y-50006200D01*
X278925000Y-50006200D02*
X277800000Y-50006200D01*
G04 #@! TO.N,Net-(D45-Pad2)*
X37237500Y-69056200D02*
X36037500Y-69056200D01*
X36037500Y-69056200D02*
X34912500Y-69056200D01*
G04 #@! TO.N,Net-(D46-Pad1)*
X196069000Y-69056200D02*
X194944000Y-69056200D01*
X194944000Y-69056200D02*
X193744000Y-69056200D01*
X193744000Y-69056200D02*
X192619000Y-69056200D01*
X192619000Y-69056200D02*
X191490000Y-67927500D01*
X191490000Y-67927500D02*
X179073000Y-67927500D01*
X179073000Y-67927500D02*
X177944000Y-69056200D01*
X177944000Y-69056200D02*
X177019000Y-69056200D01*
X177019000Y-69056200D02*
X175894000Y-69056200D01*
X175894000Y-69056200D02*
X174694000Y-69056200D01*
X157969000Y-69056200D02*
X156844000Y-69056200D01*
X156844000Y-69056200D02*
X155644000Y-69056200D01*
X155644000Y-69056200D02*
X154519000Y-69056200D01*
X154519000Y-69056200D02*
X153390000Y-67927500D01*
X153390000Y-67927500D02*
X140973000Y-67927500D01*
X140973000Y-67927500D02*
X139844000Y-69056200D01*
X139844000Y-69056200D02*
X138919000Y-69056200D01*
X138919000Y-69056200D02*
X137794000Y-69056200D01*
X137794000Y-69056200D02*
X136594000Y-69056200D01*
X136594000Y-69056200D02*
X135469000Y-69056200D01*
X135469000Y-69056200D02*
X134340000Y-67927500D01*
X134340000Y-67927500D02*
X121923000Y-67927500D01*
X121923000Y-67927500D02*
X120794000Y-69056200D01*
X120794000Y-69056200D02*
X119869000Y-69056200D01*
X119869000Y-69056200D02*
X118744000Y-69056200D01*
X118744000Y-69056200D02*
X117544000Y-69056200D01*
X117544000Y-69056200D02*
X116419000Y-69056200D01*
X116419000Y-69056200D02*
X115290000Y-67927500D01*
X115290000Y-67927500D02*
X102873000Y-67927500D01*
X102873000Y-67927500D02*
X101744000Y-69056200D01*
X101744000Y-69056200D02*
X100819000Y-69056200D01*
X100819000Y-69056200D02*
X99694000Y-69056200D01*
X99694000Y-69056200D02*
X98494000Y-69056200D01*
X98494000Y-69056200D02*
X97368700Y-69056200D01*
X97368700Y-69056200D02*
X96240000Y-67927500D01*
X96240000Y-67927500D02*
X83822800Y-67927500D01*
X83822800Y-67927500D02*
X82694100Y-69056200D01*
X82694100Y-69056200D02*
X81768800Y-69056200D01*
X81768800Y-69056200D02*
X80643800Y-69056200D01*
X80643800Y-69056200D02*
X79443800Y-69056200D01*
X79443800Y-69056200D02*
X78318500Y-69056200D01*
X78318500Y-69056200D02*
X77189800Y-67927500D01*
X77189800Y-67927500D02*
X64772800Y-67927500D01*
X64772800Y-67927500D02*
X63644100Y-69056200D01*
X63644100Y-69056200D02*
X62718800Y-69056200D01*
X62718800Y-69056200D02*
X61593800Y-69056200D01*
X60393800Y-69056200D02*
X61593800Y-69056200D01*
X60393800Y-69056200D02*
X59268500Y-69056200D01*
X59268500Y-69056200D02*
X58086700Y-67874400D01*
X58086700Y-67874400D02*
X45775900Y-67874400D01*
X45775900Y-67874400D02*
X44594100Y-69056200D01*
X44594100Y-69056200D02*
X43668800Y-69056200D01*
X41343800Y-69056200D02*
X42543800Y-69056200D01*
X43668800Y-69056200D02*
X42543800Y-69056200D01*
G04 #@! TO.N,Net-(D46-Pad2)*
X49143800Y-69056200D02*
X47943800Y-69056200D01*
X47943800Y-69056200D02*
X46818800Y-69056200D01*
G04 #@! TO.N,Net-(D47-Pad2)*
X68193800Y-69056200D02*
X66993800Y-69056200D01*
X66993800Y-69056200D02*
X65868800Y-69056200D01*
G04 #@! TO.N,Net-(D48-Pad2)*
X84918800Y-69056200D02*
X86043800Y-69056200D01*
X86043800Y-69056200D02*
X87243800Y-69056200D01*
G04 #@! TO.N,Net-(D49-Pad2)*
X103969000Y-69056200D02*
X105094000Y-69056200D01*
X105094000Y-69056200D02*
X106294000Y-69056200D01*
G04 #@! TO.N,Net-(D50-Pad2)*
X123019000Y-69056200D02*
X124144000Y-69056200D01*
X124144000Y-69056200D02*
X125344000Y-69056200D01*
G04 #@! TO.N,Net-(D51-Pad2)*
X142069000Y-69056200D02*
X143194000Y-69056200D01*
X143194000Y-69056200D02*
X144394000Y-69056200D01*
G04 #@! TO.N,Net-(D52-Pad2)*
X161119000Y-69056200D02*
X162244000Y-69056200D01*
X162244000Y-69056200D02*
X163444000Y-69056200D01*
G04 #@! TO.N,Net-(D53-Pad2)*
X180169000Y-69056200D02*
X181294000Y-69056200D01*
X181294000Y-69056200D02*
X182494000Y-69056200D01*
G04 #@! TO.N,Net-(D54-Pad2)*
X199219000Y-69056200D02*
X200344000Y-69056200D01*
X200344000Y-69056200D02*
X201544000Y-69056200D01*
G04 #@! TO.N,Net-(D55-Pad2)*
X218269000Y-69056200D02*
X219394000Y-69056200D01*
X219394000Y-69056200D02*
X220594000Y-69056200D01*
G04 #@! TO.N,Net-(D55-Pad1)*
X250837000Y-88106200D02*
X249712000Y-88106200D01*
X249712000Y-88106200D02*
X248512000Y-88106200D01*
X248512000Y-88106200D02*
X247387000Y-88106200D01*
X247387000Y-88106200D02*
X246238000Y-89254800D01*
X246238000Y-89254800D02*
X236243000Y-89254800D01*
X236243000Y-89254800D02*
X235094000Y-88106200D01*
X235094000Y-88106200D02*
X234169000Y-88106200D01*
X234169000Y-88106200D02*
X233044000Y-88106200D01*
X233044000Y-88106200D02*
X231844000Y-88106200D01*
X152081000Y-88106200D02*
X150881000Y-88106200D01*
X150881000Y-88106200D02*
X96907000Y-88106200D01*
X96907000Y-88106200D02*
X95758400Y-89254800D01*
X95758400Y-89254800D02*
X74317700Y-89254800D01*
X74317700Y-89254800D02*
X73169100Y-88106200D01*
X73169100Y-88106200D02*
X72243800Y-88106200D01*
X72243800Y-88106200D02*
X71118800Y-88106200D01*
X71118800Y-88106200D02*
X69918800Y-88106200D01*
X69918800Y-88106200D02*
X68793500Y-88106200D01*
X68793500Y-88106200D02*
X67663600Y-89236100D01*
X67663600Y-89236100D02*
X52867700Y-89236100D01*
X52867700Y-89236100D02*
X51737800Y-88106200D01*
X51737800Y-88106200D02*
X50812500Y-88106200D01*
X213994000Y-69056200D02*
X212794000Y-69056200D01*
X213994000Y-69056200D02*
X215119000Y-69056200D01*
X215119000Y-69056200D02*
X216044000Y-69056200D01*
X216044000Y-69056200D02*
X217170000Y-70181500D01*
X217170000Y-70181500D02*
X229593000Y-70181500D01*
X229593000Y-70181500D02*
X230719000Y-69056200D01*
X230719000Y-69056200D02*
X231844000Y-69056200D01*
X48487500Y-88106200D02*
X49687500Y-88106200D01*
X50812500Y-88106200D02*
X49687500Y-88106200D01*
X152081000Y-88106200D02*
X153206000Y-88106200D01*
X153206000Y-88106200D02*
X154131000Y-88106200D01*
X154131000Y-88106200D02*
X155257000Y-86980900D01*
X155257000Y-86980900D02*
X229593000Y-86980900D01*
X229593000Y-86980900D02*
X230719000Y-88106200D01*
X230719000Y-88106200D02*
X231844000Y-88106200D01*
X295275000Y-82481200D02*
X295275000Y-81281200D01*
X295275000Y-80156200D02*
X295275000Y-81281200D01*
X267562000Y-69056200D02*
X268762000Y-69056200D01*
X269887000Y-69056200D02*
X268762000Y-69056200D01*
X231844000Y-69056200D02*
X233044000Y-69056200D01*
X234169000Y-69056200D02*
X233044000Y-69056200D01*
G04 #@! TO.N,Net-(D56-Pad2)*
X239644000Y-69056200D02*
X238444000Y-69056200D01*
X238444000Y-69056200D02*
X237319000Y-69056200D01*
G04 #@! TO.N,Net-(D57-Pad2)*
X275362000Y-69056200D02*
X274162000Y-69056200D01*
X274162000Y-69056200D02*
X273037000Y-69056200D01*
G04 #@! TO.N,Net-(D58-Pad2)*
X290671000Y-73501200D02*
X294095000Y-73501200D01*
X294095000Y-73501200D02*
X295275000Y-74681200D01*
X295275000Y-74681200D02*
X295275000Y-75881200D01*
X295275000Y-75881200D02*
X295275000Y-77006200D01*
G04 #@! TO.N,Net-(D59-Pad2)*
X56287500Y-88106200D02*
X55087500Y-88106200D01*
X55087500Y-88106200D02*
X53962500Y-88106200D01*
G04 #@! TO.N,Net-(D60-Pad2)*
X75393800Y-88106200D02*
X76518800Y-88106200D01*
X76518800Y-88106200D02*
X77718800Y-88106200D01*
G04 #@! TO.N,Net-(D61-Pad2)*
X156356000Y-88106200D02*
X157481000Y-88106200D01*
X157481000Y-88106200D02*
X158681000Y-88106200D01*
G04 #@! TO.N,Net-(D62-Pad2)*
X237319000Y-88106200D02*
X238444000Y-88106200D01*
X238444000Y-88106200D02*
X239644000Y-88106200D01*
G04 #@! TO.N,Net-(D63-Pad2)*
X253987000Y-88106200D02*
X255112000Y-88106200D01*
X255112000Y-88106200D02*
X256312000Y-88106200D01*
G04 #@! TO.N,Net-(K1-Pad1)*
X162401000Y-27590000D02*
X166213000Y-23778000D01*
X166213000Y-23778000D02*
X179809000Y-23778000D01*
X179809000Y-23778000D02*
X184696000Y-18891200D01*
X184696000Y-18891200D02*
X189071000Y-18891200D01*
X65246200Y-37941200D02*
X65246200Y-39980000D01*
X65246200Y-39980000D02*
X70357400Y-45091200D01*
X70357400Y-45091200D02*
X134309000Y-45091200D01*
X134309000Y-45091200D02*
X146209000Y-56991200D01*
X50033600Y-24649200D02*
X33466800Y-24649200D01*
X33466800Y-24649200D02*
X27708800Y-18891200D01*
X27708800Y-18891200D02*
X17621200Y-18891200D01*
G04 #@! TO.N,Net-(K11-Pad1)*
X84296200Y-33128800D02*
X84296200Y-37941200D01*
X162401000Y-30130000D02*
X161131000Y-31400000D01*
X161131000Y-31400000D02*
X146834000Y-31400000D01*
X146834000Y-31400000D02*
X145105000Y-33128800D01*
X145105000Y-33128800D02*
X84296200Y-33128800D01*
X84296200Y-33128800D02*
X40506400Y-33128800D01*
X40506400Y-33128800D02*
X40196400Y-32818800D01*
X162401000Y-30130000D02*
X162733000Y-30130000D01*
X162733000Y-30130000D02*
X167113000Y-25750500D01*
X167113000Y-25750500D02*
X198794000Y-25750500D01*
X198794000Y-25750500D02*
X205654000Y-18891200D01*
X205654000Y-18891200D02*
X208121000Y-18891200D01*
G04 #@! TO.N,Net-(K12-Pad1)*
X281525000Y-50006300D02*
X281525000Y-42069200D01*
X281525000Y-42069200D02*
X279814000Y-40358100D01*
X279814000Y-40358100D02*
X279814000Y-37941200D01*
X267652000Y-76041200D02*
X271462000Y-72230700D01*
X271462000Y-72230700D02*
X271462000Y-66675000D01*
X258128000Y-76041200D02*
X267652000Y-76041200D01*
X162401000Y-32670000D02*
X161275000Y-33795600D01*
X161275000Y-33795600D02*
X107492000Y-33795600D01*
X107492000Y-33795600D02*
X103346000Y-37941200D01*
X103346000Y-37941200D02*
X86914300Y-37941200D01*
X86914300Y-37941200D02*
X85434400Y-39421100D01*
X85434400Y-39421100D02*
X83725000Y-39421100D01*
X83725000Y-39421100D02*
X83568700Y-39264800D01*
X83568700Y-39264800D02*
X71551400Y-39264800D01*
X184309000Y-56991200D02*
X197599000Y-56991200D01*
X197599000Y-56991200D02*
X212083000Y-71475000D01*
X212083000Y-71475000D02*
X253562000Y-71475000D01*
X253562000Y-71475000D02*
X258128000Y-76041200D01*
X175190000Y-29566000D02*
X214029000Y-29566000D01*
X214029000Y-29566000D02*
X224704000Y-18891200D01*
X224704000Y-18891200D02*
X227171000Y-18891200D01*
G04 #@! TO.N,Net-(K13-Pad1)*
X20002500Y-56991200D02*
X24765000Y-56991200D01*
X74771200Y-18891200D02*
X78772400Y-14890000D01*
X78772400Y-14890000D02*
X147161000Y-14890000D01*
X203359000Y-56991200D02*
X219757000Y-56991200D01*
X219757000Y-56991200D02*
X220057000Y-56690600D01*
X284321000Y-76041200D02*
X271466000Y-63186300D01*
X271466000Y-63186300D02*
X226553000Y-63186300D01*
X226553000Y-63186300D02*
X220057000Y-56690600D01*
X220057000Y-56690600D02*
X220057000Y-56310600D01*
X220057000Y-56310600D02*
X220396000Y-55971800D01*
G04 #@! TO.N,Net-(K14-Pad1)*
X147161000Y-17430000D02*
X146790000Y-17801500D01*
X146790000Y-17801500D02*
X134008000Y-17801500D01*
X134008000Y-17801500D02*
X133185000Y-16978600D01*
X133185000Y-16978600D02*
X124654000Y-16978600D01*
X124654000Y-16978600D02*
X123786000Y-17846800D01*
X123786000Y-17846800D02*
X118224000Y-17846800D01*
X118224000Y-17846800D02*
X117772000Y-17394400D01*
X117772000Y-17394400D02*
X110982000Y-17394400D01*
X110982000Y-17394400D02*
X109485000Y-18891200D01*
X109485000Y-18891200D02*
X93821200Y-18891200D01*
X232230000Y-48134100D02*
X159934000Y-48134100D01*
X159934000Y-48134100D02*
X149741000Y-37941200D01*
X149741000Y-37941200D02*
X141446000Y-37941200D01*
G04 #@! TO.N,Net-(K15-Pad1)*
X112871000Y-18891200D02*
X128812000Y-18891200D01*
X128812000Y-18891200D02*
X130274000Y-17428900D01*
X130274000Y-17428900D02*
X132680000Y-17428900D01*
X132680000Y-17428900D02*
X133666000Y-18414100D01*
X133666000Y-18414100D02*
X145605000Y-18414100D01*
X145605000Y-18414100D02*
X147161000Y-19970000D01*
X160496000Y-37941200D02*
X151806000Y-37941200D01*
X244670000Y-47387300D02*
X180106000Y-47387300D01*
X180106000Y-47387300D02*
X170660000Y-37941200D01*
X170660000Y-37941200D02*
X160496000Y-37941200D01*
G04 #@! TO.N,Net-(K16-Pad1)*
X131921000Y-18891200D02*
X143542000Y-18891200D01*
X143542000Y-18891200D02*
X147161000Y-22510000D01*
X184539000Y-52388700D02*
X255906000Y-52388700D01*
X255906000Y-52388700D02*
X260509000Y-56991200D01*
X179546000Y-37941200D02*
X178645000Y-37040600D01*
X178645000Y-37040600D02*
X162454000Y-37040600D01*
X162454000Y-37040600D02*
X161229000Y-35815700D01*
X161229000Y-35815700D02*
X151364000Y-35815700D01*
G04 #@! TO.N,Net-(K17-Pad1)*
X22383800Y-37941200D02*
X22383800Y-39962300D01*
X22383800Y-39962300D02*
X30084900Y-47663400D01*
X30084900Y-47663400D02*
X113307000Y-47663400D01*
X198596000Y-37941200D02*
X182164000Y-37941200D01*
X182164000Y-37941200D02*
X180684000Y-39421100D01*
X180684000Y-39421100D02*
X178975000Y-39421100D01*
X178975000Y-39421100D02*
X177045000Y-37490900D01*
X177045000Y-37490900D02*
X162267000Y-37490900D01*
X162267000Y-37490900D02*
X161255000Y-36478400D01*
X161255000Y-36478400D02*
X151752000Y-36478400D01*
X151752000Y-36478400D02*
X151390000Y-36839600D01*
X151390000Y-36839600D02*
X150254000Y-36839600D01*
G04 #@! TO.N,Net-(K18-Pad1)*
X20002500Y-76041200D02*
X29527500Y-76041200D01*
X170021000Y-18891200D02*
X170021000Y-21879000D01*
X170021000Y-21879000D02*
X168761000Y-23138900D01*
X168761000Y-23138900D02*
X165015000Y-23138900D01*
X165015000Y-23138900D02*
X164374000Y-23780000D01*
X164374000Y-23780000D02*
X150971000Y-23780000D01*
X150971000Y-23780000D02*
X147161000Y-27590000D01*
X41593200Y-52613800D02*
X122782000Y-52613800D01*
X122782000Y-52613800D02*
X127159000Y-56991200D01*
X217646000Y-37941200D02*
X203558000Y-37941200D01*
X255746000Y-95091200D02*
X234568000Y-95091200D01*
X234568000Y-95091200D02*
X233601000Y-94124500D01*
G04 #@! TO.N,Net-(J1-Pad3)*
X142084900Y-20575100D02*
X142084900Y-23874600D01*
X142084900Y-23874600D02*
X144881100Y-26670800D01*
G04 #@! TO.N,Net-(J1-Pad4)*
X147161000Y-32670000D02*
X160497900Y-32670000D01*
X160497900Y-32670000D02*
X161767900Y-31400000D01*
X161767900Y-31400000D02*
X162770500Y-31400000D01*
X162770500Y-31400000D02*
X163669600Y-30500900D01*
X163669600Y-30500900D02*
X163669600Y-30333400D01*
X163669600Y-30333400D02*
X167524500Y-26478500D01*
X167524500Y-26478500D02*
X190918800Y-26478500D01*
G04 #@! TD*
M02*
