G04 #@! TF.GenerationSoftware,KiCad,Pcbnew,5.1.8*
G04 #@! TF.CreationDate,2020-11-23T09:17:22-05:00*
G04 #@! TF.ProjectId,unix60pcb,756e6978-3630-4706-9362-2e6b69636164,rev?*
G04 #@! TF.SameCoordinates,Original*
G04 #@! TF.FileFunction,Legend,Bot*
G04 #@! TF.FilePolarity,Positive*
%FSLAX46Y46*%
G04 Gerber Fmt 4.6, Leading zero omitted, Abs format (unit mm)*
G04 Created by KiCad (PCBNEW 5.1.8) date 2020-11-23 09:17:22*
%MOMM*%
%LPD*%
G01*
G04 APERTURE LIST*
%ADD10C,0.150000*%
%ADD11C,0.200000*%
%ADD12C,0.120000*%
G04 APERTURE END LIST*
D10*
X177703171Y-4129138D02*
X177750790Y-4271995D01*
X177798409Y-4319614D01*
X177893647Y-4367233D01*
X178036504Y-4367233D01*
X178131742Y-4319614D01*
X178179361Y-4271995D01*
X178226980Y-4176757D01*
X178226980Y-3795804D01*
X177226980Y-3795804D01*
X177226980Y-4129138D01*
X177274600Y-4224376D01*
X177322219Y-4271995D01*
X177417457Y-4319614D01*
X177512695Y-4319614D01*
X177607933Y-4271995D01*
X177655552Y-4224376D01*
X177703171Y-4129138D01*
X177703171Y-3795804D01*
X177226980Y-5224376D02*
X177226980Y-5033900D01*
X177274600Y-4938661D01*
X177322219Y-4891042D01*
X177465076Y-4795804D01*
X177655552Y-4748185D01*
X178036504Y-4748185D01*
X178131742Y-4795804D01*
X178179361Y-4843423D01*
X178226980Y-4938661D01*
X178226980Y-5129138D01*
X178179361Y-5224376D01*
X178131742Y-5271995D01*
X178036504Y-5319614D01*
X177798409Y-5319614D01*
X177703171Y-5271995D01*
X177655552Y-5224376D01*
X177607933Y-5129138D01*
X177607933Y-4938661D01*
X177655552Y-4843423D01*
X177703171Y-4795804D01*
X177798409Y-4748185D01*
X175163171Y-4129138D02*
X175210790Y-4271995D01*
X175258409Y-4319614D01*
X175353647Y-4367233D01*
X175496504Y-4367233D01*
X175591742Y-4319614D01*
X175639361Y-4271995D01*
X175686980Y-4176757D01*
X175686980Y-3795804D01*
X174686980Y-3795804D01*
X174686980Y-4129138D01*
X174734600Y-4224376D01*
X174782219Y-4271995D01*
X174877457Y-4319614D01*
X174972695Y-4319614D01*
X175067933Y-4271995D01*
X175115552Y-4224376D01*
X175163171Y-4129138D01*
X175163171Y-3795804D01*
X174782219Y-4748185D02*
X174734600Y-4795804D01*
X174686980Y-4891042D01*
X174686980Y-5129138D01*
X174734600Y-5224376D01*
X174782219Y-5271995D01*
X174877457Y-5319614D01*
X174972695Y-5319614D01*
X175115552Y-5271995D01*
X175686980Y-4700566D01*
X175686980Y-5319614D01*
X172143800Y-3238095D02*
X172096180Y-3142857D01*
X172096180Y-3000000D01*
X172143800Y-2857142D01*
X172239038Y-2761904D01*
X172334276Y-2714285D01*
X172524752Y-2666666D01*
X172667609Y-2666666D01*
X172858085Y-2714285D01*
X172953323Y-2761904D01*
X173048561Y-2857142D01*
X173096180Y-3000000D01*
X173096180Y-3095238D01*
X173048561Y-3238095D01*
X173000942Y-3285714D01*
X172667609Y-3285714D01*
X172667609Y-3095238D01*
X173096180Y-3714285D02*
X172096180Y-3714285D01*
X173096180Y-4285714D01*
X172096180Y-4285714D01*
X173096180Y-4761904D02*
X172096180Y-4761904D01*
X172096180Y-5000000D01*
X172143800Y-5142857D01*
X172239038Y-5238095D01*
X172334276Y-5285714D01*
X172524752Y-5333333D01*
X172667609Y-5333333D01*
X172858085Y-5285714D01*
X172953323Y-5238095D01*
X173048561Y-5142857D01*
X173096180Y-5000000D01*
X173096180Y-4761904D01*
X169594280Y-2666666D02*
X170594280Y-3000000D01*
X169594280Y-3333333D01*
X170499042Y-4238095D02*
X170546661Y-4190476D01*
X170594280Y-4047619D01*
X170594280Y-3952380D01*
X170546661Y-3809523D01*
X170451423Y-3714285D01*
X170356185Y-3666666D01*
X170165709Y-3619047D01*
X170022852Y-3619047D01*
X169832376Y-3666666D01*
X169737138Y-3714285D01*
X169641900Y-3809523D01*
X169594280Y-3952380D01*
X169594280Y-4047619D01*
X169641900Y-4190476D01*
X169689519Y-4238095D01*
X170499042Y-5238095D02*
X170546661Y-5190476D01*
X170594280Y-5047619D01*
X170594280Y-4952380D01*
X170546661Y-4809523D01*
X170451423Y-4714285D01*
X170356185Y-4666666D01*
X170165709Y-4619047D01*
X170022852Y-4619047D01*
X169832376Y-4666666D01*
X169737138Y-4714285D01*
X169641900Y-4809523D01*
X169594280Y-4952380D01*
X169594280Y-5047619D01*
X169641900Y-5190476D01*
X169689519Y-5238095D01*
D11*
G04 #@! TO.C,D15*
X276331250Y-13106200D02*
X276331250Y-10706200D01*
X276156250Y-13106200D02*
X276156250Y-10706200D01*
X275981250Y-13106200D02*
X275981250Y-10706200D01*
X275581250Y-10706200D02*
X275581250Y-13106200D01*
X275806250Y-13106200D02*
X275806250Y-10706200D01*
X275681250Y-13106200D02*
X275681250Y-10706200D01*
X275606250Y-13106200D02*
X281406250Y-13106200D01*
X281406250Y-13106200D02*
X281406250Y-10706200D01*
X281406250Y-10706200D02*
X275606250Y-10706200D01*
G04 #@! TO.C,D1*
X24231200Y-10706200D02*
X18431200Y-10706200D01*
X24231200Y-13106200D02*
X24231200Y-10706200D01*
X18431200Y-13106200D02*
X24231200Y-13106200D01*
X18506200Y-13106200D02*
X18506200Y-10706200D01*
X18631200Y-13106200D02*
X18631200Y-10706200D01*
X18406200Y-10706200D02*
X18406200Y-13106200D01*
X18806200Y-13106200D02*
X18806200Y-10706200D01*
X18981200Y-13106200D02*
X18981200Y-10706200D01*
X19156200Y-13106200D02*
X19156200Y-10706200D01*
G04 #@! TO.C,D2*
X43281200Y-10706200D02*
X37481200Y-10706200D01*
X43281200Y-13106200D02*
X43281200Y-10706200D01*
X37481200Y-13106200D02*
X43281200Y-13106200D01*
X37556200Y-13106200D02*
X37556200Y-10706200D01*
X37681200Y-13106200D02*
X37681200Y-10706200D01*
X37456200Y-10706200D02*
X37456200Y-13106200D01*
X37856200Y-13106200D02*
X37856200Y-10706200D01*
X38031200Y-13106200D02*
X38031200Y-10706200D01*
X38206200Y-13106200D02*
X38206200Y-10706200D01*
G04 #@! TO.C,D3*
X62331200Y-10706200D02*
X56531200Y-10706200D01*
X62331200Y-13106200D02*
X62331200Y-10706200D01*
X56531200Y-13106200D02*
X62331200Y-13106200D01*
X56606200Y-13106200D02*
X56606200Y-10706200D01*
X56731200Y-13106200D02*
X56731200Y-10706200D01*
X56506200Y-10706200D02*
X56506200Y-13106200D01*
X56906200Y-13106200D02*
X56906200Y-10706200D01*
X57081200Y-13106200D02*
X57081200Y-10706200D01*
X57256200Y-13106200D02*
X57256200Y-10706200D01*
G04 #@! TO.C,D4*
X81381200Y-10706200D02*
X75581200Y-10706200D01*
X81381200Y-13106200D02*
X81381200Y-10706200D01*
X75581200Y-13106200D02*
X81381200Y-13106200D01*
X75656200Y-13106200D02*
X75656200Y-10706200D01*
X75781200Y-13106200D02*
X75781200Y-10706200D01*
X75556200Y-10706200D02*
X75556200Y-13106200D01*
X75956200Y-13106200D02*
X75956200Y-10706200D01*
X76131200Y-13106200D02*
X76131200Y-10706200D01*
X76306200Y-13106200D02*
X76306200Y-10706200D01*
G04 #@! TO.C,D5*
X100431200Y-10706200D02*
X94631200Y-10706200D01*
X100431200Y-13106200D02*
X100431200Y-10706200D01*
X94631200Y-13106200D02*
X100431200Y-13106200D01*
X94706200Y-13106200D02*
X94706200Y-10706200D01*
X94831200Y-13106200D02*
X94831200Y-10706200D01*
X94606200Y-10706200D02*
X94606200Y-13106200D01*
X95006200Y-13106200D02*
X95006200Y-10706200D01*
X95181200Y-13106200D02*
X95181200Y-10706200D01*
X95356200Y-13106200D02*
X95356200Y-10706200D01*
G04 #@! TO.C,D6*
X114406000Y-13106200D02*
X114406000Y-10706200D01*
X114231000Y-13106200D02*
X114231000Y-10706200D01*
X114056000Y-13106200D02*
X114056000Y-10706200D01*
X113656000Y-10706200D02*
X113656000Y-13106200D01*
X113881000Y-13106200D02*
X113881000Y-10706200D01*
X113756000Y-13106200D02*
X113756000Y-10706200D01*
X113681000Y-13106200D02*
X119481000Y-13106200D01*
X119481000Y-13106200D02*
X119481000Y-10706200D01*
X119481000Y-10706200D02*
X113681000Y-10706200D01*
G04 #@! TO.C,D7*
X133456000Y-13106200D02*
X133456000Y-10706200D01*
X133281000Y-13106200D02*
X133281000Y-10706200D01*
X133106000Y-13106200D02*
X133106000Y-10706200D01*
X132706000Y-10706200D02*
X132706000Y-13106200D01*
X132931000Y-13106200D02*
X132931000Y-10706200D01*
X132806000Y-13106200D02*
X132806000Y-10706200D01*
X132731000Y-13106200D02*
X138531000Y-13106200D01*
X138531000Y-13106200D02*
X138531000Y-10706200D01*
X138531000Y-10706200D02*
X132731000Y-10706200D01*
G04 #@! TO.C,D8*
X152506000Y-13106200D02*
X152506000Y-10706200D01*
X152331000Y-13106200D02*
X152331000Y-10706200D01*
X152156000Y-13106200D02*
X152156000Y-10706200D01*
X151756000Y-10706200D02*
X151756000Y-13106200D01*
X151981000Y-13106200D02*
X151981000Y-10706200D01*
X151856000Y-13106200D02*
X151856000Y-10706200D01*
X151781000Y-13106200D02*
X157581000Y-13106200D01*
X157581000Y-13106200D02*
X157581000Y-10706200D01*
X157581000Y-10706200D02*
X151781000Y-10706200D01*
G04 #@! TO.C,D9*
X176631000Y-10706200D02*
X170831000Y-10706200D01*
X176631000Y-13106200D02*
X176631000Y-10706200D01*
X170831000Y-13106200D02*
X176631000Y-13106200D01*
X170906000Y-13106200D02*
X170906000Y-10706200D01*
X171031000Y-13106200D02*
X171031000Y-10706200D01*
X170806000Y-10706200D02*
X170806000Y-13106200D01*
X171206000Y-13106200D02*
X171206000Y-10706200D01*
X171381000Y-13106200D02*
X171381000Y-10706200D01*
X171556000Y-13106200D02*
X171556000Y-10706200D01*
G04 #@! TO.C,D10*
X195681000Y-10706200D02*
X189881000Y-10706200D01*
X195681000Y-13106200D02*
X195681000Y-10706200D01*
X189881000Y-13106200D02*
X195681000Y-13106200D01*
X189956000Y-13106200D02*
X189956000Y-10706200D01*
X190081000Y-13106200D02*
X190081000Y-10706200D01*
X189856000Y-10706200D02*
X189856000Y-13106200D01*
X190256000Y-13106200D02*
X190256000Y-10706200D01*
X190431000Y-13106200D02*
X190431000Y-10706200D01*
X190606000Y-13106200D02*
X190606000Y-10706200D01*
G04 #@! TO.C,D11*
X214731000Y-10706200D02*
X208931000Y-10706200D01*
X214731000Y-13106200D02*
X214731000Y-10706200D01*
X208931000Y-13106200D02*
X214731000Y-13106200D01*
X209006000Y-13106200D02*
X209006000Y-10706200D01*
X209131000Y-13106200D02*
X209131000Y-10706200D01*
X208906000Y-10706200D02*
X208906000Y-13106200D01*
X209306000Y-13106200D02*
X209306000Y-10706200D01*
X209481000Y-13106200D02*
X209481000Y-10706200D01*
X209656000Y-13106200D02*
X209656000Y-10706200D01*
G04 #@! TO.C,D12*
X233781000Y-10706200D02*
X227981000Y-10706200D01*
X233781000Y-13106200D02*
X233781000Y-10706200D01*
X227981000Y-13106200D02*
X233781000Y-13106200D01*
X228056000Y-13106200D02*
X228056000Y-10706200D01*
X228181000Y-13106200D02*
X228181000Y-10706200D01*
X227956000Y-10706200D02*
X227956000Y-13106200D01*
X228356000Y-13106200D02*
X228356000Y-10706200D01*
X228531000Y-13106200D02*
X228531000Y-10706200D01*
X228706000Y-13106200D02*
X228706000Y-10706200D01*
G04 #@! TO.C,D13*
X252831000Y-10706200D02*
X247031000Y-10706200D01*
X252831000Y-13106200D02*
X252831000Y-10706200D01*
X247031000Y-13106200D02*
X252831000Y-13106200D01*
X247106000Y-13106200D02*
X247106000Y-10706200D01*
X247231000Y-13106200D02*
X247231000Y-10706200D01*
X247006000Y-10706200D02*
X247006000Y-13106200D01*
X247406000Y-13106200D02*
X247406000Y-10706200D01*
X247581000Y-13106200D02*
X247581000Y-10706200D01*
X247756000Y-13106200D02*
X247756000Y-10706200D01*
G04 #@! TO.C,D14*
X269500000Y-8325000D02*
X263700000Y-8325000D01*
X269500000Y-10725000D02*
X269500000Y-8325000D01*
X263700000Y-10725000D02*
X269500000Y-10725000D01*
X263775000Y-10725000D02*
X263775000Y-8325000D01*
X263900000Y-10725000D02*
X263900000Y-8325000D01*
X263675000Y-8325000D02*
X263675000Y-10725000D01*
X264075000Y-10725000D02*
X264075000Y-8325000D01*
X264250000Y-10725000D02*
X264250000Y-8325000D01*
X264425000Y-10725000D02*
X264425000Y-8325000D01*
G04 #@! TO.C,D16*
X288237500Y-10725000D02*
X288237500Y-8325000D01*
X288062500Y-10725000D02*
X288062500Y-8325000D01*
X287887500Y-10725000D02*
X287887500Y-8325000D01*
X287487500Y-8325000D02*
X287487500Y-10725000D01*
X287712500Y-10725000D02*
X287712500Y-8325000D01*
X287587500Y-10725000D02*
X287587500Y-8325000D01*
X287512500Y-10725000D02*
X293312500Y-10725000D01*
X293312500Y-10725000D02*
X293312500Y-8325000D01*
X293312500Y-8325000D02*
X287512500Y-8325000D01*
G04 #@! TO.C,D17*
X23918800Y-32156200D02*
X23918800Y-29756200D01*
X23743800Y-32156200D02*
X23743800Y-29756200D01*
X23568800Y-32156200D02*
X23568800Y-29756200D01*
X23168800Y-29756200D02*
X23168800Y-32156200D01*
X23393800Y-32156200D02*
X23393800Y-29756200D01*
X23268800Y-32156200D02*
X23268800Y-29756200D01*
X23193800Y-32156200D02*
X28993800Y-32156200D01*
X28993800Y-32156200D02*
X28993800Y-29756200D01*
X28993800Y-29756200D02*
X23193800Y-29756200D01*
G04 #@! TO.C,D18*
X47731200Y-32156200D02*
X47731200Y-29756200D01*
X47556200Y-32156200D02*
X47556200Y-29756200D01*
X47381200Y-32156200D02*
X47381200Y-29756200D01*
X46981200Y-29756200D02*
X46981200Y-32156200D01*
X47206200Y-32156200D02*
X47206200Y-29756200D01*
X47081200Y-32156200D02*
X47081200Y-29756200D01*
X47006200Y-32156200D02*
X52806200Y-32156200D01*
X52806200Y-32156200D02*
X52806200Y-29756200D01*
X52806200Y-29756200D02*
X47006200Y-29756200D01*
G04 #@! TO.C,D19*
X66781200Y-32156200D02*
X66781200Y-29756200D01*
X66606200Y-32156200D02*
X66606200Y-29756200D01*
X66431200Y-32156200D02*
X66431200Y-29756200D01*
X66031200Y-29756200D02*
X66031200Y-32156200D01*
X66256200Y-32156200D02*
X66256200Y-29756200D01*
X66131200Y-32156200D02*
X66131200Y-29756200D01*
X66056200Y-32156200D02*
X71856200Y-32156200D01*
X71856200Y-32156200D02*
X71856200Y-29756200D01*
X71856200Y-29756200D02*
X66056200Y-29756200D01*
G04 #@! TO.C,D20*
X85831200Y-32156200D02*
X85831200Y-29756200D01*
X85656200Y-32156200D02*
X85656200Y-29756200D01*
X85481200Y-32156200D02*
X85481200Y-29756200D01*
X85081200Y-29756200D02*
X85081200Y-32156200D01*
X85306200Y-32156200D02*
X85306200Y-29756200D01*
X85181200Y-32156200D02*
X85181200Y-29756200D01*
X85106200Y-32156200D02*
X90906200Y-32156200D01*
X90906200Y-32156200D02*
X90906200Y-29756200D01*
X90906200Y-29756200D02*
X85106200Y-29756200D01*
G04 #@! TO.C,D21*
X104881000Y-32156200D02*
X104881000Y-29756200D01*
X104706000Y-32156200D02*
X104706000Y-29756200D01*
X104531000Y-32156200D02*
X104531000Y-29756200D01*
X104131000Y-29756200D02*
X104131000Y-32156200D01*
X104356000Y-32156200D02*
X104356000Y-29756200D01*
X104231000Y-32156200D02*
X104231000Y-29756200D01*
X104156000Y-32156200D02*
X109956000Y-32156200D01*
X109956000Y-32156200D02*
X109956000Y-29756200D01*
X109956000Y-29756200D02*
X104156000Y-29756200D01*
G04 #@! TO.C,D22*
X123931000Y-32156200D02*
X123931000Y-29756200D01*
X123756000Y-32156200D02*
X123756000Y-29756200D01*
X123581000Y-32156200D02*
X123581000Y-29756200D01*
X123181000Y-29756200D02*
X123181000Y-32156200D01*
X123406000Y-32156200D02*
X123406000Y-29756200D01*
X123281000Y-32156200D02*
X123281000Y-29756200D01*
X123206000Y-32156200D02*
X129006000Y-32156200D01*
X129006000Y-32156200D02*
X129006000Y-29756200D01*
X129006000Y-29756200D02*
X123206000Y-29756200D01*
G04 #@! TO.C,D23*
X143294000Y-29756200D02*
X137494000Y-29756200D01*
X143294000Y-32156200D02*
X143294000Y-29756200D01*
X137494000Y-32156200D02*
X143294000Y-32156200D01*
X137569000Y-32156200D02*
X137569000Y-29756200D01*
X137694000Y-32156200D02*
X137694000Y-29756200D01*
X137469000Y-29756200D02*
X137469000Y-32156200D01*
X137869000Y-32156200D02*
X137869000Y-29756200D01*
X138044000Y-32156200D02*
X138044000Y-29756200D01*
X138219000Y-32156200D02*
X138219000Y-29756200D01*
G04 #@! TO.C,D24*
X171869000Y-29756200D02*
X166069000Y-29756200D01*
X171869000Y-32156200D02*
X171869000Y-29756200D01*
X166069000Y-32156200D02*
X171869000Y-32156200D01*
X166144000Y-32156200D02*
X166144000Y-29756200D01*
X166269000Y-32156200D02*
X166269000Y-29756200D01*
X166044000Y-29756200D02*
X166044000Y-32156200D01*
X166444000Y-32156200D02*
X166444000Y-29756200D01*
X166619000Y-32156200D02*
X166619000Y-29756200D01*
X166794000Y-32156200D02*
X166794000Y-29756200D01*
G04 #@! TO.C,D25*
X186156000Y-29756200D02*
X180356000Y-29756200D01*
X186156000Y-32156200D02*
X186156000Y-29756200D01*
X180356000Y-32156200D02*
X186156000Y-32156200D01*
X180431000Y-32156200D02*
X180431000Y-29756200D01*
X180556000Y-32156200D02*
X180556000Y-29756200D01*
X180331000Y-29756200D02*
X180331000Y-32156200D01*
X180731000Y-32156200D02*
X180731000Y-29756200D01*
X180906000Y-32156200D02*
X180906000Y-29756200D01*
X181081000Y-32156200D02*
X181081000Y-29756200D01*
G04 #@! TO.C,D26*
X205206000Y-29756200D02*
X199406000Y-29756200D01*
X205206000Y-32156200D02*
X205206000Y-29756200D01*
X199406000Y-32156200D02*
X205206000Y-32156200D01*
X199481000Y-32156200D02*
X199481000Y-29756200D01*
X199606000Y-32156200D02*
X199606000Y-29756200D01*
X199381000Y-29756200D02*
X199381000Y-32156200D01*
X199781000Y-32156200D02*
X199781000Y-29756200D01*
X199956000Y-32156200D02*
X199956000Y-29756200D01*
X200131000Y-32156200D02*
X200131000Y-29756200D01*
G04 #@! TO.C,D27*
X224256000Y-29756200D02*
X218456000Y-29756200D01*
X224256000Y-32156200D02*
X224256000Y-29756200D01*
X218456000Y-32156200D02*
X224256000Y-32156200D01*
X218531000Y-32156200D02*
X218531000Y-29756200D01*
X218656000Y-32156200D02*
X218656000Y-29756200D01*
X218431000Y-29756200D02*
X218431000Y-32156200D01*
X218831000Y-32156200D02*
X218831000Y-29756200D01*
X219006000Y-32156200D02*
X219006000Y-29756200D01*
X219181000Y-32156200D02*
X219181000Y-29756200D01*
G04 #@! TO.C,D28*
X243306000Y-29756200D02*
X237506000Y-29756200D01*
X243306000Y-32156200D02*
X243306000Y-29756200D01*
X237506000Y-32156200D02*
X243306000Y-32156200D01*
X237581000Y-32156200D02*
X237581000Y-29756200D01*
X237706000Y-32156200D02*
X237706000Y-29756200D01*
X237481000Y-29756200D02*
X237481000Y-32156200D01*
X237881000Y-32156200D02*
X237881000Y-29756200D01*
X238056000Y-32156200D02*
X238056000Y-29756200D01*
X238231000Y-32156200D02*
X238231000Y-29756200D01*
G04 #@! TO.C,D29*
X262356000Y-29756200D02*
X256556000Y-29756200D01*
X262356000Y-32156200D02*
X262356000Y-29756200D01*
X256556000Y-32156200D02*
X262356000Y-32156200D01*
X256631000Y-32156200D02*
X256631000Y-29756200D01*
X256756000Y-32156200D02*
X256756000Y-29756200D01*
X256531000Y-29756200D02*
X256531000Y-32156200D01*
X256931000Y-32156200D02*
X256931000Y-29756200D01*
X257106000Y-32156200D02*
X257106000Y-29756200D01*
X257281000Y-32156200D02*
X257281000Y-29756200D01*
G04 #@! TO.C,D30*
X281094000Y-32156200D02*
X281094000Y-29756200D01*
X280919000Y-32156200D02*
X280919000Y-29756200D01*
X280744000Y-32156200D02*
X280744000Y-29756200D01*
X280344000Y-29756200D02*
X280344000Y-32156200D01*
X280569000Y-32156200D02*
X280569000Y-29756200D01*
X280444000Y-32156200D02*
X280444000Y-29756200D01*
X280369000Y-32156200D02*
X286169000Y-32156200D01*
X286169000Y-32156200D02*
X286169000Y-29756200D01*
X286169000Y-29756200D02*
X280369000Y-29756200D01*
G04 #@! TO.C,D31*
X26300000Y-51206200D02*
X26300000Y-48806200D01*
X26125000Y-51206200D02*
X26125000Y-48806200D01*
X25950000Y-51206200D02*
X25950000Y-48806200D01*
X25550000Y-48806200D02*
X25550000Y-51206200D01*
X25775000Y-51206200D02*
X25775000Y-48806200D01*
X25650000Y-51206200D02*
X25650000Y-48806200D01*
X25575000Y-51206200D02*
X31375000Y-51206200D01*
X31375000Y-51206200D02*
X31375000Y-48806200D01*
X31375000Y-48806200D02*
X25575000Y-48806200D01*
G04 #@! TO.C,D32*
X57568800Y-48806200D02*
X51768800Y-48806200D01*
X57568800Y-51206200D02*
X57568800Y-48806200D01*
X51768800Y-51206200D02*
X57568800Y-51206200D01*
X51843800Y-51206200D02*
X51843800Y-48806200D01*
X51968800Y-51206200D02*
X51968800Y-48806200D01*
X51743800Y-48806200D02*
X51743800Y-51206200D01*
X52143800Y-51206200D02*
X52143800Y-48806200D01*
X52318800Y-51206200D02*
X52318800Y-48806200D01*
X52493800Y-51206200D02*
X52493800Y-48806200D01*
G04 #@! TO.C,D33*
X76618800Y-48806200D02*
X70818800Y-48806200D01*
X76618800Y-51206200D02*
X76618800Y-48806200D01*
X70818800Y-51206200D02*
X76618800Y-51206200D01*
X70893800Y-51206200D02*
X70893800Y-48806200D01*
X71018800Y-51206200D02*
X71018800Y-48806200D01*
X70793800Y-48806200D02*
X70793800Y-51206200D01*
X71193800Y-51206200D02*
X71193800Y-48806200D01*
X71368800Y-51206200D02*
X71368800Y-48806200D01*
X71543800Y-51206200D02*
X71543800Y-48806200D01*
G04 #@! TO.C,D34*
X90593800Y-51206200D02*
X90593800Y-48806200D01*
X90418800Y-51206200D02*
X90418800Y-48806200D01*
X90243800Y-51206200D02*
X90243800Y-48806200D01*
X89843800Y-48806200D02*
X89843800Y-51206200D01*
X90068800Y-51206200D02*
X90068800Y-48806200D01*
X89943800Y-51206200D02*
X89943800Y-48806200D01*
X89868800Y-51206200D02*
X95668800Y-51206200D01*
X95668800Y-51206200D02*
X95668800Y-48806200D01*
X95668800Y-48806200D02*
X89868800Y-48806200D01*
G04 #@! TO.C,D35*
X109644000Y-51206200D02*
X109644000Y-48806200D01*
X109469000Y-51206200D02*
X109469000Y-48806200D01*
X109294000Y-51206200D02*
X109294000Y-48806200D01*
X108894000Y-48806200D02*
X108894000Y-51206200D01*
X109119000Y-51206200D02*
X109119000Y-48806200D01*
X108994000Y-51206200D02*
X108994000Y-48806200D01*
X108919000Y-51206200D02*
X114719000Y-51206200D01*
X114719000Y-51206200D02*
X114719000Y-48806200D01*
X114719000Y-48806200D02*
X108919000Y-48806200D01*
G04 #@! TO.C,D36*
X133769000Y-48806200D02*
X127969000Y-48806200D01*
X133769000Y-51206200D02*
X133769000Y-48806200D01*
X127969000Y-51206200D02*
X133769000Y-51206200D01*
X128044000Y-51206200D02*
X128044000Y-48806200D01*
X128169000Y-51206200D02*
X128169000Y-48806200D01*
X127944000Y-48806200D02*
X127944000Y-51206200D01*
X128344000Y-51206200D02*
X128344000Y-48806200D01*
X128519000Y-51206200D02*
X128519000Y-48806200D01*
X128694000Y-51206200D02*
X128694000Y-48806200D01*
G04 #@! TO.C,D37*
X147744000Y-51206200D02*
X147744000Y-48806200D01*
X147569000Y-51206200D02*
X147569000Y-48806200D01*
X147394000Y-51206200D02*
X147394000Y-48806200D01*
X146994000Y-48806200D02*
X146994000Y-51206200D01*
X147219000Y-51206200D02*
X147219000Y-48806200D01*
X147094000Y-51206200D02*
X147094000Y-48806200D01*
X147019000Y-51206200D02*
X152819000Y-51206200D01*
X152819000Y-51206200D02*
X152819000Y-48806200D01*
X152819000Y-48806200D02*
X147019000Y-48806200D01*
G04 #@! TO.C,D38*
X166794000Y-51206200D02*
X166794000Y-48806200D01*
X166619000Y-51206200D02*
X166619000Y-48806200D01*
X166444000Y-51206200D02*
X166444000Y-48806200D01*
X166044000Y-48806200D02*
X166044000Y-51206200D01*
X166269000Y-51206200D02*
X166269000Y-48806200D01*
X166144000Y-51206200D02*
X166144000Y-48806200D01*
X166069000Y-51206200D02*
X171869000Y-51206200D01*
X171869000Y-51206200D02*
X171869000Y-48806200D01*
X171869000Y-48806200D02*
X166069000Y-48806200D01*
G04 #@! TO.C,D39*
X185844000Y-51206200D02*
X185844000Y-48806200D01*
X185669000Y-51206200D02*
X185669000Y-48806200D01*
X185494000Y-51206200D02*
X185494000Y-48806200D01*
X185094000Y-48806200D02*
X185094000Y-51206200D01*
X185319000Y-51206200D02*
X185319000Y-48806200D01*
X185194000Y-51206200D02*
X185194000Y-48806200D01*
X185119000Y-51206200D02*
X190919000Y-51206200D01*
X190919000Y-51206200D02*
X190919000Y-48806200D01*
X190919000Y-48806200D02*
X185119000Y-48806200D01*
G04 #@! TO.C,D40*
X204894000Y-51206200D02*
X204894000Y-48806200D01*
X204719000Y-51206200D02*
X204719000Y-48806200D01*
X204544000Y-51206200D02*
X204544000Y-48806200D01*
X204144000Y-48806200D02*
X204144000Y-51206200D01*
X204369000Y-51206200D02*
X204369000Y-48806200D01*
X204244000Y-51206200D02*
X204244000Y-48806200D01*
X204169000Y-51206200D02*
X209969000Y-51206200D01*
X209969000Y-51206200D02*
X209969000Y-48806200D01*
X209969000Y-48806200D02*
X204169000Y-48806200D01*
G04 #@! TO.C,D41*
X223944000Y-51206200D02*
X223944000Y-48806200D01*
X223769000Y-51206200D02*
X223769000Y-48806200D01*
X223594000Y-51206200D02*
X223594000Y-48806200D01*
X223194000Y-48806200D02*
X223194000Y-51206200D01*
X223419000Y-51206200D02*
X223419000Y-48806200D01*
X223294000Y-51206200D02*
X223294000Y-48806200D01*
X223219000Y-51206200D02*
X229019000Y-51206200D01*
X229019000Y-51206200D02*
X229019000Y-48806200D01*
X229019000Y-48806200D02*
X223219000Y-48806200D01*
G04 #@! TO.C,D42*
X248069000Y-48806200D02*
X242269000Y-48806200D01*
X248069000Y-51206200D02*
X248069000Y-48806200D01*
X242269000Y-51206200D02*
X248069000Y-51206200D01*
X242344000Y-51206200D02*
X242344000Y-48806200D01*
X242469000Y-51206200D02*
X242469000Y-48806200D01*
X242244000Y-48806200D02*
X242244000Y-51206200D01*
X242644000Y-51206200D02*
X242644000Y-48806200D01*
X242819000Y-51206200D02*
X242819000Y-48806200D01*
X242994000Y-51206200D02*
X242994000Y-48806200D01*
G04 #@! TO.C,D43*
X267119000Y-48806200D02*
X261319000Y-48806200D01*
X267119000Y-51206200D02*
X267119000Y-48806200D01*
X261319000Y-51206200D02*
X267119000Y-51206200D01*
X261394000Y-51206200D02*
X261394000Y-48806200D01*
X261519000Y-51206200D02*
X261519000Y-48806200D01*
X261294000Y-48806200D02*
X261294000Y-51206200D01*
X261694000Y-51206200D02*
X261694000Y-48806200D01*
X261869000Y-51206200D02*
X261869000Y-48806200D01*
X262044000Y-51206200D02*
X262044000Y-48806200D01*
G04 #@! TO.C,D44*
X279025000Y-48806200D02*
X273225000Y-48806200D01*
X279025000Y-51206200D02*
X279025000Y-48806200D01*
X273225000Y-51206200D02*
X279025000Y-51206200D01*
X273300000Y-51206200D02*
X273300000Y-48806200D01*
X273425000Y-51206200D02*
X273425000Y-48806200D01*
X273200000Y-48806200D02*
X273200000Y-51206200D01*
X273600000Y-51206200D02*
X273600000Y-48806200D01*
X273775000Y-51206200D02*
X273775000Y-48806200D01*
X273950000Y-51206200D02*
X273950000Y-48806200D01*
G04 #@! TO.C,D45*
X36137500Y-67856200D02*
X30337500Y-67856200D01*
X36137500Y-70256200D02*
X36137500Y-67856200D01*
X30337500Y-70256200D02*
X36137500Y-70256200D01*
X30412500Y-70256200D02*
X30412500Y-67856200D01*
X30537500Y-70256200D02*
X30537500Y-67856200D01*
X30312500Y-67856200D02*
X30312500Y-70256200D01*
X30712500Y-70256200D02*
X30712500Y-67856200D01*
X30887500Y-70256200D02*
X30887500Y-67856200D01*
X31062500Y-70256200D02*
X31062500Y-67856200D01*
G04 #@! TO.C,D46*
X48043800Y-67856200D02*
X42243800Y-67856200D01*
X48043800Y-70256200D02*
X48043800Y-67856200D01*
X42243800Y-70256200D02*
X48043800Y-70256200D01*
X42318800Y-70256200D02*
X42318800Y-67856200D01*
X42443800Y-70256200D02*
X42443800Y-67856200D01*
X42218800Y-67856200D02*
X42218800Y-70256200D01*
X42618800Y-70256200D02*
X42618800Y-67856200D01*
X42793800Y-70256200D02*
X42793800Y-67856200D01*
X42968800Y-70256200D02*
X42968800Y-67856200D01*
G04 #@! TO.C,D47*
X67093800Y-67856200D02*
X61293800Y-67856200D01*
X67093800Y-70256200D02*
X67093800Y-67856200D01*
X61293800Y-70256200D02*
X67093800Y-70256200D01*
X61368800Y-70256200D02*
X61368800Y-67856200D01*
X61493800Y-70256200D02*
X61493800Y-67856200D01*
X61268800Y-67856200D02*
X61268800Y-70256200D01*
X61668800Y-70256200D02*
X61668800Y-67856200D01*
X61843800Y-70256200D02*
X61843800Y-67856200D01*
X62018800Y-70256200D02*
X62018800Y-67856200D01*
G04 #@! TO.C,D48*
X81068800Y-70256200D02*
X81068800Y-67856200D01*
X80893800Y-70256200D02*
X80893800Y-67856200D01*
X80718800Y-70256200D02*
X80718800Y-67856200D01*
X80318800Y-67856200D02*
X80318800Y-70256200D01*
X80543800Y-70256200D02*
X80543800Y-67856200D01*
X80418800Y-70256200D02*
X80418800Y-67856200D01*
X80343800Y-70256200D02*
X86143800Y-70256200D01*
X86143800Y-70256200D02*
X86143800Y-67856200D01*
X86143800Y-67856200D02*
X80343800Y-67856200D01*
G04 #@! TO.C,D49*
X100119000Y-70256200D02*
X100119000Y-67856200D01*
X99944000Y-70256200D02*
X99944000Y-67856200D01*
X99769000Y-70256200D02*
X99769000Y-67856200D01*
X99369000Y-67856200D02*
X99369000Y-70256200D01*
X99594000Y-70256200D02*
X99594000Y-67856200D01*
X99469000Y-70256200D02*
X99469000Y-67856200D01*
X99394000Y-70256200D02*
X105194000Y-70256200D01*
X105194000Y-70256200D02*
X105194000Y-67856200D01*
X105194000Y-67856200D02*
X99394000Y-67856200D01*
G04 #@! TO.C,D50*
X119169000Y-70256200D02*
X119169000Y-67856200D01*
X118994000Y-70256200D02*
X118994000Y-67856200D01*
X118819000Y-70256200D02*
X118819000Y-67856200D01*
X118419000Y-67856200D02*
X118419000Y-70256200D01*
X118644000Y-70256200D02*
X118644000Y-67856200D01*
X118519000Y-70256200D02*
X118519000Y-67856200D01*
X118444000Y-70256200D02*
X124244000Y-70256200D01*
X124244000Y-70256200D02*
X124244000Y-67856200D01*
X124244000Y-67856200D02*
X118444000Y-67856200D01*
G04 #@! TO.C,D51*
X138219000Y-70256200D02*
X138219000Y-67856200D01*
X138044000Y-70256200D02*
X138044000Y-67856200D01*
X137869000Y-70256200D02*
X137869000Y-67856200D01*
X137469000Y-67856200D02*
X137469000Y-70256200D01*
X137694000Y-70256200D02*
X137694000Y-67856200D01*
X137569000Y-70256200D02*
X137569000Y-67856200D01*
X137494000Y-70256200D02*
X143294000Y-70256200D01*
X143294000Y-70256200D02*
X143294000Y-67856200D01*
X143294000Y-67856200D02*
X137494000Y-67856200D01*
G04 #@! TO.C,D52*
X157269000Y-70256200D02*
X157269000Y-67856200D01*
X157094000Y-70256200D02*
X157094000Y-67856200D01*
X156919000Y-70256200D02*
X156919000Y-67856200D01*
X156519000Y-67856200D02*
X156519000Y-70256200D01*
X156744000Y-70256200D02*
X156744000Y-67856200D01*
X156619000Y-70256200D02*
X156619000Y-67856200D01*
X156544000Y-70256200D02*
X162344000Y-70256200D01*
X162344000Y-70256200D02*
X162344000Y-67856200D01*
X162344000Y-67856200D02*
X156544000Y-67856200D01*
G04 #@! TO.C,D53*
X176319000Y-70256200D02*
X176319000Y-67856200D01*
X176144000Y-70256200D02*
X176144000Y-67856200D01*
X175969000Y-70256200D02*
X175969000Y-67856200D01*
X175569000Y-67856200D02*
X175569000Y-70256200D01*
X175794000Y-70256200D02*
X175794000Y-67856200D01*
X175669000Y-70256200D02*
X175669000Y-67856200D01*
X175594000Y-70256200D02*
X181394000Y-70256200D01*
X181394000Y-70256200D02*
X181394000Y-67856200D01*
X181394000Y-67856200D02*
X175594000Y-67856200D01*
G04 #@! TO.C,D54*
X195369000Y-70256200D02*
X195369000Y-67856200D01*
X195194000Y-70256200D02*
X195194000Y-67856200D01*
X195019000Y-70256200D02*
X195019000Y-67856200D01*
X194619000Y-67856200D02*
X194619000Y-70256200D01*
X194844000Y-70256200D02*
X194844000Y-67856200D01*
X194719000Y-70256200D02*
X194719000Y-67856200D01*
X194644000Y-70256200D02*
X200444000Y-70256200D01*
X200444000Y-70256200D02*
X200444000Y-67856200D01*
X200444000Y-67856200D02*
X194644000Y-67856200D01*
G04 #@! TO.C,D55*
X214419000Y-70256200D02*
X214419000Y-67856200D01*
X214244000Y-70256200D02*
X214244000Y-67856200D01*
X214069000Y-70256200D02*
X214069000Y-67856200D01*
X213669000Y-67856200D02*
X213669000Y-70256200D01*
X213894000Y-70256200D02*
X213894000Y-67856200D01*
X213769000Y-70256200D02*
X213769000Y-67856200D01*
X213694000Y-70256200D02*
X219494000Y-70256200D01*
X219494000Y-70256200D02*
X219494000Y-67856200D01*
X219494000Y-67856200D02*
X213694000Y-67856200D01*
G04 #@! TO.C,D56*
X238544000Y-67856200D02*
X232744000Y-67856200D01*
X238544000Y-70256200D02*
X238544000Y-67856200D01*
X232744000Y-70256200D02*
X238544000Y-70256200D01*
X232819000Y-70256200D02*
X232819000Y-67856200D01*
X232944000Y-70256200D02*
X232944000Y-67856200D01*
X232719000Y-67856200D02*
X232719000Y-70256200D01*
X233119000Y-70256200D02*
X233119000Y-67856200D01*
X233294000Y-70256200D02*
X233294000Y-67856200D01*
X233469000Y-70256200D02*
X233469000Y-67856200D01*
G04 #@! TO.C,D57*
X274262000Y-67856200D02*
X268462000Y-67856200D01*
X274262000Y-70256200D02*
X274262000Y-67856200D01*
X268462000Y-70256200D02*
X274262000Y-70256200D01*
X268537000Y-70256200D02*
X268537000Y-67856200D01*
X268662000Y-70256200D02*
X268662000Y-67856200D01*
X268437000Y-67856200D02*
X268437000Y-70256200D01*
X268837000Y-70256200D02*
X268837000Y-67856200D01*
X269012000Y-70256200D02*
X269012000Y-67856200D01*
X269187000Y-70256200D02*
X269187000Y-67856200D01*
G04 #@! TO.C,D58*
X294075000Y-75781200D02*
X294075000Y-81581200D01*
X296475000Y-75781200D02*
X294075000Y-75781200D01*
X296475000Y-81581200D02*
X296475000Y-75781200D01*
X296475000Y-81506200D02*
X294075000Y-81506200D01*
X296475000Y-81381200D02*
X294075000Y-81381200D01*
X294075000Y-81606200D02*
X296475000Y-81606200D01*
X296475000Y-81206200D02*
X294075000Y-81206200D01*
X296475000Y-81031200D02*
X294075000Y-81031200D01*
X296475000Y-80856200D02*
X294075000Y-80856200D01*
G04 #@! TO.C,D59*
X55187500Y-86906200D02*
X49387500Y-86906200D01*
X55187500Y-89306200D02*
X55187500Y-86906200D01*
X49387500Y-89306200D02*
X55187500Y-89306200D01*
X49462500Y-89306200D02*
X49462500Y-86906200D01*
X49587500Y-89306200D02*
X49587500Y-86906200D01*
X49362500Y-86906200D02*
X49362500Y-89306200D01*
X49762500Y-89306200D02*
X49762500Y-86906200D01*
X49937500Y-89306200D02*
X49937500Y-86906200D01*
X50112500Y-89306200D02*
X50112500Y-86906200D01*
G04 #@! TO.C,D60*
X71543800Y-89306200D02*
X71543800Y-86906200D01*
X71368800Y-89306200D02*
X71368800Y-86906200D01*
X71193800Y-89306200D02*
X71193800Y-86906200D01*
X70793800Y-86906200D02*
X70793800Y-89306200D01*
X71018800Y-89306200D02*
X71018800Y-86906200D01*
X70893800Y-89306200D02*
X70893800Y-86906200D01*
X70818800Y-89306200D02*
X76618800Y-89306200D01*
X76618800Y-89306200D02*
X76618800Y-86906200D01*
X76618800Y-86906200D02*
X70818800Y-86906200D01*
G04 #@! TO.C,D61*
X152506000Y-89306200D02*
X152506000Y-86906200D01*
X152331000Y-89306200D02*
X152331000Y-86906200D01*
X152156000Y-89306200D02*
X152156000Y-86906200D01*
X151756000Y-86906200D02*
X151756000Y-89306200D01*
X151981000Y-89306200D02*
X151981000Y-86906200D01*
X151856000Y-89306200D02*
X151856000Y-86906200D01*
X151781000Y-89306200D02*
X157581000Y-89306200D01*
X157581000Y-89306200D02*
X157581000Y-86906200D01*
X157581000Y-86906200D02*
X151781000Y-86906200D01*
G04 #@! TO.C,D62*
X233469000Y-89306200D02*
X233469000Y-86906200D01*
X233294000Y-89306200D02*
X233294000Y-86906200D01*
X233119000Y-89306200D02*
X233119000Y-86906200D01*
X232719000Y-86906200D02*
X232719000Y-89306200D01*
X232944000Y-89306200D02*
X232944000Y-86906200D01*
X232819000Y-89306200D02*
X232819000Y-86906200D01*
X232744000Y-89306200D02*
X238544000Y-89306200D01*
X238544000Y-89306200D02*
X238544000Y-86906200D01*
X238544000Y-86906200D02*
X232744000Y-86906200D01*
G04 #@! TO.C,D63*
X250137000Y-89306200D02*
X250137000Y-86906200D01*
X249962000Y-89306200D02*
X249962000Y-86906200D01*
X249787000Y-89306200D02*
X249787000Y-86906200D01*
X249387000Y-86906200D02*
X249387000Y-89306200D01*
X249612000Y-89306200D02*
X249612000Y-86906200D01*
X249487000Y-89306200D02*
X249487000Y-86906200D01*
X249412000Y-89306200D02*
X255212000Y-89306200D01*
X255212000Y-89306200D02*
X255212000Y-86906200D01*
X255212000Y-86906200D02*
X249412000Y-86906200D01*
D12*
G04 #@! TO.C,SW1*
X136981000Y-4050000D02*
X134481000Y-4050000D01*
X138481000Y-5800000D02*
X138481000Y-7800000D01*
X136981000Y-9550000D02*
X134481000Y-9550000D01*
X132981000Y-5800000D02*
X132981000Y-7800000D01*
X137431000Y-4500000D02*
X136981000Y-4050000D01*
X134031000Y-4500000D02*
X134481000Y-4050000D01*
X134031000Y-9100000D02*
X134481000Y-9550000D01*
X137431000Y-9100000D02*
X136981000Y-9550000D01*
D10*
G04 #@! TO.C,U1*
X145891000Y-33940000D02*
X163671000Y-33940000D01*
X145891000Y-3460000D02*
X145891000Y-33940000D01*
X150971000Y-3460000D02*
X145891000Y-3460000D01*
X150971000Y-920000D02*
X150971000Y-3460000D01*
X158591000Y-920000D02*
X150971000Y-920000D01*
X158591000Y-3460000D02*
X158591000Y-920000D01*
X163671000Y-3460000D02*
X158591000Y-3460000D01*
X163671000Y-3460000D02*
X163671000Y-33940000D01*
G04 #@! TO.C,D15*
X279577678Y-10343104D02*
X279577678Y-9543104D01*
X279387202Y-9543104D01*
X279272916Y-9581200D01*
X279196726Y-9657390D01*
X279158630Y-9733580D01*
X279120535Y-9885961D01*
X279120535Y-10000247D01*
X279158630Y-10152628D01*
X279196726Y-10228819D01*
X279272916Y-10305009D01*
X279387202Y-10343104D01*
X279577678Y-10343104D01*
X278358630Y-10343104D02*
X278815773Y-10343104D01*
X278587202Y-10343104D02*
X278587202Y-9543104D01*
X278663392Y-9657390D01*
X278739583Y-9733580D01*
X278815773Y-9771676D01*
X277634821Y-9543104D02*
X278015773Y-9543104D01*
X278053869Y-9924057D01*
X278015773Y-9885961D01*
X277939583Y-9847866D01*
X277749107Y-9847866D01*
X277672916Y-9885961D01*
X277634821Y-9924057D01*
X277596726Y-10000247D01*
X277596726Y-10190723D01*
X277634821Y-10266914D01*
X277672916Y-10305009D01*
X277749107Y-10343104D01*
X277939583Y-10343104D01*
X278015773Y-10305009D01*
X278053869Y-10266914D01*
G04 #@! TO.C,D1*
X22021676Y-10343104D02*
X22021676Y-9543104D01*
X21831200Y-9543104D01*
X21716914Y-9581200D01*
X21640723Y-9657390D01*
X21602628Y-9733580D01*
X21564533Y-9885961D01*
X21564533Y-10000247D01*
X21602628Y-10152628D01*
X21640723Y-10228819D01*
X21716914Y-10305009D01*
X21831200Y-10343104D01*
X22021676Y-10343104D01*
X20802628Y-10343104D02*
X21259771Y-10343104D01*
X21031200Y-10343104D02*
X21031200Y-9543104D01*
X21107390Y-9657390D01*
X21183580Y-9733580D01*
X21259771Y-9771676D01*
G04 #@! TO.C,D2*
X41071676Y-10343104D02*
X41071676Y-9543104D01*
X40881200Y-9543104D01*
X40766914Y-9581200D01*
X40690723Y-9657390D01*
X40652628Y-9733580D01*
X40614533Y-9885961D01*
X40614533Y-10000247D01*
X40652628Y-10152628D01*
X40690723Y-10228819D01*
X40766914Y-10305009D01*
X40881200Y-10343104D01*
X41071676Y-10343104D01*
X40309771Y-9619295D02*
X40271676Y-9581200D01*
X40195485Y-9543104D01*
X40005009Y-9543104D01*
X39928819Y-9581200D01*
X39890723Y-9619295D01*
X39852628Y-9695485D01*
X39852628Y-9771676D01*
X39890723Y-9885961D01*
X40347866Y-10343104D01*
X39852628Y-10343104D01*
G04 #@! TO.C,D3*
X60121676Y-10343104D02*
X60121676Y-9543104D01*
X59931200Y-9543104D01*
X59816914Y-9581200D01*
X59740723Y-9657390D01*
X59702628Y-9733580D01*
X59664533Y-9885961D01*
X59664533Y-10000247D01*
X59702628Y-10152628D01*
X59740723Y-10228819D01*
X59816914Y-10305009D01*
X59931200Y-10343104D01*
X60121676Y-10343104D01*
X59397866Y-9543104D02*
X58902628Y-9543104D01*
X59169295Y-9847866D01*
X59055009Y-9847866D01*
X58978819Y-9885961D01*
X58940723Y-9924057D01*
X58902628Y-10000247D01*
X58902628Y-10190723D01*
X58940723Y-10266914D01*
X58978819Y-10305009D01*
X59055009Y-10343104D01*
X59283580Y-10343104D01*
X59359771Y-10305009D01*
X59397866Y-10266914D01*
G04 #@! TO.C,D4*
X79171676Y-10343104D02*
X79171676Y-9543104D01*
X78981200Y-9543104D01*
X78866914Y-9581200D01*
X78790723Y-9657390D01*
X78752628Y-9733580D01*
X78714533Y-9885961D01*
X78714533Y-10000247D01*
X78752628Y-10152628D01*
X78790723Y-10228819D01*
X78866914Y-10305009D01*
X78981200Y-10343104D01*
X79171676Y-10343104D01*
X78028819Y-9809771D02*
X78028819Y-10343104D01*
X78219295Y-9505009D02*
X78409771Y-10076438D01*
X77914533Y-10076438D01*
G04 #@! TO.C,D5*
X98221676Y-10343104D02*
X98221676Y-9543104D01*
X98031200Y-9543104D01*
X97916914Y-9581200D01*
X97840723Y-9657390D01*
X97802628Y-9733580D01*
X97764533Y-9885961D01*
X97764533Y-10000247D01*
X97802628Y-10152628D01*
X97840723Y-10228819D01*
X97916914Y-10305009D01*
X98031200Y-10343104D01*
X98221676Y-10343104D01*
X97040723Y-9543104D02*
X97421676Y-9543104D01*
X97459771Y-9924057D01*
X97421676Y-9885961D01*
X97345485Y-9847866D01*
X97155009Y-9847866D01*
X97078819Y-9885961D01*
X97040723Y-9924057D01*
X97002628Y-10000247D01*
X97002628Y-10190723D01*
X97040723Y-10266914D01*
X97078819Y-10305009D01*
X97155009Y-10343104D01*
X97345485Y-10343104D01*
X97421676Y-10305009D01*
X97459771Y-10266914D01*
G04 #@! TO.C,D6*
X117271476Y-10343104D02*
X117271476Y-9543104D01*
X117081000Y-9543104D01*
X116966714Y-9581200D01*
X116890523Y-9657390D01*
X116852428Y-9733580D01*
X116814333Y-9885961D01*
X116814333Y-10000247D01*
X116852428Y-10152628D01*
X116890523Y-10228819D01*
X116966714Y-10305009D01*
X117081000Y-10343104D01*
X117271476Y-10343104D01*
X116128619Y-9543104D02*
X116281000Y-9543104D01*
X116357190Y-9581200D01*
X116395285Y-9619295D01*
X116471476Y-9733580D01*
X116509571Y-9885961D01*
X116509571Y-10190723D01*
X116471476Y-10266914D01*
X116433380Y-10305009D01*
X116357190Y-10343104D01*
X116204809Y-10343104D01*
X116128619Y-10305009D01*
X116090523Y-10266914D01*
X116052428Y-10190723D01*
X116052428Y-10000247D01*
X116090523Y-9924057D01*
X116128619Y-9885961D01*
X116204809Y-9847866D01*
X116357190Y-9847866D01*
X116433380Y-9885961D01*
X116471476Y-9924057D01*
X116509571Y-10000247D01*
G04 #@! TO.C,D7*
X136321476Y-10343104D02*
X136321476Y-9543104D01*
X136131000Y-9543104D01*
X136016714Y-9581200D01*
X135940523Y-9657390D01*
X135902428Y-9733580D01*
X135864333Y-9885961D01*
X135864333Y-10000247D01*
X135902428Y-10152628D01*
X135940523Y-10228819D01*
X136016714Y-10305009D01*
X136131000Y-10343104D01*
X136321476Y-10343104D01*
X135597666Y-9543104D02*
X135064333Y-9543104D01*
X135407190Y-10343104D01*
G04 #@! TO.C,D8*
X155371476Y-10343104D02*
X155371476Y-9543104D01*
X155181000Y-9543104D01*
X155066714Y-9581200D01*
X154990523Y-9657390D01*
X154952428Y-9733580D01*
X154914333Y-9885961D01*
X154914333Y-10000247D01*
X154952428Y-10152628D01*
X154990523Y-10228819D01*
X155066714Y-10305009D01*
X155181000Y-10343104D01*
X155371476Y-10343104D01*
X154457190Y-9885961D02*
X154533380Y-9847866D01*
X154571476Y-9809771D01*
X154609571Y-9733580D01*
X154609571Y-9695485D01*
X154571476Y-9619295D01*
X154533380Y-9581200D01*
X154457190Y-9543104D01*
X154304809Y-9543104D01*
X154228619Y-9581200D01*
X154190523Y-9619295D01*
X154152428Y-9695485D01*
X154152428Y-9733580D01*
X154190523Y-9809771D01*
X154228619Y-9847866D01*
X154304809Y-9885961D01*
X154457190Y-9885961D01*
X154533380Y-9924057D01*
X154571476Y-9962152D01*
X154609571Y-10038342D01*
X154609571Y-10190723D01*
X154571476Y-10266914D01*
X154533380Y-10305009D01*
X154457190Y-10343104D01*
X154304809Y-10343104D01*
X154228619Y-10305009D01*
X154190523Y-10266914D01*
X154152428Y-10190723D01*
X154152428Y-10038342D01*
X154190523Y-9962152D01*
X154228619Y-9924057D01*
X154304809Y-9885961D01*
G04 #@! TO.C,D9*
X174421476Y-10343104D02*
X174421476Y-9543104D01*
X174231000Y-9543104D01*
X174116714Y-9581200D01*
X174040523Y-9657390D01*
X174002428Y-9733580D01*
X173964333Y-9885961D01*
X173964333Y-10000247D01*
X174002428Y-10152628D01*
X174040523Y-10228819D01*
X174116714Y-10305009D01*
X174231000Y-10343104D01*
X174421476Y-10343104D01*
X173583380Y-10343104D02*
X173431000Y-10343104D01*
X173354809Y-10305009D01*
X173316714Y-10266914D01*
X173240523Y-10152628D01*
X173202428Y-10000247D01*
X173202428Y-9695485D01*
X173240523Y-9619295D01*
X173278619Y-9581200D01*
X173354809Y-9543104D01*
X173507190Y-9543104D01*
X173583380Y-9581200D01*
X173621476Y-9619295D01*
X173659571Y-9695485D01*
X173659571Y-9885961D01*
X173621476Y-9962152D01*
X173583380Y-10000247D01*
X173507190Y-10038342D01*
X173354809Y-10038342D01*
X173278619Y-10000247D01*
X173240523Y-9962152D01*
X173202428Y-9885961D01*
G04 #@! TO.C,D10*
X193852428Y-10343104D02*
X193852428Y-9543104D01*
X193661952Y-9543104D01*
X193547666Y-9581200D01*
X193471476Y-9657390D01*
X193433380Y-9733580D01*
X193395285Y-9885961D01*
X193395285Y-10000247D01*
X193433380Y-10152628D01*
X193471476Y-10228819D01*
X193547666Y-10305009D01*
X193661952Y-10343104D01*
X193852428Y-10343104D01*
X192633380Y-10343104D02*
X193090523Y-10343104D01*
X192861952Y-10343104D02*
X192861952Y-9543104D01*
X192938142Y-9657390D01*
X193014333Y-9733580D01*
X193090523Y-9771676D01*
X192138142Y-9543104D02*
X192061952Y-9543104D01*
X191985761Y-9581200D01*
X191947666Y-9619295D01*
X191909571Y-9695485D01*
X191871476Y-9847866D01*
X191871476Y-10038342D01*
X191909571Y-10190723D01*
X191947666Y-10266914D01*
X191985761Y-10305009D01*
X192061952Y-10343104D01*
X192138142Y-10343104D01*
X192214333Y-10305009D01*
X192252428Y-10266914D01*
X192290523Y-10190723D01*
X192328619Y-10038342D01*
X192328619Y-9847866D01*
X192290523Y-9695485D01*
X192252428Y-9619295D01*
X192214333Y-9581200D01*
X192138142Y-9543104D01*
G04 #@! TO.C,D11*
X212902428Y-10343104D02*
X212902428Y-9543104D01*
X212711952Y-9543104D01*
X212597666Y-9581200D01*
X212521476Y-9657390D01*
X212483380Y-9733580D01*
X212445285Y-9885961D01*
X212445285Y-10000247D01*
X212483380Y-10152628D01*
X212521476Y-10228819D01*
X212597666Y-10305009D01*
X212711952Y-10343104D01*
X212902428Y-10343104D01*
X211683380Y-10343104D02*
X212140523Y-10343104D01*
X211911952Y-10343104D02*
X211911952Y-9543104D01*
X211988142Y-9657390D01*
X212064333Y-9733580D01*
X212140523Y-9771676D01*
X210921476Y-10343104D02*
X211378619Y-10343104D01*
X211150047Y-10343104D02*
X211150047Y-9543104D01*
X211226238Y-9657390D01*
X211302428Y-9733580D01*
X211378619Y-9771676D01*
G04 #@! TO.C,D12*
X231952428Y-10343104D02*
X231952428Y-9543104D01*
X231761952Y-9543104D01*
X231647666Y-9581200D01*
X231571476Y-9657390D01*
X231533380Y-9733580D01*
X231495285Y-9885961D01*
X231495285Y-10000247D01*
X231533380Y-10152628D01*
X231571476Y-10228819D01*
X231647666Y-10305009D01*
X231761952Y-10343104D01*
X231952428Y-10343104D01*
X230733380Y-10343104D02*
X231190523Y-10343104D01*
X230961952Y-10343104D02*
X230961952Y-9543104D01*
X231038142Y-9657390D01*
X231114333Y-9733580D01*
X231190523Y-9771676D01*
X230428619Y-9619295D02*
X230390523Y-9581200D01*
X230314333Y-9543104D01*
X230123857Y-9543104D01*
X230047666Y-9581200D01*
X230009571Y-9619295D01*
X229971476Y-9695485D01*
X229971476Y-9771676D01*
X230009571Y-9885961D01*
X230466714Y-10343104D01*
X229971476Y-10343104D01*
G04 #@! TO.C,D13*
X251002428Y-10343104D02*
X251002428Y-9543104D01*
X250811952Y-9543104D01*
X250697666Y-9581200D01*
X250621476Y-9657390D01*
X250583380Y-9733580D01*
X250545285Y-9885961D01*
X250545285Y-10000247D01*
X250583380Y-10152628D01*
X250621476Y-10228819D01*
X250697666Y-10305009D01*
X250811952Y-10343104D01*
X251002428Y-10343104D01*
X249783380Y-10343104D02*
X250240523Y-10343104D01*
X250011952Y-10343104D02*
X250011952Y-9543104D01*
X250088142Y-9657390D01*
X250164333Y-9733580D01*
X250240523Y-9771676D01*
X249516714Y-9543104D02*
X249021476Y-9543104D01*
X249288142Y-9847866D01*
X249173857Y-9847866D01*
X249097666Y-9885961D01*
X249059571Y-9924057D01*
X249021476Y-10000247D01*
X249021476Y-10190723D01*
X249059571Y-10266914D01*
X249097666Y-10305009D01*
X249173857Y-10343104D01*
X249402428Y-10343104D01*
X249478619Y-10305009D01*
X249516714Y-10266914D01*
G04 #@! TO.C,D14*
X267671428Y-7961904D02*
X267671428Y-7161904D01*
X267480952Y-7161904D01*
X267366666Y-7200000D01*
X267290476Y-7276190D01*
X267252380Y-7352380D01*
X267214285Y-7504761D01*
X267214285Y-7619047D01*
X267252380Y-7771428D01*
X267290476Y-7847619D01*
X267366666Y-7923809D01*
X267480952Y-7961904D01*
X267671428Y-7961904D01*
X266452380Y-7961904D02*
X266909523Y-7961904D01*
X266680952Y-7961904D02*
X266680952Y-7161904D01*
X266757142Y-7276190D01*
X266833333Y-7352380D01*
X266909523Y-7390476D01*
X265766666Y-7428571D02*
X265766666Y-7961904D01*
X265957142Y-7123809D02*
X266147619Y-7695238D01*
X265652380Y-7695238D01*
G04 #@! TO.C,D16*
X291483928Y-7961904D02*
X291483928Y-7161904D01*
X291293452Y-7161904D01*
X291179166Y-7200000D01*
X291102976Y-7276190D01*
X291064880Y-7352380D01*
X291026785Y-7504761D01*
X291026785Y-7619047D01*
X291064880Y-7771428D01*
X291102976Y-7847619D01*
X291179166Y-7923809D01*
X291293452Y-7961904D01*
X291483928Y-7961904D01*
X290264880Y-7961904D02*
X290722023Y-7961904D01*
X290493452Y-7961904D02*
X290493452Y-7161904D01*
X290569642Y-7276190D01*
X290645833Y-7352380D01*
X290722023Y-7390476D01*
X289579166Y-7161904D02*
X289731547Y-7161904D01*
X289807738Y-7200000D01*
X289845833Y-7238095D01*
X289922023Y-7352380D01*
X289960119Y-7504761D01*
X289960119Y-7809523D01*
X289922023Y-7885714D01*
X289883928Y-7923809D01*
X289807738Y-7961904D01*
X289655357Y-7961904D01*
X289579166Y-7923809D01*
X289541071Y-7885714D01*
X289502976Y-7809523D01*
X289502976Y-7619047D01*
X289541071Y-7542857D01*
X289579166Y-7504761D01*
X289655357Y-7466666D01*
X289807738Y-7466666D01*
X289883928Y-7504761D01*
X289922023Y-7542857D01*
X289960119Y-7619047D01*
G04 #@! TO.C,D17*
X27165228Y-29393104D02*
X27165228Y-28593104D01*
X26974752Y-28593104D01*
X26860466Y-28631200D01*
X26784276Y-28707390D01*
X26746180Y-28783580D01*
X26708085Y-28935961D01*
X26708085Y-29050247D01*
X26746180Y-29202628D01*
X26784276Y-29278819D01*
X26860466Y-29355009D01*
X26974752Y-29393104D01*
X27165228Y-29393104D01*
X25946180Y-29393104D02*
X26403323Y-29393104D01*
X26174752Y-29393104D02*
X26174752Y-28593104D01*
X26250942Y-28707390D01*
X26327133Y-28783580D01*
X26403323Y-28821676D01*
X25679514Y-28593104D02*
X25146180Y-28593104D01*
X25489038Y-29393104D01*
G04 #@! TO.C,D18*
X50977628Y-29393104D02*
X50977628Y-28593104D01*
X50787152Y-28593104D01*
X50672866Y-28631200D01*
X50596676Y-28707390D01*
X50558580Y-28783580D01*
X50520485Y-28935961D01*
X50520485Y-29050247D01*
X50558580Y-29202628D01*
X50596676Y-29278819D01*
X50672866Y-29355009D01*
X50787152Y-29393104D01*
X50977628Y-29393104D01*
X49758580Y-29393104D02*
X50215723Y-29393104D01*
X49987152Y-29393104D02*
X49987152Y-28593104D01*
X50063342Y-28707390D01*
X50139533Y-28783580D01*
X50215723Y-28821676D01*
X49301438Y-28935961D02*
X49377628Y-28897866D01*
X49415723Y-28859771D01*
X49453819Y-28783580D01*
X49453819Y-28745485D01*
X49415723Y-28669295D01*
X49377628Y-28631200D01*
X49301438Y-28593104D01*
X49149057Y-28593104D01*
X49072866Y-28631200D01*
X49034771Y-28669295D01*
X48996676Y-28745485D01*
X48996676Y-28783580D01*
X49034771Y-28859771D01*
X49072866Y-28897866D01*
X49149057Y-28935961D01*
X49301438Y-28935961D01*
X49377628Y-28974057D01*
X49415723Y-29012152D01*
X49453819Y-29088342D01*
X49453819Y-29240723D01*
X49415723Y-29316914D01*
X49377628Y-29355009D01*
X49301438Y-29393104D01*
X49149057Y-29393104D01*
X49072866Y-29355009D01*
X49034771Y-29316914D01*
X48996676Y-29240723D01*
X48996676Y-29088342D01*
X49034771Y-29012152D01*
X49072866Y-28974057D01*
X49149057Y-28935961D01*
G04 #@! TO.C,D19*
X70027628Y-29393104D02*
X70027628Y-28593104D01*
X69837152Y-28593104D01*
X69722866Y-28631200D01*
X69646676Y-28707390D01*
X69608580Y-28783580D01*
X69570485Y-28935961D01*
X69570485Y-29050247D01*
X69608580Y-29202628D01*
X69646676Y-29278819D01*
X69722866Y-29355009D01*
X69837152Y-29393104D01*
X70027628Y-29393104D01*
X68808580Y-29393104D02*
X69265723Y-29393104D01*
X69037152Y-29393104D02*
X69037152Y-28593104D01*
X69113342Y-28707390D01*
X69189533Y-28783580D01*
X69265723Y-28821676D01*
X68427628Y-29393104D02*
X68275247Y-29393104D01*
X68199057Y-29355009D01*
X68160961Y-29316914D01*
X68084771Y-29202628D01*
X68046676Y-29050247D01*
X68046676Y-28745485D01*
X68084771Y-28669295D01*
X68122866Y-28631200D01*
X68199057Y-28593104D01*
X68351438Y-28593104D01*
X68427628Y-28631200D01*
X68465723Y-28669295D01*
X68503819Y-28745485D01*
X68503819Y-28935961D01*
X68465723Y-29012152D01*
X68427628Y-29050247D01*
X68351438Y-29088342D01*
X68199057Y-29088342D01*
X68122866Y-29050247D01*
X68084771Y-29012152D01*
X68046676Y-28935961D01*
G04 #@! TO.C,D20*
X89077628Y-29393104D02*
X89077628Y-28593104D01*
X88887152Y-28593104D01*
X88772866Y-28631200D01*
X88696676Y-28707390D01*
X88658580Y-28783580D01*
X88620485Y-28935961D01*
X88620485Y-29050247D01*
X88658580Y-29202628D01*
X88696676Y-29278819D01*
X88772866Y-29355009D01*
X88887152Y-29393104D01*
X89077628Y-29393104D01*
X88315723Y-28669295D02*
X88277628Y-28631200D01*
X88201438Y-28593104D01*
X88010961Y-28593104D01*
X87934771Y-28631200D01*
X87896676Y-28669295D01*
X87858580Y-28745485D01*
X87858580Y-28821676D01*
X87896676Y-28935961D01*
X88353819Y-29393104D01*
X87858580Y-29393104D01*
X87363342Y-28593104D02*
X87287152Y-28593104D01*
X87210961Y-28631200D01*
X87172866Y-28669295D01*
X87134771Y-28745485D01*
X87096676Y-28897866D01*
X87096676Y-29088342D01*
X87134771Y-29240723D01*
X87172866Y-29316914D01*
X87210961Y-29355009D01*
X87287152Y-29393104D01*
X87363342Y-29393104D01*
X87439533Y-29355009D01*
X87477628Y-29316914D01*
X87515723Y-29240723D01*
X87553819Y-29088342D01*
X87553819Y-28897866D01*
X87515723Y-28745485D01*
X87477628Y-28669295D01*
X87439533Y-28631200D01*
X87363342Y-28593104D01*
G04 #@! TO.C,D21*
X108127428Y-29393104D02*
X108127428Y-28593104D01*
X107936952Y-28593104D01*
X107822666Y-28631200D01*
X107746476Y-28707390D01*
X107708380Y-28783580D01*
X107670285Y-28935961D01*
X107670285Y-29050247D01*
X107708380Y-29202628D01*
X107746476Y-29278819D01*
X107822666Y-29355009D01*
X107936952Y-29393104D01*
X108127428Y-29393104D01*
X107365523Y-28669295D02*
X107327428Y-28631200D01*
X107251238Y-28593104D01*
X107060761Y-28593104D01*
X106984571Y-28631200D01*
X106946476Y-28669295D01*
X106908380Y-28745485D01*
X106908380Y-28821676D01*
X106946476Y-28935961D01*
X107403619Y-29393104D01*
X106908380Y-29393104D01*
X106146476Y-29393104D02*
X106603619Y-29393104D01*
X106375047Y-29393104D02*
X106375047Y-28593104D01*
X106451238Y-28707390D01*
X106527428Y-28783580D01*
X106603619Y-28821676D01*
G04 #@! TO.C,D22*
X127177428Y-29393104D02*
X127177428Y-28593104D01*
X126986952Y-28593104D01*
X126872666Y-28631200D01*
X126796476Y-28707390D01*
X126758380Y-28783580D01*
X126720285Y-28935961D01*
X126720285Y-29050247D01*
X126758380Y-29202628D01*
X126796476Y-29278819D01*
X126872666Y-29355009D01*
X126986952Y-29393104D01*
X127177428Y-29393104D01*
X126415523Y-28669295D02*
X126377428Y-28631200D01*
X126301238Y-28593104D01*
X126110761Y-28593104D01*
X126034571Y-28631200D01*
X125996476Y-28669295D01*
X125958380Y-28745485D01*
X125958380Y-28821676D01*
X125996476Y-28935961D01*
X126453619Y-29393104D01*
X125958380Y-29393104D01*
X125653619Y-28669295D02*
X125615523Y-28631200D01*
X125539333Y-28593104D01*
X125348857Y-28593104D01*
X125272666Y-28631200D01*
X125234571Y-28669295D01*
X125196476Y-28745485D01*
X125196476Y-28821676D01*
X125234571Y-28935961D01*
X125691714Y-29393104D01*
X125196476Y-29393104D01*
G04 #@! TO.C,D23*
X141465428Y-29393104D02*
X141465428Y-28593104D01*
X141274952Y-28593104D01*
X141160666Y-28631200D01*
X141084476Y-28707390D01*
X141046380Y-28783580D01*
X141008285Y-28935961D01*
X141008285Y-29050247D01*
X141046380Y-29202628D01*
X141084476Y-29278819D01*
X141160666Y-29355009D01*
X141274952Y-29393104D01*
X141465428Y-29393104D01*
X140703523Y-28669295D02*
X140665428Y-28631200D01*
X140589238Y-28593104D01*
X140398761Y-28593104D01*
X140322571Y-28631200D01*
X140284476Y-28669295D01*
X140246380Y-28745485D01*
X140246380Y-28821676D01*
X140284476Y-28935961D01*
X140741619Y-29393104D01*
X140246380Y-29393104D01*
X139979714Y-28593104D02*
X139484476Y-28593104D01*
X139751142Y-28897866D01*
X139636857Y-28897866D01*
X139560666Y-28935961D01*
X139522571Y-28974057D01*
X139484476Y-29050247D01*
X139484476Y-29240723D01*
X139522571Y-29316914D01*
X139560666Y-29355009D01*
X139636857Y-29393104D01*
X139865428Y-29393104D01*
X139941619Y-29355009D01*
X139979714Y-29316914D01*
G04 #@! TO.C,D24*
X170040428Y-29393104D02*
X170040428Y-28593104D01*
X169849952Y-28593104D01*
X169735666Y-28631200D01*
X169659476Y-28707390D01*
X169621380Y-28783580D01*
X169583285Y-28935961D01*
X169583285Y-29050247D01*
X169621380Y-29202628D01*
X169659476Y-29278819D01*
X169735666Y-29355009D01*
X169849952Y-29393104D01*
X170040428Y-29393104D01*
X169278523Y-28669295D02*
X169240428Y-28631200D01*
X169164238Y-28593104D01*
X168973761Y-28593104D01*
X168897571Y-28631200D01*
X168859476Y-28669295D01*
X168821380Y-28745485D01*
X168821380Y-28821676D01*
X168859476Y-28935961D01*
X169316619Y-29393104D01*
X168821380Y-29393104D01*
X168135666Y-28859771D02*
X168135666Y-29393104D01*
X168326142Y-28555009D02*
X168516619Y-29126438D01*
X168021380Y-29126438D01*
G04 #@! TO.C,D25*
X184327428Y-29393104D02*
X184327428Y-28593104D01*
X184136952Y-28593104D01*
X184022666Y-28631200D01*
X183946476Y-28707390D01*
X183908380Y-28783580D01*
X183870285Y-28935961D01*
X183870285Y-29050247D01*
X183908380Y-29202628D01*
X183946476Y-29278819D01*
X184022666Y-29355009D01*
X184136952Y-29393104D01*
X184327428Y-29393104D01*
X183565523Y-28669295D02*
X183527428Y-28631200D01*
X183451238Y-28593104D01*
X183260761Y-28593104D01*
X183184571Y-28631200D01*
X183146476Y-28669295D01*
X183108380Y-28745485D01*
X183108380Y-28821676D01*
X183146476Y-28935961D01*
X183603619Y-29393104D01*
X183108380Y-29393104D01*
X182384571Y-28593104D02*
X182765523Y-28593104D01*
X182803619Y-28974057D01*
X182765523Y-28935961D01*
X182689333Y-28897866D01*
X182498857Y-28897866D01*
X182422666Y-28935961D01*
X182384571Y-28974057D01*
X182346476Y-29050247D01*
X182346476Y-29240723D01*
X182384571Y-29316914D01*
X182422666Y-29355009D01*
X182498857Y-29393104D01*
X182689333Y-29393104D01*
X182765523Y-29355009D01*
X182803619Y-29316914D01*
G04 #@! TO.C,D26*
X203377428Y-29393104D02*
X203377428Y-28593104D01*
X203186952Y-28593104D01*
X203072666Y-28631200D01*
X202996476Y-28707390D01*
X202958380Y-28783580D01*
X202920285Y-28935961D01*
X202920285Y-29050247D01*
X202958380Y-29202628D01*
X202996476Y-29278819D01*
X203072666Y-29355009D01*
X203186952Y-29393104D01*
X203377428Y-29393104D01*
X202615523Y-28669295D02*
X202577428Y-28631200D01*
X202501238Y-28593104D01*
X202310761Y-28593104D01*
X202234571Y-28631200D01*
X202196476Y-28669295D01*
X202158380Y-28745485D01*
X202158380Y-28821676D01*
X202196476Y-28935961D01*
X202653619Y-29393104D01*
X202158380Y-29393104D01*
X201472666Y-28593104D02*
X201625047Y-28593104D01*
X201701238Y-28631200D01*
X201739333Y-28669295D01*
X201815523Y-28783580D01*
X201853619Y-28935961D01*
X201853619Y-29240723D01*
X201815523Y-29316914D01*
X201777428Y-29355009D01*
X201701238Y-29393104D01*
X201548857Y-29393104D01*
X201472666Y-29355009D01*
X201434571Y-29316914D01*
X201396476Y-29240723D01*
X201396476Y-29050247D01*
X201434571Y-28974057D01*
X201472666Y-28935961D01*
X201548857Y-28897866D01*
X201701238Y-28897866D01*
X201777428Y-28935961D01*
X201815523Y-28974057D01*
X201853619Y-29050247D01*
G04 #@! TO.C,D27*
X222427428Y-29393104D02*
X222427428Y-28593104D01*
X222236952Y-28593104D01*
X222122666Y-28631200D01*
X222046476Y-28707390D01*
X222008380Y-28783580D01*
X221970285Y-28935961D01*
X221970285Y-29050247D01*
X222008380Y-29202628D01*
X222046476Y-29278819D01*
X222122666Y-29355009D01*
X222236952Y-29393104D01*
X222427428Y-29393104D01*
X221665523Y-28669295D02*
X221627428Y-28631200D01*
X221551238Y-28593104D01*
X221360761Y-28593104D01*
X221284571Y-28631200D01*
X221246476Y-28669295D01*
X221208380Y-28745485D01*
X221208380Y-28821676D01*
X221246476Y-28935961D01*
X221703619Y-29393104D01*
X221208380Y-29393104D01*
X220941714Y-28593104D02*
X220408380Y-28593104D01*
X220751238Y-29393104D01*
G04 #@! TO.C,D28*
X241477428Y-29393104D02*
X241477428Y-28593104D01*
X241286952Y-28593104D01*
X241172666Y-28631200D01*
X241096476Y-28707390D01*
X241058380Y-28783580D01*
X241020285Y-28935961D01*
X241020285Y-29050247D01*
X241058380Y-29202628D01*
X241096476Y-29278819D01*
X241172666Y-29355009D01*
X241286952Y-29393104D01*
X241477428Y-29393104D01*
X240715523Y-28669295D02*
X240677428Y-28631200D01*
X240601238Y-28593104D01*
X240410761Y-28593104D01*
X240334571Y-28631200D01*
X240296476Y-28669295D01*
X240258380Y-28745485D01*
X240258380Y-28821676D01*
X240296476Y-28935961D01*
X240753619Y-29393104D01*
X240258380Y-29393104D01*
X239801238Y-28935961D02*
X239877428Y-28897866D01*
X239915523Y-28859771D01*
X239953619Y-28783580D01*
X239953619Y-28745485D01*
X239915523Y-28669295D01*
X239877428Y-28631200D01*
X239801238Y-28593104D01*
X239648857Y-28593104D01*
X239572666Y-28631200D01*
X239534571Y-28669295D01*
X239496476Y-28745485D01*
X239496476Y-28783580D01*
X239534571Y-28859771D01*
X239572666Y-28897866D01*
X239648857Y-28935961D01*
X239801238Y-28935961D01*
X239877428Y-28974057D01*
X239915523Y-29012152D01*
X239953619Y-29088342D01*
X239953619Y-29240723D01*
X239915523Y-29316914D01*
X239877428Y-29355009D01*
X239801238Y-29393104D01*
X239648857Y-29393104D01*
X239572666Y-29355009D01*
X239534571Y-29316914D01*
X239496476Y-29240723D01*
X239496476Y-29088342D01*
X239534571Y-29012152D01*
X239572666Y-28974057D01*
X239648857Y-28935961D01*
G04 #@! TO.C,D29*
X260527428Y-29393104D02*
X260527428Y-28593104D01*
X260336952Y-28593104D01*
X260222666Y-28631200D01*
X260146476Y-28707390D01*
X260108380Y-28783580D01*
X260070285Y-28935961D01*
X260070285Y-29050247D01*
X260108380Y-29202628D01*
X260146476Y-29278819D01*
X260222666Y-29355009D01*
X260336952Y-29393104D01*
X260527428Y-29393104D01*
X259765523Y-28669295D02*
X259727428Y-28631200D01*
X259651238Y-28593104D01*
X259460761Y-28593104D01*
X259384571Y-28631200D01*
X259346476Y-28669295D01*
X259308380Y-28745485D01*
X259308380Y-28821676D01*
X259346476Y-28935961D01*
X259803619Y-29393104D01*
X259308380Y-29393104D01*
X258927428Y-29393104D02*
X258775047Y-29393104D01*
X258698857Y-29355009D01*
X258660761Y-29316914D01*
X258584571Y-29202628D01*
X258546476Y-29050247D01*
X258546476Y-28745485D01*
X258584571Y-28669295D01*
X258622666Y-28631200D01*
X258698857Y-28593104D01*
X258851238Y-28593104D01*
X258927428Y-28631200D01*
X258965523Y-28669295D01*
X259003619Y-28745485D01*
X259003619Y-28935961D01*
X258965523Y-29012152D01*
X258927428Y-29050247D01*
X258851238Y-29088342D01*
X258698857Y-29088342D01*
X258622666Y-29050247D01*
X258584571Y-29012152D01*
X258546476Y-28935961D01*
G04 #@! TO.C,D30*
X284340428Y-29393104D02*
X284340428Y-28593104D01*
X284149952Y-28593104D01*
X284035666Y-28631200D01*
X283959476Y-28707390D01*
X283921380Y-28783580D01*
X283883285Y-28935961D01*
X283883285Y-29050247D01*
X283921380Y-29202628D01*
X283959476Y-29278819D01*
X284035666Y-29355009D01*
X284149952Y-29393104D01*
X284340428Y-29393104D01*
X283616619Y-28593104D02*
X283121380Y-28593104D01*
X283388047Y-28897866D01*
X283273761Y-28897866D01*
X283197571Y-28935961D01*
X283159476Y-28974057D01*
X283121380Y-29050247D01*
X283121380Y-29240723D01*
X283159476Y-29316914D01*
X283197571Y-29355009D01*
X283273761Y-29393104D01*
X283502333Y-29393104D01*
X283578523Y-29355009D01*
X283616619Y-29316914D01*
X282626142Y-28593104D02*
X282549952Y-28593104D01*
X282473761Y-28631200D01*
X282435666Y-28669295D01*
X282397571Y-28745485D01*
X282359476Y-28897866D01*
X282359476Y-29088342D01*
X282397571Y-29240723D01*
X282435666Y-29316914D01*
X282473761Y-29355009D01*
X282549952Y-29393104D01*
X282626142Y-29393104D01*
X282702333Y-29355009D01*
X282740428Y-29316914D01*
X282778523Y-29240723D01*
X282816619Y-29088342D01*
X282816619Y-28897866D01*
X282778523Y-28745485D01*
X282740428Y-28669295D01*
X282702333Y-28631200D01*
X282626142Y-28593104D01*
G04 #@! TO.C,D31*
X29546428Y-48443104D02*
X29546428Y-47643104D01*
X29355952Y-47643104D01*
X29241666Y-47681200D01*
X29165476Y-47757390D01*
X29127380Y-47833580D01*
X29089285Y-47985961D01*
X29089285Y-48100247D01*
X29127380Y-48252628D01*
X29165476Y-48328819D01*
X29241666Y-48405009D01*
X29355952Y-48443104D01*
X29546428Y-48443104D01*
X28822619Y-47643104D02*
X28327380Y-47643104D01*
X28594047Y-47947866D01*
X28479761Y-47947866D01*
X28403571Y-47985961D01*
X28365476Y-48024057D01*
X28327380Y-48100247D01*
X28327380Y-48290723D01*
X28365476Y-48366914D01*
X28403571Y-48405009D01*
X28479761Y-48443104D01*
X28708333Y-48443104D01*
X28784523Y-48405009D01*
X28822619Y-48366914D01*
X27565476Y-48443104D02*
X28022619Y-48443104D01*
X27794047Y-48443104D02*
X27794047Y-47643104D01*
X27870238Y-47757390D01*
X27946428Y-47833580D01*
X28022619Y-47871676D01*
G04 #@! TO.C,D32*
X55740228Y-48443104D02*
X55740228Y-47643104D01*
X55549752Y-47643104D01*
X55435466Y-47681200D01*
X55359276Y-47757390D01*
X55321180Y-47833580D01*
X55283085Y-47985961D01*
X55283085Y-48100247D01*
X55321180Y-48252628D01*
X55359276Y-48328819D01*
X55435466Y-48405009D01*
X55549752Y-48443104D01*
X55740228Y-48443104D01*
X55016419Y-47643104D02*
X54521180Y-47643104D01*
X54787847Y-47947866D01*
X54673561Y-47947866D01*
X54597371Y-47985961D01*
X54559276Y-48024057D01*
X54521180Y-48100247D01*
X54521180Y-48290723D01*
X54559276Y-48366914D01*
X54597371Y-48405009D01*
X54673561Y-48443104D01*
X54902133Y-48443104D01*
X54978323Y-48405009D01*
X55016419Y-48366914D01*
X54216419Y-47719295D02*
X54178323Y-47681200D01*
X54102133Y-47643104D01*
X53911657Y-47643104D01*
X53835466Y-47681200D01*
X53797371Y-47719295D01*
X53759276Y-47795485D01*
X53759276Y-47871676D01*
X53797371Y-47985961D01*
X54254514Y-48443104D01*
X53759276Y-48443104D01*
G04 #@! TO.C,D33*
X74790228Y-48443104D02*
X74790228Y-47643104D01*
X74599752Y-47643104D01*
X74485466Y-47681200D01*
X74409276Y-47757390D01*
X74371180Y-47833580D01*
X74333085Y-47985961D01*
X74333085Y-48100247D01*
X74371180Y-48252628D01*
X74409276Y-48328819D01*
X74485466Y-48405009D01*
X74599752Y-48443104D01*
X74790228Y-48443104D01*
X74066419Y-47643104D02*
X73571180Y-47643104D01*
X73837847Y-47947866D01*
X73723561Y-47947866D01*
X73647371Y-47985961D01*
X73609276Y-48024057D01*
X73571180Y-48100247D01*
X73571180Y-48290723D01*
X73609276Y-48366914D01*
X73647371Y-48405009D01*
X73723561Y-48443104D01*
X73952133Y-48443104D01*
X74028323Y-48405009D01*
X74066419Y-48366914D01*
X73304514Y-47643104D02*
X72809276Y-47643104D01*
X73075942Y-47947866D01*
X72961657Y-47947866D01*
X72885466Y-47985961D01*
X72847371Y-48024057D01*
X72809276Y-48100247D01*
X72809276Y-48290723D01*
X72847371Y-48366914D01*
X72885466Y-48405009D01*
X72961657Y-48443104D01*
X73190228Y-48443104D01*
X73266419Y-48405009D01*
X73304514Y-48366914D01*
G04 #@! TO.C,D34*
X93840228Y-48443104D02*
X93840228Y-47643104D01*
X93649752Y-47643104D01*
X93535466Y-47681200D01*
X93459276Y-47757390D01*
X93421180Y-47833580D01*
X93383085Y-47985961D01*
X93383085Y-48100247D01*
X93421180Y-48252628D01*
X93459276Y-48328819D01*
X93535466Y-48405009D01*
X93649752Y-48443104D01*
X93840228Y-48443104D01*
X93116419Y-47643104D02*
X92621180Y-47643104D01*
X92887847Y-47947866D01*
X92773561Y-47947866D01*
X92697371Y-47985961D01*
X92659276Y-48024057D01*
X92621180Y-48100247D01*
X92621180Y-48290723D01*
X92659276Y-48366914D01*
X92697371Y-48405009D01*
X92773561Y-48443104D01*
X93002133Y-48443104D01*
X93078323Y-48405009D01*
X93116419Y-48366914D01*
X91935466Y-47909771D02*
X91935466Y-48443104D01*
X92125942Y-47605009D02*
X92316419Y-48176438D01*
X91821180Y-48176438D01*
G04 #@! TO.C,D35*
X112890428Y-48443104D02*
X112890428Y-47643104D01*
X112699952Y-47643104D01*
X112585666Y-47681200D01*
X112509476Y-47757390D01*
X112471380Y-47833580D01*
X112433285Y-47985961D01*
X112433285Y-48100247D01*
X112471380Y-48252628D01*
X112509476Y-48328819D01*
X112585666Y-48405009D01*
X112699952Y-48443104D01*
X112890428Y-48443104D01*
X112166619Y-47643104D02*
X111671380Y-47643104D01*
X111938047Y-47947866D01*
X111823761Y-47947866D01*
X111747571Y-47985961D01*
X111709476Y-48024057D01*
X111671380Y-48100247D01*
X111671380Y-48290723D01*
X111709476Y-48366914D01*
X111747571Y-48405009D01*
X111823761Y-48443104D01*
X112052333Y-48443104D01*
X112128523Y-48405009D01*
X112166619Y-48366914D01*
X110947571Y-47643104D02*
X111328523Y-47643104D01*
X111366619Y-48024057D01*
X111328523Y-47985961D01*
X111252333Y-47947866D01*
X111061857Y-47947866D01*
X110985666Y-47985961D01*
X110947571Y-48024057D01*
X110909476Y-48100247D01*
X110909476Y-48290723D01*
X110947571Y-48366914D01*
X110985666Y-48405009D01*
X111061857Y-48443104D01*
X111252333Y-48443104D01*
X111328523Y-48405009D01*
X111366619Y-48366914D01*
G04 #@! TO.C,D36*
X131940428Y-48443104D02*
X131940428Y-47643104D01*
X131749952Y-47643104D01*
X131635666Y-47681200D01*
X131559476Y-47757390D01*
X131521380Y-47833580D01*
X131483285Y-47985961D01*
X131483285Y-48100247D01*
X131521380Y-48252628D01*
X131559476Y-48328819D01*
X131635666Y-48405009D01*
X131749952Y-48443104D01*
X131940428Y-48443104D01*
X131216619Y-47643104D02*
X130721380Y-47643104D01*
X130988047Y-47947866D01*
X130873761Y-47947866D01*
X130797571Y-47985961D01*
X130759476Y-48024057D01*
X130721380Y-48100247D01*
X130721380Y-48290723D01*
X130759476Y-48366914D01*
X130797571Y-48405009D01*
X130873761Y-48443104D01*
X131102333Y-48443104D01*
X131178523Y-48405009D01*
X131216619Y-48366914D01*
X130035666Y-47643104D02*
X130188047Y-47643104D01*
X130264238Y-47681200D01*
X130302333Y-47719295D01*
X130378523Y-47833580D01*
X130416619Y-47985961D01*
X130416619Y-48290723D01*
X130378523Y-48366914D01*
X130340428Y-48405009D01*
X130264238Y-48443104D01*
X130111857Y-48443104D01*
X130035666Y-48405009D01*
X129997571Y-48366914D01*
X129959476Y-48290723D01*
X129959476Y-48100247D01*
X129997571Y-48024057D01*
X130035666Y-47985961D01*
X130111857Y-47947866D01*
X130264238Y-47947866D01*
X130340428Y-47985961D01*
X130378523Y-48024057D01*
X130416619Y-48100247D01*
G04 #@! TO.C,D37*
X150990428Y-48443104D02*
X150990428Y-47643104D01*
X150799952Y-47643104D01*
X150685666Y-47681200D01*
X150609476Y-47757390D01*
X150571380Y-47833580D01*
X150533285Y-47985961D01*
X150533285Y-48100247D01*
X150571380Y-48252628D01*
X150609476Y-48328819D01*
X150685666Y-48405009D01*
X150799952Y-48443104D01*
X150990428Y-48443104D01*
X150266619Y-47643104D02*
X149771380Y-47643104D01*
X150038047Y-47947866D01*
X149923761Y-47947866D01*
X149847571Y-47985961D01*
X149809476Y-48024057D01*
X149771380Y-48100247D01*
X149771380Y-48290723D01*
X149809476Y-48366914D01*
X149847571Y-48405009D01*
X149923761Y-48443104D01*
X150152333Y-48443104D01*
X150228523Y-48405009D01*
X150266619Y-48366914D01*
X149504714Y-47643104D02*
X148971380Y-47643104D01*
X149314238Y-48443104D01*
G04 #@! TO.C,D38*
X170040428Y-48443104D02*
X170040428Y-47643104D01*
X169849952Y-47643104D01*
X169735666Y-47681200D01*
X169659476Y-47757390D01*
X169621380Y-47833580D01*
X169583285Y-47985961D01*
X169583285Y-48100247D01*
X169621380Y-48252628D01*
X169659476Y-48328819D01*
X169735666Y-48405009D01*
X169849952Y-48443104D01*
X170040428Y-48443104D01*
X169316619Y-47643104D02*
X168821380Y-47643104D01*
X169088047Y-47947866D01*
X168973761Y-47947866D01*
X168897571Y-47985961D01*
X168859476Y-48024057D01*
X168821380Y-48100247D01*
X168821380Y-48290723D01*
X168859476Y-48366914D01*
X168897571Y-48405009D01*
X168973761Y-48443104D01*
X169202333Y-48443104D01*
X169278523Y-48405009D01*
X169316619Y-48366914D01*
X168364238Y-47985961D02*
X168440428Y-47947866D01*
X168478523Y-47909771D01*
X168516619Y-47833580D01*
X168516619Y-47795485D01*
X168478523Y-47719295D01*
X168440428Y-47681200D01*
X168364238Y-47643104D01*
X168211857Y-47643104D01*
X168135666Y-47681200D01*
X168097571Y-47719295D01*
X168059476Y-47795485D01*
X168059476Y-47833580D01*
X168097571Y-47909771D01*
X168135666Y-47947866D01*
X168211857Y-47985961D01*
X168364238Y-47985961D01*
X168440428Y-48024057D01*
X168478523Y-48062152D01*
X168516619Y-48138342D01*
X168516619Y-48290723D01*
X168478523Y-48366914D01*
X168440428Y-48405009D01*
X168364238Y-48443104D01*
X168211857Y-48443104D01*
X168135666Y-48405009D01*
X168097571Y-48366914D01*
X168059476Y-48290723D01*
X168059476Y-48138342D01*
X168097571Y-48062152D01*
X168135666Y-48024057D01*
X168211857Y-47985961D01*
G04 #@! TO.C,D39*
X189090428Y-48443104D02*
X189090428Y-47643104D01*
X188899952Y-47643104D01*
X188785666Y-47681200D01*
X188709476Y-47757390D01*
X188671380Y-47833580D01*
X188633285Y-47985961D01*
X188633285Y-48100247D01*
X188671380Y-48252628D01*
X188709476Y-48328819D01*
X188785666Y-48405009D01*
X188899952Y-48443104D01*
X189090428Y-48443104D01*
X188366619Y-47643104D02*
X187871380Y-47643104D01*
X188138047Y-47947866D01*
X188023761Y-47947866D01*
X187947571Y-47985961D01*
X187909476Y-48024057D01*
X187871380Y-48100247D01*
X187871380Y-48290723D01*
X187909476Y-48366914D01*
X187947571Y-48405009D01*
X188023761Y-48443104D01*
X188252333Y-48443104D01*
X188328523Y-48405009D01*
X188366619Y-48366914D01*
X187490428Y-48443104D02*
X187338047Y-48443104D01*
X187261857Y-48405009D01*
X187223761Y-48366914D01*
X187147571Y-48252628D01*
X187109476Y-48100247D01*
X187109476Y-47795485D01*
X187147571Y-47719295D01*
X187185666Y-47681200D01*
X187261857Y-47643104D01*
X187414238Y-47643104D01*
X187490428Y-47681200D01*
X187528523Y-47719295D01*
X187566619Y-47795485D01*
X187566619Y-47985961D01*
X187528523Y-48062152D01*
X187490428Y-48100247D01*
X187414238Y-48138342D01*
X187261857Y-48138342D01*
X187185666Y-48100247D01*
X187147571Y-48062152D01*
X187109476Y-47985961D01*
G04 #@! TO.C,D40*
X208140428Y-48443104D02*
X208140428Y-47643104D01*
X207949952Y-47643104D01*
X207835666Y-47681200D01*
X207759476Y-47757390D01*
X207721380Y-47833580D01*
X207683285Y-47985961D01*
X207683285Y-48100247D01*
X207721380Y-48252628D01*
X207759476Y-48328819D01*
X207835666Y-48405009D01*
X207949952Y-48443104D01*
X208140428Y-48443104D01*
X206997571Y-47909771D02*
X206997571Y-48443104D01*
X207188047Y-47605009D02*
X207378523Y-48176438D01*
X206883285Y-48176438D01*
X206426142Y-47643104D02*
X206349952Y-47643104D01*
X206273761Y-47681200D01*
X206235666Y-47719295D01*
X206197571Y-47795485D01*
X206159476Y-47947866D01*
X206159476Y-48138342D01*
X206197571Y-48290723D01*
X206235666Y-48366914D01*
X206273761Y-48405009D01*
X206349952Y-48443104D01*
X206426142Y-48443104D01*
X206502333Y-48405009D01*
X206540428Y-48366914D01*
X206578523Y-48290723D01*
X206616619Y-48138342D01*
X206616619Y-47947866D01*
X206578523Y-47795485D01*
X206540428Y-47719295D01*
X206502333Y-47681200D01*
X206426142Y-47643104D01*
G04 #@! TO.C,D41*
X227190428Y-48443104D02*
X227190428Y-47643104D01*
X226999952Y-47643104D01*
X226885666Y-47681200D01*
X226809476Y-47757390D01*
X226771380Y-47833580D01*
X226733285Y-47985961D01*
X226733285Y-48100247D01*
X226771380Y-48252628D01*
X226809476Y-48328819D01*
X226885666Y-48405009D01*
X226999952Y-48443104D01*
X227190428Y-48443104D01*
X226047571Y-47909771D02*
X226047571Y-48443104D01*
X226238047Y-47605009D02*
X226428523Y-48176438D01*
X225933285Y-48176438D01*
X225209476Y-48443104D02*
X225666619Y-48443104D01*
X225438047Y-48443104D02*
X225438047Y-47643104D01*
X225514238Y-47757390D01*
X225590428Y-47833580D01*
X225666619Y-47871676D01*
G04 #@! TO.C,D42*
X246240428Y-48443104D02*
X246240428Y-47643104D01*
X246049952Y-47643104D01*
X245935666Y-47681200D01*
X245859476Y-47757390D01*
X245821380Y-47833580D01*
X245783285Y-47985961D01*
X245783285Y-48100247D01*
X245821380Y-48252628D01*
X245859476Y-48328819D01*
X245935666Y-48405009D01*
X246049952Y-48443104D01*
X246240428Y-48443104D01*
X245097571Y-47909771D02*
X245097571Y-48443104D01*
X245288047Y-47605009D02*
X245478523Y-48176438D01*
X244983285Y-48176438D01*
X244716619Y-47719295D02*
X244678523Y-47681200D01*
X244602333Y-47643104D01*
X244411857Y-47643104D01*
X244335666Y-47681200D01*
X244297571Y-47719295D01*
X244259476Y-47795485D01*
X244259476Y-47871676D01*
X244297571Y-47985961D01*
X244754714Y-48443104D01*
X244259476Y-48443104D01*
G04 #@! TO.C,D43*
X265290428Y-48443104D02*
X265290428Y-47643104D01*
X265099952Y-47643104D01*
X264985666Y-47681200D01*
X264909476Y-47757390D01*
X264871380Y-47833580D01*
X264833285Y-47985961D01*
X264833285Y-48100247D01*
X264871380Y-48252628D01*
X264909476Y-48328819D01*
X264985666Y-48405009D01*
X265099952Y-48443104D01*
X265290428Y-48443104D01*
X264147571Y-47909771D02*
X264147571Y-48443104D01*
X264338047Y-47605009D02*
X264528523Y-48176438D01*
X264033285Y-48176438D01*
X263804714Y-47643104D02*
X263309476Y-47643104D01*
X263576142Y-47947866D01*
X263461857Y-47947866D01*
X263385666Y-47985961D01*
X263347571Y-48024057D01*
X263309476Y-48100247D01*
X263309476Y-48290723D01*
X263347571Y-48366914D01*
X263385666Y-48405009D01*
X263461857Y-48443104D01*
X263690428Y-48443104D01*
X263766619Y-48405009D01*
X263804714Y-48366914D01*
G04 #@! TO.C,D44*
X277196428Y-48443104D02*
X277196428Y-47643104D01*
X277005952Y-47643104D01*
X276891666Y-47681200D01*
X276815476Y-47757390D01*
X276777380Y-47833580D01*
X276739285Y-47985961D01*
X276739285Y-48100247D01*
X276777380Y-48252628D01*
X276815476Y-48328819D01*
X276891666Y-48405009D01*
X277005952Y-48443104D01*
X277196428Y-48443104D01*
X276053571Y-47909771D02*
X276053571Y-48443104D01*
X276244047Y-47605009D02*
X276434523Y-48176438D01*
X275939285Y-48176438D01*
X275291666Y-47909771D02*
X275291666Y-48443104D01*
X275482142Y-47605009D02*
X275672619Y-48176438D01*
X275177380Y-48176438D01*
G04 #@! TO.C,D45*
X34308928Y-67493104D02*
X34308928Y-66693104D01*
X34118452Y-66693104D01*
X34004166Y-66731200D01*
X33927976Y-66807390D01*
X33889880Y-66883580D01*
X33851785Y-67035961D01*
X33851785Y-67150247D01*
X33889880Y-67302628D01*
X33927976Y-67378819D01*
X34004166Y-67455009D01*
X34118452Y-67493104D01*
X34308928Y-67493104D01*
X33166071Y-66959771D02*
X33166071Y-67493104D01*
X33356547Y-66655009D02*
X33547023Y-67226438D01*
X33051785Y-67226438D01*
X32366071Y-66693104D02*
X32747023Y-66693104D01*
X32785119Y-67074057D01*
X32747023Y-67035961D01*
X32670833Y-66997866D01*
X32480357Y-66997866D01*
X32404166Y-67035961D01*
X32366071Y-67074057D01*
X32327976Y-67150247D01*
X32327976Y-67340723D01*
X32366071Y-67416914D01*
X32404166Y-67455009D01*
X32480357Y-67493104D01*
X32670833Y-67493104D01*
X32747023Y-67455009D01*
X32785119Y-67416914D01*
G04 #@! TO.C,D46*
X46215228Y-67493104D02*
X46215228Y-66693104D01*
X46024752Y-66693104D01*
X45910466Y-66731200D01*
X45834276Y-66807390D01*
X45796180Y-66883580D01*
X45758085Y-67035961D01*
X45758085Y-67150247D01*
X45796180Y-67302628D01*
X45834276Y-67378819D01*
X45910466Y-67455009D01*
X46024752Y-67493104D01*
X46215228Y-67493104D01*
X45072371Y-66959771D02*
X45072371Y-67493104D01*
X45262847Y-66655009D02*
X45453323Y-67226438D01*
X44958085Y-67226438D01*
X44310466Y-66693104D02*
X44462847Y-66693104D01*
X44539038Y-66731200D01*
X44577133Y-66769295D01*
X44653323Y-66883580D01*
X44691419Y-67035961D01*
X44691419Y-67340723D01*
X44653323Y-67416914D01*
X44615228Y-67455009D01*
X44539038Y-67493104D01*
X44386657Y-67493104D01*
X44310466Y-67455009D01*
X44272371Y-67416914D01*
X44234276Y-67340723D01*
X44234276Y-67150247D01*
X44272371Y-67074057D01*
X44310466Y-67035961D01*
X44386657Y-66997866D01*
X44539038Y-66997866D01*
X44615228Y-67035961D01*
X44653323Y-67074057D01*
X44691419Y-67150247D01*
G04 #@! TO.C,D47*
X65265228Y-67493104D02*
X65265228Y-66693104D01*
X65074752Y-66693104D01*
X64960466Y-66731200D01*
X64884276Y-66807390D01*
X64846180Y-66883580D01*
X64808085Y-67035961D01*
X64808085Y-67150247D01*
X64846180Y-67302628D01*
X64884276Y-67378819D01*
X64960466Y-67455009D01*
X65074752Y-67493104D01*
X65265228Y-67493104D01*
X64122371Y-66959771D02*
X64122371Y-67493104D01*
X64312847Y-66655009D02*
X64503323Y-67226438D01*
X64008085Y-67226438D01*
X63779514Y-66693104D02*
X63246180Y-66693104D01*
X63589038Y-67493104D01*
G04 #@! TO.C,D48*
X84315228Y-67493104D02*
X84315228Y-66693104D01*
X84124752Y-66693104D01*
X84010466Y-66731200D01*
X83934276Y-66807390D01*
X83896180Y-66883580D01*
X83858085Y-67035961D01*
X83858085Y-67150247D01*
X83896180Y-67302628D01*
X83934276Y-67378819D01*
X84010466Y-67455009D01*
X84124752Y-67493104D01*
X84315228Y-67493104D01*
X83172371Y-66959771D02*
X83172371Y-67493104D01*
X83362847Y-66655009D02*
X83553323Y-67226438D01*
X83058085Y-67226438D01*
X82639038Y-67035961D02*
X82715228Y-66997866D01*
X82753323Y-66959771D01*
X82791419Y-66883580D01*
X82791419Y-66845485D01*
X82753323Y-66769295D01*
X82715228Y-66731200D01*
X82639038Y-66693104D01*
X82486657Y-66693104D01*
X82410466Y-66731200D01*
X82372371Y-66769295D01*
X82334276Y-66845485D01*
X82334276Y-66883580D01*
X82372371Y-66959771D01*
X82410466Y-66997866D01*
X82486657Y-67035961D01*
X82639038Y-67035961D01*
X82715228Y-67074057D01*
X82753323Y-67112152D01*
X82791419Y-67188342D01*
X82791419Y-67340723D01*
X82753323Y-67416914D01*
X82715228Y-67455009D01*
X82639038Y-67493104D01*
X82486657Y-67493104D01*
X82410466Y-67455009D01*
X82372371Y-67416914D01*
X82334276Y-67340723D01*
X82334276Y-67188342D01*
X82372371Y-67112152D01*
X82410466Y-67074057D01*
X82486657Y-67035961D01*
G04 #@! TO.C,D49*
X103365428Y-67493104D02*
X103365428Y-66693104D01*
X103174952Y-66693104D01*
X103060666Y-66731200D01*
X102984476Y-66807390D01*
X102946380Y-66883580D01*
X102908285Y-67035961D01*
X102908285Y-67150247D01*
X102946380Y-67302628D01*
X102984476Y-67378819D01*
X103060666Y-67455009D01*
X103174952Y-67493104D01*
X103365428Y-67493104D01*
X102222571Y-66959771D02*
X102222571Y-67493104D01*
X102413047Y-66655009D02*
X102603523Y-67226438D01*
X102108285Y-67226438D01*
X101765428Y-67493104D02*
X101613047Y-67493104D01*
X101536857Y-67455009D01*
X101498761Y-67416914D01*
X101422571Y-67302628D01*
X101384476Y-67150247D01*
X101384476Y-66845485D01*
X101422571Y-66769295D01*
X101460666Y-66731200D01*
X101536857Y-66693104D01*
X101689238Y-66693104D01*
X101765428Y-66731200D01*
X101803523Y-66769295D01*
X101841619Y-66845485D01*
X101841619Y-67035961D01*
X101803523Y-67112152D01*
X101765428Y-67150247D01*
X101689238Y-67188342D01*
X101536857Y-67188342D01*
X101460666Y-67150247D01*
X101422571Y-67112152D01*
X101384476Y-67035961D01*
G04 #@! TO.C,D50*
X122415428Y-67493104D02*
X122415428Y-66693104D01*
X122224952Y-66693104D01*
X122110666Y-66731200D01*
X122034476Y-66807390D01*
X121996380Y-66883580D01*
X121958285Y-67035961D01*
X121958285Y-67150247D01*
X121996380Y-67302628D01*
X122034476Y-67378819D01*
X122110666Y-67455009D01*
X122224952Y-67493104D01*
X122415428Y-67493104D01*
X121234476Y-66693104D02*
X121615428Y-66693104D01*
X121653523Y-67074057D01*
X121615428Y-67035961D01*
X121539238Y-66997866D01*
X121348761Y-66997866D01*
X121272571Y-67035961D01*
X121234476Y-67074057D01*
X121196380Y-67150247D01*
X121196380Y-67340723D01*
X121234476Y-67416914D01*
X121272571Y-67455009D01*
X121348761Y-67493104D01*
X121539238Y-67493104D01*
X121615428Y-67455009D01*
X121653523Y-67416914D01*
X120701142Y-66693104D02*
X120624952Y-66693104D01*
X120548761Y-66731200D01*
X120510666Y-66769295D01*
X120472571Y-66845485D01*
X120434476Y-66997866D01*
X120434476Y-67188342D01*
X120472571Y-67340723D01*
X120510666Y-67416914D01*
X120548761Y-67455009D01*
X120624952Y-67493104D01*
X120701142Y-67493104D01*
X120777333Y-67455009D01*
X120815428Y-67416914D01*
X120853523Y-67340723D01*
X120891619Y-67188342D01*
X120891619Y-66997866D01*
X120853523Y-66845485D01*
X120815428Y-66769295D01*
X120777333Y-66731200D01*
X120701142Y-66693104D01*
G04 #@! TO.C,D51*
X141465428Y-67493104D02*
X141465428Y-66693104D01*
X141274952Y-66693104D01*
X141160666Y-66731200D01*
X141084476Y-66807390D01*
X141046380Y-66883580D01*
X141008285Y-67035961D01*
X141008285Y-67150247D01*
X141046380Y-67302628D01*
X141084476Y-67378819D01*
X141160666Y-67455009D01*
X141274952Y-67493104D01*
X141465428Y-67493104D01*
X140284476Y-66693104D02*
X140665428Y-66693104D01*
X140703523Y-67074057D01*
X140665428Y-67035961D01*
X140589238Y-66997866D01*
X140398761Y-66997866D01*
X140322571Y-67035961D01*
X140284476Y-67074057D01*
X140246380Y-67150247D01*
X140246380Y-67340723D01*
X140284476Y-67416914D01*
X140322571Y-67455009D01*
X140398761Y-67493104D01*
X140589238Y-67493104D01*
X140665428Y-67455009D01*
X140703523Y-67416914D01*
X139484476Y-67493104D02*
X139941619Y-67493104D01*
X139713047Y-67493104D02*
X139713047Y-66693104D01*
X139789238Y-66807390D01*
X139865428Y-66883580D01*
X139941619Y-66921676D01*
G04 #@! TO.C,D52*
X160515428Y-67493104D02*
X160515428Y-66693104D01*
X160324952Y-66693104D01*
X160210666Y-66731200D01*
X160134476Y-66807390D01*
X160096380Y-66883580D01*
X160058285Y-67035961D01*
X160058285Y-67150247D01*
X160096380Y-67302628D01*
X160134476Y-67378819D01*
X160210666Y-67455009D01*
X160324952Y-67493104D01*
X160515428Y-67493104D01*
X159334476Y-66693104D02*
X159715428Y-66693104D01*
X159753523Y-67074057D01*
X159715428Y-67035961D01*
X159639238Y-66997866D01*
X159448761Y-66997866D01*
X159372571Y-67035961D01*
X159334476Y-67074057D01*
X159296380Y-67150247D01*
X159296380Y-67340723D01*
X159334476Y-67416914D01*
X159372571Y-67455009D01*
X159448761Y-67493104D01*
X159639238Y-67493104D01*
X159715428Y-67455009D01*
X159753523Y-67416914D01*
X158991619Y-66769295D02*
X158953523Y-66731200D01*
X158877333Y-66693104D01*
X158686857Y-66693104D01*
X158610666Y-66731200D01*
X158572571Y-66769295D01*
X158534476Y-66845485D01*
X158534476Y-66921676D01*
X158572571Y-67035961D01*
X159029714Y-67493104D01*
X158534476Y-67493104D01*
G04 #@! TO.C,D53*
X179565428Y-67493104D02*
X179565428Y-66693104D01*
X179374952Y-66693104D01*
X179260666Y-66731200D01*
X179184476Y-66807390D01*
X179146380Y-66883580D01*
X179108285Y-67035961D01*
X179108285Y-67150247D01*
X179146380Y-67302628D01*
X179184476Y-67378819D01*
X179260666Y-67455009D01*
X179374952Y-67493104D01*
X179565428Y-67493104D01*
X178384476Y-66693104D02*
X178765428Y-66693104D01*
X178803523Y-67074057D01*
X178765428Y-67035961D01*
X178689238Y-66997866D01*
X178498761Y-66997866D01*
X178422571Y-67035961D01*
X178384476Y-67074057D01*
X178346380Y-67150247D01*
X178346380Y-67340723D01*
X178384476Y-67416914D01*
X178422571Y-67455009D01*
X178498761Y-67493104D01*
X178689238Y-67493104D01*
X178765428Y-67455009D01*
X178803523Y-67416914D01*
X178079714Y-66693104D02*
X177584476Y-66693104D01*
X177851142Y-66997866D01*
X177736857Y-66997866D01*
X177660666Y-67035961D01*
X177622571Y-67074057D01*
X177584476Y-67150247D01*
X177584476Y-67340723D01*
X177622571Y-67416914D01*
X177660666Y-67455009D01*
X177736857Y-67493104D01*
X177965428Y-67493104D01*
X178041619Y-67455009D01*
X178079714Y-67416914D01*
G04 #@! TO.C,D54*
X198615428Y-67493104D02*
X198615428Y-66693104D01*
X198424952Y-66693104D01*
X198310666Y-66731200D01*
X198234476Y-66807390D01*
X198196380Y-66883580D01*
X198158285Y-67035961D01*
X198158285Y-67150247D01*
X198196380Y-67302628D01*
X198234476Y-67378819D01*
X198310666Y-67455009D01*
X198424952Y-67493104D01*
X198615428Y-67493104D01*
X197434476Y-66693104D02*
X197815428Y-66693104D01*
X197853523Y-67074057D01*
X197815428Y-67035961D01*
X197739238Y-66997866D01*
X197548761Y-66997866D01*
X197472571Y-67035961D01*
X197434476Y-67074057D01*
X197396380Y-67150247D01*
X197396380Y-67340723D01*
X197434476Y-67416914D01*
X197472571Y-67455009D01*
X197548761Y-67493104D01*
X197739238Y-67493104D01*
X197815428Y-67455009D01*
X197853523Y-67416914D01*
X196710666Y-66959771D02*
X196710666Y-67493104D01*
X196901142Y-66655009D02*
X197091619Y-67226438D01*
X196596380Y-67226438D01*
G04 #@! TO.C,D55*
X217665428Y-67493104D02*
X217665428Y-66693104D01*
X217474952Y-66693104D01*
X217360666Y-66731200D01*
X217284476Y-66807390D01*
X217246380Y-66883580D01*
X217208285Y-67035961D01*
X217208285Y-67150247D01*
X217246380Y-67302628D01*
X217284476Y-67378819D01*
X217360666Y-67455009D01*
X217474952Y-67493104D01*
X217665428Y-67493104D01*
X216484476Y-66693104D02*
X216865428Y-66693104D01*
X216903523Y-67074057D01*
X216865428Y-67035961D01*
X216789238Y-66997866D01*
X216598761Y-66997866D01*
X216522571Y-67035961D01*
X216484476Y-67074057D01*
X216446380Y-67150247D01*
X216446380Y-67340723D01*
X216484476Y-67416914D01*
X216522571Y-67455009D01*
X216598761Y-67493104D01*
X216789238Y-67493104D01*
X216865428Y-67455009D01*
X216903523Y-67416914D01*
X215722571Y-66693104D02*
X216103523Y-66693104D01*
X216141619Y-67074057D01*
X216103523Y-67035961D01*
X216027333Y-66997866D01*
X215836857Y-66997866D01*
X215760666Y-67035961D01*
X215722571Y-67074057D01*
X215684476Y-67150247D01*
X215684476Y-67340723D01*
X215722571Y-67416914D01*
X215760666Y-67455009D01*
X215836857Y-67493104D01*
X216027333Y-67493104D01*
X216103523Y-67455009D01*
X216141619Y-67416914D01*
G04 #@! TO.C,D56*
X236715428Y-67493104D02*
X236715428Y-66693104D01*
X236524952Y-66693104D01*
X236410666Y-66731200D01*
X236334476Y-66807390D01*
X236296380Y-66883580D01*
X236258285Y-67035961D01*
X236258285Y-67150247D01*
X236296380Y-67302628D01*
X236334476Y-67378819D01*
X236410666Y-67455009D01*
X236524952Y-67493104D01*
X236715428Y-67493104D01*
X235534476Y-66693104D02*
X235915428Y-66693104D01*
X235953523Y-67074057D01*
X235915428Y-67035961D01*
X235839238Y-66997866D01*
X235648761Y-66997866D01*
X235572571Y-67035961D01*
X235534476Y-67074057D01*
X235496380Y-67150247D01*
X235496380Y-67340723D01*
X235534476Y-67416914D01*
X235572571Y-67455009D01*
X235648761Y-67493104D01*
X235839238Y-67493104D01*
X235915428Y-67455009D01*
X235953523Y-67416914D01*
X234810666Y-66693104D02*
X234963047Y-66693104D01*
X235039238Y-66731200D01*
X235077333Y-66769295D01*
X235153523Y-66883580D01*
X235191619Y-67035961D01*
X235191619Y-67340723D01*
X235153523Y-67416914D01*
X235115428Y-67455009D01*
X235039238Y-67493104D01*
X234886857Y-67493104D01*
X234810666Y-67455009D01*
X234772571Y-67416914D01*
X234734476Y-67340723D01*
X234734476Y-67150247D01*
X234772571Y-67074057D01*
X234810666Y-67035961D01*
X234886857Y-66997866D01*
X235039238Y-66997866D01*
X235115428Y-67035961D01*
X235153523Y-67074057D01*
X235191619Y-67150247D01*
G04 #@! TO.C,D57*
X272433428Y-67493104D02*
X272433428Y-66693104D01*
X272242952Y-66693104D01*
X272128666Y-66731200D01*
X272052476Y-66807390D01*
X272014380Y-66883580D01*
X271976285Y-67035961D01*
X271976285Y-67150247D01*
X272014380Y-67302628D01*
X272052476Y-67378819D01*
X272128666Y-67455009D01*
X272242952Y-67493104D01*
X272433428Y-67493104D01*
X271252476Y-66693104D02*
X271633428Y-66693104D01*
X271671523Y-67074057D01*
X271633428Y-67035961D01*
X271557238Y-66997866D01*
X271366761Y-66997866D01*
X271290571Y-67035961D01*
X271252476Y-67074057D01*
X271214380Y-67150247D01*
X271214380Y-67340723D01*
X271252476Y-67416914D01*
X271290571Y-67455009D01*
X271366761Y-67493104D01*
X271557238Y-67493104D01*
X271633428Y-67455009D01*
X271671523Y-67416914D01*
X270947714Y-66693104D02*
X270414380Y-66693104D01*
X270757238Y-67493104D01*
G04 #@! TO.C,D58*
X293711904Y-77609771D02*
X292911904Y-77609771D01*
X292911904Y-77800247D01*
X292950000Y-77914533D01*
X293026190Y-77990723D01*
X293102380Y-78028819D01*
X293254761Y-78066914D01*
X293369047Y-78066914D01*
X293521428Y-78028819D01*
X293597619Y-77990723D01*
X293673809Y-77914533D01*
X293711904Y-77800247D01*
X293711904Y-77609771D01*
X292911904Y-78790723D02*
X292911904Y-78409771D01*
X293292857Y-78371676D01*
X293254761Y-78409771D01*
X293216666Y-78485961D01*
X293216666Y-78676438D01*
X293254761Y-78752628D01*
X293292857Y-78790723D01*
X293369047Y-78828819D01*
X293559523Y-78828819D01*
X293635714Y-78790723D01*
X293673809Y-78752628D01*
X293711904Y-78676438D01*
X293711904Y-78485961D01*
X293673809Y-78409771D01*
X293635714Y-78371676D01*
X293254761Y-79285961D02*
X293216666Y-79209771D01*
X293178571Y-79171676D01*
X293102380Y-79133580D01*
X293064285Y-79133580D01*
X292988095Y-79171676D01*
X292950000Y-79209771D01*
X292911904Y-79285961D01*
X292911904Y-79438342D01*
X292950000Y-79514533D01*
X292988095Y-79552628D01*
X293064285Y-79590723D01*
X293102380Y-79590723D01*
X293178571Y-79552628D01*
X293216666Y-79514533D01*
X293254761Y-79438342D01*
X293254761Y-79285961D01*
X293292857Y-79209771D01*
X293330952Y-79171676D01*
X293407142Y-79133580D01*
X293559523Y-79133580D01*
X293635714Y-79171676D01*
X293673809Y-79209771D01*
X293711904Y-79285961D01*
X293711904Y-79438342D01*
X293673809Y-79514533D01*
X293635714Y-79552628D01*
X293559523Y-79590723D01*
X293407142Y-79590723D01*
X293330952Y-79552628D01*
X293292857Y-79514533D01*
X293254761Y-79438342D01*
G04 #@! TO.C,D59*
X53358928Y-86543104D02*
X53358928Y-85743104D01*
X53168452Y-85743104D01*
X53054166Y-85781200D01*
X52977976Y-85857390D01*
X52939880Y-85933580D01*
X52901785Y-86085961D01*
X52901785Y-86200247D01*
X52939880Y-86352628D01*
X52977976Y-86428819D01*
X53054166Y-86505009D01*
X53168452Y-86543104D01*
X53358928Y-86543104D01*
X52177976Y-85743104D02*
X52558928Y-85743104D01*
X52597023Y-86124057D01*
X52558928Y-86085961D01*
X52482738Y-86047866D01*
X52292261Y-86047866D01*
X52216071Y-86085961D01*
X52177976Y-86124057D01*
X52139880Y-86200247D01*
X52139880Y-86390723D01*
X52177976Y-86466914D01*
X52216071Y-86505009D01*
X52292261Y-86543104D01*
X52482738Y-86543104D01*
X52558928Y-86505009D01*
X52597023Y-86466914D01*
X51758928Y-86543104D02*
X51606547Y-86543104D01*
X51530357Y-86505009D01*
X51492261Y-86466914D01*
X51416071Y-86352628D01*
X51377976Y-86200247D01*
X51377976Y-85895485D01*
X51416071Y-85819295D01*
X51454166Y-85781200D01*
X51530357Y-85743104D01*
X51682738Y-85743104D01*
X51758928Y-85781200D01*
X51797023Y-85819295D01*
X51835119Y-85895485D01*
X51835119Y-86085961D01*
X51797023Y-86162152D01*
X51758928Y-86200247D01*
X51682738Y-86238342D01*
X51530357Y-86238342D01*
X51454166Y-86200247D01*
X51416071Y-86162152D01*
X51377976Y-86085961D01*
G04 #@! TO.C,D60*
X74790228Y-86543104D02*
X74790228Y-85743104D01*
X74599752Y-85743104D01*
X74485466Y-85781200D01*
X74409276Y-85857390D01*
X74371180Y-85933580D01*
X74333085Y-86085961D01*
X74333085Y-86200247D01*
X74371180Y-86352628D01*
X74409276Y-86428819D01*
X74485466Y-86505009D01*
X74599752Y-86543104D01*
X74790228Y-86543104D01*
X73647371Y-85743104D02*
X73799752Y-85743104D01*
X73875942Y-85781200D01*
X73914038Y-85819295D01*
X73990228Y-85933580D01*
X74028323Y-86085961D01*
X74028323Y-86390723D01*
X73990228Y-86466914D01*
X73952133Y-86505009D01*
X73875942Y-86543104D01*
X73723561Y-86543104D01*
X73647371Y-86505009D01*
X73609276Y-86466914D01*
X73571180Y-86390723D01*
X73571180Y-86200247D01*
X73609276Y-86124057D01*
X73647371Y-86085961D01*
X73723561Y-86047866D01*
X73875942Y-86047866D01*
X73952133Y-86085961D01*
X73990228Y-86124057D01*
X74028323Y-86200247D01*
X73075942Y-85743104D02*
X72999752Y-85743104D01*
X72923561Y-85781200D01*
X72885466Y-85819295D01*
X72847371Y-85895485D01*
X72809276Y-86047866D01*
X72809276Y-86238342D01*
X72847371Y-86390723D01*
X72885466Y-86466914D01*
X72923561Y-86505009D01*
X72999752Y-86543104D01*
X73075942Y-86543104D01*
X73152133Y-86505009D01*
X73190228Y-86466914D01*
X73228323Y-86390723D01*
X73266419Y-86238342D01*
X73266419Y-86047866D01*
X73228323Y-85895485D01*
X73190228Y-85819295D01*
X73152133Y-85781200D01*
X73075942Y-85743104D01*
G04 #@! TO.C,D61*
X155752428Y-86543104D02*
X155752428Y-85743104D01*
X155561952Y-85743104D01*
X155447666Y-85781200D01*
X155371476Y-85857390D01*
X155333380Y-85933580D01*
X155295285Y-86085961D01*
X155295285Y-86200247D01*
X155333380Y-86352628D01*
X155371476Y-86428819D01*
X155447666Y-86505009D01*
X155561952Y-86543104D01*
X155752428Y-86543104D01*
X154609571Y-85743104D02*
X154761952Y-85743104D01*
X154838142Y-85781200D01*
X154876238Y-85819295D01*
X154952428Y-85933580D01*
X154990523Y-86085961D01*
X154990523Y-86390723D01*
X154952428Y-86466914D01*
X154914333Y-86505009D01*
X154838142Y-86543104D01*
X154685761Y-86543104D01*
X154609571Y-86505009D01*
X154571476Y-86466914D01*
X154533380Y-86390723D01*
X154533380Y-86200247D01*
X154571476Y-86124057D01*
X154609571Y-86085961D01*
X154685761Y-86047866D01*
X154838142Y-86047866D01*
X154914333Y-86085961D01*
X154952428Y-86124057D01*
X154990523Y-86200247D01*
X153771476Y-86543104D02*
X154228619Y-86543104D01*
X154000047Y-86543104D02*
X154000047Y-85743104D01*
X154076238Y-85857390D01*
X154152428Y-85933580D01*
X154228619Y-85971676D01*
G04 #@! TO.C,D62*
X236715428Y-86543104D02*
X236715428Y-85743104D01*
X236524952Y-85743104D01*
X236410666Y-85781200D01*
X236334476Y-85857390D01*
X236296380Y-85933580D01*
X236258285Y-86085961D01*
X236258285Y-86200247D01*
X236296380Y-86352628D01*
X236334476Y-86428819D01*
X236410666Y-86505009D01*
X236524952Y-86543104D01*
X236715428Y-86543104D01*
X235572571Y-85743104D02*
X235724952Y-85743104D01*
X235801142Y-85781200D01*
X235839238Y-85819295D01*
X235915428Y-85933580D01*
X235953523Y-86085961D01*
X235953523Y-86390723D01*
X235915428Y-86466914D01*
X235877333Y-86505009D01*
X235801142Y-86543104D01*
X235648761Y-86543104D01*
X235572571Y-86505009D01*
X235534476Y-86466914D01*
X235496380Y-86390723D01*
X235496380Y-86200247D01*
X235534476Y-86124057D01*
X235572571Y-86085961D01*
X235648761Y-86047866D01*
X235801142Y-86047866D01*
X235877333Y-86085961D01*
X235915428Y-86124057D01*
X235953523Y-86200247D01*
X235191619Y-85819295D02*
X235153523Y-85781200D01*
X235077333Y-85743104D01*
X234886857Y-85743104D01*
X234810666Y-85781200D01*
X234772571Y-85819295D01*
X234734476Y-85895485D01*
X234734476Y-85971676D01*
X234772571Y-86085961D01*
X235229714Y-86543104D01*
X234734476Y-86543104D01*
G04 #@! TO.C,D63*
X253383428Y-86543104D02*
X253383428Y-85743104D01*
X253192952Y-85743104D01*
X253078666Y-85781200D01*
X253002476Y-85857390D01*
X252964380Y-85933580D01*
X252926285Y-86085961D01*
X252926285Y-86200247D01*
X252964380Y-86352628D01*
X253002476Y-86428819D01*
X253078666Y-86505009D01*
X253192952Y-86543104D01*
X253383428Y-86543104D01*
X252240571Y-85743104D02*
X252392952Y-85743104D01*
X252469142Y-85781200D01*
X252507238Y-85819295D01*
X252583428Y-85933580D01*
X252621523Y-86085961D01*
X252621523Y-86390723D01*
X252583428Y-86466914D01*
X252545333Y-86505009D01*
X252469142Y-86543104D01*
X252316761Y-86543104D01*
X252240571Y-86505009D01*
X252202476Y-86466914D01*
X252164380Y-86390723D01*
X252164380Y-86200247D01*
X252202476Y-86124057D01*
X252240571Y-86085961D01*
X252316761Y-86047866D01*
X252469142Y-86047866D01*
X252545333Y-86085961D01*
X252583428Y-86124057D01*
X252621523Y-86200247D01*
X251897714Y-85743104D02*
X251402476Y-85743104D01*
X251669142Y-86047866D01*
X251554857Y-86047866D01*
X251478666Y-86085961D01*
X251440571Y-86124057D01*
X251402476Y-86200247D01*
X251402476Y-86390723D01*
X251440571Y-86466914D01*
X251478666Y-86505009D01*
X251554857Y-86543104D01*
X251783428Y-86543104D01*
X251859619Y-86505009D01*
X251897714Y-86466914D01*
G04 #@! TO.C,SW1*
X137064333Y-3454761D02*
X136921476Y-3502380D01*
X136683380Y-3502380D01*
X136588142Y-3454761D01*
X136540523Y-3407142D01*
X136492904Y-3311904D01*
X136492904Y-3216666D01*
X136540523Y-3121428D01*
X136588142Y-3073809D01*
X136683380Y-3026190D01*
X136873857Y-2978571D01*
X136969095Y-2930952D01*
X137016714Y-2883333D01*
X137064333Y-2788095D01*
X137064333Y-2692857D01*
X137016714Y-2597619D01*
X136969095Y-2550000D01*
X136873857Y-2502380D01*
X136635761Y-2502380D01*
X136492904Y-2550000D01*
X136159571Y-2502380D02*
X135921476Y-3502380D01*
X135731000Y-2788095D01*
X135540523Y-3502380D01*
X135302428Y-2502380D01*
X134397666Y-3502380D02*
X134969095Y-3502380D01*
X134683380Y-3502380D02*
X134683380Y-2502380D01*
X134778619Y-2645238D01*
X134873857Y-2740476D01*
X134969095Y-2788095D01*
G04 #@! TD*
M02*
