%FSLAX45Y45*%
G04 Gerber Fmt 4.5, Leading zero omitted, Abs format (unit mm)*
G04 Created by KiCad (PCBNEW 5.1.10-88a1d61d58~90~ubuntu21.04.1) date 2021-09-17 14:26:22*
%MOMM*%
%LPD*%
G01*
G04 APERTURE LIST*
%TA.AperFunction,Profile*%
%ADD10C,0.150000*%
%TD*%
%ADD11C,0.200000*%
%ADD12C,0.300000*%
G04 APERTURE END LIST*
D10*
X26062080Y-8858250D02*
G75*
G03*
X26062080Y-8858250I-265000J0D01*
G01*
X16219625Y-8858250D02*
G75*
G03*
X16219625Y-8858250I-265000J0D01*
G01*
X7064375Y-8381365D02*
X34686875Y-8381365D01*
X6588125Y-8857615D02*
G75*
G02*
X7064375Y-8381365I476250J0D01*
G01*
X34686875Y-8381365D02*
G75*
G02*
X35163125Y-8857615I0J-476250D01*
G01*
X6588125Y-8857615D02*
X6588125Y-18620740D01*
X35163125Y-8857615D02*
X35163125Y-18620740D01*
X34686875Y-19096990D02*
X7064375Y-19096990D01*
X7064375Y-19096990D02*
G75*
G02*
X6588125Y-18620740I0J476250D01*
G01*
X35163125Y-18620740D02*
G75*
G02*
X34686875Y-19096990I-476250J0D01*
G01*
D11*
X9397140Y-11405120D02*
X9437140Y-11445120D01*
X9437140Y-11405120D02*
X9397140Y-11445120D01*
X9536820Y-13384620D02*
X9576820Y-13424620D01*
X9576820Y-13384620D02*
X9536820Y-13424620D01*
X10380860Y-10588160D02*
X10420860Y-10628160D01*
X10420860Y-10588160D02*
X10380860Y-10628160D01*
X12532640Y-12049720D02*
X12572640Y-12089720D01*
X12572640Y-12049720D02*
X12532640Y-12089720D01*
X16708200Y-12889580D02*
X16748200Y-12929580D01*
X16748200Y-12889580D02*
X16708200Y-12929580D01*
X19585990Y-10180750D02*
X19625990Y-10220750D01*
X19625990Y-10180750D02*
X19585990Y-10220750D01*
X19637800Y-11713330D02*
X19677800Y-11753330D01*
X19677800Y-11713330D02*
X19637800Y-11753330D01*
X19865610Y-10790320D02*
X19905610Y-10830320D01*
X19905610Y-10790320D02*
X19865610Y-10830320D01*
X20402900Y-11807200D02*
X20442900Y-11847200D01*
X20442900Y-11807200D02*
X20402900Y-11847200D01*
X20513900Y-11704810D02*
X20553900Y-11744810D01*
X20553900Y-11704810D02*
X20513900Y-11744810D01*
X20558100Y-11917360D02*
X20598100Y-11957360D01*
X20598100Y-11917360D02*
X20558100Y-11957360D01*
X20633500Y-11592340D02*
X20673500Y-11632340D01*
X20673500Y-11592340D02*
X20633500Y-11632340D01*
X21854200Y-10830300D02*
X21894200Y-10870300D01*
X21894200Y-10830300D02*
X21854200Y-10870300D01*
X22896500Y-11079840D02*
X22936500Y-11119840D01*
X22936500Y-11079840D02*
X22896500Y-11119840D01*
X23831400Y-13362110D02*
X23871400Y-13402110D01*
X23871400Y-13362110D02*
X23831400Y-13402110D01*
X24469380Y-10771090D02*
X24509380Y-10811090D01*
X24509380Y-10771090D02*
X24469380Y-10811090D01*
X25733300Y-11917360D02*
X25773300Y-11957360D01*
X25773300Y-11917360D02*
X25733300Y-11957360D01*
X27417100Y-13720420D02*
X27457100Y-13760420D01*
X27457100Y-13720420D02*
X27417100Y-13760420D01*
X28600500Y-12936650D02*
X28640500Y-12976650D01*
X28640500Y-12936650D02*
X28600500Y-12976650D01*
X28737600Y-17535690D02*
X28777600Y-17575690D01*
X28777600Y-17535690D02*
X28737600Y-17575690D01*
X29844500Y-12861970D02*
X29884500Y-12901970D01*
X29884500Y-12861970D02*
X29844500Y-12901970D01*
X32523700Y-14790740D02*
X32563700Y-14830740D01*
X32563700Y-14790740D02*
X32523700Y-14830740D01*
X33530000Y-13123870D02*
X33570000Y-13163870D01*
X33570000Y-13123870D02*
X33530000Y-13163870D01*
X7185620Y-9333860D02*
G75*
G03*
X7185620Y-9333860I-35000J0D01*
G01*
X7661880Y-11238860D02*
G75*
G03*
X7661880Y-11238860I-35000J0D01*
G01*
X7900000Y-13143860D02*
G75*
G03*
X7900000Y-13143860I-35000J0D01*
G01*
X7965620Y-9333860D02*
G75*
G03*
X7965620Y-9333860I-35000J0D01*
G01*
X8376250Y-15048860D02*
G75*
G03*
X8376250Y-15048860I-35000J0D01*
G01*
X8441880Y-11238860D02*
G75*
G03*
X8441880Y-11238860I-35000J0D01*
G01*
X8680000Y-13143860D02*
G75*
G03*
X8680000Y-13143860I-35000J0D01*
G01*
X9090620Y-9333860D02*
G75*
G03*
X9090620Y-9333860I-35000J0D01*
G01*
X9156250Y-15048860D02*
G75*
G03*
X9156250Y-15048860I-35000J0D01*
G01*
X9566880Y-15048860D02*
G75*
G03*
X9566880Y-15048860I-35000J0D01*
G01*
X9870620Y-9333860D02*
G75*
G03*
X9870620Y-9333860I-35000J0D01*
G01*
X10043120Y-11238860D02*
G75*
G03*
X10043120Y-11238860I-35000J0D01*
G01*
X10281250Y-16953860D02*
G75*
G03*
X10281250Y-16953860I-35000J0D01*
G01*
X10346880Y-15048860D02*
G75*
G03*
X10346880Y-15048860I-35000J0D01*
G01*
X10519380Y-13143860D02*
G75*
G03*
X10519380Y-13143860I-35000J0D01*
G01*
X10823120Y-11238860D02*
G75*
G03*
X10823120Y-11238860I-35000J0D01*
G01*
X10995620Y-9333860D02*
G75*
G03*
X10995620Y-9333860I-35000J0D01*
G01*
X11061250Y-16953860D02*
G75*
G03*
X11061250Y-16953860I-35000J0D01*
G01*
X11299380Y-13143860D02*
G75*
G03*
X11299380Y-13143860I-35000J0D01*
G01*
X11471880Y-15048860D02*
G75*
G03*
X11471880Y-15048860I-35000J0D01*
G01*
X11775620Y-9333860D02*
G75*
G03*
X11775620Y-9333860I-35000J0D01*
G01*
X11948120Y-11238860D02*
G75*
G03*
X11948120Y-11238860I-35000J0D01*
G01*
X12251880Y-15048860D02*
G75*
G03*
X12251880Y-15048860I-35000J0D01*
G01*
X12424380Y-13143860D02*
G75*
G03*
X12424380Y-13143860I-35000J0D01*
G01*
X12424380Y-16953860D02*
G75*
G03*
X12424380Y-16953860I-35000J0D01*
G01*
X12728120Y-11238860D02*
G75*
G03*
X12728120Y-11238860I-35000J0D01*
G01*
X12900620Y-9333860D02*
G75*
G03*
X12900620Y-9333860I-35000J0D01*
G01*
X13204380Y-13143860D02*
G75*
G03*
X13204380Y-13143860I-35000J0D01*
G01*
X13204380Y-16953860D02*
G75*
G03*
X13204380Y-16953860I-35000J0D01*
G01*
X13376880Y-15048860D02*
G75*
G03*
X13376880Y-15048860I-35000J0D01*
G01*
X13680620Y-9333860D02*
G75*
G03*
X13680620Y-9333860I-35000J0D01*
G01*
X13853120Y-11238860D02*
G75*
G03*
X13853120Y-11238860I-35000J0D01*
G01*
X14156880Y-15048860D02*
G75*
G03*
X14156880Y-15048860I-35000J0D01*
G01*
X14329380Y-13143860D02*
G75*
G03*
X14329380Y-13143860I-35000J0D01*
G01*
X14633120Y-11238860D02*
G75*
G03*
X14633120Y-11238860I-35000J0D01*
G01*
X14805620Y-9333860D02*
G75*
G03*
X14805620Y-9333860I-35000J0D01*
G01*
X15109380Y-13143860D02*
G75*
G03*
X15109380Y-13143860I-35000J0D01*
G01*
X15281900Y-15048860D02*
G75*
G03*
X15281900Y-15048860I-35000J0D01*
G01*
X15585620Y-9333860D02*
G75*
G03*
X15585620Y-9333860I-35000J0D01*
G01*
X15758100Y-11238860D02*
G75*
G03*
X15758100Y-11238860I-35000J0D01*
G01*
X16061900Y-15048860D02*
G75*
G03*
X16061900Y-15048860I-35000J0D01*
G01*
X16234400Y-13143860D02*
G75*
G03*
X16234400Y-13143860I-35000J0D01*
G01*
X16538100Y-11238860D02*
G75*
G03*
X16538100Y-11238860I-35000J0D01*
G01*
X16710600Y-9333860D02*
G75*
G03*
X16710600Y-9333860I-35000J0D01*
G01*
X17014400Y-13143860D02*
G75*
G03*
X17014400Y-13143860I-35000J0D01*
G01*
X17186900Y-15048860D02*
G75*
G03*
X17186900Y-15048860I-35000J0D01*
G01*
X17490600Y-9333860D02*
G75*
G03*
X17490600Y-9333860I-35000J0D01*
G01*
X17663100Y-11238860D02*
G75*
G03*
X17663100Y-11238860I-35000J0D01*
G01*
X17966900Y-15048860D02*
G75*
G03*
X17966900Y-15048860I-35000J0D01*
G01*
X18139400Y-13143860D02*
G75*
G03*
X18139400Y-13143860I-35000J0D01*
G01*
X18443100Y-11238860D02*
G75*
G03*
X18443100Y-11238860I-35000J0D01*
G01*
X18615600Y-9333860D02*
G75*
G03*
X18615600Y-9333860I-35000J0D01*
G01*
X18919400Y-13143860D02*
G75*
G03*
X18919400Y-13143860I-35000J0D01*
G01*
X19091900Y-11238860D02*
G75*
G03*
X19091900Y-11238860I-35000J0D01*
G01*
X19091900Y-15048860D02*
G75*
G03*
X19091900Y-15048860I-35000J0D01*
G01*
X19395600Y-9333860D02*
G75*
G03*
X19395600Y-9333860I-35000J0D01*
G01*
X19871900Y-11238860D02*
G75*
G03*
X19871900Y-11238860I-35000J0D01*
G01*
X19871900Y-15048860D02*
G75*
G03*
X19871900Y-15048860I-35000J0D01*
G01*
X20044400Y-13143860D02*
G75*
G03*
X20044400Y-13143860I-35000J0D01*
G01*
X20520600Y-9333860D02*
G75*
G03*
X20520600Y-9333860I-35000J0D01*
G01*
X20520600Y-16953860D02*
G75*
G03*
X20520600Y-16953860I-35000J0D01*
G01*
X20824400Y-13143860D02*
G75*
G03*
X20824400Y-13143860I-35000J0D01*
G01*
X20996900Y-15048860D02*
G75*
G03*
X20996900Y-15048860I-35000J0D01*
G01*
X21300600Y-9333860D02*
G75*
G03*
X21300600Y-9333860I-35000J0D01*
G01*
X21300600Y-16953860D02*
G75*
G03*
X21300600Y-16953860I-35000J0D01*
G01*
X21776900Y-15048860D02*
G75*
G03*
X21776900Y-15048860I-35000J0D01*
G01*
X21949400Y-11238860D02*
G75*
G03*
X21949400Y-11238860I-35000J0D01*
G01*
X21949400Y-13143860D02*
G75*
G03*
X21949400Y-13143860I-35000J0D01*
G01*
X22425600Y-9333860D02*
G75*
G03*
X22425600Y-9333860I-35000J0D01*
G01*
X22729400Y-11238860D02*
G75*
G03*
X22729400Y-11238860I-35000J0D01*
G01*
X22729400Y-13143860D02*
G75*
G03*
X22729400Y-13143860I-35000J0D01*
G01*
X22901900Y-15048860D02*
G75*
G03*
X22901900Y-15048860I-35000J0D01*
G01*
X23205600Y-9333860D02*
G75*
G03*
X23205600Y-9333860I-35000J0D01*
G01*
X23378100Y-11238860D02*
G75*
G03*
X23378100Y-11238860I-35000J0D01*
G01*
X23681900Y-15048860D02*
G75*
G03*
X23681900Y-15048860I-35000J0D01*
G01*
X23854400Y-13143860D02*
G75*
G03*
X23854400Y-13143860I-35000J0D01*
G01*
X24158100Y-11238860D02*
G75*
G03*
X24158100Y-11238860I-35000J0D01*
G01*
X24330600Y-9333860D02*
G75*
G03*
X24330600Y-9333860I-35000J0D01*
G01*
X24634400Y-13143860D02*
G75*
G03*
X24634400Y-13143860I-35000J0D01*
G01*
X24806900Y-15048860D02*
G75*
G03*
X24806900Y-15048860I-35000J0D01*
G01*
X25110600Y-9333860D02*
G75*
G03*
X25110600Y-9333860I-35000J0D01*
G01*
X25283100Y-11238860D02*
G75*
G03*
X25283100Y-11238860I-35000J0D01*
G01*
X25586900Y-15048860D02*
G75*
G03*
X25586900Y-15048860I-35000J0D01*
G01*
X25759400Y-13143860D02*
G75*
G03*
X25759400Y-13143860I-35000J0D01*
G01*
X26063100Y-11238860D02*
G75*
G03*
X26063100Y-11238860I-35000J0D01*
G01*
X26235600Y-9333860D02*
G75*
G03*
X26235600Y-9333860I-35000J0D01*
G01*
X26539400Y-13143860D02*
G75*
G03*
X26539400Y-13143860I-35000J0D01*
G01*
X26711900Y-15048860D02*
G75*
G03*
X26711900Y-15048860I-35000J0D01*
G01*
X27015600Y-9333860D02*
G75*
G03*
X27015600Y-9333860I-35000J0D01*
G01*
X27188100Y-11238860D02*
G75*
G03*
X27188100Y-11238860I-35000J0D01*
G01*
X27491900Y-15048860D02*
G75*
G03*
X27491900Y-15048860I-35000J0D01*
G01*
X27664400Y-13143860D02*
G75*
G03*
X27664400Y-13143860I-35000J0D01*
G01*
X27968100Y-11238860D02*
G75*
G03*
X27968100Y-11238860I-35000J0D01*
G01*
X28140600Y-9333860D02*
G75*
G03*
X28140600Y-9333860I-35000J0D01*
G01*
X28444400Y-13143860D02*
G75*
G03*
X28444400Y-13143860I-35000J0D01*
G01*
X28616900Y-15048860D02*
G75*
G03*
X28616900Y-15048860I-35000J0D01*
G01*
X28616900Y-16953860D02*
G75*
G03*
X28616900Y-16953860I-35000J0D01*
G01*
X28920600Y-9333860D02*
G75*
G03*
X28920600Y-9333860I-35000J0D01*
G01*
X29093100Y-11238860D02*
G75*
G03*
X29093100Y-11238860I-35000J0D01*
G01*
X29396900Y-15048860D02*
G75*
G03*
X29396900Y-15048860I-35000J0D01*
G01*
X29396900Y-16953860D02*
G75*
G03*
X29396900Y-16953860I-35000J0D01*
G01*
X29569400Y-13143860D02*
G75*
G03*
X29569400Y-13143860I-35000J0D01*
G01*
X29873100Y-11238860D02*
G75*
G03*
X29873100Y-11238860I-35000J0D01*
G01*
X30045600Y-9333860D02*
G75*
G03*
X30045600Y-9333860I-35000J0D01*
G01*
X30283700Y-16953860D02*
G75*
G03*
X30283700Y-16953860I-35000J0D01*
G01*
X30349400Y-13143860D02*
G75*
G03*
X30349400Y-13143860I-35000J0D01*
G01*
X30825600Y-9333860D02*
G75*
G03*
X30825600Y-9333860I-35000J0D01*
G01*
X30998100Y-11238860D02*
G75*
G03*
X30998100Y-11238860I-35000J0D01*
G01*
X31063700Y-16953860D02*
G75*
G03*
X31063700Y-16953860I-35000J0D01*
G01*
X31474400Y-13143860D02*
G75*
G03*
X31474400Y-13143860I-35000J0D01*
G01*
X31712500Y-9095740D02*
G75*
G03*
X31712500Y-9095740I-35000J0D01*
G01*
X31778100Y-11238860D02*
G75*
G03*
X31778100Y-11238860I-35000J0D01*
G01*
X32188700Y-15048860D02*
G75*
G03*
X32188700Y-15048860I-35000J0D01*
G01*
X32254400Y-13143860D02*
G75*
G03*
X32254400Y-13143860I-35000J0D01*
G01*
X32492500Y-9095740D02*
G75*
G03*
X32492500Y-9095740I-35000J0D01*
G01*
X32665000Y-13143860D02*
G75*
G03*
X32665000Y-13143860I-35000J0D01*
G01*
X32903125Y-9333860D02*
G75*
G03*
X32903125Y-9333860I-35000J0D01*
G01*
X32968700Y-15048860D02*
G75*
G03*
X32968700Y-15048860I-35000J0D01*
G01*
X33379400Y-11238860D02*
G75*
G03*
X33379400Y-11238860I-35000J0D01*
G01*
X33445000Y-13143860D02*
G75*
G03*
X33445000Y-13143860I-35000J0D01*
G01*
X33683125Y-9333860D02*
G75*
G03*
X33683125Y-9333860I-35000J0D01*
G01*
X34093750Y-9095740D02*
G75*
G03*
X34093750Y-9095740I-35000J0D01*
G01*
X34159400Y-11238860D02*
G75*
G03*
X34159400Y-11238860I-35000J0D01*
G01*
X34873750Y-9095740D02*
G75*
G03*
X34873750Y-9095740I-35000J0D01*
G01*
X34960000Y-15611360D02*
G75*
G03*
X34960000Y-15611360I-35000J0D01*
G01*
X34960000Y-16391360D02*
G75*
G03*
X34960000Y-16391360I-35000J0D01*
G01*
X22411700Y-8787930D02*
X22411700Y-8887930D01*
X22361700Y-8837930D02*
X22461700Y-8837930D01*
X22665700Y-8787930D02*
X22665700Y-8887930D01*
X22615700Y-8837930D02*
X22715700Y-8837930D01*
X22919700Y-8787930D02*
X22919700Y-8887930D01*
X22869700Y-8837930D02*
X22969700Y-8837930D01*
X23173700Y-8787930D02*
X23173700Y-8887930D01*
X23123700Y-8837930D02*
X23223700Y-8837930D01*
X20152491Y-8655131D02*
X20152491Y-8577349D01*
X20074709Y-8577349D01*
X20074709Y-8655131D01*
X20152491Y-8655131D01*
X20152491Y-8909131D02*
X20152491Y-8831349D01*
X20074709Y-8831349D01*
X20074709Y-8909131D01*
X20152491Y-8909131D01*
X20152491Y-9163131D02*
X20152491Y-9085349D01*
X20074709Y-9085349D01*
X20074709Y-9163131D01*
X20152491Y-9163131D01*
X20152491Y-9417131D02*
X20152491Y-9339349D01*
X20074709Y-9339349D01*
X20074709Y-9417131D01*
X20152491Y-9417131D01*
X20152491Y-9671131D02*
X20152491Y-9593349D01*
X20074709Y-9593349D01*
X20074709Y-9671131D01*
X20152491Y-9671131D01*
X20152491Y-9925131D02*
X20152491Y-9847349D01*
X20074709Y-9847349D01*
X20074709Y-9925131D01*
X20152491Y-9925131D01*
X20152491Y-10179131D02*
X20152491Y-10101349D01*
X20074709Y-10101349D01*
X20074709Y-10179131D01*
X20152491Y-10179131D01*
X20152491Y-10433131D02*
X20152491Y-10355349D01*
X20074709Y-10355349D01*
X20074709Y-10433131D01*
X20152491Y-10433131D01*
X20152491Y-10687131D02*
X20152491Y-10609349D01*
X20074709Y-10609349D01*
X20074709Y-10687131D01*
X20152491Y-10687131D01*
X20152491Y-10941131D02*
X20152491Y-10863349D01*
X20074709Y-10863349D01*
X20074709Y-10941131D01*
X20152491Y-10941131D01*
X20152491Y-11195131D02*
X20152491Y-11117349D01*
X20074709Y-11117349D01*
X20074709Y-11195131D01*
X20152491Y-11195131D01*
X20152491Y-11449131D02*
X20152491Y-11371349D01*
X20074709Y-11371349D01*
X20074709Y-11449131D01*
X20152491Y-11449131D01*
X21676491Y-8655131D02*
X21676491Y-8577349D01*
X21598709Y-8577349D01*
X21598709Y-8655131D01*
X21676491Y-8655131D01*
X21676491Y-8909131D02*
X21676491Y-8831349D01*
X21598709Y-8831349D01*
X21598709Y-8909131D01*
X21676491Y-8909131D01*
X21676491Y-9163131D02*
X21676491Y-9085349D01*
X21598709Y-9085349D01*
X21598709Y-9163131D01*
X21676491Y-9163131D01*
X21676491Y-9417131D02*
X21676491Y-9339349D01*
X21598709Y-9339349D01*
X21598709Y-9417131D01*
X21676491Y-9417131D01*
X21676491Y-9671131D02*
X21676491Y-9593349D01*
X21598709Y-9593349D01*
X21598709Y-9671131D01*
X21676491Y-9671131D01*
X21676491Y-9925131D02*
X21676491Y-9847349D01*
X21598709Y-9847349D01*
X21598709Y-9925131D01*
X21676491Y-9925131D01*
X21676491Y-10179131D02*
X21676491Y-10101349D01*
X21598709Y-10101349D01*
X21598709Y-10179131D01*
X21676491Y-10179131D01*
X21676491Y-10433131D02*
X21676491Y-10355349D01*
X21598709Y-10355349D01*
X21598709Y-10433131D01*
X21676491Y-10433131D01*
X21676491Y-10687131D02*
X21676491Y-10609349D01*
X21598709Y-10609349D01*
X21598709Y-10687131D01*
X21676491Y-10687131D01*
X21676491Y-10941131D02*
X21676491Y-10863349D01*
X21598709Y-10863349D01*
X21598709Y-10941131D01*
X21676491Y-10941131D01*
X21676491Y-11195131D02*
X21676491Y-11117349D01*
X21598709Y-11117349D01*
X21598709Y-11195131D01*
X21676491Y-11195131D01*
X21676491Y-11449131D02*
X21676491Y-11371349D01*
X21598709Y-11371349D01*
X21598709Y-11449131D01*
X21676491Y-11449131D01*
X7159620Y-10105860D02*
X7233120Y-10032360D01*
X7159620Y-9958860D01*
X7086120Y-10032360D01*
X7159620Y-10105860D01*
X7397750Y-13915860D02*
X7471250Y-13842360D01*
X7397750Y-13768860D01*
X7324250Y-13842360D01*
X7397750Y-13915860D01*
X7397750Y-15820860D02*
X7471250Y-15747360D01*
X7397750Y-15673860D01*
X7324250Y-15747360D01*
X7397750Y-15820860D01*
X7635880Y-12010860D02*
X7709380Y-11937360D01*
X7635880Y-11863860D01*
X7562380Y-11937360D01*
X7635880Y-12010860D01*
X7794620Y-9851860D02*
X7868120Y-9778360D01*
X7794620Y-9704860D01*
X7721120Y-9778360D01*
X7794620Y-9851860D01*
X7874000Y-13915860D02*
X7947500Y-13842360D01*
X7874000Y-13768860D01*
X7800500Y-13842360D01*
X7874000Y-13915860D01*
X8032750Y-13661860D02*
X8106250Y-13588360D01*
X8032750Y-13514860D01*
X7959250Y-13588360D01*
X8032750Y-13661860D01*
X8032750Y-15566860D02*
X8106250Y-15493360D01*
X8032750Y-15419860D01*
X7959250Y-15493360D01*
X8032750Y-15566860D01*
X8270880Y-11756860D02*
X8344380Y-11683360D01*
X8270880Y-11609860D01*
X8197380Y-11683360D01*
X8270880Y-11756860D01*
X8350250Y-15820860D02*
X8423750Y-15747360D01*
X8350250Y-15673860D01*
X8276750Y-15747360D01*
X8350250Y-15820860D01*
X8509000Y-13661860D02*
X8582500Y-13588360D01*
X8509000Y-13514860D01*
X8435500Y-13588360D01*
X8509000Y-13661860D01*
X8985250Y-15566860D02*
X9058750Y-15493360D01*
X8985250Y-15419860D01*
X8911750Y-15493360D01*
X8985250Y-15566860D01*
X9064620Y-10105860D02*
X9138120Y-10032360D01*
X9064620Y-9958860D01*
X8991120Y-10032360D01*
X9064620Y-10105860D01*
X9540880Y-15820860D02*
X9614380Y-15747360D01*
X9540880Y-15673860D01*
X9467380Y-15747360D01*
X9540880Y-15820860D01*
X9699620Y-9851860D02*
X9773120Y-9778360D01*
X9699620Y-9704860D01*
X9626120Y-9778360D01*
X9699620Y-9851860D01*
X10017120Y-12010860D02*
X10090620Y-11937360D01*
X10017120Y-11863860D01*
X9943620Y-11937360D01*
X10017120Y-12010860D01*
X10017120Y-17725860D02*
X10090620Y-17652360D01*
X10017120Y-17578860D01*
X9943620Y-17652360D01*
X10017120Y-17725860D01*
X10175880Y-15566860D02*
X10249380Y-15493360D01*
X10175880Y-15419860D01*
X10102380Y-15493360D01*
X10175880Y-15566860D01*
X10493380Y-13915860D02*
X10566880Y-13842360D01*
X10493380Y-13768860D01*
X10419880Y-13842360D01*
X10493380Y-13915860D01*
X10652120Y-11756860D02*
X10725620Y-11683360D01*
X10652120Y-11609860D01*
X10578620Y-11683360D01*
X10652120Y-11756860D01*
X10652120Y-17471860D02*
X10725620Y-17398360D01*
X10652120Y-17324860D01*
X10578620Y-17398360D01*
X10652120Y-17471860D01*
X10969620Y-10105860D02*
X11043120Y-10032360D01*
X10969620Y-9958860D01*
X10896120Y-10032360D01*
X10969620Y-10105860D01*
X11128380Y-13661860D02*
X11201880Y-13588360D01*
X11128380Y-13514860D01*
X11054880Y-13588360D01*
X11128380Y-13661860D01*
X11445880Y-15820860D02*
X11519380Y-15747360D01*
X11445880Y-15673860D01*
X11372380Y-15747360D01*
X11445880Y-15820860D01*
X11604620Y-9851860D02*
X11678120Y-9778360D01*
X11604620Y-9704860D01*
X11531120Y-9778360D01*
X11604620Y-9851860D01*
X11922120Y-12010860D02*
X11995620Y-11937360D01*
X11922120Y-11863860D01*
X11848620Y-11937360D01*
X11922120Y-12010860D01*
X12080880Y-15566860D02*
X12154380Y-15493360D01*
X12080880Y-15419860D01*
X12007380Y-15493360D01*
X12080880Y-15566860D01*
X12398380Y-13915860D02*
X12471880Y-13842360D01*
X12398380Y-13768860D01*
X12324880Y-13842360D01*
X12398380Y-13915860D01*
X12398380Y-17725860D02*
X12471880Y-17652360D01*
X12398380Y-17578860D01*
X12324880Y-17652360D01*
X12398380Y-17725860D01*
X12557120Y-11756860D02*
X12630620Y-11683360D01*
X12557120Y-11609860D01*
X12483620Y-11683360D01*
X12557120Y-11756860D01*
X12874620Y-10105860D02*
X12948120Y-10032360D01*
X12874620Y-9958860D01*
X12801120Y-10032360D01*
X12874620Y-10105860D01*
X13033380Y-13661860D02*
X13106880Y-13588360D01*
X13033380Y-13514860D01*
X12959880Y-13588360D01*
X13033380Y-13661860D01*
X13033380Y-17471860D02*
X13106880Y-17398360D01*
X13033380Y-17324860D01*
X12959880Y-17398360D01*
X13033380Y-17471860D01*
X13350880Y-15820860D02*
X13424380Y-15747360D01*
X13350880Y-15673860D01*
X13277380Y-15747360D01*
X13350880Y-15820860D01*
X13509620Y-9851860D02*
X13583120Y-9778360D01*
X13509620Y-9704860D01*
X13436120Y-9778360D01*
X13509620Y-9851860D01*
X13827120Y-12010860D02*
X13900620Y-11937360D01*
X13827120Y-11863860D01*
X13753620Y-11937360D01*
X13827120Y-12010860D01*
X13985880Y-15566860D02*
X14059380Y-15493360D01*
X13985880Y-15419860D01*
X13912380Y-15493360D01*
X13985880Y-15566860D01*
X14303380Y-13915860D02*
X14376880Y-13842360D01*
X14303380Y-13768860D01*
X14229880Y-13842360D01*
X14303380Y-13915860D01*
X14462120Y-11756860D02*
X14535620Y-11683360D01*
X14462120Y-11609860D01*
X14388620Y-11683360D01*
X14462120Y-11756860D01*
X14779620Y-10105860D02*
X14853120Y-10032360D01*
X14779620Y-9958860D01*
X14706120Y-10032360D01*
X14779620Y-10105860D01*
X14938380Y-13661860D02*
X15011880Y-13588360D01*
X14938380Y-13514860D01*
X14864880Y-13588360D01*
X14938380Y-13661860D01*
X15255900Y-15820860D02*
X15329400Y-15747360D01*
X15255900Y-15673860D01*
X15182400Y-15747360D01*
X15255900Y-15820860D01*
X15414620Y-9851860D02*
X15488120Y-9778360D01*
X15414620Y-9704860D01*
X15341120Y-9778360D01*
X15414620Y-9851860D01*
X15732100Y-12010860D02*
X15805600Y-11937360D01*
X15732100Y-11863860D01*
X15658600Y-11937360D01*
X15732100Y-12010860D01*
X15890900Y-15566860D02*
X15964400Y-15493360D01*
X15890900Y-15419860D01*
X15817400Y-15493360D01*
X15890900Y-15566860D01*
X16208400Y-13915860D02*
X16281900Y-13842360D01*
X16208400Y-13768860D01*
X16134900Y-13842360D01*
X16208400Y-13915860D01*
X16367100Y-11756860D02*
X16440600Y-11683360D01*
X16367100Y-11609860D01*
X16293600Y-11683360D01*
X16367100Y-11756860D01*
X16684600Y-10105860D02*
X16758100Y-10032360D01*
X16684600Y-9958860D01*
X16611100Y-10032360D01*
X16684600Y-10105860D01*
X16843400Y-13661860D02*
X16916900Y-13588360D01*
X16843400Y-13514860D01*
X16769900Y-13588360D01*
X16843400Y-13661860D01*
X17160900Y-15820860D02*
X17234400Y-15747360D01*
X17160900Y-15673860D01*
X17087400Y-15747360D01*
X17160900Y-15820860D01*
X17319600Y-9851860D02*
X17393100Y-9778360D01*
X17319600Y-9704860D01*
X17246100Y-9778360D01*
X17319600Y-9851860D01*
X17637100Y-12010860D02*
X17710600Y-11937360D01*
X17637100Y-11863860D01*
X17563600Y-11937360D01*
X17637100Y-12010860D01*
X17795900Y-15566860D02*
X17869400Y-15493360D01*
X17795900Y-15419860D01*
X17722400Y-15493360D01*
X17795900Y-15566860D01*
X18113400Y-13915860D02*
X18186900Y-13842360D01*
X18113400Y-13768860D01*
X18039900Y-13842360D01*
X18113400Y-13915860D01*
X18272100Y-11756860D02*
X18345600Y-11683360D01*
X18272100Y-11609860D01*
X18198600Y-11683360D01*
X18272100Y-11756860D01*
X18589600Y-10105860D02*
X18663100Y-10032360D01*
X18589600Y-9958860D01*
X18516100Y-10032360D01*
X18589600Y-10105860D01*
X18748400Y-13661860D02*
X18821900Y-13588360D01*
X18748400Y-13514860D01*
X18674900Y-13588360D01*
X18748400Y-13661860D01*
X19065900Y-15820860D02*
X19139400Y-15747360D01*
X19065900Y-15673860D01*
X18992400Y-15747360D01*
X19065900Y-15820860D01*
X19224600Y-9851860D02*
X19298100Y-9778360D01*
X19224600Y-9704860D01*
X19151100Y-9778360D01*
X19224600Y-9851860D01*
X19542100Y-12010860D02*
X19615600Y-11937360D01*
X19542100Y-11863860D01*
X19468600Y-11937360D01*
X19542100Y-12010860D01*
X19700900Y-15566860D02*
X19774400Y-15493360D01*
X19700900Y-15419860D01*
X19627400Y-15493360D01*
X19700900Y-15566860D01*
X20018400Y-13915860D02*
X20091900Y-13842360D01*
X20018400Y-13768860D01*
X19944900Y-13842360D01*
X20018400Y-13915860D01*
X20177100Y-11756860D02*
X20250600Y-11683360D01*
X20177100Y-11609860D01*
X20103600Y-11683360D01*
X20177100Y-11756860D01*
X20494600Y-10105860D02*
X20568100Y-10032360D01*
X20494600Y-9958860D01*
X20421100Y-10032360D01*
X20494600Y-10105860D01*
X20494600Y-17725860D02*
X20568100Y-17652360D01*
X20494600Y-17578860D01*
X20421100Y-17652360D01*
X20494600Y-17725860D01*
X20653400Y-13661860D02*
X20726900Y-13588360D01*
X20653400Y-13514860D01*
X20579900Y-13588360D01*
X20653400Y-13661860D01*
X20970900Y-15820860D02*
X21044400Y-15747360D01*
X20970900Y-15673860D01*
X20897400Y-15747360D01*
X20970900Y-15820860D01*
X21129600Y-9851860D02*
X21203100Y-9778360D01*
X21129600Y-9704860D01*
X21056100Y-9778360D01*
X21129600Y-9851860D01*
X21129600Y-17471860D02*
X21203100Y-17398360D01*
X21129600Y-17324860D01*
X21056100Y-17398360D01*
X21129600Y-17471860D01*
X21447100Y-12010860D02*
X21520600Y-11937360D01*
X21447100Y-11863860D01*
X21373600Y-11937360D01*
X21447100Y-12010860D01*
X21605900Y-15566860D02*
X21679400Y-15493360D01*
X21605900Y-15419860D01*
X21532400Y-15493360D01*
X21605900Y-15566860D01*
X21923400Y-13915860D02*
X21996900Y-13842360D01*
X21923400Y-13768860D01*
X21849900Y-13842360D01*
X21923400Y-13915860D01*
X22082100Y-11756860D02*
X22155600Y-11683360D01*
X22082100Y-11609860D01*
X22008600Y-11683360D01*
X22082100Y-11756860D01*
X22399600Y-10105860D02*
X22473100Y-10032360D01*
X22399600Y-9958860D01*
X22326100Y-10032360D01*
X22399600Y-10105860D01*
X22558400Y-13661860D02*
X22631900Y-13588360D01*
X22558400Y-13514860D01*
X22484900Y-13588360D01*
X22558400Y-13661860D01*
X22875900Y-15820860D02*
X22949400Y-15747360D01*
X22875900Y-15673860D01*
X22802400Y-15747360D01*
X22875900Y-15820860D01*
X23034600Y-9851860D02*
X23108100Y-9778360D01*
X23034600Y-9704860D01*
X22961100Y-9778360D01*
X23034600Y-9851860D01*
X23352100Y-12010860D02*
X23425600Y-11937360D01*
X23352100Y-11863860D01*
X23278600Y-11937360D01*
X23352100Y-12010860D01*
X23510900Y-15566860D02*
X23584400Y-15493360D01*
X23510900Y-15419860D01*
X23437400Y-15493360D01*
X23510900Y-15566860D01*
X23828400Y-13915860D02*
X23901900Y-13842360D01*
X23828400Y-13768860D01*
X23754900Y-13842360D01*
X23828400Y-13915860D01*
X23987100Y-11756860D02*
X24060600Y-11683360D01*
X23987100Y-11609860D01*
X23913600Y-11683360D01*
X23987100Y-11756860D01*
X24304600Y-10105860D02*
X24378100Y-10032360D01*
X24304600Y-9958860D01*
X24231100Y-10032360D01*
X24304600Y-10105860D01*
X24463400Y-13661860D02*
X24536900Y-13588360D01*
X24463400Y-13514860D01*
X24389900Y-13588360D01*
X24463400Y-13661860D01*
X24780900Y-15820860D02*
X24854400Y-15747360D01*
X24780900Y-15673860D01*
X24707400Y-15747360D01*
X24780900Y-15820860D01*
X24939600Y-9851860D02*
X25013100Y-9778360D01*
X24939600Y-9704860D01*
X24866100Y-9778360D01*
X24939600Y-9851860D01*
X25257100Y-12010860D02*
X25330600Y-11937360D01*
X25257100Y-11863860D01*
X25183600Y-11937360D01*
X25257100Y-12010860D01*
X25415900Y-15566860D02*
X25489400Y-15493360D01*
X25415900Y-15419860D01*
X25342400Y-15493360D01*
X25415900Y-15566860D01*
X25733400Y-13915860D02*
X25806900Y-13842360D01*
X25733400Y-13768860D01*
X25659900Y-13842360D01*
X25733400Y-13915860D01*
X25892100Y-11756860D02*
X25965600Y-11683360D01*
X25892100Y-11609860D01*
X25818600Y-11683360D01*
X25892100Y-11756860D01*
X26209600Y-10105860D02*
X26283100Y-10032360D01*
X26209600Y-9958860D01*
X26136100Y-10032360D01*
X26209600Y-10105860D01*
X26368400Y-13661860D02*
X26441900Y-13588360D01*
X26368400Y-13514860D01*
X26294900Y-13588360D01*
X26368400Y-13661860D01*
X26685900Y-15820860D02*
X26759400Y-15747360D01*
X26685900Y-15673860D01*
X26612400Y-15747360D01*
X26685900Y-15820860D01*
X26844600Y-9851860D02*
X26918100Y-9778360D01*
X26844600Y-9704860D01*
X26771100Y-9778360D01*
X26844600Y-9851860D01*
X27162100Y-12010860D02*
X27235600Y-11937360D01*
X27162100Y-11863860D01*
X27088600Y-11937360D01*
X27162100Y-12010860D01*
X27320900Y-15566860D02*
X27394400Y-15493360D01*
X27320900Y-15419860D01*
X27247400Y-15493360D01*
X27320900Y-15566860D01*
X27638400Y-13915860D02*
X27711900Y-13842360D01*
X27638400Y-13768860D01*
X27564900Y-13842360D01*
X27638400Y-13915860D01*
X27797100Y-11756860D02*
X27870600Y-11683360D01*
X27797100Y-11609860D01*
X27723600Y-11683360D01*
X27797100Y-11756860D01*
X28114600Y-10105860D02*
X28188100Y-10032360D01*
X28114600Y-9958860D01*
X28041100Y-10032360D01*
X28114600Y-10105860D01*
X28273400Y-13661860D02*
X28346900Y-13588360D01*
X28273400Y-13514860D01*
X28199900Y-13588360D01*
X28273400Y-13661860D01*
X28590900Y-15820860D02*
X28664400Y-15747360D01*
X28590900Y-15673860D01*
X28517400Y-15747360D01*
X28590900Y-15820860D01*
X28590900Y-17725860D02*
X28664400Y-17652360D01*
X28590900Y-17578860D01*
X28517400Y-17652360D01*
X28590900Y-17725860D01*
X28749600Y-9851860D02*
X28823100Y-9778360D01*
X28749600Y-9704860D01*
X28676100Y-9778360D01*
X28749600Y-9851860D01*
X29067100Y-12010860D02*
X29140600Y-11937360D01*
X29067100Y-11863860D01*
X28993600Y-11937360D01*
X29067100Y-12010860D01*
X29225900Y-15566860D02*
X29299400Y-15493360D01*
X29225900Y-15419860D01*
X29152400Y-15493360D01*
X29225900Y-15566860D01*
X29225900Y-17471860D02*
X29299400Y-17398360D01*
X29225900Y-17324860D01*
X29152400Y-17398360D01*
X29225900Y-17471860D01*
X29543400Y-13915860D02*
X29616900Y-13842360D01*
X29543400Y-13768860D01*
X29469900Y-13842360D01*
X29543400Y-13915860D01*
X29702100Y-11756860D02*
X29775600Y-11683360D01*
X29702100Y-11609860D01*
X29628600Y-11683360D01*
X29702100Y-11756860D01*
X30019600Y-10105860D02*
X30093100Y-10032360D01*
X30019600Y-9958860D01*
X29946100Y-10032360D01*
X30019600Y-10105860D01*
X30178400Y-13661860D02*
X30251900Y-13588360D01*
X30178400Y-13514860D01*
X30104900Y-13588360D01*
X30178400Y-13661860D01*
X30654600Y-9851860D02*
X30728100Y-9778360D01*
X30654600Y-9704860D01*
X30581100Y-9778360D01*
X30654600Y-9851860D01*
X30972100Y-12010860D02*
X31045600Y-11937360D01*
X30972100Y-11863860D01*
X30898600Y-11937360D01*
X30972100Y-12010860D01*
X30972100Y-17725860D02*
X31045600Y-17652360D01*
X30972100Y-17578860D01*
X30898600Y-17652360D01*
X30972100Y-17725860D01*
X31210300Y-15820860D02*
X31283800Y-15747360D01*
X31210300Y-15673860D01*
X31136800Y-15747360D01*
X31210300Y-15820860D01*
X31448400Y-13915860D02*
X31521900Y-13842360D01*
X31448400Y-13768860D01*
X31374900Y-13842360D01*
X31448400Y-13915860D01*
X31607100Y-11756860D02*
X31680600Y-11683360D01*
X31607100Y-11609860D01*
X31533600Y-11683360D01*
X31607100Y-11756860D01*
X31607100Y-17471860D02*
X31680600Y-17398360D01*
X31607100Y-17324860D01*
X31533600Y-17398360D01*
X31607100Y-17471860D01*
X31845300Y-15566860D02*
X31918800Y-15493360D01*
X31845300Y-15419860D01*
X31771800Y-15493360D01*
X31845300Y-15566860D01*
X31924600Y-10105860D02*
X31998100Y-10032360D01*
X31924600Y-9958860D01*
X31851100Y-10032360D01*
X31924600Y-10105860D01*
X32083400Y-13661860D02*
X32156900Y-13588360D01*
X32083400Y-13514860D01*
X32009900Y-13588360D01*
X32083400Y-13661860D01*
X32162700Y-15820860D02*
X32236200Y-15747360D01*
X32162700Y-15673860D01*
X32089200Y-15747360D01*
X32162700Y-15820860D01*
X32559600Y-9851860D02*
X32633100Y-9778360D01*
X32559600Y-9704860D01*
X32486100Y-9778360D01*
X32559600Y-9851860D01*
X32639000Y-13915860D02*
X32712500Y-13842360D01*
X32639000Y-13768860D01*
X32565500Y-13842360D01*
X32639000Y-13915860D01*
X32797700Y-15566860D02*
X32871200Y-15493360D01*
X32797700Y-15419860D01*
X32724200Y-15493360D01*
X32797700Y-15566860D01*
X32877100Y-10105860D02*
X32950600Y-10032360D01*
X32877100Y-9958860D01*
X32803600Y-10032360D01*
X32877100Y-10105860D01*
X33274000Y-13661860D02*
X33347500Y-13588360D01*
X33274000Y-13514860D01*
X33200500Y-13588360D01*
X33274000Y-13661860D01*
X33353400Y-12010860D02*
X33426900Y-11937360D01*
X33353400Y-11863860D01*
X33279900Y-11937360D01*
X33353400Y-12010860D01*
X33512100Y-9851860D02*
X33585600Y-9778360D01*
X33512100Y-9704860D01*
X33438600Y-9778360D01*
X33512100Y-9851860D01*
X33829600Y-10105860D02*
X33903100Y-10032360D01*
X33829600Y-9958860D01*
X33756100Y-10032360D01*
X33829600Y-10105860D01*
X33829600Y-15820860D02*
X33903100Y-15747360D01*
X33829600Y-15673860D01*
X33756100Y-15747360D01*
X33829600Y-15820860D01*
X33988400Y-11756860D02*
X34061900Y-11683360D01*
X33988400Y-11609860D01*
X33914900Y-11683360D01*
X33988400Y-11756860D01*
X34226500Y-12836360D02*
X34300000Y-12762860D01*
X34226500Y-12689360D01*
X34153000Y-12762860D01*
X34226500Y-12836360D01*
X34464600Y-9851860D02*
X34538100Y-9778360D01*
X34464600Y-9704860D01*
X34391100Y-9778360D01*
X34464600Y-9851860D01*
X34464600Y-15566860D02*
X34538100Y-15493360D01*
X34464600Y-15419860D01*
X34391100Y-15493360D01*
X34464600Y-15566860D01*
X34480500Y-13471360D02*
X34554000Y-13397860D01*
X34480500Y-13324360D01*
X34407000Y-13397860D01*
X34480500Y-13471360D01*
X6945120Y-10198860D02*
X7120120Y-10373860D01*
X7120120Y-10198860D02*
X6945120Y-10373860D01*
X7120120Y-10286360D02*
G75*
G03*
X7120120Y-10286360I-87500J0D01*
G01*
X7183250Y-14008860D02*
X7358250Y-14183860D01*
X7358250Y-14008860D02*
X7183250Y-14183860D01*
X7358250Y-14096360D02*
G75*
G03*
X7358250Y-14096360I-87500J0D01*
G01*
X7183250Y-15913860D02*
X7358250Y-16088860D01*
X7358250Y-15913860D02*
X7183250Y-16088860D01*
X7358250Y-16001360D02*
G75*
G03*
X7358250Y-16001360I-87500J0D01*
G01*
X7421380Y-12103860D02*
X7596380Y-12278860D01*
X7596380Y-12103860D02*
X7421380Y-12278860D01*
X7596380Y-12191360D02*
G75*
G03*
X7596380Y-12191360I-87500J0D01*
G01*
X7659500Y-14008860D02*
X7834500Y-14183860D01*
X7834500Y-14008860D02*
X7659500Y-14183860D01*
X7834500Y-14096360D02*
G75*
G03*
X7834500Y-14096360I-87500J0D01*
G01*
X7961120Y-10198860D02*
X8136120Y-10373860D01*
X8136120Y-10198860D02*
X7961120Y-10373860D01*
X8136120Y-10286360D02*
G75*
G03*
X8136120Y-10286360I-87500J0D01*
G01*
X8135750Y-15913860D02*
X8310750Y-16088860D01*
X8310750Y-15913860D02*
X8135750Y-16088860D01*
X8310750Y-16001360D02*
G75*
G03*
X8310750Y-16001360I-87500J0D01*
G01*
X8199250Y-14008860D02*
X8374250Y-14183860D01*
X8374250Y-14008860D02*
X8199250Y-14183860D01*
X8374250Y-14096360D02*
G75*
G03*
X8374250Y-14096360I-87500J0D01*
G01*
X8199250Y-15913860D02*
X8374250Y-16088860D01*
X8374250Y-15913860D02*
X8199250Y-16088860D01*
X8374250Y-16001360D02*
G75*
G03*
X8374250Y-16001360I-87500J0D01*
G01*
X8437380Y-12103860D02*
X8612380Y-12278860D01*
X8612380Y-12103860D02*
X8437380Y-12278860D01*
X8612380Y-12191360D02*
G75*
G03*
X8612380Y-12191360I-87500J0D01*
G01*
X8675500Y-14008860D02*
X8850500Y-14183860D01*
X8850500Y-14008860D02*
X8675500Y-14183860D01*
X8850500Y-14096360D02*
G75*
G03*
X8850500Y-14096360I-87500J0D01*
G01*
X8850120Y-10198860D02*
X9025120Y-10373860D01*
X9025120Y-10198860D02*
X8850120Y-10373860D01*
X9025120Y-10286360D02*
G75*
G03*
X9025120Y-10286360I-87500J0D01*
G01*
X9151750Y-15913860D02*
X9326750Y-16088860D01*
X9326750Y-15913860D02*
X9151750Y-16088860D01*
X9326750Y-16001360D02*
G75*
G03*
X9326750Y-16001360I-87500J0D01*
G01*
X9326380Y-15913860D02*
X9501380Y-16088860D01*
X9501380Y-15913860D02*
X9326380Y-16088860D01*
X9501380Y-16001360D02*
G75*
G03*
X9501380Y-16001360I-87500J0D01*
G01*
X9802620Y-12103860D02*
X9977620Y-12278860D01*
X9977620Y-12103860D02*
X9802620Y-12278860D01*
X9977620Y-12191360D02*
G75*
G03*
X9977620Y-12191360I-87500J0D01*
G01*
X9802620Y-17818860D02*
X9977620Y-17993860D01*
X9977620Y-17818860D02*
X9802620Y-17993860D01*
X9977620Y-17906360D02*
G75*
G03*
X9977620Y-17906360I-87500J0D01*
G01*
X9866120Y-10198860D02*
X10041120Y-10373860D01*
X10041120Y-10198860D02*
X9866120Y-10373860D01*
X10041120Y-10286360D02*
G75*
G03*
X10041120Y-10286360I-87500J0D01*
G01*
X10278880Y-14008860D02*
X10453880Y-14183860D01*
X10453880Y-14008860D02*
X10278880Y-14183860D01*
X10453880Y-14096360D02*
G75*
G03*
X10453880Y-14096360I-87500J0D01*
G01*
X10342380Y-15913860D02*
X10517380Y-16088860D01*
X10517380Y-15913860D02*
X10342380Y-16088860D01*
X10517380Y-16001360D02*
G75*
G03*
X10517380Y-16001360I-87500J0D01*
G01*
X10755120Y-10198860D02*
X10930120Y-10373860D01*
X10930120Y-10198860D02*
X10755120Y-10373860D01*
X10930120Y-10286360D02*
G75*
G03*
X10930120Y-10286360I-87500J0D01*
G01*
X10818620Y-12103860D02*
X10993620Y-12278860D01*
X10993620Y-12103860D02*
X10818620Y-12278860D01*
X10993620Y-12191360D02*
G75*
G03*
X10993620Y-12191360I-87500J0D01*
G01*
X10818620Y-17818860D02*
X10993620Y-17993860D01*
X10993620Y-17818860D02*
X10818620Y-17993860D01*
X10993620Y-17906360D02*
G75*
G03*
X10993620Y-17906360I-87500J0D01*
G01*
X11231380Y-15913860D02*
X11406380Y-16088860D01*
X11406380Y-15913860D02*
X11231380Y-16088860D01*
X11406380Y-16001360D02*
G75*
G03*
X11406380Y-16001360I-87500J0D01*
G01*
X11294880Y-14008860D02*
X11469880Y-14183860D01*
X11469880Y-14008860D02*
X11294880Y-14183860D01*
X11469880Y-14096360D02*
G75*
G03*
X11469880Y-14096360I-87500J0D01*
G01*
X11707620Y-12103860D02*
X11882620Y-12278860D01*
X11882620Y-12103860D02*
X11707620Y-12278860D01*
X11882620Y-12191360D02*
G75*
G03*
X11882620Y-12191360I-87500J0D01*
G01*
X11771120Y-10198860D02*
X11946120Y-10373860D01*
X11946120Y-10198860D02*
X11771120Y-10373860D01*
X11946120Y-10286360D02*
G75*
G03*
X11946120Y-10286360I-87500J0D01*
G01*
X12183880Y-14008860D02*
X12358880Y-14183860D01*
X12358880Y-14008860D02*
X12183880Y-14183860D01*
X12358880Y-14096360D02*
G75*
G03*
X12358880Y-14096360I-87500J0D01*
G01*
X12183880Y-17818860D02*
X12358880Y-17993860D01*
X12358880Y-17818860D02*
X12183880Y-17993860D01*
X12358880Y-17906360D02*
G75*
G03*
X12358880Y-17906360I-87500J0D01*
G01*
X12247380Y-15913860D02*
X12422380Y-16088860D01*
X12422380Y-15913860D02*
X12247380Y-16088860D01*
X12422380Y-16001360D02*
G75*
G03*
X12422380Y-16001360I-87500J0D01*
G01*
X12660120Y-10198860D02*
X12835120Y-10373860D01*
X12835120Y-10198860D02*
X12660120Y-10373860D01*
X12835120Y-10286360D02*
G75*
G03*
X12835120Y-10286360I-87500J0D01*
G01*
X12723620Y-12103860D02*
X12898620Y-12278860D01*
X12898620Y-12103860D02*
X12723620Y-12278860D01*
X12898620Y-12191360D02*
G75*
G03*
X12898620Y-12191360I-87500J0D01*
G01*
X13136380Y-15913860D02*
X13311380Y-16088860D01*
X13311380Y-15913860D02*
X13136380Y-16088860D01*
X13311380Y-16001360D02*
G75*
G03*
X13311380Y-16001360I-87500J0D01*
G01*
X13199880Y-14008860D02*
X13374880Y-14183860D01*
X13374880Y-14008860D02*
X13199880Y-14183860D01*
X13374880Y-14096360D02*
G75*
G03*
X13374880Y-14096360I-87500J0D01*
G01*
X13199880Y-17818860D02*
X13374880Y-17993860D01*
X13374880Y-17818860D02*
X13199880Y-17993860D01*
X13374880Y-17906360D02*
G75*
G03*
X13374880Y-17906360I-87500J0D01*
G01*
X13612620Y-12103860D02*
X13787620Y-12278860D01*
X13787620Y-12103860D02*
X13612620Y-12278860D01*
X13787620Y-12191360D02*
G75*
G03*
X13787620Y-12191360I-87500J0D01*
G01*
X13676120Y-10198860D02*
X13851120Y-10373860D01*
X13851120Y-10198860D02*
X13676120Y-10373860D01*
X13851120Y-10286360D02*
G75*
G03*
X13851120Y-10286360I-87500J0D01*
G01*
X14088880Y-14008860D02*
X14263880Y-14183860D01*
X14263880Y-14008860D02*
X14088880Y-14183860D01*
X14263880Y-14096360D02*
G75*
G03*
X14263880Y-14096360I-87500J0D01*
G01*
X14152380Y-15913860D02*
X14327380Y-16088860D01*
X14327380Y-15913860D02*
X14152380Y-16088860D01*
X14327380Y-16001360D02*
G75*
G03*
X14327380Y-16001360I-87500J0D01*
G01*
X14565120Y-10198860D02*
X14740120Y-10373860D01*
X14740120Y-10198860D02*
X14565120Y-10373860D01*
X14740120Y-10286360D02*
G75*
G03*
X14740120Y-10286360I-87500J0D01*
G01*
X14628620Y-12103860D02*
X14803620Y-12278860D01*
X14803620Y-12103860D02*
X14628620Y-12278860D01*
X14803620Y-12191360D02*
G75*
G03*
X14803620Y-12191360I-87500J0D01*
G01*
X15041400Y-15913860D02*
X15216400Y-16088860D01*
X15216400Y-15913860D02*
X15041400Y-16088860D01*
X15216400Y-16001360D02*
G75*
G03*
X15216400Y-16001360I-87500J0D01*
G01*
X15104880Y-14008860D02*
X15279880Y-14183860D01*
X15279880Y-14008860D02*
X15104880Y-14183860D01*
X15279880Y-14096360D02*
G75*
G03*
X15279880Y-14096360I-87500J0D01*
G01*
X15517600Y-12103860D02*
X15692600Y-12278860D01*
X15692600Y-12103860D02*
X15517600Y-12278860D01*
X15692600Y-12191360D02*
G75*
G03*
X15692600Y-12191360I-87500J0D01*
G01*
X15581120Y-10198860D02*
X15756120Y-10373860D01*
X15756120Y-10198860D02*
X15581120Y-10373860D01*
X15756120Y-10286360D02*
G75*
G03*
X15756120Y-10286360I-87500J0D01*
G01*
X15993900Y-14008860D02*
X16168900Y-14183860D01*
X16168900Y-14008860D02*
X15993900Y-14183860D01*
X16168900Y-14096360D02*
G75*
G03*
X16168900Y-14096360I-87500J0D01*
G01*
X16057400Y-15913860D02*
X16232400Y-16088860D01*
X16232400Y-15913860D02*
X16057400Y-16088860D01*
X16232400Y-16001360D02*
G75*
G03*
X16232400Y-16001360I-87500J0D01*
G01*
X16470100Y-10198860D02*
X16645100Y-10373860D01*
X16645100Y-10198860D02*
X16470100Y-10373860D01*
X16645100Y-10286360D02*
G75*
G03*
X16645100Y-10286360I-87500J0D01*
G01*
X16533600Y-12103860D02*
X16708600Y-12278860D01*
X16708600Y-12103860D02*
X16533600Y-12278860D01*
X16708600Y-12191360D02*
G75*
G03*
X16708600Y-12191360I-87500J0D01*
G01*
X16946400Y-15913860D02*
X17121400Y-16088860D01*
X17121400Y-15913860D02*
X16946400Y-16088860D01*
X17121400Y-16001360D02*
G75*
G03*
X17121400Y-16001360I-87500J0D01*
G01*
X17009900Y-14008860D02*
X17184900Y-14183860D01*
X17184900Y-14008860D02*
X17009900Y-14183860D01*
X17184900Y-14096360D02*
G75*
G03*
X17184900Y-14096360I-87500J0D01*
G01*
X17422600Y-12103860D02*
X17597600Y-12278860D01*
X17597600Y-12103860D02*
X17422600Y-12278860D01*
X17597600Y-12191360D02*
G75*
G03*
X17597600Y-12191360I-87500J0D01*
G01*
X17486100Y-10198860D02*
X17661100Y-10373860D01*
X17661100Y-10198860D02*
X17486100Y-10373860D01*
X17661100Y-10286360D02*
G75*
G03*
X17661100Y-10286360I-87500J0D01*
G01*
X17898900Y-14008860D02*
X18073900Y-14183860D01*
X18073900Y-14008860D02*
X17898900Y-14183860D01*
X18073900Y-14096360D02*
G75*
G03*
X18073900Y-14096360I-87500J0D01*
G01*
X17962400Y-15913860D02*
X18137400Y-16088860D01*
X18137400Y-15913860D02*
X17962400Y-16088860D01*
X18137400Y-16001360D02*
G75*
G03*
X18137400Y-16001360I-87500J0D01*
G01*
X18375100Y-10198860D02*
X18550100Y-10373860D01*
X18550100Y-10198860D02*
X18375100Y-10373860D01*
X18550100Y-10286360D02*
G75*
G03*
X18550100Y-10286360I-87500J0D01*
G01*
X18438600Y-12103860D02*
X18613600Y-12278860D01*
X18613600Y-12103860D02*
X18438600Y-12278860D01*
X18613600Y-12191360D02*
G75*
G03*
X18613600Y-12191360I-87500J0D01*
G01*
X18851400Y-15913860D02*
X19026400Y-16088860D01*
X19026400Y-15913860D02*
X18851400Y-16088860D01*
X19026400Y-16001360D02*
G75*
G03*
X19026400Y-16001360I-87500J0D01*
G01*
X18914900Y-14008860D02*
X19089900Y-14183860D01*
X19089900Y-14008860D02*
X18914900Y-14183860D01*
X19089900Y-14096360D02*
G75*
G03*
X19089900Y-14096360I-87500J0D01*
G01*
X19327600Y-12103860D02*
X19502600Y-12278860D01*
X19502600Y-12103860D02*
X19327600Y-12278860D01*
X19502600Y-12191360D02*
G75*
G03*
X19502600Y-12191360I-87500J0D01*
G01*
X19391100Y-10198860D02*
X19566100Y-10373860D01*
X19566100Y-10198860D02*
X19391100Y-10373860D01*
X19566100Y-10286360D02*
G75*
G03*
X19566100Y-10286360I-87500J0D01*
G01*
X19803900Y-14008860D02*
X19978900Y-14183860D01*
X19978900Y-14008860D02*
X19803900Y-14183860D01*
X19978900Y-14096360D02*
G75*
G03*
X19978900Y-14096360I-87500J0D01*
G01*
X19867400Y-15913860D02*
X20042400Y-16088860D01*
X20042400Y-15913860D02*
X19867400Y-16088860D01*
X20042400Y-16001360D02*
G75*
G03*
X20042400Y-16001360I-87500J0D01*
G01*
X20280100Y-10198860D02*
X20455100Y-10373860D01*
X20455100Y-10198860D02*
X20280100Y-10373860D01*
X20455100Y-10286360D02*
G75*
G03*
X20455100Y-10286360I-87500J0D01*
G01*
X20280100Y-17818860D02*
X20455100Y-17993860D01*
X20455100Y-17818860D02*
X20280100Y-17993860D01*
X20455100Y-17906360D02*
G75*
G03*
X20455100Y-17906360I-87500J0D01*
G01*
X20343600Y-12103860D02*
X20518600Y-12278860D01*
X20518600Y-12103860D02*
X20343600Y-12278860D01*
X20518600Y-12191360D02*
G75*
G03*
X20518600Y-12191360I-87500J0D01*
G01*
X20756400Y-15913860D02*
X20931400Y-16088860D01*
X20931400Y-15913860D02*
X20756400Y-16088860D01*
X20931400Y-16001360D02*
G75*
G03*
X20931400Y-16001360I-87500J0D01*
G01*
X20819900Y-14008860D02*
X20994900Y-14183860D01*
X20994900Y-14008860D02*
X20819900Y-14183860D01*
X20994900Y-14096360D02*
G75*
G03*
X20994900Y-14096360I-87500J0D01*
G01*
X21232600Y-12103860D02*
X21407600Y-12278860D01*
X21407600Y-12103860D02*
X21232600Y-12278860D01*
X21407600Y-12191360D02*
G75*
G03*
X21407600Y-12191360I-87500J0D01*
G01*
X21296100Y-10198860D02*
X21471100Y-10373860D01*
X21471100Y-10198860D02*
X21296100Y-10373860D01*
X21471100Y-10286360D02*
G75*
G03*
X21471100Y-10286360I-87500J0D01*
G01*
X21296100Y-17818860D02*
X21471100Y-17993860D01*
X21471100Y-17818860D02*
X21296100Y-17993860D01*
X21471100Y-17906360D02*
G75*
G03*
X21471100Y-17906360I-87500J0D01*
G01*
X21708900Y-14008860D02*
X21883900Y-14183860D01*
X21883900Y-14008860D02*
X21708900Y-14183860D01*
X21883900Y-14096360D02*
G75*
G03*
X21883900Y-14096360I-87500J0D01*
G01*
X21772400Y-15913860D02*
X21947400Y-16088860D01*
X21947400Y-15913860D02*
X21772400Y-16088860D01*
X21947400Y-16001360D02*
G75*
G03*
X21947400Y-16001360I-87500J0D01*
G01*
X22185100Y-10198860D02*
X22360100Y-10373860D01*
X22360100Y-10198860D02*
X22185100Y-10373860D01*
X22360100Y-10286360D02*
G75*
G03*
X22360100Y-10286360I-87500J0D01*
G01*
X22248600Y-12103860D02*
X22423600Y-12278860D01*
X22423600Y-12103860D02*
X22248600Y-12278860D01*
X22423600Y-12191360D02*
G75*
G03*
X22423600Y-12191360I-87500J0D01*
G01*
X22661400Y-15913860D02*
X22836400Y-16088860D01*
X22836400Y-15913860D02*
X22661400Y-16088860D01*
X22836400Y-16001360D02*
G75*
G03*
X22836400Y-16001360I-87500J0D01*
G01*
X22724900Y-14008860D02*
X22899900Y-14183860D01*
X22899900Y-14008860D02*
X22724900Y-14183860D01*
X22899900Y-14096360D02*
G75*
G03*
X22899900Y-14096360I-87500J0D01*
G01*
X23137600Y-12103860D02*
X23312600Y-12278860D01*
X23312600Y-12103860D02*
X23137600Y-12278860D01*
X23312600Y-12191360D02*
G75*
G03*
X23312600Y-12191360I-87500J0D01*
G01*
X23201100Y-10198860D02*
X23376100Y-10373860D01*
X23376100Y-10198860D02*
X23201100Y-10373860D01*
X23376100Y-10286360D02*
G75*
G03*
X23376100Y-10286360I-87500J0D01*
G01*
X23613900Y-14008860D02*
X23788900Y-14183860D01*
X23788900Y-14008860D02*
X23613900Y-14183860D01*
X23788900Y-14096360D02*
G75*
G03*
X23788900Y-14096360I-87500J0D01*
G01*
X23677400Y-15913860D02*
X23852400Y-16088860D01*
X23852400Y-15913860D02*
X23677400Y-16088860D01*
X23852400Y-16001360D02*
G75*
G03*
X23852400Y-16001360I-87500J0D01*
G01*
X24090100Y-10198860D02*
X24265100Y-10373860D01*
X24265100Y-10198860D02*
X24090100Y-10373860D01*
X24265100Y-10286360D02*
G75*
G03*
X24265100Y-10286360I-87500J0D01*
G01*
X24153600Y-12103860D02*
X24328600Y-12278860D01*
X24328600Y-12103860D02*
X24153600Y-12278860D01*
X24328600Y-12191360D02*
G75*
G03*
X24328600Y-12191360I-87500J0D01*
G01*
X24566400Y-15913860D02*
X24741400Y-16088860D01*
X24741400Y-15913860D02*
X24566400Y-16088860D01*
X24741400Y-16001360D02*
G75*
G03*
X24741400Y-16001360I-87500J0D01*
G01*
X24629900Y-14008860D02*
X24804900Y-14183860D01*
X24804900Y-14008860D02*
X24629900Y-14183860D01*
X24804900Y-14096360D02*
G75*
G03*
X24804900Y-14096360I-87500J0D01*
G01*
X25042600Y-12103860D02*
X25217600Y-12278860D01*
X25217600Y-12103860D02*
X25042600Y-12278860D01*
X25217600Y-12191360D02*
G75*
G03*
X25217600Y-12191360I-87500J0D01*
G01*
X25106100Y-10198860D02*
X25281100Y-10373860D01*
X25281100Y-10198860D02*
X25106100Y-10373860D01*
X25281100Y-10286360D02*
G75*
G03*
X25281100Y-10286360I-87500J0D01*
G01*
X25518900Y-14008860D02*
X25693900Y-14183860D01*
X25693900Y-14008860D02*
X25518900Y-14183860D01*
X25693900Y-14096360D02*
G75*
G03*
X25693900Y-14096360I-87500J0D01*
G01*
X25582400Y-15913860D02*
X25757400Y-16088860D01*
X25757400Y-15913860D02*
X25582400Y-16088860D01*
X25757400Y-16001360D02*
G75*
G03*
X25757400Y-16001360I-87500J0D01*
G01*
X25995100Y-10198860D02*
X26170100Y-10373860D01*
X26170100Y-10198860D02*
X25995100Y-10373860D01*
X26170100Y-10286360D02*
G75*
G03*
X26170100Y-10286360I-87500J0D01*
G01*
X26058600Y-12103860D02*
X26233600Y-12278860D01*
X26233600Y-12103860D02*
X26058600Y-12278860D01*
X26233600Y-12191360D02*
G75*
G03*
X26233600Y-12191360I-87500J0D01*
G01*
X26471400Y-15913860D02*
X26646400Y-16088860D01*
X26646400Y-15913860D02*
X26471400Y-16088860D01*
X26646400Y-16001360D02*
G75*
G03*
X26646400Y-16001360I-87500J0D01*
G01*
X26534900Y-14008860D02*
X26709900Y-14183860D01*
X26709900Y-14008860D02*
X26534900Y-14183860D01*
X26709900Y-14096360D02*
G75*
G03*
X26709900Y-14096360I-87500J0D01*
G01*
X26947600Y-12103860D02*
X27122600Y-12278860D01*
X27122600Y-12103860D02*
X26947600Y-12278860D01*
X27122600Y-12191360D02*
G75*
G03*
X27122600Y-12191360I-87500J0D01*
G01*
X27011100Y-10198860D02*
X27186100Y-10373860D01*
X27186100Y-10198860D02*
X27011100Y-10373860D01*
X27186100Y-10286360D02*
G75*
G03*
X27186100Y-10286360I-87500J0D01*
G01*
X27423900Y-14008860D02*
X27598900Y-14183860D01*
X27598900Y-14008860D02*
X27423900Y-14183860D01*
X27598900Y-14096360D02*
G75*
G03*
X27598900Y-14096360I-87500J0D01*
G01*
X27487400Y-15913860D02*
X27662400Y-16088860D01*
X27662400Y-15913860D02*
X27487400Y-16088860D01*
X27662400Y-16001360D02*
G75*
G03*
X27662400Y-16001360I-87500J0D01*
G01*
X27900100Y-10198860D02*
X28075100Y-10373860D01*
X28075100Y-10198860D02*
X27900100Y-10373860D01*
X28075100Y-10286360D02*
G75*
G03*
X28075100Y-10286360I-87500J0D01*
G01*
X27963600Y-12103860D02*
X28138600Y-12278860D01*
X28138600Y-12103860D02*
X27963600Y-12278860D01*
X28138600Y-12191360D02*
G75*
G03*
X28138600Y-12191360I-87500J0D01*
G01*
X28376400Y-15913860D02*
X28551400Y-16088860D01*
X28551400Y-15913860D02*
X28376400Y-16088860D01*
X28551400Y-16001360D02*
G75*
G03*
X28551400Y-16001360I-87500J0D01*
G01*
X28376400Y-17818860D02*
X28551400Y-17993860D01*
X28551400Y-17818860D02*
X28376400Y-17993860D01*
X28551400Y-17906360D02*
G75*
G03*
X28551400Y-17906360I-87500J0D01*
G01*
X28439900Y-14008860D02*
X28614900Y-14183860D01*
X28614900Y-14008860D02*
X28439900Y-14183860D01*
X28614900Y-14096360D02*
G75*
G03*
X28614900Y-14096360I-87500J0D01*
G01*
X28852600Y-12103860D02*
X29027600Y-12278860D01*
X29027600Y-12103860D02*
X28852600Y-12278860D01*
X29027600Y-12191360D02*
G75*
G03*
X29027600Y-12191360I-87500J0D01*
G01*
X28916100Y-10198860D02*
X29091100Y-10373860D01*
X29091100Y-10198860D02*
X28916100Y-10373860D01*
X29091100Y-10286360D02*
G75*
G03*
X29091100Y-10286360I-87500J0D01*
G01*
X29328900Y-14008860D02*
X29503900Y-14183860D01*
X29503900Y-14008860D02*
X29328900Y-14183860D01*
X29503900Y-14096360D02*
G75*
G03*
X29503900Y-14096360I-87500J0D01*
G01*
X29392400Y-15913860D02*
X29567400Y-16088860D01*
X29567400Y-15913860D02*
X29392400Y-16088860D01*
X29567400Y-16001360D02*
G75*
G03*
X29567400Y-16001360I-87500J0D01*
G01*
X29392400Y-17818860D02*
X29567400Y-17993860D01*
X29567400Y-17818860D02*
X29392400Y-17993860D01*
X29567400Y-17906360D02*
G75*
G03*
X29567400Y-17906360I-87500J0D01*
G01*
X29805100Y-10198860D02*
X29980100Y-10373860D01*
X29980100Y-10198860D02*
X29805100Y-10373860D01*
X29980100Y-10286360D02*
G75*
G03*
X29980100Y-10286360I-87500J0D01*
G01*
X29868600Y-12103860D02*
X30043600Y-12278860D01*
X30043600Y-12103860D02*
X29868600Y-12278860D01*
X30043600Y-12191360D02*
G75*
G03*
X30043600Y-12191360I-87500J0D01*
G01*
X30344900Y-14008860D02*
X30519900Y-14183860D01*
X30519900Y-14008860D02*
X30344900Y-14183860D01*
X30519900Y-14096360D02*
G75*
G03*
X30519900Y-14096360I-87500J0D01*
G01*
X30757600Y-12103860D02*
X30932600Y-12278860D01*
X30932600Y-12103860D02*
X30757600Y-12278860D01*
X30932600Y-12191360D02*
G75*
G03*
X30932600Y-12191360I-87500J0D01*
G01*
X30757600Y-17818860D02*
X30932600Y-17993860D01*
X30932600Y-17818860D02*
X30757600Y-17993860D01*
X30932600Y-17906360D02*
G75*
G03*
X30932600Y-17906360I-87500J0D01*
G01*
X30821100Y-10198860D02*
X30996100Y-10373860D01*
X30996100Y-10198860D02*
X30821100Y-10373860D01*
X30996100Y-10286360D02*
G75*
G03*
X30996100Y-10286360I-87500J0D01*
G01*
X30995800Y-15913860D02*
X31170800Y-16088860D01*
X31170800Y-15913860D02*
X30995800Y-16088860D01*
X31170800Y-16001360D02*
G75*
G03*
X31170800Y-16001360I-87500J0D01*
G01*
X31233900Y-14008860D02*
X31408900Y-14183860D01*
X31408900Y-14008860D02*
X31233900Y-14183860D01*
X31408900Y-14096360D02*
G75*
G03*
X31408900Y-14096360I-87500J0D01*
G01*
X31710100Y-10198860D02*
X31885100Y-10373860D01*
X31885100Y-10198860D02*
X31710100Y-10373860D01*
X31885100Y-10286360D02*
G75*
G03*
X31885100Y-10286360I-87500J0D01*
G01*
X31773600Y-12103860D02*
X31948600Y-12278860D01*
X31948600Y-12103860D02*
X31773600Y-12278860D01*
X31948600Y-12191360D02*
G75*
G03*
X31948600Y-12191360I-87500J0D01*
G01*
X31773600Y-17818860D02*
X31948600Y-17993860D01*
X31948600Y-17818860D02*
X31773600Y-17993860D01*
X31948600Y-17906360D02*
G75*
G03*
X31948600Y-17906360I-87500J0D01*
G01*
X31948200Y-15913860D02*
X32123200Y-16088860D01*
X32123200Y-15913860D02*
X31948200Y-16088860D01*
X32123200Y-16001360D02*
G75*
G03*
X32123200Y-16001360I-87500J0D01*
G01*
X32011800Y-15913860D02*
X32186800Y-16088860D01*
X32186800Y-15913860D02*
X32011800Y-16088860D01*
X32186800Y-16001360D02*
G75*
G03*
X32186800Y-16001360I-87500J0D01*
G01*
X32249900Y-14008860D02*
X32424900Y-14183860D01*
X32424900Y-14008860D02*
X32249900Y-14183860D01*
X32424900Y-14096360D02*
G75*
G03*
X32424900Y-14096360I-87500J0D01*
G01*
X32424500Y-14008860D02*
X32599500Y-14183860D01*
X32599500Y-14008860D02*
X32424500Y-14183860D01*
X32599500Y-14096360D02*
G75*
G03*
X32599500Y-14096360I-87500J0D01*
G01*
X32662600Y-10198860D02*
X32837600Y-10373860D01*
X32837600Y-10198860D02*
X32662600Y-10373860D01*
X32837600Y-10286360D02*
G75*
G03*
X32837600Y-10286360I-87500J0D01*
G01*
X32726100Y-10198860D02*
X32901100Y-10373860D01*
X32901100Y-10198860D02*
X32726100Y-10373860D01*
X32901100Y-10286360D02*
G75*
G03*
X32901100Y-10286360I-87500J0D01*
G01*
X32964200Y-15913860D02*
X33139200Y-16088860D01*
X33139200Y-15913860D02*
X32964200Y-16088860D01*
X33139200Y-16001360D02*
G75*
G03*
X33139200Y-16001360I-87500J0D01*
G01*
X33138900Y-12103860D02*
X33313900Y-12278860D01*
X33313900Y-12103860D02*
X33138900Y-12278860D01*
X33313900Y-12191360D02*
G75*
G03*
X33313900Y-12191360I-87500J0D01*
G01*
X33440500Y-14008860D02*
X33615500Y-14183860D01*
X33615500Y-14008860D02*
X33440500Y-14183860D01*
X33615500Y-14096360D02*
G75*
G03*
X33615500Y-14096360I-87500J0D01*
G01*
X33615100Y-10198860D02*
X33790100Y-10373860D01*
X33790100Y-10198860D02*
X33615100Y-10373860D01*
X33790100Y-10286360D02*
G75*
G03*
X33790100Y-10286360I-87500J0D01*
G01*
X33615100Y-15913860D02*
X33790100Y-16088860D01*
X33790100Y-15913860D02*
X33615100Y-16088860D01*
X33790100Y-16001360D02*
G75*
G03*
X33790100Y-16001360I-87500J0D01*
G01*
X33678600Y-10198860D02*
X33853600Y-10373860D01*
X33853600Y-10198860D02*
X33678600Y-10373860D01*
X33853600Y-10286360D02*
G75*
G03*
X33853600Y-10286360I-87500J0D01*
G01*
X33885000Y-12548360D02*
X34060000Y-12723360D01*
X34060000Y-12548360D02*
X33885000Y-12723360D01*
X34060000Y-12635860D02*
G75*
G03*
X34060000Y-12635860I-87500J0D01*
G01*
X33885000Y-13564360D02*
X34060000Y-13739360D01*
X34060000Y-13564360D02*
X33885000Y-13739360D01*
X34060000Y-13651860D02*
G75*
G03*
X34060000Y-13651860I-87500J0D01*
G01*
X34154900Y-12103860D02*
X34329900Y-12278860D01*
X34329900Y-12103860D02*
X34154900Y-12278860D01*
X34329900Y-12191360D02*
G75*
G03*
X34329900Y-12191360I-87500J0D01*
G01*
X34631100Y-10198860D02*
X34806100Y-10373860D01*
X34806100Y-10198860D02*
X34631100Y-10373860D01*
X34806100Y-10286360D02*
G75*
G03*
X34806100Y-10286360I-87500J0D01*
G01*
X34631100Y-15913860D02*
X34806100Y-16088860D01*
X34806100Y-15913860D02*
X34631100Y-16088860D01*
X34806100Y-16001360D02*
G75*
G03*
X34806100Y-16001360I-87500J0D01*
G01*
X7388225Y-15150460D02*
X7693025Y-15455260D01*
X7693025Y-15150460D02*
X7388225Y-15455260D01*
X7540625Y-15150460D02*
X7540625Y-15455260D01*
X7388225Y-15302860D02*
X7693025Y-15302860D01*
X9769475Y-15150460D02*
X10074275Y-15455260D01*
X10074275Y-15150460D02*
X9769475Y-15455260D01*
X9921875Y-15150460D02*
X9921875Y-15455260D01*
X9769475Y-15302860D02*
X10074275Y-15302860D01*
X15008200Y-17055460D02*
X15313000Y-17360260D01*
X15313000Y-17055460D02*
X15008200Y-17360260D01*
X15160600Y-17055460D02*
X15160600Y-17360260D01*
X15008200Y-17207860D02*
X15313000Y-17207860D01*
X26438200Y-17055460D02*
X26743000Y-17360260D01*
X26743000Y-17055460D02*
X26438200Y-17360260D01*
X26590600Y-17055460D02*
X26590600Y-17360260D01*
X26438200Y-17207860D02*
X26743000Y-17207860D01*
X31200675Y-15150460D02*
X31505475Y-15455260D01*
X31505475Y-15150460D02*
X31200675Y-15455260D01*
X31353075Y-15150460D02*
X31353075Y-15455260D01*
X31200675Y-15302860D02*
X31505475Y-15302860D01*
X31676975Y-13245460D02*
X31981775Y-13550260D01*
X31981775Y-13245460D02*
X31676975Y-13550260D01*
X31829375Y-13245460D02*
X31829375Y-13550260D01*
X31676975Y-13397860D02*
X31981775Y-13397860D01*
X31915075Y-9435460D02*
X32219875Y-9740260D01*
X32219875Y-9435460D02*
X31915075Y-9740260D01*
X32067475Y-9435460D02*
X32067475Y-9740260D01*
X31915075Y-9587860D02*
X32219875Y-9587860D01*
X33581925Y-15150460D02*
X33886725Y-15455260D01*
X33886725Y-15150460D02*
X33581925Y-15455260D01*
X33734325Y-15150460D02*
X33734325Y-15455260D01*
X33581925Y-15302860D02*
X33886725Y-15302860D01*
X34058225Y-13245460D02*
X34363025Y-13550260D01*
X34363025Y-13245460D02*
X34058225Y-13550260D01*
X34210625Y-13245460D02*
X34210625Y-13550260D01*
X34058225Y-13397860D02*
X34363025Y-13397860D01*
X34296325Y-9435460D02*
X34601125Y-9740260D01*
X34601125Y-9435460D02*
X34296325Y-9740260D01*
X34448725Y-9435460D02*
X34448725Y-9740260D01*
X34296325Y-9587860D02*
X34601125Y-9587860D01*
X34518600Y-11797660D02*
X34823400Y-12102460D01*
X34823400Y-11797660D02*
X34518600Y-12102460D01*
X34671000Y-11797660D02*
X34671000Y-12102460D01*
X34518600Y-11950060D02*
X34823400Y-11950060D01*
X34518600Y-14185260D02*
X34823400Y-14490060D01*
X34823400Y-14185260D02*
X34518600Y-14490060D01*
X34671000Y-14185260D02*
X34671000Y-14490060D01*
X34518600Y-14337660D02*
X34823400Y-14337660D01*
X7341230Y-10086970D02*
X7740010Y-10485750D01*
X7740010Y-10086970D02*
X7341230Y-10485750D01*
X7681611Y-10427351D02*
X7681611Y-10145369D01*
X7399629Y-10145369D01*
X7399629Y-10427351D01*
X7681611Y-10427351D01*
X7341235Y-16627470D02*
X7740015Y-17026250D01*
X7740015Y-16627470D02*
X7341235Y-17026250D01*
X7681616Y-16967851D02*
X7681616Y-16685869D01*
X7399634Y-16685869D01*
X7399634Y-16967851D01*
X7681616Y-16967851D01*
X7579360Y-13896970D02*
X7978140Y-14295750D01*
X7978140Y-13896970D02*
X7579360Y-14295750D01*
X7919741Y-14237351D02*
X7919741Y-13955369D01*
X7637759Y-13955369D01*
X7637759Y-14237351D01*
X7919741Y-14237351D01*
X7579360Y-15801970D02*
X7978140Y-16200750D01*
X7978140Y-15801970D02*
X7579360Y-16200750D01*
X7919741Y-16142351D02*
X7919741Y-15860369D01*
X7637759Y-15860369D01*
X7637759Y-16142351D01*
X7919741Y-16142351D01*
X7817490Y-11991970D02*
X8216270Y-12390750D01*
X8216270Y-11991970D02*
X7817490Y-12390750D01*
X8157871Y-12332351D02*
X8157871Y-12050369D01*
X7875889Y-12050369D01*
X7875889Y-12332351D01*
X8157871Y-12332351D01*
X8055610Y-13896970D02*
X8454390Y-14295750D01*
X8454390Y-13896970D02*
X8055610Y-14295750D01*
X8395991Y-14237351D02*
X8395991Y-13955369D01*
X8114009Y-13955369D01*
X8114009Y-14237351D01*
X8395991Y-14237351D01*
X8531860Y-15801970D02*
X8930640Y-16200750D01*
X8930640Y-15801970D02*
X8531860Y-16200750D01*
X8872241Y-16142351D02*
X8872241Y-15860369D01*
X8590259Y-15860369D01*
X8590259Y-16142351D01*
X8872241Y-16142351D01*
X9246230Y-10086970D02*
X9645010Y-10485750D01*
X9645010Y-10086970D02*
X9246230Y-10485750D01*
X9586611Y-10427351D02*
X9586611Y-10145369D01*
X9304629Y-10145369D01*
X9304629Y-10427351D01*
X9586611Y-10427351D01*
X9722485Y-16627470D02*
X10121265Y-17026250D01*
X10121265Y-16627470D02*
X9722485Y-17026250D01*
X10062866Y-16967851D02*
X10062866Y-16685869D01*
X9780884Y-16685869D01*
X9780884Y-16967851D01*
X10062866Y-16967851D01*
X9722490Y-15801970D02*
X10121270Y-16200750D01*
X10121270Y-15801970D02*
X9722490Y-16200750D01*
X10062871Y-16142351D02*
X10062871Y-15860369D01*
X9780889Y-15860369D01*
X9780889Y-16142351D01*
X10062871Y-16142351D01*
X10198730Y-11991970D02*
X10597510Y-12390750D01*
X10597510Y-11991970D02*
X10198730Y-12390750D01*
X10539111Y-12332351D02*
X10539111Y-12050369D01*
X10257129Y-12050369D01*
X10257129Y-12332351D01*
X10539111Y-12332351D01*
X10198730Y-17706970D02*
X10597510Y-18105750D01*
X10597510Y-17706970D02*
X10198730Y-18105750D01*
X10539111Y-18047351D02*
X10539111Y-17765369D01*
X10257129Y-17765369D01*
X10257129Y-18047351D01*
X10539111Y-18047351D01*
X10674990Y-13896970D02*
X11073770Y-14295750D01*
X11073770Y-13896970D02*
X10674990Y-14295750D01*
X11015371Y-14237351D02*
X11015371Y-13955369D01*
X10733389Y-13955369D01*
X10733389Y-14237351D01*
X11015371Y-14237351D01*
X11151230Y-10086970D02*
X11550010Y-10485750D01*
X11550010Y-10086970D02*
X11151230Y-10485750D01*
X11491611Y-10427351D02*
X11491611Y-10145369D01*
X11209629Y-10145369D01*
X11209629Y-10427351D01*
X11491611Y-10427351D01*
X11627490Y-15801970D02*
X12026270Y-16200750D01*
X12026270Y-15801970D02*
X11627490Y-16200750D01*
X11967871Y-16142351D02*
X11967871Y-15860369D01*
X11685889Y-15860369D01*
X11685889Y-16142351D01*
X11967871Y-16142351D01*
X12103730Y-11991970D02*
X12502510Y-12390750D01*
X12502510Y-11991970D02*
X12103730Y-12390750D01*
X12444111Y-12332351D02*
X12444111Y-12050369D01*
X12162129Y-12050369D01*
X12162129Y-12332351D01*
X12444111Y-12332351D01*
X12579990Y-13896970D02*
X12978770Y-14295750D01*
X12978770Y-13896970D02*
X12579990Y-14295750D01*
X12920371Y-14237351D02*
X12920371Y-13955369D01*
X12638389Y-13955369D01*
X12638389Y-14237351D01*
X12920371Y-14237351D01*
X12579990Y-17706970D02*
X12978770Y-18105750D01*
X12978770Y-17706970D02*
X12579990Y-18105750D01*
X12920371Y-18047351D02*
X12920371Y-17765369D01*
X12638389Y-17765369D01*
X12638389Y-18047351D01*
X12920371Y-18047351D01*
X13056230Y-10086970D02*
X13455010Y-10485750D01*
X13455010Y-10086970D02*
X13056230Y-10485750D01*
X13396611Y-10427351D02*
X13396611Y-10145369D01*
X13114629Y-10145369D01*
X13114629Y-10427351D01*
X13396611Y-10427351D01*
X13532490Y-15801970D02*
X13931270Y-16200750D01*
X13931270Y-15801970D02*
X13532490Y-16200750D01*
X13872871Y-16142351D02*
X13872871Y-15860369D01*
X13590889Y-15860369D01*
X13590889Y-16142351D01*
X13872871Y-16142351D01*
X14008730Y-11991970D02*
X14407510Y-12390750D01*
X14407510Y-11991970D02*
X14008730Y-12390750D01*
X14349111Y-12332351D02*
X14349111Y-12050369D01*
X14067129Y-12050369D01*
X14067129Y-12332351D01*
X14349111Y-12332351D01*
X14484990Y-13896970D02*
X14883770Y-14295750D01*
X14883770Y-13896970D02*
X14484990Y-14295750D01*
X14825371Y-14237351D02*
X14825371Y-13955369D01*
X14543389Y-13955369D01*
X14543389Y-14237351D01*
X14825371Y-14237351D01*
X14961210Y-18532470D02*
X15359990Y-18931250D01*
X15359990Y-18532470D02*
X14961210Y-18931250D01*
X15301591Y-18872851D02*
X15301591Y-18590869D01*
X15019609Y-18590869D01*
X15019609Y-18872851D01*
X15301591Y-18872851D01*
X14961230Y-10086970D02*
X15360010Y-10485750D01*
X15360010Y-10086970D02*
X14961230Y-10485750D01*
X15301611Y-10427351D02*
X15301611Y-10145369D01*
X15019629Y-10145369D01*
X15019629Y-10427351D01*
X15301611Y-10427351D01*
X15437510Y-15801970D02*
X15836290Y-16200750D01*
X15836290Y-15801970D02*
X15437510Y-16200750D01*
X15777891Y-16142351D02*
X15777891Y-15860369D01*
X15495909Y-15860369D01*
X15495909Y-16142351D01*
X15777891Y-16142351D01*
X15913710Y-11991970D02*
X16312490Y-12390750D01*
X16312490Y-11991970D02*
X15913710Y-12390750D01*
X16254091Y-12332351D02*
X16254091Y-12050369D01*
X15972109Y-12050369D01*
X15972109Y-12332351D01*
X16254091Y-12332351D01*
X16390010Y-13896970D02*
X16788790Y-14295750D01*
X16788790Y-13896970D02*
X16390010Y-14295750D01*
X16730391Y-14237351D02*
X16730391Y-13955369D01*
X16448409Y-13955369D01*
X16448409Y-14237351D01*
X16730391Y-14237351D01*
X16866210Y-10086970D02*
X17264990Y-10485750D01*
X17264990Y-10086970D02*
X16866210Y-10485750D01*
X17206591Y-10427351D02*
X17206591Y-10145369D01*
X16924609Y-10145369D01*
X16924609Y-10427351D01*
X17206591Y-10427351D01*
X17342510Y-15801970D02*
X17741290Y-16200750D01*
X17741290Y-15801970D02*
X17342510Y-16200750D01*
X17682891Y-16142351D02*
X17682891Y-15860369D01*
X17400909Y-15860369D01*
X17400909Y-16142351D01*
X17682891Y-16142351D01*
X17818710Y-11991970D02*
X18217490Y-12390750D01*
X18217490Y-11991970D02*
X17818710Y-12390750D01*
X18159091Y-12332351D02*
X18159091Y-12050369D01*
X17877109Y-12050369D01*
X17877109Y-12332351D01*
X18159091Y-12332351D01*
X18295010Y-13896970D02*
X18693790Y-14295750D01*
X18693790Y-13896970D02*
X18295010Y-14295750D01*
X18635391Y-14237351D02*
X18635391Y-13955369D01*
X18353409Y-13955369D01*
X18353409Y-14237351D01*
X18635391Y-14237351D01*
X18771210Y-10086970D02*
X19169990Y-10485750D01*
X19169990Y-10086970D02*
X18771210Y-10485750D01*
X19111591Y-10427351D02*
X19111591Y-10145369D01*
X18829609Y-10145369D01*
X18829609Y-10427351D01*
X19111591Y-10427351D01*
X19247510Y-15801970D02*
X19646290Y-16200750D01*
X19646290Y-15801970D02*
X19247510Y-16200750D01*
X19587891Y-16142351D02*
X19587891Y-15860369D01*
X19305909Y-15860369D01*
X19305909Y-16142351D01*
X19587891Y-16142351D01*
X19723710Y-11991970D02*
X20122490Y-12390750D01*
X20122490Y-11991970D02*
X19723710Y-12390750D01*
X20064091Y-12332351D02*
X20064091Y-12050369D01*
X19782109Y-12050369D01*
X19782109Y-12332351D01*
X20064091Y-12332351D01*
X20200010Y-13896970D02*
X20598790Y-14295750D01*
X20598790Y-13896970D02*
X20200010Y-14295750D01*
X20540391Y-14237351D02*
X20540391Y-13955369D01*
X20258409Y-13955369D01*
X20258409Y-14237351D01*
X20540391Y-14237351D01*
X20676210Y-10086970D02*
X21074990Y-10485750D01*
X21074990Y-10086970D02*
X20676210Y-10485750D01*
X21016591Y-10427351D02*
X21016591Y-10145369D01*
X20734609Y-10145369D01*
X20734609Y-10427351D01*
X21016591Y-10427351D01*
X20676210Y-17706970D02*
X21074990Y-18105750D01*
X21074990Y-17706970D02*
X20676210Y-18105750D01*
X21016591Y-18047351D02*
X21016591Y-17765369D01*
X20734609Y-17765369D01*
X20734609Y-18047351D01*
X21016591Y-18047351D01*
X21152510Y-15801970D02*
X21551290Y-16200750D01*
X21551290Y-15801970D02*
X21152510Y-16200750D01*
X21492891Y-16142351D02*
X21492891Y-15860369D01*
X21210909Y-15860369D01*
X21210909Y-16142351D01*
X21492891Y-16142351D01*
X21628710Y-11991970D02*
X22027490Y-12390750D01*
X22027490Y-11991970D02*
X21628710Y-12390750D01*
X21969091Y-12332351D02*
X21969091Y-12050369D01*
X21687109Y-12050369D01*
X21687109Y-12332351D01*
X21969091Y-12332351D01*
X22105010Y-13896970D02*
X22503790Y-14295750D01*
X22503790Y-13896970D02*
X22105010Y-14295750D01*
X22445391Y-14237351D02*
X22445391Y-13955369D01*
X22163409Y-13955369D01*
X22163409Y-14237351D01*
X22445391Y-14237351D01*
X22581210Y-10086970D02*
X22979990Y-10485750D01*
X22979990Y-10086970D02*
X22581210Y-10485750D01*
X22921591Y-10427351D02*
X22921591Y-10145369D01*
X22639609Y-10145369D01*
X22639609Y-10427351D01*
X22921591Y-10427351D01*
X23057510Y-15801970D02*
X23456290Y-16200750D01*
X23456290Y-15801970D02*
X23057510Y-16200750D01*
X23397891Y-16142351D02*
X23397891Y-15860369D01*
X23115909Y-15860369D01*
X23115909Y-16142351D01*
X23397891Y-16142351D01*
X23533710Y-11991970D02*
X23932490Y-12390750D01*
X23932490Y-11991970D02*
X23533710Y-12390750D01*
X23874091Y-12332351D02*
X23874091Y-12050369D01*
X23592109Y-12050369D01*
X23592109Y-12332351D01*
X23874091Y-12332351D01*
X24010010Y-13896970D02*
X24408790Y-14295750D01*
X24408790Y-13896970D02*
X24010010Y-14295750D01*
X24350391Y-14237351D02*
X24350391Y-13955369D01*
X24068409Y-13955369D01*
X24068409Y-14237351D01*
X24350391Y-14237351D01*
X24486210Y-10086970D02*
X24884990Y-10485750D01*
X24884990Y-10086970D02*
X24486210Y-10485750D01*
X24826591Y-10427351D02*
X24826591Y-10145369D01*
X24544609Y-10145369D01*
X24544609Y-10427351D01*
X24826591Y-10427351D01*
X24962510Y-15801970D02*
X25361290Y-16200750D01*
X25361290Y-15801970D02*
X24962510Y-16200750D01*
X25302891Y-16142351D02*
X25302891Y-15860369D01*
X25020909Y-15860369D01*
X25020909Y-16142351D01*
X25302891Y-16142351D01*
X25438710Y-11991970D02*
X25837490Y-12390750D01*
X25837490Y-11991970D02*
X25438710Y-12390750D01*
X25779091Y-12332351D02*
X25779091Y-12050369D01*
X25497109Y-12050369D01*
X25497109Y-12332351D01*
X25779091Y-12332351D01*
X25915010Y-13896970D02*
X26313790Y-14295750D01*
X26313790Y-13896970D02*
X25915010Y-14295750D01*
X26255391Y-14237351D02*
X26255391Y-13955369D01*
X25973409Y-13955369D01*
X25973409Y-14237351D01*
X26255391Y-14237351D01*
X26391210Y-10086970D02*
X26789990Y-10485750D01*
X26789990Y-10086970D02*
X26391210Y-10485750D01*
X26731591Y-10427351D02*
X26731591Y-10145369D01*
X26449609Y-10145369D01*
X26449609Y-10427351D01*
X26731591Y-10427351D01*
X26391210Y-18532470D02*
X26789990Y-18931250D01*
X26789990Y-18532470D02*
X26391210Y-18931250D01*
X26731591Y-18872851D02*
X26731591Y-18590869D01*
X26449609Y-18590869D01*
X26449609Y-18872851D01*
X26731591Y-18872851D01*
X26867510Y-15801970D02*
X27266290Y-16200750D01*
X27266290Y-15801970D02*
X26867510Y-16200750D01*
X27207891Y-16142351D02*
X27207891Y-15860369D01*
X26925909Y-15860369D01*
X26925909Y-16142351D01*
X27207891Y-16142351D01*
X27343710Y-11991970D02*
X27742490Y-12390750D01*
X27742490Y-11991970D02*
X27343710Y-12390750D01*
X27684091Y-12332351D02*
X27684091Y-12050369D01*
X27402109Y-12050369D01*
X27402109Y-12332351D01*
X27684091Y-12332351D01*
X27820010Y-13896970D02*
X28218790Y-14295750D01*
X28218790Y-13896970D02*
X27820010Y-14295750D01*
X28160391Y-14237351D02*
X28160391Y-13955369D01*
X27878409Y-13955369D01*
X27878409Y-14237351D01*
X28160391Y-14237351D01*
X28296210Y-10086970D02*
X28694990Y-10485750D01*
X28694990Y-10086970D02*
X28296210Y-10485750D01*
X28636591Y-10427351D02*
X28636591Y-10145369D01*
X28354609Y-10145369D01*
X28354609Y-10427351D01*
X28636591Y-10427351D01*
X28772510Y-15801970D02*
X29171290Y-16200750D01*
X29171290Y-15801970D02*
X28772510Y-16200750D01*
X29112891Y-16142351D02*
X29112891Y-15860369D01*
X28830909Y-15860369D01*
X28830909Y-16142351D01*
X29112891Y-16142351D01*
X28772510Y-17706970D02*
X29171290Y-18105750D01*
X29171290Y-17706970D02*
X28772510Y-18105750D01*
X29112891Y-18047351D02*
X29112891Y-17765369D01*
X28830909Y-17765369D01*
X28830909Y-18047351D01*
X29112891Y-18047351D01*
X29248710Y-11991970D02*
X29647490Y-12390750D01*
X29647490Y-11991970D02*
X29248710Y-12390750D01*
X29589091Y-12332351D02*
X29589091Y-12050369D01*
X29307109Y-12050369D01*
X29307109Y-12332351D01*
X29589091Y-12332351D01*
X29725010Y-13896970D02*
X30123790Y-14295750D01*
X30123790Y-13896970D02*
X29725010Y-14295750D01*
X30065391Y-14237351D02*
X30065391Y-13955369D01*
X29783409Y-13955369D01*
X29783409Y-14237351D01*
X30065391Y-14237351D01*
X30201210Y-10086970D02*
X30599990Y-10485750D01*
X30599990Y-10086970D02*
X30201210Y-10485750D01*
X30541591Y-10427351D02*
X30541591Y-10145369D01*
X30259609Y-10145369D01*
X30259609Y-10427351D01*
X30541591Y-10427351D01*
X31153685Y-16627470D02*
X31552465Y-17026250D01*
X31552465Y-16627470D02*
X31153685Y-17026250D01*
X31494066Y-16967851D02*
X31494066Y-16685869D01*
X31212084Y-16685869D01*
X31212084Y-16967851D01*
X31494066Y-16967851D01*
X31153710Y-11991970D02*
X31552490Y-12390750D01*
X31552490Y-11991970D02*
X31153710Y-12390750D01*
X31494091Y-12332351D02*
X31494091Y-12050369D01*
X31212109Y-12050369D01*
X31212109Y-12332351D01*
X31494091Y-12332351D01*
X31153710Y-17706970D02*
X31552490Y-18105750D01*
X31552490Y-17706970D02*
X31153710Y-18105750D01*
X31494091Y-18047351D02*
X31494091Y-17765369D01*
X31212109Y-17765369D01*
X31212109Y-18047351D01*
X31494091Y-18047351D01*
X31391910Y-15801970D02*
X31790690Y-16200750D01*
X31790690Y-15801970D02*
X31391910Y-16200750D01*
X31732291Y-16142351D02*
X31732291Y-15860369D01*
X31450309Y-15860369D01*
X31450309Y-16142351D01*
X31732291Y-16142351D01*
X31629985Y-14722470D02*
X32028765Y-15121250D01*
X32028765Y-14722470D02*
X31629985Y-15121250D01*
X31970366Y-15062851D02*
X31970366Y-14780869D01*
X31688384Y-14780869D01*
X31688384Y-15062851D01*
X31970366Y-15062851D01*
X31630010Y-13896970D02*
X32028790Y-14295750D01*
X32028790Y-13896970D02*
X31630010Y-14295750D01*
X31970391Y-14237351D02*
X31970391Y-13955369D01*
X31688409Y-13955369D01*
X31688409Y-14237351D01*
X31970391Y-14237351D01*
X31868085Y-10912470D02*
X32266865Y-11311250D01*
X32266865Y-10912470D02*
X31868085Y-11311250D01*
X32208466Y-11252851D02*
X32208466Y-10970869D01*
X31926484Y-10970869D01*
X31926484Y-11252851D01*
X32208466Y-11252851D01*
X32106210Y-10086970D02*
X32504990Y-10485750D01*
X32504990Y-10086970D02*
X32106210Y-10485750D01*
X32446591Y-10427351D02*
X32446591Y-10145369D01*
X32164609Y-10145369D01*
X32164609Y-10427351D01*
X32446591Y-10427351D01*
X32344310Y-15801970D02*
X32743090Y-16200750D01*
X32743090Y-15801970D02*
X32344310Y-16200750D01*
X32684691Y-16142351D02*
X32684691Y-15860369D01*
X32402709Y-15860369D01*
X32402709Y-16142351D01*
X32684691Y-16142351D01*
X32820610Y-13896970D02*
X33219390Y-14295750D01*
X33219390Y-13896970D02*
X32820610Y-14295750D01*
X33160991Y-14237351D02*
X33160991Y-13955369D01*
X32879009Y-13955369D01*
X32879009Y-14237351D01*
X33160991Y-14237351D01*
X32947610Y-11750670D02*
X33346390Y-12149450D01*
X33346390Y-11750670D02*
X32947610Y-12149450D01*
X33287991Y-12091051D02*
X33287991Y-11809069D01*
X33006009Y-11809069D01*
X33006009Y-12091051D01*
X33287991Y-12091051D01*
X32947610Y-14138270D02*
X33346390Y-14537050D01*
X33346390Y-14138270D02*
X32947610Y-14537050D01*
X33287991Y-14478651D02*
X33287991Y-14196669D01*
X33006009Y-14196669D01*
X33006009Y-14478651D01*
X33287991Y-14478651D01*
X33058710Y-10086970D02*
X33457490Y-10485750D01*
X33457490Y-10086970D02*
X33058710Y-10485750D01*
X33399091Y-10427351D02*
X33399091Y-10145369D01*
X33117109Y-10145369D01*
X33117109Y-10427351D01*
X33399091Y-10427351D01*
X33534935Y-16627470D02*
X33933715Y-17026250D01*
X33933715Y-16627470D02*
X33534935Y-17026250D01*
X33875316Y-16967851D02*
X33875316Y-16685869D01*
X33593334Y-16685869D01*
X33593334Y-16967851D01*
X33875316Y-16967851D01*
X33535010Y-11991970D02*
X33933790Y-12390750D01*
X33933790Y-11991970D02*
X33535010Y-12390750D01*
X33875391Y-12332351D02*
X33875391Y-12050369D01*
X33593409Y-12050369D01*
X33593409Y-12332351D01*
X33875391Y-12332351D01*
X33773110Y-12944470D02*
X34171890Y-13343250D01*
X34171890Y-12944470D02*
X33773110Y-13343250D01*
X34113491Y-13284851D02*
X34113491Y-13002869D01*
X33831509Y-13002869D01*
X33831509Y-13284851D01*
X34113491Y-13284851D01*
X34011210Y-10086970D02*
X34409990Y-10485750D01*
X34409990Y-10086970D02*
X34011210Y-10485750D01*
X34351591Y-10427351D02*
X34351591Y-10145369D01*
X34069609Y-10145369D01*
X34069609Y-10427351D01*
X34351591Y-10427351D01*
X34011210Y-15801970D02*
X34409990Y-16200750D01*
X34409990Y-15801970D02*
X34011210Y-16200750D01*
X34351591Y-16142351D02*
X34351591Y-15860369D01*
X34069609Y-15860369D01*
X34069609Y-16142351D01*
X34351591Y-16142351D01*
X34011235Y-14722470D02*
X34410015Y-15121250D01*
X34410015Y-14722470D02*
X34011235Y-15121250D01*
X34351616Y-15062851D02*
X34351616Y-14780869D01*
X34069634Y-14780869D01*
X34069634Y-15062851D01*
X34351616Y-15062851D01*
X34249335Y-10912470D02*
X34648115Y-11311250D01*
X34648115Y-10912470D02*
X34249335Y-11311250D01*
X34589716Y-11252851D02*
X34589716Y-10970869D01*
X34307734Y-10970869D01*
X34307734Y-11252851D01*
X34589716Y-11252851D01*
D12*
X6867053Y-19570204D02*
X6867053Y-19270204D01*
X6938482Y-19270204D01*
X6981339Y-19284490D01*
X7009911Y-19313062D01*
X7024196Y-19341633D01*
X7038482Y-19398776D01*
X7038482Y-19441633D01*
X7024196Y-19498776D01*
X7009911Y-19527347D01*
X6981339Y-19555919D01*
X6938482Y-19570204D01*
X6867053Y-19570204D01*
X7167053Y-19570204D02*
X7167053Y-19370204D01*
X7167053Y-19427347D02*
X7181339Y-19398776D01*
X7195625Y-19384490D01*
X7224196Y-19370204D01*
X7252768Y-19370204D01*
X7352768Y-19570204D02*
X7352768Y-19370204D01*
X7352768Y-19270204D02*
X7338482Y-19284490D01*
X7352768Y-19298776D01*
X7367053Y-19284490D01*
X7352768Y-19270204D01*
X7352768Y-19298776D01*
X7538482Y-19570204D02*
X7509911Y-19555919D01*
X7495625Y-19527347D01*
X7495625Y-19270204D01*
X7695625Y-19570204D02*
X7667053Y-19555919D01*
X7652768Y-19527347D01*
X7652768Y-19270204D01*
X8038482Y-19570204D02*
X8038482Y-19270204D01*
X8138482Y-19484490D01*
X8238482Y-19270204D01*
X8238482Y-19570204D01*
X8509911Y-19570204D02*
X8509911Y-19413062D01*
X8495625Y-19384490D01*
X8467053Y-19370204D01*
X8409911Y-19370204D01*
X8381339Y-19384490D01*
X8509911Y-19555919D02*
X8481339Y-19570204D01*
X8409911Y-19570204D01*
X8381339Y-19555919D01*
X8367053Y-19527347D01*
X8367053Y-19498776D01*
X8381339Y-19470204D01*
X8409911Y-19455919D01*
X8481339Y-19455919D01*
X8509911Y-19441633D01*
X8652768Y-19370204D02*
X8652768Y-19670204D01*
X8652768Y-19384490D02*
X8681339Y-19370204D01*
X8738482Y-19370204D01*
X8767053Y-19384490D01*
X8781339Y-19398776D01*
X8795625Y-19427347D01*
X8795625Y-19513062D01*
X8781339Y-19541633D01*
X8767053Y-19555919D01*
X8738482Y-19570204D01*
X8681339Y-19570204D01*
X8652768Y-19555919D01*
X8924196Y-19541633D02*
X8938482Y-19555919D01*
X8924196Y-19570204D01*
X8909911Y-19555919D01*
X8924196Y-19541633D01*
X8924196Y-19570204D01*
X8924196Y-19384490D02*
X8938482Y-19398776D01*
X8924196Y-19413062D01*
X8909911Y-19398776D01*
X8924196Y-19384490D01*
X8924196Y-19413062D01*
X6540625Y-20044490D02*
X6580625Y-20084490D01*
X6580625Y-20044490D02*
X6540625Y-20084490D01*
X6924196Y-19900204D02*
X6952768Y-19900204D01*
X6981339Y-19914490D01*
X6995625Y-19928776D01*
X7009911Y-19957347D01*
X7024196Y-20014490D01*
X7024196Y-20085919D01*
X7009911Y-20143062D01*
X6995625Y-20171633D01*
X6981339Y-20185919D01*
X6952768Y-20200204D01*
X6924196Y-20200204D01*
X6895625Y-20185919D01*
X6881339Y-20171633D01*
X6867053Y-20143062D01*
X6852768Y-20085919D01*
X6852768Y-20014490D01*
X6867053Y-19957347D01*
X6881339Y-19928776D01*
X6895625Y-19914490D01*
X6924196Y-19900204D01*
X7152768Y-20171633D02*
X7167053Y-20185919D01*
X7152768Y-20200204D01*
X7138482Y-20185919D01*
X7152768Y-20171633D01*
X7152768Y-20200204D01*
X7424196Y-20000204D02*
X7424196Y-20200204D01*
X7352768Y-19885919D02*
X7281339Y-20100204D01*
X7467053Y-20100204D01*
X7638482Y-19900204D02*
X7667053Y-19900204D01*
X7695625Y-19914490D01*
X7709911Y-19928776D01*
X7724196Y-19957347D01*
X7738482Y-20014490D01*
X7738482Y-20085919D01*
X7724196Y-20143062D01*
X7709911Y-20171633D01*
X7695625Y-20185919D01*
X7667053Y-20200204D01*
X7638482Y-20200204D01*
X7609911Y-20185919D01*
X7595625Y-20171633D01*
X7581339Y-20143062D01*
X7567053Y-20085919D01*
X7567053Y-20014490D01*
X7581339Y-19957347D01*
X7595625Y-19928776D01*
X7609911Y-19914490D01*
X7638482Y-19900204D01*
X7924196Y-19900204D02*
X7952768Y-19900204D01*
X7981339Y-19914490D01*
X7995625Y-19928776D01*
X8009911Y-19957347D01*
X8024196Y-20014490D01*
X8024196Y-20085919D01*
X8009911Y-20143062D01*
X7995625Y-20171633D01*
X7981339Y-20185919D01*
X7952768Y-20200204D01*
X7924196Y-20200204D01*
X7895625Y-20185919D01*
X7881339Y-20171633D01*
X7867053Y-20143062D01*
X7852768Y-20085919D01*
X7852768Y-20014490D01*
X7867053Y-19957347D01*
X7881339Y-19928776D01*
X7895625Y-19914490D01*
X7924196Y-19900204D01*
X8152768Y-20200204D02*
X8152768Y-20000204D01*
X8152768Y-20028776D02*
X8167053Y-20014490D01*
X8195625Y-20000204D01*
X8238482Y-20000204D01*
X8267053Y-20014490D01*
X8281339Y-20043062D01*
X8281339Y-20200204D01*
X8281339Y-20043062D02*
X8295625Y-20014490D01*
X8324196Y-20000204D01*
X8367053Y-20000204D01*
X8395625Y-20014490D01*
X8409911Y-20043062D01*
X8409911Y-20200204D01*
X8552768Y-20200204D02*
X8552768Y-20000204D01*
X8552768Y-20028776D02*
X8567053Y-20014490D01*
X8595625Y-20000204D01*
X8638482Y-20000204D01*
X8667053Y-20014490D01*
X8681339Y-20043062D01*
X8681339Y-20200204D01*
X8681339Y-20043062D02*
X8695625Y-20014490D01*
X8724196Y-20000204D01*
X8767053Y-20000204D01*
X8795625Y-20014490D01*
X8809911Y-20043062D01*
X8809911Y-20200204D01*
X9395625Y-19885919D02*
X9138482Y-20271633D01*
X9781339Y-19900204D02*
X9809911Y-19900204D01*
X9838482Y-19914490D01*
X9852768Y-19928776D01*
X9867053Y-19957347D01*
X9881339Y-20014490D01*
X9881339Y-20085919D01*
X9867053Y-20143062D01*
X9852768Y-20171633D01*
X9838482Y-20185919D01*
X9809911Y-20200204D01*
X9781339Y-20200204D01*
X9752768Y-20185919D01*
X9738482Y-20171633D01*
X9724196Y-20143062D01*
X9709911Y-20085919D01*
X9709911Y-20014490D01*
X9724196Y-19957347D01*
X9738482Y-19928776D01*
X9752768Y-19914490D01*
X9781339Y-19900204D01*
X10009911Y-20171633D02*
X10024196Y-20185919D01*
X10009911Y-20200204D01*
X9995625Y-20185919D01*
X10009911Y-20171633D01*
X10009911Y-20200204D01*
X10209911Y-19900204D02*
X10238482Y-19900204D01*
X10267053Y-19914490D01*
X10281339Y-19928776D01*
X10295625Y-19957347D01*
X10309911Y-20014490D01*
X10309911Y-20085919D01*
X10295625Y-20143062D01*
X10281339Y-20171633D01*
X10267053Y-20185919D01*
X10238482Y-20200204D01*
X10209911Y-20200204D01*
X10181339Y-20185919D01*
X10167053Y-20171633D01*
X10152768Y-20143062D01*
X10138482Y-20085919D01*
X10138482Y-20014490D01*
X10152768Y-19957347D01*
X10167053Y-19928776D01*
X10181339Y-19914490D01*
X10209911Y-19900204D01*
X10595625Y-20200204D02*
X10424196Y-20200204D01*
X10509911Y-20200204D02*
X10509911Y-19900204D01*
X10481339Y-19943062D01*
X10452768Y-19971633D01*
X10424196Y-19985919D01*
X10867053Y-19900204D02*
X10724196Y-19900204D01*
X10709911Y-20043062D01*
X10724196Y-20028776D01*
X10752768Y-20014490D01*
X10824196Y-20014490D01*
X10852768Y-20028776D01*
X10867053Y-20043062D01*
X10881339Y-20071633D01*
X10881339Y-20143062D01*
X10867053Y-20171633D01*
X10852768Y-20185919D01*
X10824196Y-20200204D01*
X10752768Y-20200204D01*
X10724196Y-20185919D01*
X10709911Y-20171633D01*
X10981339Y-19900204D02*
X11181339Y-19900204D01*
X11052768Y-20200204D01*
X11281339Y-19900204D02*
X11281339Y-19957347D01*
X11395625Y-19900204D02*
X11395625Y-19957347D01*
X11838482Y-20314490D02*
X11824196Y-20300204D01*
X11795625Y-20257347D01*
X11781339Y-20228776D01*
X11767053Y-20185919D01*
X11752768Y-20114490D01*
X11752768Y-20057347D01*
X11767053Y-19985919D01*
X11781339Y-19943062D01*
X11795625Y-19914490D01*
X11824196Y-19871633D01*
X11838482Y-19857347D01*
X11938482Y-19928776D02*
X11952768Y-19914490D01*
X11981339Y-19900204D01*
X12052768Y-19900204D01*
X12081339Y-19914490D01*
X12095625Y-19928776D01*
X12109911Y-19957347D01*
X12109911Y-19985919D01*
X12095625Y-20028776D01*
X11924196Y-20200204D01*
X12109911Y-20200204D01*
X12209911Y-19900204D02*
X12395625Y-19900204D01*
X12295625Y-20014490D01*
X12338482Y-20014490D01*
X12367053Y-20028776D01*
X12381339Y-20043062D01*
X12395625Y-20071633D01*
X12395625Y-20143062D01*
X12381339Y-20171633D01*
X12367053Y-20185919D01*
X12338482Y-20200204D01*
X12252768Y-20200204D01*
X12224196Y-20185919D01*
X12209911Y-20171633D01*
X12752768Y-20200204D02*
X12752768Y-19900204D01*
X12881339Y-20200204D02*
X12881339Y-20043062D01*
X12867053Y-20014490D01*
X12838482Y-20000204D01*
X12795625Y-20000204D01*
X12767053Y-20014490D01*
X12752768Y-20028776D01*
X13067053Y-20200204D02*
X13038482Y-20185919D01*
X13024196Y-20171633D01*
X13009911Y-20143062D01*
X13009911Y-20057347D01*
X13024196Y-20028776D01*
X13038482Y-20014490D01*
X13067053Y-20000204D01*
X13109911Y-20000204D01*
X13138482Y-20014490D01*
X13152768Y-20028776D01*
X13167053Y-20057347D01*
X13167053Y-20143062D01*
X13152768Y-20171633D01*
X13138482Y-20185919D01*
X13109911Y-20200204D01*
X13067053Y-20200204D01*
X13338482Y-20200204D02*
X13309911Y-20185919D01*
X13295625Y-20157347D01*
X13295625Y-19900204D01*
X13567053Y-20185919D02*
X13538482Y-20200204D01*
X13481339Y-20200204D01*
X13452768Y-20185919D01*
X13438482Y-20157347D01*
X13438482Y-20043062D01*
X13452768Y-20014490D01*
X13481339Y-20000204D01*
X13538482Y-20000204D01*
X13567053Y-20014490D01*
X13581339Y-20043062D01*
X13581339Y-20071633D01*
X13438482Y-20100204D01*
X13695625Y-20185919D02*
X13724196Y-20200204D01*
X13781339Y-20200204D01*
X13809911Y-20185919D01*
X13824196Y-20157347D01*
X13824196Y-20143062D01*
X13809911Y-20114490D01*
X13781339Y-20100204D01*
X13738482Y-20100204D01*
X13709911Y-20085919D01*
X13695625Y-20057347D01*
X13695625Y-20043062D01*
X13709911Y-20014490D01*
X13738482Y-20000204D01*
X13781339Y-20000204D01*
X13809911Y-20014490D01*
X13924196Y-20314490D02*
X13938482Y-20300204D01*
X13967053Y-20257347D01*
X13981339Y-20228776D01*
X13995625Y-20185919D01*
X14009911Y-20114490D01*
X14009911Y-20057347D01*
X13995625Y-19985919D01*
X13981339Y-19943062D01*
X13967053Y-19914490D01*
X13938482Y-19871633D01*
X13924196Y-19857347D01*
X6580625Y-20460490D02*
G75*
G03*
X6580625Y-20460490I-35000J0D01*
G01*
X6924196Y-20296204D02*
X6952768Y-20296204D01*
X6981339Y-20310490D01*
X6995625Y-20324776D01*
X7009911Y-20353347D01*
X7024196Y-20410490D01*
X7024196Y-20481919D01*
X7009911Y-20539062D01*
X6995625Y-20567633D01*
X6981339Y-20581919D01*
X6952768Y-20596204D01*
X6924196Y-20596204D01*
X6895625Y-20581919D01*
X6881339Y-20567633D01*
X6867053Y-20539062D01*
X6852768Y-20481919D01*
X6852768Y-20410490D01*
X6867053Y-20353347D01*
X6881339Y-20324776D01*
X6895625Y-20310490D01*
X6924196Y-20296204D01*
X7152768Y-20567633D02*
X7167053Y-20581919D01*
X7152768Y-20596204D01*
X7138482Y-20581919D01*
X7152768Y-20567633D01*
X7152768Y-20596204D01*
X7267053Y-20296204D02*
X7467053Y-20296204D01*
X7338482Y-20596204D01*
X7638482Y-20296204D02*
X7667053Y-20296204D01*
X7695625Y-20310490D01*
X7709911Y-20324776D01*
X7724196Y-20353347D01*
X7738482Y-20410490D01*
X7738482Y-20481919D01*
X7724196Y-20539062D01*
X7709911Y-20567633D01*
X7695625Y-20581919D01*
X7667053Y-20596204D01*
X7638482Y-20596204D01*
X7609911Y-20581919D01*
X7595625Y-20567633D01*
X7581339Y-20539062D01*
X7567053Y-20481919D01*
X7567053Y-20410490D01*
X7581339Y-20353347D01*
X7595625Y-20324776D01*
X7609911Y-20310490D01*
X7638482Y-20296204D01*
X7924196Y-20296204D02*
X7952768Y-20296204D01*
X7981339Y-20310490D01*
X7995625Y-20324776D01*
X8009911Y-20353347D01*
X8024196Y-20410490D01*
X8024196Y-20481919D01*
X8009911Y-20539062D01*
X7995625Y-20567633D01*
X7981339Y-20581919D01*
X7952768Y-20596204D01*
X7924196Y-20596204D01*
X7895625Y-20581919D01*
X7881339Y-20567633D01*
X7867053Y-20539062D01*
X7852768Y-20481919D01*
X7852768Y-20410490D01*
X7867053Y-20353347D01*
X7881339Y-20324776D01*
X7895625Y-20310490D01*
X7924196Y-20296204D01*
X8152768Y-20596204D02*
X8152768Y-20396204D01*
X8152768Y-20424776D02*
X8167053Y-20410490D01*
X8195625Y-20396204D01*
X8238482Y-20396204D01*
X8267053Y-20410490D01*
X8281339Y-20439062D01*
X8281339Y-20596204D01*
X8281339Y-20439062D02*
X8295625Y-20410490D01*
X8324196Y-20396204D01*
X8367053Y-20396204D01*
X8395625Y-20410490D01*
X8409911Y-20439062D01*
X8409911Y-20596204D01*
X8552768Y-20596204D02*
X8552768Y-20396204D01*
X8552768Y-20424776D02*
X8567053Y-20410490D01*
X8595625Y-20396204D01*
X8638482Y-20396204D01*
X8667053Y-20410490D01*
X8681339Y-20439062D01*
X8681339Y-20596204D01*
X8681339Y-20439062D02*
X8695625Y-20410490D01*
X8724196Y-20396204D01*
X8767053Y-20396204D01*
X8795625Y-20410490D01*
X8809911Y-20439062D01*
X8809911Y-20596204D01*
X9395625Y-20281919D02*
X9138482Y-20667633D01*
X9781339Y-20296204D02*
X9809911Y-20296204D01*
X9838482Y-20310490D01*
X9852768Y-20324776D01*
X9867053Y-20353347D01*
X9881339Y-20410490D01*
X9881339Y-20481919D01*
X9867053Y-20539062D01*
X9852768Y-20567633D01*
X9838482Y-20581919D01*
X9809911Y-20596204D01*
X9781339Y-20596204D01*
X9752768Y-20581919D01*
X9738482Y-20567633D01*
X9724196Y-20539062D01*
X9709911Y-20481919D01*
X9709911Y-20410490D01*
X9724196Y-20353347D01*
X9738482Y-20324776D01*
X9752768Y-20310490D01*
X9781339Y-20296204D01*
X10009911Y-20567633D02*
X10024196Y-20581919D01*
X10009911Y-20596204D01*
X9995625Y-20581919D01*
X10009911Y-20567633D01*
X10009911Y-20596204D01*
X10209911Y-20296204D02*
X10238482Y-20296204D01*
X10267053Y-20310490D01*
X10281339Y-20324776D01*
X10295625Y-20353347D01*
X10309911Y-20410490D01*
X10309911Y-20481919D01*
X10295625Y-20539062D01*
X10281339Y-20567633D01*
X10267053Y-20581919D01*
X10238482Y-20596204D01*
X10209911Y-20596204D01*
X10181339Y-20581919D01*
X10167053Y-20567633D01*
X10152768Y-20539062D01*
X10138482Y-20481919D01*
X10138482Y-20410490D01*
X10152768Y-20353347D01*
X10167053Y-20324776D01*
X10181339Y-20310490D01*
X10209911Y-20296204D01*
X10424196Y-20324776D02*
X10438482Y-20310490D01*
X10467053Y-20296204D01*
X10538482Y-20296204D01*
X10567053Y-20310490D01*
X10581339Y-20324776D01*
X10595625Y-20353347D01*
X10595625Y-20381919D01*
X10581339Y-20424776D01*
X10409911Y-20596204D01*
X10595625Y-20596204D01*
X10695625Y-20296204D02*
X10895625Y-20296204D01*
X10767053Y-20596204D01*
X11138482Y-20296204D02*
X11081339Y-20296204D01*
X11052768Y-20310490D01*
X11038482Y-20324776D01*
X11009911Y-20367633D01*
X10995625Y-20424776D01*
X10995625Y-20539062D01*
X11009911Y-20567633D01*
X11024196Y-20581919D01*
X11052768Y-20596204D01*
X11109911Y-20596204D01*
X11138482Y-20581919D01*
X11152768Y-20567633D01*
X11167053Y-20539062D01*
X11167053Y-20467633D01*
X11152768Y-20439062D01*
X11138482Y-20424776D01*
X11109911Y-20410490D01*
X11052768Y-20410490D01*
X11024196Y-20424776D01*
X11009911Y-20439062D01*
X10995625Y-20467633D01*
X11281339Y-20296204D02*
X11281339Y-20353347D01*
X11395625Y-20296204D02*
X11395625Y-20353347D01*
X11838482Y-20710490D02*
X11824196Y-20696204D01*
X11795625Y-20653347D01*
X11781339Y-20624776D01*
X11767053Y-20581919D01*
X11752768Y-20510490D01*
X11752768Y-20453347D01*
X11767053Y-20381919D01*
X11781339Y-20339062D01*
X11795625Y-20310490D01*
X11824196Y-20267633D01*
X11838482Y-20253347D01*
X12109911Y-20596204D02*
X11938482Y-20596204D01*
X12024196Y-20596204D02*
X12024196Y-20296204D01*
X11995625Y-20339062D01*
X11967053Y-20367633D01*
X11938482Y-20381919D01*
X12224196Y-20324776D02*
X12238482Y-20310490D01*
X12267053Y-20296204D01*
X12338482Y-20296204D01*
X12367053Y-20310490D01*
X12381339Y-20324776D01*
X12395625Y-20353347D01*
X12395625Y-20381919D01*
X12381339Y-20424776D01*
X12209911Y-20596204D01*
X12395625Y-20596204D01*
X12652768Y-20296204D02*
X12595625Y-20296204D01*
X12567053Y-20310490D01*
X12552768Y-20324776D01*
X12524196Y-20367633D01*
X12509911Y-20424776D01*
X12509911Y-20539062D01*
X12524196Y-20567633D01*
X12538482Y-20581919D01*
X12567053Y-20596204D01*
X12624196Y-20596204D01*
X12652768Y-20581919D01*
X12667053Y-20567633D01*
X12681339Y-20539062D01*
X12681339Y-20467633D01*
X12667053Y-20439062D01*
X12652768Y-20424776D01*
X12624196Y-20410490D01*
X12567053Y-20410490D01*
X12538482Y-20424776D01*
X12524196Y-20439062D01*
X12509911Y-20467633D01*
X13038482Y-20596204D02*
X13038482Y-20296204D01*
X13167053Y-20596204D02*
X13167053Y-20439062D01*
X13152768Y-20410490D01*
X13124196Y-20396204D01*
X13081339Y-20396204D01*
X13052768Y-20410490D01*
X13038482Y-20424776D01*
X13352768Y-20596204D02*
X13324196Y-20581919D01*
X13309911Y-20567633D01*
X13295625Y-20539062D01*
X13295625Y-20453347D01*
X13309911Y-20424776D01*
X13324196Y-20410490D01*
X13352768Y-20396204D01*
X13395625Y-20396204D01*
X13424196Y-20410490D01*
X13438482Y-20424776D01*
X13452768Y-20453347D01*
X13452768Y-20539062D01*
X13438482Y-20567633D01*
X13424196Y-20581919D01*
X13395625Y-20596204D01*
X13352768Y-20596204D01*
X13624196Y-20596204D02*
X13595625Y-20581919D01*
X13581339Y-20553347D01*
X13581339Y-20296204D01*
X13852768Y-20581919D02*
X13824196Y-20596204D01*
X13767053Y-20596204D01*
X13738482Y-20581919D01*
X13724196Y-20553347D01*
X13724196Y-20439062D01*
X13738482Y-20410490D01*
X13767053Y-20396204D01*
X13824196Y-20396204D01*
X13852768Y-20410490D01*
X13867053Y-20439062D01*
X13867053Y-20467633D01*
X13724196Y-20496204D01*
X13981339Y-20581919D02*
X14009911Y-20596204D01*
X14067053Y-20596204D01*
X14095625Y-20581919D01*
X14109911Y-20553347D01*
X14109911Y-20539062D01*
X14095625Y-20510490D01*
X14067053Y-20496204D01*
X14024196Y-20496204D01*
X13995625Y-20481919D01*
X13981339Y-20453347D01*
X13981339Y-20439062D01*
X13995625Y-20410490D01*
X14024196Y-20396204D01*
X14067053Y-20396204D01*
X14095625Y-20410490D01*
X14209911Y-20710490D02*
X14224196Y-20696204D01*
X14252768Y-20653347D01*
X14267053Y-20624776D01*
X14281339Y-20581919D01*
X14295625Y-20510490D01*
X14295625Y-20453347D01*
X14281339Y-20381919D01*
X14267053Y-20339062D01*
X14252768Y-20310490D01*
X14224196Y-20267633D01*
X14209911Y-20253347D01*
X6530625Y-20806490D02*
X6530625Y-20906490D01*
X6480625Y-20856490D02*
X6580625Y-20856490D01*
X7024196Y-20992204D02*
X6852768Y-20992204D01*
X6938482Y-20992204D02*
X6938482Y-20692204D01*
X6909911Y-20735062D01*
X6881339Y-20763633D01*
X6852768Y-20777919D01*
X7152768Y-20963633D02*
X7167053Y-20977919D01*
X7152768Y-20992204D01*
X7138482Y-20977919D01*
X7152768Y-20963633D01*
X7152768Y-20992204D01*
X7352768Y-20692204D02*
X7381339Y-20692204D01*
X7409911Y-20706490D01*
X7424196Y-20720776D01*
X7438482Y-20749347D01*
X7452768Y-20806490D01*
X7452768Y-20877919D01*
X7438482Y-20935062D01*
X7424196Y-20963633D01*
X7409911Y-20977919D01*
X7381339Y-20992204D01*
X7352768Y-20992204D01*
X7324196Y-20977919D01*
X7309911Y-20963633D01*
X7295625Y-20935062D01*
X7281339Y-20877919D01*
X7281339Y-20806490D01*
X7295625Y-20749347D01*
X7309911Y-20720776D01*
X7324196Y-20706490D01*
X7352768Y-20692204D01*
X7638482Y-20692204D02*
X7667053Y-20692204D01*
X7695625Y-20706490D01*
X7709911Y-20720776D01*
X7724196Y-20749347D01*
X7738482Y-20806490D01*
X7738482Y-20877919D01*
X7724196Y-20935062D01*
X7709911Y-20963633D01*
X7695625Y-20977919D01*
X7667053Y-20992204D01*
X7638482Y-20992204D01*
X7609911Y-20977919D01*
X7595625Y-20963633D01*
X7581339Y-20935062D01*
X7567053Y-20877919D01*
X7567053Y-20806490D01*
X7581339Y-20749347D01*
X7595625Y-20720776D01*
X7609911Y-20706490D01*
X7638482Y-20692204D01*
X7924196Y-20692204D02*
X7952768Y-20692204D01*
X7981339Y-20706490D01*
X7995625Y-20720776D01*
X8009911Y-20749347D01*
X8024196Y-20806490D01*
X8024196Y-20877919D01*
X8009911Y-20935062D01*
X7995625Y-20963633D01*
X7981339Y-20977919D01*
X7952768Y-20992204D01*
X7924196Y-20992204D01*
X7895625Y-20977919D01*
X7881339Y-20963633D01*
X7867053Y-20935062D01*
X7852768Y-20877919D01*
X7852768Y-20806490D01*
X7867053Y-20749347D01*
X7881339Y-20720776D01*
X7895625Y-20706490D01*
X7924196Y-20692204D01*
X8152768Y-20992204D02*
X8152768Y-20792204D01*
X8152768Y-20820776D02*
X8167053Y-20806490D01*
X8195625Y-20792204D01*
X8238482Y-20792204D01*
X8267053Y-20806490D01*
X8281339Y-20835062D01*
X8281339Y-20992204D01*
X8281339Y-20835062D02*
X8295625Y-20806490D01*
X8324196Y-20792204D01*
X8367053Y-20792204D01*
X8395625Y-20806490D01*
X8409911Y-20835062D01*
X8409911Y-20992204D01*
X8552768Y-20992204D02*
X8552768Y-20792204D01*
X8552768Y-20820776D02*
X8567053Y-20806490D01*
X8595625Y-20792204D01*
X8638482Y-20792204D01*
X8667053Y-20806490D01*
X8681339Y-20835062D01*
X8681339Y-20992204D01*
X8681339Y-20835062D02*
X8695625Y-20806490D01*
X8724196Y-20792204D01*
X8767053Y-20792204D01*
X8795625Y-20806490D01*
X8809911Y-20835062D01*
X8809911Y-20992204D01*
X9395625Y-20677919D02*
X9138482Y-21063633D01*
X9781339Y-20692204D02*
X9809911Y-20692204D01*
X9838482Y-20706490D01*
X9852768Y-20720776D01*
X9867053Y-20749347D01*
X9881339Y-20806490D01*
X9881339Y-20877919D01*
X9867053Y-20935062D01*
X9852768Y-20963633D01*
X9838482Y-20977919D01*
X9809911Y-20992204D01*
X9781339Y-20992204D01*
X9752768Y-20977919D01*
X9738482Y-20963633D01*
X9724196Y-20935062D01*
X9709911Y-20877919D01*
X9709911Y-20806490D01*
X9724196Y-20749347D01*
X9738482Y-20720776D01*
X9752768Y-20706490D01*
X9781339Y-20692204D01*
X10009911Y-20963633D02*
X10024196Y-20977919D01*
X10009911Y-20992204D01*
X9995625Y-20977919D01*
X10009911Y-20963633D01*
X10009911Y-20992204D01*
X10209911Y-20692204D02*
X10238482Y-20692204D01*
X10267053Y-20706490D01*
X10281339Y-20720776D01*
X10295625Y-20749347D01*
X10309911Y-20806490D01*
X10309911Y-20877919D01*
X10295625Y-20935062D01*
X10281339Y-20963633D01*
X10267053Y-20977919D01*
X10238482Y-20992204D01*
X10209911Y-20992204D01*
X10181339Y-20977919D01*
X10167053Y-20963633D01*
X10152768Y-20935062D01*
X10138482Y-20877919D01*
X10138482Y-20806490D01*
X10152768Y-20749347D01*
X10167053Y-20720776D01*
X10181339Y-20706490D01*
X10209911Y-20692204D01*
X10409911Y-20692204D02*
X10595625Y-20692204D01*
X10495625Y-20806490D01*
X10538482Y-20806490D01*
X10567053Y-20820776D01*
X10581339Y-20835062D01*
X10595625Y-20863633D01*
X10595625Y-20935062D01*
X10581339Y-20963633D01*
X10567053Y-20977919D01*
X10538482Y-20992204D01*
X10452768Y-20992204D01*
X10424196Y-20977919D01*
X10409911Y-20963633D01*
X10738482Y-20992204D02*
X10795625Y-20992204D01*
X10824196Y-20977919D01*
X10838482Y-20963633D01*
X10867053Y-20920776D01*
X10881339Y-20863633D01*
X10881339Y-20749347D01*
X10867053Y-20720776D01*
X10852768Y-20706490D01*
X10824196Y-20692204D01*
X10767053Y-20692204D01*
X10738482Y-20706490D01*
X10724196Y-20720776D01*
X10709911Y-20749347D01*
X10709911Y-20820776D01*
X10724196Y-20849347D01*
X10738482Y-20863633D01*
X10767053Y-20877919D01*
X10824196Y-20877919D01*
X10852768Y-20863633D01*
X10867053Y-20849347D01*
X10881339Y-20820776D01*
X11138482Y-20792204D02*
X11138482Y-20992204D01*
X11067053Y-20677919D02*
X10995625Y-20892204D01*
X11181339Y-20892204D01*
X11281339Y-20692204D02*
X11281339Y-20749347D01*
X11395625Y-20692204D02*
X11395625Y-20749347D01*
X11838482Y-21106490D02*
X11824196Y-21092204D01*
X11795625Y-21049347D01*
X11781339Y-21020776D01*
X11767053Y-20977919D01*
X11752768Y-20906490D01*
X11752768Y-20849347D01*
X11767053Y-20777919D01*
X11781339Y-20735062D01*
X11795625Y-20706490D01*
X11824196Y-20663633D01*
X11838482Y-20649347D01*
X12081339Y-20792204D02*
X12081339Y-20992204D01*
X12009911Y-20677919D02*
X11938482Y-20892204D01*
X12124196Y-20892204D01*
X12467053Y-20992204D02*
X12467053Y-20692204D01*
X12595625Y-20992204D02*
X12595625Y-20835062D01*
X12581339Y-20806490D01*
X12552768Y-20792204D01*
X12509911Y-20792204D01*
X12481339Y-20806490D01*
X12467053Y-20820776D01*
X12781339Y-20992204D02*
X12752768Y-20977919D01*
X12738482Y-20963633D01*
X12724196Y-20935062D01*
X12724196Y-20849347D01*
X12738482Y-20820776D01*
X12752768Y-20806490D01*
X12781339Y-20792204D01*
X12824196Y-20792204D01*
X12852768Y-20806490D01*
X12867053Y-20820776D01*
X12881339Y-20849347D01*
X12881339Y-20935062D01*
X12867053Y-20963633D01*
X12852768Y-20977919D01*
X12824196Y-20992204D01*
X12781339Y-20992204D01*
X13052768Y-20992204D02*
X13024196Y-20977919D01*
X13009911Y-20949347D01*
X13009911Y-20692204D01*
X13281339Y-20977919D02*
X13252768Y-20992204D01*
X13195625Y-20992204D01*
X13167053Y-20977919D01*
X13152768Y-20949347D01*
X13152768Y-20835062D01*
X13167053Y-20806490D01*
X13195625Y-20792204D01*
X13252768Y-20792204D01*
X13281339Y-20806490D01*
X13295625Y-20835062D01*
X13295625Y-20863633D01*
X13152768Y-20892204D01*
X13409911Y-20977919D02*
X13438482Y-20992204D01*
X13495625Y-20992204D01*
X13524196Y-20977919D01*
X13538482Y-20949347D01*
X13538482Y-20935062D01*
X13524196Y-20906490D01*
X13495625Y-20892204D01*
X13452768Y-20892204D01*
X13424196Y-20877919D01*
X13409911Y-20849347D01*
X13409911Y-20835062D01*
X13424196Y-20806490D01*
X13452768Y-20792204D01*
X13495625Y-20792204D01*
X13524196Y-20806490D01*
X13638482Y-21106490D02*
X13652768Y-21092204D01*
X13681339Y-21049347D01*
X13695625Y-21020776D01*
X13709911Y-20977919D01*
X13724196Y-20906490D01*
X13724196Y-20849347D01*
X13709911Y-20777919D01*
X13695625Y-20735062D01*
X13681339Y-20706490D01*
X13652768Y-20663633D01*
X13638482Y-20649347D01*
X6564516Y-21291381D02*
X6564516Y-21213599D01*
X6486734Y-21213599D01*
X6486734Y-21291381D01*
X6564516Y-21291381D01*
X7024196Y-21388204D02*
X6852768Y-21388204D01*
X6938482Y-21388204D02*
X6938482Y-21088204D01*
X6909911Y-21131062D01*
X6881339Y-21159633D01*
X6852768Y-21173919D01*
X7152768Y-21359633D02*
X7167053Y-21373919D01*
X7152768Y-21388204D01*
X7138482Y-21373919D01*
X7152768Y-21359633D01*
X7152768Y-21388204D01*
X7452768Y-21388204D02*
X7281339Y-21388204D01*
X7367053Y-21388204D02*
X7367053Y-21088204D01*
X7338482Y-21131062D01*
X7309911Y-21159633D01*
X7281339Y-21173919D01*
X7638482Y-21088204D02*
X7667053Y-21088204D01*
X7695625Y-21102490D01*
X7709911Y-21116776D01*
X7724196Y-21145347D01*
X7738482Y-21202490D01*
X7738482Y-21273919D01*
X7724196Y-21331062D01*
X7709911Y-21359633D01*
X7695625Y-21373919D01*
X7667053Y-21388204D01*
X7638482Y-21388204D01*
X7609911Y-21373919D01*
X7595625Y-21359633D01*
X7581339Y-21331062D01*
X7567053Y-21273919D01*
X7567053Y-21202490D01*
X7581339Y-21145347D01*
X7595625Y-21116776D01*
X7609911Y-21102490D01*
X7638482Y-21088204D01*
X7924196Y-21088204D02*
X7952768Y-21088204D01*
X7981339Y-21102490D01*
X7995625Y-21116776D01*
X8009911Y-21145347D01*
X8024196Y-21202490D01*
X8024196Y-21273919D01*
X8009911Y-21331062D01*
X7995625Y-21359633D01*
X7981339Y-21373919D01*
X7952768Y-21388204D01*
X7924196Y-21388204D01*
X7895625Y-21373919D01*
X7881339Y-21359633D01*
X7867053Y-21331062D01*
X7852768Y-21273919D01*
X7852768Y-21202490D01*
X7867053Y-21145347D01*
X7881339Y-21116776D01*
X7895625Y-21102490D01*
X7924196Y-21088204D01*
X8152768Y-21388204D02*
X8152768Y-21188204D01*
X8152768Y-21216776D02*
X8167053Y-21202490D01*
X8195625Y-21188204D01*
X8238482Y-21188204D01*
X8267053Y-21202490D01*
X8281339Y-21231062D01*
X8281339Y-21388204D01*
X8281339Y-21231062D02*
X8295625Y-21202490D01*
X8324196Y-21188204D01*
X8367053Y-21188204D01*
X8395625Y-21202490D01*
X8409911Y-21231062D01*
X8409911Y-21388204D01*
X8552768Y-21388204D02*
X8552768Y-21188204D01*
X8552768Y-21216776D02*
X8567053Y-21202490D01*
X8595625Y-21188204D01*
X8638482Y-21188204D01*
X8667053Y-21202490D01*
X8681339Y-21231062D01*
X8681339Y-21388204D01*
X8681339Y-21231062D02*
X8695625Y-21202490D01*
X8724196Y-21188204D01*
X8767053Y-21188204D01*
X8795625Y-21202490D01*
X8809911Y-21231062D01*
X8809911Y-21388204D01*
X9395625Y-21073919D02*
X9138482Y-21459633D01*
X9781339Y-21088204D02*
X9809911Y-21088204D01*
X9838482Y-21102490D01*
X9852768Y-21116776D01*
X9867053Y-21145347D01*
X9881339Y-21202490D01*
X9881339Y-21273919D01*
X9867053Y-21331062D01*
X9852768Y-21359633D01*
X9838482Y-21373919D01*
X9809911Y-21388204D01*
X9781339Y-21388204D01*
X9752768Y-21373919D01*
X9738482Y-21359633D01*
X9724196Y-21331062D01*
X9709911Y-21273919D01*
X9709911Y-21202490D01*
X9724196Y-21145347D01*
X9738482Y-21116776D01*
X9752768Y-21102490D01*
X9781339Y-21088204D01*
X10009911Y-21359633D02*
X10024196Y-21373919D01*
X10009911Y-21388204D01*
X9995625Y-21373919D01*
X10009911Y-21359633D01*
X10009911Y-21388204D01*
X10209911Y-21088204D02*
X10238482Y-21088204D01*
X10267053Y-21102490D01*
X10281339Y-21116776D01*
X10295625Y-21145347D01*
X10309911Y-21202490D01*
X10309911Y-21273919D01*
X10295625Y-21331062D01*
X10281339Y-21359633D01*
X10267053Y-21373919D01*
X10238482Y-21388204D01*
X10209911Y-21388204D01*
X10181339Y-21373919D01*
X10167053Y-21359633D01*
X10152768Y-21331062D01*
X10138482Y-21273919D01*
X10138482Y-21202490D01*
X10152768Y-21145347D01*
X10167053Y-21116776D01*
X10181339Y-21102490D01*
X10209911Y-21088204D01*
X10567053Y-21188204D02*
X10567053Y-21388204D01*
X10495625Y-21073919D02*
X10424196Y-21288204D01*
X10609911Y-21288204D01*
X10695625Y-21088204D02*
X10881339Y-21088204D01*
X10781339Y-21202490D01*
X10824196Y-21202490D01*
X10852768Y-21216776D01*
X10867053Y-21231062D01*
X10881339Y-21259633D01*
X10881339Y-21331062D01*
X10867053Y-21359633D01*
X10852768Y-21373919D01*
X10824196Y-21388204D01*
X10738482Y-21388204D01*
X10709911Y-21373919D01*
X10695625Y-21359633D01*
X10981339Y-21088204D02*
X11167053Y-21088204D01*
X11067053Y-21202490D01*
X11109911Y-21202490D01*
X11138482Y-21216776D01*
X11152768Y-21231062D01*
X11167053Y-21259633D01*
X11167053Y-21331062D01*
X11152768Y-21359633D01*
X11138482Y-21373919D01*
X11109911Y-21388204D01*
X11024196Y-21388204D01*
X10995625Y-21373919D01*
X10981339Y-21359633D01*
X11281339Y-21088204D02*
X11281339Y-21145347D01*
X11395625Y-21088204D02*
X11395625Y-21145347D01*
X11838482Y-21502490D02*
X11824196Y-21488204D01*
X11795625Y-21445347D01*
X11781339Y-21416776D01*
X11767053Y-21373919D01*
X11752768Y-21302490D01*
X11752768Y-21245347D01*
X11767053Y-21173919D01*
X11781339Y-21131062D01*
X11795625Y-21102490D01*
X11824196Y-21059633D01*
X11838482Y-21045347D01*
X11938482Y-21116776D02*
X11952768Y-21102490D01*
X11981339Y-21088204D01*
X12052768Y-21088204D01*
X12081339Y-21102490D01*
X12095625Y-21116776D01*
X12109911Y-21145347D01*
X12109911Y-21173919D01*
X12095625Y-21216776D01*
X11924196Y-21388204D01*
X12109911Y-21388204D01*
X12367053Y-21188204D02*
X12367053Y-21388204D01*
X12295625Y-21073919D02*
X12224196Y-21288204D01*
X12409911Y-21288204D01*
X12752768Y-21388204D02*
X12752768Y-21088204D01*
X12881339Y-21388204D02*
X12881339Y-21231062D01*
X12867053Y-21202490D01*
X12838482Y-21188204D01*
X12795625Y-21188204D01*
X12767053Y-21202490D01*
X12752768Y-21216776D01*
X13067053Y-21388204D02*
X13038482Y-21373919D01*
X13024196Y-21359633D01*
X13009911Y-21331062D01*
X13009911Y-21245347D01*
X13024196Y-21216776D01*
X13038482Y-21202490D01*
X13067053Y-21188204D01*
X13109911Y-21188204D01*
X13138482Y-21202490D01*
X13152768Y-21216776D01*
X13167053Y-21245347D01*
X13167053Y-21331062D01*
X13152768Y-21359633D01*
X13138482Y-21373919D01*
X13109911Y-21388204D01*
X13067053Y-21388204D01*
X13338482Y-21388204D02*
X13309911Y-21373919D01*
X13295625Y-21345347D01*
X13295625Y-21088204D01*
X13567053Y-21373919D02*
X13538482Y-21388204D01*
X13481339Y-21388204D01*
X13452768Y-21373919D01*
X13438482Y-21345347D01*
X13438482Y-21231062D01*
X13452768Y-21202490D01*
X13481339Y-21188204D01*
X13538482Y-21188204D01*
X13567053Y-21202490D01*
X13581339Y-21231062D01*
X13581339Y-21259633D01*
X13438482Y-21288204D01*
X13695625Y-21373919D02*
X13724196Y-21388204D01*
X13781339Y-21388204D01*
X13809911Y-21373919D01*
X13824196Y-21345347D01*
X13824196Y-21331062D01*
X13809911Y-21302490D01*
X13781339Y-21288204D01*
X13738482Y-21288204D01*
X13709911Y-21273919D01*
X13695625Y-21245347D01*
X13695625Y-21231062D01*
X13709911Y-21202490D01*
X13738482Y-21188204D01*
X13781339Y-21188204D01*
X13809911Y-21202490D01*
X13924196Y-21502490D02*
X13938482Y-21488204D01*
X13967053Y-21445347D01*
X13981339Y-21416776D01*
X13995625Y-21373919D01*
X14009911Y-21302490D01*
X14009911Y-21245347D01*
X13995625Y-21173919D01*
X13981339Y-21131062D01*
X13967053Y-21102490D01*
X13938482Y-21059633D01*
X13924196Y-21045347D01*
X6507125Y-21721990D02*
X6580625Y-21648490D01*
X6507125Y-21574990D01*
X6433625Y-21648490D01*
X6507125Y-21721990D01*
X7024196Y-21784204D02*
X6852768Y-21784204D01*
X6938482Y-21784204D02*
X6938482Y-21484204D01*
X6909911Y-21527062D01*
X6881339Y-21555633D01*
X6852768Y-21569919D01*
X7152768Y-21755633D02*
X7167053Y-21769919D01*
X7152768Y-21784204D01*
X7138482Y-21769919D01*
X7152768Y-21755633D01*
X7152768Y-21784204D01*
X7424196Y-21584204D02*
X7424196Y-21784204D01*
X7352768Y-21469919D02*
X7281339Y-21684204D01*
X7467053Y-21684204D01*
X7552768Y-21484204D02*
X7752768Y-21484204D01*
X7624196Y-21784204D01*
X7924196Y-21484204D02*
X7952768Y-21484204D01*
X7981339Y-21498490D01*
X7995625Y-21512776D01*
X8009911Y-21541347D01*
X8024196Y-21598490D01*
X8024196Y-21669919D01*
X8009911Y-21727062D01*
X7995625Y-21755633D01*
X7981339Y-21769919D01*
X7952768Y-21784204D01*
X7924196Y-21784204D01*
X7895625Y-21769919D01*
X7881339Y-21755633D01*
X7867053Y-21727062D01*
X7852768Y-21669919D01*
X7852768Y-21598490D01*
X7867053Y-21541347D01*
X7881339Y-21512776D01*
X7895625Y-21498490D01*
X7924196Y-21484204D01*
X8152768Y-21784204D02*
X8152768Y-21584204D01*
X8152768Y-21612776D02*
X8167053Y-21598490D01*
X8195625Y-21584204D01*
X8238482Y-21584204D01*
X8267053Y-21598490D01*
X8281339Y-21627062D01*
X8281339Y-21784204D01*
X8281339Y-21627062D02*
X8295625Y-21598490D01*
X8324196Y-21584204D01*
X8367053Y-21584204D01*
X8395625Y-21598490D01*
X8409911Y-21627062D01*
X8409911Y-21784204D01*
X8552768Y-21784204D02*
X8552768Y-21584204D01*
X8552768Y-21612776D02*
X8567053Y-21598490D01*
X8595625Y-21584204D01*
X8638482Y-21584204D01*
X8667053Y-21598490D01*
X8681339Y-21627062D01*
X8681339Y-21784204D01*
X8681339Y-21627062D02*
X8695625Y-21598490D01*
X8724196Y-21584204D01*
X8767053Y-21584204D01*
X8795625Y-21598490D01*
X8809911Y-21627062D01*
X8809911Y-21784204D01*
X9395625Y-21469919D02*
X9138482Y-21855633D01*
X9781339Y-21484204D02*
X9809911Y-21484204D01*
X9838482Y-21498490D01*
X9852768Y-21512776D01*
X9867053Y-21541347D01*
X9881339Y-21598490D01*
X9881339Y-21669919D01*
X9867053Y-21727062D01*
X9852768Y-21755633D01*
X9838482Y-21769919D01*
X9809911Y-21784204D01*
X9781339Y-21784204D01*
X9752768Y-21769919D01*
X9738482Y-21755633D01*
X9724196Y-21727062D01*
X9709911Y-21669919D01*
X9709911Y-21598490D01*
X9724196Y-21541347D01*
X9738482Y-21512776D01*
X9752768Y-21498490D01*
X9781339Y-21484204D01*
X10009911Y-21755633D02*
X10024196Y-21769919D01*
X10009911Y-21784204D01*
X9995625Y-21769919D01*
X10009911Y-21755633D01*
X10009911Y-21784204D01*
X10209911Y-21484204D02*
X10238482Y-21484204D01*
X10267053Y-21498490D01*
X10281339Y-21512776D01*
X10295625Y-21541347D01*
X10309911Y-21598490D01*
X10309911Y-21669919D01*
X10295625Y-21727062D01*
X10281339Y-21755633D01*
X10267053Y-21769919D01*
X10238482Y-21784204D01*
X10209911Y-21784204D01*
X10181339Y-21769919D01*
X10167053Y-21755633D01*
X10152768Y-21727062D01*
X10138482Y-21669919D01*
X10138482Y-21598490D01*
X10152768Y-21541347D01*
X10167053Y-21512776D01*
X10181339Y-21498490D01*
X10209911Y-21484204D01*
X10581339Y-21484204D02*
X10438482Y-21484204D01*
X10424196Y-21627062D01*
X10438482Y-21612776D01*
X10467053Y-21598490D01*
X10538482Y-21598490D01*
X10567053Y-21612776D01*
X10581339Y-21627062D01*
X10595625Y-21655633D01*
X10595625Y-21727062D01*
X10581339Y-21755633D01*
X10567053Y-21769919D01*
X10538482Y-21784204D01*
X10467053Y-21784204D01*
X10438482Y-21769919D01*
X10424196Y-21755633D01*
X10695625Y-21484204D02*
X10895625Y-21484204D01*
X10767053Y-21784204D01*
X11024196Y-21784204D02*
X11081339Y-21784204D01*
X11109911Y-21769919D01*
X11124196Y-21755633D01*
X11152768Y-21712776D01*
X11167053Y-21655633D01*
X11167053Y-21541347D01*
X11152768Y-21512776D01*
X11138482Y-21498490D01*
X11109911Y-21484204D01*
X11052768Y-21484204D01*
X11024196Y-21498490D01*
X11009911Y-21512776D01*
X10995625Y-21541347D01*
X10995625Y-21612776D01*
X11009911Y-21641347D01*
X11024196Y-21655633D01*
X11052768Y-21669919D01*
X11109911Y-21669919D01*
X11138482Y-21655633D01*
X11152768Y-21641347D01*
X11167053Y-21612776D01*
X11281339Y-21484204D02*
X11281339Y-21541347D01*
X11395625Y-21484204D02*
X11395625Y-21541347D01*
X11838482Y-21898490D02*
X11824196Y-21884204D01*
X11795625Y-21841347D01*
X11781339Y-21812776D01*
X11767053Y-21769919D01*
X11752768Y-21698490D01*
X11752768Y-21641347D01*
X11767053Y-21569919D01*
X11781339Y-21527062D01*
X11795625Y-21498490D01*
X11824196Y-21455633D01*
X11838482Y-21441347D01*
X12109911Y-21784204D02*
X11938482Y-21784204D01*
X12024196Y-21784204D02*
X12024196Y-21484204D01*
X11995625Y-21527062D01*
X11967053Y-21555633D01*
X11938482Y-21569919D01*
X12209911Y-21484204D02*
X12395625Y-21484204D01*
X12295625Y-21598490D01*
X12338482Y-21598490D01*
X12367053Y-21612776D01*
X12381339Y-21627062D01*
X12395625Y-21655633D01*
X12395625Y-21727062D01*
X12381339Y-21755633D01*
X12367053Y-21769919D01*
X12338482Y-21784204D01*
X12252768Y-21784204D01*
X12224196Y-21769919D01*
X12209911Y-21755633D01*
X12652768Y-21584204D02*
X12652768Y-21784204D01*
X12581339Y-21469919D02*
X12509911Y-21684204D01*
X12695625Y-21684204D01*
X13038482Y-21784204D02*
X13038482Y-21484204D01*
X13167053Y-21784204D02*
X13167053Y-21627062D01*
X13152768Y-21598490D01*
X13124196Y-21584204D01*
X13081339Y-21584204D01*
X13052768Y-21598490D01*
X13038482Y-21612776D01*
X13352768Y-21784204D02*
X13324196Y-21769919D01*
X13309911Y-21755633D01*
X13295625Y-21727062D01*
X13295625Y-21641347D01*
X13309911Y-21612776D01*
X13324196Y-21598490D01*
X13352768Y-21584204D01*
X13395625Y-21584204D01*
X13424196Y-21598490D01*
X13438482Y-21612776D01*
X13452768Y-21641347D01*
X13452768Y-21727062D01*
X13438482Y-21755633D01*
X13424196Y-21769919D01*
X13395625Y-21784204D01*
X13352768Y-21784204D01*
X13624196Y-21784204D02*
X13595625Y-21769919D01*
X13581339Y-21741347D01*
X13581339Y-21484204D01*
X13852768Y-21769919D02*
X13824196Y-21784204D01*
X13767053Y-21784204D01*
X13738482Y-21769919D01*
X13724196Y-21741347D01*
X13724196Y-21627062D01*
X13738482Y-21598490D01*
X13767053Y-21584204D01*
X13824196Y-21584204D01*
X13852768Y-21598490D01*
X13867053Y-21627062D01*
X13867053Y-21655633D01*
X13724196Y-21684204D01*
X13981339Y-21769919D02*
X14009911Y-21784204D01*
X14067053Y-21784204D01*
X14095625Y-21769919D01*
X14109911Y-21741347D01*
X14109911Y-21727062D01*
X14095625Y-21698490D01*
X14067053Y-21684204D01*
X14024196Y-21684204D01*
X13995625Y-21669919D01*
X13981339Y-21641347D01*
X13981339Y-21627062D01*
X13995625Y-21598490D01*
X14024196Y-21584204D01*
X14067053Y-21584204D01*
X14095625Y-21598490D01*
X14209911Y-21898490D02*
X14224196Y-21884204D01*
X14252768Y-21841347D01*
X14267053Y-21812776D01*
X14281339Y-21769919D01*
X14295625Y-21698490D01*
X14295625Y-21641347D01*
X14281339Y-21569919D01*
X14267053Y-21527062D01*
X14252768Y-21498490D01*
X14224196Y-21455633D01*
X14209911Y-21441347D01*
X6405625Y-21956990D02*
X6580625Y-22131990D01*
X6580625Y-21956990D02*
X6405625Y-22131990D01*
X6580625Y-22044490D02*
G75*
G03*
X6580625Y-22044490I-87500J0D01*
G01*
X7024196Y-22180204D02*
X6852768Y-22180204D01*
X6938482Y-22180204D02*
X6938482Y-21880204D01*
X6909911Y-21923062D01*
X6881339Y-21951633D01*
X6852768Y-21965919D01*
X7152768Y-22151633D02*
X7167053Y-22165919D01*
X7152768Y-22180204D01*
X7138482Y-22165919D01*
X7152768Y-22151633D01*
X7152768Y-22180204D01*
X7267053Y-21880204D02*
X7467053Y-21880204D01*
X7338482Y-22180204D01*
X7724196Y-21880204D02*
X7581339Y-21880204D01*
X7567053Y-22023062D01*
X7581339Y-22008776D01*
X7609911Y-21994490D01*
X7681339Y-21994490D01*
X7709911Y-22008776D01*
X7724196Y-22023062D01*
X7738482Y-22051633D01*
X7738482Y-22123062D01*
X7724196Y-22151633D01*
X7709911Y-22165919D01*
X7681339Y-22180204D01*
X7609911Y-22180204D01*
X7581339Y-22165919D01*
X7567053Y-22151633D01*
X7924196Y-21880204D02*
X7952768Y-21880204D01*
X7981339Y-21894490D01*
X7995625Y-21908776D01*
X8009911Y-21937347D01*
X8024196Y-21994490D01*
X8024196Y-22065919D01*
X8009911Y-22123062D01*
X7995625Y-22151633D01*
X7981339Y-22165919D01*
X7952768Y-22180204D01*
X7924196Y-22180204D01*
X7895625Y-22165919D01*
X7881339Y-22151633D01*
X7867053Y-22123062D01*
X7852768Y-22065919D01*
X7852768Y-21994490D01*
X7867053Y-21937347D01*
X7881339Y-21908776D01*
X7895625Y-21894490D01*
X7924196Y-21880204D01*
X8152768Y-22180204D02*
X8152768Y-21980204D01*
X8152768Y-22008776D02*
X8167053Y-21994490D01*
X8195625Y-21980204D01*
X8238482Y-21980204D01*
X8267053Y-21994490D01*
X8281339Y-22023062D01*
X8281339Y-22180204D01*
X8281339Y-22023062D02*
X8295625Y-21994490D01*
X8324196Y-21980204D01*
X8367053Y-21980204D01*
X8395625Y-21994490D01*
X8409911Y-22023062D01*
X8409911Y-22180204D01*
X8552768Y-22180204D02*
X8552768Y-21980204D01*
X8552768Y-22008776D02*
X8567053Y-21994490D01*
X8595625Y-21980204D01*
X8638482Y-21980204D01*
X8667053Y-21994490D01*
X8681339Y-22023062D01*
X8681339Y-22180204D01*
X8681339Y-22023062D02*
X8695625Y-21994490D01*
X8724196Y-21980204D01*
X8767053Y-21980204D01*
X8795625Y-21994490D01*
X8809911Y-22023062D01*
X8809911Y-22180204D01*
X9395625Y-21865919D02*
X9138482Y-22251633D01*
X9781339Y-21880204D02*
X9809911Y-21880204D01*
X9838482Y-21894490D01*
X9852768Y-21908776D01*
X9867053Y-21937347D01*
X9881339Y-21994490D01*
X9881339Y-22065919D01*
X9867053Y-22123062D01*
X9852768Y-22151633D01*
X9838482Y-22165919D01*
X9809911Y-22180204D01*
X9781339Y-22180204D01*
X9752768Y-22165919D01*
X9738482Y-22151633D01*
X9724196Y-22123062D01*
X9709911Y-22065919D01*
X9709911Y-21994490D01*
X9724196Y-21937347D01*
X9738482Y-21908776D01*
X9752768Y-21894490D01*
X9781339Y-21880204D01*
X10009911Y-22151633D02*
X10024196Y-22165919D01*
X10009911Y-22180204D01*
X9995625Y-22165919D01*
X10009911Y-22151633D01*
X10009911Y-22180204D01*
X10209911Y-21880204D02*
X10238482Y-21880204D01*
X10267053Y-21894490D01*
X10281339Y-21908776D01*
X10295625Y-21937347D01*
X10309911Y-21994490D01*
X10309911Y-22065919D01*
X10295625Y-22123062D01*
X10281339Y-22151633D01*
X10267053Y-22165919D01*
X10238482Y-22180204D01*
X10209911Y-22180204D01*
X10181339Y-22165919D01*
X10167053Y-22151633D01*
X10152768Y-22123062D01*
X10138482Y-22065919D01*
X10138482Y-21994490D01*
X10152768Y-21937347D01*
X10167053Y-21908776D01*
X10181339Y-21894490D01*
X10209911Y-21880204D01*
X10567053Y-21880204D02*
X10509911Y-21880204D01*
X10481339Y-21894490D01*
X10467053Y-21908776D01*
X10438482Y-21951633D01*
X10424196Y-22008776D01*
X10424196Y-22123062D01*
X10438482Y-22151633D01*
X10452768Y-22165919D01*
X10481339Y-22180204D01*
X10538482Y-22180204D01*
X10567053Y-22165919D01*
X10581339Y-22151633D01*
X10595625Y-22123062D01*
X10595625Y-22051633D01*
X10581339Y-22023062D01*
X10567053Y-22008776D01*
X10538482Y-21994490D01*
X10481339Y-21994490D01*
X10452768Y-22008776D01*
X10438482Y-22023062D01*
X10424196Y-22051633D01*
X10767053Y-22008776D02*
X10738482Y-21994490D01*
X10724196Y-21980204D01*
X10709911Y-21951633D01*
X10709911Y-21937347D01*
X10724196Y-21908776D01*
X10738482Y-21894490D01*
X10767053Y-21880204D01*
X10824196Y-21880204D01*
X10852768Y-21894490D01*
X10867053Y-21908776D01*
X10881339Y-21937347D01*
X10881339Y-21951633D01*
X10867053Y-21980204D01*
X10852768Y-21994490D01*
X10824196Y-22008776D01*
X10767053Y-22008776D01*
X10738482Y-22023062D01*
X10724196Y-22037347D01*
X10709911Y-22065919D01*
X10709911Y-22123062D01*
X10724196Y-22151633D01*
X10738482Y-22165919D01*
X10767053Y-22180204D01*
X10824196Y-22180204D01*
X10852768Y-22165919D01*
X10867053Y-22151633D01*
X10881339Y-22123062D01*
X10881339Y-22065919D01*
X10867053Y-22037347D01*
X10852768Y-22023062D01*
X10824196Y-22008776D01*
X11024196Y-22180204D02*
X11081339Y-22180204D01*
X11109911Y-22165919D01*
X11124196Y-22151633D01*
X11152768Y-22108776D01*
X11167053Y-22051633D01*
X11167053Y-21937347D01*
X11152768Y-21908776D01*
X11138482Y-21894490D01*
X11109911Y-21880204D01*
X11052768Y-21880204D01*
X11024196Y-21894490D01*
X11009911Y-21908776D01*
X10995625Y-21937347D01*
X10995625Y-22008776D01*
X11009911Y-22037347D01*
X11024196Y-22051633D01*
X11052768Y-22065919D01*
X11109911Y-22065919D01*
X11138482Y-22051633D01*
X11152768Y-22037347D01*
X11167053Y-22008776D01*
X11281339Y-21880204D02*
X11281339Y-21937347D01*
X11395625Y-21880204D02*
X11395625Y-21937347D01*
X11838482Y-22294490D02*
X11824196Y-22280204D01*
X11795625Y-22237347D01*
X11781339Y-22208776D01*
X11767053Y-22165919D01*
X11752768Y-22094490D01*
X11752768Y-22037347D01*
X11767053Y-21965919D01*
X11781339Y-21923062D01*
X11795625Y-21894490D01*
X11824196Y-21851633D01*
X11838482Y-21837347D01*
X12109911Y-22180204D02*
X11938482Y-22180204D01*
X12024196Y-22180204D02*
X12024196Y-21880204D01*
X11995625Y-21923062D01*
X11967053Y-21951633D01*
X11938482Y-21965919D01*
X12209911Y-21880204D02*
X12395625Y-21880204D01*
X12295625Y-21994490D01*
X12338482Y-21994490D01*
X12367053Y-22008776D01*
X12381339Y-22023062D01*
X12395625Y-22051633D01*
X12395625Y-22123062D01*
X12381339Y-22151633D01*
X12367053Y-22165919D01*
X12338482Y-22180204D01*
X12252768Y-22180204D01*
X12224196Y-22165919D01*
X12209911Y-22151633D01*
X12652768Y-21980204D02*
X12652768Y-22180204D01*
X12581339Y-21865919D02*
X12509911Y-22080204D01*
X12695625Y-22080204D01*
X13038482Y-22180204D02*
X13038482Y-21880204D01*
X13167053Y-22180204D02*
X13167053Y-22023062D01*
X13152768Y-21994490D01*
X13124196Y-21980204D01*
X13081339Y-21980204D01*
X13052768Y-21994490D01*
X13038482Y-22008776D01*
X13352768Y-22180204D02*
X13324196Y-22165919D01*
X13309911Y-22151633D01*
X13295625Y-22123062D01*
X13295625Y-22037347D01*
X13309911Y-22008776D01*
X13324196Y-21994490D01*
X13352768Y-21980204D01*
X13395625Y-21980204D01*
X13424196Y-21994490D01*
X13438482Y-22008776D01*
X13452768Y-22037347D01*
X13452768Y-22123062D01*
X13438482Y-22151633D01*
X13424196Y-22165919D01*
X13395625Y-22180204D01*
X13352768Y-22180204D01*
X13624196Y-22180204D02*
X13595625Y-22165919D01*
X13581339Y-22137347D01*
X13581339Y-21880204D01*
X13852768Y-22165919D02*
X13824196Y-22180204D01*
X13767053Y-22180204D01*
X13738482Y-22165919D01*
X13724196Y-22137347D01*
X13724196Y-22023062D01*
X13738482Y-21994490D01*
X13767053Y-21980204D01*
X13824196Y-21980204D01*
X13852768Y-21994490D01*
X13867053Y-22023062D01*
X13867053Y-22051633D01*
X13724196Y-22080204D01*
X13981339Y-22165919D02*
X14009911Y-22180204D01*
X14067053Y-22180204D01*
X14095625Y-22165919D01*
X14109911Y-22137347D01*
X14109911Y-22123062D01*
X14095625Y-22094490D01*
X14067053Y-22080204D01*
X14024196Y-22080204D01*
X13995625Y-22065919D01*
X13981339Y-22037347D01*
X13981339Y-22023062D01*
X13995625Y-21994490D01*
X14024196Y-21980204D01*
X14067053Y-21980204D01*
X14095625Y-21994490D01*
X14209911Y-22294490D02*
X14224196Y-22280204D01*
X14252768Y-22237347D01*
X14267053Y-22208776D01*
X14281339Y-22165919D01*
X14295625Y-22094490D01*
X14295625Y-22037347D01*
X14281339Y-21965919D01*
X14267053Y-21923062D01*
X14252768Y-21894490D01*
X14224196Y-21851633D01*
X14209911Y-21837347D01*
X14752768Y-22294490D02*
X14738482Y-22280204D01*
X14709911Y-22237347D01*
X14695625Y-22208776D01*
X14681339Y-22165919D01*
X14667053Y-22094490D01*
X14667053Y-22037347D01*
X14681339Y-21965919D01*
X14695625Y-21923062D01*
X14709911Y-21894490D01*
X14738482Y-21851633D01*
X14752768Y-21837347D01*
X14867053Y-21980204D02*
X14867053Y-22180204D01*
X14867053Y-22008776D02*
X14881339Y-21994490D01*
X14909911Y-21980204D01*
X14952768Y-21980204D01*
X14981339Y-21994490D01*
X14995625Y-22023062D01*
X14995625Y-22180204D01*
X15181339Y-22180204D02*
X15152768Y-22165919D01*
X15138482Y-22151633D01*
X15124196Y-22123062D01*
X15124196Y-22037347D01*
X15138482Y-22008776D01*
X15152768Y-21994490D01*
X15181339Y-21980204D01*
X15224196Y-21980204D01*
X15252768Y-21994490D01*
X15267053Y-22008776D01*
X15281339Y-22037347D01*
X15281339Y-22123062D01*
X15267053Y-22151633D01*
X15252768Y-22165919D01*
X15224196Y-22180204D01*
X15181339Y-22180204D01*
X15367053Y-21980204D02*
X15481339Y-21980204D01*
X15409911Y-21880204D02*
X15409911Y-22137347D01*
X15424196Y-22165919D01*
X15452768Y-22180204D01*
X15481339Y-22180204D01*
X15809911Y-21980204D02*
X15809911Y-22280204D01*
X15809911Y-21994490D02*
X15838482Y-21980204D01*
X15895625Y-21980204D01*
X15924196Y-21994490D01*
X15938482Y-22008776D01*
X15952768Y-22037347D01*
X15952768Y-22123062D01*
X15938482Y-22151633D01*
X15924196Y-22165919D01*
X15895625Y-22180204D01*
X15838482Y-22180204D01*
X15809911Y-22165919D01*
X16124196Y-22180204D02*
X16095625Y-22165919D01*
X16081339Y-22137347D01*
X16081339Y-21880204D01*
X16367053Y-22180204D02*
X16367053Y-22023062D01*
X16352768Y-21994490D01*
X16324196Y-21980204D01*
X16267053Y-21980204D01*
X16238482Y-21994490D01*
X16367053Y-22165919D02*
X16338482Y-22180204D01*
X16267053Y-22180204D01*
X16238482Y-22165919D01*
X16224196Y-22137347D01*
X16224196Y-22108776D01*
X16238482Y-22080204D01*
X16267053Y-22065919D01*
X16338482Y-22065919D01*
X16367053Y-22051633D01*
X16467053Y-21980204D02*
X16581339Y-21980204D01*
X16509911Y-21880204D02*
X16509911Y-22137347D01*
X16524196Y-22165919D01*
X16552768Y-22180204D01*
X16581339Y-22180204D01*
X16795625Y-22165919D02*
X16767053Y-22180204D01*
X16709911Y-22180204D01*
X16681339Y-22165919D01*
X16667053Y-22137347D01*
X16667053Y-22023062D01*
X16681339Y-21994490D01*
X16709911Y-21980204D01*
X16767053Y-21980204D01*
X16795625Y-21994490D01*
X16809911Y-22023062D01*
X16809911Y-22051633D01*
X16667053Y-22080204D01*
X17067053Y-22180204D02*
X17067053Y-21880204D01*
X17067053Y-22165919D02*
X17038482Y-22180204D01*
X16981339Y-22180204D01*
X16952768Y-22165919D01*
X16938482Y-22151633D01*
X16924196Y-22123062D01*
X16924196Y-22037347D01*
X16938482Y-22008776D01*
X16952768Y-21994490D01*
X16981339Y-21980204D01*
X17038482Y-21980204D01*
X17067053Y-21994490D01*
X17181339Y-22294490D02*
X17195625Y-22280204D01*
X17224196Y-22237347D01*
X17238482Y-22208776D01*
X17252768Y-22165919D01*
X17267053Y-22094490D01*
X17267053Y-22037347D01*
X17252768Y-21965919D01*
X17238482Y-21923062D01*
X17224196Y-21894490D01*
X17195625Y-21851633D01*
X17181339Y-21837347D01*
X6275825Y-22288090D02*
X6580625Y-22592890D01*
X6580625Y-22288090D02*
X6275825Y-22592890D01*
X6428225Y-22288090D02*
X6428225Y-22592890D01*
X6275825Y-22440490D02*
X6580625Y-22440490D01*
X6838482Y-22276204D02*
X7024196Y-22276204D01*
X6924196Y-22390490D01*
X6967053Y-22390490D01*
X6995625Y-22404776D01*
X7009911Y-22419061D01*
X7024196Y-22447633D01*
X7024196Y-22519061D01*
X7009911Y-22547633D01*
X6995625Y-22561919D01*
X6967053Y-22576204D01*
X6881339Y-22576204D01*
X6852768Y-22561919D01*
X6838482Y-22547633D01*
X7152768Y-22547633D02*
X7167053Y-22561919D01*
X7152768Y-22576204D01*
X7138482Y-22561919D01*
X7152768Y-22547633D01*
X7152768Y-22576204D01*
X7352768Y-22276204D02*
X7381339Y-22276204D01*
X7409911Y-22290490D01*
X7424196Y-22304776D01*
X7438482Y-22333347D01*
X7452768Y-22390490D01*
X7452768Y-22461919D01*
X7438482Y-22519061D01*
X7424196Y-22547633D01*
X7409911Y-22561919D01*
X7381339Y-22576204D01*
X7352768Y-22576204D01*
X7324196Y-22561919D01*
X7309911Y-22547633D01*
X7295625Y-22519061D01*
X7281339Y-22461919D01*
X7281339Y-22390490D01*
X7295625Y-22333347D01*
X7309911Y-22304776D01*
X7324196Y-22290490D01*
X7352768Y-22276204D01*
X7709911Y-22376204D02*
X7709911Y-22576204D01*
X7638482Y-22261919D02*
X7567053Y-22476204D01*
X7752768Y-22476204D01*
X7909911Y-22404776D02*
X7881339Y-22390490D01*
X7867053Y-22376204D01*
X7852768Y-22347633D01*
X7852768Y-22333347D01*
X7867053Y-22304776D01*
X7881339Y-22290490D01*
X7909911Y-22276204D01*
X7967053Y-22276204D01*
X7995625Y-22290490D01*
X8009911Y-22304776D01*
X8024196Y-22333347D01*
X8024196Y-22347633D01*
X8009911Y-22376204D01*
X7995625Y-22390490D01*
X7967053Y-22404776D01*
X7909911Y-22404776D01*
X7881339Y-22419061D01*
X7867053Y-22433347D01*
X7852768Y-22461919D01*
X7852768Y-22519061D01*
X7867053Y-22547633D01*
X7881339Y-22561919D01*
X7909911Y-22576204D01*
X7967053Y-22576204D01*
X7995625Y-22561919D01*
X8009911Y-22547633D01*
X8024196Y-22519061D01*
X8024196Y-22461919D01*
X8009911Y-22433347D01*
X7995625Y-22419061D01*
X7967053Y-22404776D01*
X8152768Y-22576204D02*
X8152768Y-22376204D01*
X8152768Y-22404776D02*
X8167053Y-22390490D01*
X8195625Y-22376204D01*
X8238482Y-22376204D01*
X8267053Y-22390490D01*
X8281339Y-22419061D01*
X8281339Y-22576204D01*
X8281339Y-22419061D02*
X8295625Y-22390490D01*
X8324196Y-22376204D01*
X8367053Y-22376204D01*
X8395625Y-22390490D01*
X8409911Y-22419061D01*
X8409911Y-22576204D01*
X8552768Y-22576204D02*
X8552768Y-22376204D01*
X8552768Y-22404776D02*
X8567053Y-22390490D01*
X8595625Y-22376204D01*
X8638482Y-22376204D01*
X8667053Y-22390490D01*
X8681339Y-22419061D01*
X8681339Y-22576204D01*
X8681339Y-22419061D02*
X8695625Y-22390490D01*
X8724196Y-22376204D01*
X8767053Y-22376204D01*
X8795625Y-22390490D01*
X8809911Y-22419061D01*
X8809911Y-22576204D01*
X9395625Y-22261919D02*
X9138482Y-22647633D01*
X9781339Y-22276204D02*
X9809911Y-22276204D01*
X9838482Y-22290490D01*
X9852768Y-22304776D01*
X9867053Y-22333347D01*
X9881339Y-22390490D01*
X9881339Y-22461919D01*
X9867053Y-22519061D01*
X9852768Y-22547633D01*
X9838482Y-22561919D01*
X9809911Y-22576204D01*
X9781339Y-22576204D01*
X9752768Y-22561919D01*
X9738482Y-22547633D01*
X9724196Y-22519061D01*
X9709911Y-22461919D01*
X9709911Y-22390490D01*
X9724196Y-22333347D01*
X9738482Y-22304776D01*
X9752768Y-22290490D01*
X9781339Y-22276204D01*
X10009911Y-22547633D02*
X10024196Y-22561919D01*
X10009911Y-22576204D01*
X9995625Y-22561919D01*
X10009911Y-22547633D01*
X10009911Y-22576204D01*
X10309911Y-22576204D02*
X10138482Y-22576204D01*
X10224196Y-22576204D02*
X10224196Y-22276204D01*
X10195625Y-22319062D01*
X10167053Y-22347633D01*
X10138482Y-22361919D01*
X10424196Y-22304776D02*
X10438482Y-22290490D01*
X10467053Y-22276204D01*
X10538482Y-22276204D01*
X10567053Y-22290490D01*
X10581339Y-22304776D01*
X10595625Y-22333347D01*
X10595625Y-22361919D01*
X10581339Y-22404776D01*
X10409911Y-22576204D01*
X10595625Y-22576204D01*
X10781339Y-22276204D02*
X10809911Y-22276204D01*
X10838482Y-22290490D01*
X10852768Y-22304776D01*
X10867053Y-22333347D01*
X10881339Y-22390490D01*
X10881339Y-22461919D01*
X10867053Y-22519061D01*
X10852768Y-22547633D01*
X10838482Y-22561919D01*
X10809911Y-22576204D01*
X10781339Y-22576204D01*
X10752768Y-22561919D01*
X10738482Y-22547633D01*
X10724196Y-22519061D01*
X10709911Y-22461919D01*
X10709911Y-22390490D01*
X10724196Y-22333347D01*
X10738482Y-22304776D01*
X10752768Y-22290490D01*
X10781339Y-22276204D01*
X11067053Y-22276204D02*
X11095625Y-22276204D01*
X11124196Y-22290490D01*
X11138482Y-22304776D01*
X11152768Y-22333347D01*
X11167053Y-22390490D01*
X11167053Y-22461919D01*
X11152768Y-22519061D01*
X11138482Y-22547633D01*
X11124196Y-22561919D01*
X11095625Y-22576204D01*
X11067053Y-22576204D01*
X11038482Y-22561919D01*
X11024196Y-22547633D01*
X11009911Y-22519061D01*
X10995625Y-22461919D01*
X10995625Y-22390490D01*
X11009911Y-22333347D01*
X11024196Y-22304776D01*
X11038482Y-22290490D01*
X11067053Y-22276204D01*
X11281339Y-22276204D02*
X11281339Y-22333347D01*
X11395625Y-22276204D02*
X11395625Y-22333347D01*
X11838482Y-22690490D02*
X11824196Y-22676204D01*
X11795625Y-22633347D01*
X11781339Y-22604776D01*
X11767053Y-22561919D01*
X11752768Y-22490490D01*
X11752768Y-22433347D01*
X11767053Y-22361919D01*
X11781339Y-22319062D01*
X11795625Y-22290490D01*
X11824196Y-22247633D01*
X11838482Y-22233347D01*
X12109911Y-22576204D02*
X11938482Y-22576204D01*
X12024196Y-22576204D02*
X12024196Y-22276204D01*
X11995625Y-22319062D01*
X11967053Y-22347633D01*
X11938482Y-22361919D01*
X12224196Y-22304776D02*
X12238482Y-22290490D01*
X12267053Y-22276204D01*
X12338482Y-22276204D01*
X12367053Y-22290490D01*
X12381339Y-22304776D01*
X12395625Y-22333347D01*
X12395625Y-22361919D01*
X12381339Y-22404776D01*
X12209911Y-22576204D01*
X12395625Y-22576204D01*
X12752768Y-22576204D02*
X12752768Y-22276204D01*
X12881339Y-22576204D02*
X12881339Y-22419061D01*
X12867053Y-22390490D01*
X12838482Y-22376204D01*
X12795625Y-22376204D01*
X12767053Y-22390490D01*
X12752768Y-22404776D01*
X13067053Y-22576204D02*
X13038482Y-22561919D01*
X13024196Y-22547633D01*
X13009911Y-22519061D01*
X13009911Y-22433347D01*
X13024196Y-22404776D01*
X13038482Y-22390490D01*
X13067053Y-22376204D01*
X13109911Y-22376204D01*
X13138482Y-22390490D01*
X13152768Y-22404776D01*
X13167053Y-22433347D01*
X13167053Y-22519061D01*
X13152768Y-22547633D01*
X13138482Y-22561919D01*
X13109911Y-22576204D01*
X13067053Y-22576204D01*
X13338482Y-22576204D02*
X13309911Y-22561919D01*
X13295625Y-22533347D01*
X13295625Y-22276204D01*
X13567053Y-22561919D02*
X13538482Y-22576204D01*
X13481339Y-22576204D01*
X13452768Y-22561919D01*
X13438482Y-22533347D01*
X13438482Y-22419061D01*
X13452768Y-22390490D01*
X13481339Y-22376204D01*
X13538482Y-22376204D01*
X13567053Y-22390490D01*
X13581339Y-22419061D01*
X13581339Y-22447633D01*
X13438482Y-22476204D01*
X13695625Y-22561919D02*
X13724196Y-22576204D01*
X13781339Y-22576204D01*
X13809911Y-22561919D01*
X13824196Y-22533347D01*
X13824196Y-22519061D01*
X13809911Y-22490490D01*
X13781339Y-22476204D01*
X13738482Y-22476204D01*
X13709911Y-22461919D01*
X13695625Y-22433347D01*
X13695625Y-22419061D01*
X13709911Y-22390490D01*
X13738482Y-22376204D01*
X13781339Y-22376204D01*
X13809911Y-22390490D01*
X13924196Y-22690490D02*
X13938482Y-22676204D01*
X13967053Y-22633347D01*
X13981339Y-22604776D01*
X13995625Y-22561919D01*
X14009911Y-22490490D01*
X14009911Y-22433347D01*
X13995625Y-22361919D01*
X13981339Y-22319062D01*
X13967053Y-22290490D01*
X13938482Y-22247633D01*
X13924196Y-22233347D01*
X14467053Y-22690490D02*
X14452768Y-22676204D01*
X14424196Y-22633347D01*
X14409911Y-22604776D01*
X14395625Y-22561919D01*
X14381339Y-22490490D01*
X14381339Y-22433347D01*
X14395625Y-22361919D01*
X14409911Y-22319062D01*
X14424196Y-22290490D01*
X14452768Y-22247633D01*
X14467053Y-22233347D01*
X14581339Y-22376204D02*
X14581339Y-22576204D01*
X14581339Y-22404776D02*
X14595625Y-22390490D01*
X14624196Y-22376204D01*
X14667053Y-22376204D01*
X14695625Y-22390490D01*
X14709911Y-22419061D01*
X14709911Y-22576204D01*
X14895625Y-22576204D02*
X14867053Y-22561919D01*
X14852768Y-22547633D01*
X14838482Y-22519061D01*
X14838482Y-22433347D01*
X14852768Y-22404776D01*
X14867053Y-22390490D01*
X14895625Y-22376204D01*
X14938482Y-22376204D01*
X14967053Y-22390490D01*
X14981339Y-22404776D01*
X14995625Y-22433347D01*
X14995625Y-22519061D01*
X14981339Y-22547633D01*
X14967053Y-22561919D01*
X14938482Y-22576204D01*
X14895625Y-22576204D01*
X15081339Y-22376204D02*
X15195625Y-22376204D01*
X15124196Y-22276204D02*
X15124196Y-22533347D01*
X15138482Y-22561919D01*
X15167053Y-22576204D01*
X15195625Y-22576204D01*
X15524196Y-22376204D02*
X15524196Y-22676204D01*
X15524196Y-22390490D02*
X15552768Y-22376204D01*
X15609911Y-22376204D01*
X15638482Y-22390490D01*
X15652768Y-22404776D01*
X15667053Y-22433347D01*
X15667053Y-22519061D01*
X15652768Y-22547633D01*
X15638482Y-22561919D01*
X15609911Y-22576204D01*
X15552768Y-22576204D01*
X15524196Y-22561919D01*
X15838482Y-22576204D02*
X15809911Y-22561919D01*
X15795625Y-22533347D01*
X15795625Y-22276204D01*
X16081339Y-22576204D02*
X16081339Y-22419061D01*
X16067053Y-22390490D01*
X16038482Y-22376204D01*
X15981339Y-22376204D01*
X15952768Y-22390490D01*
X16081339Y-22561919D02*
X16052768Y-22576204D01*
X15981339Y-22576204D01*
X15952768Y-22561919D01*
X15938482Y-22533347D01*
X15938482Y-22504776D01*
X15952768Y-22476204D01*
X15981339Y-22461919D01*
X16052768Y-22461919D01*
X16081339Y-22447633D01*
X16181339Y-22376204D02*
X16295625Y-22376204D01*
X16224196Y-22276204D02*
X16224196Y-22533347D01*
X16238482Y-22561919D01*
X16267053Y-22576204D01*
X16295625Y-22576204D01*
X16509911Y-22561919D02*
X16481339Y-22576204D01*
X16424196Y-22576204D01*
X16395625Y-22561919D01*
X16381339Y-22533347D01*
X16381339Y-22419061D01*
X16395625Y-22390490D01*
X16424196Y-22376204D01*
X16481339Y-22376204D01*
X16509911Y-22390490D01*
X16524196Y-22419061D01*
X16524196Y-22447633D01*
X16381339Y-22476204D01*
X16781339Y-22576204D02*
X16781339Y-22276204D01*
X16781339Y-22561919D02*
X16752768Y-22576204D01*
X16695625Y-22576204D01*
X16667053Y-22561919D01*
X16652768Y-22547633D01*
X16638482Y-22519061D01*
X16638482Y-22433347D01*
X16652768Y-22404776D01*
X16667053Y-22390490D01*
X16695625Y-22376204D01*
X16752768Y-22376204D01*
X16781339Y-22390490D01*
X16895625Y-22690490D02*
X16909911Y-22676204D01*
X16938482Y-22633347D01*
X16952768Y-22604776D01*
X16967053Y-22561919D01*
X16981339Y-22490490D01*
X16981339Y-22433347D01*
X16967053Y-22361919D01*
X16952768Y-22319062D01*
X16938482Y-22290490D01*
X16909911Y-22247633D01*
X16895625Y-22233347D01*
X6181845Y-22675900D02*
X6580625Y-23074680D01*
X6580625Y-22675900D02*
X6181845Y-23074680D01*
X6522226Y-23016281D02*
X6522226Y-22734299D01*
X6240243Y-22734299D01*
X6240243Y-23016281D01*
X6522226Y-23016281D01*
X6838482Y-22711004D02*
X7024196Y-22711004D01*
X6924196Y-22825290D01*
X6967053Y-22825290D01*
X6995625Y-22839576D01*
X7009911Y-22853861D01*
X7024196Y-22882433D01*
X7024196Y-22953861D01*
X7009911Y-22982433D01*
X6995625Y-22996719D01*
X6967053Y-23011004D01*
X6881339Y-23011004D01*
X6852768Y-22996719D01*
X6838482Y-22982433D01*
X7152768Y-22982433D02*
X7167053Y-22996719D01*
X7152768Y-23011004D01*
X7138482Y-22996719D01*
X7152768Y-22982433D01*
X7152768Y-23011004D01*
X7309911Y-23011004D02*
X7367053Y-23011004D01*
X7395625Y-22996719D01*
X7409911Y-22982433D01*
X7438482Y-22939576D01*
X7452768Y-22882433D01*
X7452768Y-22768147D01*
X7438482Y-22739576D01*
X7424196Y-22725290D01*
X7395625Y-22711004D01*
X7338482Y-22711004D01*
X7309911Y-22725290D01*
X7295625Y-22739576D01*
X7281339Y-22768147D01*
X7281339Y-22839576D01*
X7295625Y-22868147D01*
X7309911Y-22882433D01*
X7338482Y-22896719D01*
X7395625Y-22896719D01*
X7424196Y-22882433D01*
X7438482Y-22868147D01*
X7452768Y-22839576D01*
X7624196Y-22839576D02*
X7595625Y-22825290D01*
X7581339Y-22811004D01*
X7567053Y-22782433D01*
X7567053Y-22768147D01*
X7581339Y-22739576D01*
X7595625Y-22725290D01*
X7624196Y-22711004D01*
X7681339Y-22711004D01*
X7709911Y-22725290D01*
X7724196Y-22739576D01*
X7738482Y-22768147D01*
X7738482Y-22782433D01*
X7724196Y-22811004D01*
X7709911Y-22825290D01*
X7681339Y-22839576D01*
X7624196Y-22839576D01*
X7595625Y-22853861D01*
X7581339Y-22868147D01*
X7567053Y-22896719D01*
X7567053Y-22953861D01*
X7581339Y-22982433D01*
X7595625Y-22996719D01*
X7624196Y-23011004D01*
X7681339Y-23011004D01*
X7709911Y-22996719D01*
X7724196Y-22982433D01*
X7738482Y-22953861D01*
X7738482Y-22896719D01*
X7724196Y-22868147D01*
X7709911Y-22853861D01*
X7681339Y-22839576D01*
X7909911Y-22839576D02*
X7881339Y-22825290D01*
X7867053Y-22811004D01*
X7852768Y-22782433D01*
X7852768Y-22768147D01*
X7867053Y-22739576D01*
X7881339Y-22725290D01*
X7909911Y-22711004D01*
X7967053Y-22711004D01*
X7995625Y-22725290D01*
X8009911Y-22739576D01*
X8024196Y-22768147D01*
X8024196Y-22782433D01*
X8009911Y-22811004D01*
X7995625Y-22825290D01*
X7967053Y-22839576D01*
X7909911Y-22839576D01*
X7881339Y-22853861D01*
X7867053Y-22868147D01*
X7852768Y-22896719D01*
X7852768Y-22953861D01*
X7867053Y-22982433D01*
X7881339Y-22996719D01*
X7909911Y-23011004D01*
X7967053Y-23011004D01*
X7995625Y-22996719D01*
X8009911Y-22982433D01*
X8024196Y-22953861D01*
X8024196Y-22896719D01*
X8009911Y-22868147D01*
X7995625Y-22853861D01*
X7967053Y-22839576D01*
X8152768Y-23011004D02*
X8152768Y-22811004D01*
X8152768Y-22839576D02*
X8167053Y-22825290D01*
X8195625Y-22811004D01*
X8238482Y-22811004D01*
X8267053Y-22825290D01*
X8281339Y-22853861D01*
X8281339Y-23011004D01*
X8281339Y-22853861D02*
X8295625Y-22825290D01*
X8324196Y-22811004D01*
X8367053Y-22811004D01*
X8395625Y-22825290D01*
X8409911Y-22853861D01*
X8409911Y-23011004D01*
X8552768Y-23011004D02*
X8552768Y-22811004D01*
X8552768Y-22839576D02*
X8567053Y-22825290D01*
X8595625Y-22811004D01*
X8638482Y-22811004D01*
X8667053Y-22825290D01*
X8681339Y-22853861D01*
X8681339Y-23011004D01*
X8681339Y-22853861D02*
X8695625Y-22825290D01*
X8724196Y-22811004D01*
X8767053Y-22811004D01*
X8795625Y-22825290D01*
X8809911Y-22853861D01*
X8809911Y-23011004D01*
X9395625Y-22696719D02*
X9138482Y-23082433D01*
X9781339Y-22711004D02*
X9809911Y-22711004D01*
X9838482Y-22725290D01*
X9852768Y-22739576D01*
X9867053Y-22768147D01*
X9881339Y-22825290D01*
X9881339Y-22896719D01*
X9867053Y-22953861D01*
X9852768Y-22982433D01*
X9838482Y-22996719D01*
X9809911Y-23011004D01*
X9781339Y-23011004D01*
X9752768Y-22996719D01*
X9738482Y-22982433D01*
X9724196Y-22953861D01*
X9709911Y-22896719D01*
X9709911Y-22825290D01*
X9724196Y-22768147D01*
X9738482Y-22739576D01*
X9752768Y-22725290D01*
X9781339Y-22711004D01*
X10009911Y-22982433D02*
X10024196Y-22996719D01*
X10009911Y-23011004D01*
X9995625Y-22996719D01*
X10009911Y-22982433D01*
X10009911Y-23011004D01*
X10309911Y-23011004D02*
X10138482Y-23011004D01*
X10224196Y-23011004D02*
X10224196Y-22711004D01*
X10195625Y-22753861D01*
X10167053Y-22782433D01*
X10138482Y-22796719D01*
X10581339Y-22711004D02*
X10438482Y-22711004D01*
X10424196Y-22853861D01*
X10438482Y-22839576D01*
X10467053Y-22825290D01*
X10538482Y-22825290D01*
X10567053Y-22839576D01*
X10581339Y-22853861D01*
X10595625Y-22882433D01*
X10595625Y-22953861D01*
X10581339Y-22982433D01*
X10567053Y-22996719D01*
X10538482Y-23011004D01*
X10467053Y-23011004D01*
X10438482Y-22996719D01*
X10424196Y-22982433D01*
X10695625Y-22711004D02*
X10895625Y-22711004D01*
X10767053Y-23011004D01*
X11067053Y-22711004D02*
X11095625Y-22711004D01*
X11124196Y-22725290D01*
X11138482Y-22739576D01*
X11152768Y-22768147D01*
X11167053Y-22825290D01*
X11167053Y-22896719D01*
X11152768Y-22953861D01*
X11138482Y-22982433D01*
X11124196Y-22996719D01*
X11095625Y-23011004D01*
X11067053Y-23011004D01*
X11038482Y-22996719D01*
X11024196Y-22982433D01*
X11009911Y-22953861D01*
X10995625Y-22896719D01*
X10995625Y-22825290D01*
X11009911Y-22768147D01*
X11024196Y-22739576D01*
X11038482Y-22725290D01*
X11067053Y-22711004D01*
X11281339Y-22711004D02*
X11281339Y-22768147D01*
X11395625Y-22711004D02*
X11395625Y-22768147D01*
X11838482Y-23125290D02*
X11824196Y-23111004D01*
X11795625Y-23068147D01*
X11781339Y-23039576D01*
X11767053Y-22996719D01*
X11752768Y-22925290D01*
X11752768Y-22868147D01*
X11767053Y-22796719D01*
X11781339Y-22753861D01*
X11795625Y-22725290D01*
X11824196Y-22682433D01*
X11838482Y-22668147D01*
X11924196Y-22711004D02*
X12124196Y-22711004D01*
X11995625Y-23011004D01*
X12252768Y-23011004D02*
X12309911Y-23011004D01*
X12338482Y-22996719D01*
X12352768Y-22982433D01*
X12381339Y-22939576D01*
X12395625Y-22882433D01*
X12395625Y-22768147D01*
X12381339Y-22739576D01*
X12367053Y-22725290D01*
X12338482Y-22711004D01*
X12281339Y-22711004D01*
X12252768Y-22725290D01*
X12238482Y-22739576D01*
X12224196Y-22768147D01*
X12224196Y-22839576D01*
X12238482Y-22868147D01*
X12252768Y-22882433D01*
X12281339Y-22896719D01*
X12338482Y-22896719D01*
X12367053Y-22882433D01*
X12381339Y-22868147D01*
X12395625Y-22839576D01*
X12752768Y-23011004D02*
X12752768Y-22711004D01*
X12881339Y-23011004D02*
X12881339Y-22853861D01*
X12867053Y-22825290D01*
X12838482Y-22811004D01*
X12795625Y-22811004D01*
X12767053Y-22825290D01*
X12752768Y-22839576D01*
X13067053Y-23011004D02*
X13038482Y-22996719D01*
X13024196Y-22982433D01*
X13009911Y-22953861D01*
X13009911Y-22868147D01*
X13024196Y-22839576D01*
X13038482Y-22825290D01*
X13067053Y-22811004D01*
X13109911Y-22811004D01*
X13138482Y-22825290D01*
X13152768Y-22839576D01*
X13167053Y-22868147D01*
X13167053Y-22953861D01*
X13152768Y-22982433D01*
X13138482Y-22996719D01*
X13109911Y-23011004D01*
X13067053Y-23011004D01*
X13338482Y-23011004D02*
X13309911Y-22996719D01*
X13295625Y-22968147D01*
X13295625Y-22711004D01*
X13567053Y-22996719D02*
X13538482Y-23011004D01*
X13481339Y-23011004D01*
X13452768Y-22996719D01*
X13438482Y-22968147D01*
X13438482Y-22853861D01*
X13452768Y-22825290D01*
X13481339Y-22811004D01*
X13538482Y-22811004D01*
X13567053Y-22825290D01*
X13581339Y-22853861D01*
X13581339Y-22882433D01*
X13438482Y-22911004D01*
X13695625Y-22996719D02*
X13724196Y-23011004D01*
X13781339Y-23011004D01*
X13809911Y-22996719D01*
X13824196Y-22968147D01*
X13824196Y-22953861D01*
X13809911Y-22925290D01*
X13781339Y-22911004D01*
X13738482Y-22911004D01*
X13709911Y-22896719D01*
X13695625Y-22868147D01*
X13695625Y-22853861D01*
X13709911Y-22825290D01*
X13738482Y-22811004D01*
X13781339Y-22811004D01*
X13809911Y-22825290D01*
X13924196Y-23125290D02*
X13938482Y-23111004D01*
X13967053Y-23068147D01*
X13981339Y-23039576D01*
X13995625Y-22996719D01*
X14009911Y-22925290D01*
X14009911Y-22868147D01*
X13995625Y-22796719D01*
X13981339Y-22753861D01*
X13967053Y-22725290D01*
X13938482Y-22682433D01*
X13924196Y-22668147D01*
X14467053Y-23125290D02*
X14452768Y-23111004D01*
X14424196Y-23068147D01*
X14409911Y-23039576D01*
X14395625Y-22996719D01*
X14381339Y-22925290D01*
X14381339Y-22868147D01*
X14395625Y-22796719D01*
X14409911Y-22753861D01*
X14424196Y-22725290D01*
X14452768Y-22682433D01*
X14467053Y-22668147D01*
X14581339Y-22811004D02*
X14581339Y-23011004D01*
X14581339Y-22839576D02*
X14595625Y-22825290D01*
X14624196Y-22811004D01*
X14667053Y-22811004D01*
X14695625Y-22825290D01*
X14709911Y-22853861D01*
X14709911Y-23011004D01*
X14895625Y-23011004D02*
X14867053Y-22996719D01*
X14852768Y-22982433D01*
X14838482Y-22953861D01*
X14838482Y-22868147D01*
X14852768Y-22839576D01*
X14867053Y-22825290D01*
X14895625Y-22811004D01*
X14938482Y-22811004D01*
X14967053Y-22825290D01*
X14981339Y-22839576D01*
X14995625Y-22868147D01*
X14995625Y-22953861D01*
X14981339Y-22982433D01*
X14967053Y-22996719D01*
X14938482Y-23011004D01*
X14895625Y-23011004D01*
X15081339Y-22811004D02*
X15195625Y-22811004D01*
X15124196Y-22711004D02*
X15124196Y-22968147D01*
X15138482Y-22996719D01*
X15167053Y-23011004D01*
X15195625Y-23011004D01*
X15524196Y-22811004D02*
X15524196Y-23111004D01*
X15524196Y-22825290D02*
X15552768Y-22811004D01*
X15609911Y-22811004D01*
X15638482Y-22825290D01*
X15652768Y-22839576D01*
X15667053Y-22868147D01*
X15667053Y-22953861D01*
X15652768Y-22982433D01*
X15638482Y-22996719D01*
X15609911Y-23011004D01*
X15552768Y-23011004D01*
X15524196Y-22996719D01*
X15838482Y-23011004D02*
X15809911Y-22996719D01*
X15795625Y-22968147D01*
X15795625Y-22711004D01*
X16081339Y-23011004D02*
X16081339Y-22853861D01*
X16067053Y-22825290D01*
X16038482Y-22811004D01*
X15981339Y-22811004D01*
X15952768Y-22825290D01*
X16081339Y-22996719D02*
X16052768Y-23011004D01*
X15981339Y-23011004D01*
X15952768Y-22996719D01*
X15938482Y-22968147D01*
X15938482Y-22939576D01*
X15952768Y-22911004D01*
X15981339Y-22896719D01*
X16052768Y-22896719D01*
X16081339Y-22882433D01*
X16181339Y-22811004D02*
X16295625Y-22811004D01*
X16224196Y-22711004D02*
X16224196Y-22968147D01*
X16238482Y-22996719D01*
X16267053Y-23011004D01*
X16295625Y-23011004D01*
X16509911Y-22996719D02*
X16481339Y-23011004D01*
X16424196Y-23011004D01*
X16395625Y-22996719D01*
X16381339Y-22968147D01*
X16381339Y-22853861D01*
X16395625Y-22825290D01*
X16424196Y-22811004D01*
X16481339Y-22811004D01*
X16509911Y-22825290D01*
X16524196Y-22853861D01*
X16524196Y-22882433D01*
X16381339Y-22911004D01*
X16781339Y-23011004D02*
X16781339Y-22711004D01*
X16781339Y-22996719D02*
X16752768Y-23011004D01*
X16695625Y-23011004D01*
X16667053Y-22996719D01*
X16652768Y-22982433D01*
X16638482Y-22953861D01*
X16638482Y-22868147D01*
X16652768Y-22839576D01*
X16667053Y-22825290D01*
X16695625Y-22811004D01*
X16752768Y-22811004D01*
X16781339Y-22825290D01*
X16895625Y-23125290D02*
X16909911Y-23111004D01*
X16938482Y-23068147D01*
X16952768Y-23039576D01*
X16967053Y-22996719D01*
X16981339Y-22925290D01*
X16981339Y-22868147D01*
X16967053Y-22796719D01*
X16952768Y-22753861D01*
X16938482Y-22725290D01*
X16909911Y-22682433D01*
X16895625Y-22668147D01*
M02*
