G04 #@! TF.GenerationSoftware,KiCad,Pcbnew,5.1.8*
G04 #@! TF.CreationDate,2020-11-23T09:17:22-05:00*
G04 #@! TF.ProjectId,unix60pcb,756e6978-3630-4706-9362-2e6b69636164,rev?*
G04 #@! TF.SameCoordinates,Original*
G04 #@! TF.FileFunction,Paste,Top*
G04 #@! TF.FilePolarity,Positive*
%FSLAX46Y46*%
G04 Gerber Fmt 4.6, Leading zero omitted, Abs format (unit mm)*
G04 Created by KiCad (PCBNEW 5.1.8) date 2020-11-23 09:17:22*
%MOMM*%
%LPD*%
G01*
G04 APERTURE LIST*
%ADD10R,1.200000X1.200000*%
G04 APERTURE END LIST*
D10*
G04 #@! TO.C,D15*
X280181250Y-11906200D03*
X277031250Y-11906200D03*
G04 #@! TD*
G04 #@! TO.C,D1*
X19856200Y-11906200D03*
X23006200Y-11906200D03*
G04 #@! TD*
G04 #@! TO.C,D2*
X38906200Y-11906200D03*
X42056200Y-11906200D03*
G04 #@! TD*
G04 #@! TO.C,D3*
X57956200Y-11906200D03*
X61106200Y-11906200D03*
G04 #@! TD*
G04 #@! TO.C,D4*
X77006200Y-11906200D03*
X80156200Y-11906200D03*
G04 #@! TD*
G04 #@! TO.C,D5*
X96056200Y-11906200D03*
X99206200Y-11906200D03*
G04 #@! TD*
G04 #@! TO.C,D6*
X118256000Y-11906200D03*
X115106000Y-11906200D03*
G04 #@! TD*
G04 #@! TO.C,D7*
X137306000Y-11906200D03*
X134156000Y-11906200D03*
G04 #@! TD*
G04 #@! TO.C,D8*
X156356000Y-11906200D03*
X153206000Y-11906200D03*
G04 #@! TD*
G04 #@! TO.C,D9*
X172256000Y-11906200D03*
X175406000Y-11906200D03*
G04 #@! TD*
G04 #@! TO.C,D10*
X191306000Y-11906200D03*
X194456000Y-11906200D03*
G04 #@! TD*
G04 #@! TO.C,D11*
X210356000Y-11906200D03*
X213506000Y-11906200D03*
G04 #@! TD*
G04 #@! TO.C,D12*
X229406000Y-11906200D03*
X232556000Y-11906200D03*
G04 #@! TD*
G04 #@! TO.C,D13*
X248456000Y-11906200D03*
X251606000Y-11906200D03*
G04 #@! TD*
G04 #@! TO.C,D14*
X265125000Y-9525000D03*
X268275000Y-9525000D03*
G04 #@! TD*
G04 #@! TO.C,D16*
X292087500Y-9525000D03*
X288937500Y-9525000D03*
G04 #@! TD*
G04 #@! TO.C,D17*
X27768800Y-30956200D03*
X24618800Y-30956200D03*
G04 #@! TD*
G04 #@! TO.C,D18*
X51581200Y-30956200D03*
X48431200Y-30956200D03*
G04 #@! TD*
G04 #@! TO.C,D19*
X70631200Y-30956200D03*
X67481200Y-30956200D03*
G04 #@! TD*
G04 #@! TO.C,D20*
X89681200Y-30956200D03*
X86531200Y-30956200D03*
G04 #@! TD*
G04 #@! TO.C,D21*
X108731000Y-30956200D03*
X105581000Y-30956200D03*
G04 #@! TD*
G04 #@! TO.C,D22*
X127781000Y-30956200D03*
X124631000Y-30956200D03*
G04 #@! TD*
G04 #@! TO.C,D23*
X138919000Y-30956200D03*
X142069000Y-30956200D03*
G04 #@! TD*
G04 #@! TO.C,D24*
X167494000Y-30956200D03*
X170644000Y-30956200D03*
G04 #@! TD*
G04 #@! TO.C,D25*
X181781000Y-30956200D03*
X184931000Y-30956200D03*
G04 #@! TD*
G04 #@! TO.C,D26*
X200831000Y-30956200D03*
X203981000Y-30956200D03*
G04 #@! TD*
G04 #@! TO.C,D27*
X219881000Y-30956200D03*
X223031000Y-30956200D03*
G04 #@! TD*
G04 #@! TO.C,D28*
X238931000Y-30956200D03*
X242081000Y-30956200D03*
G04 #@! TD*
G04 #@! TO.C,D29*
X257981000Y-30956200D03*
X261131000Y-30956200D03*
G04 #@! TD*
G04 #@! TO.C,D30*
X284944000Y-30956200D03*
X281794000Y-30956200D03*
G04 #@! TD*
G04 #@! TO.C,D31*
X30150000Y-50006200D03*
X27000000Y-50006200D03*
G04 #@! TD*
G04 #@! TO.C,D32*
X53193800Y-50006200D03*
X56343800Y-50006200D03*
G04 #@! TD*
G04 #@! TO.C,D33*
X72243800Y-50006200D03*
X75393800Y-50006200D03*
G04 #@! TD*
G04 #@! TO.C,D34*
X94443800Y-50006200D03*
X91293800Y-50006200D03*
G04 #@! TD*
G04 #@! TO.C,D35*
X113494000Y-50006200D03*
X110344000Y-50006200D03*
G04 #@! TD*
G04 #@! TO.C,D36*
X129394000Y-50006200D03*
X132544000Y-50006200D03*
G04 #@! TD*
G04 #@! TO.C,D37*
X151594000Y-50006200D03*
X148444000Y-50006200D03*
G04 #@! TD*
G04 #@! TO.C,D38*
X170644000Y-50006200D03*
X167494000Y-50006200D03*
G04 #@! TD*
G04 #@! TO.C,D39*
X189694000Y-50006200D03*
X186544000Y-50006200D03*
G04 #@! TD*
G04 #@! TO.C,D40*
X208744000Y-50006200D03*
X205594000Y-50006200D03*
G04 #@! TD*
G04 #@! TO.C,D41*
X227794000Y-50006200D03*
X224644000Y-50006200D03*
G04 #@! TD*
G04 #@! TO.C,D42*
X243694000Y-50006200D03*
X246844000Y-50006200D03*
G04 #@! TD*
G04 #@! TO.C,D43*
X262744000Y-50006200D03*
X265894000Y-50006200D03*
G04 #@! TD*
G04 #@! TO.C,D44*
X274650000Y-50006200D03*
X277800000Y-50006200D03*
G04 #@! TD*
G04 #@! TO.C,D45*
X31762500Y-69056200D03*
X34912500Y-69056200D03*
G04 #@! TD*
G04 #@! TO.C,D46*
X43668800Y-69056200D03*
X46818800Y-69056200D03*
G04 #@! TD*
G04 #@! TO.C,D47*
X62718800Y-69056200D03*
X65868800Y-69056200D03*
G04 #@! TD*
G04 #@! TO.C,D48*
X84918800Y-69056200D03*
X81768800Y-69056200D03*
G04 #@! TD*
G04 #@! TO.C,D49*
X103969000Y-69056200D03*
X100819000Y-69056200D03*
G04 #@! TD*
G04 #@! TO.C,D50*
X123019000Y-69056200D03*
X119869000Y-69056200D03*
G04 #@! TD*
G04 #@! TO.C,D51*
X142069000Y-69056200D03*
X138919000Y-69056200D03*
G04 #@! TD*
G04 #@! TO.C,D52*
X161119000Y-69056200D03*
X157969000Y-69056200D03*
G04 #@! TD*
G04 #@! TO.C,D53*
X180169000Y-69056200D03*
X177019000Y-69056200D03*
G04 #@! TD*
G04 #@! TO.C,D54*
X199219000Y-69056200D03*
X196069000Y-69056200D03*
G04 #@! TD*
G04 #@! TO.C,D55*
X218269000Y-69056200D03*
X215119000Y-69056200D03*
G04 #@! TD*
G04 #@! TO.C,D56*
X234169000Y-69056200D03*
X237319000Y-69056200D03*
G04 #@! TD*
G04 #@! TO.C,D57*
X269887000Y-69056200D03*
X273037000Y-69056200D03*
G04 #@! TD*
G04 #@! TO.C,D58*
X295275000Y-80156200D03*
X295275000Y-77006200D03*
G04 #@! TD*
G04 #@! TO.C,D59*
X50812500Y-88106200D03*
X53962500Y-88106200D03*
G04 #@! TD*
G04 #@! TO.C,D60*
X75393800Y-88106200D03*
X72243800Y-88106200D03*
G04 #@! TD*
G04 #@! TO.C,D61*
X156356000Y-88106200D03*
X153206000Y-88106200D03*
G04 #@! TD*
G04 #@! TO.C,D62*
X237319000Y-88106200D03*
X234169000Y-88106200D03*
G04 #@! TD*
G04 #@! TO.C,D63*
X253987000Y-88106200D03*
X250837000Y-88106200D03*
G04 #@! TD*
M02*
