M48
; DRILL file {KiCad 5.1.8} date Mon Nov 23 09:17:24 2020
; FORMAT={-:-/ absolute / inch / decimal}
; #@! TF.CreationDate,2020-11-23T09:17:24-05:00
; #@! TF.GenerationSoftware,Kicad,Pcbnew,5.1.8
FMAT,2
INCH
T1C0.0157
T2C0.0276
T3C0.0394
T4C0.0433
T5C0.0579
T6C0.0689
T7C0.1200
T8C0.1570
%
G90
G05
T1
X1.5825Y-1.2921
X1.6375Y-2.0714
X1.9698Y-0.9704
X2.817Y-1.5459
X4.4609Y-1.8765
X5.5939Y-0.81
X5.6143Y-1.4134
X5.704Y-1.05
X5.9155Y-1.4504
X5.9592Y-1.4101
X5.9766Y-1.4937
X6.0063Y-1.3658
X6.4869Y-1.0658
X6.8972Y-1.164
X7.2653Y-2.0625
X7.5165Y-1.0425
X8.0141Y-1.4937
X8.677Y-2.2036
X9.1429Y-1.895
X9.1969Y-3.7057
X9.6327Y-1.8656
X10.6875Y-2.625
X11.0837Y-1.9688
T2
X8.5652Y-1.2187
X8.8723Y-1.2187
X8.3777Y-2.7187
X8.6848Y-2.7187
X2.7527Y-3.4687
X3.0598Y-3.4687
X5.3777Y-2.7187
X5.6848Y-2.7187
X5.9402Y-0.4687
X6.2473Y-0.4687
X10.7215Y-1.9687
X11.0285Y-1.9687
X1.909Y-3.4687
X2.216Y-3.4687
X11.625Y-2.9402
X11.625Y-3.2473
X1.6277Y-2.7187
X1.9348Y-2.7187
X2.0027Y-1.9687
X2.3098Y-1.9687
X4.2527Y-1.9687
X4.5598Y-1.9687
X10.5339Y-2.7187
X10.841Y-2.7187
X4.0652Y-1.2187
X4.3723Y-1.2187
X0.6902Y-0.4687
X0.9973Y-0.4687
X2.1902Y-0.4687
X2.4973Y-0.4687
X7.0652Y-1.2187
X7.3723Y-1.2187
X5.7527Y-1.9687
X6.0598Y-1.9687
X9.7839Y-3.4687
X10.091Y-3.4687
X10.2527Y-1.9687
X10.5598Y-1.9687
X7.2527Y-1.9687
X7.5598Y-1.9687
X8.0027Y-1.9687
X8.3098Y-1.9687
X4.4402Y-0.4687
X4.7473Y-0.4687
X2.7527Y-1.9687
X3.0598Y-1.9687
X1.4402Y-0.4687
X1.7473Y-0.4687
X2.5652Y-1.2187
X2.8723Y-1.2187
X3.8777Y-2.7187
X4.1848Y-2.7187
X10.0652Y-1.2187
X10.3723Y-1.2187
X5.1902Y-0.4687
X5.4973Y-0.4687
X8.9402Y-0.4687
X9.2473Y-0.4687
X6.5027Y-1.2187
X6.8098Y-1.2187
X7.4402Y-0.4687
X7.7473Y-0.4687
X9.3152Y-1.2187
X9.6223Y-1.2187
X1.159Y-2.7187
X1.466Y-2.7187
X9.6902Y-0.4687
X9.9973Y-0.4687
X6.8777Y-2.7187
X7.1848Y-2.7187
X1.8152Y-1.2187
X2.1223Y-1.2187
X5.0027Y-1.9687
X5.3098Y-1.9687
X11.0027Y-1.2187
X11.3098Y-1.2187
X0.9715Y-1.9687
X1.2785Y-1.9687
X3.6902Y-0.4687
X3.9973Y-0.4687
X6.5027Y-1.9687
X6.8098Y-1.9687
X5.3777Y-1.2187
X5.6848Y-1.2187
X4.8152Y-1.2187
X5.1223Y-1.2187
X6.1277Y-2.7187
X6.4348Y-2.7187
X4.6277Y-2.7187
X4.9348Y-2.7187
X2.9402Y-0.4687
X3.2473Y-0.4687
X10.8152Y-0.4687
X11.1223Y-0.4687
X3.1277Y-2.7187
X3.4348Y-2.7187
X8.7527Y-1.9687
X9.0598Y-1.9687
X3.3152Y-1.2187
X3.6223Y-1.2187
X11.284Y-0.375
X11.591Y-0.375
X9.1277Y-3.4687
X9.4348Y-3.4687
X10.3465Y-0.375
X10.6535Y-0.375
X7.8152Y-1.2187
X8.1223Y-1.2187
X5.9402Y-3.4687
X6.2473Y-3.4687
X9.1277Y-2.7187
X9.4348Y-2.7187
X7.6277Y-2.7187
X7.9348Y-2.7187
X0.8777Y-1.2187
X1.1848Y-1.2187
X2.3777Y-2.7187
X2.6848Y-2.7187
X8.1902Y-0.4687
X8.4973Y-0.4687
X3.5027Y-1.9687
X3.8098Y-1.9687
X6.6902Y-0.4687
X6.9973Y-0.4687
X9.5027Y-1.9687
X9.8098Y-1.9687
T3
X6.6985Y-0.2735
X6.7985Y-0.2735
X6.8985Y-0.2735
X6.9985Y-0.2735
T4
X5.7937Y-0.1862
X5.7937Y-0.2862
X5.7937Y-0.3862
X5.7937Y-0.4862
X5.7937Y-0.5862
X5.7937Y-0.6862
X5.7937Y-0.7862
X5.7937Y-0.8862
X5.7937Y-0.9862
X5.7937Y-1.0862
X5.7937Y-1.1862
X5.7937Y-1.2862
X6.3937Y-0.1862
X6.3937Y-0.2862
X6.3937Y-0.3862
X6.3937Y-0.4862
X6.3937Y-0.5862
X6.3937Y-0.6862
X6.3937Y-0.7862
X6.3937Y-0.8862
X6.3937Y-0.9862
X6.3937Y-1.0862
X6.3937Y-1.1862
X6.3937Y-1.2862
T5
X10.0687Y-3.7437
X10.3187Y-3.6437
X0.7875Y-2.2437
X1.0375Y-2.1437
X10.5375Y-2.9937
X10.7875Y-2.8937
X7.2563Y-2.2437
X7.5063Y-2.1437
X5.5687Y-1.4937
X5.8187Y-1.3937
X11.1937Y-2.9937
X11.4437Y-2.8937
X2.7563Y-3.7437
X3.0063Y-3.6437
X5.3813Y-2.9937
X5.6313Y-2.8937
X4.4437Y-0.7437
X4.6937Y-0.6437
X9.1313Y-3.7437
X9.3813Y-3.6437
X6.3187Y-1.4937
X6.5687Y-1.3937
X6.6937Y-0.7437
X6.9437Y-0.6437
X10.2563Y-2.2437
X10.5063Y-2.1437
X1.8187Y-1.4937
X2.0687Y-1.3937
X9.6937Y-0.7437
X9.9437Y-0.6437
X4.8187Y-1.4937
X5.0687Y-1.3937
X2.0063Y-2.2437
X2.2563Y-2.1437
X10.1625Y-2.9937
X10.4125Y-2.8937
X10.4437Y-0.7437
X10.6937Y-0.6437
X8.5687Y-1.4937
X8.8187Y-1.3937
X11.1937Y-0.7437
X11.4437Y-0.6437
X10.8187Y-0.7437
X11.0687Y-0.6437
X2.7563Y-2.2437
X3.0063Y-2.1437
X2.3813Y-2.9937
X2.6313Y-2.8937
X3.8813Y-2.9937
X4.1313Y-2.8937
X5.9437Y-3.7437
X6.1937Y-3.6437
X3.5063Y-2.2437
X3.7563Y-2.1437
X11.35Y-1.8187
X11.45Y-2.0687
X1.8187Y-3.7437
X2.0687Y-3.6437
X7.8187Y-1.4937
X8.0687Y-1.3937
X2.5687Y-1.4937
X2.8187Y-1.3937
X4.2563Y-2.2437
X4.5063Y-2.1437
X8.3813Y-2.9937
X8.6313Y-2.8937
X2.1937Y-0.7437
X2.4437Y-0.6437
X7.0687Y-1.4937
X7.3187Y-1.3937
X3.3187Y-1.4937
X3.5687Y-1.3937
X1.1625Y-2.9937
X1.4125Y-2.8937
X5.0063Y-2.2437
X5.2563Y-2.1437
X0.6937Y-0.7437
X0.9437Y-0.6437
X8.9437Y-0.7437
X9.1937Y-0.6437
X8.1937Y-0.7437
X8.4437Y-0.6437
X6.5063Y-2.2437
X6.7563Y-2.1437
X8.0063Y-2.2437
X8.2563Y-2.1437
X10.725Y-2.2437
X10.975Y-2.1437
X0.8813Y-1.4937
X1.1313Y-1.3937
X5.9437Y-0.7437
X6.1937Y-0.6437
X5.7563Y-2.2437
X6.0063Y-2.1437
X3.6937Y-0.7437
X3.9437Y-0.6437
X0.975Y-2.2437
X1.225Y-2.1437
X1.6313Y-2.9937
X1.8813Y-2.8937
X9.1313Y-2.9937
X9.3813Y-2.8937
X9.3187Y-1.4937
X9.5687Y-1.3937
X2.9437Y-0.7437
X3.1937Y-0.6437
X6.1313Y-2.9937
X6.3813Y-2.8937
X3.1313Y-2.9937
X3.3813Y-2.8937
X6.8813Y-2.9937
X7.1313Y-2.8937
X0.7875Y-2.9937
X1.0375Y-2.8937
X11.0063Y-1.4937
X11.2563Y-1.3937
X7.4437Y-0.7437
X7.6937Y-0.6437
X9.5063Y-2.2437
X9.7563Y-2.1437
X4.0687Y-1.4937
X4.3187Y-1.3937
X5.1937Y-0.7437
X5.4437Y-0.6437
X10.0687Y-1.4937
X10.3187Y-1.3937
X8.7563Y-2.2437
X9.0063Y-2.1437
X7.6313Y-2.9937
X7.8813Y-2.8937
X1.4437Y-0.7437
X1.6937Y-0.6437
X4.6313Y-2.9937
X4.8813Y-2.8937
T6
X9.4563Y-2.3437
X9.8563Y-2.3437
X4.0187Y-1.5937
X4.4187Y-1.5937
X5.1437Y-0.8437
X5.5437Y-0.8437
X10.0187Y-1.5937
X10.4187Y-1.5937
X8.7063Y-2.3437
X9.1063Y-2.3437
X7.5813Y-3.0937
X7.9813Y-3.0937
X1.3937Y-0.8437
X1.7937Y-0.8437
X4.5813Y-3.0937
X4.9813Y-3.0937
X10.0187Y-3.8437
X10.4187Y-3.8437
X0.7375Y-2.3437
X1.1375Y-2.3437
X10.4875Y-3.0937
X10.8875Y-3.0937
X7.2063Y-2.3437
X7.6063Y-2.3437
X5.5187Y-1.5937
X5.9187Y-1.5937
X11.1437Y-3.0937
X11.5437Y-3.0937
X2.7063Y-3.8437
X3.1063Y-3.8437
X5.3313Y-3.0937
X5.7313Y-3.0937
X4.3937Y-0.8437
X4.7937Y-0.8437
X9.0813Y-3.8437
X9.4813Y-3.8437
X6.2687Y-1.5937
X6.6687Y-1.5937
X6.6437Y-0.8437
X7.0437Y-0.8437
X10.2063Y-2.3437
X10.6063Y-2.3437
X1.7687Y-1.5937
X2.1687Y-1.5937
X9.6437Y-0.8437
X10.0437Y-0.8437
X4.7687Y-1.5937
X5.1687Y-1.5937
X1.9563Y-2.3437
X2.3563Y-2.3437
X10.1125Y-3.0937
X10.5125Y-3.0937
X10.3937Y-0.8437
X10.7937Y-0.8437
X8.5187Y-1.5937
X8.9187Y-1.5937
X11.1437Y-0.8437
X11.5437Y-0.8437
X10.7687Y-0.8437
X11.1687Y-0.8437
X2.7063Y-2.3437
X3.1063Y-2.3437
X2.3313Y-3.0937
X2.7313Y-3.0937
X3.8313Y-3.0937
X4.2313Y-3.0937
X5.8937Y-3.8437
X6.2937Y-3.8437
X3.4563Y-2.3437
X3.8563Y-2.3437
X11.25Y-1.7687
X11.25Y-2.1687
X1.7687Y-3.8437
X2.1687Y-3.8437
X7.7687Y-1.5937
X8.1687Y-1.5937
X2.5187Y-1.5937
X2.9187Y-1.5937
X4.2063Y-2.3437
X4.6063Y-2.3437
X8.3313Y-3.0937
X8.7313Y-3.0937
X2.1437Y-0.8437
X2.5437Y-0.8437
X7.0187Y-1.5937
X7.4187Y-1.5937
X3.2687Y-1.5937
X3.6687Y-1.5937
X1.1125Y-3.0937
X1.5125Y-3.0937
X4.9563Y-2.3437
X5.3563Y-2.3437
X0.6437Y-0.8437
X1.0437Y-0.8437
X8.8937Y-0.8437
X9.2937Y-0.8437
X8.1437Y-0.8437
X8.5437Y-0.8437
X6.4563Y-2.3437
X6.8563Y-2.3437
X7.9563Y-2.3437
X8.3563Y-2.3437
X10.675Y-2.3437
X11.075Y-2.3437
X0.8313Y-1.5937
X1.2313Y-1.5937
X5.8937Y-0.8437
X6.2937Y-0.8437
X5.7063Y-2.3437
X6.1063Y-2.3437
X3.6437Y-0.8437
X4.0437Y-0.8437
X0.925Y-2.3437
X1.325Y-2.3437
X1.5813Y-3.0937
X1.9813Y-3.0937
X9.0813Y-3.0937
X9.4813Y-3.0937
X9.2687Y-1.5937
X9.6687Y-1.5937
X2.8937Y-0.8437
X3.2937Y-0.8437
X6.0813Y-3.0937
X6.4813Y-3.0937
X3.0813Y-3.0937
X3.4813Y-3.0937
X6.8313Y-3.0937
X7.2313Y-3.0937
X0.7375Y-3.0937
X1.1375Y-3.0937
X10.9563Y-1.5937
X11.3563Y-1.5937
X7.3937Y-0.8437
X7.7937Y-0.8437
T7
X10.2187Y-2.8187
X11.1562Y-2.8187
X10.5Y-0.5687
X11.4375Y-0.5687
X3.8437Y-3.5687
X8.3437Y-3.5687
X11.525Y-1.4987
X11.525Y-2.4387
X0.8438Y-2.8187
X1.7812Y-2.8187
X10.4062Y-2.0687
X11.3438Y-2.0687
T8
X10.2187Y-3.8437
X0.9375Y-2.3437
X10.2187Y-3.4187
X10.6875Y-3.0937
X11.1562Y-3.4187
X7.4063Y-2.3437
X5.7187Y-1.5937
X11.3437Y-3.0937
X2.9063Y-3.8437
X5.5313Y-3.0937
X4.5937Y-0.8437
X9.2813Y-3.8437
X6.4687Y-1.5937
X6.8437Y-0.8437
X10.4063Y-2.3437
X1.9687Y-1.5937
X9.8437Y-0.8437
X4.9687Y-1.5937
X2.1563Y-2.3437
X10.3125Y-3.0937
X10.5937Y-0.8437
X8.7187Y-1.5937
X11.3437Y-0.8437
X10.5Y-1.1687
X10.9687Y-0.8437
X11.4375Y-1.1687
X2.9063Y-2.3437
X2.5313Y-3.0937
X4.0313Y-3.0937
X3.8437Y-4.1687
X6.0937Y-3.8437
X8.3437Y-4.1687
X3.6563Y-2.3437
X10.925Y-1.4987
X10.925Y-2.4387
X11.25Y-1.9687
X1.9687Y-3.8437
X7.9687Y-1.5937
X2.7187Y-1.5937
X4.4063Y-2.3437
X8.5313Y-3.0937
X2.3437Y-0.8437
X7.2187Y-1.5937
X3.4687Y-1.5937
X0.8438Y-3.4187
X1.3125Y-3.0937
X1.7812Y-3.4187
X5.1563Y-2.3437
X0.8437Y-0.8437
X9.0937Y-0.8437
X8.3437Y-0.8437
X6.6563Y-2.3437
X8.1563Y-2.3437
X10.4062Y-2.6687
X10.875Y-2.3437
X11.3438Y-2.6687
X1.0313Y-1.5937
X6.0937Y-0.8437
X5.9063Y-2.3437
X3.8437Y-0.8437
X1.125Y-2.3437
X1.7813Y-3.0937
X9.2813Y-3.0937
X9.4687Y-1.5937
X3.0937Y-0.8437
X6.2813Y-3.0937
X3.2813Y-3.0937
X7.0313Y-3.0937
X0.9375Y-3.0937
X11.1563Y-1.5937
X7.5937Y-0.8437
X9.6563Y-2.3437
X4.2187Y-1.5937
X5.3437Y-0.8437
X10.2187Y-1.5937
X8.9063Y-2.3437
X7.7813Y-3.0937
X1.5937Y-0.8437
X4.7813Y-3.0937
T0
M30
