G04 #@! TF.GenerationSoftware,KiCad,Pcbnew,5.1.10-88a1d61d58~90~ubuntu21.04.1*
G04 #@! TF.CreationDate,2021-09-17T14:26:20+02:00*
G04 #@! TF.ProjectId,unix60pcb,756e6978-3630-4706-9362-2e6b69636164,rev?*
G04 #@! TF.SameCoordinates,Original*
G04 #@! TF.FileFunction,Soldermask,Top*
G04 #@! TF.FilePolarity,Negative*
%FSLAX46Y46*%
G04 Gerber Fmt 4.6, Leading zero omitted, Abs format (unit mm)*
G04 Created by KiCad (PCBNEW 5.1.10-88a1d61d58~90~ubuntu21.04.1) date 2021-09-17 14:26:20*
%MOMM*%
%LPD*%
G01*
G04 APERTURE LIST*
G04 #@! TA.AperFunction,Profile*
%ADD10C,0.150000*%
G04 #@! TD*
%ADD11C,0.010000*%
%ADD12C,1.600000*%
%ADD13R,1.600000X1.600000*%
%ADD14R,1.200000X1.200000*%
%ADD15R,1.700000X1.700000*%
%ADD16O,1.700000X1.700000*%
%ADD17C,3.987800*%
%ADD18C,1.750000*%
%ADD19C,3.048000*%
G04 APERTURE END LIST*
D10*
X260620800Y-88582500D02*
G75*
G03*
X260620800Y-88582500I-2650000J0D01*
G01*
X162196250Y-88582500D02*
G75*
G03*
X162196250Y-88582500I-2650000J0D01*
G01*
X70643750Y-83813650D02*
X346868750Y-83813650D01*
X65881250Y-88576150D02*
G75*
G02*
X70643750Y-83813650I4762500J0D01*
G01*
X346868750Y-83813650D02*
G75*
G02*
X351631250Y-88576150I0J-4762500D01*
G01*
X65881250Y-88576150D02*
X65881250Y-186207400D01*
X351631250Y-88576150D02*
X351631250Y-186207400D01*
X346868750Y-190969900D02*
X70643750Y-190969900D01*
X70643750Y-190969900D02*
G75*
G02*
X65881250Y-186207400I0J4762500D01*
G01*
X351631250Y-186207400D02*
G75*
G02*
X346868750Y-190969900I-4762500J0D01*
G01*
D11*
G36*
X231845016Y-177774200D02*
G01*
X231882697Y-177916413D01*
X231825533Y-178037333D01*
X231673424Y-178127223D01*
X231563393Y-178054187D01*
X231542590Y-178009371D01*
X231538839Y-177829615D01*
X231652118Y-177719569D01*
X231718021Y-177708984D01*
X231845016Y-177774200D01*
G37*
X231845016Y-177774200D02*
X231882697Y-177916413D01*
X231825533Y-178037333D01*
X231673424Y-178127223D01*
X231563393Y-178054187D01*
X231542590Y-178009371D01*
X231538839Y-177829615D01*
X231652118Y-177719569D01*
X231718021Y-177708984D01*
X231845016Y-177774200D01*
G36*
X256941704Y-178234077D02*
G01*
X257201170Y-178258812D01*
X257331903Y-178305922D01*
X257374450Y-178393569D01*
X257376083Y-178428650D01*
X257345043Y-178540192D01*
X257223651Y-178598691D01*
X257016250Y-178624018D01*
X256776439Y-178663183D01*
X256667886Y-178721958D01*
X256699860Y-178777891D01*
X256881626Y-178808531D01*
X256939627Y-178809650D01*
X257218263Y-178870287D01*
X257411043Y-179025648D01*
X257497401Y-179235913D01*
X257456771Y-179461258D01*
X257348249Y-179600861D01*
X257173837Y-179687549D01*
X256922322Y-179735618D01*
X256650920Y-179744162D01*
X256416843Y-179712273D01*
X256277305Y-179639043D01*
X256265256Y-179618038D01*
X256252927Y-179454487D01*
X256376418Y-179355190D01*
X256648011Y-179311893D01*
X256724913Y-179309145D01*
X257122083Y-179300640D01*
X256790046Y-179222782D01*
X256477333Y-179123617D01*
X256303114Y-178991574D01*
X256236629Y-178798922D01*
X256233083Y-178720664D01*
X256286010Y-178454352D01*
X256453483Y-178294431D01*
X256748538Y-178231949D01*
X256941704Y-178234077D01*
G37*
X256941704Y-178234077D02*
X257201170Y-178258812D01*
X257331903Y-178305922D01*
X257374450Y-178393569D01*
X257376083Y-178428650D01*
X257345043Y-178540192D01*
X257223651Y-178598691D01*
X257016250Y-178624018D01*
X256776439Y-178663183D01*
X256667886Y-178721958D01*
X256699860Y-178777891D01*
X256881626Y-178808531D01*
X256939627Y-178809650D01*
X257218263Y-178870287D01*
X257411043Y-179025648D01*
X257497401Y-179235913D01*
X257456771Y-179461258D01*
X257348249Y-179600861D01*
X257173837Y-179687549D01*
X256922322Y-179735618D01*
X256650920Y-179744162D01*
X256416843Y-179712273D01*
X256277305Y-179639043D01*
X256265256Y-179618038D01*
X256252927Y-179454487D01*
X256376418Y-179355190D01*
X256648011Y-179311893D01*
X256724913Y-179309145D01*
X257122083Y-179300640D01*
X256790046Y-179222782D01*
X256477333Y-179123617D01*
X256303114Y-178991574D01*
X256236629Y-178798922D01*
X256233083Y-178720664D01*
X256286010Y-178454352D01*
X256453483Y-178294431D01*
X256748538Y-178231949D01*
X256941704Y-178234077D01*
G36*
X255955714Y-177764587D02*
G01*
X255986331Y-177802479D01*
X256034414Y-177972532D01*
X256057600Y-178252436D01*
X256056554Y-178584650D01*
X256031943Y-178911633D01*
X255984431Y-179175844D01*
X255969904Y-179222922D01*
X255797583Y-179491727D01*
X255530390Y-179667596D01*
X255219394Y-179732947D01*
X254915661Y-179670198D01*
X254824257Y-179617356D01*
X254593853Y-179370198D01*
X254497909Y-179077154D01*
X254501395Y-179037264D01*
X254911488Y-179037264D01*
X254994064Y-179211589D01*
X255176765Y-179298736D01*
X255421825Y-179266258D01*
X255524846Y-179146969D01*
X255555750Y-178978984D01*
X255492976Y-178769239D01*
X255341345Y-178653010D01*
X255155889Y-178646021D01*
X254991641Y-178763996D01*
X254963083Y-178809650D01*
X254911488Y-179037264D01*
X254501395Y-179037264D01*
X254524154Y-178776856D01*
X254660315Y-178507936D01*
X254894122Y-178309028D01*
X255213302Y-178218765D01*
X255269076Y-178216984D01*
X255470246Y-178188412D01*
X255568371Y-178075731D01*
X255591427Y-178001691D01*
X255686356Y-177813033D01*
X255823487Y-177726078D01*
X255955714Y-177764587D01*
G37*
X255955714Y-177764587D02*
X255986331Y-177802479D01*
X256034414Y-177972532D01*
X256057600Y-178252436D01*
X256056554Y-178584650D01*
X256031943Y-178911633D01*
X255984431Y-179175844D01*
X255969904Y-179222922D01*
X255797583Y-179491727D01*
X255530390Y-179667596D01*
X255219394Y-179732947D01*
X254915661Y-179670198D01*
X254824257Y-179617356D01*
X254593853Y-179370198D01*
X254497909Y-179077154D01*
X254501395Y-179037264D01*
X254911488Y-179037264D01*
X254994064Y-179211589D01*
X255176765Y-179298736D01*
X255421825Y-179266258D01*
X255524846Y-179146969D01*
X255555750Y-178978984D01*
X255492976Y-178769239D01*
X255341345Y-178653010D01*
X255155889Y-178646021D01*
X254991641Y-178763996D01*
X254963083Y-178809650D01*
X254911488Y-179037264D01*
X254501395Y-179037264D01*
X254524154Y-178776856D01*
X254660315Y-178507936D01*
X254894122Y-178309028D01*
X255213302Y-178218765D01*
X255269076Y-178216984D01*
X255470246Y-178188412D01*
X255568371Y-178075731D01*
X255591427Y-178001691D01*
X255686356Y-177813033D01*
X255823487Y-177726078D01*
X255955714Y-177764587D01*
G36*
X254329804Y-178231183D02*
G01*
X254408027Y-178294010D01*
X254423146Y-178451181D01*
X254329002Y-178592442D01*
X254202391Y-178640317D01*
X254025788Y-178693860D01*
X253913368Y-178867739D01*
X253854021Y-179181827D01*
X253846665Y-179276705D01*
X253808824Y-179560734D01*
X253735969Y-179700217D01*
X253688954Y-179721982D01*
X253538383Y-179711169D01*
X253498454Y-179687466D01*
X253465290Y-179575643D01*
X253443740Y-179352039D01*
X253439083Y-179170026D01*
X253453285Y-178877609D01*
X253512706Y-178681442D01*
X253642563Y-178509628D01*
X253686570Y-178464471D01*
X253907169Y-178302612D01*
X254138852Y-178220769D01*
X254329804Y-178231183D01*
G37*
X254329804Y-178231183D02*
X254408027Y-178294010D01*
X254423146Y-178451181D01*
X254329002Y-178592442D01*
X254202391Y-178640317D01*
X254025788Y-178693860D01*
X253913368Y-178867739D01*
X253854021Y-179181827D01*
X253846665Y-179276705D01*
X253808824Y-179560734D01*
X253735969Y-179700217D01*
X253688954Y-179721982D01*
X253538383Y-179711169D01*
X253498454Y-179687466D01*
X253465290Y-179575643D01*
X253443740Y-179352039D01*
X253439083Y-179170026D01*
X253453285Y-178877609D01*
X253512706Y-178681442D01*
X253642563Y-178509628D01*
X253686570Y-178464471D01*
X253907169Y-178302612D01*
X254138852Y-178220769D01*
X254329804Y-178231183D01*
G36*
X252892038Y-178352912D02*
G01*
X253026554Y-178468762D01*
X253170507Y-178630304D01*
X253241754Y-178784591D01*
X253260276Y-178997016D01*
X253252874Y-179209477D01*
X253227416Y-179698414D01*
X252734575Y-179720203D01*
X252442381Y-179723881D01*
X252253682Y-179689391D01*
X252103638Y-179596937D01*
X251993741Y-179494001D01*
X251787645Y-179197465D01*
X251773073Y-179079696D01*
X252195182Y-179079696D01*
X252257125Y-179194717D01*
X252443539Y-179306521D01*
X252652322Y-179279028D01*
X252758374Y-179194717D01*
X252833449Y-178991367D01*
X252762266Y-178788170D01*
X252655916Y-178692158D01*
X252466199Y-178649108D01*
X252302135Y-178729637D01*
X252199779Y-178888311D01*
X252195182Y-179079696D01*
X251773073Y-179079696D01*
X251750170Y-178894598D01*
X251881322Y-178594290D01*
X251993237Y-178464471D01*
X252289155Y-178258553D01*
X252591275Y-178221377D01*
X252892038Y-178352912D01*
G37*
X252892038Y-178352912D02*
X253026554Y-178468762D01*
X253170507Y-178630304D01*
X253241754Y-178784591D01*
X253260276Y-178997016D01*
X253252874Y-179209477D01*
X253227416Y-179698414D01*
X252734575Y-179720203D01*
X252442381Y-179723881D01*
X252253682Y-179689391D01*
X252103638Y-179596937D01*
X251993741Y-179494001D01*
X251787645Y-179197465D01*
X251773073Y-179079696D01*
X252195182Y-179079696D01*
X252257125Y-179194717D01*
X252443539Y-179306521D01*
X252652322Y-179279028D01*
X252758374Y-179194717D01*
X252833449Y-178991367D01*
X252762266Y-178788170D01*
X252655916Y-178692158D01*
X252466199Y-178649108D01*
X252302135Y-178729637D01*
X252199779Y-178888311D01*
X252195182Y-179079696D01*
X251773073Y-179079696D01*
X251750170Y-178894598D01*
X251881322Y-178594290D01*
X251993237Y-178464471D01*
X252289155Y-178258553D01*
X252591275Y-178221377D01*
X252892038Y-178352912D01*
G36*
X251113636Y-178291184D02*
G01*
X251373992Y-178485505D01*
X251538698Y-178757527D01*
X251573723Y-178965343D01*
X251501779Y-179311447D01*
X251316933Y-179564501D01*
X251055565Y-179709420D01*
X250754055Y-179731121D01*
X250448783Y-179614520D01*
X250299903Y-179493496D01*
X250099393Y-179211464D01*
X250072767Y-179079696D01*
X250501848Y-179079696D01*
X250563792Y-179194717D01*
X250750206Y-179306521D01*
X250958988Y-179279028D01*
X251065041Y-179194717D01*
X251140116Y-178991367D01*
X251068932Y-178788170D01*
X250962583Y-178692158D01*
X250772865Y-178649108D01*
X250608802Y-178729637D01*
X250506445Y-178888311D01*
X250501848Y-179079696D01*
X250072767Y-179079696D01*
X250052416Y-178978984D01*
X250126970Y-178695495D01*
X250318198Y-178441568D01*
X250577451Y-178266698D01*
X250801407Y-178216984D01*
X251113636Y-178291184D01*
G37*
X251113636Y-178291184D02*
X251373992Y-178485505D01*
X251538698Y-178757527D01*
X251573723Y-178965343D01*
X251501779Y-179311447D01*
X251316933Y-179564501D01*
X251055565Y-179709420D01*
X250754055Y-179731121D01*
X250448783Y-179614520D01*
X250299903Y-179493496D01*
X250099393Y-179211464D01*
X250072767Y-179079696D01*
X250501848Y-179079696D01*
X250563792Y-179194717D01*
X250750206Y-179306521D01*
X250958988Y-179279028D01*
X251065041Y-179194717D01*
X251140116Y-178991367D01*
X251068932Y-178788170D01*
X250962583Y-178692158D01*
X250772865Y-178649108D01*
X250608802Y-178729637D01*
X250506445Y-178888311D01*
X250501848Y-179079696D01*
X250072767Y-179079696D01*
X250052416Y-178978984D01*
X250126970Y-178695495D01*
X250318198Y-178441568D01*
X250577451Y-178266698D01*
X250801407Y-178216984D01*
X251113636Y-178291184D01*
G36*
X249601098Y-177781834D02*
G01*
X249757277Y-177918833D01*
X249837386Y-178162727D01*
X249864274Y-178539055D01*
X249865264Y-178728019D01*
X249849739Y-179157712D01*
X249791912Y-179446414D01*
X249668233Y-179621422D01*
X249455151Y-179710036D01*
X249129117Y-179739557D01*
X248991426Y-179740984D01*
X248640421Y-179725468D01*
X248444575Y-179677494D01*
X248395627Y-179629426D01*
X248380002Y-179501961D01*
X248371809Y-179246496D01*
X248371810Y-179105984D01*
X248782416Y-179105984D01*
X248798311Y-179249954D01*
X248878720Y-179305808D01*
X249072726Y-179303787D01*
X249099916Y-179301594D01*
X249315972Y-179264280D01*
X249406096Y-179183409D01*
X249417416Y-179105984D01*
X249380980Y-178987738D01*
X249243332Y-178928280D01*
X249099916Y-178910373D01*
X248892026Y-178904275D01*
X248802582Y-178953067D01*
X248782499Y-179086988D01*
X248782416Y-179105984D01*
X248371810Y-179105984D01*
X248371813Y-178904236D01*
X248377117Y-178634593D01*
X248385111Y-178343984D01*
X248782416Y-178343984D01*
X248798311Y-178487954D01*
X248878720Y-178543808D01*
X249072726Y-178541787D01*
X249099916Y-178539594D01*
X249315972Y-178502280D01*
X249406096Y-178421409D01*
X249417416Y-178343984D01*
X249380980Y-178225738D01*
X249243332Y-178166280D01*
X249099916Y-178148373D01*
X248892026Y-178142275D01*
X248802582Y-178191067D01*
X248782499Y-178324988D01*
X248782416Y-178343984D01*
X248385111Y-178343984D01*
X248401416Y-177751317D01*
X248969134Y-177726368D01*
X249345999Y-177726192D01*
X249601098Y-177781834D01*
G37*
X249601098Y-177781834D02*
X249757277Y-177918833D01*
X249837386Y-178162727D01*
X249864274Y-178539055D01*
X249865264Y-178728019D01*
X249849739Y-179157712D01*
X249791912Y-179446414D01*
X249668233Y-179621422D01*
X249455151Y-179710036D01*
X249129117Y-179739557D01*
X248991426Y-179740984D01*
X248640421Y-179725468D01*
X248444575Y-179677494D01*
X248395627Y-179629426D01*
X248380002Y-179501961D01*
X248371809Y-179246496D01*
X248371810Y-179105984D01*
X248782416Y-179105984D01*
X248798311Y-179249954D01*
X248878720Y-179305808D01*
X249072726Y-179303787D01*
X249099916Y-179301594D01*
X249315972Y-179264280D01*
X249406096Y-179183409D01*
X249417416Y-179105984D01*
X249380980Y-178987738D01*
X249243332Y-178928280D01*
X249099916Y-178910373D01*
X248892026Y-178904275D01*
X248802582Y-178953067D01*
X248782499Y-179086988D01*
X248782416Y-179105984D01*
X248371810Y-179105984D01*
X248371813Y-178904236D01*
X248377117Y-178634593D01*
X248385111Y-178343984D01*
X248782416Y-178343984D01*
X248798311Y-178487954D01*
X248878720Y-178543808D01*
X249072726Y-178541787D01*
X249099916Y-178539594D01*
X249315972Y-178502280D01*
X249406096Y-178421409D01*
X249417416Y-178343984D01*
X249380980Y-178225738D01*
X249243332Y-178166280D01*
X249099916Y-178148373D01*
X248892026Y-178142275D01*
X248802582Y-178191067D01*
X248782499Y-178324988D01*
X248782416Y-178343984D01*
X248385111Y-178343984D01*
X248401416Y-177751317D01*
X248969134Y-177726368D01*
X249345999Y-177726192D01*
X249601098Y-177781834D01*
G36*
X246057038Y-177721470D02*
G01*
X246258791Y-177770546D01*
X246412868Y-177873632D01*
X246454488Y-177913359D01*
X246668643Y-178206835D01*
X246717270Y-178505922D01*
X246603403Y-178832395D01*
X246586568Y-178861701D01*
X246477244Y-179062795D01*
X246454490Y-179184074D01*
X246512796Y-179287832D01*
X246545568Y-179325184D01*
X246633540Y-179498242D01*
X246614960Y-179656555D01*
X246500570Y-179738933D01*
X246472580Y-179740984D01*
X246346282Y-179683951D01*
X246170505Y-179541690D01*
X246115416Y-179486984D01*
X245940104Y-179327443D01*
X245799471Y-179239174D01*
X245771492Y-179232984D01*
X245686303Y-179306318D01*
X245620905Y-179483099D01*
X245620116Y-179486984D01*
X245531020Y-179670598D01*
X245391539Y-179747059D01*
X245254008Y-179701646D01*
X245193141Y-179607059D01*
X245167501Y-179452337D01*
X245150955Y-179179468D01*
X245143505Y-178839396D01*
X245145149Y-178483062D01*
X245145552Y-178470984D01*
X245649750Y-178470984D01*
X245683558Y-178713509D01*
X245798509Y-178815928D01*
X246014888Y-178790943D01*
X246108491Y-178758258D01*
X246211513Y-178638969D01*
X246242416Y-178470984D01*
X246187495Y-178259884D01*
X246011922Y-178152549D01*
X245812158Y-178132317D01*
X245705382Y-178163301D01*
X245658331Y-178285086D01*
X245649750Y-178470984D01*
X245145552Y-178470984D01*
X245155888Y-178161410D01*
X245175722Y-177925381D01*
X245193141Y-177842908D01*
X245271112Y-177762396D01*
X245449264Y-177720538D01*
X245747323Y-177708984D01*
X246057038Y-177721470D01*
G37*
X246057038Y-177721470D02*
X246258791Y-177770546D01*
X246412868Y-177873632D01*
X246454488Y-177913359D01*
X246668643Y-178206835D01*
X246717270Y-178505922D01*
X246603403Y-178832395D01*
X246586568Y-178861701D01*
X246477244Y-179062795D01*
X246454490Y-179184074D01*
X246512796Y-179287832D01*
X246545568Y-179325184D01*
X246633540Y-179498242D01*
X246614960Y-179656555D01*
X246500570Y-179738933D01*
X246472580Y-179740984D01*
X246346282Y-179683951D01*
X246170505Y-179541690D01*
X246115416Y-179486984D01*
X245940104Y-179327443D01*
X245799471Y-179239174D01*
X245771492Y-179232984D01*
X245686303Y-179306318D01*
X245620905Y-179483099D01*
X245620116Y-179486984D01*
X245531020Y-179670598D01*
X245391539Y-179747059D01*
X245254008Y-179701646D01*
X245193141Y-179607059D01*
X245167501Y-179452337D01*
X245150955Y-179179468D01*
X245143505Y-178839396D01*
X245145149Y-178483062D01*
X245145552Y-178470984D01*
X245649750Y-178470984D01*
X245683558Y-178713509D01*
X245798509Y-178815928D01*
X246014888Y-178790943D01*
X246108491Y-178758258D01*
X246211513Y-178638969D01*
X246242416Y-178470984D01*
X246187495Y-178259884D01*
X246011922Y-178152549D01*
X245812158Y-178132317D01*
X245705382Y-178163301D01*
X245658331Y-178285086D01*
X245649750Y-178470984D01*
X245145552Y-178470984D01*
X245155888Y-178161410D01*
X245175722Y-177925381D01*
X245193141Y-177842908D01*
X245271112Y-177762396D01*
X245449264Y-177720538D01*
X245747323Y-177708984D01*
X246057038Y-177721470D01*
G36*
X244704417Y-177755316D02*
G01*
X244894913Y-177773553D01*
X244986328Y-177815385D01*
X245013754Y-177890169D01*
X245014750Y-177920650D01*
X244990559Y-178022258D01*
X244891167Y-178079028D01*
X244676344Y-178108602D01*
X244570250Y-178115575D01*
X244311681Y-178136112D01*
X244179779Y-178176583D01*
X244132000Y-178263326D01*
X244125750Y-178390741D01*
X244140138Y-178552356D01*
X244216004Y-178623094D01*
X244402401Y-178640096D01*
X244455358Y-178640317D01*
X244681325Y-178665429D01*
X244813563Y-178729004D01*
X244823886Y-178746150D01*
X244833323Y-178931014D01*
X244694953Y-179036074D01*
X244462472Y-179063650D01*
X244249658Y-179074534D01*
X244152207Y-179139439D01*
X244116242Y-179306748D01*
X244109694Y-179380446D01*
X244053015Y-179594363D01*
X243948195Y-179723718D01*
X243831378Y-179743462D01*
X243741361Y-179635684D01*
X243724725Y-179505449D01*
X243715738Y-179247578D01*
X243715267Y-178903633D01*
X243720450Y-178634593D01*
X243744750Y-177751317D01*
X244379750Y-177751317D01*
X244704417Y-177755316D01*
G37*
X244704417Y-177755316D02*
X244894913Y-177773553D01*
X244986328Y-177815385D01*
X245013754Y-177890169D01*
X245014750Y-177920650D01*
X244990559Y-178022258D01*
X244891167Y-178079028D01*
X244676344Y-178108602D01*
X244570250Y-178115575D01*
X244311681Y-178136112D01*
X244179779Y-178176583D01*
X244132000Y-178263326D01*
X244125750Y-178390741D01*
X244140138Y-178552356D01*
X244216004Y-178623094D01*
X244402401Y-178640096D01*
X244455358Y-178640317D01*
X244681325Y-178665429D01*
X244813563Y-178729004D01*
X244823886Y-178746150D01*
X244833323Y-178931014D01*
X244694953Y-179036074D01*
X244462472Y-179063650D01*
X244249658Y-179074534D01*
X244152207Y-179139439D01*
X244116242Y-179306748D01*
X244109694Y-179380446D01*
X244053015Y-179594363D01*
X243948195Y-179723718D01*
X243831378Y-179743462D01*
X243741361Y-179635684D01*
X243724725Y-179505449D01*
X243715738Y-179247578D01*
X243715267Y-178903633D01*
X243720450Y-178634593D01*
X243744750Y-177751317D01*
X244379750Y-177751317D01*
X244704417Y-177755316D01*
G36*
X239828642Y-177780712D02*
G01*
X239943840Y-177919955D01*
X239977083Y-178089916D01*
X240000980Y-178207325D01*
X240104611Y-178244671D01*
X240270953Y-178233340D01*
X240566142Y-178276253D01*
X240828849Y-178446551D01*
X241014179Y-178702743D01*
X241077750Y-178978984D01*
X241001490Y-179268529D01*
X240805146Y-179523654D01*
X240537365Y-179695710D01*
X240315750Y-179740984D01*
X240023852Y-179665426D01*
X239801237Y-179493496D01*
X239680065Y-179361552D01*
X239606629Y-179232833D01*
X239573130Y-179079696D01*
X240003182Y-179079696D01*
X240065125Y-179194717D01*
X240251539Y-179306521D01*
X240460322Y-179279028D01*
X240566374Y-179194717D01*
X240641449Y-178991367D01*
X240570266Y-178788170D01*
X240463916Y-178692158D01*
X240274199Y-178649108D01*
X240110135Y-178729637D01*
X240007779Y-178888311D01*
X240003182Y-179079696D01*
X239573130Y-179079696D01*
X239569039Y-179060999D01*
X239555406Y-178799709D01*
X239553750Y-178528888D01*
X239562032Y-178146531D01*
X239589413Y-177907989D01*
X239639695Y-177788440D01*
X239670432Y-177766991D01*
X239828642Y-177780712D01*
G37*
X239828642Y-177780712D02*
X239943840Y-177919955D01*
X239977083Y-178089916D01*
X240000980Y-178207325D01*
X240104611Y-178244671D01*
X240270953Y-178233340D01*
X240566142Y-178276253D01*
X240828849Y-178446551D01*
X241014179Y-178702743D01*
X241077750Y-178978984D01*
X241001490Y-179268529D01*
X240805146Y-179523654D01*
X240537365Y-179695710D01*
X240315750Y-179740984D01*
X240023852Y-179665426D01*
X239801237Y-179493496D01*
X239680065Y-179361552D01*
X239606629Y-179232833D01*
X239573130Y-179079696D01*
X240003182Y-179079696D01*
X240065125Y-179194717D01*
X240251539Y-179306521D01*
X240460322Y-179279028D01*
X240566374Y-179194717D01*
X240641449Y-178991367D01*
X240570266Y-178788170D01*
X240463916Y-178692158D01*
X240274199Y-178649108D01*
X240110135Y-178729637D01*
X240007779Y-178888311D01*
X240003182Y-179079696D01*
X239573130Y-179079696D01*
X239569039Y-179060999D01*
X239555406Y-178799709D01*
X239553750Y-178528888D01*
X239562032Y-178146531D01*
X239589413Y-177907989D01*
X239639695Y-177788440D01*
X239670432Y-177766991D01*
X239828642Y-177780712D01*
G36*
X238492572Y-177765626D02*
G01*
X238544901Y-177830198D01*
X238576195Y-177977498D01*
X238594913Y-178239992D01*
X238604592Y-178495320D01*
X238613739Y-178854693D01*
X238605659Y-179089453D01*
X238570213Y-179244170D01*
X238497259Y-179363417D01*
X238378272Y-179490154D01*
X238080910Y-179697965D01*
X237778366Y-179737099D01*
X237478528Y-179607530D01*
X237345903Y-179493496D01*
X237139851Y-179198086D01*
X237125239Y-179079696D01*
X237547848Y-179079696D01*
X237609792Y-179194717D01*
X237796206Y-179306521D01*
X238004988Y-179279028D01*
X238111041Y-179194717D01*
X238186116Y-178991367D01*
X238114932Y-178788170D01*
X238008583Y-178692158D01*
X237818865Y-178649108D01*
X237654802Y-178729637D01*
X237552445Y-178888311D01*
X237547848Y-179079696D01*
X237125239Y-179079696D01*
X237102669Y-178896834D01*
X237234306Y-178595696D01*
X237354879Y-178455495D01*
X237559425Y-178285123D01*
X237751139Y-178226502D01*
X237901151Y-178232866D01*
X238097931Y-178242049D01*
X238184353Y-178179875D01*
X238216188Y-178009008D01*
X238266545Y-177817115D01*
X238384095Y-177752389D01*
X238410750Y-177751317D01*
X238492572Y-177765626D01*
G37*
X238492572Y-177765626D02*
X238544901Y-177830198D01*
X238576195Y-177977498D01*
X238594913Y-178239992D01*
X238604592Y-178495320D01*
X238613739Y-178854693D01*
X238605659Y-179089453D01*
X238570213Y-179244170D01*
X238497259Y-179363417D01*
X238378272Y-179490154D01*
X238080910Y-179697965D01*
X237778366Y-179737099D01*
X237478528Y-179607530D01*
X237345903Y-179493496D01*
X237139851Y-179198086D01*
X237125239Y-179079696D01*
X237547848Y-179079696D01*
X237609792Y-179194717D01*
X237796206Y-179306521D01*
X238004988Y-179279028D01*
X238111041Y-179194717D01*
X238186116Y-178991367D01*
X238114932Y-178788170D01*
X238008583Y-178692158D01*
X237818865Y-178649108D01*
X237654802Y-178729637D01*
X237552445Y-178888311D01*
X237547848Y-179079696D01*
X237125239Y-179079696D01*
X237102669Y-178896834D01*
X237234306Y-178595696D01*
X237354879Y-178455495D01*
X237559425Y-178285123D01*
X237751139Y-178226502D01*
X237901151Y-178232866D01*
X238097931Y-178242049D01*
X238184353Y-178179875D01*
X238216188Y-178009008D01*
X238266545Y-177817115D01*
X238384095Y-177752389D01*
X238410750Y-177751317D01*
X238492572Y-177765626D01*
G36*
X236503003Y-178279609D02*
G01*
X236742903Y-178438232D01*
X236924495Y-178648970D01*
X237000825Y-178867939D01*
X236998544Y-178914932D01*
X236963123Y-179024050D01*
X236868377Y-179089601D01*
X236673235Y-179129756D01*
X236463416Y-179151724D01*
X236201208Y-179185595D01*
X236074098Y-179225407D01*
X236085654Y-179259735D01*
X236271225Y-179300098D01*
X236420850Y-179298662D01*
X236596760Y-179326053D01*
X236658776Y-179434505D01*
X236633142Y-179612047D01*
X236494402Y-179715049D01*
X236282726Y-179740938D01*
X236038287Y-179687144D01*
X235801256Y-179551095D01*
X235737237Y-179493496D01*
X235536727Y-179211464D01*
X235489750Y-178978984D01*
X235556647Y-178724984D01*
X236040083Y-178724984D01*
X236073505Y-178784648D01*
X236239233Y-178809572D01*
X236251750Y-178809650D01*
X236423853Y-178787105D01*
X236465662Y-178729013D01*
X236463416Y-178724984D01*
X236343645Y-178653118D01*
X236251750Y-178640317D01*
X236091755Y-178680358D01*
X236040083Y-178724984D01*
X235556647Y-178724984D01*
X235566009Y-178689438D01*
X235762353Y-178434313D01*
X236030134Y-178262257D01*
X236251750Y-178216983D01*
X236503003Y-178279609D01*
G37*
X236503003Y-178279609D02*
X236742903Y-178438232D01*
X236924495Y-178648970D01*
X237000825Y-178867939D01*
X236998544Y-178914932D01*
X236963123Y-179024050D01*
X236868377Y-179089601D01*
X236673235Y-179129756D01*
X236463416Y-179151724D01*
X236201208Y-179185595D01*
X236074098Y-179225407D01*
X236085654Y-179259735D01*
X236271225Y-179300098D01*
X236420850Y-179298662D01*
X236596760Y-179326053D01*
X236658776Y-179434505D01*
X236633142Y-179612047D01*
X236494402Y-179715049D01*
X236282726Y-179740938D01*
X236038287Y-179687144D01*
X235801256Y-179551095D01*
X235737237Y-179493496D01*
X235536727Y-179211464D01*
X235489750Y-178978984D01*
X235556647Y-178724984D01*
X236040083Y-178724984D01*
X236073505Y-178784648D01*
X236239233Y-178809572D01*
X236251750Y-178809650D01*
X236423853Y-178787105D01*
X236465662Y-178729013D01*
X236463416Y-178724984D01*
X236343645Y-178653118D01*
X236251750Y-178640317D01*
X236091755Y-178680358D01*
X236040083Y-178724984D01*
X235556647Y-178724984D01*
X235566009Y-178689438D01*
X235762353Y-178434313D01*
X236030134Y-178262257D01*
X236251750Y-178216983D01*
X236503003Y-178279609D01*
G36*
X234822007Y-178290748D02*
G01*
X235077220Y-178468762D01*
X235221158Y-178630280D01*
X235292409Y-178784541D01*
X235310945Y-178996920D01*
X235303541Y-179209595D01*
X235281503Y-179488057D01*
X235242194Y-179636075D01*
X235170128Y-179692534D01*
X235108750Y-179698650D01*
X235006943Y-179673193D01*
X234946165Y-179570618D01*
X234908213Y-179351621D01*
X234897083Y-179241594D01*
X234821803Y-178883280D01*
X234694464Y-178674348D01*
X234542500Y-178614826D01*
X234393346Y-178704746D01*
X234274438Y-178944136D01*
X234219750Y-179240860D01*
X234173161Y-179541334D01*
X234099223Y-179694018D01*
X234046288Y-179722010D01*
X233895712Y-179711170D01*
X233855788Y-179687466D01*
X233814052Y-179558383D01*
X233798634Y-179323078D01*
X233806916Y-179042176D01*
X233836283Y-178776298D01*
X233884119Y-178586067D01*
X233904942Y-178548313D01*
X234177880Y-178312914D01*
X234496525Y-178226180D01*
X234822007Y-178290748D01*
G37*
X234822007Y-178290748D02*
X235077220Y-178468762D01*
X235221158Y-178630280D01*
X235292409Y-178784541D01*
X235310945Y-178996920D01*
X235303541Y-179209595D01*
X235281503Y-179488057D01*
X235242194Y-179636075D01*
X235170128Y-179692534D01*
X235108750Y-179698650D01*
X235006943Y-179673193D01*
X234946165Y-179570618D01*
X234908213Y-179351621D01*
X234897083Y-179241594D01*
X234821803Y-178883280D01*
X234694464Y-178674348D01*
X234542500Y-178614826D01*
X234393346Y-178704746D01*
X234274438Y-178944136D01*
X234219750Y-179240860D01*
X234173161Y-179541334D01*
X234099223Y-179694018D01*
X234046288Y-179722010D01*
X233895712Y-179711170D01*
X233855788Y-179687466D01*
X233814052Y-179558383D01*
X233798634Y-179323078D01*
X233806916Y-179042176D01*
X233836283Y-178776298D01*
X233884119Y-178586067D01*
X233904942Y-178548313D01*
X234177880Y-178312914D01*
X234496525Y-178226180D01*
X234822007Y-178290748D01*
G36*
X231799460Y-178257741D02*
G01*
X231856331Y-178310479D01*
X231896446Y-178459200D01*
X231921930Y-178717000D01*
X231931585Y-179024160D01*
X231924212Y-179320958D01*
X231898612Y-179547675D01*
X231882358Y-179607059D01*
X231767370Y-179726909D01*
X231612775Y-179718821D01*
X231566861Y-179684539D01*
X231540221Y-179578552D01*
X231520355Y-179348365D01*
X231510789Y-179039080D01*
X231510416Y-178962215D01*
X231517374Y-178611142D01*
X231542465Y-178395489D01*
X231592013Y-178281752D01*
X231645961Y-178244322D01*
X231799460Y-178257741D01*
G37*
X231799460Y-178257741D02*
X231856331Y-178310479D01*
X231896446Y-178459200D01*
X231921930Y-178717000D01*
X231931585Y-179024160D01*
X231924212Y-179320958D01*
X231898612Y-179547675D01*
X231882358Y-179607059D01*
X231767370Y-179726909D01*
X231612775Y-179718821D01*
X231566861Y-179684539D01*
X231540221Y-179578552D01*
X231520355Y-179348365D01*
X231510789Y-179039080D01*
X231510416Y-178962215D01*
X231517374Y-178611142D01*
X231542465Y-178395489D01*
X231592013Y-178281752D01*
X231645961Y-178244322D01*
X231799460Y-178257741D01*
G36*
X231058340Y-178245641D02*
G01*
X231190125Y-178318058D01*
X231198408Y-178333666D01*
X231188334Y-178491993D01*
X231033227Y-178598490D01*
X230752877Y-178640161D01*
X230731483Y-178640317D01*
X230525752Y-178660016D01*
X230415586Y-178708937D01*
X230409750Y-178724984D01*
X230483875Y-178782206D01*
X230664849Y-178809312D01*
X230689901Y-178809650D01*
X230934644Y-178843125D01*
X231123817Y-178922086D01*
X231246902Y-179103801D01*
X231269345Y-179342659D01*
X231191145Y-179559623D01*
X231123817Y-179628547D01*
X230957540Y-179692044D01*
X230706870Y-179729093D01*
X230431071Y-179738397D01*
X230189402Y-179718655D01*
X230041126Y-179668568D01*
X230026457Y-179652608D01*
X230019132Y-179515109D01*
X230147282Y-179397514D01*
X230377084Y-179323082D01*
X230525950Y-179309145D01*
X230875416Y-179300640D01*
X230536750Y-179222638D01*
X230230538Y-179096570D01*
X230039238Y-178904619D01*
X229977197Y-178678182D01*
X230058761Y-178448654D01*
X230141250Y-178357106D01*
X230313492Y-178271631D01*
X230562262Y-178223708D01*
X230829798Y-178214618D01*
X231058340Y-178245641D01*
G37*
X231058340Y-178245641D02*
X231190125Y-178318058D01*
X231198408Y-178333666D01*
X231188334Y-178491993D01*
X231033227Y-178598490D01*
X230752877Y-178640161D01*
X230731483Y-178640317D01*
X230525752Y-178660016D01*
X230415586Y-178708937D01*
X230409750Y-178724984D01*
X230483875Y-178782206D01*
X230664849Y-178809312D01*
X230689901Y-178809650D01*
X230934644Y-178843125D01*
X231123817Y-178922086D01*
X231246902Y-179103801D01*
X231269345Y-179342659D01*
X231191145Y-179559623D01*
X231123817Y-179628547D01*
X230957540Y-179692044D01*
X230706870Y-179729093D01*
X230431071Y-179738397D01*
X230189402Y-179718655D01*
X230041126Y-179668568D01*
X230026457Y-179652608D01*
X230019132Y-179515109D01*
X230147282Y-179397514D01*
X230377084Y-179323082D01*
X230525950Y-179309145D01*
X230875416Y-179300640D01*
X230536750Y-179222638D01*
X230230538Y-179096570D01*
X230039238Y-178904619D01*
X229977197Y-178678182D01*
X230058761Y-178448654D01*
X230141250Y-178357106D01*
X230313492Y-178271631D01*
X230562262Y-178223708D01*
X230829798Y-178214618D01*
X231058340Y-178245641D01*
G36*
X229459662Y-178362699D02*
G01*
X229561116Y-178439988D01*
X229748935Y-178641978D01*
X229803571Y-178837902D01*
X229800446Y-178884488D01*
X229772552Y-179008793D01*
X229697561Y-179080828D01*
X229533755Y-179121216D01*
X229266750Y-179148317D01*
X228990140Y-179182616D01*
X228860720Y-179225456D01*
X228869395Y-179262121D01*
X229033657Y-179299353D01*
X229177207Y-179284106D01*
X229395756Y-179298735D01*
X229486699Y-179369964D01*
X229550420Y-179489909D01*
X229478477Y-179592072D01*
X229437871Y-179623145D01*
X229152445Y-179736458D01*
X228845708Y-179695982D01*
X228554348Y-179507019D01*
X228540570Y-179493496D01*
X228334779Y-179197107D01*
X228297601Y-178894180D01*
X228371631Y-178724984D01*
X228843416Y-178724984D01*
X228876838Y-178784648D01*
X229042566Y-178809572D01*
X229055083Y-178809650D01*
X229227186Y-178787105D01*
X229268996Y-178729013D01*
X229266750Y-178724984D01*
X229146978Y-178653118D01*
X229055083Y-178640317D01*
X228895088Y-178680358D01*
X228843416Y-178724984D01*
X228371631Y-178724984D01*
X228429034Y-178593790D01*
X228540570Y-178464471D01*
X228834933Y-178261866D01*
X229142266Y-178227919D01*
X229459662Y-178362699D01*
G37*
X229459662Y-178362699D02*
X229561116Y-178439988D01*
X229748935Y-178641978D01*
X229803571Y-178837902D01*
X229800446Y-178884488D01*
X229772552Y-179008793D01*
X229697561Y-179080828D01*
X229533755Y-179121216D01*
X229266750Y-179148317D01*
X228990140Y-179182616D01*
X228860720Y-179225456D01*
X228869395Y-179262121D01*
X229033657Y-179299353D01*
X229177207Y-179284106D01*
X229395756Y-179298735D01*
X229486699Y-179369964D01*
X229550420Y-179489909D01*
X229478477Y-179592072D01*
X229437871Y-179623145D01*
X229152445Y-179736458D01*
X228845708Y-179695982D01*
X228554348Y-179507019D01*
X228540570Y-179493496D01*
X228334779Y-179197107D01*
X228297601Y-178894180D01*
X228371631Y-178724984D01*
X228843416Y-178724984D01*
X228876838Y-178784648D01*
X229042566Y-178809572D01*
X229055083Y-178809650D01*
X229227186Y-178787105D01*
X229268996Y-178729013D01*
X229266750Y-178724984D01*
X229146978Y-178653118D01*
X229055083Y-178640317D01*
X228895088Y-178680358D01*
X228843416Y-178724984D01*
X228371631Y-178724984D01*
X228429034Y-178593790D01*
X228540570Y-178464471D01*
X228834933Y-178261866D01*
X229142266Y-178227919D01*
X229459662Y-178362699D01*
G36*
X227500359Y-177723676D02*
G01*
X227708813Y-177780406D01*
X227879434Y-177898154D01*
X227899720Y-177916607D01*
X228018888Y-178044428D01*
X228086427Y-178184689D01*
X228116619Y-178388916D01*
X228123742Y-178708636D01*
X228123750Y-178724984D01*
X228117268Y-179050547D01*
X228088305Y-179258503D01*
X228022580Y-179400376D01*
X227905813Y-179527693D01*
X227899720Y-179533360D01*
X227727658Y-179660202D01*
X227524510Y-179722947D01*
X227224657Y-179740903D01*
X227194164Y-179740984D01*
X226921998Y-179731763D01*
X226723299Y-179707962D01*
X226656194Y-179684539D01*
X226631057Y-179578510D01*
X226613417Y-179347720D01*
X226603397Y-179036582D01*
X226601351Y-178724984D01*
X227023083Y-178724984D01*
X227025546Y-179034467D01*
X227042790Y-179211568D01*
X227089596Y-179293240D01*
X227180743Y-179316432D01*
X227260149Y-179317650D01*
X227471699Y-179283341D01*
X227598816Y-179216050D01*
X227660355Y-179074411D01*
X227696456Y-178836435D01*
X227700416Y-178724983D01*
X227669324Y-178402814D01*
X227563692Y-178215501D01*
X227364990Y-178138100D01*
X227260149Y-178132317D01*
X227136356Y-178138475D01*
X227065516Y-178181586D01*
X227032847Y-178298599D01*
X227023570Y-178526467D01*
X227023083Y-178724984D01*
X226601351Y-178724984D01*
X226601118Y-178689509D01*
X226606701Y-178350913D01*
X226620270Y-178065206D01*
X226641945Y-177876800D01*
X226651141Y-177842908D01*
X226731468Y-177761033D01*
X226914894Y-177719294D01*
X227189111Y-177708984D01*
X227500359Y-177723676D01*
G37*
X227500359Y-177723676D02*
X227708813Y-177780406D01*
X227879434Y-177898154D01*
X227899720Y-177916607D01*
X228018888Y-178044428D01*
X228086427Y-178184689D01*
X228116619Y-178388916D01*
X228123742Y-178708636D01*
X228123750Y-178724984D01*
X228117268Y-179050547D01*
X228088305Y-179258503D01*
X228022580Y-179400376D01*
X227905813Y-179527693D01*
X227899720Y-179533360D01*
X227727658Y-179660202D01*
X227524510Y-179722947D01*
X227224657Y-179740903D01*
X227194164Y-179740984D01*
X226921998Y-179731763D01*
X226723299Y-179707962D01*
X226656194Y-179684539D01*
X226631057Y-179578510D01*
X226613417Y-179347720D01*
X226603397Y-179036582D01*
X226601351Y-178724984D01*
X227023083Y-178724984D01*
X227025546Y-179034467D01*
X227042790Y-179211568D01*
X227089596Y-179293240D01*
X227180743Y-179316432D01*
X227260149Y-179317650D01*
X227471699Y-179283341D01*
X227598816Y-179216050D01*
X227660355Y-179074411D01*
X227696456Y-178836435D01*
X227700416Y-178724983D01*
X227669324Y-178402814D01*
X227563692Y-178215501D01*
X227364990Y-178138100D01*
X227260149Y-178132317D01*
X227136356Y-178138475D01*
X227065516Y-178181586D01*
X227032847Y-178298599D01*
X227023570Y-178526467D01*
X227023083Y-178724984D01*
X226601351Y-178724984D01*
X226601118Y-178689509D01*
X226606701Y-178350913D01*
X226620270Y-178065206D01*
X226641945Y-177876800D01*
X226651141Y-177842908D01*
X226731468Y-177761033D01*
X226914894Y-177719294D01*
X227189111Y-177708984D01*
X227500359Y-177723676D01*
G36*
X247550785Y-178357183D02*
G01*
X247526828Y-178610838D01*
X247470787Y-178807532D01*
X247399048Y-179058125D01*
X247368612Y-179238803D01*
X247376918Y-179295040D01*
X247479529Y-179296541D01*
X247642480Y-179231344D01*
X247810091Y-179164292D01*
X247936668Y-179205853D01*
X248039231Y-179298835D01*
X248160432Y-179453963D01*
X248159277Y-179596226D01*
X248125326Y-179674547D01*
X248038122Y-179895706D01*
X248002642Y-180036345D01*
X247918845Y-180183085D01*
X247773395Y-180241248D01*
X247656454Y-180195466D01*
X247609541Y-180071725D01*
X247597083Y-179938539D01*
X247576288Y-179811213D01*
X247482683Y-179754402D01*
X247269435Y-179741000D01*
X247255759Y-179740984D01*
X247000073Y-179711751D01*
X246872624Y-179630896D01*
X246869396Y-179623615D01*
X246867955Y-179474853D01*
X246916854Y-179228284D01*
X247000023Y-178933559D01*
X247101396Y-178640330D01*
X247204902Y-178398250D01*
X247294474Y-178256971D01*
X247316689Y-178241485D01*
X247480057Y-178231560D01*
X247550785Y-178357183D01*
G37*
X247550785Y-178357183D02*
X247526828Y-178610838D01*
X247470787Y-178807532D01*
X247399048Y-179058125D01*
X247368612Y-179238803D01*
X247376918Y-179295040D01*
X247479529Y-179296541D01*
X247642480Y-179231344D01*
X247810091Y-179164292D01*
X247936668Y-179205853D01*
X248039231Y-179298835D01*
X248160432Y-179453963D01*
X248159277Y-179596226D01*
X248125326Y-179674547D01*
X248038122Y-179895706D01*
X248002642Y-180036345D01*
X247918845Y-180183085D01*
X247773395Y-180241248D01*
X247656454Y-180195466D01*
X247609541Y-180071725D01*
X247597083Y-179938539D01*
X247576288Y-179811213D01*
X247482683Y-179754402D01*
X247269435Y-179741000D01*
X247255759Y-179740984D01*
X247000073Y-179711751D01*
X246872624Y-179630896D01*
X246869396Y-179623615D01*
X246867955Y-179474853D01*
X246916854Y-179228284D01*
X247000023Y-178933559D01*
X247101396Y-178640330D01*
X247204902Y-178398250D01*
X247294474Y-178256971D01*
X247316689Y-178241485D01*
X247480057Y-178231560D01*
X247550785Y-178357183D01*
G36*
X242632208Y-178269653D02*
G01*
X242680508Y-178319773D01*
X242709308Y-178438339D01*
X242723599Y-178654018D01*
X242728372Y-178995473D01*
X242728750Y-179231824D01*
X242725613Y-179657682D01*
X242713620Y-179942444D01*
X242688893Y-180114271D01*
X242647556Y-180201327D01*
X242591236Y-180230814D01*
X242448170Y-180186855D01*
X242400736Y-180119215D01*
X242352665Y-179909519D01*
X242347750Y-179835727D01*
X242313162Y-179739535D01*
X242181106Y-179714324D01*
X242053879Y-179724627D01*
X241831317Y-179722077D01*
X241646795Y-179631111D01*
X241499254Y-179498180D01*
X241350418Y-179332751D01*
X241276388Y-179178728D01*
X241256440Y-178970069D01*
X241263958Y-178748372D01*
X241285996Y-178469910D01*
X241325305Y-178321892D01*
X241397371Y-178265433D01*
X241458750Y-178259317D01*
X241560556Y-178284774D01*
X241621334Y-178387349D01*
X241659286Y-178606346D01*
X241670416Y-178716373D01*
X241745710Y-179074838D01*
X241873051Y-179283780D01*
X242025009Y-179343200D01*
X242174152Y-179253098D01*
X242293049Y-179013473D01*
X242347750Y-178716373D01*
X242382043Y-178447947D01*
X242432865Y-178309541D01*
X242518418Y-178261851D01*
X242559416Y-178259317D01*
X242632208Y-178269653D01*
G37*
X242632208Y-178269653D02*
X242680508Y-178319773D01*
X242709308Y-178438339D01*
X242723599Y-178654018D01*
X242728372Y-178995473D01*
X242728750Y-179231824D01*
X242725613Y-179657682D01*
X242713620Y-179942444D01*
X242688893Y-180114271D01*
X242647556Y-180201327D01*
X242591236Y-180230814D01*
X242448170Y-180186855D01*
X242400736Y-180119215D01*
X242352665Y-179909519D01*
X242347750Y-179835727D01*
X242313162Y-179739535D01*
X242181106Y-179714324D01*
X242053879Y-179724627D01*
X241831317Y-179722077D01*
X241646795Y-179631111D01*
X241499254Y-179498180D01*
X241350418Y-179332751D01*
X241276388Y-179178728D01*
X241256440Y-178970069D01*
X241263958Y-178748372D01*
X241285996Y-178469910D01*
X241325305Y-178321892D01*
X241397371Y-178265433D01*
X241458750Y-178259317D01*
X241560556Y-178284774D01*
X241621334Y-178387349D01*
X241659286Y-178606346D01*
X241670416Y-178716373D01*
X241745710Y-179074838D01*
X241873051Y-179283780D01*
X242025009Y-179343200D01*
X242174152Y-179253098D01*
X242293049Y-179013473D01*
X242347750Y-178716373D01*
X242382043Y-178447947D01*
X242432865Y-178309541D01*
X242518418Y-178261851D01*
X242559416Y-178259317D01*
X242632208Y-178269653D01*
G36*
X233234632Y-178336629D02*
G01*
X233338180Y-178413566D01*
X233455662Y-178530210D01*
X233526522Y-178661493D01*
X233564531Y-178854589D01*
X233583457Y-179156675D01*
X233587198Y-179266792D01*
X233591730Y-179614439D01*
X233572965Y-179840511D01*
X233522046Y-179992148D01*
X233430116Y-180116493D01*
X233426879Y-180120026D01*
X233240245Y-180251979D01*
X232990254Y-180343626D01*
X232729788Y-180386624D01*
X232511731Y-180372625D01*
X232388964Y-180293285D01*
X232385059Y-180284433D01*
X232392237Y-180113552D01*
X232562205Y-179988435D01*
X232832658Y-179918549D01*
X233072076Y-179856849D01*
X233171688Y-179787601D01*
X233126842Y-179734500D01*
X232932889Y-179721244D01*
X232870458Y-179725960D01*
X232529614Y-179686929D01*
X232275124Y-179512748D01*
X232130302Y-179225432D01*
X232116084Y-179097063D01*
X232534712Y-179097063D01*
X232598696Y-179240145D01*
X232632250Y-179261577D01*
X232892662Y-179305922D01*
X233079229Y-179207344D01*
X233119083Y-179148317D01*
X233162988Y-178936190D01*
X233088440Y-178760939D01*
X232937567Y-178657429D01*
X232752499Y-178660526D01*
X232628016Y-178741917D01*
X232544269Y-178904483D01*
X232534712Y-179097063D01*
X232116084Y-179097063D01*
X232105776Y-179003999D01*
X232177321Y-178657481D01*
X232361689Y-178400378D01*
X232623171Y-178249795D01*
X232926055Y-178222843D01*
X233234632Y-178336629D01*
G37*
X233234632Y-178336629D02*
X233338180Y-178413566D01*
X233455662Y-178530210D01*
X233526522Y-178661493D01*
X233564531Y-178854589D01*
X233583457Y-179156675D01*
X233587198Y-179266792D01*
X233591730Y-179614439D01*
X233572965Y-179840511D01*
X233522046Y-179992148D01*
X233430116Y-180116493D01*
X233426879Y-180120026D01*
X233240245Y-180251979D01*
X232990254Y-180343626D01*
X232729788Y-180386624D01*
X232511731Y-180372625D01*
X232388964Y-180293285D01*
X232385059Y-180284433D01*
X232392237Y-180113552D01*
X232562205Y-179988435D01*
X232832658Y-179918549D01*
X233072076Y-179856849D01*
X233171688Y-179787601D01*
X233126842Y-179734500D01*
X232932889Y-179721244D01*
X232870458Y-179725960D01*
X232529614Y-179686929D01*
X232275124Y-179512748D01*
X232130302Y-179225432D01*
X232116084Y-179097063D01*
X232534712Y-179097063D01*
X232598696Y-179240145D01*
X232632250Y-179261577D01*
X232892662Y-179305922D01*
X233079229Y-179207344D01*
X233119083Y-179148317D01*
X233162988Y-178936190D01*
X233088440Y-178760939D01*
X232937567Y-178657429D01*
X232752499Y-178660526D01*
X232628016Y-178741917D01*
X232544269Y-178904483D01*
X232534712Y-179097063D01*
X232116084Y-179097063D01*
X232105776Y-179003999D01*
X232177321Y-178657481D01*
X232361689Y-178400378D01*
X232623171Y-178249795D01*
X232926055Y-178222843D01*
X233234632Y-178336629D01*
D12*
X336481250Y-93338600D03*
D13*
X328681250Y-93338600D03*
D14*
X334156250Y-93338600D03*
X331006250Y-93338600D03*
D15*
X224117000Y-88379300D03*
D16*
X226657000Y-88379300D03*
X229197000Y-88379300D03*
X231737000Y-88379300D03*
D14*
X73831200Y-93338600D03*
X76981200Y-93338600D03*
D13*
X71506200Y-93338600D03*
D12*
X79306200Y-93338600D03*
D14*
X92881200Y-93338600D03*
X96031200Y-93338600D03*
D13*
X90556200Y-93338600D03*
D12*
X98356200Y-93338600D03*
D14*
X111931200Y-93338600D03*
X115081200Y-93338600D03*
D13*
X109606200Y-93338600D03*
D12*
X117406200Y-93338600D03*
D14*
X130981200Y-93338600D03*
X134131200Y-93338600D03*
D13*
X128656200Y-93338600D03*
D12*
X136456200Y-93338600D03*
D14*
X150031200Y-93338600D03*
X153181200Y-93338600D03*
D13*
X147706200Y-93338600D03*
D12*
X155506200Y-93338600D03*
X174556000Y-93338600D03*
D13*
X166756000Y-93338600D03*
D14*
X172231000Y-93338600D03*
X169081000Y-93338600D03*
D12*
X193606000Y-93338600D03*
D13*
X185806000Y-93338600D03*
D14*
X191281000Y-93338600D03*
X188131000Y-93338600D03*
D12*
X212656000Y-93338600D03*
D13*
X204856000Y-93338600D03*
D14*
X210331000Y-93338600D03*
X207181000Y-93338600D03*
X226231000Y-93338600D03*
X229381000Y-93338600D03*
D13*
X223906000Y-93338600D03*
D12*
X231706000Y-93338600D03*
D14*
X245281000Y-93338600D03*
X248431000Y-93338600D03*
D13*
X242956000Y-93338600D03*
D12*
X250756000Y-93338600D03*
D14*
X264331000Y-93338600D03*
X267481000Y-93338600D03*
D13*
X262006000Y-93338600D03*
D12*
X269806000Y-93338600D03*
D14*
X283381000Y-93338600D03*
X286531000Y-93338600D03*
D13*
X281056000Y-93338600D03*
D12*
X288856000Y-93338600D03*
D14*
X302431000Y-93338600D03*
X305581000Y-93338600D03*
D13*
X300106000Y-93338600D03*
D12*
X307906000Y-93338600D03*
D14*
X319100000Y-90957400D03*
X322250000Y-90957400D03*
D13*
X316775000Y-90957400D03*
D12*
X324575000Y-90957400D03*
X348387500Y-90957400D03*
D13*
X340587500Y-90957400D03*
D14*
X346062500Y-90957400D03*
X342912500Y-90957400D03*
D12*
X84068800Y-112388600D03*
D13*
X76268800Y-112388600D03*
D14*
X81743800Y-112388600D03*
X78593800Y-112388600D03*
D12*
X107881200Y-112388600D03*
D13*
X100081200Y-112388600D03*
D14*
X105556200Y-112388600D03*
X102406200Y-112388600D03*
D12*
X126931200Y-112388600D03*
D13*
X119131200Y-112388600D03*
D14*
X124606200Y-112388600D03*
X121456200Y-112388600D03*
D12*
X145981200Y-112388600D03*
D13*
X138181200Y-112388600D03*
D14*
X143656200Y-112388600D03*
X140506200Y-112388600D03*
D12*
X165031000Y-112388600D03*
D13*
X157231000Y-112388600D03*
D14*
X162706000Y-112388600D03*
X159556000Y-112388600D03*
D12*
X184081000Y-112388600D03*
D13*
X176281000Y-112388600D03*
D14*
X181756000Y-112388600D03*
X178606000Y-112388600D03*
X192894000Y-112388600D03*
X196044000Y-112388600D03*
D13*
X190569000Y-112388600D03*
D12*
X198369000Y-112388600D03*
D14*
X221469000Y-112388600D03*
X224619000Y-112388600D03*
D13*
X219144000Y-112388600D03*
D12*
X226944000Y-112388600D03*
D14*
X235756000Y-112388600D03*
X238906000Y-112388600D03*
D13*
X233431000Y-112388600D03*
D12*
X241231000Y-112388600D03*
D14*
X254806000Y-112388600D03*
X257956000Y-112388600D03*
D13*
X252481000Y-112388600D03*
D12*
X260281000Y-112388600D03*
D14*
X273856000Y-112388600D03*
X277006000Y-112388600D03*
D13*
X271531000Y-112388600D03*
D12*
X279331000Y-112388600D03*
D14*
X292906000Y-112388600D03*
X296056000Y-112388600D03*
D13*
X290581000Y-112388600D03*
D12*
X298381000Y-112388600D03*
D14*
X311956000Y-112388600D03*
X315106000Y-112388600D03*
D13*
X309631000Y-112388600D03*
D12*
X317431000Y-112388600D03*
X341244000Y-112388600D03*
D13*
X333444000Y-112388600D03*
D14*
X338919000Y-112388600D03*
X335769000Y-112388600D03*
D12*
X86450000Y-131438600D03*
D13*
X78650000Y-131438600D03*
D14*
X84125000Y-131438600D03*
X80975000Y-131438600D03*
X107168800Y-131438600D03*
X110318800Y-131438600D03*
D13*
X104843800Y-131438600D03*
D12*
X112643800Y-131438600D03*
D14*
X126218800Y-131438600D03*
X129368800Y-131438600D03*
D13*
X123893800Y-131438600D03*
D12*
X131693800Y-131438600D03*
X150743800Y-131438600D03*
D13*
X142943800Y-131438600D03*
D14*
X148418800Y-131438600D03*
X145268800Y-131438600D03*
D12*
X169794000Y-131438600D03*
D13*
X161994000Y-131438600D03*
D14*
X167469000Y-131438600D03*
X164319000Y-131438600D03*
X183369000Y-131438600D03*
X186519000Y-131438600D03*
D13*
X181044000Y-131438600D03*
D12*
X188844000Y-131438600D03*
X207894000Y-131438600D03*
D13*
X200094000Y-131438600D03*
D14*
X205569000Y-131438600D03*
X202419000Y-131438600D03*
D12*
X226944000Y-131438600D03*
D13*
X219144000Y-131438600D03*
D14*
X224619000Y-131438600D03*
X221469000Y-131438600D03*
D12*
X245994000Y-131438600D03*
D13*
X238194000Y-131438600D03*
D14*
X243669000Y-131438600D03*
X240519000Y-131438600D03*
D12*
X265044000Y-131438600D03*
D13*
X257244000Y-131438600D03*
D14*
X262719000Y-131438600D03*
X259569000Y-131438600D03*
D12*
X284094000Y-131438600D03*
D13*
X276294000Y-131438600D03*
D14*
X281769000Y-131438600D03*
X278619000Y-131438600D03*
X297669000Y-131438600D03*
X300819000Y-131438600D03*
D13*
X295344000Y-131438600D03*
D12*
X303144000Y-131438600D03*
D14*
X316719000Y-131438600D03*
X319869000Y-131438600D03*
D13*
X314394000Y-131438600D03*
D12*
X322194000Y-131438600D03*
D14*
X328625000Y-131438600D03*
X331775000Y-131438600D03*
D13*
X326300000Y-131438600D03*
D12*
X334100000Y-131438600D03*
D14*
X85737500Y-150488600D03*
X88887500Y-150488600D03*
D13*
X83412500Y-150488600D03*
D12*
X91212500Y-150488600D03*
D14*
X97643800Y-150488600D03*
X100793800Y-150488600D03*
D13*
X95318800Y-150488600D03*
D12*
X103118800Y-150488600D03*
D14*
X116693800Y-150488600D03*
X119843800Y-150488600D03*
D13*
X114368800Y-150488600D03*
D12*
X122168800Y-150488600D03*
X141218800Y-150488600D03*
D13*
X133418800Y-150488600D03*
D14*
X138893800Y-150488600D03*
X135743800Y-150488600D03*
D12*
X160269000Y-150488600D03*
D13*
X152469000Y-150488600D03*
D14*
X157944000Y-150488600D03*
X154794000Y-150488600D03*
D12*
X179319000Y-150488600D03*
D13*
X171519000Y-150488600D03*
D14*
X176994000Y-150488600D03*
X173844000Y-150488600D03*
D12*
X198369000Y-150488600D03*
D13*
X190569000Y-150488600D03*
D14*
X196044000Y-150488600D03*
X192894000Y-150488600D03*
D12*
X217419000Y-150488600D03*
D13*
X209619000Y-150488600D03*
D14*
X215094000Y-150488600D03*
X211944000Y-150488600D03*
D12*
X236469000Y-150488600D03*
D13*
X228669000Y-150488600D03*
D14*
X234144000Y-150488600D03*
X230994000Y-150488600D03*
D12*
X255519000Y-150488600D03*
D13*
X247719000Y-150488600D03*
D14*
X253194000Y-150488600D03*
X250044000Y-150488600D03*
D12*
X274569000Y-150488600D03*
D13*
X266769000Y-150488600D03*
D14*
X272244000Y-150488600D03*
X269094000Y-150488600D03*
X288144000Y-150488600D03*
X291294000Y-150488600D03*
D13*
X285819000Y-150488600D03*
D12*
X293619000Y-150488600D03*
D14*
X323862000Y-150488600D03*
X327012000Y-150488600D03*
D13*
X321537000Y-150488600D03*
D12*
X329337000Y-150488600D03*
D14*
X349250000Y-161588600D03*
X349250000Y-158438600D03*
D13*
X349250000Y-163913600D03*
D12*
X349250000Y-156113600D03*
D14*
X104787500Y-169538600D03*
X107937500Y-169538600D03*
D13*
X102462500Y-169538600D03*
D12*
X110262500Y-169538600D03*
X131693800Y-169538600D03*
D13*
X123893800Y-169538600D03*
D14*
X129368800Y-169538600D03*
X126218800Y-169538600D03*
D12*
X212656000Y-169538600D03*
D13*
X204856000Y-169538600D03*
D14*
X210331000Y-169538600D03*
X207181000Y-169538600D03*
D12*
X293619000Y-169538600D03*
D13*
X285819000Y-169538600D03*
D14*
X291294000Y-169538600D03*
X288144000Y-169538600D03*
D12*
X310287000Y-169538600D03*
D13*
X302487000Y-169538600D03*
D14*
X307962000Y-169538600D03*
X304812000Y-169538600D03*
D17*
X75406200Y-102863600D03*
D18*
X70326200Y-102863600D03*
X80486200Y-102863600D03*
X99536200Y-102863600D03*
X89376200Y-102863600D03*
D17*
X94456200Y-102863600D03*
X113506200Y-102863600D03*
D18*
X108426200Y-102863600D03*
X118586200Y-102863600D03*
D17*
X132556200Y-102863600D03*
D18*
X127476200Y-102863600D03*
X137636200Y-102863600D03*
X156686200Y-102863600D03*
X146526200Y-102863600D03*
D17*
X151606200Y-102863600D03*
X170656000Y-102863600D03*
D18*
X165576000Y-102863600D03*
X175736000Y-102863600D03*
D17*
X189706000Y-102863600D03*
D18*
X184626000Y-102863600D03*
X194786000Y-102863600D03*
D17*
X208756000Y-102863600D03*
D18*
X203676000Y-102863600D03*
X213836000Y-102863600D03*
X232886000Y-102863600D03*
X222726000Y-102863600D03*
D17*
X227806000Y-102863600D03*
D18*
X251936000Y-102863600D03*
X241776000Y-102863600D03*
D17*
X246856000Y-102863600D03*
D18*
X270986000Y-102863600D03*
X260826000Y-102863600D03*
D17*
X265906000Y-102863600D03*
D18*
X290036000Y-102863600D03*
X279876000Y-102863600D03*
D17*
X284956000Y-102863600D03*
D18*
X309086000Y-102863600D03*
X298926000Y-102863600D03*
D17*
X304006000Y-102863600D03*
D18*
X328136000Y-102863600D03*
X317976000Y-102863600D03*
D17*
X323056000Y-102863600D03*
X344487250Y-111118600D03*
X320674750Y-111118600D03*
D19*
X344487250Y-95878600D03*
X320674750Y-95878600D03*
D18*
X337661000Y-102863600D03*
X327501000Y-102863600D03*
D17*
X332581000Y-102863600D03*
D18*
X347186000Y-102863600D03*
X337026000Y-102863600D03*
D17*
X342106000Y-102863600D03*
X80168800Y-121913600D03*
D18*
X75088800Y-121913600D03*
X85248800Y-121913600D03*
D17*
X103981200Y-121913600D03*
D18*
X98901200Y-121913600D03*
X109061200Y-121913600D03*
D17*
X123031200Y-121913600D03*
D18*
X117951200Y-121913600D03*
X128111200Y-121913600D03*
X147161200Y-121913600D03*
X137001200Y-121913600D03*
D17*
X142081200Y-121913600D03*
X161131000Y-121913600D03*
D18*
X156051000Y-121913600D03*
X166211000Y-121913600D03*
D17*
X180181000Y-121913600D03*
D18*
X175101000Y-121913600D03*
X185261000Y-121913600D03*
D17*
X199231000Y-121913600D03*
D18*
X194151000Y-121913600D03*
X204311000Y-121913600D03*
X223361000Y-121913600D03*
X213201000Y-121913600D03*
D17*
X218281000Y-121913600D03*
X237331000Y-121913600D03*
D18*
X232251000Y-121913600D03*
X242411000Y-121913600D03*
D17*
X256381000Y-121913600D03*
D18*
X251301000Y-121913600D03*
X261461000Y-121913600D03*
D17*
X275431000Y-121913600D03*
D18*
X270351000Y-121913600D03*
X280511000Y-121913600D03*
D17*
X294481000Y-121913600D03*
D18*
X289401000Y-121913600D03*
X299561000Y-121913600D03*
D17*
X313531000Y-121913600D03*
D18*
X308451000Y-121913600D03*
X318611000Y-121913600D03*
X342424000Y-121913600D03*
X332264000Y-121913600D03*
D17*
X337344000Y-121913600D03*
X82550000Y-140963600D03*
D18*
X77470000Y-140963600D03*
X87630000Y-140963600D03*
D17*
X108743800Y-140963600D03*
D18*
X103663800Y-140963600D03*
X113823800Y-140963600D03*
X132873800Y-140963600D03*
X122713800Y-140963600D03*
D17*
X127793800Y-140963600D03*
X146843800Y-140963600D03*
D18*
X141763800Y-140963600D03*
X151923800Y-140963600D03*
X170974000Y-140963600D03*
X160814000Y-140963600D03*
D17*
X165894000Y-140963600D03*
D18*
X190024000Y-140963600D03*
X179864000Y-140963600D03*
D17*
X184944000Y-140963600D03*
D18*
X209074000Y-140963600D03*
X198914000Y-140963600D03*
D17*
X203994000Y-140963600D03*
D18*
X228124000Y-140963600D03*
X217964000Y-140963600D03*
D17*
X223044000Y-140963600D03*
X242094000Y-140963600D03*
D18*
X237014000Y-140963600D03*
X247174000Y-140963600D03*
X266224000Y-140963600D03*
X256064000Y-140963600D03*
D17*
X261144000Y-140963600D03*
D18*
X285274000Y-140963600D03*
X275114000Y-140963600D03*
D17*
X280194000Y-140963600D03*
D18*
X304324000Y-140963600D03*
X294164000Y-140963600D03*
D17*
X299244000Y-140963600D03*
D18*
X323374000Y-140963600D03*
X313214000Y-140963600D03*
D17*
X318294000Y-140963600D03*
X330200000Y-140963600D03*
D18*
X325120000Y-140963600D03*
X335280000Y-140963600D03*
D19*
X318293750Y-133978600D03*
X342106250Y-133978600D03*
D17*
X318293750Y-149218600D03*
X342106250Y-149218600D03*
X99218750Y-168268600D03*
X75406250Y-168268600D03*
D19*
X99218750Y-153028600D03*
X75406250Y-153028600D03*
D18*
X92392500Y-160013600D03*
X82232500Y-160013600D03*
D17*
X87312500Y-160013600D03*
D18*
X104298800Y-160013600D03*
X94138800Y-160013600D03*
D17*
X99218800Y-160013600D03*
D18*
X123348800Y-160013600D03*
X113188800Y-160013600D03*
D17*
X118268800Y-160013600D03*
D18*
X142398800Y-160013600D03*
X132238800Y-160013600D03*
D17*
X137318800Y-160013600D03*
X156369000Y-160013600D03*
D18*
X151289000Y-160013600D03*
X161449000Y-160013600D03*
X180499000Y-160013600D03*
X170339000Y-160013600D03*
D17*
X175419000Y-160013600D03*
X194469000Y-160013600D03*
D18*
X189389000Y-160013600D03*
X199549000Y-160013600D03*
D17*
X213519000Y-160013600D03*
D18*
X208439000Y-160013600D03*
X218599000Y-160013600D03*
D17*
X232569000Y-160013600D03*
D18*
X227489000Y-160013600D03*
X237649000Y-160013600D03*
D17*
X251619000Y-160013600D03*
D18*
X246539000Y-160013600D03*
X256699000Y-160013600D03*
D17*
X270669000Y-160013600D03*
D18*
X265589000Y-160013600D03*
X275749000Y-160013600D03*
D17*
X289719000Y-160013600D03*
D18*
X284639000Y-160013600D03*
X294799000Y-160013600D03*
D17*
X337343250Y-168268600D03*
X313530750Y-168268600D03*
D19*
X337343250Y-153028600D03*
X313530750Y-153028600D03*
D18*
X330517000Y-160013600D03*
X320357000Y-160013600D03*
D17*
X325437000Y-160013600D03*
D18*
X347186000Y-160013600D03*
X337026000Y-160013600D03*
D17*
X342106000Y-160013600D03*
D18*
X109061200Y-179063600D03*
X98901200Y-179063600D03*
D17*
X103981200Y-179063600D03*
X127793800Y-179063600D03*
D18*
X122713800Y-179063600D03*
X132873800Y-179063600D03*
D17*
X265906000Y-187318600D03*
X151606000Y-187318600D03*
D19*
X265906000Y-172078600D03*
X151606000Y-172078600D03*
D18*
X213836000Y-179063600D03*
X203676000Y-179063600D03*
D17*
X208756000Y-179063600D03*
D18*
X294799000Y-179063600D03*
X284639000Y-179063600D03*
D17*
X289719000Y-179063600D03*
D18*
X318611000Y-179063600D03*
X308451000Y-179063600D03*
D17*
X313531000Y-179063600D03*
X77787500Y-140963600D03*
D18*
X72707500Y-140963600D03*
X82867500Y-140963600D03*
D17*
X339725000Y-131438600D03*
D18*
X339725000Y-126358600D03*
X339725000Y-136518600D03*
D19*
X346710000Y-143376600D03*
X346710000Y-119500600D03*
D17*
X331470000Y-143376600D03*
X331470000Y-119500600D03*
D18*
X82867500Y-160013600D03*
X72707500Y-160013600D03*
D17*
X77787500Y-160013600D03*
D18*
X320993000Y-160013600D03*
X310833000Y-160013600D03*
D17*
X315913000Y-160013600D03*
D13*
X216376000Y-86162400D03*
D12*
X216376000Y-88702400D03*
X216376000Y-91242400D03*
X216376000Y-93782400D03*
X216376000Y-96322400D03*
X216376000Y-98862400D03*
X216376000Y-101402400D03*
X216376000Y-103942400D03*
X216376000Y-106482400D03*
X216376000Y-109022400D03*
X216376000Y-111562400D03*
X216376000Y-114102400D03*
X201136000Y-114102400D03*
X201136000Y-111562400D03*
X201136000Y-109022400D03*
X201136000Y-106482400D03*
X201136000Y-103942400D03*
X201136000Y-101402400D03*
X201136000Y-98862400D03*
X201136000Y-96322400D03*
X201136000Y-93782400D03*
X201136000Y-91242400D03*
X201136000Y-88702400D03*
X201136000Y-86162400D03*
M02*
