G04 #@! TF.GenerationSoftware,KiCad,Pcbnew,5.1.10-88a1d61d58~90~ubuntu21.04.1*
G04 #@! TF.CreationDate,2021-09-17T14:26:20+02:00*
G04 #@! TF.ProjectId,unix60pcb,756e6978-3630-4706-9362-2e6b69636164,rev?*
G04 #@! TF.SameCoordinates,Original*
G04 #@! TF.FileFunction,Copper,L2,Bot*
G04 #@! TF.FilePolarity,Positive*
%FSLAX46Y46*%
G04 Gerber Fmt 4.6, Leading zero omitted, Abs format (unit mm)*
G04 Created by KiCad (PCBNEW 5.1.10-88a1d61d58~90~ubuntu21.04.1) date 2021-09-17 14:26:20*
%MOMM*%
%LPD*%
G01*
G04 APERTURE LIST*
G04 #@! TA.AperFunction,Profile*
%ADD10C,0.150000*%
G04 #@! TD*
G04 #@! TA.AperFunction,EtchedComponent*
%ADD11C,0.010000*%
G04 #@! TD*
G04 #@! TA.AperFunction,SMDPad,CuDef*
%ADD12R,2.500000X0.500000*%
G04 #@! TD*
G04 #@! TA.AperFunction,ComponentPad*
%ADD13C,1.600000*%
G04 #@! TD*
G04 #@! TA.AperFunction,ComponentPad*
%ADD14R,1.600000X1.600000*%
G04 #@! TD*
G04 #@! TA.AperFunction,SMDPad,CuDef*
%ADD15R,1.200000X1.200000*%
G04 #@! TD*
G04 #@! TA.AperFunction,ComponentPad*
%ADD16R,1.700000X1.700000*%
G04 #@! TD*
G04 #@! TA.AperFunction,ComponentPad*
%ADD17O,1.700000X1.700000*%
G04 #@! TD*
G04 #@! TA.AperFunction,SMDPad,CuDef*
%ADD18R,0.500000X2.500000*%
G04 #@! TD*
G04 #@! TA.AperFunction,ComponentPad*
%ADD19C,2.250000*%
G04 #@! TD*
G04 #@! TA.AperFunction,SMDPad,CuDef*
%ADD20R,1.700000X1.000000*%
G04 #@! TD*
G04 #@! TA.AperFunction,ViaPad*
%ADD21C,0.800000*%
G04 #@! TD*
G04 #@! TA.AperFunction,Conductor*
%ADD22C,0.250000*%
G04 #@! TD*
G04 APERTURE END LIST*
D10*
X260620800Y-88582500D02*
G75*
G03*
X260620800Y-88582500I-2650000J0D01*
G01*
X162196250Y-88582500D02*
G75*
G03*
X162196250Y-88582500I-2650000J0D01*
G01*
X70643750Y-83813650D02*
X346868750Y-83813650D01*
X65881250Y-88576150D02*
G75*
G02*
X70643750Y-83813650I4762500J0D01*
G01*
X346868750Y-83813650D02*
G75*
G02*
X351631250Y-88576150I0J-4762500D01*
G01*
X65881250Y-88576150D02*
X65881250Y-186207400D01*
X351631250Y-88576150D02*
X351631250Y-186207400D01*
X346868750Y-190969900D02*
X70643750Y-190969900D01*
X70643750Y-190969900D02*
G75*
G02*
X65881250Y-186207400I0J4762500D01*
G01*
X351631250Y-186207400D02*
G75*
G02*
X346868750Y-190969900I-4762500J0D01*
G01*
D11*
G36*
X252342484Y-177774200D02*
G01*
X252304803Y-177916413D01*
X252361967Y-178037333D01*
X252514076Y-178127223D01*
X252624107Y-178054187D01*
X252644910Y-178009371D01*
X252648661Y-177829615D01*
X252535382Y-177719569D01*
X252469479Y-177708984D01*
X252342484Y-177774200D01*
G37*
X252342484Y-177774200D02*
X252304803Y-177916413D01*
X252361967Y-178037333D01*
X252514076Y-178127223D01*
X252624107Y-178054187D01*
X252644910Y-178009371D01*
X252648661Y-177829615D01*
X252535382Y-177719569D01*
X252469479Y-177708984D01*
X252342484Y-177774200D01*
G36*
X227245796Y-178234077D02*
G01*
X226986330Y-178258812D01*
X226855597Y-178305922D01*
X226813050Y-178393569D01*
X226811417Y-178428650D01*
X226842457Y-178540192D01*
X226963849Y-178598691D01*
X227171250Y-178624018D01*
X227411061Y-178663183D01*
X227519614Y-178721958D01*
X227487640Y-178777891D01*
X227305874Y-178808531D01*
X227247873Y-178809650D01*
X226969237Y-178870287D01*
X226776457Y-179025648D01*
X226690099Y-179235913D01*
X226730729Y-179461258D01*
X226839251Y-179600861D01*
X227013663Y-179687549D01*
X227265178Y-179735618D01*
X227536580Y-179744162D01*
X227770657Y-179712273D01*
X227910195Y-179639043D01*
X227922244Y-179618038D01*
X227934573Y-179454487D01*
X227811082Y-179355190D01*
X227539489Y-179311893D01*
X227462587Y-179309145D01*
X227065417Y-179300640D01*
X227397454Y-179222782D01*
X227710167Y-179123617D01*
X227884386Y-178991574D01*
X227950871Y-178798922D01*
X227954417Y-178720664D01*
X227901490Y-178454352D01*
X227734017Y-178294431D01*
X227438962Y-178231949D01*
X227245796Y-178234077D01*
G37*
X227245796Y-178234077D02*
X226986330Y-178258812D01*
X226855597Y-178305922D01*
X226813050Y-178393569D01*
X226811417Y-178428650D01*
X226842457Y-178540192D01*
X226963849Y-178598691D01*
X227171250Y-178624018D01*
X227411061Y-178663183D01*
X227519614Y-178721958D01*
X227487640Y-178777891D01*
X227305874Y-178808531D01*
X227247873Y-178809650D01*
X226969237Y-178870287D01*
X226776457Y-179025648D01*
X226690099Y-179235913D01*
X226730729Y-179461258D01*
X226839251Y-179600861D01*
X227013663Y-179687549D01*
X227265178Y-179735618D01*
X227536580Y-179744162D01*
X227770657Y-179712273D01*
X227910195Y-179639043D01*
X227922244Y-179618038D01*
X227934573Y-179454487D01*
X227811082Y-179355190D01*
X227539489Y-179311893D01*
X227462587Y-179309145D01*
X227065417Y-179300640D01*
X227397454Y-179222782D01*
X227710167Y-179123617D01*
X227884386Y-178991574D01*
X227950871Y-178798922D01*
X227954417Y-178720664D01*
X227901490Y-178454352D01*
X227734017Y-178294431D01*
X227438962Y-178231949D01*
X227245796Y-178234077D01*
G36*
X228231786Y-177764587D02*
G01*
X228201169Y-177802479D01*
X228153086Y-177972532D01*
X228129900Y-178252436D01*
X228130946Y-178584650D01*
X228155557Y-178911633D01*
X228203069Y-179175844D01*
X228217596Y-179222922D01*
X228389917Y-179491727D01*
X228657110Y-179667596D01*
X228968106Y-179732947D01*
X229271839Y-179670198D01*
X229363243Y-179617356D01*
X229593647Y-179370198D01*
X229689591Y-179077154D01*
X229686105Y-179037264D01*
X229276012Y-179037264D01*
X229193436Y-179211589D01*
X229010735Y-179298736D01*
X228765675Y-179266258D01*
X228662654Y-179146969D01*
X228631750Y-178978984D01*
X228694524Y-178769239D01*
X228846155Y-178653010D01*
X229031611Y-178646021D01*
X229195859Y-178763996D01*
X229224417Y-178809650D01*
X229276012Y-179037264D01*
X229686105Y-179037264D01*
X229663346Y-178776856D01*
X229527185Y-178507936D01*
X229293378Y-178309028D01*
X228974198Y-178218765D01*
X228918424Y-178216984D01*
X228717254Y-178188412D01*
X228619129Y-178075731D01*
X228596073Y-178001691D01*
X228501144Y-177813033D01*
X228364013Y-177726078D01*
X228231786Y-177764587D01*
G37*
X228231786Y-177764587D02*
X228201169Y-177802479D01*
X228153086Y-177972532D01*
X228129900Y-178252436D01*
X228130946Y-178584650D01*
X228155557Y-178911633D01*
X228203069Y-179175844D01*
X228217596Y-179222922D01*
X228389917Y-179491727D01*
X228657110Y-179667596D01*
X228968106Y-179732947D01*
X229271839Y-179670198D01*
X229363243Y-179617356D01*
X229593647Y-179370198D01*
X229689591Y-179077154D01*
X229686105Y-179037264D01*
X229276012Y-179037264D01*
X229193436Y-179211589D01*
X229010735Y-179298736D01*
X228765675Y-179266258D01*
X228662654Y-179146969D01*
X228631750Y-178978984D01*
X228694524Y-178769239D01*
X228846155Y-178653010D01*
X229031611Y-178646021D01*
X229195859Y-178763996D01*
X229224417Y-178809650D01*
X229276012Y-179037264D01*
X229686105Y-179037264D01*
X229663346Y-178776856D01*
X229527185Y-178507936D01*
X229293378Y-178309028D01*
X228974198Y-178218765D01*
X228918424Y-178216984D01*
X228717254Y-178188412D01*
X228619129Y-178075731D01*
X228596073Y-178001691D01*
X228501144Y-177813033D01*
X228364013Y-177726078D01*
X228231786Y-177764587D01*
G36*
X229857696Y-178231183D02*
G01*
X229779473Y-178294010D01*
X229764354Y-178451181D01*
X229858498Y-178592442D01*
X229985109Y-178640317D01*
X230161712Y-178693860D01*
X230274132Y-178867739D01*
X230333479Y-179181827D01*
X230340835Y-179276705D01*
X230378676Y-179560734D01*
X230451531Y-179700217D01*
X230498546Y-179721982D01*
X230649117Y-179711169D01*
X230689046Y-179687466D01*
X230722210Y-179575643D01*
X230743760Y-179352039D01*
X230748417Y-179170026D01*
X230734215Y-178877609D01*
X230674794Y-178681442D01*
X230544937Y-178509628D01*
X230500930Y-178464471D01*
X230280331Y-178302612D01*
X230048648Y-178220769D01*
X229857696Y-178231183D01*
G37*
X229857696Y-178231183D02*
X229779473Y-178294010D01*
X229764354Y-178451181D01*
X229858498Y-178592442D01*
X229985109Y-178640317D01*
X230161712Y-178693860D01*
X230274132Y-178867739D01*
X230333479Y-179181827D01*
X230340835Y-179276705D01*
X230378676Y-179560734D01*
X230451531Y-179700217D01*
X230498546Y-179721982D01*
X230649117Y-179711169D01*
X230689046Y-179687466D01*
X230722210Y-179575643D01*
X230743760Y-179352039D01*
X230748417Y-179170026D01*
X230734215Y-178877609D01*
X230674794Y-178681442D01*
X230544937Y-178509628D01*
X230500930Y-178464471D01*
X230280331Y-178302612D01*
X230048648Y-178220769D01*
X229857696Y-178231183D01*
G36*
X231295462Y-178352912D02*
G01*
X231160946Y-178468762D01*
X231016993Y-178630304D01*
X230945746Y-178784591D01*
X230927224Y-178997016D01*
X230934626Y-179209477D01*
X230960084Y-179698414D01*
X231452925Y-179720203D01*
X231745119Y-179723881D01*
X231933818Y-179689391D01*
X232083862Y-179596937D01*
X232193759Y-179494001D01*
X232399855Y-179197465D01*
X232414427Y-179079696D01*
X231992318Y-179079696D01*
X231930375Y-179194717D01*
X231743961Y-179306521D01*
X231535178Y-179279028D01*
X231429126Y-179194717D01*
X231354051Y-178991367D01*
X231425234Y-178788170D01*
X231531584Y-178692158D01*
X231721301Y-178649108D01*
X231885365Y-178729637D01*
X231987721Y-178888311D01*
X231992318Y-179079696D01*
X232414427Y-179079696D01*
X232437330Y-178894598D01*
X232306178Y-178594290D01*
X232194263Y-178464471D01*
X231898345Y-178258553D01*
X231596225Y-178221377D01*
X231295462Y-178352912D01*
G37*
X231295462Y-178352912D02*
X231160946Y-178468762D01*
X231016993Y-178630304D01*
X230945746Y-178784591D01*
X230927224Y-178997016D01*
X230934626Y-179209477D01*
X230960084Y-179698414D01*
X231452925Y-179720203D01*
X231745119Y-179723881D01*
X231933818Y-179689391D01*
X232083862Y-179596937D01*
X232193759Y-179494001D01*
X232399855Y-179197465D01*
X232414427Y-179079696D01*
X231992318Y-179079696D01*
X231930375Y-179194717D01*
X231743961Y-179306521D01*
X231535178Y-179279028D01*
X231429126Y-179194717D01*
X231354051Y-178991367D01*
X231425234Y-178788170D01*
X231531584Y-178692158D01*
X231721301Y-178649108D01*
X231885365Y-178729637D01*
X231987721Y-178888311D01*
X231992318Y-179079696D01*
X232414427Y-179079696D01*
X232437330Y-178894598D01*
X232306178Y-178594290D01*
X232194263Y-178464471D01*
X231898345Y-178258553D01*
X231596225Y-178221377D01*
X231295462Y-178352912D01*
G36*
X233073864Y-178291184D02*
G01*
X232813508Y-178485505D01*
X232648802Y-178757527D01*
X232613777Y-178965343D01*
X232685721Y-179311447D01*
X232870567Y-179564501D01*
X233131935Y-179709420D01*
X233433445Y-179731121D01*
X233738717Y-179614520D01*
X233887597Y-179493496D01*
X234088107Y-179211464D01*
X234114733Y-179079696D01*
X233685652Y-179079696D01*
X233623708Y-179194717D01*
X233437294Y-179306521D01*
X233228512Y-179279028D01*
X233122459Y-179194717D01*
X233047384Y-178991367D01*
X233118568Y-178788170D01*
X233224917Y-178692158D01*
X233414635Y-178649108D01*
X233578698Y-178729637D01*
X233681055Y-178888311D01*
X233685652Y-179079696D01*
X234114733Y-179079696D01*
X234135084Y-178978984D01*
X234060530Y-178695495D01*
X233869302Y-178441568D01*
X233610049Y-178266698D01*
X233386093Y-178216984D01*
X233073864Y-178291184D01*
G37*
X233073864Y-178291184D02*
X232813508Y-178485505D01*
X232648802Y-178757527D01*
X232613777Y-178965343D01*
X232685721Y-179311447D01*
X232870567Y-179564501D01*
X233131935Y-179709420D01*
X233433445Y-179731121D01*
X233738717Y-179614520D01*
X233887597Y-179493496D01*
X234088107Y-179211464D01*
X234114733Y-179079696D01*
X233685652Y-179079696D01*
X233623708Y-179194717D01*
X233437294Y-179306521D01*
X233228512Y-179279028D01*
X233122459Y-179194717D01*
X233047384Y-178991367D01*
X233118568Y-178788170D01*
X233224917Y-178692158D01*
X233414635Y-178649108D01*
X233578698Y-178729637D01*
X233681055Y-178888311D01*
X233685652Y-179079696D01*
X234114733Y-179079696D01*
X234135084Y-178978984D01*
X234060530Y-178695495D01*
X233869302Y-178441568D01*
X233610049Y-178266698D01*
X233386093Y-178216984D01*
X233073864Y-178291184D01*
G36*
X234586402Y-177781834D02*
G01*
X234430223Y-177918833D01*
X234350114Y-178162727D01*
X234323226Y-178539055D01*
X234322236Y-178728019D01*
X234337761Y-179157712D01*
X234395588Y-179446414D01*
X234519267Y-179621422D01*
X234732349Y-179710036D01*
X235058383Y-179739557D01*
X235196074Y-179740984D01*
X235547079Y-179725468D01*
X235742925Y-179677494D01*
X235791873Y-179629426D01*
X235807498Y-179501961D01*
X235815691Y-179246496D01*
X235815690Y-179105984D01*
X235405084Y-179105984D01*
X235389189Y-179249954D01*
X235308780Y-179305808D01*
X235114774Y-179303787D01*
X235087584Y-179301594D01*
X234871528Y-179264280D01*
X234781404Y-179183409D01*
X234770084Y-179105984D01*
X234806520Y-178987738D01*
X234944168Y-178928280D01*
X235087584Y-178910373D01*
X235295474Y-178904275D01*
X235384918Y-178953067D01*
X235405001Y-179086988D01*
X235405084Y-179105984D01*
X235815690Y-179105984D01*
X235815687Y-178904236D01*
X235810383Y-178634593D01*
X235802389Y-178343984D01*
X235405084Y-178343984D01*
X235389189Y-178487954D01*
X235308780Y-178543808D01*
X235114774Y-178541787D01*
X235087584Y-178539594D01*
X234871528Y-178502280D01*
X234781404Y-178421409D01*
X234770084Y-178343984D01*
X234806520Y-178225738D01*
X234944168Y-178166280D01*
X235087584Y-178148373D01*
X235295474Y-178142275D01*
X235384918Y-178191067D01*
X235405001Y-178324988D01*
X235405084Y-178343984D01*
X235802389Y-178343984D01*
X235786084Y-177751317D01*
X235218366Y-177726368D01*
X234841501Y-177726192D01*
X234586402Y-177781834D01*
G37*
X234586402Y-177781834D02*
X234430223Y-177918833D01*
X234350114Y-178162727D01*
X234323226Y-178539055D01*
X234322236Y-178728019D01*
X234337761Y-179157712D01*
X234395588Y-179446414D01*
X234519267Y-179621422D01*
X234732349Y-179710036D01*
X235058383Y-179739557D01*
X235196074Y-179740984D01*
X235547079Y-179725468D01*
X235742925Y-179677494D01*
X235791873Y-179629426D01*
X235807498Y-179501961D01*
X235815691Y-179246496D01*
X235815690Y-179105984D01*
X235405084Y-179105984D01*
X235389189Y-179249954D01*
X235308780Y-179305808D01*
X235114774Y-179303787D01*
X235087584Y-179301594D01*
X234871528Y-179264280D01*
X234781404Y-179183409D01*
X234770084Y-179105984D01*
X234806520Y-178987738D01*
X234944168Y-178928280D01*
X235087584Y-178910373D01*
X235295474Y-178904275D01*
X235384918Y-178953067D01*
X235405001Y-179086988D01*
X235405084Y-179105984D01*
X235815690Y-179105984D01*
X235815687Y-178904236D01*
X235810383Y-178634593D01*
X235802389Y-178343984D01*
X235405084Y-178343984D01*
X235389189Y-178487954D01*
X235308780Y-178543808D01*
X235114774Y-178541787D01*
X235087584Y-178539594D01*
X234871528Y-178502280D01*
X234781404Y-178421409D01*
X234770084Y-178343984D01*
X234806520Y-178225738D01*
X234944168Y-178166280D01*
X235087584Y-178148373D01*
X235295474Y-178142275D01*
X235384918Y-178191067D01*
X235405001Y-178324988D01*
X235405084Y-178343984D01*
X235802389Y-178343984D01*
X235786084Y-177751317D01*
X235218366Y-177726368D01*
X234841501Y-177726192D01*
X234586402Y-177781834D01*
G36*
X238130462Y-177721470D02*
G01*
X237928709Y-177770546D01*
X237774632Y-177873632D01*
X237733012Y-177913359D01*
X237518857Y-178206835D01*
X237470230Y-178505922D01*
X237584097Y-178832395D01*
X237600932Y-178861701D01*
X237710256Y-179062795D01*
X237733010Y-179184074D01*
X237674704Y-179287832D01*
X237641932Y-179325184D01*
X237553960Y-179498242D01*
X237572540Y-179656555D01*
X237686930Y-179738933D01*
X237714920Y-179740984D01*
X237841218Y-179683951D01*
X238016995Y-179541690D01*
X238072084Y-179486984D01*
X238247396Y-179327443D01*
X238388029Y-179239174D01*
X238416008Y-179232984D01*
X238501197Y-179306318D01*
X238566595Y-179483099D01*
X238567384Y-179486984D01*
X238656480Y-179670598D01*
X238795961Y-179747059D01*
X238933492Y-179701646D01*
X238994359Y-179607059D01*
X239019999Y-179452337D01*
X239036545Y-179179468D01*
X239043995Y-178839396D01*
X239042351Y-178483062D01*
X239041948Y-178470984D01*
X238537750Y-178470984D01*
X238503942Y-178713509D01*
X238388991Y-178815928D01*
X238172612Y-178790943D01*
X238079009Y-178758258D01*
X237975987Y-178638969D01*
X237945084Y-178470984D01*
X238000005Y-178259884D01*
X238175578Y-178152549D01*
X238375342Y-178132317D01*
X238482118Y-178163301D01*
X238529169Y-178285086D01*
X238537750Y-178470984D01*
X239041948Y-178470984D01*
X239031612Y-178161410D01*
X239011778Y-177925381D01*
X238994359Y-177842908D01*
X238916388Y-177762396D01*
X238738236Y-177720538D01*
X238440177Y-177708984D01*
X238130462Y-177721470D01*
G37*
X238130462Y-177721470D02*
X237928709Y-177770546D01*
X237774632Y-177873632D01*
X237733012Y-177913359D01*
X237518857Y-178206835D01*
X237470230Y-178505922D01*
X237584097Y-178832395D01*
X237600932Y-178861701D01*
X237710256Y-179062795D01*
X237733010Y-179184074D01*
X237674704Y-179287832D01*
X237641932Y-179325184D01*
X237553960Y-179498242D01*
X237572540Y-179656555D01*
X237686930Y-179738933D01*
X237714920Y-179740984D01*
X237841218Y-179683951D01*
X238016995Y-179541690D01*
X238072084Y-179486984D01*
X238247396Y-179327443D01*
X238388029Y-179239174D01*
X238416008Y-179232984D01*
X238501197Y-179306318D01*
X238566595Y-179483099D01*
X238567384Y-179486984D01*
X238656480Y-179670598D01*
X238795961Y-179747059D01*
X238933492Y-179701646D01*
X238994359Y-179607059D01*
X239019999Y-179452337D01*
X239036545Y-179179468D01*
X239043995Y-178839396D01*
X239042351Y-178483062D01*
X239041948Y-178470984D01*
X238537750Y-178470984D01*
X238503942Y-178713509D01*
X238388991Y-178815928D01*
X238172612Y-178790943D01*
X238079009Y-178758258D01*
X237975987Y-178638969D01*
X237945084Y-178470984D01*
X238000005Y-178259884D01*
X238175578Y-178152549D01*
X238375342Y-178132317D01*
X238482118Y-178163301D01*
X238529169Y-178285086D01*
X238537750Y-178470984D01*
X239041948Y-178470984D01*
X239031612Y-178161410D01*
X239011778Y-177925381D01*
X238994359Y-177842908D01*
X238916388Y-177762396D01*
X238738236Y-177720538D01*
X238440177Y-177708984D01*
X238130462Y-177721470D01*
G36*
X239483083Y-177755316D02*
G01*
X239292587Y-177773553D01*
X239201172Y-177815385D01*
X239173746Y-177890169D01*
X239172750Y-177920650D01*
X239196941Y-178022258D01*
X239296333Y-178079028D01*
X239511156Y-178108602D01*
X239617250Y-178115575D01*
X239875819Y-178136112D01*
X240007721Y-178176583D01*
X240055500Y-178263326D01*
X240061750Y-178390741D01*
X240047362Y-178552356D01*
X239971496Y-178623094D01*
X239785099Y-178640096D01*
X239732142Y-178640317D01*
X239506175Y-178665429D01*
X239373937Y-178729004D01*
X239363614Y-178746150D01*
X239354177Y-178931014D01*
X239492547Y-179036074D01*
X239725028Y-179063650D01*
X239937842Y-179074534D01*
X240035293Y-179139439D01*
X240071258Y-179306748D01*
X240077806Y-179380446D01*
X240134485Y-179594363D01*
X240239305Y-179723718D01*
X240356122Y-179743462D01*
X240446139Y-179635684D01*
X240462775Y-179505449D01*
X240471762Y-179247578D01*
X240472233Y-178903633D01*
X240467050Y-178634593D01*
X240442750Y-177751317D01*
X239807750Y-177751317D01*
X239483083Y-177755316D01*
G37*
X239483083Y-177755316D02*
X239292587Y-177773553D01*
X239201172Y-177815385D01*
X239173746Y-177890169D01*
X239172750Y-177920650D01*
X239196941Y-178022258D01*
X239296333Y-178079028D01*
X239511156Y-178108602D01*
X239617250Y-178115575D01*
X239875819Y-178136112D01*
X240007721Y-178176583D01*
X240055500Y-178263326D01*
X240061750Y-178390741D01*
X240047362Y-178552356D01*
X239971496Y-178623094D01*
X239785099Y-178640096D01*
X239732142Y-178640317D01*
X239506175Y-178665429D01*
X239373937Y-178729004D01*
X239363614Y-178746150D01*
X239354177Y-178931014D01*
X239492547Y-179036074D01*
X239725028Y-179063650D01*
X239937842Y-179074534D01*
X240035293Y-179139439D01*
X240071258Y-179306748D01*
X240077806Y-179380446D01*
X240134485Y-179594363D01*
X240239305Y-179723718D01*
X240356122Y-179743462D01*
X240446139Y-179635684D01*
X240462775Y-179505449D01*
X240471762Y-179247578D01*
X240472233Y-178903633D01*
X240467050Y-178634593D01*
X240442750Y-177751317D01*
X239807750Y-177751317D01*
X239483083Y-177755316D01*
G36*
X244358858Y-177780712D02*
G01*
X244243660Y-177919955D01*
X244210417Y-178089916D01*
X244186520Y-178207325D01*
X244082889Y-178244671D01*
X243916547Y-178233340D01*
X243621358Y-178276253D01*
X243358651Y-178446551D01*
X243173321Y-178702743D01*
X243109750Y-178978984D01*
X243186010Y-179268529D01*
X243382354Y-179523654D01*
X243650135Y-179695710D01*
X243871750Y-179740984D01*
X244163648Y-179665426D01*
X244386263Y-179493496D01*
X244507435Y-179361552D01*
X244580871Y-179232833D01*
X244614370Y-179079696D01*
X244184318Y-179079696D01*
X244122375Y-179194717D01*
X243935961Y-179306521D01*
X243727178Y-179279028D01*
X243621126Y-179194717D01*
X243546051Y-178991367D01*
X243617234Y-178788170D01*
X243723584Y-178692158D01*
X243913301Y-178649108D01*
X244077365Y-178729637D01*
X244179721Y-178888311D01*
X244184318Y-179079696D01*
X244614370Y-179079696D01*
X244618461Y-179060999D01*
X244632094Y-178799709D01*
X244633750Y-178528888D01*
X244625468Y-178146531D01*
X244598087Y-177907989D01*
X244547805Y-177788440D01*
X244517068Y-177766991D01*
X244358858Y-177780712D01*
G37*
X244358858Y-177780712D02*
X244243660Y-177919955D01*
X244210417Y-178089916D01*
X244186520Y-178207325D01*
X244082889Y-178244671D01*
X243916547Y-178233340D01*
X243621358Y-178276253D01*
X243358651Y-178446551D01*
X243173321Y-178702743D01*
X243109750Y-178978984D01*
X243186010Y-179268529D01*
X243382354Y-179523654D01*
X243650135Y-179695710D01*
X243871750Y-179740984D01*
X244163648Y-179665426D01*
X244386263Y-179493496D01*
X244507435Y-179361552D01*
X244580871Y-179232833D01*
X244614370Y-179079696D01*
X244184318Y-179079696D01*
X244122375Y-179194717D01*
X243935961Y-179306521D01*
X243727178Y-179279028D01*
X243621126Y-179194717D01*
X243546051Y-178991367D01*
X243617234Y-178788170D01*
X243723584Y-178692158D01*
X243913301Y-178649108D01*
X244077365Y-178729637D01*
X244179721Y-178888311D01*
X244184318Y-179079696D01*
X244614370Y-179079696D01*
X244618461Y-179060999D01*
X244632094Y-178799709D01*
X244633750Y-178528888D01*
X244625468Y-178146531D01*
X244598087Y-177907989D01*
X244547805Y-177788440D01*
X244517068Y-177766991D01*
X244358858Y-177780712D01*
G36*
X245694928Y-177765626D02*
G01*
X245642599Y-177830198D01*
X245611305Y-177977498D01*
X245592587Y-178239992D01*
X245582908Y-178495320D01*
X245573761Y-178854693D01*
X245581841Y-179089453D01*
X245617287Y-179244170D01*
X245690241Y-179363417D01*
X245809228Y-179490154D01*
X246106590Y-179697965D01*
X246409134Y-179737099D01*
X246708972Y-179607530D01*
X246841597Y-179493496D01*
X247047649Y-179198086D01*
X247062261Y-179079696D01*
X246639652Y-179079696D01*
X246577708Y-179194717D01*
X246391294Y-179306521D01*
X246182512Y-179279028D01*
X246076459Y-179194717D01*
X246001384Y-178991367D01*
X246072568Y-178788170D01*
X246178917Y-178692158D01*
X246368635Y-178649108D01*
X246532698Y-178729637D01*
X246635055Y-178888311D01*
X246639652Y-179079696D01*
X247062261Y-179079696D01*
X247084831Y-178896834D01*
X246953194Y-178595696D01*
X246832621Y-178455495D01*
X246628075Y-178285123D01*
X246436361Y-178226502D01*
X246286349Y-178232866D01*
X246089569Y-178242049D01*
X246003147Y-178179875D01*
X245971312Y-178009008D01*
X245920955Y-177817115D01*
X245803405Y-177752389D01*
X245776750Y-177751317D01*
X245694928Y-177765626D01*
G37*
X245694928Y-177765626D02*
X245642599Y-177830198D01*
X245611305Y-177977498D01*
X245592587Y-178239992D01*
X245582908Y-178495320D01*
X245573761Y-178854693D01*
X245581841Y-179089453D01*
X245617287Y-179244170D01*
X245690241Y-179363417D01*
X245809228Y-179490154D01*
X246106590Y-179697965D01*
X246409134Y-179737099D01*
X246708972Y-179607530D01*
X246841597Y-179493496D01*
X247047649Y-179198086D01*
X247062261Y-179079696D01*
X246639652Y-179079696D01*
X246577708Y-179194717D01*
X246391294Y-179306521D01*
X246182512Y-179279028D01*
X246076459Y-179194717D01*
X246001384Y-178991367D01*
X246072568Y-178788170D01*
X246178917Y-178692158D01*
X246368635Y-178649108D01*
X246532698Y-178729637D01*
X246635055Y-178888311D01*
X246639652Y-179079696D01*
X247062261Y-179079696D01*
X247084831Y-178896834D01*
X246953194Y-178595696D01*
X246832621Y-178455495D01*
X246628075Y-178285123D01*
X246436361Y-178226502D01*
X246286349Y-178232866D01*
X246089569Y-178242049D01*
X246003147Y-178179875D01*
X245971312Y-178009008D01*
X245920955Y-177817115D01*
X245803405Y-177752389D01*
X245776750Y-177751317D01*
X245694928Y-177765626D01*
G36*
X247684497Y-178279609D02*
G01*
X247444597Y-178438232D01*
X247263005Y-178648970D01*
X247186675Y-178867939D01*
X247188956Y-178914932D01*
X247224377Y-179024050D01*
X247319123Y-179089601D01*
X247514265Y-179129756D01*
X247724084Y-179151724D01*
X247986292Y-179185595D01*
X248113402Y-179225407D01*
X248101846Y-179259735D01*
X247916275Y-179300098D01*
X247766650Y-179298662D01*
X247590740Y-179326053D01*
X247528724Y-179434505D01*
X247554358Y-179612047D01*
X247693098Y-179715049D01*
X247904774Y-179740938D01*
X248149213Y-179687144D01*
X248386244Y-179551095D01*
X248450263Y-179493496D01*
X248650773Y-179211464D01*
X248697750Y-178978984D01*
X248630853Y-178724984D01*
X248147417Y-178724984D01*
X248113995Y-178784648D01*
X247948267Y-178809572D01*
X247935750Y-178809650D01*
X247763647Y-178787105D01*
X247721838Y-178729013D01*
X247724084Y-178724984D01*
X247843855Y-178653118D01*
X247935750Y-178640317D01*
X248095745Y-178680358D01*
X248147417Y-178724984D01*
X248630853Y-178724984D01*
X248621491Y-178689438D01*
X248425147Y-178434313D01*
X248157366Y-178262257D01*
X247935750Y-178216983D01*
X247684497Y-178279609D01*
G37*
X247684497Y-178279609D02*
X247444597Y-178438232D01*
X247263005Y-178648970D01*
X247186675Y-178867939D01*
X247188956Y-178914932D01*
X247224377Y-179024050D01*
X247319123Y-179089601D01*
X247514265Y-179129756D01*
X247724084Y-179151724D01*
X247986292Y-179185595D01*
X248113402Y-179225407D01*
X248101846Y-179259735D01*
X247916275Y-179300098D01*
X247766650Y-179298662D01*
X247590740Y-179326053D01*
X247528724Y-179434505D01*
X247554358Y-179612047D01*
X247693098Y-179715049D01*
X247904774Y-179740938D01*
X248149213Y-179687144D01*
X248386244Y-179551095D01*
X248450263Y-179493496D01*
X248650773Y-179211464D01*
X248697750Y-178978984D01*
X248630853Y-178724984D01*
X248147417Y-178724984D01*
X248113995Y-178784648D01*
X247948267Y-178809572D01*
X247935750Y-178809650D01*
X247763647Y-178787105D01*
X247721838Y-178729013D01*
X247724084Y-178724984D01*
X247843855Y-178653118D01*
X247935750Y-178640317D01*
X248095745Y-178680358D01*
X248147417Y-178724984D01*
X248630853Y-178724984D01*
X248621491Y-178689438D01*
X248425147Y-178434313D01*
X248157366Y-178262257D01*
X247935750Y-178216983D01*
X247684497Y-178279609D01*
G36*
X249365493Y-178290748D02*
G01*
X249110280Y-178468762D01*
X248966342Y-178630280D01*
X248895091Y-178784541D01*
X248876555Y-178996920D01*
X248883959Y-179209595D01*
X248905997Y-179488057D01*
X248945306Y-179636075D01*
X249017372Y-179692534D01*
X249078750Y-179698650D01*
X249180557Y-179673193D01*
X249241335Y-179570618D01*
X249279287Y-179351621D01*
X249290417Y-179241594D01*
X249365697Y-178883280D01*
X249493036Y-178674348D01*
X249645000Y-178614826D01*
X249794154Y-178704746D01*
X249913062Y-178944136D01*
X249967750Y-179240860D01*
X250014339Y-179541334D01*
X250088277Y-179694018D01*
X250141212Y-179722010D01*
X250291788Y-179711170D01*
X250331712Y-179687466D01*
X250373448Y-179558383D01*
X250388866Y-179323078D01*
X250380584Y-179042176D01*
X250351217Y-178776298D01*
X250303381Y-178586067D01*
X250282558Y-178548313D01*
X250009620Y-178312914D01*
X249690975Y-178226180D01*
X249365493Y-178290748D01*
G37*
X249365493Y-178290748D02*
X249110280Y-178468762D01*
X248966342Y-178630280D01*
X248895091Y-178784541D01*
X248876555Y-178996920D01*
X248883959Y-179209595D01*
X248905997Y-179488057D01*
X248945306Y-179636075D01*
X249017372Y-179692534D01*
X249078750Y-179698650D01*
X249180557Y-179673193D01*
X249241335Y-179570618D01*
X249279287Y-179351621D01*
X249290417Y-179241594D01*
X249365697Y-178883280D01*
X249493036Y-178674348D01*
X249645000Y-178614826D01*
X249794154Y-178704746D01*
X249913062Y-178944136D01*
X249967750Y-179240860D01*
X250014339Y-179541334D01*
X250088277Y-179694018D01*
X250141212Y-179722010D01*
X250291788Y-179711170D01*
X250331712Y-179687466D01*
X250373448Y-179558383D01*
X250388866Y-179323078D01*
X250380584Y-179042176D01*
X250351217Y-178776298D01*
X250303381Y-178586067D01*
X250282558Y-178548313D01*
X250009620Y-178312914D01*
X249690975Y-178226180D01*
X249365493Y-178290748D01*
G36*
X252388040Y-178257741D02*
G01*
X252331169Y-178310479D01*
X252291054Y-178459200D01*
X252265570Y-178717000D01*
X252255915Y-179024160D01*
X252263288Y-179320958D01*
X252288888Y-179547675D01*
X252305142Y-179607059D01*
X252420130Y-179726909D01*
X252574725Y-179718821D01*
X252620639Y-179684539D01*
X252647279Y-179578552D01*
X252667145Y-179348365D01*
X252676711Y-179039080D01*
X252677084Y-178962215D01*
X252670126Y-178611142D01*
X252645035Y-178395489D01*
X252595487Y-178281752D01*
X252541539Y-178244322D01*
X252388040Y-178257741D01*
G37*
X252388040Y-178257741D02*
X252331169Y-178310479D01*
X252291054Y-178459200D01*
X252265570Y-178717000D01*
X252255915Y-179024160D01*
X252263288Y-179320958D01*
X252288888Y-179547675D01*
X252305142Y-179607059D01*
X252420130Y-179726909D01*
X252574725Y-179718821D01*
X252620639Y-179684539D01*
X252647279Y-179578552D01*
X252667145Y-179348365D01*
X252676711Y-179039080D01*
X252677084Y-178962215D01*
X252670126Y-178611142D01*
X252645035Y-178395489D01*
X252595487Y-178281752D01*
X252541539Y-178244322D01*
X252388040Y-178257741D01*
G36*
X253129160Y-178245641D02*
G01*
X252997375Y-178318058D01*
X252989092Y-178333666D01*
X252999166Y-178491993D01*
X253154273Y-178598490D01*
X253434623Y-178640161D01*
X253456017Y-178640317D01*
X253661748Y-178660016D01*
X253771914Y-178708937D01*
X253777750Y-178724984D01*
X253703625Y-178782206D01*
X253522651Y-178809312D01*
X253497599Y-178809650D01*
X253252856Y-178843125D01*
X253063683Y-178922086D01*
X252940598Y-179103801D01*
X252918155Y-179342659D01*
X252996355Y-179559623D01*
X253063683Y-179628547D01*
X253229960Y-179692044D01*
X253480630Y-179729093D01*
X253756429Y-179738397D01*
X253998098Y-179718655D01*
X254146374Y-179668568D01*
X254161043Y-179652608D01*
X254168368Y-179515109D01*
X254040218Y-179397514D01*
X253810416Y-179323082D01*
X253661550Y-179309145D01*
X253312084Y-179300640D01*
X253650750Y-179222638D01*
X253956962Y-179096570D01*
X254148262Y-178904619D01*
X254210303Y-178678182D01*
X254128739Y-178448654D01*
X254046250Y-178357106D01*
X253874008Y-178271631D01*
X253625238Y-178223708D01*
X253357702Y-178214618D01*
X253129160Y-178245641D01*
G37*
X253129160Y-178245641D02*
X252997375Y-178318058D01*
X252989092Y-178333666D01*
X252999166Y-178491993D01*
X253154273Y-178598490D01*
X253434623Y-178640161D01*
X253456017Y-178640317D01*
X253661748Y-178660016D01*
X253771914Y-178708937D01*
X253777750Y-178724984D01*
X253703625Y-178782206D01*
X253522651Y-178809312D01*
X253497599Y-178809650D01*
X253252856Y-178843125D01*
X253063683Y-178922086D01*
X252940598Y-179103801D01*
X252918155Y-179342659D01*
X252996355Y-179559623D01*
X253063683Y-179628547D01*
X253229960Y-179692044D01*
X253480630Y-179729093D01*
X253756429Y-179738397D01*
X253998098Y-179718655D01*
X254146374Y-179668568D01*
X254161043Y-179652608D01*
X254168368Y-179515109D01*
X254040218Y-179397514D01*
X253810416Y-179323082D01*
X253661550Y-179309145D01*
X253312084Y-179300640D01*
X253650750Y-179222638D01*
X253956962Y-179096570D01*
X254148262Y-178904619D01*
X254210303Y-178678182D01*
X254128739Y-178448654D01*
X254046250Y-178357106D01*
X253874008Y-178271631D01*
X253625238Y-178223708D01*
X253357702Y-178214618D01*
X253129160Y-178245641D01*
G36*
X254727838Y-178362699D02*
G01*
X254626384Y-178439988D01*
X254438565Y-178641978D01*
X254383929Y-178837902D01*
X254387054Y-178884488D01*
X254414948Y-179008793D01*
X254489939Y-179080828D01*
X254653745Y-179121216D01*
X254920750Y-179148317D01*
X255197360Y-179182616D01*
X255326780Y-179225456D01*
X255318105Y-179262121D01*
X255153843Y-179299353D01*
X255010293Y-179284106D01*
X254791744Y-179298735D01*
X254700801Y-179369964D01*
X254637080Y-179489909D01*
X254709023Y-179592072D01*
X254749629Y-179623145D01*
X255035055Y-179736458D01*
X255341792Y-179695982D01*
X255633152Y-179507019D01*
X255646930Y-179493496D01*
X255852721Y-179197107D01*
X255889899Y-178894180D01*
X255815869Y-178724984D01*
X255344084Y-178724984D01*
X255310662Y-178784648D01*
X255144934Y-178809572D01*
X255132417Y-178809650D01*
X254960314Y-178787105D01*
X254918504Y-178729013D01*
X254920750Y-178724984D01*
X255040522Y-178653118D01*
X255132417Y-178640317D01*
X255292412Y-178680358D01*
X255344084Y-178724984D01*
X255815869Y-178724984D01*
X255758466Y-178593790D01*
X255646930Y-178464471D01*
X255352567Y-178261866D01*
X255045234Y-178227919D01*
X254727838Y-178362699D01*
G37*
X254727838Y-178362699D02*
X254626384Y-178439988D01*
X254438565Y-178641978D01*
X254383929Y-178837902D01*
X254387054Y-178884488D01*
X254414948Y-179008793D01*
X254489939Y-179080828D01*
X254653745Y-179121216D01*
X254920750Y-179148317D01*
X255197360Y-179182616D01*
X255326780Y-179225456D01*
X255318105Y-179262121D01*
X255153843Y-179299353D01*
X255010293Y-179284106D01*
X254791744Y-179298735D01*
X254700801Y-179369964D01*
X254637080Y-179489909D01*
X254709023Y-179592072D01*
X254749629Y-179623145D01*
X255035055Y-179736458D01*
X255341792Y-179695982D01*
X255633152Y-179507019D01*
X255646930Y-179493496D01*
X255852721Y-179197107D01*
X255889899Y-178894180D01*
X255815869Y-178724984D01*
X255344084Y-178724984D01*
X255310662Y-178784648D01*
X255144934Y-178809572D01*
X255132417Y-178809650D01*
X254960314Y-178787105D01*
X254918504Y-178729013D01*
X254920750Y-178724984D01*
X255040522Y-178653118D01*
X255132417Y-178640317D01*
X255292412Y-178680358D01*
X255344084Y-178724984D01*
X255815869Y-178724984D01*
X255758466Y-178593790D01*
X255646930Y-178464471D01*
X255352567Y-178261866D01*
X255045234Y-178227919D01*
X254727838Y-178362699D01*
G36*
X256687141Y-177723676D02*
G01*
X256478687Y-177780406D01*
X256308066Y-177898154D01*
X256287780Y-177916607D01*
X256168612Y-178044428D01*
X256101073Y-178184689D01*
X256070881Y-178388916D01*
X256063758Y-178708636D01*
X256063750Y-178724984D01*
X256070232Y-179050547D01*
X256099195Y-179258503D01*
X256164920Y-179400376D01*
X256281687Y-179527693D01*
X256287780Y-179533360D01*
X256459842Y-179660202D01*
X256662990Y-179722947D01*
X256962843Y-179740903D01*
X256993336Y-179740984D01*
X257265502Y-179731763D01*
X257464201Y-179707962D01*
X257531306Y-179684539D01*
X257556443Y-179578510D01*
X257574083Y-179347720D01*
X257584103Y-179036582D01*
X257586149Y-178724984D01*
X257164417Y-178724984D01*
X257161954Y-179034467D01*
X257144710Y-179211568D01*
X257097904Y-179293240D01*
X257006757Y-179316432D01*
X256927351Y-179317650D01*
X256715801Y-179283341D01*
X256588684Y-179216050D01*
X256527145Y-179074411D01*
X256491044Y-178836435D01*
X256487084Y-178724983D01*
X256518176Y-178402814D01*
X256623808Y-178215501D01*
X256822510Y-178138100D01*
X256927351Y-178132317D01*
X257051144Y-178138475D01*
X257121984Y-178181586D01*
X257154653Y-178298599D01*
X257163930Y-178526467D01*
X257164417Y-178724984D01*
X257586149Y-178724984D01*
X257586382Y-178689509D01*
X257580799Y-178350913D01*
X257567230Y-178065206D01*
X257545555Y-177876800D01*
X257536359Y-177842908D01*
X257456032Y-177761033D01*
X257272606Y-177719294D01*
X256998389Y-177708984D01*
X256687141Y-177723676D01*
G37*
X256687141Y-177723676D02*
X256478687Y-177780406D01*
X256308066Y-177898154D01*
X256287780Y-177916607D01*
X256168612Y-178044428D01*
X256101073Y-178184689D01*
X256070881Y-178388916D01*
X256063758Y-178708636D01*
X256063750Y-178724984D01*
X256070232Y-179050547D01*
X256099195Y-179258503D01*
X256164920Y-179400376D01*
X256281687Y-179527693D01*
X256287780Y-179533360D01*
X256459842Y-179660202D01*
X256662990Y-179722947D01*
X256962843Y-179740903D01*
X256993336Y-179740984D01*
X257265502Y-179731763D01*
X257464201Y-179707962D01*
X257531306Y-179684539D01*
X257556443Y-179578510D01*
X257574083Y-179347720D01*
X257584103Y-179036582D01*
X257586149Y-178724984D01*
X257164417Y-178724984D01*
X257161954Y-179034467D01*
X257144710Y-179211568D01*
X257097904Y-179293240D01*
X257006757Y-179316432D01*
X256927351Y-179317650D01*
X256715801Y-179283341D01*
X256588684Y-179216050D01*
X256527145Y-179074411D01*
X256491044Y-178836435D01*
X256487084Y-178724983D01*
X256518176Y-178402814D01*
X256623808Y-178215501D01*
X256822510Y-178138100D01*
X256927351Y-178132317D01*
X257051144Y-178138475D01*
X257121984Y-178181586D01*
X257154653Y-178298599D01*
X257163930Y-178526467D01*
X257164417Y-178724984D01*
X257586149Y-178724984D01*
X257586382Y-178689509D01*
X257580799Y-178350913D01*
X257567230Y-178065206D01*
X257545555Y-177876800D01*
X257536359Y-177842908D01*
X257456032Y-177761033D01*
X257272606Y-177719294D01*
X256998389Y-177708984D01*
X256687141Y-177723676D01*
G36*
X236636715Y-178357183D02*
G01*
X236660672Y-178610838D01*
X236716713Y-178807532D01*
X236788452Y-179058125D01*
X236818888Y-179238803D01*
X236810582Y-179295040D01*
X236707971Y-179296541D01*
X236545020Y-179231344D01*
X236377409Y-179164292D01*
X236250832Y-179205853D01*
X236148269Y-179298835D01*
X236027068Y-179453963D01*
X236028223Y-179596226D01*
X236062174Y-179674547D01*
X236149378Y-179895706D01*
X236184858Y-180036345D01*
X236268655Y-180183085D01*
X236414105Y-180241248D01*
X236531046Y-180195466D01*
X236577959Y-180071725D01*
X236590417Y-179938539D01*
X236611212Y-179811213D01*
X236704817Y-179754402D01*
X236918065Y-179741000D01*
X236931741Y-179740984D01*
X237187427Y-179711751D01*
X237314876Y-179630896D01*
X237318104Y-179623615D01*
X237319545Y-179474853D01*
X237270646Y-179228284D01*
X237187477Y-178933559D01*
X237086104Y-178640330D01*
X236982598Y-178398250D01*
X236893026Y-178256971D01*
X236870811Y-178241485D01*
X236707443Y-178231560D01*
X236636715Y-178357183D01*
G37*
X236636715Y-178357183D02*
X236660672Y-178610838D01*
X236716713Y-178807532D01*
X236788452Y-179058125D01*
X236818888Y-179238803D01*
X236810582Y-179295040D01*
X236707971Y-179296541D01*
X236545020Y-179231344D01*
X236377409Y-179164292D01*
X236250832Y-179205853D01*
X236148269Y-179298835D01*
X236027068Y-179453963D01*
X236028223Y-179596226D01*
X236062174Y-179674547D01*
X236149378Y-179895706D01*
X236184858Y-180036345D01*
X236268655Y-180183085D01*
X236414105Y-180241248D01*
X236531046Y-180195466D01*
X236577959Y-180071725D01*
X236590417Y-179938539D01*
X236611212Y-179811213D01*
X236704817Y-179754402D01*
X236918065Y-179741000D01*
X236931741Y-179740984D01*
X237187427Y-179711751D01*
X237314876Y-179630896D01*
X237318104Y-179623615D01*
X237319545Y-179474853D01*
X237270646Y-179228284D01*
X237187477Y-178933559D01*
X237086104Y-178640330D01*
X236982598Y-178398250D01*
X236893026Y-178256971D01*
X236870811Y-178241485D01*
X236707443Y-178231560D01*
X236636715Y-178357183D01*
G36*
X241555292Y-178269653D02*
G01*
X241506992Y-178319773D01*
X241478192Y-178438339D01*
X241463901Y-178654018D01*
X241459128Y-178995473D01*
X241458750Y-179231824D01*
X241461887Y-179657682D01*
X241473880Y-179942444D01*
X241498607Y-180114271D01*
X241539944Y-180201327D01*
X241596264Y-180230814D01*
X241739330Y-180186855D01*
X241786764Y-180119215D01*
X241834835Y-179909519D01*
X241839750Y-179835727D01*
X241874338Y-179739535D01*
X242006394Y-179714324D01*
X242133621Y-179724627D01*
X242356183Y-179722077D01*
X242540705Y-179631111D01*
X242688246Y-179498180D01*
X242837082Y-179332751D01*
X242911112Y-179178728D01*
X242931060Y-178970069D01*
X242923542Y-178748372D01*
X242901504Y-178469910D01*
X242862195Y-178321892D01*
X242790129Y-178265433D01*
X242728750Y-178259317D01*
X242626944Y-178284774D01*
X242566166Y-178387349D01*
X242528214Y-178606346D01*
X242517084Y-178716373D01*
X242441790Y-179074838D01*
X242314449Y-179283780D01*
X242162491Y-179343200D01*
X242013348Y-179253098D01*
X241894451Y-179013473D01*
X241839750Y-178716373D01*
X241805457Y-178447947D01*
X241754635Y-178309541D01*
X241669082Y-178261851D01*
X241628084Y-178259317D01*
X241555292Y-178269653D01*
G37*
X241555292Y-178269653D02*
X241506992Y-178319773D01*
X241478192Y-178438339D01*
X241463901Y-178654018D01*
X241459128Y-178995473D01*
X241458750Y-179231824D01*
X241461887Y-179657682D01*
X241473880Y-179942444D01*
X241498607Y-180114271D01*
X241539944Y-180201327D01*
X241596264Y-180230814D01*
X241739330Y-180186855D01*
X241786764Y-180119215D01*
X241834835Y-179909519D01*
X241839750Y-179835727D01*
X241874338Y-179739535D01*
X242006394Y-179714324D01*
X242133621Y-179724627D01*
X242356183Y-179722077D01*
X242540705Y-179631111D01*
X242688246Y-179498180D01*
X242837082Y-179332751D01*
X242911112Y-179178728D01*
X242931060Y-178970069D01*
X242923542Y-178748372D01*
X242901504Y-178469910D01*
X242862195Y-178321892D01*
X242790129Y-178265433D01*
X242728750Y-178259317D01*
X242626944Y-178284774D01*
X242566166Y-178387349D01*
X242528214Y-178606346D01*
X242517084Y-178716373D01*
X242441790Y-179074838D01*
X242314449Y-179283780D01*
X242162491Y-179343200D01*
X242013348Y-179253098D01*
X241894451Y-179013473D01*
X241839750Y-178716373D01*
X241805457Y-178447947D01*
X241754635Y-178309541D01*
X241669082Y-178261851D01*
X241628084Y-178259317D01*
X241555292Y-178269653D01*
G36*
X250952868Y-178336629D02*
G01*
X250849320Y-178413566D01*
X250731838Y-178530210D01*
X250660978Y-178661493D01*
X250622969Y-178854589D01*
X250604043Y-179156675D01*
X250600302Y-179266792D01*
X250595770Y-179614439D01*
X250614535Y-179840511D01*
X250665454Y-179992148D01*
X250757384Y-180116493D01*
X250760621Y-180120026D01*
X250947255Y-180251979D01*
X251197246Y-180343626D01*
X251457712Y-180386624D01*
X251675769Y-180372625D01*
X251798536Y-180293285D01*
X251802441Y-180284433D01*
X251795263Y-180113552D01*
X251625295Y-179988435D01*
X251354842Y-179918549D01*
X251115424Y-179856849D01*
X251015812Y-179787601D01*
X251060658Y-179734500D01*
X251254611Y-179721244D01*
X251317042Y-179725960D01*
X251657886Y-179686929D01*
X251912376Y-179512748D01*
X252057198Y-179225432D01*
X252071416Y-179097063D01*
X251652788Y-179097063D01*
X251588804Y-179240145D01*
X251555250Y-179261577D01*
X251294838Y-179305922D01*
X251108271Y-179207344D01*
X251068417Y-179148317D01*
X251024512Y-178936190D01*
X251099060Y-178760939D01*
X251249933Y-178657429D01*
X251435001Y-178660526D01*
X251559484Y-178741917D01*
X251643231Y-178904483D01*
X251652788Y-179097063D01*
X252071416Y-179097063D01*
X252081724Y-179003999D01*
X252010179Y-178657481D01*
X251825811Y-178400378D01*
X251564329Y-178249795D01*
X251261445Y-178222843D01*
X250952868Y-178336629D01*
G37*
X250952868Y-178336629D02*
X250849320Y-178413566D01*
X250731838Y-178530210D01*
X250660978Y-178661493D01*
X250622969Y-178854589D01*
X250604043Y-179156675D01*
X250600302Y-179266792D01*
X250595770Y-179614439D01*
X250614535Y-179840511D01*
X250665454Y-179992148D01*
X250757384Y-180116493D01*
X250760621Y-180120026D01*
X250947255Y-180251979D01*
X251197246Y-180343626D01*
X251457712Y-180386624D01*
X251675769Y-180372625D01*
X251798536Y-180293285D01*
X251802441Y-180284433D01*
X251795263Y-180113552D01*
X251625295Y-179988435D01*
X251354842Y-179918549D01*
X251115424Y-179856849D01*
X251015812Y-179787601D01*
X251060658Y-179734500D01*
X251254611Y-179721244D01*
X251317042Y-179725960D01*
X251657886Y-179686929D01*
X251912376Y-179512748D01*
X252057198Y-179225432D01*
X252071416Y-179097063D01*
X251652788Y-179097063D01*
X251588804Y-179240145D01*
X251555250Y-179261577D01*
X251294838Y-179305922D01*
X251108271Y-179207344D01*
X251068417Y-179148317D01*
X251024512Y-178936190D01*
X251099060Y-178760939D01*
X251249933Y-178657429D01*
X251435001Y-178660526D01*
X251559484Y-178741917D01*
X251643231Y-178904483D01*
X251652788Y-179097063D01*
X252071416Y-179097063D01*
X252081724Y-179003999D01*
X252010179Y-178657481D01*
X251825811Y-178400378D01*
X251564329Y-178249795D01*
X251261445Y-178222843D01*
X250952868Y-178336629D01*
D12*
X335281250Y-93338600D03*
X329881250Y-93338600D03*
D13*
X336481250Y-93338600D03*
D14*
X328681250Y-93338600D03*
D15*
X331006250Y-93338600D03*
X334156250Y-93338600D03*
D16*
X224117000Y-88379300D03*
D17*
X226657000Y-88379300D03*
X229197000Y-88379300D03*
X231737000Y-88379300D03*
D15*
X76981200Y-93338600D03*
X73831200Y-93338600D03*
D14*
X71506200Y-93338600D03*
D13*
X79306200Y-93338600D03*
D12*
X72706200Y-93338600D03*
X78106200Y-93338600D03*
D15*
X96031200Y-93338600D03*
X92881200Y-93338600D03*
D14*
X90556200Y-93338600D03*
D13*
X98356200Y-93338600D03*
D12*
X91756200Y-93338600D03*
X97156200Y-93338600D03*
D15*
X115081200Y-93338600D03*
X111931200Y-93338600D03*
D14*
X109606200Y-93338600D03*
D13*
X117406200Y-93338600D03*
D12*
X110806200Y-93338600D03*
X116206200Y-93338600D03*
D15*
X134131200Y-93338600D03*
X130981200Y-93338600D03*
D14*
X128656200Y-93338600D03*
D13*
X136456200Y-93338600D03*
D12*
X129856200Y-93338600D03*
X135256200Y-93338600D03*
D15*
X153181200Y-93338600D03*
X150031200Y-93338600D03*
D14*
X147706200Y-93338600D03*
D13*
X155506200Y-93338600D03*
D12*
X148906200Y-93338600D03*
X154306200Y-93338600D03*
X173356000Y-93338600D03*
X167956000Y-93338600D03*
D13*
X174556000Y-93338600D03*
D14*
X166756000Y-93338600D03*
D15*
X169081000Y-93338600D03*
X172231000Y-93338600D03*
D12*
X192406000Y-93338600D03*
X187006000Y-93338600D03*
D13*
X193606000Y-93338600D03*
D14*
X185806000Y-93338600D03*
D15*
X188131000Y-93338600D03*
X191281000Y-93338600D03*
D12*
X211456000Y-93338600D03*
X206056000Y-93338600D03*
D13*
X212656000Y-93338600D03*
D14*
X204856000Y-93338600D03*
D15*
X207181000Y-93338600D03*
X210331000Y-93338600D03*
X229381000Y-93338600D03*
X226231000Y-93338600D03*
D14*
X223906000Y-93338600D03*
D13*
X231706000Y-93338600D03*
D12*
X225106000Y-93338600D03*
X230506000Y-93338600D03*
D15*
X248431000Y-93338600D03*
X245281000Y-93338600D03*
D14*
X242956000Y-93338600D03*
D13*
X250756000Y-93338600D03*
D12*
X244156000Y-93338600D03*
X249556000Y-93338600D03*
D15*
X267481000Y-93338600D03*
X264331000Y-93338600D03*
D14*
X262006000Y-93338600D03*
D13*
X269806000Y-93338600D03*
D12*
X263206000Y-93338600D03*
X268606000Y-93338600D03*
D15*
X286531000Y-93338600D03*
X283381000Y-93338600D03*
D14*
X281056000Y-93338600D03*
D13*
X288856000Y-93338600D03*
D12*
X282256000Y-93338600D03*
X287656000Y-93338600D03*
D15*
X305581000Y-93338600D03*
X302431000Y-93338600D03*
D14*
X300106000Y-93338600D03*
D13*
X307906000Y-93338600D03*
D12*
X301306000Y-93338600D03*
X306706000Y-93338600D03*
D15*
X322250000Y-90957400D03*
X319100000Y-90957400D03*
D14*
X316775000Y-90957400D03*
D13*
X324575000Y-90957400D03*
D12*
X317975000Y-90957400D03*
X323375000Y-90957400D03*
X347187500Y-90957400D03*
X341787500Y-90957400D03*
D13*
X348387500Y-90957400D03*
D14*
X340587500Y-90957400D03*
D15*
X342912500Y-90957400D03*
X346062500Y-90957400D03*
D12*
X82868800Y-112388600D03*
X77468800Y-112388600D03*
D13*
X84068800Y-112388600D03*
D14*
X76268800Y-112388600D03*
D15*
X78593800Y-112388600D03*
X81743800Y-112388600D03*
D12*
X106681200Y-112388600D03*
X101281200Y-112388600D03*
D13*
X107881200Y-112388600D03*
D14*
X100081200Y-112388600D03*
D15*
X102406200Y-112388600D03*
X105556200Y-112388600D03*
D12*
X125731200Y-112388600D03*
X120331200Y-112388600D03*
D13*
X126931200Y-112388600D03*
D14*
X119131200Y-112388600D03*
D15*
X121456200Y-112388600D03*
X124606200Y-112388600D03*
D12*
X144781200Y-112388600D03*
X139381200Y-112388600D03*
D13*
X145981200Y-112388600D03*
D14*
X138181200Y-112388600D03*
D15*
X140506200Y-112388600D03*
X143656200Y-112388600D03*
D12*
X163831000Y-112388600D03*
X158431000Y-112388600D03*
D13*
X165031000Y-112388600D03*
D14*
X157231000Y-112388600D03*
D15*
X159556000Y-112388600D03*
X162706000Y-112388600D03*
D12*
X182881000Y-112388600D03*
X177481000Y-112388600D03*
D13*
X184081000Y-112388600D03*
D14*
X176281000Y-112388600D03*
D15*
X178606000Y-112388600D03*
X181756000Y-112388600D03*
X196044000Y-112388600D03*
X192894000Y-112388600D03*
D14*
X190569000Y-112388600D03*
D13*
X198369000Y-112388600D03*
D12*
X191769000Y-112388600D03*
X197169000Y-112388600D03*
D15*
X224619000Y-112388600D03*
X221469000Y-112388600D03*
D14*
X219144000Y-112388600D03*
D13*
X226944000Y-112388600D03*
D12*
X220344000Y-112388600D03*
X225744000Y-112388600D03*
D15*
X238906000Y-112388600D03*
X235756000Y-112388600D03*
D14*
X233431000Y-112388600D03*
D13*
X241231000Y-112388600D03*
D12*
X234631000Y-112388600D03*
X240031000Y-112388600D03*
D15*
X257956000Y-112388600D03*
X254806000Y-112388600D03*
D14*
X252481000Y-112388600D03*
D13*
X260281000Y-112388600D03*
D12*
X253681000Y-112388600D03*
X259081000Y-112388600D03*
D15*
X277006000Y-112388600D03*
X273856000Y-112388600D03*
D14*
X271531000Y-112388600D03*
D13*
X279331000Y-112388600D03*
D12*
X272731000Y-112388600D03*
X278131000Y-112388600D03*
D15*
X296056000Y-112388600D03*
X292906000Y-112388600D03*
D14*
X290581000Y-112388600D03*
D13*
X298381000Y-112388600D03*
D12*
X291781000Y-112388600D03*
X297181000Y-112388600D03*
D15*
X315106000Y-112388600D03*
X311956000Y-112388600D03*
D14*
X309631000Y-112388600D03*
D13*
X317431000Y-112388600D03*
D12*
X310831000Y-112388600D03*
X316231000Y-112388600D03*
X340044000Y-112388600D03*
X334644000Y-112388600D03*
D13*
X341244000Y-112388600D03*
D14*
X333444000Y-112388600D03*
D15*
X335769000Y-112388600D03*
X338919000Y-112388600D03*
D12*
X85250000Y-131438600D03*
X79850000Y-131438600D03*
D13*
X86450000Y-131438600D03*
D14*
X78650000Y-131438600D03*
D15*
X80975000Y-131438600D03*
X84125000Y-131438600D03*
X110318800Y-131438600D03*
X107168800Y-131438600D03*
D14*
X104843800Y-131438600D03*
D13*
X112643800Y-131438600D03*
D12*
X106043800Y-131438600D03*
X111443800Y-131438600D03*
D15*
X129368800Y-131438600D03*
X126218800Y-131438600D03*
D14*
X123893800Y-131438600D03*
D13*
X131693800Y-131438600D03*
D12*
X125093800Y-131438600D03*
X130493800Y-131438600D03*
X149543800Y-131438600D03*
X144143800Y-131438600D03*
D13*
X150743800Y-131438600D03*
D14*
X142943800Y-131438600D03*
D15*
X145268800Y-131438600D03*
X148418800Y-131438600D03*
D12*
X168594000Y-131438600D03*
X163194000Y-131438600D03*
D13*
X169794000Y-131438600D03*
D14*
X161994000Y-131438600D03*
D15*
X164319000Y-131438600D03*
X167469000Y-131438600D03*
X186519000Y-131438600D03*
X183369000Y-131438600D03*
D14*
X181044000Y-131438600D03*
D13*
X188844000Y-131438600D03*
D12*
X182244000Y-131438600D03*
X187644000Y-131438600D03*
X206694000Y-131438600D03*
X201294000Y-131438600D03*
D13*
X207894000Y-131438600D03*
D14*
X200094000Y-131438600D03*
D15*
X202419000Y-131438600D03*
X205569000Y-131438600D03*
D12*
X225744000Y-131438600D03*
X220344000Y-131438600D03*
D13*
X226944000Y-131438600D03*
D14*
X219144000Y-131438600D03*
D15*
X221469000Y-131438600D03*
X224619000Y-131438600D03*
D12*
X244794000Y-131438600D03*
X239394000Y-131438600D03*
D13*
X245994000Y-131438600D03*
D14*
X238194000Y-131438600D03*
D15*
X240519000Y-131438600D03*
X243669000Y-131438600D03*
D12*
X263844000Y-131438600D03*
X258444000Y-131438600D03*
D13*
X265044000Y-131438600D03*
D14*
X257244000Y-131438600D03*
D15*
X259569000Y-131438600D03*
X262719000Y-131438600D03*
D12*
X282894000Y-131438600D03*
X277494000Y-131438600D03*
D13*
X284094000Y-131438600D03*
D14*
X276294000Y-131438600D03*
D15*
X278619000Y-131438600D03*
X281769000Y-131438600D03*
X300819000Y-131438600D03*
X297669000Y-131438600D03*
D14*
X295344000Y-131438600D03*
D13*
X303144000Y-131438600D03*
D12*
X296544000Y-131438600D03*
X301944000Y-131438600D03*
D15*
X319869000Y-131438600D03*
X316719000Y-131438600D03*
D14*
X314394000Y-131438600D03*
D13*
X322194000Y-131438600D03*
D12*
X315594000Y-131438600D03*
X320994000Y-131438600D03*
D15*
X331775000Y-131438600D03*
X328625000Y-131438600D03*
D14*
X326300000Y-131438600D03*
D13*
X334100000Y-131438600D03*
D12*
X327500000Y-131438600D03*
X332900000Y-131438600D03*
D15*
X88887500Y-150488600D03*
X85737500Y-150488600D03*
D14*
X83412500Y-150488600D03*
D13*
X91212500Y-150488600D03*
D12*
X84612500Y-150488600D03*
X90012500Y-150488600D03*
D15*
X100793800Y-150488600D03*
X97643800Y-150488600D03*
D14*
X95318800Y-150488600D03*
D13*
X103118800Y-150488600D03*
D12*
X96518800Y-150488600D03*
X101918800Y-150488600D03*
D15*
X119843800Y-150488600D03*
X116693800Y-150488600D03*
D14*
X114368800Y-150488600D03*
D13*
X122168800Y-150488600D03*
D12*
X115568800Y-150488600D03*
X120968800Y-150488600D03*
X140018800Y-150488600D03*
X134618800Y-150488600D03*
D13*
X141218800Y-150488600D03*
D14*
X133418800Y-150488600D03*
D15*
X135743800Y-150488600D03*
X138893800Y-150488600D03*
D12*
X159069000Y-150488600D03*
X153669000Y-150488600D03*
D13*
X160269000Y-150488600D03*
D14*
X152469000Y-150488600D03*
D15*
X154794000Y-150488600D03*
X157944000Y-150488600D03*
D12*
X178119000Y-150488600D03*
X172719000Y-150488600D03*
D13*
X179319000Y-150488600D03*
D14*
X171519000Y-150488600D03*
D15*
X173844000Y-150488600D03*
X176994000Y-150488600D03*
D12*
X197169000Y-150488600D03*
X191769000Y-150488600D03*
D13*
X198369000Y-150488600D03*
D14*
X190569000Y-150488600D03*
D15*
X192894000Y-150488600D03*
X196044000Y-150488600D03*
D12*
X216219000Y-150488600D03*
X210819000Y-150488600D03*
D13*
X217419000Y-150488600D03*
D14*
X209619000Y-150488600D03*
D15*
X211944000Y-150488600D03*
X215094000Y-150488600D03*
D12*
X235269000Y-150488600D03*
X229869000Y-150488600D03*
D13*
X236469000Y-150488600D03*
D14*
X228669000Y-150488600D03*
D15*
X230994000Y-150488600D03*
X234144000Y-150488600D03*
D12*
X254319000Y-150488600D03*
X248919000Y-150488600D03*
D13*
X255519000Y-150488600D03*
D14*
X247719000Y-150488600D03*
D15*
X250044000Y-150488600D03*
X253194000Y-150488600D03*
D12*
X273369000Y-150488600D03*
X267969000Y-150488600D03*
D13*
X274569000Y-150488600D03*
D14*
X266769000Y-150488600D03*
D15*
X269094000Y-150488600D03*
X272244000Y-150488600D03*
X291294000Y-150488600D03*
X288144000Y-150488600D03*
D14*
X285819000Y-150488600D03*
D13*
X293619000Y-150488600D03*
D12*
X287019000Y-150488600D03*
X292419000Y-150488600D03*
D15*
X327012000Y-150488600D03*
X323862000Y-150488600D03*
D14*
X321537000Y-150488600D03*
D13*
X329337000Y-150488600D03*
D12*
X322737000Y-150488600D03*
X328137000Y-150488600D03*
D15*
X349250000Y-158438600D03*
X349250000Y-161588600D03*
D14*
X349250000Y-163913600D03*
D13*
X349250000Y-156113600D03*
D18*
X349250000Y-162713600D03*
X349250000Y-157313600D03*
D15*
X107937500Y-169538600D03*
X104787500Y-169538600D03*
D14*
X102462500Y-169538600D03*
D13*
X110262500Y-169538600D03*
D12*
X103662500Y-169538600D03*
X109062500Y-169538600D03*
X130493800Y-169538600D03*
X125093800Y-169538600D03*
D13*
X131693800Y-169538600D03*
D14*
X123893800Y-169538600D03*
D15*
X126218800Y-169538600D03*
X129368800Y-169538600D03*
D12*
X211456000Y-169538600D03*
X206056000Y-169538600D03*
D13*
X212656000Y-169538600D03*
D14*
X204856000Y-169538600D03*
D15*
X207181000Y-169538600D03*
X210331000Y-169538600D03*
D12*
X292419000Y-169538600D03*
X287019000Y-169538600D03*
D13*
X293619000Y-169538600D03*
D14*
X285819000Y-169538600D03*
D15*
X288144000Y-169538600D03*
X291294000Y-169538600D03*
D12*
X309087000Y-169538600D03*
X303687000Y-169538600D03*
D13*
X310287000Y-169538600D03*
D14*
X302487000Y-169538600D03*
D15*
X304812000Y-169538600D03*
X307962000Y-169538600D03*
D19*
X77946200Y-97783600D03*
X71596200Y-100323600D03*
X90646200Y-100323600D03*
X96996200Y-97783600D03*
X116046200Y-97783600D03*
X109696200Y-100323600D03*
X135096200Y-97783600D03*
X128746200Y-100323600D03*
X147796200Y-100323600D03*
X154146200Y-97783600D03*
X173196000Y-97783600D03*
X166846000Y-100323600D03*
X192246000Y-97783600D03*
X185896000Y-100323600D03*
X211296000Y-97783600D03*
X204946000Y-100323600D03*
X223996000Y-100323600D03*
X230346000Y-97783600D03*
X243046000Y-100323600D03*
X249396000Y-97783600D03*
X262096000Y-100323600D03*
X268446000Y-97783600D03*
X281146000Y-100323600D03*
X287496000Y-97783600D03*
X300196000Y-100323600D03*
X306546000Y-97783600D03*
X319246000Y-100323600D03*
X325596000Y-97783600D03*
X328771000Y-100323600D03*
X335121000Y-97783600D03*
X338296000Y-100323600D03*
X344646000Y-97783600D03*
X82708800Y-116833600D03*
X76358800Y-119373600D03*
X106521200Y-116833600D03*
X100171200Y-119373600D03*
X125571200Y-116833600D03*
X119221200Y-119373600D03*
X138271200Y-119373600D03*
X144621200Y-116833600D03*
X163671000Y-116833600D03*
X157321000Y-119373600D03*
X182721000Y-116833600D03*
X176371000Y-119373600D03*
X201771000Y-116833600D03*
X195421000Y-119373600D03*
X214471000Y-119373600D03*
X220821000Y-116833600D03*
X239871000Y-116833600D03*
X233521000Y-119373600D03*
X258921000Y-116833600D03*
X252571000Y-119373600D03*
X277971000Y-116833600D03*
X271621000Y-119373600D03*
X297021000Y-116833600D03*
X290671000Y-119373600D03*
X316071000Y-116833600D03*
X309721000Y-119373600D03*
X333534000Y-119373600D03*
X339884000Y-116833600D03*
X85090000Y-135883600D03*
X78740000Y-138423600D03*
X111283800Y-135883600D03*
X104933800Y-138423600D03*
X123983800Y-138423600D03*
X130333800Y-135883600D03*
X149383800Y-135883600D03*
X143033800Y-138423600D03*
X162084000Y-138423600D03*
X168434000Y-135883600D03*
X181134000Y-138423600D03*
X187484000Y-135883600D03*
X200184000Y-138423600D03*
X206534000Y-135883600D03*
X219234000Y-138423600D03*
X225584000Y-135883600D03*
X244634000Y-135883600D03*
X238284000Y-138423600D03*
X257334000Y-138423600D03*
X263684000Y-135883600D03*
X276384000Y-138423600D03*
X282734000Y-135883600D03*
X295434000Y-138423600D03*
X301784000Y-135883600D03*
X314484000Y-138423600D03*
X320834000Y-135883600D03*
X332740000Y-135883600D03*
X326390000Y-138423600D03*
X83502500Y-157473600D03*
X89852500Y-154933600D03*
X95408800Y-157473600D03*
X101758800Y-154933600D03*
X114458800Y-157473600D03*
X120808800Y-154933600D03*
X133508800Y-157473600D03*
X139858800Y-154933600D03*
X158909000Y-154933600D03*
X152559000Y-157473600D03*
X171609000Y-157473600D03*
X177959000Y-154933600D03*
X197009000Y-154933600D03*
X190659000Y-157473600D03*
X216059000Y-154933600D03*
X209709000Y-157473600D03*
X235109000Y-154933600D03*
X228759000Y-157473600D03*
X254159000Y-154933600D03*
X247809000Y-157473600D03*
X273209000Y-154933600D03*
X266859000Y-157473600D03*
X292259000Y-154933600D03*
X285909000Y-157473600D03*
X321627000Y-157473600D03*
X327977000Y-154933600D03*
X338296000Y-157473600D03*
X344646000Y-154933600D03*
X100171200Y-176523600D03*
X106521200Y-173983600D03*
X130333800Y-173983600D03*
X123983800Y-176523600D03*
X204946000Y-176523600D03*
X211296000Y-173983600D03*
X285909000Y-176523600D03*
X292259000Y-173983600D03*
X309721000Y-176523600D03*
X316071000Y-173983600D03*
X80327500Y-135883600D03*
X73977500Y-138423600D03*
X344805000Y-133978600D03*
X342265000Y-127628600D03*
X73977500Y-157473600D03*
X80327500Y-154933600D03*
X312103000Y-157473600D03*
X318453000Y-154933600D03*
D20*
X192856000Y-86332400D03*
X186556000Y-86332400D03*
X192856000Y-90132400D03*
X186556000Y-90132400D03*
D14*
X216376000Y-86162400D03*
D13*
X216376000Y-88702400D03*
X216376000Y-91242400D03*
X216376000Y-93782400D03*
X216376000Y-96322400D03*
X216376000Y-98862400D03*
X216376000Y-101402400D03*
X216376000Y-103942400D03*
X216376000Y-106482400D03*
X216376000Y-109022400D03*
X216376000Y-111562400D03*
X216376000Y-114102400D03*
X201136000Y-114102400D03*
X201136000Y-111562400D03*
X201136000Y-109022400D03*
X201136000Y-106482400D03*
X201136000Y-103942400D03*
X201136000Y-101402400D03*
X201136000Y-98862400D03*
X201136000Y-96322400D03*
X201136000Y-93782400D03*
X201136000Y-91242400D03*
X201136000Y-88702400D03*
X201136000Y-86162400D03*
D21*
X218742000Y-108503000D03*
X206535000Y-116123400D03*
X196578000Y-117333300D03*
X104008600Y-106081600D03*
X94171400Y-114251200D03*
X335500000Y-131438700D03*
X325437000Y-148107400D03*
X125526400Y-120697200D03*
X229165000Y-110998400D03*
X274371000Y-137404200D03*
X286205000Y-129566500D03*
X205781000Y-119373600D03*
X298645000Y-128819700D03*
X205339000Y-117248100D03*
X238514000Y-133821100D03*
X167282000Y-129095800D03*
X204229000Y-118272000D03*
X95568200Y-134046200D03*
X257533000Y-119373600D03*
X287576000Y-175556900D03*
X198856100Y-108103200D03*
X196059900Y-102007500D03*
X244893800Y-107910900D03*
D22*
X216376000Y-86162400D02*
X217501000Y-86162400D01*
X217501000Y-86162400D02*
X223552000Y-92213300D01*
X223552000Y-92213300D02*
X223906000Y-92213300D01*
X223906000Y-92213300D02*
X223906000Y-93338600D01*
X204856000Y-93338600D02*
X206056000Y-93338600D01*
X207181000Y-93338600D02*
X206056000Y-93338600D01*
X207181000Y-93338600D02*
X208106000Y-93338600D01*
X208106000Y-93338600D02*
X215251000Y-86194200D01*
X215251000Y-86194200D02*
X215251000Y-86162400D01*
X215251000Y-86162400D02*
X216376000Y-86162400D01*
X188131000Y-93338600D02*
X187006000Y-93338600D01*
X185806000Y-93338600D02*
X187006000Y-93338600D01*
X169081000Y-93338600D02*
X167956000Y-93338600D01*
X167956000Y-93338600D02*
X166756000Y-93338600D01*
X166756000Y-93338600D02*
X165631000Y-93338600D01*
X165631000Y-93338600D02*
X164495000Y-92203100D01*
X164495000Y-92203100D02*
X152092000Y-92203100D01*
X152092000Y-92203100D02*
X150956500Y-93338600D01*
X150956500Y-93338600D02*
X150031200Y-93338600D01*
X226231000Y-93338600D02*
X225106000Y-93338600D01*
X225106000Y-93338600D02*
X223906000Y-93338600D01*
X150031200Y-93338600D02*
X148906200Y-93338600D01*
X148906200Y-93338600D02*
X147706200Y-93338600D01*
X130981200Y-93338600D02*
X129856200Y-93338600D01*
X129856200Y-93338600D02*
X128656200Y-93338600D01*
X111931200Y-93338600D02*
X110806200Y-93338600D01*
X110806200Y-93338600D02*
X109606200Y-93338600D01*
X92881200Y-93338600D02*
X91756200Y-93338600D01*
X91756200Y-93338600D02*
X90556200Y-93338600D01*
X73831200Y-93338600D02*
X72706200Y-93338600D01*
X72706200Y-93338600D02*
X71506200Y-93338600D01*
X77946200Y-97783600D02*
X76530900Y-96368300D01*
X76530900Y-96368300D02*
X76530900Y-93338600D01*
X76530900Y-93338600D02*
X76981200Y-93338600D01*
X78106200Y-93338600D02*
X76981200Y-93338600D01*
X78106200Y-93338600D02*
X79306200Y-93338600D01*
X96996200Y-97783600D02*
X95580900Y-96368300D01*
X95580900Y-96368300D02*
X95580900Y-93338600D01*
X95580900Y-93338600D02*
X96031200Y-93338600D01*
X97156200Y-93338600D02*
X96031200Y-93338600D01*
X97156200Y-93338600D02*
X98356200Y-93338600D01*
X116046200Y-97783600D02*
X114630900Y-96368300D01*
X114630900Y-96368300D02*
X114630900Y-93338600D01*
X114630900Y-93338600D02*
X115081200Y-93338600D01*
X116206200Y-93338600D02*
X115081200Y-93338600D01*
X116206200Y-93338600D02*
X117406200Y-93338600D01*
X135096200Y-97783600D02*
X133680900Y-96368300D01*
X133680900Y-96368300D02*
X133680900Y-93338600D01*
X133680900Y-93338600D02*
X134131200Y-93338600D01*
X135256200Y-93338600D02*
X134131200Y-93338600D01*
X135256200Y-93338600D02*
X136456200Y-93338600D01*
X155506200Y-93338600D02*
X155506000Y-93338600D01*
X154146200Y-97783600D02*
X154146000Y-97783600D01*
X154146000Y-97783600D02*
X152730900Y-96368300D01*
X152730900Y-96368300D02*
X152730900Y-93338600D01*
X152730900Y-93338600D02*
X153181200Y-93338600D01*
X154306200Y-93338600D02*
X153181200Y-93338600D01*
X155506000Y-93338600D02*
X154306200Y-93338600D01*
X173196000Y-97783600D02*
X171781000Y-96368300D01*
X171781000Y-96368300D02*
X171781000Y-93338600D01*
X171781000Y-93338600D02*
X172231000Y-93338600D01*
X173356000Y-93338600D02*
X172231000Y-93338600D01*
X173356000Y-93338600D02*
X174556000Y-93338600D01*
X192246000Y-97783600D02*
X190831000Y-96368300D01*
X190831000Y-96368300D02*
X190831000Y-93338600D01*
X190831000Y-93338600D02*
X191281000Y-93338600D01*
X192406000Y-93338600D02*
X191281000Y-93338600D01*
X192406000Y-93338600D02*
X193606000Y-93338600D01*
X210331000Y-93338600D02*
X211456000Y-93338600D01*
X212656000Y-93338600D02*
X211456000Y-93338600D01*
X230346000Y-97783600D02*
X228931000Y-96368300D01*
X228931000Y-96368300D02*
X228931000Y-93338600D01*
X228931000Y-93338600D02*
X229381000Y-93338600D01*
X230506000Y-93338600D02*
X229381000Y-93338600D01*
X230506000Y-93338600D02*
X231706000Y-93338600D01*
X102406200Y-112388600D02*
X101281200Y-112388600D01*
X100081200Y-112388600D02*
X101281200Y-112388600D01*
X78593800Y-112388600D02*
X77468800Y-112388600D01*
X76268800Y-112388600D02*
X77468800Y-112388600D01*
X302431000Y-93338600D02*
X301306000Y-93338600D01*
X301306000Y-93338600D02*
X300106000Y-93338600D01*
X283381000Y-93338600D02*
X282256000Y-93338600D01*
X282256000Y-93338600D02*
X281056000Y-93338600D01*
X264331000Y-93338600D02*
X263206000Y-93338600D01*
X263206000Y-93338600D02*
X262006000Y-93338600D01*
X245281000Y-93338600D02*
X244156000Y-93338600D01*
X244156000Y-93338600D02*
X242956000Y-93338600D01*
X249396000Y-97783600D02*
X247981000Y-96368300D01*
X247981000Y-96368300D02*
X247981000Y-93338600D01*
X247981000Y-93338600D02*
X248431000Y-93338600D01*
X249556000Y-93338600D02*
X248431000Y-93338600D01*
X249556000Y-93338600D02*
X250756000Y-93338600D01*
X268446000Y-97783600D02*
X267031000Y-96368300D01*
X267031000Y-96368300D02*
X267031000Y-93338600D01*
X267031000Y-93338600D02*
X267481000Y-93338600D01*
X268606000Y-93338600D02*
X267481000Y-93338600D01*
X268606000Y-93338600D02*
X269806000Y-93338600D01*
X287496000Y-97783600D02*
X286081000Y-96368300D01*
X286081000Y-96368300D02*
X286081000Y-93338600D01*
X286081000Y-93338600D02*
X286531000Y-93338600D01*
X287656000Y-93338600D02*
X286531000Y-93338600D01*
X287656000Y-93338600D02*
X288856000Y-93338600D01*
X306546000Y-97783600D02*
X305131000Y-96368300D01*
X305131000Y-96368300D02*
X305131000Y-93338600D01*
X305131000Y-93338600D02*
X305581000Y-93338600D01*
X306706000Y-93338600D02*
X305581000Y-93338600D01*
X306706000Y-93338600D02*
X307906000Y-93338600D01*
X325596000Y-91978400D02*
X324575000Y-90957400D01*
X325596000Y-97783600D02*
X325596000Y-91978400D01*
X335121000Y-94698850D02*
X336481250Y-93338600D01*
X335121000Y-97783600D02*
X335121000Y-94698850D01*
X348387500Y-94714872D02*
X348387500Y-90957400D01*
X345318772Y-97783600D02*
X348387500Y-94714872D01*
X344646000Y-97783600D02*
X345318772Y-97783600D01*
X82708800Y-116833600D02*
X81293500Y-115418300D01*
X81293500Y-115418300D02*
X81293500Y-112388600D01*
X81293500Y-112388600D02*
X81743800Y-112388600D01*
X82868800Y-112388600D02*
X81743800Y-112388600D01*
X82868800Y-112388600D02*
X84068800Y-112388600D01*
X106521200Y-116833600D02*
X105105900Y-115418300D01*
X105105900Y-115418300D02*
X105105900Y-112388600D01*
X105105900Y-112388600D02*
X105556200Y-112388600D01*
X106681200Y-112388600D02*
X105556200Y-112388600D01*
X106681200Y-112388600D02*
X107881200Y-112388600D01*
X125571200Y-116833600D02*
X124155900Y-115418300D01*
X124155900Y-115418300D02*
X124155900Y-112388600D01*
X124155900Y-112388600D02*
X124606200Y-112388600D01*
X125731200Y-112388600D02*
X124606200Y-112388600D01*
X125731200Y-112388600D02*
X126931200Y-112388600D01*
X178606000Y-112388600D02*
X177481000Y-112388600D01*
X176281000Y-112388600D02*
X177481000Y-112388600D01*
X159556000Y-112388600D02*
X158431000Y-112388600D01*
X157231000Y-112388600D02*
X158431000Y-112388600D01*
X140506200Y-112388600D02*
X139381200Y-112388600D01*
X138181200Y-112388600D02*
X139381200Y-112388600D01*
X121456200Y-112388600D02*
X120331200Y-112388600D01*
X119131200Y-112388600D02*
X120331200Y-112388600D01*
X273856000Y-112388600D02*
X272731000Y-112388600D01*
X272731000Y-112388600D02*
X271531000Y-112388600D01*
X254806000Y-112388600D02*
X253681000Y-112388600D01*
X253681000Y-112388600D02*
X252481000Y-112388600D01*
X235756000Y-112388600D02*
X234631000Y-112388600D01*
X234631000Y-112388600D02*
X233431000Y-112388600D01*
X221469000Y-112388600D02*
X220344000Y-112388600D01*
X220344000Y-112388600D02*
X219144000Y-112388600D01*
X192894000Y-112388600D02*
X191769000Y-112388600D01*
X191769000Y-112388600D02*
X190569000Y-112388600D01*
X216376000Y-96322400D02*
X218742000Y-98688100D01*
X218742000Y-98688100D02*
X218742000Y-108503000D01*
X219144000Y-112388600D02*
X219144000Y-108905300D01*
X219144000Y-108905300D02*
X218742000Y-108503000D01*
X144621200Y-116833600D02*
X143205900Y-115418300D01*
X143205900Y-115418300D02*
X143205900Y-112388600D01*
X143205900Y-112388600D02*
X143656200Y-112388600D01*
X144781200Y-112388600D02*
X143656200Y-112388600D01*
X144781200Y-112388600D02*
X145981200Y-112388600D01*
X163671000Y-116833600D02*
X162256000Y-115418300D01*
X162256000Y-115418300D02*
X162256000Y-112388600D01*
X162256000Y-112388600D02*
X162706000Y-112388600D01*
X163831000Y-112388600D02*
X162706000Y-112388600D01*
X163831000Y-112388600D02*
X165031000Y-112388600D01*
X182721000Y-116833600D02*
X181306000Y-115418300D01*
X181306000Y-115418300D02*
X181306000Y-112388600D01*
X181306000Y-112388600D02*
X181756000Y-112388600D01*
X182881000Y-112388600D02*
X181756000Y-112388600D01*
X182881000Y-112388600D02*
X184081000Y-112388600D01*
X201771000Y-116833600D02*
X198369000Y-113431600D01*
X198369000Y-113431600D02*
X198369000Y-112388600D01*
X196044000Y-112388600D02*
X197169000Y-112388600D01*
X197169000Y-112388600D02*
X198369000Y-112388600D01*
X220821000Y-116833600D02*
X224341000Y-113313900D01*
X224341000Y-113313900D02*
X224619000Y-113313900D01*
X224619000Y-113313900D02*
X224619000Y-112388600D01*
X224619000Y-112388600D02*
X225744000Y-112388600D01*
X225744000Y-112388600D02*
X226944000Y-112388600D01*
X239871000Y-116833600D02*
X238456000Y-115418300D01*
X238456000Y-115418300D02*
X238456000Y-112388600D01*
X238456000Y-112388600D02*
X238906000Y-112388600D01*
X240031000Y-112388600D02*
X238906000Y-112388600D01*
X240031000Y-112388600D02*
X241231000Y-112388600D01*
X258921000Y-116833600D02*
X257506000Y-115418300D01*
X257506000Y-115418300D02*
X257506000Y-112388600D01*
X257506000Y-112388600D02*
X257956000Y-112388600D01*
X259081000Y-112388600D02*
X257956000Y-112388600D01*
X259081000Y-112388600D02*
X260281000Y-112388600D01*
X277971000Y-116833600D02*
X276556000Y-115418300D01*
X276556000Y-115418300D02*
X276556000Y-112388600D01*
X276556000Y-112388600D02*
X277006000Y-112388600D01*
X278131000Y-112388600D02*
X277006000Y-112388600D01*
X278131000Y-112388600D02*
X279331000Y-112388600D01*
X80327500Y-135883600D02*
X81425300Y-134785800D01*
X81425300Y-134785800D02*
X81425300Y-131438600D01*
X81425300Y-131438600D02*
X80975000Y-131438600D01*
X164319000Y-131438600D02*
X163194000Y-131438600D01*
X161994000Y-131438600D02*
X163194000Y-131438600D01*
X145268800Y-131438600D02*
X144143800Y-131438600D01*
X142943800Y-131438600D02*
X144143800Y-131438600D01*
X79850000Y-131438600D02*
X80975000Y-131438600D01*
X79850000Y-131438600D02*
X78650000Y-131438600D01*
X335769000Y-112388600D02*
X334644000Y-112388600D01*
X333444000Y-112388600D02*
X334644000Y-112388600D01*
X182244000Y-131438600D02*
X181044000Y-131438600D01*
X126218800Y-131438600D02*
X125093800Y-131438600D01*
X125093800Y-131438600D02*
X123893800Y-131438600D01*
X107168800Y-131438600D02*
X106043800Y-131438600D01*
X106043800Y-131438600D02*
X104843800Y-131438600D01*
X183369000Y-131438600D02*
X182244000Y-131438600D01*
X216376000Y-98862400D02*
X216140000Y-98862400D01*
X216140000Y-98862400D02*
X206535000Y-108466500D01*
X206535000Y-108466500D02*
X206535000Y-116123400D01*
X311956000Y-112388600D02*
X310831000Y-112388600D01*
X310831000Y-112388600D02*
X309631000Y-112388600D01*
X292906000Y-112388600D02*
X291781000Y-112388600D01*
X291781000Y-112388600D02*
X290581000Y-112388600D01*
X183369000Y-131438600D02*
X183369000Y-130513300D01*
X183369000Y-130513300D02*
X193198000Y-120684400D01*
X193198000Y-120684400D02*
X194681000Y-120684400D01*
X194681000Y-120684400D02*
X194850000Y-120853500D01*
X194850000Y-120853500D02*
X196040000Y-120853500D01*
X196040000Y-120853500D02*
X196885000Y-120007700D01*
X196885000Y-120007700D02*
X196885000Y-117640300D01*
X196885000Y-117640300D02*
X196578000Y-117333300D01*
X297021000Y-116833600D02*
X295606000Y-115418300D01*
X295606000Y-115418300D02*
X295606000Y-112388600D01*
X295606000Y-112388600D02*
X296056000Y-112388600D01*
X297181000Y-112388600D02*
X296056000Y-112388600D01*
X297181000Y-112388600D02*
X298381000Y-112388600D01*
X316071000Y-116833600D02*
X314656000Y-115418300D01*
X314656000Y-115418300D02*
X314656000Y-112388600D01*
X314656000Y-112388600D02*
X315106000Y-112388600D01*
X316231000Y-112388600D02*
X315106000Y-112388600D01*
X316231000Y-112388600D02*
X317431000Y-112388600D01*
X339884000Y-116833600D02*
X338469000Y-115418300D01*
X338469000Y-115418300D02*
X338469000Y-112388600D01*
X338469000Y-112388600D02*
X338919000Y-112388600D01*
X340044000Y-112388600D02*
X338919000Y-112388600D01*
X340044000Y-112388600D02*
X341244000Y-112388600D01*
X85090000Y-135883600D02*
X83674700Y-134468300D01*
X83674700Y-134468300D02*
X83674700Y-131438600D01*
X83674700Y-131438600D02*
X84125000Y-131438600D01*
X85250000Y-131438600D02*
X84125000Y-131438600D01*
X85250000Y-131438600D02*
X86450000Y-131438600D01*
X111283800Y-131438600D02*
X111283800Y-135883600D01*
X110318800Y-131438600D02*
X111283800Y-131438600D01*
X111443800Y-131438600D02*
X112643800Y-131438600D01*
X111283800Y-131438600D02*
X111443800Y-131438600D01*
X130333800Y-135883600D02*
X128918500Y-134468300D01*
X128918500Y-134468300D02*
X128918500Y-131438600D01*
X128918500Y-131438600D02*
X129368800Y-131438600D01*
X130493800Y-131438600D02*
X129368800Y-131438600D01*
X130493800Y-131438600D02*
X131693800Y-131438600D01*
X149383800Y-135883600D02*
X147968500Y-134468300D01*
X147968500Y-134468300D02*
X147968500Y-131438600D01*
X147968500Y-131438600D02*
X148418800Y-131438600D01*
X149543800Y-131438600D02*
X148418800Y-131438600D01*
X149543800Y-131438600D02*
X150743800Y-131438600D01*
X168434000Y-135883600D02*
X167019000Y-134468300D01*
X167019000Y-134468300D02*
X167019000Y-131438600D01*
X167019000Y-131438600D02*
X167469000Y-131438600D01*
X168594000Y-131438600D02*
X167469000Y-131438600D01*
X168594000Y-131438600D02*
X169794000Y-131438600D01*
X187484000Y-135883600D02*
X186069000Y-134468300D01*
X186069000Y-134468300D02*
X186069000Y-131438600D01*
X186069000Y-131438600D02*
X186519000Y-131438600D01*
X187644000Y-131438600D02*
X186519000Y-131438600D01*
X187644000Y-131438600D02*
X188844000Y-131438600D01*
X206534000Y-135883600D02*
X205119000Y-134468300D01*
X205119000Y-134468300D02*
X205119000Y-131438600D01*
X205119000Y-131438600D02*
X205569000Y-131438600D01*
X206694000Y-131438600D02*
X205569000Y-131438600D01*
X206694000Y-131438600D02*
X207894000Y-131438600D01*
X315594000Y-131438600D02*
X314394000Y-131438600D01*
X316719000Y-131438600D02*
X315594000Y-131438600D01*
X80327500Y-154933600D02*
X83412500Y-151848600D01*
X83412500Y-151848600D02*
X83412500Y-150488600D01*
X278619000Y-131438600D02*
X277494000Y-131438600D01*
X276294000Y-131438600D02*
X277494000Y-131438600D01*
X259569000Y-131438600D02*
X258444000Y-131438600D01*
X257244000Y-131438600D02*
X258444000Y-131438600D01*
X240519000Y-131438600D02*
X239394000Y-131438600D01*
X238194000Y-131438600D02*
X239394000Y-131438600D01*
X221469000Y-131438600D02*
X220344000Y-131438600D01*
X219144000Y-131438600D02*
X220344000Y-131438600D01*
X201294000Y-131438600D02*
X202419000Y-131438600D01*
X202419000Y-131438600D02*
X202869000Y-131438600D01*
X202869000Y-131438600D02*
X202869000Y-125936600D01*
X202869000Y-125936600D02*
X207289000Y-121516700D01*
X207289000Y-121516700D02*
X207289000Y-111431800D01*
X207289000Y-111431800D02*
X216376000Y-102345000D01*
X216376000Y-102345000D02*
X216376000Y-101402400D01*
X200094000Y-131438600D02*
X201294000Y-131438600D01*
X85737500Y-150488600D02*
X84612500Y-150488600D01*
X84612500Y-150488600D02*
X83412500Y-150488600D01*
X327500000Y-131438600D02*
X326300000Y-131438600D01*
X297669000Y-131438600D02*
X296544000Y-131438600D01*
X296544000Y-131438600D02*
X295344000Y-131438600D01*
X328625000Y-131438600D02*
X327500000Y-131438600D01*
X328625000Y-131438600D02*
X329550000Y-131438600D01*
X329550000Y-131438600D02*
X329550000Y-131322900D01*
X329550000Y-131322900D02*
X335755000Y-125117800D01*
X335755000Y-125117800D02*
X341874000Y-125117800D01*
X341874000Y-125117800D02*
X344805000Y-128048800D01*
X344805000Y-128048800D02*
X344805000Y-133978600D01*
X225584000Y-135883600D02*
X224169000Y-134468300D01*
X224169000Y-134468300D02*
X224169000Y-131438600D01*
X224169000Y-131438600D02*
X224619000Y-131438600D01*
X225744000Y-131438600D02*
X224619000Y-131438600D01*
X225744000Y-131438600D02*
X226944000Y-131438600D01*
X244634000Y-135883600D02*
X243219000Y-134468300D01*
X243219000Y-134468300D02*
X243219000Y-131438600D01*
X243219000Y-131438600D02*
X243669000Y-131438600D01*
X244794000Y-131438600D02*
X243669000Y-131438600D01*
X244794000Y-131438600D02*
X245994000Y-131438600D01*
X263684000Y-135883600D02*
X262269000Y-134468300D01*
X262269000Y-134468300D02*
X262269000Y-131438600D01*
X262269000Y-131438600D02*
X262719000Y-131438600D01*
X263844000Y-131438600D02*
X262719000Y-131438600D01*
X263844000Y-131438600D02*
X265044000Y-131438600D01*
X282734000Y-135883600D02*
X281319000Y-134468300D01*
X281319000Y-134468300D02*
X281319000Y-131438600D01*
X281319000Y-131438600D02*
X281769000Y-131438600D01*
X282894000Y-131438600D02*
X281769000Y-131438600D01*
X282894000Y-131438600D02*
X284094000Y-131438600D01*
X301784000Y-135883600D02*
X300369000Y-134468300D01*
X300369000Y-134468300D02*
X300369000Y-131438600D01*
X300369000Y-131438600D02*
X300819000Y-131438600D01*
X301944000Y-131438600D02*
X300819000Y-131438600D01*
X301944000Y-131438600D02*
X303144000Y-131438600D01*
X320834000Y-135883600D02*
X320834000Y-133429200D01*
X320834000Y-133429200D02*
X319419000Y-132013900D01*
X319419000Y-132013900D02*
X319419000Y-131438600D01*
X319419000Y-131438600D02*
X319869000Y-131438600D01*
X320994000Y-131438600D02*
X319869000Y-131438600D01*
X320994000Y-131438600D02*
X322194000Y-131438600D01*
X332740000Y-135883600D02*
X331325000Y-134468300D01*
X331325000Y-134468300D02*
X331325000Y-131438600D01*
X331325000Y-131438600D02*
X331775000Y-131438600D01*
X332900000Y-131438600D02*
X331775000Y-131438600D01*
X332900000Y-131438600D02*
X334100000Y-131438600D01*
X89852500Y-154933600D02*
X88437200Y-153518300D01*
X88437200Y-153518300D02*
X88437200Y-150488600D01*
X88437200Y-150488600D02*
X88887500Y-150488600D01*
X90012500Y-150488600D02*
X88887500Y-150488600D01*
X90012500Y-150488600D02*
X91212500Y-150488600D01*
X222513000Y-138112500D02*
X222513000Y-126856300D01*
X222513000Y-126856300D02*
X220744000Y-125087500D01*
X220744000Y-125087500D02*
X220744000Y-120994000D01*
X220744000Y-120994000D02*
X215229000Y-115479500D01*
X215229000Y-115479500D02*
X215229000Y-113586100D01*
X215229000Y-113586100D02*
X216128000Y-112687800D01*
X216128000Y-112687800D02*
X216868000Y-112687800D01*
X216868000Y-112687800D02*
X217999000Y-111556800D01*
X217999000Y-111556800D02*
X217999000Y-105565500D01*
X217999000Y-105565500D02*
X216376000Y-103942400D01*
X228669000Y-150488600D02*
X228294000Y-150488600D01*
X228294000Y-150488600D02*
X228294000Y-142830900D01*
X228294000Y-142830900D02*
X223575000Y-138112500D01*
X223575000Y-138112500D02*
X222513000Y-138112500D01*
X250044000Y-150488600D02*
X248919000Y-150488600D01*
X247719000Y-150488600D02*
X248919000Y-150488600D01*
X230994000Y-150488600D02*
X229869000Y-150488600D01*
X229869000Y-150488600D02*
X228669000Y-150488600D01*
X222513000Y-138112500D02*
X212394000Y-148230900D01*
X212394000Y-148230900D02*
X212394000Y-150488600D01*
X212394000Y-150488600D02*
X211944000Y-150488600D01*
X210819000Y-150488600D02*
X211944000Y-150488600D01*
X209619000Y-150488600D02*
X210819000Y-150488600D01*
X192894000Y-150488600D02*
X191769000Y-150488600D01*
X190569000Y-150488600D02*
X191769000Y-150488600D01*
X173844000Y-150488600D02*
X172719000Y-150488600D01*
X171519000Y-150488600D02*
X172719000Y-150488600D01*
X154794000Y-150488600D02*
X153669000Y-150488600D01*
X152469000Y-150488600D02*
X153669000Y-150488600D01*
X135743800Y-150488600D02*
X134618800Y-150488600D01*
X133418800Y-150488600D02*
X134618800Y-150488600D01*
X116693800Y-150488600D02*
X115568800Y-150488600D01*
X115568800Y-150488600D02*
X114368800Y-150488600D01*
X96518800Y-150488600D02*
X95318800Y-150488600D01*
X97643800Y-150488600D02*
X96518800Y-150488600D01*
X101758800Y-154933600D02*
X101758800Y-152479200D01*
X101758800Y-152479200D02*
X100343500Y-151063900D01*
X100343500Y-151063900D02*
X100343500Y-150488600D01*
X100343500Y-150488600D02*
X100793800Y-150488600D01*
X101918800Y-150488600D02*
X100793800Y-150488600D01*
X101918800Y-150488600D02*
X103118800Y-150488600D01*
X120808800Y-154933600D02*
X119393500Y-153518300D01*
X119393500Y-153518300D02*
X119393500Y-150488600D01*
X119393500Y-150488600D02*
X119843800Y-150488600D01*
X120968800Y-150488600D02*
X119843800Y-150488600D01*
X120968800Y-150488600D02*
X122168800Y-150488600D01*
X139858800Y-154933600D02*
X138443500Y-153518300D01*
X138443500Y-153518300D02*
X138443500Y-150488600D01*
X138443500Y-150488600D02*
X138893800Y-150488600D01*
X140018800Y-150488600D02*
X138893800Y-150488600D01*
X140018800Y-150488600D02*
X141218800Y-150488600D01*
X158909000Y-154933600D02*
X157494000Y-153518300D01*
X157494000Y-153518300D02*
X157494000Y-150488600D01*
X157494000Y-150488600D02*
X157944000Y-150488600D01*
X159069000Y-150488600D02*
X157944000Y-150488600D01*
X159069000Y-150488600D02*
X160269000Y-150488600D01*
X177959000Y-154933600D02*
X176544000Y-153518300D01*
X176544000Y-153518300D02*
X176544000Y-150488600D01*
X176544000Y-150488600D02*
X176994000Y-150488600D01*
X178119000Y-150488600D02*
X176994000Y-150488600D01*
X178119000Y-150488600D02*
X179319000Y-150488600D01*
X197009000Y-154933600D02*
X195594000Y-153518300D01*
X195594000Y-153518300D02*
X195594000Y-150488600D01*
X195594000Y-150488600D02*
X196044000Y-150488600D01*
X197169000Y-150488600D02*
X196044000Y-150488600D01*
X197169000Y-150488600D02*
X198369000Y-150488600D01*
X216059000Y-154933600D02*
X214644000Y-153518300D01*
X214644000Y-153518300D02*
X214644000Y-150488600D01*
X214644000Y-150488600D02*
X215094000Y-150488600D01*
X216219000Y-150488600D02*
X215094000Y-150488600D01*
X216219000Y-150488600D02*
X217419000Y-150488600D01*
X235109000Y-154933600D02*
X233694000Y-153518300D01*
X233694000Y-153518300D02*
X233694000Y-150488600D01*
X233694000Y-150488600D02*
X234144000Y-150488600D01*
X235269000Y-150488600D02*
X234144000Y-150488600D01*
X235269000Y-150488600D02*
X236469000Y-150488600D01*
X254159000Y-154933600D02*
X252744000Y-153518300D01*
X252744000Y-153518300D02*
X252744000Y-150488600D01*
X252744000Y-150488600D02*
X253194000Y-150488600D01*
X254319000Y-150488600D02*
X253194000Y-150488600D01*
X254319000Y-150488600D02*
X255519000Y-150488600D01*
X273209000Y-154933600D02*
X271794000Y-153518300D01*
X271794000Y-153518300D02*
X271794000Y-150488600D01*
X271794000Y-150488600D02*
X272244000Y-150488600D01*
X273369000Y-150488600D02*
X272244000Y-150488600D01*
X273369000Y-150488600D02*
X274569000Y-150488600D01*
X216376000Y-106482400D02*
X217507000Y-107613600D01*
X217507000Y-107613600D02*
X217507000Y-109512800D01*
X217507000Y-109512800D02*
X216872000Y-110147800D01*
X216872000Y-110147800D02*
X216125000Y-110147800D01*
X216125000Y-110147800D02*
X213021000Y-113252100D01*
X213021000Y-113252100D02*
X213021000Y-120129200D01*
X213021000Y-120129200D02*
X209824000Y-123326000D01*
X209824000Y-123326000D02*
X209824000Y-135383800D01*
X209824000Y-135383800D02*
X207239000Y-137969000D01*
X207239000Y-137969000D02*
X207239000Y-166030700D01*
X207239000Y-166030700D02*
X204856000Y-168413300D01*
X204856000Y-168413300D02*
X204856000Y-168975900D01*
X304812000Y-169538600D02*
X303687000Y-169538600D01*
X302487000Y-169538600D02*
X303687000Y-169538600D01*
X288144000Y-169538600D02*
X287019000Y-169538600D01*
X287019000Y-169538600D02*
X285819000Y-169538600D01*
X285819000Y-169538600D02*
X285819000Y-168413300D01*
X285819000Y-168413300D02*
X283398000Y-165991900D01*
X283398000Y-165991900D02*
X283398000Y-154035300D01*
X283398000Y-154035300D02*
X285819000Y-151613900D01*
X285819000Y-151613900D02*
X285819000Y-150488600D01*
X207181000Y-169538600D02*
X206056000Y-169538600D01*
X204856000Y-169538600D02*
X204856000Y-168975900D01*
X204856000Y-168975900D02*
X205493000Y-168975900D01*
X205493000Y-168975900D02*
X206056000Y-169538600D01*
X126218800Y-169538600D02*
X125093800Y-169538600D01*
X123893800Y-169538600D02*
X125093800Y-169538600D01*
X269094000Y-150488600D02*
X267969000Y-150488600D01*
X266769000Y-150488600D02*
X267969000Y-150488600D01*
X104787500Y-169538600D02*
X103662500Y-169538600D01*
X103662500Y-169538600D02*
X102462500Y-169538600D01*
X349250000Y-163913600D02*
X349250000Y-162713600D01*
X349250000Y-162713600D02*
X349250000Y-161588600D01*
X349250000Y-161588600D02*
X349250000Y-160379900D01*
X349250000Y-160379900D02*
X345337000Y-156467300D01*
X345337000Y-156467300D02*
X344027000Y-156467300D01*
X344027000Y-156467300D02*
X336874000Y-149314900D01*
X336874000Y-149314900D02*
X325961000Y-149314900D01*
X325961000Y-149314900D02*
X324787000Y-150488600D01*
X324787000Y-150488600D02*
X323862000Y-150488600D01*
X323862000Y-150488600D02*
X322737000Y-150488600D01*
X322737000Y-150488600D02*
X321537000Y-150488600D01*
X321537000Y-150488600D02*
X321537000Y-151849600D01*
X321537000Y-151849600D02*
X318453000Y-154933600D01*
X318453000Y-154933600D02*
X317261000Y-154933600D01*
X317261000Y-154933600D02*
X313271000Y-158924000D01*
X313271000Y-158924000D02*
X311472000Y-158924000D01*
X311472000Y-158924000D02*
X311314000Y-158766000D01*
X311314000Y-158766000D02*
X310344000Y-158766000D01*
X310344000Y-158766000D02*
X304812000Y-164298000D01*
X304812000Y-164298000D02*
X304812000Y-169538600D01*
X288144000Y-150488600D02*
X287019000Y-150488600D01*
X287019000Y-150488600D02*
X285819000Y-150488600D01*
X292259000Y-154933600D02*
X290844000Y-153518300D01*
X290844000Y-153518300D02*
X290844000Y-150488600D01*
X290844000Y-150488600D02*
X291294000Y-150488600D01*
X292419000Y-150488600D02*
X291294000Y-150488600D01*
X292419000Y-150488600D02*
X293619000Y-150488600D01*
X327977000Y-154933600D02*
X326562000Y-153518300D01*
X326562000Y-153518300D02*
X326562000Y-150488600D01*
X326562000Y-150488600D02*
X327012000Y-150488600D01*
X328137000Y-150488600D02*
X327012000Y-150488600D01*
X328137000Y-150488600D02*
X329337000Y-150488600D01*
X349250000Y-156113600D02*
X349250000Y-157313600D01*
X349250000Y-157313600D02*
X349250000Y-158438600D01*
X106521200Y-173983600D02*
X107937500Y-172567300D01*
X107937500Y-172567300D02*
X107937500Y-169538600D01*
X107937500Y-169538600D02*
X109062500Y-169538600D01*
X109062500Y-169538600D02*
X110262500Y-169538600D01*
X130333800Y-173983600D02*
X128918500Y-172568300D01*
X128918500Y-172568300D02*
X128918500Y-169538600D01*
X128918500Y-169538600D02*
X129368800Y-169538600D01*
X130493800Y-169538600D02*
X129368800Y-169538600D01*
X130493800Y-169538600D02*
X131693800Y-169538600D01*
X211296000Y-173983600D02*
X209881000Y-172568300D01*
X209881000Y-172568300D02*
X209881000Y-169538600D01*
X209881000Y-169538600D02*
X210331000Y-169538600D01*
X211456000Y-169538600D02*
X210331000Y-169538600D01*
X211456000Y-169538600D02*
X212656000Y-169538600D01*
X292259000Y-173983600D02*
X290844000Y-172568300D01*
X290844000Y-172568300D02*
X290844000Y-169538600D01*
X290844000Y-169538600D02*
X291294000Y-169538600D01*
X292419000Y-169538600D02*
X291294000Y-169538600D01*
X292419000Y-169538600D02*
X293619000Y-169538600D01*
X309087000Y-169538600D02*
X310287000Y-169538600D01*
X307962000Y-169538600D02*
X309087000Y-169538600D01*
X316071000Y-173983600D02*
X314732000Y-173983600D01*
X314732000Y-173983600D02*
X310862000Y-170113500D01*
X310862000Y-170113500D02*
X310287000Y-169538600D01*
X310862000Y-170113500D02*
X310662000Y-169913900D01*
X310662000Y-169913900D02*
X310662000Y-169538600D01*
X310662000Y-169538600D02*
X310287000Y-169538600D01*
X113867700Y-119373600D02*
X119221200Y-119373600D01*
X95408800Y-157473600D02*
X94189800Y-156254600D01*
X94189800Y-156254600D02*
X94189800Y-139051500D01*
X94189800Y-139051500D02*
X113867700Y-119373600D01*
X259595000Y-100323600D02*
X243046000Y-100323600D01*
X290671000Y-119373600D02*
X270884000Y-99586300D01*
X270884000Y-99586300D02*
X263752000Y-99586300D01*
X263752000Y-99586300D02*
X263023000Y-98857400D01*
X263023000Y-98857400D02*
X261061000Y-98857400D01*
X261061000Y-98857400D02*
X259595000Y-100323600D01*
X200184000Y-138423600D02*
X204644000Y-133964000D01*
X204644000Y-133964000D02*
X204644000Y-124799200D01*
X204644000Y-124799200D02*
X212001000Y-117442200D01*
X212001000Y-117442200D02*
X212001000Y-113397800D01*
X212001000Y-113397800D02*
X216376000Y-109022400D01*
X259595000Y-100323600D02*
X259595000Y-108647300D01*
X259595000Y-108647300D02*
X266201000Y-115253300D01*
X266201000Y-115253300D02*
X266201000Y-139186600D01*
X266201000Y-139186600D02*
X264970000Y-140418000D01*
X264970000Y-140418000D02*
X264970000Y-155584300D01*
X264970000Y-155584300D02*
X266859000Y-157473600D01*
X113867700Y-119373600D02*
X113867700Y-115940700D01*
X113867700Y-115940700D02*
X104008600Y-106081600D01*
X289069000Y-147858200D02*
X283767000Y-147858200D01*
X283767000Y-147858200D02*
X273071000Y-137162100D01*
X273071000Y-137162100D02*
X273071000Y-118728500D01*
X273071000Y-118728500D02*
X262096000Y-107753100D01*
X262096000Y-107753100D02*
X262096000Y-100323600D01*
X285909000Y-157473600D02*
X289069000Y-154313200D01*
X289069000Y-154313200D02*
X289069000Y-147858200D01*
X216376000Y-111562400D02*
X214779000Y-113159300D01*
X214779000Y-113159300D02*
X214779000Y-117155700D01*
X214779000Y-117155700D02*
X215924000Y-118300600D01*
X215924000Y-118300600D02*
X215924000Y-135113600D01*
X215924000Y-135113600D02*
X219234000Y-138423600D01*
X114458800Y-157473600D02*
X118268800Y-153663600D01*
X118268800Y-153663600D02*
X118268800Y-142044900D01*
X118268800Y-142044900D02*
X127344200Y-132969500D01*
X127344200Y-132969500D02*
X127344200Y-129808900D01*
X127344200Y-129808900D02*
X137779500Y-119373600D01*
X137779500Y-119373600D02*
X138271200Y-119373600D01*
X289069000Y-147858200D02*
X299694000Y-137233200D01*
X299694000Y-137233200D02*
X299694000Y-128962400D01*
X299694000Y-128962400D02*
X309283000Y-119373600D01*
X309283000Y-119373600D02*
X309721000Y-119373600D01*
X94171400Y-114251200D02*
X90646200Y-110726000D01*
X90646200Y-110726000D02*
X90646200Y-100323600D01*
X325437000Y-148107400D02*
X325437000Y-142432100D01*
X325437000Y-142432100D02*
X330536000Y-137333600D01*
X330536000Y-137333600D02*
X333436000Y-137333600D01*
X333436000Y-137333600D02*
X335500000Y-135269600D01*
X335500000Y-135269600D02*
X335500000Y-131438700D01*
X125526400Y-120697200D02*
X125379700Y-120697200D01*
X125379700Y-120697200D02*
X109696200Y-105013700D01*
X109696200Y-105013700D02*
X109696200Y-100323600D01*
X133508800Y-157473600D02*
X137318800Y-153663600D01*
X137318800Y-153663600D02*
X137318800Y-147208600D01*
X137318800Y-147208600D02*
X147294800Y-137232600D01*
X147294800Y-137232600D02*
X147294800Y-128937200D01*
X147294800Y-128937200D02*
X156858000Y-119373600D01*
X156858000Y-119373600D02*
X157321000Y-119373600D01*
X216376000Y-114102400D02*
X216376000Y-114478300D01*
X216376000Y-114478300D02*
X221415000Y-119517700D01*
X238284000Y-138423600D02*
X238173000Y-138423600D01*
X238173000Y-138423600D02*
X221722000Y-121972500D01*
X221722000Y-121972500D02*
X221722000Y-120200700D01*
X221722000Y-120200700D02*
X221415000Y-119893700D01*
X221415000Y-119893700D02*
X221415000Y-119517700D01*
X221415000Y-119517700D02*
X229165000Y-111768400D01*
X229165000Y-111768400D02*
X229165000Y-110998400D01*
X300196000Y-100323600D02*
X299733000Y-100323600D01*
X299733000Y-100323600D02*
X294481000Y-105575900D01*
X294481000Y-105575900D02*
X294481000Y-118561400D01*
X294481000Y-118561400D02*
X288683000Y-124359700D01*
X288683000Y-124359700D02*
X287134000Y-124359700D01*
X287134000Y-124359700D02*
X279761000Y-131732600D01*
X279761000Y-131732600D02*
X279761000Y-132014100D01*
X279761000Y-132014100D02*
X274371000Y-137404200D01*
X176371000Y-119373600D02*
X175908000Y-119373600D01*
X175908000Y-119373600D02*
X165669000Y-129613000D01*
X165669000Y-129613000D02*
X165669000Y-132275400D01*
X165669000Y-132275400D02*
X165482000Y-132275400D01*
X165482000Y-132275400D02*
X165219000Y-132539100D01*
X165219000Y-132539100D02*
X165219000Y-133099000D01*
X165219000Y-133099000D02*
X165257000Y-133137500D01*
X165257000Y-133137500D02*
X156369000Y-142025700D01*
X156369000Y-142025700D02*
X156369000Y-153663700D01*
X156369000Y-153663700D02*
X152559000Y-157473600D01*
X257334000Y-138423600D02*
X257132000Y-138423600D01*
X257132000Y-138423600D02*
X229890000Y-111181500D01*
X229890000Y-111181500D02*
X229890000Y-108268800D01*
X229890000Y-108268800D02*
X219022000Y-97401000D01*
X219022000Y-97401000D02*
X219022000Y-97327500D01*
X219022000Y-97327500D02*
X216834000Y-95138900D01*
X216834000Y-95138900D02*
X202319000Y-95138900D01*
X202319000Y-95138900D02*
X201136000Y-96322400D01*
X201136000Y-96322400D02*
X197800000Y-99658500D01*
X197800000Y-99658500D02*
X197800000Y-101591200D01*
X197800000Y-101591200D02*
X194208000Y-105182900D01*
X194208000Y-105182900D02*
X187249000Y-105182900D01*
X187249000Y-105182900D02*
X180181000Y-112250700D01*
X180181000Y-112250700D02*
X180181000Y-115563600D01*
X180181000Y-115563600D02*
X176371000Y-119373600D01*
X128746200Y-100323600D02*
X116093600Y-100323600D01*
X116093600Y-100323600D02*
X114596800Y-98826800D01*
X114596800Y-98826800D02*
X109100000Y-98826800D01*
X109100000Y-98826800D02*
X103283300Y-104643500D01*
X103283300Y-104643500D02*
X103283300Y-106165100D01*
X103283300Y-106165100D02*
X82550000Y-126898400D01*
X82550000Y-126898400D02*
X82550000Y-135742800D01*
X82550000Y-135742800D02*
X79869200Y-138423600D01*
X79869200Y-138423600D02*
X78740000Y-138423600D01*
X276384000Y-138423600D02*
X282306000Y-138423600D01*
X282306000Y-138423600D02*
X286205000Y-134524800D01*
X286205000Y-134524800D02*
X286205000Y-129566500D01*
X105728900Y-139218700D02*
X107116000Y-137831600D01*
X107116000Y-137831600D02*
X111453600Y-137831600D01*
X111453600Y-137831600D02*
X126251800Y-123033400D01*
X126251800Y-123033400D02*
X126251800Y-121405300D01*
X126251800Y-121405300D02*
X147333500Y-100323600D01*
X147333500Y-100323600D02*
X147796200Y-100323600D01*
X100171200Y-176523600D02*
X105728900Y-170965900D01*
X105728900Y-170965900D02*
X105728900Y-139218700D01*
X105728900Y-139218700D02*
X104933800Y-138423600D01*
X201136000Y-98862400D02*
X198885000Y-101113400D01*
X198885000Y-101113400D02*
X198885000Y-107016300D01*
X198885000Y-107016300D02*
X194656000Y-111245400D01*
X194656000Y-111245400D02*
X194656000Y-119373600D01*
X171609000Y-157473600D02*
X170394000Y-156258200D01*
X170394000Y-156258200D02*
X170394000Y-145823500D01*
X170394000Y-145823500D02*
X179298000Y-136919300D01*
X179298000Y-136919300D02*
X179298000Y-131056100D01*
X179298000Y-131056100D02*
X190980000Y-119373600D01*
X190980000Y-119373600D02*
X194656000Y-119373600D01*
X194656000Y-119373600D02*
X195421000Y-119373600D01*
X290260074Y-129566500D02*
X286205000Y-129566500D01*
X296799901Y-123026673D02*
X290260074Y-129566500D01*
X296799901Y-121178709D02*
X296799901Y-123026673D01*
X317655010Y-100323600D02*
X296799901Y-121178709D01*
X319246000Y-100323600D02*
X317655010Y-100323600D01*
X298645000Y-128819700D02*
X298645000Y-128355900D01*
X298645000Y-128355900D02*
X313531000Y-113470000D01*
X313531000Y-113470000D02*
X313531000Y-112257000D01*
X313531000Y-112257000D02*
X320358000Y-105430200D01*
X320358000Y-105430200D02*
X323779000Y-105430200D01*
X323779000Y-105430200D02*
X326070000Y-103139600D01*
X326070000Y-103139600D02*
X326070000Y-102514200D01*
X326070000Y-102514200D02*
X328260000Y-100323600D01*
X328260000Y-100323600D02*
X328771000Y-100323600D01*
X295434000Y-138423600D02*
X298645000Y-135212500D01*
X298645000Y-135212500D02*
X298645000Y-128819700D01*
X123983800Y-176523600D02*
X122102500Y-174642300D01*
X122102500Y-174642300D02*
X122102500Y-158969900D01*
X122102500Y-158969900D02*
X123983800Y-157088600D01*
X123983800Y-157088600D02*
X123983800Y-138423600D01*
X123983800Y-138423600D02*
X129906300Y-138423600D01*
X129906300Y-138423600D02*
X144400500Y-123929400D01*
X144400500Y-123929400D02*
X144400500Y-122306500D01*
X144400500Y-122306500D02*
X166383000Y-100323600D01*
X166383000Y-100323600D02*
X166846000Y-100323600D01*
X201136000Y-101402400D02*
X201136000Y-102208100D01*
X201136000Y-102208100D02*
X205598000Y-106669900D01*
X205598000Y-106669900D02*
X205598000Y-116481200D01*
X205598000Y-116481200D02*
X206064000Y-116947600D01*
X206064000Y-116947600D02*
X206064000Y-119089900D01*
X206064000Y-119089900D02*
X205781000Y-119373600D01*
X205781000Y-119373600D02*
X205781000Y-122205500D01*
X205781000Y-122205500D02*
X194469000Y-133517100D01*
X194469000Y-133517100D02*
X194469000Y-153663600D01*
X194469000Y-153663600D02*
X190659000Y-157473600D01*
X314484000Y-138423600D02*
X320352000Y-138423600D01*
X320352000Y-138423600D02*
X324360000Y-134415600D01*
X324360000Y-134415600D02*
X324360000Y-118299500D01*
X324360000Y-118299500D02*
X335595000Y-107064700D01*
X335595000Y-107064700D02*
X335595000Y-102514200D01*
X335595000Y-102514200D02*
X337785000Y-100323600D01*
X337785000Y-100323600D02*
X338296000Y-100323600D01*
X204946000Y-176523600D02*
X208106000Y-173363200D01*
X208106000Y-173363200D02*
X208106000Y-162146200D01*
X208106000Y-162146200D02*
X209709000Y-160543600D01*
X209709000Y-160543600D02*
X209709000Y-157473600D01*
X205339000Y-117248100D02*
X204592000Y-116501100D01*
X204592000Y-116501100D02*
X204592000Y-107398400D01*
X204592000Y-107398400D02*
X201136000Y-103942400D01*
X185896000Y-100323600D02*
X180696000Y-100323600D01*
X180696000Y-100323600D02*
X171406000Y-109613900D01*
X171406000Y-109613900D02*
X163816000Y-109613900D01*
X163816000Y-109613900D02*
X161330000Y-112100300D01*
X161330000Y-112100300D02*
X161330000Y-112327800D01*
X161330000Y-112327800D02*
X146294200Y-127363200D01*
X146294200Y-127363200D02*
X146294200Y-135163200D01*
X146294200Y-135163200D02*
X143033800Y-138423600D01*
X209709000Y-157473600D02*
X225763000Y-157473600D01*
X225763000Y-157473600D02*
X231919000Y-151317700D01*
X231919000Y-151317700D02*
X231919000Y-147858200D01*
X231919000Y-147858200D02*
X239754000Y-140023400D01*
X239754000Y-140023400D02*
X239754000Y-135061700D01*
X239754000Y-135061700D02*
X238514000Y-133821100D01*
X238514000Y-133821100D02*
X233521000Y-128828500D01*
X233521000Y-128828500D02*
X233521000Y-119373600D01*
X285909000Y-176298400D02*
X285909000Y-176523600D01*
X326390000Y-138423600D02*
X324216000Y-138423600D01*
X324216000Y-138423600D02*
X306586000Y-156053700D01*
X306586000Y-156053700D02*
X306586000Y-161748300D01*
X306586000Y-161748300D02*
X292036000Y-176298400D01*
X292036000Y-176298400D02*
X285909000Y-176298400D01*
X202261000Y-99441200D02*
X202261000Y-98396200D01*
X202261000Y-98396200D02*
X201602000Y-97737100D01*
X201602000Y-97737100D02*
X200670000Y-97737100D01*
X200670000Y-97737100D02*
X198250000Y-100156800D01*
X198250000Y-100156800D02*
X198250000Y-102296400D01*
X198250000Y-102296400D02*
X184741000Y-115805700D01*
X184741000Y-115805700D02*
X184741000Y-116889900D01*
X184741000Y-116889900D02*
X183136000Y-118495000D01*
X183136000Y-118495000D02*
X180296000Y-118495000D01*
X180296000Y-118495000D02*
X169574000Y-129216900D01*
X169574000Y-129216900D02*
X167403000Y-129216900D01*
X201136000Y-106482400D02*
X199983000Y-105328900D01*
X199983000Y-105328900D02*
X199983000Y-100907900D01*
X199983000Y-100907900D02*
X200903000Y-99987700D01*
X200903000Y-99987700D02*
X201715000Y-99987700D01*
X201715000Y-99987700D02*
X202261000Y-99441200D01*
X167403000Y-129216900D02*
X167282000Y-129095800D01*
X342265000Y-127628600D02*
X333917000Y-127628600D01*
X333917000Y-127628600D02*
X330200000Y-131346000D01*
X330200000Y-131346000D02*
X330200000Y-134613600D01*
X330200000Y-134613600D02*
X326390000Y-138423600D01*
X162084000Y-138423600D02*
X166544000Y-133964000D01*
X166544000Y-133964000D02*
X166544000Y-130076000D01*
X166544000Y-130076000D02*
X167403000Y-129216900D01*
X202261000Y-99441200D02*
X204064000Y-99441200D01*
X204064000Y-99441200D02*
X204946000Y-100323600D01*
X228759000Y-157473600D02*
X237769000Y-157473600D01*
X237769000Y-157473600D02*
X240024000Y-155218300D01*
X240024000Y-155218300D02*
X255509000Y-139733700D01*
X255509000Y-139733700D02*
X256532000Y-139733700D01*
X256532000Y-139733700D02*
X256729000Y-139931300D01*
X256729000Y-139931300D02*
X257903000Y-139931300D01*
X257903000Y-139931300D02*
X258803000Y-139030900D01*
X258803000Y-139030900D02*
X258803000Y-135058500D01*
X258803000Y-135058500D02*
X252571000Y-128826400D01*
X252571000Y-128826400D02*
X252571000Y-119373600D01*
X285909000Y-176298400D02*
X261105000Y-176298400D01*
X261105000Y-176298400D02*
X240024000Y-155218300D01*
X204229000Y-118272000D02*
X203361000Y-117403600D01*
X203361000Y-117403600D02*
X203361000Y-108707200D01*
X203361000Y-108707200D02*
X201136000Y-106482400D01*
X273023000Y-161003300D02*
X273023000Y-159087200D01*
X273023000Y-159087200D02*
X271271000Y-157335200D01*
X271271000Y-157335200D02*
X271271000Y-123085300D01*
X271271000Y-123085300D02*
X271621000Y-122734900D01*
X271621000Y-122734900D02*
X271621000Y-119373600D01*
X287576000Y-175556900D02*
X273023000Y-161003300D01*
X95568200Y-134046200D02*
X95568200Y-123484300D01*
X95568200Y-123484300D02*
X99678900Y-119373600D01*
X99678900Y-119373600D02*
X100171200Y-119373600D01*
X83502500Y-157473600D02*
X87312500Y-153663600D01*
X87312500Y-153663600D02*
X87312500Y-145141000D01*
X87312500Y-145141000D02*
X95568200Y-136885300D01*
X95568200Y-136885300D02*
X95568200Y-134046200D01*
X223996000Y-100323600D02*
X236260000Y-100323600D01*
X236260000Y-100323600D02*
X255310000Y-119373600D01*
X255310000Y-119373600D02*
X257533000Y-119373600D01*
X181134000Y-138423600D02*
X184294000Y-135263200D01*
X184294000Y-135263200D02*
X184294000Y-131996000D01*
X184294000Y-131996000D02*
X191793000Y-124497600D01*
X191793000Y-124497600D02*
X193295000Y-124497600D01*
X193295000Y-124497600D02*
X197336000Y-120456700D01*
X197336000Y-120456700D02*
X197336000Y-115977700D01*
X197336000Y-115977700D02*
X195106000Y-113748200D01*
X195106000Y-113748200D02*
X195106000Y-111657300D01*
X195106000Y-111657300D02*
X197741000Y-109022400D01*
X197741000Y-109022400D02*
X201136000Y-109022400D01*
X247809000Y-157473600D02*
X260706000Y-157473600D01*
X260706000Y-157473600D02*
X265582000Y-162349900D01*
X265582000Y-162349900D02*
X271676000Y-162349900D01*
X271676000Y-162349900D02*
X273023000Y-161003300D01*
X192856000Y-90132400D02*
X186556000Y-90132400D01*
X201136000Y-91242400D02*
X195141000Y-91242400D01*
X195141000Y-91242400D02*
X194031000Y-90132400D01*
X194031000Y-90132400D02*
X192856000Y-90132400D01*
X224117000Y-88379300D02*
X222941700Y-88379300D01*
X201136000Y-93782400D02*
X209881400Y-85037000D01*
X209881400Y-85037000D02*
X219599400Y-85037000D01*
X219599400Y-85037000D02*
X222941700Y-88379300D01*
X225481700Y-88379300D02*
X225481700Y-87566500D01*
X225481700Y-87566500D02*
X222501900Y-84586700D01*
X222501900Y-84586700D02*
X205251700Y-84586700D01*
X205251700Y-84586700D02*
X201136000Y-88702400D01*
X226657000Y-88379300D02*
X225481700Y-88379300D01*
X201136000Y-88702400D02*
X196401000Y-88702400D01*
X196401000Y-88702400D02*
X194031000Y-86332400D01*
X194031000Y-86332400D02*
X192856000Y-86332400D01*
X192856000Y-86332400D02*
X186556000Y-86332400D01*
X229197000Y-88379300D02*
X229197000Y-89554600D01*
X229197000Y-89554600D02*
X228021700Y-90729900D01*
X228021700Y-90729900D02*
X228021700Y-93223000D01*
X228021700Y-93223000D02*
X226725300Y-94519400D01*
X226725300Y-94519400D02*
X218913200Y-94519400D01*
X218913200Y-94519400D02*
X217050800Y-92657000D01*
X217050800Y-92657000D02*
X215137800Y-92657000D01*
X215137800Y-92657000D02*
X213330800Y-94464000D01*
X213330800Y-94464000D02*
X202357000Y-94464000D01*
X202357000Y-94464000D02*
X201768600Y-95052400D01*
X201768600Y-95052400D02*
X200747000Y-95052400D01*
X200747000Y-95052400D02*
X196059900Y-99739500D01*
X196059900Y-99739500D02*
X196059900Y-102007500D01*
X201136000Y-111562400D02*
X202308400Y-110390000D01*
X202308400Y-110390000D02*
X202308400Y-108598300D01*
X202308400Y-108598300D02*
X201581800Y-107871700D01*
X201581800Y-107871700D02*
X199087600Y-107871700D01*
X199087600Y-107871700D02*
X198856100Y-108103200D01*
X231737000Y-88379300D02*
X231737000Y-89554600D01*
X244893800Y-107910900D02*
X232912300Y-95929400D01*
X232912300Y-95929400D02*
X232912300Y-90729900D01*
X232912300Y-90729900D02*
X231737000Y-89554600D01*
M02*
